%TF.GenerationSoftware,Flux,Pcbnew,7.0.11-7.0.11~ubuntu20.04.1*%
%TF.CreationDate,2024-08-16T08:07:52+00:00*%
%TF.ProjectId,input,696e7075-742e-46b6-9963-61645f706362,rev?*%
%TF.SameCoordinates,Original*%
%TF.FileFunction,Copper,L2,Bot*%
%TF.FilePolarity,Positive*%
%FSLAX46Y46*%
G04 Gerber Fmt 4.6, Leading zero omitted, Abs format (unit mm)*
G04 Filename: betterflipperzero*
G04 Build it with Flux! Visit our site at: https://www.flux.ai (PCBNEW 7.0.11-7.0.11~ubuntu20.04.1) date 2024-08-16 08:07:52*
%MOMM*%
%LPD*%
G01*
G04 APERTURE LIST*
G04 Aperture macros list*
%AMFreePoly0*
4,1,129,0.022069,0.299187,0.036723,0.297744,0.051289,0.295583,0.065730,0.292711,0.080014,0.289133,0.094105,0.284858,0.107969,0.279898,0.121572,0.274263,0.134883,0.267967,0.147869,0.261026,0.160499,0.253456,0.172742,0.245275,0.184569,0.236504,0.195952,0.227163,0.206862,0.217274,0.217274,0.206862,0.227163,0.195952,0.236504,0.184569,0.245275,0.172742,0.253456,0.160499,
0.261026,0.147869,0.267967,0.134883,0.274263,0.121572,0.279898,0.107969,0.284858,0.094105,0.289133,0.080014,0.292711,0.065730,0.295583,0.051289,0.297744,0.036723,0.299187,0.022069,0.299910,0.007362,0.299910,-0.007362,0.299187,-0.022069,0.297744,-0.036723,0.295583,-0.051289,0.292711,-0.065730,0.289133,-0.080014,0.284858,-0.094105,0.279898,-0.107969,0.274263,-0.121572,
0.267967,-0.134883,0.261026,-0.147869,0.253456,-0.160499,0.245275,-0.172742,0.236504,-0.184569,0.227163,-0.195952,0.217274,-0.206862,0.206862,-0.217274,0.195952,-0.227163,0.184569,-0.236504,0.172742,-0.245275,0.160499,-0.253456,0.147869,-0.261026,0.134883,-0.267967,0.121572,-0.274263,0.107969,-0.279898,0.094105,-0.284858,0.080014,-0.289133,0.065730,-0.292711,0.051289,-0.295583,
0.036723,-0.297744,0.022069,-0.299187,0.007362,-0.299910,-0.007362,-0.299910,-0.022069,-0.299187,-0.036723,-0.297744,-0.051289,-0.295583,-0.065730,-0.292711,-0.080014,-0.289133,-0.094105,-0.284858,-0.107969,-0.279898,-0.121572,-0.274263,-0.134883,-0.267967,-0.147869,-0.261026,-0.160499,-0.253456,-0.172742,-0.245275,-0.184569,-0.236504,-0.195952,-0.227163,-0.206862,-0.217274,-0.217274,-0.206862,
-0.227163,-0.195952,-0.236504,-0.184569,-0.245275,-0.172742,-0.253456,-0.160499,-0.261026,-0.147869,-0.267967,-0.134883,-0.274263,-0.121572,-0.279898,-0.107969,-0.284858,-0.094105,-0.289133,-0.080014,-0.292711,-0.065730,-0.295583,-0.051289,-0.297744,-0.036723,-0.299187,-0.022069,-0.299910,-0.007362,-0.299910,0.007362,-0.299187,0.022069,-0.297744,0.036723,-0.295583,0.051289,-0.292711,0.065730,
-0.289133,0.080014,-0.284858,0.094105,-0.279898,0.107969,-0.274263,0.121572,-0.267967,0.134883,-0.261026,0.147869,-0.253456,0.160499,-0.245275,0.172742,-0.236504,0.184569,-0.227163,0.195952,-0.217274,0.206862,-0.206862,0.217274,-0.195952,0.227163,-0.184569,0.236504,-0.172742,0.245275,-0.160499,0.253456,-0.147869,0.261026,-0.134883,0.267967,-0.121572,0.274263,-0.107969,0.279898,
-0.094105,0.284858,-0.080014,0.289133,-0.065730,0.292711,-0.051289,0.295583,-0.036723,0.297744,-0.022069,0.299187,-0.007362,0.299910,0.007362,0.299910,0.022069,0.299187,0.022069,0.299187,$1*%
%AMFreePoly1*
4,1,5,0.750000,-0.450000,-0.750000,-0.450000,-0.750000,0.450000,0.750000,0.450000,0.750000,-0.450000,0.750000,-0.450000,$1*%
%AMFreePoly2*
4,1,5,0.450000,-0.450000,-0.450000,-0.450000,-0.450000,0.450000,0.450000,0.450000,0.450000,-0.450000,0.450000,-0.450000,$1*%
%AMFreePoly3*
4,1,5,0.450000,-0.750000,-0.450000,-0.750000,-0.450000,0.750000,0.450000,0.750000,0.450000,-0.750000,0.450000,-0.750000,$1*%
G04 Aperture macros list end*
%TA.AperFunction,ComponentPad*%
%ADD10O,2.100000X1.050000*%
%TD*%
%TA.AperFunction,ComponentPad*%
%ADD11FreePoly0,0.000000*%
%TD*%
%TA.AperFunction,SMDPad,CuDef*%
%ADD12FreePoly1,0.000000*%
%TD*%
%TA.AperFunction,SMDPad,CuDef*%
%ADD13FreePoly2,0.000000*%
%TD*%
%TA.AperFunction,SMDPad,CuDef*%
%ADD14FreePoly3,0.000000*%
%TD*%
%TA.AperFunction,ComponentPad*%
%ADD15C,0.400000*%
%TD*%
G04 APERTURE END LIST*
D10*
%TO.P,,a9728bda-38a0-4284-839c-b054ecb6658e__2326611f-98f6-a130-ac94-da96fde3ec8f*%
%TO.N,N/C*%
X42720384Y-16909215D03*
%TO.P,,a9728bda-38a0-4284-839c-b054ecb6658e__9415c64b-4f59-a6d9-e7ea-dc5b1de656fb*%
X42720416Y-25549215D03*
%TO.P,,a9728bda-38a0-4284-839c-b054ecb6658e__9b3c6dc7-8e8d-43a0-5d61-3a6777006a6c*%
X46900416Y-25549200D03*
%TO.P,,a9728bda-38a0-4284-839c-b054ecb6658e__e8284091-fcc7-bc14-948c-a2f31e589c00*%
X46900384Y-16909200D03*
D11*
%TO.P,,6d486441-d8c5-414f-bf81-0cfa98cb07fc.via3.1*%
%TO.N,GND*%
X23100000Y-7800000D03*
%TO.P,,6d486441-d8c5-414f-bf81-0cfa98cb07fc.via2.2*%
X38100000Y-22800000D03*
%TO.P,,6d486441-d8c5-414f-bf81-0cfa98cb07fc.via2.1*%
X23100000Y-22800000D03*
%TO.P,,6d486441-d8c5-414f-bf81-0cfa98cb07fc.via1.2*%
X38100000Y-37800000D03*
%TD*%
D12*
%TO.P,,ff6aa628-a694-44a5-a8a3-0151430d2fb0__038cb78d-7f13-44e4-8e9a-53693437642d*%
%TO.N,N/C*%
X18914300Y-13829200D03*
%TO.P,,ff6aa628-a694-44a5-a8a3-0151430d2fb0__074883e9-8a1b-44e0-b46a-ca9c67916540*%
X18914300Y-17639200D03*
D13*
%TO.P,,ff6aa628-a694-44a5-a8a3-0151430d2fb0__0a1d94a2-9a47-41fa-913a-718297cb936f*%
X27764300Y-18879200D03*
%TO.P,,ff6aa628-a694-44a5-a8a3-0151430d2fb0__0eb7175f-22de-45c6-bfae-ba31aa1429b7*%
X27764300Y-21679200D03*
D14*
%TO.P,,ff6aa628-a694-44a5-a8a3-0151430d2fb0__149b1002-9ffa-4318-9ba7-5207bbca47d8*%
X30839300Y-30319200D03*
D12*
%TO.P,,ff6aa628-a694-44a5-a8a3-0151430d2fb0__15feaab6-c953-4c18-8f18-0eeba2babf8d*%
X18914300Y-15099200D03*
%TO.P,,ff6aa628-a694-44a5-a8a3-0151430d2fb0__19b3b8ac-30e6-4f2c-b3e4-cec8665f28e7*%
X18914300Y-18909200D03*
%TO.P,,ff6aa628-a694-44a5-a8a3-0151430d2fb0__1a1dc7dd-29d8-42d6-bf00-5b4859417f33*%
X18914300Y-26529200D03*
D14*
%TO.P,,ff6aa628-a694-44a5-a8a3-0151430d2fb0__28c3e18f-85a8-4a4e-811e-de92b424a83b*%
X28299300Y-30319200D03*
D13*
%TO.P,,ff6aa628-a694-44a5-a8a3-0151430d2fb0__2e2b374c-2dcd-4d96-bdc8-4a44c8bff2cb*%
X30564300Y-21679200D03*
D12*
%TO.P,,ff6aa628-a694-44a5-a8a3-0151430d2fb0__364f9212-23cf-4965-adf2-c0874852d737*%
X36414300Y-20179200D03*
D14*
%TO.P,,ff6aa628-a694-44a5-a8a3-0151430d2fb0__372b3587-4c65-4638-b6bd-0d615aaa9bcf*%
X32109300Y-30319200D03*
D12*
%TO.P,,ff6aa628-a694-44a5-a8a3-0151430d2fb0__378f37c9-9415-404b-9497-740ee99041f1*%
X36414300Y-27799200D03*
%TO.P,,ff6aa628-a694-44a5-a8a3-0151430d2fb0__389e2361-d216-424a-ad14-878b2c16ddf4*%
X18914300Y-27799200D03*
%TO.P,,ff6aa628-a694-44a5-a8a3-0151430d2fb0__467385d9-c49a-4b0c-9521-ff0dd23c2353*%
X18914300Y-25259200D03*
%TO.P,,ff6aa628-a694-44a5-a8a3-0151430d2fb0__48c404ab-321c-4d57-808f-5b71ff3facaa*%
X36414300Y-13829200D03*
%TO.P,,ff6aa628-a694-44a5-a8a3-0151430d2fb0__4b351687-6185-426a-ae30-48d9cbd76add*%
X18914300Y-21449200D03*
D14*
%TO.P,,ff6aa628-a694-44a5-a8a3-0151430d2fb0__4d4f93f3-8acb-4554-ac43-cd747cba396f*%
X21949300Y-30319200D03*
D12*
%TO.P,,ff6aa628-a694-44a5-a8a3-0151430d2fb0__4e079aee-7172-4049-b943-7630e2bcc7bb*%
X18914300Y-16369200D03*
%TO.P,,ff6aa628-a694-44a5-a8a3-0151430d2fb0__54bf5518-18c6-4e11-8164-12302f1229fc*%
X36414300Y-23989200D03*
%TO.P,,ff6aa628-a694-44a5-a8a3-0151430d2fb0__57377a0b-5d9b-4471-ad37-440a84dc5c1c*%
X18914300Y-29069200D03*
%TO.P,,ff6aa628-a694-44a5-a8a3-0151430d2fb0__598dd6e4-bd38-4f37-a754-6b03fa56aff0*%
X36414300Y-29069200D03*
D14*
%TO.P,,ff6aa628-a694-44a5-a8a3-0151430d2fb0__5b5fe32f-7fbe-4265-8d60-dc4b99d1a4c5*%
X33379300Y-30319200D03*
%TO.P,,ff6aa628-a694-44a5-a8a3-0151430d2fb0__5e286a02-b1c0-4b2e-894b-9e9484d7c671*%
X23219300Y-30319200D03*
D13*
%TO.P,,ff6aa628-a694-44a5-a8a3-0151430d2fb0__867a37e5-175c-4e72-b1bc-70e2c8b4a089*%
X30564300Y-20279200D03*
D12*
%TO.P,,ff6aa628-a694-44a5-a8a3-0151430d2fb0__8d1d5373-94ab-4aec-a6e3-7ae1b222c6b0*%
X36414300Y-16369200D03*
D14*
%TO.P,,ff6aa628-a694-44a5-a8a3-0151430d2fb0__9483d5e5-e44a-49e7-a9f2-cfc808672c84*%
X29569300Y-30319200D03*
D12*
%TO.P,,ff6aa628-a694-44a5-a8a3-0151430d2fb0__95038b53-efb1-401a-b7b0-5a15d90bdd5a*%
X36414300Y-15099200D03*
D14*
%TO.P,,ff6aa628-a694-44a5-a8a3-0151430d2fb0__9808895e-53c5-4bb1-89b5-2f682c8c59c8*%
X20679300Y-30319200D03*
D12*
%TO.P,,ff6aa628-a694-44a5-a8a3-0151430d2fb0__9dbd24d4-d20d-45c3-a21d-a6a6f23e3004*%
X36414300Y-21449200D03*
%TO.P,,ff6aa628-a694-44a5-a8a3-0151430d2fb0__a5461eb3-ba20-4ff8-986f-77093064c7fd*%
X36414300Y-22719200D03*
%TO.P,,ff6aa628-a694-44a5-a8a3-0151430d2fb0__b328097a-6308-4fb0-8865-8b354d07d1e1*%
X18914300Y-20179200D03*
D13*
%TO.P,,ff6aa628-a694-44a5-a8a3-0151430d2fb0__b3d47a51-17b0-40f1-94d7-91665f8a5b74*%
X27764300Y-20279200D03*
D12*
%TO.P,,ff6aa628-a694-44a5-a8a3-0151430d2fb0__bfd8b816-9a44-4830-ba7a-92ffaa0cd6c4*%
X36414300Y-25259200D03*
%TO.P,,ff6aa628-a694-44a5-a8a3-0151430d2fb0__c0aeacaa-8ce1-4b42-866c-b142a90d5e1b*%
X18914300Y-22719200D03*
%TO.P,,ff6aa628-a694-44a5-a8a3-0151430d2fb0__c2966f8a-bd4c-4e9e-9bd3-e290757d07ca*%
X36414300Y-26529200D03*
%TO.P,,ff6aa628-a694-44a5-a8a3-0151430d2fb0__c3afd9a5-1ab7-4def-a4ee-3e28405bceff*%
X36414300Y-18909200D03*
D14*
%TO.P,,ff6aa628-a694-44a5-a8a3-0151430d2fb0__c62376b8-e5dc-4ab0-8908-f15f3f11b117*%
X27029300Y-30319200D03*
D13*
%TO.P,,ff6aa628-a694-44a5-a8a3-0151430d2fb0__cfdba786-50db-4356-96cf-ac6ee75314e0*%
X29164300Y-21679200D03*
D12*
%TO.P,,ff6aa628-a694-44a5-a8a3-0151430d2fb0__ee163daa-5110-4e00-ad80-3db228fbfcac*%
X18914300Y-12559200D03*
D13*
%TO.P,,ff6aa628-a694-44a5-a8a3-0151430d2fb0__ee302306-e8f5-4173-904b-e082f63f0331*%
X29164300Y-20279200D03*
D14*
%TO.P,,ff6aa628-a694-44a5-a8a3-0151430d2fb0__f2452f17-455e-40a4-8de7-c5d61dafdc3f*%
X25759300Y-30319200D03*
D12*
%TO.P,,ff6aa628-a694-44a5-a8a3-0151430d2fb0__f338ba31-623d-455e-8973-1e6afaa89b04*%
X36414300Y-17639200D03*
%TO.P,,ff6aa628-a694-44a5-a8a3-0151430d2fb0__f4caacbd-9c2b-4dae-912c-0c8f53f0194d*%
X36414300Y-12559200D03*
D14*
%TO.P,,ff6aa628-a694-44a5-a8a3-0151430d2fb0__f4e0e1de-4650-498a-92e2-2bd6617ff5d9*%
X24489300Y-30319200D03*
D13*
%TO.P,,ff6aa628-a694-44a5-a8a3-0151430d2fb0__fad17131-84aa-453f-ae74-725cc6191e8b*%
X29164300Y-18879200D03*
D14*
%TO.P,,ff6aa628-a694-44a5-a8a3-0151430d2fb0__fae28ec3-3b8c-4290-866b-75b4c93d0946*%
X34649300Y-30319200D03*
D13*
%TO.P,,ff6aa628-a694-44a5-a8a3-0151430d2fb0__fb3ef5ee-6d96-40cb-bf5b-23e493685d10*%
X30564300Y-18879200D03*
D12*
%TO.P,,ff6aa628-a694-44a5-a8a3-0151430d2fb0__fe26ffc2-a141-46a4-b02c-250e6d92bf8c*%
X18914300Y-23989200D03*
D15*
%TO.P,,ff6aa628-a694-44a5-a8a3-0151430d2fb0__ee3a696f-ef70-402c-ab0c-7137ed4eee28.defaultFootprint.mounts.183bc2e5b0fd3164e75ded3f1243107f*%
X28464300Y-21679200D03*
%TO.P,,ff6aa628-a694-44a5-a8a3-0151430d2fb0__ee3a696f-ef70-402c-ab0c-7137ed4eee28.defaultFootprint.mounts.9dc978c55082aad2fafacdbd9f5f57bc*%
X29864300Y-21679200D03*
%TO.P,,ff6aa628-a694-44a5-a8a3-0151430d2fb0__ee3a696f-ef70-402c-ab0c-7137ed4eee28.defaultFootprint.mounts.a0d68b55a491274f814daab068f0c950*%
X28464300Y-20279200D03*
%TO.P,,ff6aa628-a694-44a5-a8a3-0151430d2fb0__ee3a696f-ef70-402c-ab0c-7137ed4eee28.defaultFootprint.mounts.afcd757d940930679b843bc1e4386240*%
X29864300Y-20279200D03*
%TO.P,,ff6aa628-a694-44a5-a8a3-0151430d2fb0__ee3a696f-ef70-402c-ab0c-7137ed4eee28.defaultFootprint.mounts.4504ff15bdcf4818a54146cc7a8e9a0d*%
X28464300Y-18879200D03*
%TO.P,,ff6aa628-a694-44a5-a8a3-0151430d2fb0__ee3a696f-ef70-402c-ab0c-7137ed4eee28.defaultFootprint.mounts.19f3852e009ba6bfae8a2fce513ef1dd*%
X29864300Y-18879200D03*
%TO.P,,ff6aa628-a694-44a5-a8a3-0151430d2fb0__ee3a696f-ef70-402c-ab0c-7137ed4eee28.defaultFootprint.mounts.6d4d26d8edc27532900a7c937b5e863d*%
X27764300Y-20979200D03*
%TO.P,,ff6aa628-a694-44a5-a8a3-0151430d2fb0__ee3a696f-ef70-402c-ab0c-7137ed4eee28.defaultFootprint.mounts.f2ecf32f083cf9b5783a264d7a48b752*%
X29164300Y-20979200D03*
%TO.P,,ff6aa628-a694-44a5-a8a3-0151430d2fb0__ee3a696f-ef70-402c-ab0c-7137ed4eee28.defaultFootprint.mounts.cf10f8cc0c36fe03b55323802961a88d*%
X30564300Y-20979200D03*
%TO.P,,ff6aa628-a694-44a5-a8a3-0151430d2fb0__ee3a696f-ef70-402c-ab0c-7137ed4eee28.defaultFootprint.mounts.52e844226e796b1c42a9f7f1323ab2f7*%
X27764300Y-19579200D03*
%TO.P,,ff6aa628-a694-44a5-a8a3-0151430d2fb0__ee3a696f-ef70-402c-ab0c-7137ed4eee28.defaultFootprint.mounts.a17b4eabb5e4ad17dbcba1ef557d9230*%
X30564300Y-19579200D03*
%TO.P,,ff6aa628-a694-44a5-a8a3-0151430d2fb0__ee3a696f-ef70-402c-ab0c-7137ed4eee28.defaultFootprint.mounts.fab9ee6953aa1da2d8a8f965443f1f1b*%
X29164300Y-19579200D03*
%TD*%
%TA.AperFunction,Conductor*%
%TO.N,GND*%
G36*
X19795000Y-52550000D02*
G01*
X17105000Y-52550000D01*
X16407000Y-52503000D01*
X16397000Y-52502000D01*
X15735000Y-52366000D01*
X15726000Y-52363000D01*
X15098000Y-52146000D01*
X15089000Y-52142000D01*
X14510000Y-51852000D01*
X14502000Y-51847000D01*
X13956000Y-51479000D01*
X13948000Y-51473000D01*
X13463000Y-51043000D01*
X13457000Y-51037000D01*
X13027000Y-50552000D01*
X13021000Y-50544000D01*
X12653000Y-49998000D01*
X12648000Y-49990000D01*
X12358000Y-49411000D01*
X12354000Y-49402000D01*
X12137000Y-48774000D01*
X12134000Y-48765000D01*
X11998000Y-48103000D01*
X11997000Y-48093000D01*
X11950000Y-47395000D01*
X11950000Y-25773000D01*
X11330000Y-25359000D01*
X11325000Y-25355000D01*
X10842000Y-24970000D01*
X10837000Y-24966000D01*
X10412000Y-24564000D01*
X10407000Y-24559000D01*
X10000000Y-24105000D01*
X9996000Y-24100000D01*
X9637000Y-23625000D01*
X9634000Y-23620000D01*
X9308000Y-23105000D01*
X9304000Y-23099000D01*
X9029000Y-22568000D01*
X9027000Y-22562000D01*
X8788000Y-21985000D01*
X8786000Y-21979000D01*
X8601000Y-21397000D01*
X8599000Y-21391000D01*
X8466000Y-20795000D01*
X8465000Y-20788000D01*
X8380000Y-20151000D01*
X8379000Y-20144000D01*
X8351000Y-19504000D01*
X8351000Y-19497000D01*
X8383000Y-18801000D01*
X8384000Y-18794000D01*
X8480000Y-18127000D01*
X8481000Y-18120000D01*
X8642000Y-17460000D01*
X8644000Y-17454000D01*
X8852000Y-16843000D01*
X8855000Y-16837000D01*
X9129000Y-16228000D01*
X9132000Y-16222000D01*
X9453000Y-15655000D01*
X9457000Y-15650000D01*
X9824000Y-15116000D01*
X9829000Y-15110000D01*
X10241000Y-14617000D01*
X10711000Y-14147000D01*
X11215000Y-13725000D01*
X11221000Y-13721000D01*
X11749000Y-13357000D01*
X11754000Y-13353000D01*
X12416000Y-12978000D01*
X12452816Y-12879000D01*
X17664000Y-12879000D01*
X17664000Y-30019000D01*
X19641000Y-30019000D01*
X19729000Y-30107000D01*
X19729000Y-31569000D01*
X35599000Y-31569000D01*
X35599000Y-30107000D01*
X35687000Y-30019000D01*
X37664000Y-30019000D01*
X37664000Y-25510000D01*
X41848000Y-25510000D01*
X41848000Y-25591000D01*
X41870000Y-25673000D01*
X41870000Y-25674000D01*
X41910000Y-25742000D01*
X41915000Y-25749000D01*
X41972000Y-25806000D01*
X42045000Y-25848000D01*
X42131000Y-25871000D01*
X43310000Y-25871000D01*
X43397000Y-25848000D01*
X43396000Y-25848000D01*
X43469000Y-25806000D01*
X43526000Y-25749000D01*
X43531000Y-25742000D01*
X43571000Y-25674000D01*
X43571000Y-25673000D01*
X43593000Y-25591000D01*
X43593000Y-25510000D01*
X46278000Y-25510000D01*
X46278000Y-25591000D01*
X46300000Y-25673000D01*
X46300000Y-25674000D01*
X46340000Y-25742000D01*
X46345000Y-25749000D01*
X46402000Y-25806000D01*
X46475000Y-25848000D01*
X46561000Y-25871000D01*
X47240000Y-25871000D01*
X47327000Y-25848000D01*
X47326000Y-25848000D01*
X47399000Y-25806000D01*
X47456000Y-25749000D01*
X47461000Y-25742000D01*
X47501000Y-25674000D01*
X47501000Y-25673000D01*
X47523000Y-25591000D01*
X47523000Y-25510000D01*
X47500000Y-25424000D01*
X47499000Y-25421000D01*
X47461000Y-25355000D01*
X47458000Y-25351000D01*
X47399000Y-25292000D01*
X47326000Y-25250000D01*
X47327000Y-25250000D01*
X47240000Y-25227000D01*
X46561000Y-25227000D01*
X46475000Y-25250000D01*
X46402000Y-25292000D01*
X46343000Y-25351000D01*
X46340000Y-25355000D01*
X46302000Y-25421000D01*
X46301000Y-25424000D01*
X46278000Y-25510000D01*
X43593000Y-25510000D01*
X43570000Y-25424000D01*
X43569000Y-25421000D01*
X43531000Y-25355000D01*
X43528000Y-25351000D01*
X43469000Y-25292000D01*
X43396000Y-25250000D01*
X43392000Y-25248000D01*
X43278000Y-25216000D01*
X43280000Y-24987000D01*
X43576000Y-24909000D01*
X43578000Y-24908000D01*
X43772000Y-24795000D01*
X43926000Y-24641000D01*
X44039000Y-24447000D01*
X44097000Y-24230000D01*
X44097000Y-24007000D01*
X44043000Y-23796000D01*
X43927000Y-23598000D01*
X43924000Y-23595000D01*
X43769000Y-23442000D01*
X43768000Y-23441000D01*
X43578000Y-23331000D01*
X43361000Y-23272000D01*
X43141000Y-23272000D01*
X42920000Y-23332000D01*
X42730000Y-23442000D01*
X42573000Y-23599000D01*
X42463000Y-23789000D01*
X42403000Y-24010000D01*
X42403000Y-24230000D01*
X42462000Y-24447000D01*
X42572000Y-24637000D01*
X42573000Y-24638000D01*
X42726000Y-24793000D01*
X42729000Y-24796000D01*
X42924000Y-24911000D01*
X43134000Y-24965000D01*
X43101000Y-25227000D01*
X42131000Y-25227000D01*
X42045000Y-25250000D01*
X41972000Y-25292000D01*
X41913000Y-25351000D01*
X41910000Y-25355000D01*
X41872000Y-25421000D01*
X41871000Y-25424000D01*
X41848000Y-25510000D01*
X37664000Y-25510000D01*
X37664000Y-16870000D01*
X41848000Y-16870000D01*
X41848000Y-16951000D01*
X41870000Y-17033000D01*
X41870000Y-17034000D01*
X41910000Y-17102000D01*
X41916000Y-17109000D01*
X41972000Y-17166000D01*
X42045000Y-17208000D01*
X42131000Y-17231000D01*
X43107000Y-17231000D01*
X43142000Y-17491000D01*
X42920000Y-17552000D01*
X42730000Y-17662000D01*
X42573000Y-17819000D01*
X42463000Y-18009000D01*
X42403000Y-18231000D01*
X42403000Y-18450000D01*
X42462000Y-18667000D01*
X42572000Y-18857000D01*
X42573000Y-18858000D01*
X42726000Y-19013000D01*
X42729000Y-19016000D01*
X42924000Y-19131000D01*
X43138000Y-19186000D01*
X43361000Y-19186000D01*
X43578000Y-19128000D01*
X43772000Y-19015000D01*
X43926000Y-18861000D01*
X44039000Y-18667000D01*
X44097000Y-18450000D01*
X44097000Y-18227000D01*
X44043000Y-18016000D01*
X43927000Y-17818000D01*
X43924000Y-17815000D01*
X43769000Y-17662000D01*
X43768000Y-17661000D01*
X43578000Y-17551000D01*
X43280000Y-17470000D01*
X43278000Y-17242000D01*
X43392000Y-17210000D01*
X43396000Y-17208000D01*
X43469000Y-17166000D01*
X43526000Y-17109000D01*
X43531000Y-17102000D01*
X43571000Y-17034000D01*
X43571000Y-17033000D01*
X43593000Y-16951000D01*
X43593000Y-16870000D01*
X46278000Y-16870000D01*
X46278000Y-16951000D01*
X46300000Y-17033000D01*
X46300000Y-17034000D01*
X46340000Y-17102000D01*
X46346000Y-17109000D01*
X46402000Y-17166000D01*
X46475000Y-17208000D01*
X46561000Y-17231000D01*
X47240000Y-17231000D01*
X47327000Y-17208000D01*
X47326000Y-17208000D01*
X47399000Y-17166000D01*
X47456000Y-17109000D01*
X47461000Y-17102000D01*
X47501000Y-17034000D01*
X47501000Y-17033000D01*
X47523000Y-16951000D01*
X47523000Y-16870000D01*
X47500000Y-16784000D01*
X47499000Y-16781000D01*
X47459000Y-16712000D01*
X47399000Y-16652000D01*
X47326000Y-16610000D01*
X47327000Y-16610000D01*
X47240000Y-16587000D01*
X46561000Y-16587000D01*
X46475000Y-16610000D01*
X46402000Y-16652000D01*
X46342000Y-16712000D01*
X46302000Y-16781000D01*
X46301000Y-16784000D01*
X46278000Y-16870000D01*
X43593000Y-16870000D01*
X43570000Y-16784000D01*
X43569000Y-16781000D01*
X43529000Y-16712000D01*
X43469000Y-16652000D01*
X43396000Y-16610000D01*
X43397000Y-16610000D01*
X43310000Y-16587000D01*
X42131000Y-16587000D01*
X42045000Y-16610000D01*
X41972000Y-16652000D01*
X41912000Y-16712000D01*
X41872000Y-16781000D01*
X41871000Y-16784000D01*
X41848000Y-16870000D01*
X37664000Y-16870000D01*
X37664000Y-12879000D01*
X35164000Y-12879000D01*
X35164000Y-28981000D01*
X35076000Y-29069000D01*
X20252000Y-29069000D01*
X20164000Y-28981000D01*
X20164000Y-19483000D01*
X27066000Y-19483000D01*
X27066000Y-19669000D01*
X27116000Y-19853000D01*
X27207000Y-20009000D01*
X27336000Y-20138000D01*
X27339000Y-20140000D01*
X27431000Y-20194000D01*
X27431000Y-20365000D01*
X27337000Y-20422000D01*
X27334000Y-20424000D01*
X27206000Y-20549000D01*
X27205000Y-20550000D01*
X27117000Y-20705000D01*
X27112000Y-20718000D01*
X27066000Y-20883000D01*
X27066000Y-21069000D01*
X27116000Y-21253000D01*
X27207000Y-21409000D01*
X27337000Y-21539000D01*
X27500000Y-21633000D01*
X27701000Y-21684000D01*
X27758000Y-21741000D01*
X27816000Y-21952000D01*
X27907000Y-22109000D01*
X28037000Y-22239000D01*
X28199000Y-22332000D01*
X28372000Y-22377000D01*
X28555000Y-22377000D01*
X28729000Y-22332000D01*
X28894000Y-22237000D01*
X29022000Y-22109000D01*
X29024000Y-22106000D01*
X29081000Y-22012000D01*
X29253000Y-22014000D01*
X29305000Y-22106000D01*
X29307000Y-22109000D01*
X29437000Y-22239000D01*
X29599000Y-22332000D01*
X29772000Y-22377000D01*
X29955000Y-22377000D01*
X30129000Y-22332000D01*
X30294000Y-22237000D01*
X30422000Y-22109000D01*
X30513000Y-21952000D01*
X30571000Y-21741000D01*
X30628000Y-21684000D01*
X30829000Y-21632000D01*
X30994000Y-21537000D01*
X31122000Y-21409000D01*
X31213000Y-21253000D01*
X31263000Y-21069000D01*
X31263000Y-20883000D01*
X31217000Y-20718000D01*
X31212000Y-20705000D01*
X31124000Y-20550000D01*
X31123000Y-20549000D01*
X30995000Y-20424000D01*
X30897000Y-20365000D01*
X30897000Y-20194000D01*
X30991000Y-20139000D01*
X30994000Y-20137000D01*
X31122000Y-20009000D01*
X31213000Y-19853000D01*
X31263000Y-19669000D01*
X31263000Y-19483000D01*
X31217000Y-19318000D01*
X31212000Y-19305000D01*
X31124000Y-19150000D01*
X31123000Y-19149000D01*
X30996000Y-19024000D01*
X30834000Y-18928000D01*
X30830000Y-18926000D01*
X30630000Y-18874000D01*
X30572000Y-18818000D01*
X30515000Y-18614000D01*
X30512000Y-18605000D01*
X30424000Y-18450000D01*
X30423000Y-18449000D01*
X30296000Y-18324000D01*
X30134000Y-18228000D01*
X30129000Y-18226000D01*
X29956000Y-18181000D01*
X29771000Y-18181000D01*
X29598000Y-18226000D01*
X29593000Y-18228000D01*
X29437000Y-18322000D01*
X29434000Y-18324000D01*
X29306000Y-18449000D01*
X29306000Y-18450000D01*
X29254000Y-18544000D01*
X29080000Y-18546000D01*
X29024000Y-18450000D01*
X29023000Y-18449000D01*
X28896000Y-18324000D01*
X28734000Y-18228000D01*
X28729000Y-18226000D01*
X28556000Y-18181000D01*
X28371000Y-18181000D01*
X28198000Y-18226000D01*
X28193000Y-18228000D01*
X28037000Y-18322000D01*
X28034000Y-18324000D01*
X27906000Y-18449000D01*
X27905000Y-18450000D01*
X27817000Y-18605000D01*
X27814000Y-18614000D01*
X27757000Y-18818000D01*
X27699000Y-18874000D01*
X27498000Y-18926000D01*
X27493000Y-18928000D01*
X27335000Y-19023000D01*
X27334000Y-19024000D01*
X27206000Y-19149000D01*
X27205000Y-19150000D01*
X27117000Y-19305000D01*
X27112000Y-19318000D01*
X27066000Y-19483000D01*
X20164000Y-19483000D01*
X20164000Y-12879000D01*
X17664000Y-12879000D01*
X12452816Y-12879000D01*
X12863000Y-11776000D01*
X12866000Y-11769000D01*
X13379000Y-10735000D01*
X13383000Y-10728000D01*
X14011000Y-9741000D01*
X14015000Y-9735000D01*
X14730000Y-8835000D01*
X14735000Y-8829000D01*
X15529000Y-8015000D01*
X15535000Y-8010000D01*
X16432000Y-7264000D01*
X16438000Y-7260000D01*
X17395000Y-6619000D01*
X17402000Y-6615000D01*
X18424000Y-6076000D01*
X18431000Y-6073000D01*
X19526000Y-5636000D01*
X19534000Y-5634000D01*
X20665000Y-5317000D01*
X20672000Y-5316000D01*
X21869000Y-5117000D01*
X21877000Y-5116000D01*
X23098000Y-5050000D01*
X30904000Y-5050000D01*
X32058000Y-5109000D01*
X32065000Y-5110000D01*
X33180000Y-5283000D01*
X33187000Y-5285000D01*
X34272000Y-5570000D01*
X34279000Y-5572000D01*
X35313000Y-5958000D01*
X35320000Y-5961000D01*
X36303000Y-6445000D01*
X36309000Y-6449000D01*
X37238000Y-7026000D01*
X37244000Y-7030000D01*
X38098000Y-7684000D01*
X38104000Y-7689000D01*
X38898000Y-8432000D01*
X38903000Y-8437000D01*
X39618000Y-9249000D01*
X39623000Y-9254000D01*
X40255000Y-10131000D01*
X40259000Y-10138000D01*
X40809000Y-11085000D01*
X40812000Y-11091000D01*
X41340000Y-12250000D01*
X44095000Y-12250000D01*
X44793000Y-12297000D01*
X44803000Y-12298000D01*
X45465000Y-12434000D01*
X45474000Y-12437000D01*
X46102000Y-12654000D01*
X46111000Y-12658000D01*
X46690000Y-12948000D01*
X46698000Y-12953000D01*
X47244000Y-13321000D01*
X47252000Y-13327000D01*
X47737000Y-13757000D01*
X47743000Y-13763000D01*
X48173000Y-14248000D01*
X48179000Y-14256000D01*
X48547000Y-14802000D01*
X48552000Y-14810000D01*
X48842000Y-15389000D01*
X48846000Y-15398000D01*
X49063000Y-16026000D01*
X49066000Y-16035000D01*
X49202000Y-16697000D01*
X49203000Y-16707000D01*
X49250000Y-17405000D01*
X49250000Y-36895000D01*
X49203000Y-37593000D01*
X49202000Y-37603000D01*
X49066000Y-38265000D01*
X49063000Y-38274000D01*
X48846000Y-38902000D01*
X48842000Y-38911000D01*
X48552000Y-39490000D01*
X48547000Y-39498000D01*
X48179000Y-40044000D01*
X48173000Y-40052000D01*
X47743000Y-40537000D01*
X47737000Y-40543000D01*
X47252000Y-40973000D01*
X47244000Y-40979000D01*
X46698000Y-41347000D01*
X46690000Y-41352000D01*
X46111000Y-41642000D01*
X46102000Y-41646000D01*
X45474000Y-41863000D01*
X45465000Y-41866000D01*
X44803000Y-42002000D01*
X44793000Y-42003000D01*
X44095000Y-42050000D01*
X42050000Y-42050000D01*
X42050000Y-47395000D01*
X42003000Y-48093000D01*
X42002000Y-48103000D01*
X41866000Y-48765000D01*
X41863000Y-48774000D01*
X41646000Y-49402000D01*
X41642000Y-49411000D01*
X41352000Y-49990000D01*
X41347000Y-49998000D01*
X40979000Y-50544000D01*
X40973000Y-50552000D01*
X40543000Y-51037000D01*
X40537000Y-51043000D01*
X40052000Y-51473000D01*
X40044000Y-51479000D01*
X39498000Y-51847000D01*
X39490000Y-51852000D01*
X38911000Y-52142000D01*
X38902000Y-52146000D01*
X38274000Y-52363000D01*
X38265000Y-52366000D01*
X37603000Y-52502000D01*
X37593000Y-52503000D01*
X36895000Y-52550000D01*
X34205000Y-52550000D01*
X33507000Y-52503000D01*
X33497000Y-52502000D01*
X32835000Y-52366000D01*
X32826000Y-52363000D01*
X32198000Y-52146000D01*
X32189000Y-52142000D01*
X31610000Y-51852000D01*
X31602000Y-51847000D01*
X31056000Y-51479000D01*
X31048000Y-51473000D01*
X30563000Y-51043000D01*
X30557000Y-51037000D01*
X30127000Y-50552000D01*
X30121000Y-50544000D01*
X29753000Y-49998000D01*
X29748000Y-49990000D01*
X29458000Y-49411000D01*
X29454000Y-49402000D01*
X29237000Y-48774000D01*
X29234000Y-48765000D01*
X29098000Y-48103000D01*
X29097000Y-48093000D01*
X29050000Y-47395000D01*
X29050000Y-43550000D01*
X24950000Y-43550000D01*
X24950000Y-47395000D01*
X24903000Y-48093000D01*
X24902000Y-48103000D01*
X24766000Y-48765000D01*
X24763000Y-48774000D01*
X24546000Y-49402000D01*
X24542000Y-49411000D01*
X24252000Y-49990000D01*
X24247000Y-49998000D01*
X23879000Y-50544000D01*
X23873000Y-50552000D01*
X23443000Y-51037000D01*
X23437000Y-51043000D01*
X22952000Y-51473000D01*
X22944000Y-51479000D01*
X22398000Y-51847000D01*
X22390000Y-51852000D01*
X21811000Y-52142000D01*
X21802000Y-52146000D01*
X21174000Y-52363000D01*
X21165000Y-52366000D01*
X20503000Y-52502000D01*
X20493000Y-52503000D01*
X19795000Y-52550000D01*
G37*
%TD.AperFunction*%
%TD*%
M02*
