%TF.GenerationSoftware,Flux,Pcbnew,7.0.11-7.0.11~ubuntu20.04.1*%
%TF.CreationDate,2024-08-16T08:07:52+00:00*%
%TF.ProjectId,input,696e7075-742e-46b6-9963-61645f706362,rev?*%
%TF.SameCoordinates,Original*%
%TF.FileFunction,Soldermask,Top*%
%TF.FilePolarity,Negative*%
%FSLAX46Y46*%
G04 Gerber Fmt 4.6, Leading zero omitted, Abs format (unit mm)*
G04 Filename: betterflipperzero*
G04 Build it with Flux! Visit our site at: https://www.flux.ai (PCBNEW 7.0.11-7.0.11~ubuntu20.04.1) date 2024-08-16 08:07:52*
%MOMM*%
%LPD*%
G01*
G04 APERTURE LIST*
G04 APERTURE END LIST*
%TO.C,*%
G36*
X30972756Y-35494352D02*
G01*
X30977393Y-35494809D01*
X30981990Y-35495568D01*
X30986527Y-35496626D01*
X30990986Y-35497979D01*
X30995346Y-35499620D01*
X30999590Y-35501543D01*
X31003699Y-35503739D01*
X31007656Y-35506199D01*
X31011443Y-35508913D01*
X31015045Y-35511869D01*
X31018445Y-35515054D01*
X31021630Y-35518455D01*
X31024586Y-35522056D01*
X31027300Y-35525843D01*
X31029760Y-35529800D01*
X31031957Y-35533909D01*
X31033879Y-35538153D01*
X31035521Y-35542514D01*
X31036873Y-35546972D01*
X31037931Y-35551510D01*
X31038690Y-35556107D01*
X31039147Y-35560743D01*
X31039299Y-35565400D01*
X31039299Y-36323000D01*
X31039147Y-36327657D01*
X31038690Y-36332293D01*
X31037931Y-36336890D01*
X31036873Y-36341428D01*
X31035521Y-36345886D01*
X31033879Y-36350247D01*
X31031957Y-36354491D01*
X31029760Y-36358600D01*
X31027300Y-36362557D01*
X31024586Y-36366344D01*
X31021630Y-36369945D01*
X31018445Y-36373346D01*
X31015045Y-36376531D01*
X31011443Y-36379487D01*
X31007656Y-36382201D01*
X31003699Y-36384661D01*
X30999590Y-36386857D01*
X30995346Y-36388780D01*
X30990986Y-36390421D01*
X30986527Y-36391774D01*
X30981990Y-36392832D01*
X30977393Y-36393591D01*
X30972756Y-36394048D01*
X30968099Y-36394200D01*
X30160499Y-36394200D01*
X30155843Y-36394048D01*
X30151206Y-36393591D01*
X30146609Y-36392832D01*
X30142071Y-36391774D01*
X30137613Y-36390421D01*
X30133252Y-36388780D01*
X30129008Y-36386857D01*
X30124899Y-36384661D01*
X30120943Y-36382201D01*
X30117155Y-36379487D01*
X30113554Y-36376531D01*
X30110153Y-36373346D01*
X30106968Y-36369945D01*
X30104012Y-36366344D01*
X30101299Y-36362557D01*
X30098838Y-36358600D01*
X30096642Y-36354491D01*
X30094719Y-36350247D01*
X30093078Y-36345886D01*
X30091725Y-36341428D01*
X30090667Y-36336890D01*
X30089908Y-36332293D01*
X30089452Y-36327657D01*
X30089299Y-36323000D01*
X30089299Y-35565400D01*
X30089452Y-35560743D01*
X30089908Y-35556107D01*
X30090667Y-35551510D01*
X30091725Y-35546972D01*
X30093078Y-35542514D01*
X30094719Y-35538153D01*
X30096642Y-35533909D01*
X30098838Y-35529800D01*
X30101299Y-35525843D01*
X30104012Y-35522056D01*
X30106968Y-35518455D01*
X30110153Y-35515054D01*
X30113554Y-35511869D01*
X30117155Y-35508913D01*
X30120943Y-35506199D01*
X30124899Y-35503739D01*
X30129008Y-35501543D01*
X30133252Y-35499620D01*
X30137613Y-35497979D01*
X30142071Y-35496626D01*
X30146609Y-35495568D01*
X30151206Y-35494809D01*
X30155843Y-35494352D01*
X30160499Y-35494200D01*
X30968099Y-35494200D01*
X30972756Y-35494352D01*
G37*
G36*
X30972757Y-37044352D02*
G01*
X30977394Y-37044809D01*
X30981991Y-37045568D01*
X30986529Y-37046626D01*
X30990987Y-37047979D01*
X30995348Y-37049620D01*
X30999592Y-37051543D01*
X31003701Y-37053739D01*
X31007657Y-37056199D01*
X31011445Y-37058913D01*
X31015046Y-37061869D01*
X31018447Y-37065054D01*
X31021632Y-37068455D01*
X31024588Y-37072056D01*
X31027301Y-37075843D01*
X31029762Y-37079800D01*
X31031958Y-37083909D01*
X31033881Y-37088153D01*
X31035522Y-37092514D01*
X31036875Y-37096972D01*
X31037933Y-37101510D01*
X31038692Y-37106107D01*
X31039148Y-37110743D01*
X31039301Y-37115400D01*
X31039301Y-37873000D01*
X31039148Y-37877657D01*
X31038692Y-37882293D01*
X31037933Y-37886890D01*
X31036875Y-37891428D01*
X31035522Y-37895886D01*
X31033881Y-37900247D01*
X31031958Y-37904491D01*
X31029762Y-37908600D01*
X31027301Y-37912557D01*
X31024588Y-37916344D01*
X31021632Y-37919945D01*
X31018447Y-37923346D01*
X31015046Y-37926531D01*
X31011445Y-37929487D01*
X31007657Y-37932201D01*
X31003701Y-37934661D01*
X30999592Y-37936857D01*
X30995348Y-37938780D01*
X30990987Y-37940421D01*
X30986529Y-37941774D01*
X30981991Y-37942832D01*
X30977394Y-37943591D01*
X30972757Y-37944048D01*
X30968101Y-37944200D01*
X30160501Y-37944200D01*
X30155844Y-37944048D01*
X30151207Y-37943591D01*
X30146610Y-37942832D01*
X30142073Y-37941774D01*
X30137614Y-37940421D01*
X30133254Y-37938780D01*
X30129010Y-37936857D01*
X30124901Y-37934661D01*
X30120944Y-37932201D01*
X30117157Y-37929487D01*
X30113555Y-37926531D01*
X30110155Y-37923346D01*
X30106970Y-37919945D01*
X30104014Y-37916344D01*
X30101300Y-37912557D01*
X30098840Y-37908600D01*
X30096643Y-37904491D01*
X30094721Y-37900247D01*
X30093079Y-37895886D01*
X30091727Y-37891428D01*
X30090669Y-37886890D01*
X30089910Y-37882293D01*
X30089453Y-37877657D01*
X30089301Y-37873000D01*
X30089301Y-37115400D01*
X30089453Y-37110743D01*
X30089910Y-37106107D01*
X30090669Y-37101510D01*
X30091727Y-37096972D01*
X30093079Y-37092514D01*
X30094721Y-37088153D01*
X30096643Y-37083909D01*
X30098840Y-37079800D01*
X30101300Y-37075843D01*
X30104014Y-37072056D01*
X30106970Y-37068455D01*
X30110155Y-37065054D01*
X30113555Y-37061869D01*
X30117157Y-37058913D01*
X30120944Y-37056199D01*
X30124901Y-37053739D01*
X30129010Y-37051543D01*
X30133254Y-37049620D01*
X30137614Y-37047979D01*
X30142073Y-37046626D01*
X30146610Y-37045568D01*
X30151207Y-37044809D01*
X30155844Y-37044352D01*
X30160501Y-37044200D01*
X30968101Y-37044200D01*
X30972757Y-37044352D01*
G37*
G36*
X16022757Y-14594352D02*
G01*
X16027393Y-14594809D01*
X16031990Y-14595568D01*
X16036528Y-14596626D01*
X16040986Y-14597979D01*
X16045347Y-14599620D01*
X16049591Y-14601543D01*
X16053700Y-14603739D01*
X16057657Y-14606199D01*
X16061444Y-14608913D01*
X16065045Y-14611869D01*
X16068446Y-14615054D01*
X16071631Y-14618455D01*
X16074587Y-14622056D01*
X16077301Y-14625843D01*
X16079761Y-14629800D01*
X16081957Y-14633909D01*
X16083880Y-14638153D01*
X16085521Y-14642514D01*
X16086874Y-14646972D01*
X16087932Y-14651510D01*
X16088691Y-14656107D01*
X16089148Y-14660743D01*
X16089300Y-14665400D01*
X16089300Y-15473000D01*
X16089148Y-15477657D01*
X16088691Y-15482293D01*
X16087932Y-15486890D01*
X16086874Y-15491428D01*
X16085521Y-15495886D01*
X16083880Y-15500247D01*
X16081957Y-15504491D01*
X16079761Y-15508600D01*
X16077301Y-15512557D01*
X16074587Y-15516344D01*
X16071631Y-15519945D01*
X16068446Y-15523346D01*
X16065045Y-15526531D01*
X16061444Y-15529487D01*
X16057657Y-15532201D01*
X16053700Y-15534661D01*
X16049591Y-15536857D01*
X16045347Y-15538780D01*
X16040986Y-15540421D01*
X16036528Y-15541774D01*
X16031990Y-15542832D01*
X16027393Y-15543591D01*
X16022757Y-15544048D01*
X16018100Y-15544200D01*
X15260500Y-15544200D01*
X15255843Y-15544048D01*
X15251207Y-15543591D01*
X15246610Y-15542832D01*
X15242072Y-15541774D01*
X15237614Y-15540421D01*
X15233253Y-15538780D01*
X15229009Y-15536857D01*
X15224900Y-15534661D01*
X15220943Y-15532201D01*
X15217156Y-15529487D01*
X15213555Y-15526531D01*
X15210154Y-15523346D01*
X15206969Y-15519945D01*
X15204013Y-15516344D01*
X15201299Y-15512557D01*
X15198839Y-15508600D01*
X15196643Y-15504491D01*
X15194720Y-15500247D01*
X15193079Y-15495886D01*
X15191726Y-15491428D01*
X15190668Y-15486890D01*
X15189909Y-15482293D01*
X15189452Y-15477657D01*
X15189300Y-15473000D01*
X15189300Y-14665400D01*
X15189452Y-14660743D01*
X15189909Y-14656107D01*
X15190668Y-14651510D01*
X15191726Y-14646972D01*
X15193079Y-14642514D01*
X15194720Y-14638153D01*
X15196643Y-14633909D01*
X15198839Y-14629800D01*
X15201299Y-14625843D01*
X15204013Y-14622056D01*
X15206969Y-14618455D01*
X15210154Y-14615054D01*
X15213555Y-14611869D01*
X15217156Y-14608913D01*
X15220943Y-14606199D01*
X15224900Y-14603739D01*
X15229009Y-14601543D01*
X15233253Y-14599620D01*
X15237614Y-14597979D01*
X15242072Y-14596626D01*
X15246610Y-14595568D01*
X15251207Y-14594809D01*
X15255843Y-14594352D01*
X15260500Y-14594200D01*
X16018100Y-14594200D01*
X16022757Y-14594352D01*
G37*
G36*
X17572757Y-14594352D02*
G01*
X17577393Y-14594809D01*
X17581990Y-14595568D01*
X17586528Y-14596626D01*
X17590986Y-14597979D01*
X17595347Y-14599620D01*
X17599591Y-14601543D01*
X17603700Y-14603739D01*
X17607657Y-14606199D01*
X17611444Y-14608913D01*
X17615045Y-14611869D01*
X17618446Y-14615054D01*
X17621631Y-14618455D01*
X17624587Y-14622056D01*
X17627301Y-14625843D01*
X17629761Y-14629800D01*
X17631957Y-14633909D01*
X17633880Y-14638153D01*
X17635521Y-14642514D01*
X17636874Y-14646972D01*
X17637932Y-14651510D01*
X17638691Y-14656107D01*
X17639148Y-14660743D01*
X17639300Y-14665400D01*
X17639300Y-15473000D01*
X17639148Y-15477657D01*
X17638691Y-15482293D01*
X17637932Y-15486890D01*
X17636874Y-15491428D01*
X17635521Y-15495886D01*
X17633880Y-15500247D01*
X17631957Y-15504491D01*
X17629761Y-15508600D01*
X17627301Y-15512557D01*
X17624587Y-15516344D01*
X17621631Y-15519945D01*
X17618446Y-15523346D01*
X17615045Y-15526531D01*
X17611444Y-15529487D01*
X17607657Y-15532201D01*
X17603700Y-15534661D01*
X17599591Y-15536857D01*
X17595347Y-15538780D01*
X17590986Y-15540421D01*
X17586528Y-15541774D01*
X17581990Y-15542832D01*
X17577393Y-15543591D01*
X17572757Y-15544048D01*
X17568100Y-15544200D01*
X16810500Y-15544200D01*
X16805843Y-15544048D01*
X16801207Y-15543591D01*
X16796610Y-15542832D01*
X16792072Y-15541774D01*
X16787614Y-15540421D01*
X16783253Y-15538780D01*
X16779009Y-15536857D01*
X16774900Y-15534661D01*
X16770943Y-15532201D01*
X16767156Y-15529487D01*
X16763555Y-15526531D01*
X16760154Y-15523346D01*
X16756969Y-15519945D01*
X16754013Y-15516344D01*
X16751299Y-15512557D01*
X16748839Y-15508600D01*
X16746643Y-15504491D01*
X16744720Y-15500247D01*
X16743079Y-15495886D01*
X16741726Y-15491428D01*
X16740668Y-15486890D01*
X16739909Y-15482293D01*
X16739452Y-15477657D01*
X16739300Y-15473000D01*
X16739300Y-14665400D01*
X16739452Y-14660743D01*
X16739909Y-14656107D01*
X16740668Y-14651510D01*
X16741726Y-14646972D01*
X16743079Y-14642514D01*
X16744720Y-14638153D01*
X16746643Y-14633909D01*
X16748839Y-14629800D01*
X16751299Y-14625843D01*
X16754013Y-14622056D01*
X16756969Y-14618455D01*
X16760154Y-14615054D01*
X16763555Y-14611869D01*
X16767156Y-14608913D01*
X16770943Y-14606199D01*
X16774900Y-14603739D01*
X16779009Y-14601543D01*
X16783253Y-14599620D01*
X16787614Y-14597979D01*
X16792072Y-14596626D01*
X16796610Y-14595568D01*
X16801207Y-14594809D01*
X16805843Y-14594352D01*
X16810500Y-14594200D01*
X17568100Y-14594200D01*
X17572757Y-14594352D01*
G37*
G36*
X24772754Y-40494352D02*
G01*
X24777390Y-40494809D01*
X24781987Y-40495568D01*
X24786525Y-40496626D01*
X24790983Y-40497979D01*
X24795344Y-40499620D01*
X24799588Y-40501543D01*
X24803697Y-40503739D01*
X24807654Y-40506199D01*
X24811441Y-40508913D01*
X24815042Y-40511869D01*
X24818443Y-40515054D01*
X24821628Y-40518455D01*
X24824584Y-40522056D01*
X24827298Y-40525843D01*
X24829758Y-40529800D01*
X24831954Y-40533909D01*
X24833877Y-40538153D01*
X24835518Y-40542514D01*
X24836871Y-40546972D01*
X24837929Y-40551510D01*
X24838688Y-40556107D01*
X24839145Y-40560743D01*
X24839297Y-40565400D01*
X24839297Y-41223000D01*
X24839145Y-41227657D01*
X24838688Y-41232293D01*
X24837929Y-41236890D01*
X24836871Y-41241428D01*
X24835518Y-41245886D01*
X24833877Y-41250247D01*
X24831954Y-41254491D01*
X24829758Y-41258600D01*
X24827298Y-41262557D01*
X24824584Y-41266344D01*
X24821628Y-41269945D01*
X24818443Y-41273346D01*
X24815042Y-41276531D01*
X24811441Y-41279487D01*
X24807654Y-41282201D01*
X24803697Y-41284661D01*
X24799588Y-41286857D01*
X24795344Y-41288780D01*
X24790983Y-41290421D01*
X24786525Y-41291774D01*
X24781987Y-41292832D01*
X24777390Y-41293591D01*
X24772754Y-41294048D01*
X24768097Y-41294200D01*
X23960497Y-41294200D01*
X23955840Y-41294048D01*
X23951204Y-41293591D01*
X23946607Y-41292832D01*
X23942069Y-41291774D01*
X23937610Y-41290421D01*
X23933250Y-41288780D01*
X23929006Y-41286857D01*
X23924897Y-41284661D01*
X23920940Y-41282201D01*
X23917153Y-41279487D01*
X23913552Y-41276531D01*
X23910151Y-41273346D01*
X23906966Y-41269945D01*
X23904010Y-41266344D01*
X23901296Y-41262557D01*
X23898836Y-41258600D01*
X23896640Y-41254491D01*
X23894717Y-41250247D01*
X23893076Y-41245886D01*
X23891723Y-41241428D01*
X23890665Y-41236890D01*
X23889906Y-41232293D01*
X23889449Y-41227657D01*
X23889297Y-41223000D01*
X23889297Y-40565400D01*
X23889449Y-40560743D01*
X23889906Y-40556107D01*
X23890665Y-40551510D01*
X23891723Y-40546972D01*
X23893076Y-40542514D01*
X23894717Y-40538153D01*
X23896640Y-40533909D01*
X23898836Y-40529800D01*
X23901296Y-40525843D01*
X23904010Y-40522056D01*
X23906966Y-40518455D01*
X23910151Y-40515054D01*
X23913552Y-40511869D01*
X23917153Y-40508913D01*
X23920940Y-40506199D01*
X23924897Y-40503739D01*
X23929006Y-40501543D01*
X23933250Y-40499620D01*
X23937610Y-40497979D01*
X23942069Y-40496626D01*
X23946607Y-40495568D01*
X23951204Y-40494809D01*
X23955840Y-40494352D01*
X23960497Y-40494200D01*
X24768097Y-40494200D01*
X24772754Y-40494352D01*
G37*
G36*
X24772760Y-42144352D02*
G01*
X24777396Y-42144809D01*
X24781993Y-42145568D01*
X24786531Y-42146626D01*
X24790990Y-42147979D01*
X24795350Y-42149620D01*
X24799594Y-42151543D01*
X24803703Y-42153739D01*
X24807660Y-42156199D01*
X24811447Y-42158913D01*
X24815048Y-42161869D01*
X24818449Y-42165054D01*
X24821634Y-42168455D01*
X24824590Y-42172056D01*
X24827304Y-42175843D01*
X24829764Y-42179800D01*
X24831960Y-42183909D01*
X24833883Y-42188153D01*
X24835524Y-42192514D01*
X24836877Y-42196972D01*
X24837935Y-42201510D01*
X24838694Y-42206107D01*
X24839151Y-42210743D01*
X24839303Y-42215400D01*
X24839303Y-42873000D01*
X24839151Y-42877657D01*
X24838694Y-42882293D01*
X24837935Y-42886890D01*
X24836877Y-42891428D01*
X24835524Y-42895886D01*
X24833883Y-42900247D01*
X24831960Y-42904491D01*
X24829764Y-42908600D01*
X24827304Y-42912557D01*
X24824590Y-42916344D01*
X24821634Y-42919945D01*
X24818449Y-42923346D01*
X24815048Y-42926531D01*
X24811447Y-42929487D01*
X24807660Y-42932201D01*
X24803703Y-42934661D01*
X24799594Y-42936857D01*
X24795350Y-42938780D01*
X24790990Y-42940421D01*
X24786531Y-42941774D01*
X24781993Y-42942832D01*
X24777396Y-42943591D01*
X24772760Y-42944048D01*
X24768103Y-42944200D01*
X23960503Y-42944200D01*
X23955846Y-42944048D01*
X23951210Y-42943591D01*
X23946613Y-42942832D01*
X23942075Y-42941774D01*
X23937617Y-42940421D01*
X23933256Y-42938780D01*
X23929012Y-42936857D01*
X23924903Y-42934661D01*
X23920946Y-42932201D01*
X23917159Y-42929487D01*
X23913558Y-42926531D01*
X23910157Y-42923346D01*
X23906972Y-42919945D01*
X23904016Y-42916344D01*
X23901302Y-42912557D01*
X23898842Y-42908600D01*
X23896646Y-42904491D01*
X23894723Y-42900247D01*
X23893082Y-42895886D01*
X23891729Y-42891428D01*
X23890671Y-42886890D01*
X23889912Y-42882293D01*
X23889455Y-42877657D01*
X23889303Y-42873000D01*
X23889303Y-42215400D01*
X23889455Y-42210743D01*
X23889912Y-42206107D01*
X23890671Y-42201510D01*
X23891729Y-42196972D01*
X23893082Y-42192514D01*
X23894723Y-42188153D01*
X23896646Y-42183909D01*
X23898842Y-42179800D01*
X23901302Y-42175843D01*
X23904016Y-42172056D01*
X23906972Y-42168455D01*
X23910157Y-42165054D01*
X23913558Y-42161869D01*
X23917159Y-42158913D01*
X23920946Y-42156199D01*
X23924903Y-42153739D01*
X23929012Y-42151543D01*
X23933256Y-42149620D01*
X23937617Y-42147979D01*
X23942075Y-42146626D01*
X23946613Y-42145568D01*
X23951210Y-42144809D01*
X23955846Y-42144352D01*
X23960503Y-42144200D01*
X24768103Y-42144200D01*
X24772760Y-42144352D01*
G37*
G36*
X28972754Y-40494352D02*
G01*
X28977390Y-40494809D01*
X28981987Y-40495568D01*
X28986525Y-40496626D01*
X28990983Y-40497979D01*
X28995344Y-40499620D01*
X28999588Y-40501543D01*
X29003697Y-40503739D01*
X29007654Y-40506199D01*
X29011441Y-40508913D01*
X29015042Y-40511869D01*
X29018443Y-40515054D01*
X29021628Y-40518455D01*
X29024584Y-40522056D01*
X29027298Y-40525843D01*
X29029758Y-40529800D01*
X29031954Y-40533909D01*
X29033877Y-40538153D01*
X29035518Y-40542514D01*
X29036871Y-40546972D01*
X29037929Y-40551510D01*
X29038688Y-40556107D01*
X29039145Y-40560743D01*
X29039297Y-40565400D01*
X29039297Y-41223000D01*
X29039145Y-41227657D01*
X29038688Y-41232293D01*
X29037929Y-41236890D01*
X29036871Y-41241428D01*
X29035518Y-41245886D01*
X29033877Y-41250247D01*
X29031954Y-41254491D01*
X29029758Y-41258600D01*
X29027298Y-41262557D01*
X29024584Y-41266344D01*
X29021628Y-41269945D01*
X29018443Y-41273346D01*
X29015042Y-41276531D01*
X29011441Y-41279487D01*
X29007654Y-41282201D01*
X29003697Y-41284661D01*
X28999588Y-41286857D01*
X28995344Y-41288780D01*
X28990983Y-41290421D01*
X28986525Y-41291774D01*
X28981987Y-41292832D01*
X28977390Y-41293591D01*
X28972754Y-41294048D01*
X28968097Y-41294200D01*
X28160497Y-41294200D01*
X28155840Y-41294048D01*
X28151204Y-41293591D01*
X28146607Y-41292832D01*
X28142069Y-41291774D01*
X28137610Y-41290421D01*
X28133250Y-41288780D01*
X28129006Y-41286857D01*
X28124897Y-41284661D01*
X28120940Y-41282201D01*
X28117153Y-41279487D01*
X28113552Y-41276531D01*
X28110151Y-41273346D01*
X28106966Y-41269945D01*
X28104010Y-41266344D01*
X28101296Y-41262557D01*
X28098836Y-41258600D01*
X28096640Y-41254491D01*
X28094717Y-41250247D01*
X28093076Y-41245886D01*
X28091723Y-41241428D01*
X28090665Y-41236890D01*
X28089906Y-41232293D01*
X28089449Y-41227657D01*
X28089297Y-41223000D01*
X28089297Y-40565400D01*
X28089449Y-40560743D01*
X28089906Y-40556107D01*
X28090665Y-40551510D01*
X28091723Y-40546972D01*
X28093076Y-40542514D01*
X28094717Y-40538153D01*
X28096640Y-40533909D01*
X28098836Y-40529800D01*
X28101296Y-40525843D01*
X28104010Y-40522056D01*
X28106966Y-40518455D01*
X28110151Y-40515054D01*
X28113552Y-40511869D01*
X28117153Y-40508913D01*
X28120940Y-40506199D01*
X28124897Y-40503739D01*
X28129006Y-40501543D01*
X28133250Y-40499620D01*
X28137610Y-40497979D01*
X28142069Y-40496626D01*
X28146607Y-40495568D01*
X28151204Y-40494809D01*
X28155840Y-40494352D01*
X28160497Y-40494200D01*
X28968097Y-40494200D01*
X28972754Y-40494352D01*
G37*
G36*
X28972760Y-42144352D02*
G01*
X28977396Y-42144809D01*
X28981993Y-42145568D01*
X28986531Y-42146626D01*
X28990990Y-42147979D01*
X28995350Y-42149620D01*
X28999594Y-42151543D01*
X29003703Y-42153739D01*
X29007660Y-42156199D01*
X29011447Y-42158913D01*
X29015048Y-42161869D01*
X29018449Y-42165054D01*
X29021634Y-42168455D01*
X29024590Y-42172056D01*
X29027304Y-42175843D01*
X29029764Y-42179800D01*
X29031960Y-42183909D01*
X29033883Y-42188153D01*
X29035524Y-42192514D01*
X29036877Y-42196972D01*
X29037935Y-42201510D01*
X29038694Y-42206107D01*
X29039151Y-42210743D01*
X29039303Y-42215400D01*
X29039303Y-42873000D01*
X29039151Y-42877657D01*
X29038694Y-42882293D01*
X29037935Y-42886890D01*
X29036877Y-42891428D01*
X29035524Y-42895886D01*
X29033883Y-42900247D01*
X29031960Y-42904491D01*
X29029764Y-42908600D01*
X29027304Y-42912557D01*
X29024590Y-42916344D01*
X29021634Y-42919945D01*
X29018449Y-42923346D01*
X29015048Y-42926531D01*
X29011447Y-42929487D01*
X29007660Y-42932201D01*
X29003703Y-42934661D01*
X28999594Y-42936857D01*
X28995350Y-42938780D01*
X28990990Y-42940421D01*
X28986531Y-42941774D01*
X28981993Y-42942832D01*
X28977396Y-42943591D01*
X28972760Y-42944048D01*
X28968103Y-42944200D01*
X28160503Y-42944200D01*
X28155846Y-42944048D01*
X28151210Y-42943591D01*
X28146613Y-42942832D01*
X28142075Y-42941774D01*
X28137617Y-42940421D01*
X28133256Y-42938780D01*
X28129012Y-42936857D01*
X28124903Y-42934661D01*
X28120946Y-42932201D01*
X28117159Y-42929487D01*
X28113558Y-42926531D01*
X28110157Y-42923346D01*
X28106972Y-42919945D01*
X28104016Y-42916344D01*
X28101302Y-42912557D01*
X28098842Y-42908600D01*
X28096646Y-42904491D01*
X28094723Y-42900247D01*
X28093082Y-42895886D01*
X28091729Y-42891428D01*
X28090671Y-42886890D01*
X28089912Y-42882293D01*
X28089455Y-42877657D01*
X28089303Y-42873000D01*
X28089303Y-42215400D01*
X28089455Y-42210743D01*
X28089912Y-42206107D01*
X28090671Y-42201510D01*
X28091729Y-42196972D01*
X28093082Y-42192514D01*
X28094723Y-42188153D01*
X28096646Y-42183909D01*
X28098842Y-42179800D01*
X28101302Y-42175843D01*
X28104016Y-42172056D01*
X28106972Y-42168455D01*
X28110157Y-42165054D01*
X28113558Y-42161869D01*
X28117159Y-42158913D01*
X28120946Y-42156199D01*
X28124903Y-42153739D01*
X28129012Y-42151543D01*
X28133256Y-42149620D01*
X28137617Y-42147979D01*
X28142075Y-42146626D01*
X28146613Y-42145568D01*
X28151210Y-42144809D01*
X28155846Y-42144352D01*
X28160503Y-42144200D01*
X28968103Y-42144200D01*
X28972760Y-42144352D01*
G37*
G36*
X31114302Y-42619200D02*
G01*
X29914302Y-42619200D01*
X29914302Y-41719200D01*
X31114302Y-41719200D01*
X31114302Y-42619200D01*
G37*
G36*
X31114298Y-39319200D02*
G01*
X29914298Y-39319200D01*
X29914298Y-38419200D01*
X31114298Y-38419200D01*
X31114298Y-39319200D01*
G37*
G36*
X24181114Y-35119505D02*
G01*
X24190394Y-35120419D01*
X24199595Y-35121938D01*
X24208676Y-35124056D01*
X24217599Y-35126762D01*
X24226327Y-35130047D01*
X24234820Y-35133896D01*
X24243044Y-35138291D01*
X24250963Y-35143216D01*
X24258543Y-35148647D01*
X24265751Y-35154563D01*
X24272557Y-35160937D01*
X24278931Y-35167743D01*
X24284847Y-35174951D01*
X24290279Y-35182531D01*
X24295203Y-35190450D01*
X24299599Y-35198674D01*
X24303447Y-35207168D01*
X24306732Y-35215895D01*
X24309439Y-35224818D01*
X24311556Y-35233900D01*
X24313075Y-35243100D01*
X24313989Y-35252380D01*
X24314294Y-35261700D01*
X24314294Y-36026700D01*
X24313989Y-36036020D01*
X24313075Y-36045300D01*
X24311556Y-36054500D01*
X24309439Y-36063582D01*
X24306732Y-36072505D01*
X24303447Y-36081232D01*
X24299599Y-36089726D01*
X24295203Y-36097950D01*
X24290279Y-36105869D01*
X24284847Y-36113449D01*
X24278931Y-36120657D01*
X24272557Y-36127463D01*
X24265751Y-36133837D01*
X24258543Y-36139753D01*
X24250963Y-36145184D01*
X24243044Y-36150109D01*
X24234820Y-36154504D01*
X24226327Y-36158353D01*
X24217599Y-36161638D01*
X24208676Y-36164344D01*
X24199595Y-36166462D01*
X24190394Y-36167981D01*
X24181114Y-36168895D01*
X24171794Y-36169200D01*
X22556794Y-36169200D01*
X22547474Y-36168895D01*
X22538194Y-36167981D01*
X22528994Y-36166462D01*
X22519913Y-36164344D01*
X22510989Y-36161638D01*
X22502262Y-36158353D01*
X22493768Y-36154504D01*
X22485544Y-36150109D01*
X22477625Y-36145184D01*
X22470046Y-36139753D01*
X22462837Y-36133837D01*
X22456031Y-36127463D01*
X22449657Y-36120657D01*
X22443741Y-36113449D01*
X22438310Y-36105869D01*
X22433386Y-36097950D01*
X22428990Y-36089726D01*
X22425141Y-36081232D01*
X22421857Y-36072505D01*
X22419150Y-36063582D01*
X22417032Y-36054500D01*
X22415513Y-36045300D01*
X22414599Y-36036020D01*
X22414294Y-36026700D01*
X22414294Y-35261700D01*
X22414599Y-35252380D01*
X22415513Y-35243100D01*
X22417032Y-35233900D01*
X22419150Y-35224818D01*
X22421857Y-35215895D01*
X22425141Y-35207168D01*
X22428990Y-35198674D01*
X22433386Y-35190450D01*
X22438310Y-35182531D01*
X22443741Y-35174951D01*
X22449657Y-35167743D01*
X22456031Y-35160937D01*
X22462837Y-35154563D01*
X22470046Y-35148647D01*
X22477625Y-35143216D01*
X22485544Y-35138291D01*
X22493768Y-35133896D01*
X22502262Y-35130047D01*
X22510989Y-35126762D01*
X22519913Y-35124056D01*
X22528994Y-35121938D01*
X22538194Y-35120419D01*
X22547474Y-35119505D01*
X22556794Y-35119200D01*
X24171794Y-35119200D01*
X24181114Y-35119505D01*
G37*
G36*
X24181126Y-38269505D02*
G01*
X24190406Y-38270419D01*
X24199606Y-38271938D01*
X24208687Y-38274056D01*
X24217611Y-38276762D01*
X24226338Y-38280047D01*
X24234832Y-38283896D01*
X24243056Y-38288291D01*
X24250975Y-38293216D01*
X24258554Y-38298647D01*
X24265763Y-38304563D01*
X24272569Y-38310937D01*
X24278943Y-38317743D01*
X24284859Y-38324951D01*
X24290290Y-38332531D01*
X24295214Y-38340450D01*
X24299610Y-38348674D01*
X24303459Y-38357168D01*
X24306743Y-38365895D01*
X24309450Y-38374818D01*
X24311568Y-38383900D01*
X24313087Y-38393100D01*
X24314001Y-38402380D01*
X24314306Y-38411700D01*
X24314306Y-39176700D01*
X24314001Y-39186020D01*
X24313087Y-39195300D01*
X24311568Y-39204500D01*
X24309450Y-39213582D01*
X24306743Y-39222505D01*
X24303459Y-39231232D01*
X24299610Y-39239726D01*
X24295214Y-39247950D01*
X24290290Y-39255869D01*
X24284859Y-39263449D01*
X24278943Y-39270657D01*
X24272569Y-39277463D01*
X24265763Y-39283837D01*
X24258554Y-39289753D01*
X24250975Y-39295184D01*
X24243056Y-39300109D01*
X24234832Y-39304504D01*
X24226338Y-39308353D01*
X24217611Y-39311638D01*
X24208687Y-39314344D01*
X24199606Y-39316462D01*
X24190406Y-39317981D01*
X24181126Y-39318895D01*
X24171806Y-39319200D01*
X22556806Y-39319200D01*
X22547486Y-39318895D01*
X22538206Y-39317981D01*
X22529005Y-39316462D01*
X22519924Y-39314344D01*
X22511001Y-39311638D01*
X22502273Y-39308353D01*
X22493780Y-39304504D01*
X22485556Y-39300109D01*
X22477637Y-39295184D01*
X22470057Y-39289753D01*
X22462849Y-39283837D01*
X22456043Y-39277463D01*
X22449669Y-39270657D01*
X22443753Y-39263449D01*
X22438321Y-39255869D01*
X22433397Y-39247950D01*
X22429001Y-39239726D01*
X22425153Y-39231232D01*
X22421868Y-39222505D01*
X22419161Y-39213582D01*
X22417044Y-39204500D01*
X22415525Y-39195300D01*
X22414611Y-39186020D01*
X22414306Y-39176700D01*
X22414306Y-38411700D01*
X22414611Y-38402380D01*
X22415525Y-38393100D01*
X22417044Y-38383900D01*
X22419161Y-38374818D01*
X22421868Y-38365895D01*
X22425153Y-38357168D01*
X22429001Y-38348674D01*
X22433397Y-38340450D01*
X22438321Y-38332531D01*
X22443753Y-38324951D01*
X22449669Y-38317743D01*
X22456043Y-38310937D01*
X22462849Y-38304563D01*
X22470057Y-38298647D01*
X22477637Y-38293216D01*
X22485556Y-38288291D01*
X22493780Y-38283896D01*
X22502273Y-38280047D01*
X22511001Y-38276762D01*
X22519924Y-38274056D01*
X22529005Y-38271938D01*
X22538206Y-38270419D01*
X22547486Y-38269505D01*
X22556806Y-38269200D01*
X24171806Y-38269200D01*
X24181126Y-38269505D01*
G37*
G36*
X29632565Y-25699611D02*
G01*
X29635664Y-25700122D01*
X29641729Y-25701747D01*
X29647530Y-25704150D01*
X29650300Y-25705631D01*
X29655521Y-25709119D01*
X29657949Y-25711112D01*
X29660241Y-25713259D01*
X29662388Y-25715551D01*
X29664381Y-25717979D01*
X29667869Y-25723200D01*
X29669350Y-25725970D01*
X29671753Y-25731771D01*
X29673378Y-25737836D01*
X29673889Y-25740935D01*
X29674300Y-25747200D01*
X29674300Y-26291200D01*
X29673889Y-26297465D01*
X29673378Y-26300564D01*
X29671753Y-26306629D01*
X29669350Y-26312430D01*
X29667869Y-26315200D01*
X29664381Y-26320421D01*
X29662388Y-26322849D01*
X29660241Y-26325141D01*
X29657949Y-26327288D01*
X29655521Y-26329281D01*
X29650300Y-26332769D01*
X29647530Y-26334250D01*
X29641729Y-26336653D01*
X29635664Y-26338278D01*
X29632565Y-26338789D01*
X29626300Y-26339200D01*
X29132300Y-26339200D01*
X29126035Y-26338789D01*
X29122936Y-26338278D01*
X29116871Y-26336653D01*
X29111070Y-26334250D01*
X29108300Y-26332769D01*
X29103079Y-26329281D01*
X29100651Y-26327288D01*
X29098359Y-26325141D01*
X29096212Y-26322849D01*
X29094219Y-26320421D01*
X29090731Y-26315200D01*
X29089250Y-26312430D01*
X29086847Y-26306629D01*
X29085222Y-26300564D01*
X29084711Y-26297465D01*
X29084300Y-26291200D01*
X29084300Y-25747200D01*
X29084711Y-25740935D01*
X29085222Y-25737836D01*
X29086847Y-25731771D01*
X29089250Y-25725970D01*
X29090731Y-25723200D01*
X29094219Y-25717979D01*
X29096212Y-25715551D01*
X29098359Y-25713259D01*
X29100651Y-25711112D01*
X29103079Y-25709119D01*
X29108300Y-25705631D01*
X29111070Y-25704150D01*
X29116871Y-25701747D01*
X29122936Y-25700122D01*
X29126035Y-25699611D01*
X29132300Y-25699200D01*
X29626300Y-25699200D01*
X29632565Y-25699611D01*
G37*
G36*
X30602565Y-25699611D02*
G01*
X30605664Y-25700122D01*
X30611729Y-25701747D01*
X30617530Y-25704150D01*
X30620300Y-25705631D01*
X30625521Y-25709119D01*
X30627949Y-25711112D01*
X30630241Y-25713259D01*
X30632388Y-25715551D01*
X30634381Y-25717979D01*
X30637869Y-25723200D01*
X30639350Y-25725970D01*
X30641753Y-25731771D01*
X30643378Y-25737836D01*
X30643889Y-25740935D01*
X30644300Y-25747200D01*
X30644300Y-26291200D01*
X30643889Y-26297465D01*
X30643378Y-26300564D01*
X30641753Y-26306629D01*
X30639350Y-26312430D01*
X30637869Y-26315200D01*
X30634381Y-26320421D01*
X30632388Y-26322849D01*
X30630241Y-26325141D01*
X30627949Y-26327288D01*
X30625521Y-26329281D01*
X30620300Y-26332769D01*
X30617530Y-26334250D01*
X30611729Y-26336653D01*
X30605664Y-26338278D01*
X30602565Y-26338789D01*
X30596300Y-26339200D01*
X30102300Y-26339200D01*
X30096035Y-26338789D01*
X30092936Y-26338278D01*
X30086871Y-26336653D01*
X30081070Y-26334250D01*
X30078300Y-26332769D01*
X30073079Y-26329281D01*
X30070651Y-26327288D01*
X30068359Y-26325141D01*
X30066212Y-26322849D01*
X30064219Y-26320421D01*
X30060731Y-26315200D01*
X30059250Y-26312430D01*
X30056847Y-26306629D01*
X30055222Y-26300564D01*
X30054711Y-26297465D01*
X30054300Y-26291200D01*
X30054300Y-25747200D01*
X30054711Y-25740935D01*
X30055222Y-25737836D01*
X30056847Y-25731771D01*
X30059250Y-25725970D01*
X30060731Y-25723200D01*
X30064219Y-25717979D01*
X30066212Y-25715551D01*
X30068359Y-25713259D01*
X30070651Y-25711112D01*
X30073079Y-25709119D01*
X30078300Y-25705631D01*
X30081070Y-25704150D01*
X30086871Y-25701747D01*
X30092936Y-25700122D01*
X30096035Y-25699611D01*
X30102300Y-25699200D01*
X30596300Y-25699200D01*
X30602565Y-25699611D01*
G37*
G36*
X25322757Y-33244355D02*
G01*
X25327393Y-33244811D01*
X25331990Y-33245570D01*
X25336528Y-33246628D01*
X25340986Y-33247981D01*
X25345347Y-33249622D01*
X25349591Y-33251545D01*
X25353700Y-33253741D01*
X25357657Y-33256201D01*
X25361444Y-33258915D01*
X25365045Y-33261871D01*
X25368446Y-33265056D01*
X25371631Y-33268457D01*
X25374587Y-33272058D01*
X25377301Y-33275845D01*
X25379761Y-33279802D01*
X25381957Y-33283911D01*
X25383880Y-33288155D01*
X25385521Y-33292516D01*
X25386874Y-33296974D01*
X25387932Y-33301512D01*
X25388691Y-33306109D01*
X25389148Y-33310745D01*
X25389300Y-33315402D01*
X25389300Y-34123002D01*
X25389148Y-34127659D01*
X25388691Y-34132296D01*
X25387932Y-34136892D01*
X25386874Y-34141430D01*
X25385521Y-34145889D01*
X25383880Y-34150249D01*
X25381957Y-34154493D01*
X25379761Y-34158602D01*
X25377301Y-34162559D01*
X25374587Y-34166346D01*
X25371631Y-34169947D01*
X25368446Y-34173348D01*
X25365045Y-34176533D01*
X25361444Y-34179489D01*
X25357657Y-34182203D01*
X25353700Y-34184663D01*
X25349591Y-34186859D01*
X25345347Y-34188782D01*
X25340986Y-34190423D01*
X25336528Y-34191776D01*
X25331990Y-34192834D01*
X25327393Y-34193593D01*
X25322757Y-34194050D01*
X25318100Y-34194202D01*
X24560500Y-34194202D01*
X24555843Y-34194050D01*
X24551207Y-34193593D01*
X24546610Y-34192834D01*
X24542072Y-34191776D01*
X24537614Y-34190423D01*
X24533253Y-34188782D01*
X24529009Y-34186859D01*
X24524900Y-34184663D01*
X24520943Y-34182203D01*
X24517156Y-34179489D01*
X24513555Y-34176533D01*
X24510154Y-34173348D01*
X24506969Y-34169947D01*
X24504013Y-34166346D01*
X24501299Y-34162559D01*
X24498839Y-34158602D01*
X24496643Y-34154493D01*
X24494720Y-34150249D01*
X24493079Y-34145889D01*
X24491726Y-34141430D01*
X24490668Y-34136892D01*
X24489909Y-34132296D01*
X24489452Y-34127659D01*
X24489300Y-34123002D01*
X24489300Y-33315402D01*
X24489452Y-33310745D01*
X24489909Y-33306109D01*
X24490668Y-33301512D01*
X24491726Y-33296974D01*
X24493079Y-33292516D01*
X24494720Y-33288155D01*
X24496643Y-33283911D01*
X24498839Y-33279802D01*
X24501299Y-33275845D01*
X24504013Y-33272058D01*
X24506969Y-33268457D01*
X24510154Y-33265056D01*
X24513555Y-33261871D01*
X24517156Y-33258915D01*
X24520943Y-33256201D01*
X24524900Y-33253741D01*
X24529009Y-33251545D01*
X24533253Y-33249622D01*
X24537614Y-33247981D01*
X24542072Y-33246628D01*
X24546610Y-33245570D01*
X24551207Y-33244811D01*
X24555843Y-33244355D01*
X24560500Y-33244202D01*
X25318100Y-33244202D01*
X25322757Y-33244355D01*
G37*
G36*
X23772757Y-33244350D02*
G01*
X23777393Y-33244807D01*
X23781990Y-33245566D01*
X23786528Y-33246624D01*
X23790986Y-33247977D01*
X23795347Y-33249618D01*
X23799591Y-33251541D01*
X23803700Y-33253737D01*
X23807657Y-33256197D01*
X23811444Y-33258911D01*
X23815045Y-33261867D01*
X23818446Y-33265052D01*
X23821631Y-33268453D01*
X23824587Y-33272054D01*
X23827301Y-33275841D01*
X23829761Y-33279798D01*
X23831957Y-33283907D01*
X23833880Y-33288151D01*
X23835521Y-33292511D01*
X23836874Y-33296970D01*
X23837932Y-33301508D01*
X23838691Y-33306104D01*
X23839148Y-33310741D01*
X23839300Y-33315398D01*
X23839300Y-34122998D01*
X23839148Y-34127655D01*
X23838691Y-34132291D01*
X23837932Y-34136888D01*
X23836874Y-34141426D01*
X23835521Y-34145884D01*
X23833880Y-34150245D01*
X23831957Y-34154489D01*
X23829761Y-34158598D01*
X23827301Y-34162555D01*
X23824587Y-34166342D01*
X23821631Y-34169943D01*
X23818446Y-34173344D01*
X23815045Y-34176529D01*
X23811444Y-34179485D01*
X23807657Y-34182199D01*
X23803700Y-34184659D01*
X23799591Y-34186855D01*
X23795347Y-34188778D01*
X23790986Y-34190419D01*
X23786528Y-34191772D01*
X23781990Y-34192830D01*
X23777393Y-34193589D01*
X23772757Y-34194045D01*
X23768100Y-34194198D01*
X23010500Y-34194198D01*
X23005843Y-34194045D01*
X23001207Y-34193589D01*
X22996610Y-34192830D01*
X22992072Y-34191772D01*
X22987614Y-34190419D01*
X22983253Y-34188778D01*
X22979009Y-34186855D01*
X22974900Y-34184659D01*
X22970943Y-34182199D01*
X22967156Y-34179485D01*
X22963555Y-34176529D01*
X22960154Y-34173344D01*
X22956969Y-34169943D01*
X22954013Y-34166342D01*
X22951299Y-34162555D01*
X22948839Y-34158598D01*
X22946643Y-34154489D01*
X22944720Y-34150245D01*
X22943079Y-34145884D01*
X22941726Y-34141426D01*
X22940668Y-34136888D01*
X22939909Y-34132291D01*
X22939452Y-34127655D01*
X22939300Y-34122998D01*
X22939300Y-33315398D01*
X22939452Y-33310741D01*
X22939909Y-33306104D01*
X22940668Y-33301508D01*
X22941726Y-33296970D01*
X22943079Y-33292511D01*
X22944720Y-33288151D01*
X22946643Y-33283907D01*
X22948839Y-33279798D01*
X22951299Y-33275841D01*
X22954013Y-33272054D01*
X22956969Y-33268453D01*
X22960154Y-33265052D01*
X22963555Y-33261867D01*
X22967156Y-33258911D01*
X22970943Y-33256197D01*
X22974900Y-33253737D01*
X22979009Y-33251541D01*
X22983253Y-33249618D01*
X22987614Y-33247977D01*
X22992072Y-33246624D01*
X22996610Y-33245566D01*
X23001207Y-33244807D01*
X23005843Y-33244350D01*
X23010500Y-33244198D01*
X23768100Y-33244198D01*
X23772757Y-33244350D01*
G37*
G36*
X29632565Y-27849611D02*
G01*
X29635664Y-27850122D01*
X29641729Y-27851747D01*
X29647530Y-27854150D01*
X29650300Y-27855631D01*
X29655521Y-27859119D01*
X29657949Y-27861112D01*
X29660241Y-27863259D01*
X29662388Y-27865551D01*
X29664381Y-27867979D01*
X29667869Y-27873200D01*
X29669350Y-27875970D01*
X29671753Y-27881771D01*
X29673378Y-27887836D01*
X29673889Y-27890935D01*
X29674300Y-27897200D01*
X29674300Y-28441200D01*
X29673889Y-28447465D01*
X29673378Y-28450564D01*
X29671753Y-28456629D01*
X29669350Y-28462430D01*
X29667869Y-28465200D01*
X29664381Y-28470421D01*
X29662388Y-28472849D01*
X29660241Y-28475141D01*
X29657949Y-28477288D01*
X29655521Y-28479281D01*
X29650300Y-28482769D01*
X29647530Y-28484250D01*
X29641729Y-28486653D01*
X29635664Y-28488278D01*
X29632565Y-28488789D01*
X29626300Y-28489200D01*
X29132300Y-28489200D01*
X29126035Y-28488789D01*
X29122936Y-28488278D01*
X29116871Y-28486653D01*
X29111070Y-28484250D01*
X29108300Y-28482769D01*
X29103079Y-28479281D01*
X29100651Y-28477288D01*
X29098359Y-28475141D01*
X29096212Y-28472849D01*
X29094219Y-28470421D01*
X29090731Y-28465200D01*
X29089250Y-28462430D01*
X29086847Y-28456629D01*
X29085222Y-28450564D01*
X29084711Y-28447465D01*
X29084300Y-28441200D01*
X29084300Y-27897200D01*
X29084711Y-27890935D01*
X29085222Y-27887836D01*
X29086847Y-27881771D01*
X29089250Y-27875970D01*
X29090731Y-27873200D01*
X29094219Y-27867979D01*
X29096212Y-27865551D01*
X29098359Y-27863259D01*
X29100651Y-27861112D01*
X29103079Y-27859119D01*
X29108300Y-27855631D01*
X29111070Y-27854150D01*
X29116871Y-27851747D01*
X29122936Y-27850122D01*
X29126035Y-27849611D01*
X29132300Y-27849200D01*
X29626300Y-27849200D01*
X29632565Y-27849611D01*
G37*
G36*
X30602565Y-27849611D02*
G01*
X30605664Y-27850122D01*
X30611729Y-27851747D01*
X30617530Y-27854150D01*
X30620300Y-27855631D01*
X30625521Y-27859119D01*
X30627949Y-27861112D01*
X30630241Y-27863259D01*
X30632388Y-27865551D01*
X30634381Y-27867979D01*
X30637869Y-27873200D01*
X30639350Y-27875970D01*
X30641753Y-27881771D01*
X30643378Y-27887836D01*
X30643889Y-27890935D01*
X30644300Y-27897200D01*
X30644300Y-28441200D01*
X30643889Y-28447465D01*
X30643378Y-28450564D01*
X30641753Y-28456629D01*
X30639350Y-28462430D01*
X30637869Y-28465200D01*
X30634381Y-28470421D01*
X30632388Y-28472849D01*
X30630241Y-28475141D01*
X30627949Y-28477288D01*
X30625521Y-28479281D01*
X30620300Y-28482769D01*
X30617530Y-28484250D01*
X30611729Y-28486653D01*
X30605664Y-28488278D01*
X30602565Y-28488789D01*
X30596300Y-28489200D01*
X30102300Y-28489200D01*
X30096035Y-28488789D01*
X30092936Y-28488278D01*
X30086871Y-28486653D01*
X30081070Y-28484250D01*
X30078300Y-28482769D01*
X30073079Y-28479281D01*
X30070651Y-28477288D01*
X30068359Y-28475141D01*
X30066212Y-28472849D01*
X30064219Y-28470421D01*
X30060731Y-28465200D01*
X30059250Y-28462430D01*
X30056847Y-28456629D01*
X30055222Y-28450564D01*
X30054711Y-28447465D01*
X30054300Y-28441200D01*
X30054300Y-27897200D01*
X30054711Y-27890935D01*
X30055222Y-27887836D01*
X30056847Y-27881771D01*
X30059250Y-27875970D01*
X30060731Y-27873200D01*
X30064219Y-27867979D01*
X30066212Y-27865551D01*
X30068359Y-27863259D01*
X30070651Y-27861112D01*
X30073079Y-27859119D01*
X30078300Y-27855631D01*
X30081070Y-27854150D01*
X30086871Y-27851747D01*
X30092936Y-27850122D01*
X30096035Y-27849611D01*
X30102300Y-27849200D01*
X30596300Y-27849200D01*
X30602565Y-27849611D01*
G37*
G36*
X26022757Y-29844352D02*
G01*
X26027393Y-29844809D01*
X26031990Y-29845568D01*
X26036528Y-29846626D01*
X26040986Y-29847979D01*
X26045347Y-29849620D01*
X26049591Y-29851543D01*
X26053700Y-29853739D01*
X26057657Y-29856199D01*
X26061444Y-29858913D01*
X26065045Y-29861869D01*
X26068446Y-29865054D01*
X26071631Y-29868455D01*
X26074587Y-29872056D01*
X26077301Y-29875843D01*
X26079761Y-29879800D01*
X26081957Y-29883909D01*
X26083880Y-29888153D01*
X26085521Y-29892514D01*
X26086874Y-29896972D01*
X26087932Y-29901510D01*
X26088691Y-29906107D01*
X26089148Y-29910743D01*
X26089300Y-29915400D01*
X26089300Y-30723000D01*
X26089148Y-30727657D01*
X26088691Y-30732293D01*
X26087932Y-30736890D01*
X26086874Y-30741428D01*
X26085521Y-30745886D01*
X26083880Y-30750247D01*
X26081957Y-30754491D01*
X26079761Y-30758600D01*
X26077301Y-30762557D01*
X26074587Y-30766344D01*
X26071631Y-30769945D01*
X26068446Y-30773346D01*
X26065045Y-30776531D01*
X26061444Y-30779487D01*
X26057657Y-30782201D01*
X26053700Y-30784661D01*
X26049591Y-30786857D01*
X26045347Y-30788780D01*
X26040986Y-30790421D01*
X26036528Y-30791774D01*
X26031990Y-30792832D01*
X26027393Y-30793591D01*
X26022757Y-30794048D01*
X26018100Y-30794200D01*
X25360500Y-30794200D01*
X25355843Y-30794048D01*
X25351207Y-30793591D01*
X25346610Y-30792832D01*
X25342072Y-30791774D01*
X25337614Y-30790421D01*
X25333253Y-30788780D01*
X25329009Y-30786857D01*
X25324900Y-30784661D01*
X25320943Y-30782201D01*
X25317156Y-30779487D01*
X25313555Y-30776531D01*
X25310154Y-30773346D01*
X25306969Y-30769945D01*
X25304013Y-30766344D01*
X25301299Y-30762557D01*
X25298839Y-30758600D01*
X25296643Y-30754491D01*
X25294720Y-30750247D01*
X25293079Y-30745886D01*
X25291726Y-30741428D01*
X25290668Y-30736890D01*
X25289909Y-30732293D01*
X25289452Y-30727657D01*
X25289300Y-30723000D01*
X25289300Y-29915400D01*
X25289452Y-29910743D01*
X25289909Y-29906107D01*
X25290668Y-29901510D01*
X25291726Y-29896972D01*
X25293079Y-29892514D01*
X25294720Y-29888153D01*
X25296643Y-29883909D01*
X25298839Y-29879800D01*
X25301299Y-29875843D01*
X25304013Y-29872056D01*
X25306969Y-29868455D01*
X25310154Y-29865054D01*
X25313555Y-29861869D01*
X25317156Y-29858913D01*
X25320943Y-29856199D01*
X25324900Y-29853739D01*
X25329009Y-29851543D01*
X25333253Y-29849620D01*
X25337614Y-29847979D01*
X25342072Y-29846626D01*
X25346610Y-29845568D01*
X25351207Y-29844809D01*
X25355843Y-29844352D01*
X25360500Y-29844200D01*
X26018100Y-29844200D01*
X26022757Y-29844352D01*
G37*
G36*
X24372757Y-29844352D02*
G01*
X24377393Y-29844809D01*
X24381990Y-29845568D01*
X24386528Y-29846626D01*
X24390986Y-29847979D01*
X24395347Y-29849620D01*
X24399591Y-29851543D01*
X24403700Y-29853739D01*
X24407657Y-29856199D01*
X24411444Y-29858913D01*
X24415045Y-29861869D01*
X24418446Y-29865054D01*
X24421631Y-29868455D01*
X24424587Y-29872056D01*
X24427301Y-29875843D01*
X24429761Y-29879800D01*
X24431957Y-29883909D01*
X24433880Y-29888153D01*
X24435521Y-29892514D01*
X24436874Y-29896972D01*
X24437932Y-29901510D01*
X24438691Y-29906107D01*
X24439148Y-29910743D01*
X24439300Y-29915400D01*
X24439300Y-30723000D01*
X24439148Y-30727657D01*
X24438691Y-30732293D01*
X24437932Y-30736890D01*
X24436874Y-30741428D01*
X24435521Y-30745886D01*
X24433880Y-30750247D01*
X24431957Y-30754491D01*
X24429761Y-30758600D01*
X24427301Y-30762557D01*
X24424587Y-30766344D01*
X24421631Y-30769945D01*
X24418446Y-30773346D01*
X24415045Y-30776531D01*
X24411444Y-30779487D01*
X24407657Y-30782201D01*
X24403700Y-30784661D01*
X24399591Y-30786857D01*
X24395347Y-30788780D01*
X24390986Y-30790421D01*
X24386528Y-30791774D01*
X24381990Y-30792832D01*
X24377393Y-30793591D01*
X24372757Y-30794048D01*
X24368100Y-30794200D01*
X23710500Y-30794200D01*
X23705843Y-30794048D01*
X23701207Y-30793591D01*
X23696610Y-30792832D01*
X23692072Y-30791774D01*
X23687614Y-30790421D01*
X23683253Y-30788780D01*
X23679009Y-30786857D01*
X23674900Y-30784661D01*
X23670943Y-30782201D01*
X23667156Y-30779487D01*
X23663555Y-30776531D01*
X23660154Y-30773346D01*
X23656969Y-30769945D01*
X23654013Y-30766344D01*
X23651299Y-30762557D01*
X23648839Y-30758600D01*
X23646643Y-30754491D01*
X23644720Y-30750247D01*
X23643079Y-30745886D01*
X23641726Y-30741428D01*
X23640668Y-30736890D01*
X23639909Y-30732293D01*
X23639452Y-30727657D01*
X23639300Y-30723000D01*
X23639300Y-29915400D01*
X23639452Y-29910743D01*
X23639909Y-29906107D01*
X23640668Y-29901510D01*
X23641726Y-29896972D01*
X23643079Y-29892514D01*
X23644720Y-29888153D01*
X23646643Y-29883909D01*
X23648839Y-29879800D01*
X23651299Y-29875843D01*
X23654013Y-29872056D01*
X23656969Y-29868455D01*
X23660154Y-29865054D01*
X23663555Y-29861869D01*
X23667156Y-29858913D01*
X23670943Y-29856199D01*
X23674900Y-29853739D01*
X23679009Y-29851543D01*
X23683253Y-29849620D01*
X23687614Y-29847979D01*
X23692072Y-29846626D01*
X23696610Y-29845568D01*
X23701207Y-29844809D01*
X23705843Y-29844352D01*
X23710500Y-29844200D01*
X24368100Y-29844200D01*
X24372757Y-29844352D01*
G37*
G36*
X29422756Y-35494352D02*
G01*
X29427393Y-35494809D01*
X29431990Y-35495568D01*
X29436527Y-35496626D01*
X29440986Y-35497979D01*
X29445346Y-35499620D01*
X29449590Y-35501543D01*
X29453699Y-35503739D01*
X29457656Y-35506199D01*
X29461443Y-35508913D01*
X29465045Y-35511869D01*
X29468445Y-35515054D01*
X29471630Y-35518455D01*
X29474586Y-35522056D01*
X29477300Y-35525843D01*
X29479760Y-35529800D01*
X29481957Y-35533909D01*
X29483879Y-35538153D01*
X29485521Y-35542514D01*
X29486873Y-35546972D01*
X29487931Y-35551510D01*
X29488690Y-35556107D01*
X29489147Y-35560743D01*
X29489299Y-35565400D01*
X29489299Y-36323000D01*
X29489147Y-36327657D01*
X29488690Y-36332293D01*
X29487931Y-36336890D01*
X29486873Y-36341428D01*
X29485521Y-36345886D01*
X29483879Y-36350247D01*
X29481957Y-36354491D01*
X29479760Y-36358600D01*
X29477300Y-36362557D01*
X29474586Y-36366344D01*
X29471630Y-36369945D01*
X29468445Y-36373346D01*
X29465045Y-36376531D01*
X29461443Y-36379487D01*
X29457656Y-36382201D01*
X29453699Y-36384661D01*
X29449590Y-36386857D01*
X29445346Y-36388780D01*
X29440986Y-36390421D01*
X29436527Y-36391774D01*
X29431990Y-36392832D01*
X29427393Y-36393591D01*
X29422756Y-36394048D01*
X29418099Y-36394200D01*
X28610499Y-36394200D01*
X28605843Y-36394048D01*
X28601206Y-36393591D01*
X28596609Y-36392832D01*
X28592071Y-36391774D01*
X28587613Y-36390421D01*
X28583252Y-36388780D01*
X28579008Y-36386857D01*
X28574899Y-36384661D01*
X28570943Y-36382201D01*
X28567155Y-36379487D01*
X28563554Y-36376531D01*
X28560153Y-36373346D01*
X28556968Y-36369945D01*
X28554012Y-36366344D01*
X28551299Y-36362557D01*
X28548838Y-36358600D01*
X28546642Y-36354491D01*
X28544719Y-36350247D01*
X28543078Y-36345886D01*
X28541725Y-36341428D01*
X28540667Y-36336890D01*
X28539908Y-36332293D01*
X28539452Y-36327657D01*
X28539299Y-36323000D01*
X28539299Y-35565400D01*
X28539452Y-35560743D01*
X28539908Y-35556107D01*
X28540667Y-35551510D01*
X28541725Y-35546972D01*
X28543078Y-35542514D01*
X28544719Y-35538153D01*
X28546642Y-35533909D01*
X28548838Y-35529800D01*
X28551299Y-35525843D01*
X28554012Y-35522056D01*
X28556968Y-35518455D01*
X28560153Y-35515054D01*
X28563554Y-35511869D01*
X28567155Y-35508913D01*
X28570943Y-35506199D01*
X28574899Y-35503739D01*
X28579008Y-35501543D01*
X28583252Y-35499620D01*
X28587613Y-35497979D01*
X28592071Y-35496626D01*
X28596609Y-35495568D01*
X28601206Y-35494809D01*
X28605843Y-35494352D01*
X28610499Y-35494200D01*
X29418099Y-35494200D01*
X29422756Y-35494352D01*
G37*
G36*
X29422757Y-37044352D02*
G01*
X29427394Y-37044809D01*
X29431991Y-37045568D01*
X29436529Y-37046626D01*
X29440987Y-37047979D01*
X29445348Y-37049620D01*
X29449592Y-37051543D01*
X29453701Y-37053739D01*
X29457657Y-37056199D01*
X29461445Y-37058913D01*
X29465046Y-37061869D01*
X29468447Y-37065054D01*
X29471632Y-37068455D01*
X29474588Y-37072056D01*
X29477301Y-37075843D01*
X29479762Y-37079800D01*
X29481958Y-37083909D01*
X29483881Y-37088153D01*
X29485522Y-37092514D01*
X29486875Y-37096972D01*
X29487933Y-37101510D01*
X29488692Y-37106107D01*
X29489148Y-37110743D01*
X29489301Y-37115400D01*
X29489301Y-37873000D01*
X29489148Y-37877657D01*
X29488692Y-37882293D01*
X29487933Y-37886890D01*
X29486875Y-37891428D01*
X29485522Y-37895886D01*
X29483881Y-37900247D01*
X29481958Y-37904491D01*
X29479762Y-37908600D01*
X29477301Y-37912557D01*
X29474588Y-37916344D01*
X29471632Y-37919945D01*
X29468447Y-37923346D01*
X29465046Y-37926531D01*
X29461445Y-37929487D01*
X29457657Y-37932201D01*
X29453701Y-37934661D01*
X29449592Y-37936857D01*
X29445348Y-37938780D01*
X29440987Y-37940421D01*
X29436529Y-37941774D01*
X29431991Y-37942832D01*
X29427394Y-37943591D01*
X29422757Y-37944048D01*
X29418101Y-37944200D01*
X28610501Y-37944200D01*
X28605844Y-37944048D01*
X28601207Y-37943591D01*
X28596610Y-37942832D01*
X28592073Y-37941774D01*
X28587614Y-37940421D01*
X28583254Y-37938780D01*
X28579010Y-37936857D01*
X28574901Y-37934661D01*
X28570944Y-37932201D01*
X28567157Y-37929487D01*
X28563555Y-37926531D01*
X28560155Y-37923346D01*
X28556970Y-37919945D01*
X28554014Y-37916344D01*
X28551300Y-37912557D01*
X28548840Y-37908600D01*
X28546643Y-37904491D01*
X28544721Y-37900247D01*
X28543079Y-37895886D01*
X28541727Y-37891428D01*
X28540669Y-37886890D01*
X28539910Y-37882293D01*
X28539453Y-37877657D01*
X28539301Y-37873000D01*
X28539301Y-37115400D01*
X28539453Y-37110743D01*
X28539910Y-37106107D01*
X28540669Y-37101510D01*
X28541727Y-37096972D01*
X28543079Y-37092514D01*
X28544721Y-37088153D01*
X28546643Y-37083909D01*
X28548840Y-37079800D01*
X28551300Y-37075843D01*
X28554014Y-37072056D01*
X28556970Y-37068455D01*
X28560155Y-37065054D01*
X28563555Y-37061869D01*
X28567157Y-37058913D01*
X28570944Y-37056199D01*
X28574901Y-37053739D01*
X28579010Y-37051543D01*
X28583254Y-37049620D01*
X28587614Y-37047979D01*
X28592073Y-37046626D01*
X28596610Y-37045568D01*
X28601207Y-37044809D01*
X28605844Y-37044352D01*
X28610501Y-37044200D01*
X29418101Y-37044200D01*
X29422757Y-37044352D01*
G37*
G36*
X26022757Y-27694352D02*
G01*
X26027393Y-27694809D01*
X26031990Y-27695568D01*
X26036528Y-27696626D01*
X26040986Y-27697979D01*
X26045347Y-27699620D01*
X26049591Y-27701543D01*
X26053700Y-27703739D01*
X26057657Y-27706199D01*
X26061444Y-27708913D01*
X26065045Y-27711869D01*
X26068446Y-27715054D01*
X26071631Y-27718455D01*
X26074587Y-27722056D01*
X26077301Y-27725843D01*
X26079761Y-27729800D01*
X26081957Y-27733909D01*
X26083880Y-27738153D01*
X26085521Y-27742514D01*
X26086874Y-27746972D01*
X26087932Y-27751510D01*
X26088691Y-27756107D01*
X26089148Y-27760743D01*
X26089300Y-27765400D01*
X26089300Y-28573000D01*
X26089148Y-28577657D01*
X26088691Y-28582293D01*
X26087932Y-28586890D01*
X26086874Y-28591428D01*
X26085521Y-28595886D01*
X26083880Y-28600247D01*
X26081957Y-28604491D01*
X26079761Y-28608600D01*
X26077301Y-28612557D01*
X26074587Y-28616344D01*
X26071631Y-28619945D01*
X26068446Y-28623346D01*
X26065045Y-28626531D01*
X26061444Y-28629487D01*
X26057657Y-28632201D01*
X26053700Y-28634661D01*
X26049591Y-28636857D01*
X26045347Y-28638780D01*
X26040986Y-28640421D01*
X26036528Y-28641774D01*
X26031990Y-28642832D01*
X26027393Y-28643591D01*
X26022757Y-28644048D01*
X26018100Y-28644200D01*
X25360500Y-28644200D01*
X25355843Y-28644048D01*
X25351207Y-28643591D01*
X25346610Y-28642832D01*
X25342072Y-28641774D01*
X25337614Y-28640421D01*
X25333253Y-28638780D01*
X25329009Y-28636857D01*
X25324900Y-28634661D01*
X25320943Y-28632201D01*
X25317156Y-28629487D01*
X25313555Y-28626531D01*
X25310154Y-28623346D01*
X25306969Y-28619945D01*
X25304013Y-28616344D01*
X25301299Y-28612557D01*
X25298839Y-28608600D01*
X25296643Y-28604491D01*
X25294720Y-28600247D01*
X25293079Y-28595886D01*
X25291726Y-28591428D01*
X25290668Y-28586890D01*
X25289909Y-28582293D01*
X25289452Y-28577657D01*
X25289300Y-28573000D01*
X25289300Y-27765400D01*
X25289452Y-27760743D01*
X25289909Y-27756107D01*
X25290668Y-27751510D01*
X25291726Y-27746972D01*
X25293079Y-27742514D01*
X25294720Y-27738153D01*
X25296643Y-27733909D01*
X25298839Y-27729800D01*
X25301299Y-27725843D01*
X25304013Y-27722056D01*
X25306969Y-27718455D01*
X25310154Y-27715054D01*
X25313555Y-27711869D01*
X25317156Y-27708913D01*
X25320943Y-27706199D01*
X25324900Y-27703739D01*
X25329009Y-27701543D01*
X25333253Y-27699620D01*
X25337614Y-27697979D01*
X25342072Y-27696626D01*
X25346610Y-27695568D01*
X25351207Y-27694809D01*
X25355843Y-27694352D01*
X25360500Y-27694200D01*
X26018100Y-27694200D01*
X26022757Y-27694352D01*
G37*
G36*
X24372757Y-27694352D02*
G01*
X24377393Y-27694809D01*
X24381990Y-27695568D01*
X24386528Y-27696626D01*
X24390986Y-27697979D01*
X24395347Y-27699620D01*
X24399591Y-27701543D01*
X24403700Y-27703739D01*
X24407657Y-27706199D01*
X24411444Y-27708913D01*
X24415045Y-27711869D01*
X24418446Y-27715054D01*
X24421631Y-27718455D01*
X24424587Y-27722056D01*
X24427301Y-27725843D01*
X24429761Y-27729800D01*
X24431957Y-27733909D01*
X24433880Y-27738153D01*
X24435521Y-27742514D01*
X24436874Y-27746972D01*
X24437932Y-27751510D01*
X24438691Y-27756107D01*
X24439148Y-27760743D01*
X24439300Y-27765400D01*
X24439300Y-28573000D01*
X24439148Y-28577657D01*
X24438691Y-28582293D01*
X24437932Y-28586890D01*
X24436874Y-28591428D01*
X24435521Y-28595886D01*
X24433880Y-28600247D01*
X24431957Y-28604491D01*
X24429761Y-28608600D01*
X24427301Y-28612557D01*
X24424587Y-28616344D01*
X24421631Y-28619945D01*
X24418446Y-28623346D01*
X24415045Y-28626531D01*
X24411444Y-28629487D01*
X24407657Y-28632201D01*
X24403700Y-28634661D01*
X24399591Y-28636857D01*
X24395347Y-28638780D01*
X24390986Y-28640421D01*
X24386528Y-28641774D01*
X24381990Y-28642832D01*
X24377393Y-28643591D01*
X24372757Y-28644048D01*
X24368100Y-28644200D01*
X23710500Y-28644200D01*
X23705843Y-28644048D01*
X23701207Y-28643591D01*
X23696610Y-28642832D01*
X23692072Y-28641774D01*
X23687614Y-28640421D01*
X23683253Y-28638780D01*
X23679009Y-28636857D01*
X23674900Y-28634661D01*
X23670943Y-28632201D01*
X23667156Y-28629487D01*
X23663555Y-28626531D01*
X23660154Y-28623346D01*
X23656969Y-28619945D01*
X23654013Y-28616344D01*
X23651299Y-28612557D01*
X23648839Y-28608600D01*
X23646643Y-28604491D01*
X23644720Y-28600247D01*
X23643079Y-28595886D01*
X23641726Y-28591428D01*
X23640668Y-28586890D01*
X23639909Y-28582293D01*
X23639452Y-28577657D01*
X23639300Y-28573000D01*
X23639300Y-27765400D01*
X23639452Y-27760743D01*
X23639909Y-27756107D01*
X23640668Y-27751510D01*
X23641726Y-27746972D01*
X23643079Y-27742514D01*
X23644720Y-27738153D01*
X23646643Y-27733909D01*
X23648839Y-27729800D01*
X23651299Y-27725843D01*
X23654013Y-27722056D01*
X23656969Y-27718455D01*
X23660154Y-27715054D01*
X23663555Y-27711869D01*
X23667156Y-27708913D01*
X23670943Y-27706199D01*
X23674900Y-27703739D01*
X23679009Y-27701543D01*
X23683253Y-27699620D01*
X23687614Y-27697979D01*
X23692072Y-27696626D01*
X23696610Y-27695568D01*
X23701207Y-27694809D01*
X23705843Y-27694352D01*
X23710500Y-27694200D01*
X24368100Y-27694200D01*
X24372757Y-27694352D01*
G37*
G36*
X27814299Y-37594203D02*
G01*
X27314299Y-37594203D01*
X27314299Y-37344203D01*
X27814299Y-37344203D01*
X27814299Y-37594203D01*
G37*
G36*
X25914299Y-37594197D02*
G01*
X25414299Y-37594197D01*
X25414299Y-37344197D01*
X25914299Y-37344197D01*
X25914299Y-37594197D01*
G37*
G36*
X27064300Y-38019200D02*
G01*
X26164300Y-38019200D01*
X26164300Y-36419200D01*
X27064300Y-36419200D01*
X27064300Y-38019200D01*
G37*
G36*
X27814301Y-37094203D02*
G01*
X27314301Y-37094203D01*
X27314301Y-36844203D01*
X27814301Y-36844203D01*
X27814301Y-37094203D01*
G37*
G36*
X25914301Y-37094197D02*
G01*
X25414301Y-37094197D01*
X25414301Y-36844197D01*
X25914301Y-36844197D01*
X25914301Y-37094197D01*
G37*
G36*
X27814302Y-36594203D02*
G01*
X27314302Y-36594203D01*
X27314302Y-36344203D01*
X27814302Y-36344203D01*
X27814302Y-36594203D01*
G37*
G36*
X25914298Y-38094197D02*
G01*
X25414298Y-38094197D01*
X25414298Y-37844197D01*
X25914298Y-37844197D01*
X25914298Y-38094197D01*
G37*
G36*
X25914302Y-36594197D02*
G01*
X25414302Y-36594197D01*
X25414302Y-36344197D01*
X25914302Y-36344197D01*
X25914302Y-36594197D01*
G37*
G36*
X27814298Y-38094203D02*
G01*
X27314298Y-38094203D01*
X27314298Y-37844203D01*
X27814298Y-37844203D01*
X27814298Y-38094203D01*
G37*
G36*
X26989299Y-37944200D02*
G01*
X26239299Y-37944200D01*
X26239299Y-37294200D01*
X26989299Y-37294200D01*
X26989299Y-37944200D01*
G37*
G36*
X26989301Y-37144200D02*
G01*
X26239301Y-37144200D01*
X26239301Y-36494200D01*
X26989301Y-36494200D01*
X26989301Y-37144200D01*
G37*
G36*
X26022757Y-25544352D02*
G01*
X26027393Y-25544809D01*
X26031990Y-25545568D01*
X26036528Y-25546626D01*
X26040986Y-25547979D01*
X26045347Y-25549620D01*
X26049591Y-25551543D01*
X26053700Y-25553739D01*
X26057657Y-25556199D01*
X26061444Y-25558913D01*
X26065045Y-25561869D01*
X26068446Y-25565054D01*
X26071631Y-25568455D01*
X26074587Y-25572056D01*
X26077301Y-25575843D01*
X26079761Y-25579800D01*
X26081957Y-25583909D01*
X26083880Y-25588153D01*
X26085521Y-25592514D01*
X26086874Y-25596972D01*
X26087932Y-25601510D01*
X26088691Y-25606107D01*
X26089148Y-25610743D01*
X26089300Y-25615400D01*
X26089300Y-26423000D01*
X26089148Y-26427657D01*
X26088691Y-26432293D01*
X26087932Y-26436890D01*
X26086874Y-26441428D01*
X26085521Y-26445886D01*
X26083880Y-26450247D01*
X26081957Y-26454491D01*
X26079761Y-26458600D01*
X26077301Y-26462557D01*
X26074587Y-26466344D01*
X26071631Y-26469945D01*
X26068446Y-26473346D01*
X26065045Y-26476531D01*
X26061444Y-26479487D01*
X26057657Y-26482201D01*
X26053700Y-26484661D01*
X26049591Y-26486857D01*
X26045347Y-26488780D01*
X26040986Y-26490421D01*
X26036528Y-26491774D01*
X26031990Y-26492832D01*
X26027393Y-26493591D01*
X26022757Y-26494048D01*
X26018100Y-26494200D01*
X25360500Y-26494200D01*
X25355843Y-26494048D01*
X25351207Y-26493591D01*
X25346610Y-26492832D01*
X25342072Y-26491774D01*
X25337614Y-26490421D01*
X25333253Y-26488780D01*
X25329009Y-26486857D01*
X25324900Y-26484661D01*
X25320943Y-26482201D01*
X25317156Y-26479487D01*
X25313555Y-26476531D01*
X25310154Y-26473346D01*
X25306969Y-26469945D01*
X25304013Y-26466344D01*
X25301299Y-26462557D01*
X25298839Y-26458600D01*
X25296643Y-26454491D01*
X25294720Y-26450247D01*
X25293079Y-26445886D01*
X25291726Y-26441428D01*
X25290668Y-26436890D01*
X25289909Y-26432293D01*
X25289452Y-26427657D01*
X25289300Y-26423000D01*
X25289300Y-25615400D01*
X25289452Y-25610743D01*
X25289909Y-25606107D01*
X25290668Y-25601510D01*
X25291726Y-25596972D01*
X25293079Y-25592514D01*
X25294720Y-25588153D01*
X25296643Y-25583909D01*
X25298839Y-25579800D01*
X25301299Y-25575843D01*
X25304013Y-25572056D01*
X25306969Y-25568455D01*
X25310154Y-25565054D01*
X25313555Y-25561869D01*
X25317156Y-25558913D01*
X25320943Y-25556199D01*
X25324900Y-25553739D01*
X25329009Y-25551543D01*
X25333253Y-25549620D01*
X25337614Y-25547979D01*
X25342072Y-25546626D01*
X25346610Y-25545568D01*
X25351207Y-25544809D01*
X25355843Y-25544352D01*
X25360500Y-25544200D01*
X26018100Y-25544200D01*
X26022757Y-25544352D01*
G37*
G36*
X24372757Y-25544352D02*
G01*
X24377393Y-25544809D01*
X24381990Y-25545568D01*
X24386528Y-25546626D01*
X24390986Y-25547979D01*
X24395347Y-25549620D01*
X24399591Y-25551543D01*
X24403700Y-25553739D01*
X24407657Y-25556199D01*
X24411444Y-25558913D01*
X24415045Y-25561869D01*
X24418446Y-25565054D01*
X24421631Y-25568455D01*
X24424587Y-25572056D01*
X24427301Y-25575843D01*
X24429761Y-25579800D01*
X24431957Y-25583909D01*
X24433880Y-25588153D01*
X24435521Y-25592514D01*
X24436874Y-25596972D01*
X24437932Y-25601510D01*
X24438691Y-25606107D01*
X24439148Y-25610743D01*
X24439300Y-25615400D01*
X24439300Y-26423000D01*
X24439148Y-26427657D01*
X24438691Y-26432293D01*
X24437932Y-26436890D01*
X24436874Y-26441428D01*
X24435521Y-26445886D01*
X24433880Y-26450247D01*
X24431957Y-26454491D01*
X24429761Y-26458600D01*
X24427301Y-26462557D01*
X24424587Y-26466344D01*
X24421631Y-26469945D01*
X24418446Y-26473346D01*
X24415045Y-26476531D01*
X24411444Y-26479487D01*
X24407657Y-26482201D01*
X24403700Y-26484661D01*
X24399591Y-26486857D01*
X24395347Y-26488780D01*
X24390986Y-26490421D01*
X24386528Y-26491774D01*
X24381990Y-26492832D01*
X24377393Y-26493591D01*
X24372757Y-26494048D01*
X24368100Y-26494200D01*
X23710500Y-26494200D01*
X23705843Y-26494048D01*
X23701207Y-26493591D01*
X23696610Y-26492832D01*
X23692072Y-26491774D01*
X23687614Y-26490421D01*
X23683253Y-26488780D01*
X23679009Y-26486857D01*
X23674900Y-26484661D01*
X23670943Y-26482201D01*
X23667156Y-26479487D01*
X23663555Y-26476531D01*
X23660154Y-26473346D01*
X23656969Y-26469945D01*
X23654013Y-26466344D01*
X23651299Y-26462557D01*
X23648839Y-26458600D01*
X23646643Y-26454491D01*
X23644720Y-26450247D01*
X23643079Y-26445886D01*
X23641726Y-26441428D01*
X23640668Y-26436890D01*
X23639909Y-26432293D01*
X23639452Y-26427657D01*
X23639300Y-26423000D01*
X23639300Y-25615400D01*
X23639452Y-25610743D01*
X23639909Y-25606107D01*
X23640668Y-25601510D01*
X23641726Y-25596972D01*
X23643079Y-25592514D01*
X23644720Y-25588153D01*
X23646643Y-25583909D01*
X23648839Y-25579800D01*
X23651299Y-25575843D01*
X23654013Y-25572056D01*
X23656969Y-25568455D01*
X23660154Y-25565054D01*
X23663555Y-25561869D01*
X23667156Y-25558913D01*
X23670943Y-25556199D01*
X23674900Y-25553739D01*
X23679009Y-25551543D01*
X23683253Y-25549620D01*
X23687614Y-25547979D01*
X23692072Y-25546626D01*
X23696610Y-25545568D01*
X23701207Y-25544809D01*
X23705843Y-25544352D01*
X23710500Y-25544200D01*
X24368100Y-25544200D01*
X24372757Y-25544352D01*
G37*
G36*
X42530409Y-23979219D02*
G01*
X41080409Y-23979219D01*
X41080409Y-23379219D01*
X42530409Y-23379219D01*
X42530409Y-23979219D01*
G37*
G36*
X43284006Y-16385638D02*
G01*
X43309650Y-16388164D01*
X43335139Y-16391945D01*
X43360412Y-16396972D01*
X43385408Y-16403233D01*
X43410067Y-16410713D01*
X43434329Y-16419394D01*
X43458136Y-16429255D01*
X43481430Y-16440273D01*
X43504156Y-16452420D01*
X43526258Y-16465667D01*
X43547683Y-16479983D01*
X43568381Y-16495333D01*
X43588300Y-16511681D01*
X43607393Y-16528986D01*
X43625614Y-16547207D01*
X43642919Y-16566300D01*
X43659266Y-16586219D01*
X43674616Y-16606916D01*
X43688932Y-16628342D01*
X43702180Y-16650444D01*
X43714327Y-16673169D01*
X43725344Y-16696464D01*
X43735205Y-16720270D01*
X43743886Y-16744532D01*
X43751367Y-16769191D01*
X43757628Y-16794187D01*
X43762655Y-16819460D01*
X43766436Y-16844950D01*
X43768962Y-16870594D01*
X43770226Y-16896331D01*
X43770226Y-16922099D01*
X43768962Y-16947837D01*
X43766436Y-16973481D01*
X43762655Y-16998970D01*
X43757628Y-17024244D01*
X43751367Y-17049240D01*
X43743886Y-17073898D01*
X43735205Y-17098160D01*
X43725344Y-17121967D01*
X43714327Y-17145261D01*
X43702180Y-17167987D01*
X43688932Y-17190089D01*
X43674616Y-17211515D01*
X43659266Y-17232212D01*
X43642919Y-17252131D01*
X43625614Y-17271224D01*
X43607393Y-17289445D01*
X43588300Y-17306750D01*
X43568381Y-17323097D01*
X43547683Y-17338447D01*
X43526258Y-17352763D01*
X43504156Y-17366011D01*
X43481430Y-17378158D01*
X43458136Y-17389175D01*
X43434329Y-17399037D01*
X43410067Y-17407718D01*
X43385408Y-17415198D01*
X43360412Y-17421459D01*
X43335139Y-17426486D01*
X43309650Y-17430267D01*
X43284006Y-17432793D01*
X43258268Y-17434057D01*
X43232500Y-17434057D01*
X42182500Y-17434057D01*
X42156763Y-17432793D01*
X42131119Y-17430267D01*
X42105629Y-17426486D01*
X42080356Y-17421459D01*
X42055360Y-17415198D01*
X42030701Y-17407718D01*
X42006439Y-17399037D01*
X41982632Y-17389175D01*
X41959338Y-17378158D01*
X41936613Y-17366011D01*
X41914510Y-17352763D01*
X41893085Y-17338447D01*
X41872388Y-17323097D01*
X41852468Y-17306750D01*
X41833375Y-17289445D01*
X41815154Y-17271224D01*
X41797849Y-17252131D01*
X41781502Y-17232212D01*
X41766152Y-17211515D01*
X41751836Y-17190089D01*
X41738588Y-17167987D01*
X41726441Y-17145261D01*
X41715424Y-17121967D01*
X41705563Y-17098160D01*
X41696882Y-17073898D01*
X41689402Y-17049240D01*
X41683141Y-17024244D01*
X41678113Y-16998970D01*
X41674332Y-16973481D01*
X41671807Y-16947837D01*
X41670542Y-16922099D01*
X41670542Y-16917191D01*
X41845482Y-16917191D01*
X41846265Y-16933124D01*
X41847828Y-16948999D01*
X41850169Y-16964778D01*
X41853281Y-16980423D01*
X41857157Y-16995897D01*
X41861787Y-17011162D01*
X41867161Y-17026181D01*
X41873266Y-17040919D01*
X41880086Y-17055339D01*
X41887606Y-17069407D01*
X41895807Y-17083090D01*
X41904669Y-17096353D01*
X41914172Y-17109166D01*
X41924291Y-17121497D01*
X41935004Y-17133316D01*
X41946283Y-17144596D01*
X41958103Y-17155308D01*
X41970434Y-17165428D01*
X41983246Y-17174930D01*
X41996510Y-17183793D01*
X42010192Y-17191994D01*
X42024260Y-17199513D01*
X42038681Y-17206334D01*
X42053418Y-17212438D01*
X42068438Y-17217812D01*
X42083702Y-17222443D01*
X42099176Y-17226319D01*
X42114822Y-17229431D01*
X42130601Y-17231771D01*
X42146476Y-17233335D01*
X42162408Y-17234117D01*
X43262408Y-17234117D01*
X43278360Y-17234117D01*
X43294293Y-17233335D01*
X43310168Y-17231771D01*
X43325947Y-17229431D01*
X43341592Y-17226319D01*
X43357066Y-17222443D01*
X43372331Y-17217812D01*
X43387350Y-17212438D01*
X43402088Y-17206334D01*
X43416508Y-17199513D01*
X43430576Y-17191994D01*
X43444258Y-17183793D01*
X43457522Y-17174930D01*
X43470334Y-17165428D01*
X43482665Y-17155308D01*
X43494485Y-17144596D01*
X43505764Y-17133316D01*
X43516477Y-17121497D01*
X43526597Y-17109166D01*
X43536099Y-17096353D01*
X43544962Y-17083090D01*
X43553162Y-17069407D01*
X43560682Y-17055339D01*
X43567502Y-17040919D01*
X43573607Y-17026181D01*
X43578981Y-17011162D01*
X43583611Y-16995897D01*
X43587487Y-16980423D01*
X43590599Y-16964778D01*
X43592940Y-16948999D01*
X43594504Y-16933124D01*
X43595286Y-16917191D01*
X43595286Y-16901239D01*
X43594504Y-16885307D01*
X43592940Y-16869432D01*
X43590599Y-16853653D01*
X43587487Y-16838007D01*
X43583611Y-16822534D01*
X43578981Y-16807269D01*
X43573607Y-16792249D01*
X43567502Y-16777512D01*
X43560682Y-16763092D01*
X43553162Y-16749023D01*
X43544962Y-16735341D01*
X43536099Y-16722078D01*
X43526597Y-16709265D01*
X43516477Y-16696934D01*
X43505764Y-16685115D01*
X43494485Y-16673835D01*
X43482665Y-16663122D01*
X43470334Y-16653003D01*
X43457522Y-16643500D01*
X43444258Y-16634638D01*
X43430576Y-16626437D01*
X43416508Y-16618917D01*
X43402088Y-16612097D01*
X43387350Y-16605993D01*
X43372331Y-16600619D01*
X43357066Y-16595988D01*
X43341592Y-16592112D01*
X43325947Y-16589000D01*
X43310168Y-16586660D01*
X43294293Y-16585096D01*
X43278360Y-16584313D01*
X42162408Y-16584313D01*
X42146476Y-16585096D01*
X42130601Y-16586660D01*
X42114822Y-16589000D01*
X42099176Y-16592112D01*
X42083702Y-16595988D01*
X42068438Y-16600619D01*
X42053418Y-16605993D01*
X42038681Y-16612097D01*
X42024260Y-16618917D01*
X42010192Y-16626437D01*
X41996510Y-16634638D01*
X41983246Y-16643500D01*
X41970434Y-16653003D01*
X41958103Y-16663122D01*
X41946283Y-16673835D01*
X41935004Y-16685115D01*
X41924291Y-16696934D01*
X41914172Y-16709265D01*
X41904669Y-16722078D01*
X41895807Y-16735341D01*
X41887606Y-16749023D01*
X41880086Y-16763092D01*
X41873266Y-16777512D01*
X41867161Y-16792249D01*
X41861787Y-16807269D01*
X41857157Y-16822534D01*
X41853281Y-16838007D01*
X41850169Y-16853653D01*
X41847828Y-16869432D01*
X41846265Y-16885307D01*
X41845482Y-16901239D01*
X41845482Y-16917191D01*
X41670542Y-16917191D01*
X41670542Y-16896331D01*
X41671807Y-16870594D01*
X41674332Y-16844950D01*
X41678113Y-16819460D01*
X41683141Y-16794187D01*
X41689402Y-16769191D01*
X41696882Y-16744532D01*
X41705563Y-16720270D01*
X41715424Y-16696464D01*
X41726441Y-16673169D01*
X41738588Y-16650444D01*
X41751836Y-16628342D01*
X41766152Y-16606916D01*
X41781502Y-16586219D01*
X41797849Y-16566300D01*
X41815154Y-16547207D01*
X41833375Y-16528986D01*
X41852468Y-16511681D01*
X41872388Y-16495333D01*
X41893085Y-16479983D01*
X41914510Y-16465667D01*
X41936613Y-16452420D01*
X41959338Y-16440273D01*
X41982632Y-16429255D01*
X42006439Y-16419394D01*
X42030701Y-16410713D01*
X42055360Y-16403233D01*
X42080356Y-16396972D01*
X42105629Y-16391945D01*
X42131119Y-16388164D01*
X42156763Y-16385638D01*
X42182500Y-16384373D01*
X43258268Y-16384373D01*
X43284006Y-16385638D01*
G37*
G36*
X42530394Y-19629219D02*
G01*
X41080394Y-19629219D01*
X41080394Y-19329219D01*
X42530394Y-19329219D01*
X42530394Y-19629219D01*
G37*
G36*
X42530391Y-19079219D02*
G01*
X41080391Y-19079219D01*
X41080391Y-18479219D01*
X42530391Y-18479219D01*
X42530391Y-19079219D01*
G37*
G36*
X43284037Y-25025638D02*
G01*
X43309681Y-25028164D01*
X43335171Y-25031945D01*
X43360444Y-25036972D01*
X43385440Y-25043233D01*
X43410099Y-25050713D01*
X43434361Y-25059394D01*
X43458168Y-25069255D01*
X43481462Y-25080273D01*
X43504187Y-25092420D01*
X43526290Y-25105667D01*
X43547715Y-25119983D01*
X43568412Y-25135333D01*
X43588332Y-25151681D01*
X43607425Y-25168986D01*
X43625646Y-25187207D01*
X43642951Y-25206300D01*
X43659298Y-25226219D01*
X43674648Y-25246916D01*
X43688964Y-25268342D01*
X43702212Y-25290444D01*
X43714359Y-25313169D01*
X43725376Y-25336464D01*
X43735237Y-25360270D01*
X43743918Y-25384532D01*
X43751398Y-25409191D01*
X43757659Y-25434187D01*
X43762687Y-25459460D01*
X43766468Y-25484950D01*
X43768993Y-25510594D01*
X43770258Y-25536331D01*
X43770258Y-25562099D01*
X43768993Y-25587837D01*
X43766468Y-25613481D01*
X43762687Y-25638970D01*
X43757659Y-25664244D01*
X43751398Y-25689240D01*
X43743918Y-25713898D01*
X43735237Y-25738160D01*
X43725376Y-25761967D01*
X43714359Y-25785261D01*
X43702212Y-25807987D01*
X43688964Y-25830089D01*
X43674648Y-25851515D01*
X43659298Y-25872212D01*
X43642951Y-25892131D01*
X43625646Y-25911224D01*
X43607425Y-25929445D01*
X43588332Y-25946750D01*
X43568412Y-25963097D01*
X43547715Y-25978447D01*
X43526290Y-25992763D01*
X43504187Y-26006011D01*
X43481462Y-26018158D01*
X43458168Y-26029175D01*
X43434361Y-26039037D01*
X43410099Y-26047718D01*
X43385440Y-26055198D01*
X43360444Y-26061459D01*
X43335171Y-26066486D01*
X43309681Y-26070267D01*
X43284037Y-26072793D01*
X43258300Y-26074057D01*
X43232532Y-26074057D01*
X42182532Y-26074057D01*
X42156794Y-26072793D01*
X42131150Y-26070267D01*
X42105661Y-26066486D01*
X42080388Y-26061459D01*
X42055392Y-26055198D01*
X42030733Y-26047718D01*
X42006471Y-26039037D01*
X41982664Y-26029175D01*
X41959370Y-26018158D01*
X41936644Y-26006011D01*
X41914542Y-25992763D01*
X41893117Y-25978447D01*
X41872419Y-25963097D01*
X41852500Y-25946750D01*
X41833407Y-25929445D01*
X41815186Y-25911224D01*
X41797881Y-25892131D01*
X41781534Y-25872212D01*
X41766184Y-25851515D01*
X41751868Y-25830089D01*
X41738620Y-25807987D01*
X41726473Y-25785261D01*
X41715456Y-25761967D01*
X41705595Y-25738160D01*
X41696914Y-25713898D01*
X41689433Y-25689240D01*
X41683172Y-25664244D01*
X41678145Y-25638970D01*
X41674364Y-25613481D01*
X41671838Y-25587837D01*
X41670574Y-25562099D01*
X41670574Y-25557191D01*
X41845514Y-25557191D01*
X41846296Y-25573124D01*
X41847860Y-25588999D01*
X41850201Y-25604778D01*
X41853313Y-25620423D01*
X41857189Y-25635897D01*
X41861819Y-25651162D01*
X41867193Y-25666181D01*
X41873298Y-25680919D01*
X41880118Y-25695339D01*
X41887638Y-25709407D01*
X41895838Y-25723090D01*
X41904701Y-25736353D01*
X41914203Y-25749166D01*
X41924323Y-25761497D01*
X41935036Y-25773316D01*
X41946315Y-25784596D01*
X41958135Y-25795308D01*
X41970466Y-25805428D01*
X41983278Y-25814930D01*
X41996542Y-25823793D01*
X42010224Y-25831994D01*
X42024292Y-25839513D01*
X42038712Y-25846334D01*
X42053450Y-25852438D01*
X42068469Y-25857812D01*
X42083734Y-25862443D01*
X42099208Y-25866319D01*
X42114853Y-25869431D01*
X42130632Y-25871771D01*
X42146507Y-25873335D01*
X42162440Y-25874117D01*
X43262440Y-25874117D01*
X43278392Y-25874117D01*
X43294324Y-25873335D01*
X43310199Y-25871771D01*
X43325978Y-25869431D01*
X43341624Y-25866319D01*
X43357098Y-25862443D01*
X43372362Y-25857812D01*
X43387382Y-25852438D01*
X43402119Y-25846334D01*
X43416540Y-25839513D01*
X43430608Y-25831994D01*
X43444290Y-25823793D01*
X43457554Y-25814930D01*
X43470366Y-25805428D01*
X43482697Y-25795308D01*
X43494517Y-25784596D01*
X43505796Y-25773316D01*
X43516509Y-25761497D01*
X43526628Y-25749166D01*
X43536131Y-25736353D01*
X43544993Y-25723090D01*
X43553194Y-25709407D01*
X43560714Y-25695339D01*
X43567534Y-25680919D01*
X43573639Y-25666181D01*
X43579013Y-25651162D01*
X43583643Y-25635897D01*
X43587519Y-25620423D01*
X43590631Y-25604778D01*
X43592972Y-25588999D01*
X43594535Y-25573124D01*
X43595318Y-25557191D01*
X43595318Y-25541239D01*
X43594535Y-25525307D01*
X43592972Y-25509432D01*
X43590631Y-25493653D01*
X43587519Y-25478007D01*
X43583643Y-25462534D01*
X43579013Y-25447269D01*
X43573639Y-25432249D01*
X43567534Y-25417512D01*
X43560714Y-25403092D01*
X43553194Y-25389023D01*
X43544993Y-25375341D01*
X43536131Y-25362078D01*
X43526628Y-25349265D01*
X43516509Y-25336934D01*
X43505796Y-25325115D01*
X43494517Y-25313835D01*
X43482697Y-25303122D01*
X43470366Y-25293003D01*
X43457554Y-25283500D01*
X43444290Y-25274638D01*
X43430608Y-25266437D01*
X43416540Y-25258917D01*
X43402119Y-25252097D01*
X43387382Y-25245993D01*
X43372362Y-25240619D01*
X43357098Y-25235988D01*
X43341624Y-25232112D01*
X43325978Y-25229000D01*
X43310199Y-25226660D01*
X43294324Y-25225096D01*
X43278392Y-25224313D01*
X42162440Y-25224313D01*
X42146507Y-25225096D01*
X42130632Y-25226660D01*
X42114853Y-25229000D01*
X42099208Y-25232112D01*
X42083734Y-25235988D01*
X42068469Y-25240619D01*
X42053450Y-25245993D01*
X42038712Y-25252097D01*
X42024292Y-25258917D01*
X42010224Y-25266437D01*
X41996542Y-25274638D01*
X41983278Y-25283500D01*
X41970466Y-25293003D01*
X41958135Y-25303122D01*
X41946315Y-25313835D01*
X41935036Y-25325115D01*
X41924323Y-25336934D01*
X41914203Y-25349265D01*
X41904701Y-25362078D01*
X41895838Y-25375341D01*
X41887638Y-25389023D01*
X41880118Y-25403092D01*
X41873298Y-25417512D01*
X41867193Y-25432249D01*
X41861819Y-25447269D01*
X41857189Y-25462534D01*
X41853313Y-25478007D01*
X41850201Y-25493653D01*
X41847860Y-25509432D01*
X41846296Y-25525307D01*
X41845514Y-25541239D01*
X41845514Y-25557191D01*
X41670574Y-25557191D01*
X41670574Y-25536331D01*
X41671838Y-25510594D01*
X41674364Y-25484950D01*
X41678145Y-25459460D01*
X41683172Y-25434187D01*
X41689433Y-25409191D01*
X41696914Y-25384532D01*
X41705595Y-25360270D01*
X41715456Y-25336464D01*
X41726473Y-25313169D01*
X41738620Y-25290444D01*
X41751868Y-25268342D01*
X41766184Y-25246916D01*
X41781534Y-25226219D01*
X41797881Y-25206300D01*
X41815186Y-25187207D01*
X41833407Y-25168986D01*
X41852500Y-25151681D01*
X41872419Y-25135333D01*
X41893117Y-25119983D01*
X41914542Y-25105667D01*
X41936644Y-25092420D01*
X41959370Y-25080273D01*
X41982664Y-25069255D01*
X42006471Y-25059394D01*
X42030733Y-25050713D01*
X42055392Y-25043233D01*
X42080388Y-25036972D01*
X42105661Y-25031945D01*
X42131150Y-25028164D01*
X42156794Y-25025638D01*
X42182532Y-25024373D01*
X43258300Y-25024373D01*
X43284037Y-25025638D01*
G37*
G36*
X42530395Y-20129219D02*
G01*
X41080395Y-20129219D01*
X41080395Y-19829219D01*
X42530395Y-19829219D01*
X42530395Y-20129219D01*
G37*
G36*
X47464037Y-25025623D02*
G01*
X47489681Y-25028148D01*
X47515171Y-25031929D01*
X47540444Y-25036956D01*
X47565440Y-25043218D01*
X47590099Y-25050698D01*
X47614361Y-25059379D01*
X47638168Y-25069240D01*
X47661462Y-25080257D01*
X47684187Y-25092404D01*
X47706290Y-25105652D01*
X47727715Y-25119968D01*
X47748412Y-25135318D01*
X47768332Y-25151665D01*
X47787425Y-25168970D01*
X47805646Y-25187191D01*
X47822951Y-25206284D01*
X47839298Y-25226203D01*
X47854648Y-25246901D01*
X47868964Y-25268326D01*
X47882212Y-25290428D01*
X47894359Y-25313154D01*
X47905376Y-25336448D01*
X47915237Y-25360255D01*
X47923918Y-25384517D01*
X47931398Y-25409176D01*
X47937659Y-25434172D01*
X47942687Y-25459445D01*
X47946468Y-25484934D01*
X47948993Y-25510579D01*
X47950258Y-25536316D01*
X47950258Y-25562084D01*
X47948993Y-25587821D01*
X47946468Y-25613466D01*
X47942687Y-25638955D01*
X47937659Y-25664228D01*
X47931398Y-25689224D01*
X47923918Y-25713883D01*
X47915237Y-25738145D01*
X47905376Y-25761952D01*
X47894359Y-25785246D01*
X47882212Y-25807972D01*
X47868964Y-25830074D01*
X47854648Y-25851499D01*
X47839298Y-25872197D01*
X47822951Y-25892116D01*
X47805646Y-25911209D01*
X47787425Y-25929430D01*
X47768332Y-25946735D01*
X47748412Y-25963082D01*
X47727715Y-25978432D01*
X47706290Y-25992748D01*
X47684187Y-26005996D01*
X47661462Y-26018143D01*
X47638168Y-26029160D01*
X47614361Y-26039021D01*
X47590099Y-26047702D01*
X47565440Y-26055182D01*
X47540444Y-26061444D01*
X47515171Y-26066471D01*
X47489681Y-26070252D01*
X47464037Y-26072777D01*
X47438300Y-26074042D01*
X47412532Y-26074042D01*
X46362532Y-26074042D01*
X46336794Y-26072777D01*
X46311150Y-26070252D01*
X46285661Y-26066471D01*
X46260388Y-26061444D01*
X46235392Y-26055182D01*
X46210733Y-26047702D01*
X46186471Y-26039021D01*
X46162664Y-26029160D01*
X46139370Y-26018143D01*
X46116644Y-26005996D01*
X46094542Y-25992748D01*
X46073117Y-25978432D01*
X46052419Y-25963082D01*
X46032500Y-25946735D01*
X46013407Y-25929430D01*
X45995186Y-25911209D01*
X45977881Y-25892116D01*
X45961534Y-25872197D01*
X45946184Y-25851499D01*
X45931868Y-25830074D01*
X45918620Y-25807972D01*
X45906473Y-25785246D01*
X45895456Y-25761952D01*
X45885595Y-25738145D01*
X45876914Y-25713883D01*
X45869433Y-25689224D01*
X45863172Y-25664228D01*
X45858145Y-25638955D01*
X45854364Y-25613466D01*
X45851838Y-25587821D01*
X45850574Y-25562084D01*
X45850574Y-25557176D01*
X46275514Y-25557176D01*
X46276296Y-25573108D01*
X46277860Y-25588983D01*
X46280201Y-25604763D01*
X46283313Y-25620408D01*
X46287189Y-25635882D01*
X46291819Y-25651147D01*
X46297193Y-25666166D01*
X46303298Y-25680903D01*
X46310118Y-25695324D01*
X46317638Y-25709392D01*
X46325838Y-25723074D01*
X46334701Y-25736338D01*
X46344203Y-25749150D01*
X46354323Y-25761481D01*
X46365036Y-25773301D01*
X46376315Y-25784580D01*
X46388135Y-25795293D01*
X46400466Y-25805413D01*
X46413278Y-25814915D01*
X46426542Y-25823777D01*
X46440224Y-25831978D01*
X46454292Y-25839498D01*
X46468712Y-25846318D01*
X46483450Y-25852423D01*
X46498469Y-25857797D01*
X46513734Y-25862427D01*
X46529208Y-25866303D01*
X46544853Y-25869415D01*
X46560632Y-25871756D01*
X46576507Y-25873319D01*
X46592440Y-25874102D01*
X47192440Y-25874102D01*
X47208392Y-25874102D01*
X47224324Y-25873319D01*
X47240199Y-25871756D01*
X47255978Y-25869415D01*
X47271624Y-25866303D01*
X47287098Y-25862427D01*
X47302362Y-25857797D01*
X47317382Y-25852423D01*
X47332119Y-25846318D01*
X47346540Y-25839498D01*
X47360608Y-25831978D01*
X47374290Y-25823777D01*
X47387554Y-25814915D01*
X47400366Y-25805413D01*
X47412697Y-25795293D01*
X47424517Y-25784580D01*
X47435796Y-25773301D01*
X47446509Y-25761481D01*
X47456628Y-25749150D01*
X47466131Y-25736338D01*
X47474993Y-25723074D01*
X47483194Y-25709392D01*
X47490714Y-25695324D01*
X47497534Y-25680903D01*
X47503639Y-25666166D01*
X47509013Y-25651147D01*
X47513643Y-25635882D01*
X47517519Y-25620408D01*
X47520631Y-25604763D01*
X47522972Y-25588983D01*
X47524535Y-25573108D01*
X47525318Y-25557176D01*
X47525318Y-25541224D01*
X47524535Y-25525292D01*
X47522972Y-25509417D01*
X47520631Y-25493637D01*
X47517519Y-25477992D01*
X47513643Y-25462518D01*
X47509013Y-25447253D01*
X47503639Y-25432234D01*
X47497534Y-25417497D01*
X47490714Y-25403076D01*
X47483194Y-25389008D01*
X47474993Y-25375326D01*
X47466131Y-25362062D01*
X47456628Y-25349250D01*
X47446509Y-25336919D01*
X47435796Y-25325099D01*
X47424517Y-25313820D01*
X47412697Y-25303107D01*
X47400366Y-25292987D01*
X47387554Y-25283485D01*
X47374290Y-25274623D01*
X47360608Y-25266422D01*
X47346540Y-25258902D01*
X47332119Y-25252082D01*
X47317382Y-25245977D01*
X47302362Y-25240603D01*
X47287098Y-25235973D01*
X47271624Y-25232097D01*
X47255978Y-25228985D01*
X47240199Y-25226644D01*
X47224324Y-25225081D01*
X47208392Y-25224298D01*
X46592440Y-25224298D01*
X46576507Y-25225081D01*
X46560632Y-25226644D01*
X46544853Y-25228985D01*
X46529208Y-25232097D01*
X46513734Y-25235973D01*
X46498469Y-25240603D01*
X46483450Y-25245977D01*
X46468712Y-25252082D01*
X46454292Y-25258902D01*
X46440224Y-25266422D01*
X46426542Y-25274623D01*
X46413278Y-25283485D01*
X46400466Y-25292987D01*
X46388135Y-25303107D01*
X46376315Y-25313820D01*
X46365036Y-25325099D01*
X46354323Y-25336919D01*
X46344203Y-25349250D01*
X46334701Y-25362062D01*
X46325838Y-25375326D01*
X46317638Y-25389008D01*
X46310118Y-25403076D01*
X46303298Y-25417497D01*
X46297193Y-25432234D01*
X46291819Y-25447253D01*
X46287189Y-25462518D01*
X46283313Y-25477992D01*
X46280201Y-25493637D01*
X46277860Y-25509417D01*
X46276296Y-25525292D01*
X46275514Y-25541224D01*
X46275514Y-25557176D01*
X45850574Y-25557176D01*
X45850574Y-25536316D01*
X45851838Y-25510579D01*
X45854364Y-25484934D01*
X45858145Y-25459445D01*
X45863172Y-25434172D01*
X45869433Y-25409176D01*
X45876914Y-25384517D01*
X45885595Y-25360255D01*
X45895456Y-25336448D01*
X45906473Y-25313154D01*
X45918620Y-25290428D01*
X45931868Y-25268326D01*
X45946184Y-25246901D01*
X45961534Y-25226203D01*
X45977881Y-25206284D01*
X45995186Y-25187191D01*
X46013407Y-25168970D01*
X46032500Y-25151665D01*
X46052419Y-25135318D01*
X46073117Y-25119968D01*
X46094542Y-25105652D01*
X46116644Y-25092404D01*
X46139370Y-25080257D01*
X46162664Y-25069240D01*
X46186471Y-25059379D01*
X46210733Y-25050698D01*
X46235392Y-25043218D01*
X46260388Y-25036956D01*
X46285661Y-25031929D01*
X46311150Y-25028148D01*
X46336794Y-25025623D01*
X46362532Y-25024358D01*
X47438300Y-25024358D01*
X47464037Y-25025623D01*
G37*
G36*
X42530399Y-21129219D02*
G01*
X41080399Y-21129219D01*
X41080399Y-20829219D01*
X42530399Y-20829219D01*
X42530399Y-21129219D01*
G37*
G36*
X42530406Y-23129219D02*
G01*
X41080406Y-23129219D01*
X41080406Y-22829219D01*
X42530406Y-22829219D01*
X42530406Y-23129219D01*
G37*
G36*
X42530412Y-24779219D02*
G01*
X41080412Y-24779219D01*
X41080412Y-24179219D01*
X42530412Y-24179219D01*
X42530412Y-24779219D01*
G37*
G36*
X42530397Y-20629219D02*
G01*
X41080397Y-20629219D01*
X41080397Y-20329219D01*
X42530397Y-20329219D01*
X42530397Y-20629219D01*
G37*
G36*
X42530388Y-18279219D02*
G01*
X41080388Y-18279219D01*
X41080388Y-17679219D01*
X42530388Y-17679219D01*
X42530388Y-18279219D01*
G37*
G36*
X42530403Y-22129219D02*
G01*
X41080403Y-22129219D01*
X41080403Y-21829219D01*
X42530403Y-21829219D01*
X42530403Y-22129219D01*
G37*
G36*
X42530401Y-21629219D02*
G01*
X41080401Y-21629219D01*
X41080401Y-21329219D01*
X42530401Y-21329219D01*
X42530401Y-21629219D01*
G37*
G36*
X42530405Y-22629219D02*
G01*
X41080405Y-22629219D01*
X41080405Y-22329219D01*
X42530405Y-22329219D01*
X42530405Y-22629219D01*
G37*
G36*
X47464006Y-16385623D02*
G01*
X47489650Y-16388148D01*
X47515139Y-16391929D01*
X47540412Y-16396956D01*
X47565408Y-16403218D01*
X47590067Y-16410698D01*
X47614329Y-16419379D01*
X47638136Y-16429240D01*
X47661430Y-16440257D01*
X47684156Y-16452404D01*
X47706258Y-16465652D01*
X47727683Y-16479968D01*
X47748381Y-16495318D01*
X47768300Y-16511665D01*
X47787393Y-16528970D01*
X47805614Y-16547191D01*
X47822919Y-16566284D01*
X47839266Y-16586203D01*
X47854616Y-16606901D01*
X47868932Y-16628326D01*
X47882180Y-16650428D01*
X47894327Y-16673154D01*
X47905344Y-16696448D01*
X47915205Y-16720255D01*
X47923886Y-16744517D01*
X47931367Y-16769176D01*
X47937628Y-16794172D01*
X47942655Y-16819445D01*
X47946436Y-16844934D01*
X47948962Y-16870579D01*
X47950226Y-16896316D01*
X47950226Y-16922084D01*
X47948962Y-16947821D01*
X47946436Y-16973466D01*
X47942655Y-16998955D01*
X47937628Y-17024228D01*
X47931367Y-17049224D01*
X47923886Y-17073883D01*
X47915205Y-17098145D01*
X47905344Y-17121952D01*
X47894327Y-17145246D01*
X47882180Y-17167972D01*
X47868932Y-17190074D01*
X47854616Y-17211499D01*
X47839266Y-17232197D01*
X47822919Y-17252116D01*
X47805614Y-17271209D01*
X47787393Y-17289430D01*
X47768300Y-17306735D01*
X47748381Y-17323082D01*
X47727683Y-17338432D01*
X47706258Y-17352748D01*
X47684156Y-17365996D01*
X47661430Y-17378143D01*
X47638136Y-17389160D01*
X47614329Y-17399021D01*
X47590067Y-17407702D01*
X47565408Y-17415182D01*
X47540412Y-17421444D01*
X47515139Y-17426471D01*
X47489650Y-17430252D01*
X47464006Y-17432777D01*
X47438268Y-17434042D01*
X47412500Y-17434042D01*
X46362500Y-17434042D01*
X46336763Y-17432777D01*
X46311119Y-17430252D01*
X46285629Y-17426471D01*
X46260356Y-17421444D01*
X46235360Y-17415182D01*
X46210701Y-17407702D01*
X46186439Y-17399021D01*
X46162632Y-17389160D01*
X46139338Y-17378143D01*
X46116613Y-17365996D01*
X46094510Y-17352748D01*
X46073085Y-17338432D01*
X46052388Y-17323082D01*
X46032468Y-17306735D01*
X46013375Y-17289430D01*
X45995154Y-17271209D01*
X45977849Y-17252116D01*
X45961502Y-17232197D01*
X45946152Y-17211499D01*
X45931836Y-17190074D01*
X45918588Y-17167972D01*
X45906441Y-17145246D01*
X45895424Y-17121952D01*
X45885563Y-17098145D01*
X45876882Y-17073883D01*
X45869402Y-17049224D01*
X45863141Y-17024228D01*
X45858113Y-16998955D01*
X45854332Y-16973466D01*
X45851807Y-16947821D01*
X45850542Y-16922084D01*
X45850542Y-16917176D01*
X46275482Y-16917176D01*
X46276265Y-16933108D01*
X46277828Y-16948983D01*
X46280169Y-16964763D01*
X46283281Y-16980408D01*
X46287157Y-16995882D01*
X46291787Y-17011147D01*
X46297161Y-17026166D01*
X46303266Y-17040903D01*
X46310086Y-17055324D01*
X46317606Y-17069392D01*
X46325807Y-17083074D01*
X46334669Y-17096338D01*
X46344172Y-17109150D01*
X46354291Y-17121481D01*
X46365004Y-17133301D01*
X46376283Y-17144580D01*
X46388103Y-17155293D01*
X46400434Y-17165413D01*
X46413246Y-17174915D01*
X46426510Y-17183777D01*
X46440192Y-17191978D01*
X46454260Y-17199498D01*
X46468681Y-17206318D01*
X46483418Y-17212423D01*
X46498438Y-17217797D01*
X46513702Y-17222427D01*
X46529176Y-17226303D01*
X46544822Y-17229415D01*
X46560601Y-17231756D01*
X46576476Y-17233319D01*
X46592408Y-17234102D01*
X47192408Y-17234102D01*
X47208360Y-17234102D01*
X47224293Y-17233319D01*
X47240168Y-17231756D01*
X47255947Y-17229415D01*
X47271592Y-17226303D01*
X47287066Y-17222427D01*
X47302331Y-17217797D01*
X47317350Y-17212423D01*
X47332088Y-17206318D01*
X47346508Y-17199498D01*
X47360576Y-17191978D01*
X47374258Y-17183777D01*
X47387522Y-17174915D01*
X47400334Y-17165413D01*
X47412665Y-17155293D01*
X47424485Y-17144580D01*
X47435764Y-17133301D01*
X47446477Y-17121481D01*
X47456597Y-17109150D01*
X47466099Y-17096338D01*
X47474962Y-17083074D01*
X47483162Y-17069392D01*
X47490682Y-17055324D01*
X47497502Y-17040903D01*
X47503607Y-17026166D01*
X47508981Y-17011147D01*
X47513611Y-16995882D01*
X47517487Y-16980408D01*
X47520599Y-16964763D01*
X47522940Y-16948983D01*
X47524504Y-16933108D01*
X47525286Y-16917176D01*
X47525286Y-16901224D01*
X47524504Y-16885292D01*
X47522940Y-16869417D01*
X47520599Y-16853637D01*
X47517487Y-16837992D01*
X47513611Y-16822518D01*
X47508981Y-16807253D01*
X47503607Y-16792234D01*
X47497502Y-16777497D01*
X47490682Y-16763076D01*
X47483162Y-16749008D01*
X47474962Y-16735326D01*
X47466099Y-16722062D01*
X47456597Y-16709250D01*
X47446477Y-16696919D01*
X47435764Y-16685099D01*
X47424485Y-16673820D01*
X47412665Y-16663107D01*
X47400334Y-16652987D01*
X47387522Y-16643485D01*
X47374258Y-16634623D01*
X47360576Y-16626422D01*
X47346508Y-16618902D01*
X47332088Y-16612082D01*
X47317350Y-16605977D01*
X47302331Y-16600603D01*
X47287066Y-16595973D01*
X47271592Y-16592097D01*
X47255947Y-16588985D01*
X47240168Y-16586644D01*
X47224293Y-16585081D01*
X47208360Y-16584298D01*
X46592408Y-16584298D01*
X46576476Y-16585081D01*
X46560601Y-16586644D01*
X46544822Y-16588985D01*
X46529176Y-16592097D01*
X46513702Y-16595973D01*
X46498438Y-16600603D01*
X46483418Y-16605977D01*
X46468681Y-16612082D01*
X46454260Y-16618902D01*
X46440192Y-16626422D01*
X46426510Y-16634623D01*
X46413246Y-16643485D01*
X46400434Y-16652987D01*
X46388103Y-16663107D01*
X46376283Y-16673820D01*
X46365004Y-16685099D01*
X46354291Y-16696919D01*
X46344172Y-16709250D01*
X46334669Y-16722062D01*
X46325807Y-16735326D01*
X46317606Y-16749008D01*
X46310086Y-16763076D01*
X46303266Y-16777497D01*
X46297161Y-16792234D01*
X46291787Y-16807253D01*
X46287157Y-16822518D01*
X46283281Y-16837992D01*
X46280169Y-16853637D01*
X46277828Y-16869417D01*
X46276265Y-16885292D01*
X46275482Y-16901224D01*
X46275482Y-16917176D01*
X45850542Y-16917176D01*
X45850542Y-16896316D01*
X45851807Y-16870579D01*
X45854332Y-16844934D01*
X45858113Y-16819445D01*
X45863141Y-16794172D01*
X45869402Y-16769176D01*
X45876882Y-16744517D01*
X45885563Y-16720255D01*
X45895424Y-16696448D01*
X45906441Y-16673154D01*
X45918588Y-16650428D01*
X45931836Y-16628326D01*
X45946152Y-16606901D01*
X45961502Y-16586203D01*
X45977849Y-16566284D01*
X45995154Y-16547191D01*
X46013375Y-16528970D01*
X46032468Y-16511665D01*
X46052388Y-16495318D01*
X46073085Y-16479968D01*
X46094510Y-16465652D01*
X46116613Y-16452404D01*
X46139338Y-16440257D01*
X46162632Y-16429240D01*
X46186439Y-16419379D01*
X46210701Y-16410698D01*
X46235360Y-16403218D01*
X46260356Y-16396956D01*
X46285629Y-16391929D01*
X46311119Y-16388148D01*
X46336763Y-16385623D01*
X46362500Y-16384358D01*
X47438268Y-16384358D01*
X47464006Y-16385623D01*
G37*
G36*
X18289302Y-48469199D02*
G01*
X17589302Y-48469199D01*
X17589302Y-47469199D01*
X18289302Y-47469199D01*
X18289302Y-48469199D01*
G37*
G36*
X16139298Y-43969201D02*
G01*
X15439298Y-43969201D01*
X15439298Y-42969201D01*
X16139298Y-42969201D01*
X16139298Y-43969201D01*
G37*
G36*
X18289298Y-43969199D02*
G01*
X17589298Y-43969199D01*
X17589298Y-42969199D01*
X18289298Y-42969199D01*
X18289298Y-43969199D01*
G37*
G36*
X16139302Y-48469201D02*
G01*
X15439302Y-48469201D01*
X15439302Y-47469201D01*
X16139302Y-47469201D01*
X16139302Y-48469201D01*
G37*
G36*
X26172754Y-40494352D02*
G01*
X26177390Y-40494809D01*
X26181987Y-40495568D01*
X26186525Y-40496626D01*
X26190983Y-40497979D01*
X26195344Y-40499620D01*
X26199588Y-40501543D01*
X26203697Y-40503739D01*
X26207654Y-40506199D01*
X26211441Y-40508913D01*
X26215042Y-40511869D01*
X26218443Y-40515054D01*
X26221628Y-40518455D01*
X26224584Y-40522056D01*
X26227298Y-40525843D01*
X26229758Y-40529800D01*
X26231954Y-40533909D01*
X26233877Y-40538153D01*
X26235518Y-40542514D01*
X26236871Y-40546972D01*
X26237929Y-40551510D01*
X26238688Y-40556107D01*
X26239145Y-40560743D01*
X26239297Y-40565400D01*
X26239297Y-41223000D01*
X26239145Y-41227657D01*
X26238688Y-41232293D01*
X26237929Y-41236890D01*
X26236871Y-41241428D01*
X26235518Y-41245886D01*
X26233877Y-41250247D01*
X26231954Y-41254491D01*
X26229758Y-41258600D01*
X26227298Y-41262557D01*
X26224584Y-41266344D01*
X26221628Y-41269945D01*
X26218443Y-41273346D01*
X26215042Y-41276531D01*
X26211441Y-41279487D01*
X26207654Y-41282201D01*
X26203697Y-41284661D01*
X26199588Y-41286857D01*
X26195344Y-41288780D01*
X26190983Y-41290421D01*
X26186525Y-41291774D01*
X26181987Y-41292832D01*
X26177390Y-41293591D01*
X26172754Y-41294048D01*
X26168097Y-41294200D01*
X25360497Y-41294200D01*
X25355840Y-41294048D01*
X25351204Y-41293591D01*
X25346607Y-41292832D01*
X25342069Y-41291774D01*
X25337610Y-41290421D01*
X25333250Y-41288780D01*
X25329006Y-41286857D01*
X25324897Y-41284661D01*
X25320940Y-41282201D01*
X25317153Y-41279487D01*
X25313552Y-41276531D01*
X25310151Y-41273346D01*
X25306966Y-41269945D01*
X25304010Y-41266344D01*
X25301296Y-41262557D01*
X25298836Y-41258600D01*
X25296640Y-41254491D01*
X25294717Y-41250247D01*
X25293076Y-41245886D01*
X25291723Y-41241428D01*
X25290665Y-41236890D01*
X25289906Y-41232293D01*
X25289449Y-41227657D01*
X25289297Y-41223000D01*
X25289297Y-40565400D01*
X25289449Y-40560743D01*
X25289906Y-40556107D01*
X25290665Y-40551510D01*
X25291723Y-40546972D01*
X25293076Y-40542514D01*
X25294717Y-40538153D01*
X25296640Y-40533909D01*
X25298836Y-40529800D01*
X25301296Y-40525843D01*
X25304010Y-40522056D01*
X25306966Y-40518455D01*
X25310151Y-40515054D01*
X25313552Y-40511869D01*
X25317153Y-40508913D01*
X25320940Y-40506199D01*
X25324897Y-40503739D01*
X25329006Y-40501543D01*
X25333250Y-40499620D01*
X25337610Y-40497979D01*
X25342069Y-40496626D01*
X25346607Y-40495568D01*
X25351204Y-40494809D01*
X25355840Y-40494352D01*
X25360497Y-40494200D01*
X26168097Y-40494200D01*
X26172754Y-40494352D01*
G37*
G36*
X26172760Y-42144352D02*
G01*
X26177396Y-42144809D01*
X26181993Y-42145568D01*
X26186531Y-42146626D01*
X26190990Y-42147979D01*
X26195350Y-42149620D01*
X26199594Y-42151543D01*
X26203703Y-42153739D01*
X26207660Y-42156199D01*
X26211447Y-42158913D01*
X26215048Y-42161869D01*
X26218449Y-42165054D01*
X26221634Y-42168455D01*
X26224590Y-42172056D01*
X26227304Y-42175843D01*
X26229764Y-42179800D01*
X26231960Y-42183909D01*
X26233883Y-42188153D01*
X26235524Y-42192514D01*
X26236877Y-42196972D01*
X26237935Y-42201510D01*
X26238694Y-42206107D01*
X26239151Y-42210743D01*
X26239303Y-42215400D01*
X26239303Y-42873000D01*
X26239151Y-42877657D01*
X26238694Y-42882293D01*
X26237935Y-42886890D01*
X26236877Y-42891428D01*
X26235524Y-42895886D01*
X26233883Y-42900247D01*
X26231960Y-42904491D01*
X26229764Y-42908600D01*
X26227304Y-42912557D01*
X26224590Y-42916344D01*
X26221634Y-42919945D01*
X26218449Y-42923346D01*
X26215048Y-42926531D01*
X26211447Y-42929487D01*
X26207660Y-42932201D01*
X26203703Y-42934661D01*
X26199594Y-42936857D01*
X26195350Y-42938780D01*
X26190990Y-42940421D01*
X26186531Y-42941774D01*
X26181993Y-42942832D01*
X26177396Y-42943591D01*
X26172760Y-42944048D01*
X26168103Y-42944200D01*
X25360503Y-42944200D01*
X25355846Y-42944048D01*
X25351210Y-42943591D01*
X25346613Y-42942832D01*
X25342075Y-42941774D01*
X25337617Y-42940421D01*
X25333256Y-42938780D01*
X25329012Y-42936857D01*
X25324903Y-42934661D01*
X25320946Y-42932201D01*
X25317159Y-42929487D01*
X25313558Y-42926531D01*
X25310157Y-42923346D01*
X25306972Y-42919945D01*
X25304016Y-42916344D01*
X25301302Y-42912557D01*
X25298842Y-42908600D01*
X25296646Y-42904491D01*
X25294723Y-42900247D01*
X25293082Y-42895886D01*
X25291729Y-42891428D01*
X25290671Y-42886890D01*
X25289912Y-42882293D01*
X25289455Y-42877657D01*
X25289303Y-42873000D01*
X25289303Y-42215400D01*
X25289455Y-42210743D01*
X25289912Y-42206107D01*
X25290671Y-42201510D01*
X25291729Y-42196972D01*
X25293082Y-42192514D01*
X25294723Y-42188153D01*
X25296646Y-42183909D01*
X25298842Y-42179800D01*
X25301302Y-42175843D01*
X25304016Y-42172056D01*
X25306972Y-42168455D01*
X25310157Y-42165054D01*
X25313558Y-42161869D01*
X25317159Y-42158913D01*
X25320946Y-42156199D01*
X25324903Y-42153739D01*
X25329012Y-42151543D01*
X25333256Y-42149620D01*
X25337617Y-42147979D01*
X25342075Y-42146626D01*
X25346613Y-42145568D01*
X25351210Y-42144809D01*
X25355846Y-42144352D01*
X25360503Y-42144200D01*
X26168103Y-42144200D01*
X26172760Y-42144352D01*
G37*
G36*
X39289302Y-48469199D02*
G01*
X38589302Y-48469199D01*
X38589302Y-47469199D01*
X39289302Y-47469199D01*
X39289302Y-48469199D01*
G37*
G36*
X37139298Y-43969201D02*
G01*
X36439298Y-43969201D01*
X36439298Y-42969201D01*
X37139298Y-42969201D01*
X37139298Y-43969201D01*
G37*
G36*
X39289298Y-43969199D02*
G01*
X38589298Y-43969199D01*
X38589298Y-42969199D01*
X39289298Y-42969199D01*
X39289298Y-43969199D01*
G37*
G36*
X37139302Y-48469201D02*
G01*
X36439302Y-48469201D01*
X36439302Y-47469201D01*
X37139302Y-47469201D01*
X37139302Y-48469201D01*
G37*
G36*
X16022757Y-13244352D02*
G01*
X16027393Y-13244809D01*
X16031990Y-13245568D01*
X16036528Y-13246626D01*
X16040986Y-13247979D01*
X16045347Y-13249620D01*
X16049591Y-13251543D01*
X16053700Y-13253739D01*
X16057657Y-13256199D01*
X16061444Y-13258913D01*
X16065045Y-13261869D01*
X16068446Y-13265054D01*
X16071631Y-13268455D01*
X16074587Y-13272056D01*
X16077301Y-13275843D01*
X16079761Y-13279800D01*
X16081957Y-13283909D01*
X16083880Y-13288153D01*
X16085521Y-13292514D01*
X16086874Y-13296972D01*
X16087932Y-13301510D01*
X16088691Y-13306107D01*
X16089148Y-13310743D01*
X16089300Y-13315400D01*
X16089300Y-14123000D01*
X16089148Y-14127657D01*
X16088691Y-14132293D01*
X16087932Y-14136890D01*
X16086874Y-14141428D01*
X16085521Y-14145886D01*
X16083880Y-14150247D01*
X16081957Y-14154491D01*
X16079761Y-14158600D01*
X16077301Y-14162557D01*
X16074587Y-14166344D01*
X16071631Y-14169945D01*
X16068446Y-14173346D01*
X16065045Y-14176531D01*
X16061444Y-14179487D01*
X16057657Y-14182201D01*
X16053700Y-14184661D01*
X16049591Y-14186857D01*
X16045347Y-14188780D01*
X16040986Y-14190421D01*
X16036528Y-14191774D01*
X16031990Y-14192832D01*
X16027393Y-14193591D01*
X16022757Y-14194048D01*
X16018100Y-14194200D01*
X15260500Y-14194200D01*
X15255843Y-14194048D01*
X15251207Y-14193591D01*
X15246610Y-14192832D01*
X15242072Y-14191774D01*
X15237614Y-14190421D01*
X15233253Y-14188780D01*
X15229009Y-14186857D01*
X15224900Y-14184661D01*
X15220943Y-14182201D01*
X15217156Y-14179487D01*
X15213555Y-14176531D01*
X15210154Y-14173346D01*
X15206969Y-14169945D01*
X15204013Y-14166344D01*
X15201299Y-14162557D01*
X15198839Y-14158600D01*
X15196643Y-14154491D01*
X15194720Y-14150247D01*
X15193079Y-14145886D01*
X15191726Y-14141428D01*
X15190668Y-14136890D01*
X15189909Y-14132293D01*
X15189452Y-14127657D01*
X15189300Y-14123000D01*
X15189300Y-13315400D01*
X15189452Y-13310743D01*
X15189909Y-13306107D01*
X15190668Y-13301510D01*
X15191726Y-13296972D01*
X15193079Y-13292514D01*
X15194720Y-13288153D01*
X15196643Y-13283909D01*
X15198839Y-13279800D01*
X15201299Y-13275843D01*
X15204013Y-13272056D01*
X15206969Y-13268455D01*
X15210154Y-13265054D01*
X15213555Y-13261869D01*
X15217156Y-13258913D01*
X15220943Y-13256199D01*
X15224900Y-13253739D01*
X15229009Y-13251543D01*
X15233253Y-13249620D01*
X15237614Y-13247979D01*
X15242072Y-13246626D01*
X15246610Y-13245568D01*
X15251207Y-13244809D01*
X15255843Y-13244352D01*
X15260500Y-13244200D01*
X16018100Y-13244200D01*
X16022757Y-13244352D01*
G37*
G36*
X17572757Y-13244352D02*
G01*
X17577393Y-13244809D01*
X17581990Y-13245568D01*
X17586528Y-13246626D01*
X17590986Y-13247979D01*
X17595347Y-13249620D01*
X17599591Y-13251543D01*
X17603700Y-13253739D01*
X17607657Y-13256199D01*
X17611444Y-13258913D01*
X17615045Y-13261869D01*
X17618446Y-13265054D01*
X17621631Y-13268455D01*
X17624587Y-13272056D01*
X17627301Y-13275843D01*
X17629761Y-13279800D01*
X17631957Y-13283909D01*
X17633880Y-13288153D01*
X17635521Y-13292514D01*
X17636874Y-13296972D01*
X17637932Y-13301510D01*
X17638691Y-13306107D01*
X17639148Y-13310743D01*
X17639300Y-13315400D01*
X17639300Y-14123000D01*
X17639148Y-14127657D01*
X17638691Y-14132293D01*
X17637932Y-14136890D01*
X17636874Y-14141428D01*
X17635521Y-14145886D01*
X17633880Y-14150247D01*
X17631957Y-14154491D01*
X17629761Y-14158600D01*
X17627301Y-14162557D01*
X17624587Y-14166344D01*
X17621631Y-14169945D01*
X17618446Y-14173346D01*
X17615045Y-14176531D01*
X17611444Y-14179487D01*
X17607657Y-14182201D01*
X17603700Y-14184661D01*
X17599591Y-14186857D01*
X17595347Y-14188780D01*
X17590986Y-14190421D01*
X17586528Y-14191774D01*
X17581990Y-14192832D01*
X17577393Y-14193591D01*
X17572757Y-14194048D01*
X17568100Y-14194200D01*
X16810500Y-14194200D01*
X16805843Y-14194048D01*
X16801207Y-14193591D01*
X16796610Y-14192832D01*
X16792072Y-14191774D01*
X16787614Y-14190421D01*
X16783253Y-14188780D01*
X16779009Y-14186857D01*
X16774900Y-14184661D01*
X16770943Y-14182201D01*
X16767156Y-14179487D01*
X16763555Y-14176531D01*
X16760154Y-14173346D01*
X16756969Y-14169945D01*
X16754013Y-14166344D01*
X16751299Y-14162557D01*
X16748839Y-14158600D01*
X16746643Y-14154491D01*
X16744720Y-14150247D01*
X16743079Y-14145886D01*
X16741726Y-14141428D01*
X16740668Y-14136890D01*
X16739909Y-14132293D01*
X16739452Y-14127657D01*
X16739300Y-14123000D01*
X16739300Y-13315400D01*
X16739452Y-13310743D01*
X16739909Y-13306107D01*
X16740668Y-13301510D01*
X16741726Y-13296972D01*
X16743079Y-13292514D01*
X16744720Y-13288153D01*
X16746643Y-13283909D01*
X16748839Y-13279800D01*
X16751299Y-13275843D01*
X16754013Y-13272056D01*
X16756969Y-13268455D01*
X16760154Y-13265054D01*
X16763555Y-13261869D01*
X16767156Y-13258913D01*
X16770943Y-13256199D01*
X16774900Y-13253739D01*
X16779009Y-13251543D01*
X16783253Y-13249620D01*
X16787614Y-13247979D01*
X16792072Y-13246626D01*
X16796610Y-13245568D01*
X16801207Y-13244809D01*
X16805843Y-13244352D01*
X16810500Y-13244200D01*
X17568100Y-13244200D01*
X17572757Y-13244352D01*
G37*
G36*
X16022757Y-16244352D02*
G01*
X16027393Y-16244809D01*
X16031990Y-16245568D01*
X16036528Y-16246626D01*
X16040986Y-16247979D01*
X16045347Y-16249620D01*
X16049591Y-16251543D01*
X16053700Y-16253739D01*
X16057657Y-16256199D01*
X16061444Y-16258913D01*
X16065045Y-16261869D01*
X16068446Y-16265054D01*
X16071631Y-16268455D01*
X16074587Y-16272056D01*
X16077301Y-16275843D01*
X16079761Y-16279800D01*
X16081957Y-16283909D01*
X16083880Y-16288153D01*
X16085521Y-16292514D01*
X16086874Y-16296972D01*
X16087932Y-16301510D01*
X16088691Y-16306107D01*
X16089148Y-16310743D01*
X16089300Y-16315400D01*
X16089300Y-17123000D01*
X16089148Y-17127657D01*
X16088691Y-17132293D01*
X16087932Y-17136890D01*
X16086874Y-17141428D01*
X16085521Y-17145886D01*
X16083880Y-17150247D01*
X16081957Y-17154491D01*
X16079761Y-17158600D01*
X16077301Y-17162557D01*
X16074587Y-17166344D01*
X16071631Y-17169945D01*
X16068446Y-17173346D01*
X16065045Y-17176531D01*
X16061444Y-17179487D01*
X16057657Y-17182201D01*
X16053700Y-17184661D01*
X16049591Y-17186857D01*
X16045347Y-17188780D01*
X16040986Y-17190421D01*
X16036528Y-17191774D01*
X16031990Y-17192832D01*
X16027393Y-17193591D01*
X16022757Y-17194048D01*
X16018100Y-17194200D01*
X15260500Y-17194200D01*
X15255843Y-17194048D01*
X15251207Y-17193591D01*
X15246610Y-17192832D01*
X15242072Y-17191774D01*
X15237614Y-17190421D01*
X15233253Y-17188780D01*
X15229009Y-17186857D01*
X15224900Y-17184661D01*
X15220943Y-17182201D01*
X15217156Y-17179487D01*
X15213555Y-17176531D01*
X15210154Y-17173346D01*
X15206969Y-17169945D01*
X15204013Y-17166344D01*
X15201299Y-17162557D01*
X15198839Y-17158600D01*
X15196643Y-17154491D01*
X15194720Y-17150247D01*
X15193079Y-17145886D01*
X15191726Y-17141428D01*
X15190668Y-17136890D01*
X15189909Y-17132293D01*
X15189452Y-17127657D01*
X15189300Y-17123000D01*
X15189300Y-16315400D01*
X15189452Y-16310743D01*
X15189909Y-16306107D01*
X15190668Y-16301510D01*
X15191726Y-16296972D01*
X15193079Y-16292514D01*
X15194720Y-16288153D01*
X15196643Y-16283909D01*
X15198839Y-16279800D01*
X15201299Y-16275843D01*
X15204013Y-16272056D01*
X15206969Y-16268455D01*
X15210154Y-16265054D01*
X15213555Y-16261869D01*
X15217156Y-16258913D01*
X15220943Y-16256199D01*
X15224900Y-16253739D01*
X15229009Y-16251543D01*
X15233253Y-16249620D01*
X15237614Y-16247979D01*
X15242072Y-16246626D01*
X15246610Y-16245568D01*
X15251207Y-16244809D01*
X15255843Y-16244352D01*
X15260500Y-16244200D01*
X16018100Y-16244200D01*
X16022757Y-16244352D01*
G37*
G36*
X17572757Y-16244352D02*
G01*
X17577393Y-16244809D01*
X17581990Y-16245568D01*
X17586528Y-16246626D01*
X17590986Y-16247979D01*
X17595347Y-16249620D01*
X17599591Y-16251543D01*
X17603700Y-16253739D01*
X17607657Y-16256199D01*
X17611444Y-16258913D01*
X17615045Y-16261869D01*
X17618446Y-16265054D01*
X17621631Y-16268455D01*
X17624587Y-16272056D01*
X17627301Y-16275843D01*
X17629761Y-16279800D01*
X17631957Y-16283909D01*
X17633880Y-16288153D01*
X17635521Y-16292514D01*
X17636874Y-16296972D01*
X17637932Y-16301510D01*
X17638691Y-16306107D01*
X17639148Y-16310743D01*
X17639300Y-16315400D01*
X17639300Y-17123000D01*
X17639148Y-17127657D01*
X17638691Y-17132293D01*
X17637932Y-17136890D01*
X17636874Y-17141428D01*
X17635521Y-17145886D01*
X17633880Y-17150247D01*
X17631957Y-17154491D01*
X17629761Y-17158600D01*
X17627301Y-17162557D01*
X17624587Y-17166344D01*
X17621631Y-17169945D01*
X17618446Y-17173346D01*
X17615045Y-17176531D01*
X17611444Y-17179487D01*
X17607657Y-17182201D01*
X17603700Y-17184661D01*
X17599591Y-17186857D01*
X17595347Y-17188780D01*
X17590986Y-17190421D01*
X17586528Y-17191774D01*
X17581990Y-17192832D01*
X17577393Y-17193591D01*
X17572757Y-17194048D01*
X17568100Y-17194200D01*
X16810500Y-17194200D01*
X16805843Y-17194048D01*
X16801207Y-17193591D01*
X16796610Y-17192832D01*
X16792072Y-17191774D01*
X16787614Y-17190421D01*
X16783253Y-17188780D01*
X16779009Y-17186857D01*
X16774900Y-17184661D01*
X16770943Y-17182201D01*
X16767156Y-17179487D01*
X16763555Y-17176531D01*
X16760154Y-17173346D01*
X16756969Y-17169945D01*
X16754013Y-17166344D01*
X16751299Y-17162557D01*
X16748839Y-17158600D01*
X16746643Y-17154491D01*
X16744720Y-17150247D01*
X16743079Y-17145886D01*
X16741726Y-17141428D01*
X16740668Y-17136890D01*
X16739909Y-17132293D01*
X16739452Y-17127657D01*
X16739300Y-17123000D01*
X16739300Y-16315400D01*
X16739452Y-16310743D01*
X16739909Y-16306107D01*
X16740668Y-16301510D01*
X16741726Y-16296972D01*
X16743079Y-16292514D01*
X16744720Y-16288153D01*
X16746643Y-16283909D01*
X16748839Y-16279800D01*
X16751299Y-16275843D01*
X16754013Y-16272056D01*
X16756969Y-16268455D01*
X16760154Y-16265054D01*
X16763555Y-16261869D01*
X16767156Y-16258913D01*
X16770943Y-16256199D01*
X16774900Y-16253739D01*
X16779009Y-16251543D01*
X16783253Y-16249620D01*
X16787614Y-16247979D01*
X16792072Y-16246626D01*
X16796610Y-16245568D01*
X16801207Y-16244809D01*
X16805843Y-16244352D01*
X16810500Y-16244200D01*
X17568100Y-16244200D01*
X17572757Y-16244352D01*
G37*
G36*
X29632565Y-29999611D02*
G01*
X29635664Y-30000122D01*
X29641729Y-30001747D01*
X29647530Y-30004150D01*
X29650300Y-30005631D01*
X29655521Y-30009119D01*
X29657949Y-30011112D01*
X29660241Y-30013259D01*
X29662388Y-30015551D01*
X29664381Y-30017979D01*
X29667869Y-30023200D01*
X29669350Y-30025970D01*
X29671753Y-30031771D01*
X29673378Y-30037836D01*
X29673889Y-30040935D01*
X29674300Y-30047200D01*
X29674300Y-30591200D01*
X29673889Y-30597465D01*
X29673378Y-30600564D01*
X29671753Y-30606629D01*
X29669350Y-30612430D01*
X29667869Y-30615200D01*
X29664381Y-30620421D01*
X29662388Y-30622849D01*
X29660241Y-30625141D01*
X29657949Y-30627288D01*
X29655521Y-30629281D01*
X29650300Y-30632769D01*
X29647530Y-30634250D01*
X29641729Y-30636653D01*
X29635664Y-30638278D01*
X29632565Y-30638789D01*
X29626300Y-30639200D01*
X29132300Y-30639200D01*
X29126035Y-30638789D01*
X29122936Y-30638278D01*
X29116871Y-30636653D01*
X29111070Y-30634250D01*
X29108300Y-30632769D01*
X29103079Y-30629281D01*
X29100651Y-30627288D01*
X29098359Y-30625141D01*
X29096212Y-30622849D01*
X29094219Y-30620421D01*
X29090731Y-30615200D01*
X29089250Y-30612430D01*
X29086847Y-30606629D01*
X29085222Y-30600564D01*
X29084711Y-30597465D01*
X29084300Y-30591200D01*
X29084300Y-30047200D01*
X29084711Y-30040935D01*
X29085222Y-30037836D01*
X29086847Y-30031771D01*
X29089250Y-30025970D01*
X29090731Y-30023200D01*
X29094219Y-30017979D01*
X29096212Y-30015551D01*
X29098359Y-30013259D01*
X29100651Y-30011112D01*
X29103079Y-30009119D01*
X29108300Y-30005631D01*
X29111070Y-30004150D01*
X29116871Y-30001747D01*
X29122936Y-30000122D01*
X29126035Y-29999611D01*
X29132300Y-29999200D01*
X29626300Y-29999200D01*
X29632565Y-29999611D01*
G37*
G36*
X30602565Y-29999611D02*
G01*
X30605664Y-30000122D01*
X30611729Y-30001747D01*
X30617530Y-30004150D01*
X30620300Y-30005631D01*
X30625521Y-30009119D01*
X30627949Y-30011112D01*
X30630241Y-30013259D01*
X30632388Y-30015551D01*
X30634381Y-30017979D01*
X30637869Y-30023200D01*
X30639350Y-30025970D01*
X30641753Y-30031771D01*
X30643378Y-30037836D01*
X30643889Y-30040935D01*
X30644300Y-30047200D01*
X30644300Y-30591200D01*
X30643889Y-30597465D01*
X30643378Y-30600564D01*
X30641753Y-30606629D01*
X30639350Y-30612430D01*
X30637869Y-30615200D01*
X30634381Y-30620421D01*
X30632388Y-30622849D01*
X30630241Y-30625141D01*
X30627949Y-30627288D01*
X30625521Y-30629281D01*
X30620300Y-30632769D01*
X30617530Y-30634250D01*
X30611729Y-30636653D01*
X30605664Y-30638278D01*
X30602565Y-30638789D01*
X30596300Y-30639200D01*
X30102300Y-30639200D01*
X30096035Y-30638789D01*
X30092936Y-30638278D01*
X30086871Y-30636653D01*
X30081070Y-30634250D01*
X30078300Y-30632769D01*
X30073079Y-30629281D01*
X30070651Y-30627288D01*
X30068359Y-30625141D01*
X30066212Y-30622849D01*
X30064219Y-30620421D01*
X30060731Y-30615200D01*
X30059250Y-30612430D01*
X30056847Y-30606629D01*
X30055222Y-30600564D01*
X30054711Y-30597465D01*
X30054300Y-30591200D01*
X30054300Y-30047200D01*
X30054711Y-30040935D01*
X30055222Y-30037836D01*
X30056847Y-30031771D01*
X30059250Y-30025970D01*
X30060731Y-30023200D01*
X30064219Y-30017979D01*
X30066212Y-30015551D01*
X30068359Y-30013259D01*
X30070651Y-30011112D01*
X30073079Y-30009119D01*
X30078300Y-30005631D01*
X30081070Y-30004150D01*
X30086871Y-30001747D01*
X30092936Y-30000122D01*
X30096035Y-29999611D01*
X30102300Y-29999200D01*
X30596300Y-29999200D01*
X30602565Y-29999611D01*
G37*
G36*
X28479013Y-21479742D02*
G01*
X28488782Y-21480704D01*
X28498492Y-21482144D01*
X28508120Y-21484060D01*
X28517643Y-21486445D01*
X28527036Y-21489294D01*
X28536279Y-21492601D01*
X28545348Y-21496358D01*
X28554222Y-21500555D01*
X28562880Y-21505183D01*
X28571300Y-21510229D01*
X28579462Y-21515683D01*
X28587346Y-21521531D01*
X28594935Y-21527758D01*
X28602208Y-21534351D01*
X28609149Y-21541292D01*
X28615742Y-21548565D01*
X28621969Y-21556154D01*
X28627817Y-21564038D01*
X28633271Y-21572200D01*
X28638317Y-21580620D01*
X28642945Y-21589278D01*
X28647142Y-21598152D01*
X28650899Y-21607221D01*
X28654206Y-21616464D01*
X28657055Y-21625857D01*
X28659440Y-21635380D01*
X28661356Y-21645008D01*
X28662796Y-21654718D01*
X28663758Y-21664487D01*
X28664240Y-21674292D01*
X28664240Y-21684108D01*
X28663758Y-21693913D01*
X28662796Y-21703682D01*
X28661356Y-21713392D01*
X28659440Y-21723020D01*
X28657055Y-21732543D01*
X28654206Y-21741936D01*
X28650899Y-21751179D01*
X28647142Y-21760248D01*
X28642945Y-21769122D01*
X28638317Y-21777780D01*
X28633271Y-21786200D01*
X28627817Y-21794362D01*
X28621969Y-21802246D01*
X28615742Y-21809835D01*
X28609149Y-21817108D01*
X28602208Y-21824049D01*
X28594935Y-21830642D01*
X28587346Y-21836869D01*
X28579462Y-21842717D01*
X28571300Y-21848171D01*
X28562880Y-21853217D01*
X28554222Y-21857845D01*
X28545348Y-21862042D01*
X28536279Y-21865799D01*
X28527036Y-21869106D01*
X28517643Y-21871955D01*
X28508120Y-21874340D01*
X28498492Y-21876256D01*
X28488782Y-21877696D01*
X28479013Y-21878658D01*
X28469208Y-21879140D01*
X28459392Y-21879140D01*
X28449587Y-21878658D01*
X28439818Y-21877696D01*
X28430108Y-21876256D01*
X28420480Y-21874340D01*
X28410957Y-21871955D01*
X28401564Y-21869106D01*
X28392321Y-21865799D01*
X28383252Y-21862042D01*
X28374378Y-21857845D01*
X28365720Y-21853217D01*
X28357300Y-21848171D01*
X28349138Y-21842717D01*
X28341254Y-21836869D01*
X28333665Y-21830642D01*
X28326392Y-21824049D01*
X28319451Y-21817108D01*
X28312858Y-21809835D01*
X28306631Y-21802246D01*
X28300783Y-21794362D01*
X28295329Y-21786200D01*
X28290283Y-21777780D01*
X28285655Y-21769122D01*
X28281458Y-21760248D01*
X28277701Y-21751179D01*
X28274394Y-21741936D01*
X28271545Y-21732543D01*
X28269160Y-21723020D01*
X28267244Y-21713392D01*
X28265804Y-21703682D01*
X28264842Y-21693913D01*
X28264360Y-21684108D01*
X28264360Y-21681654D01*
X28364330Y-21681654D01*
X28364571Y-21686556D01*
X28365052Y-21691441D01*
X28365772Y-21696296D01*
X28366730Y-21701110D01*
X28367922Y-21705871D01*
X28369347Y-21710568D01*
X28371001Y-21715190D01*
X28372879Y-21719724D01*
X28374978Y-21724161D01*
X28377291Y-21728490D01*
X28379815Y-21732700D01*
X28382542Y-21736781D01*
X28385465Y-21740723D01*
X28388579Y-21744517D01*
X28391875Y-21748154D01*
X28395346Y-21751625D01*
X28398983Y-21754921D01*
X28402777Y-21758035D01*
X28406719Y-21760958D01*
X28410800Y-21763685D01*
X28415010Y-21766209D01*
X28419339Y-21768522D01*
X28423776Y-21770621D01*
X28428310Y-21772499D01*
X28432932Y-21774153D01*
X28437629Y-21775578D01*
X28442390Y-21776770D01*
X28447204Y-21777728D01*
X28452059Y-21778448D01*
X28456944Y-21778929D01*
X28461846Y-21779170D01*
X28466754Y-21779170D01*
X28471656Y-21778929D01*
X28476541Y-21778448D01*
X28481396Y-21777728D01*
X28486210Y-21776770D01*
X28490971Y-21775578D01*
X28495668Y-21774153D01*
X28500290Y-21772499D01*
X28504824Y-21770621D01*
X28509261Y-21768522D01*
X28513590Y-21766209D01*
X28517800Y-21763685D01*
X28521881Y-21760958D01*
X28525823Y-21758035D01*
X28529617Y-21754921D01*
X28533254Y-21751625D01*
X28536725Y-21748154D01*
X28540021Y-21744517D01*
X28543135Y-21740723D01*
X28546058Y-21736781D01*
X28548785Y-21732700D01*
X28551309Y-21728490D01*
X28553622Y-21724161D01*
X28555721Y-21719724D01*
X28557599Y-21715190D01*
X28559253Y-21710568D01*
X28560678Y-21705871D01*
X28561870Y-21701110D01*
X28562828Y-21696296D01*
X28563548Y-21691441D01*
X28564029Y-21686556D01*
X28564270Y-21681654D01*
X28564270Y-21676746D01*
X28564029Y-21671844D01*
X28563548Y-21666959D01*
X28562828Y-21662104D01*
X28561870Y-21657290D01*
X28560678Y-21652529D01*
X28559253Y-21647832D01*
X28557599Y-21643210D01*
X28555721Y-21638676D01*
X28553622Y-21634239D01*
X28551309Y-21629910D01*
X28548785Y-21625700D01*
X28546058Y-21621619D01*
X28543135Y-21617677D01*
X28540021Y-21613883D01*
X28536725Y-21610246D01*
X28533254Y-21606775D01*
X28529617Y-21603479D01*
X28525823Y-21600365D01*
X28521881Y-21597442D01*
X28517800Y-21594715D01*
X28513590Y-21592191D01*
X28509261Y-21589878D01*
X28504824Y-21587779D01*
X28500290Y-21585901D01*
X28495668Y-21584247D01*
X28490971Y-21582822D01*
X28486210Y-21581630D01*
X28481396Y-21580672D01*
X28476541Y-21579952D01*
X28471656Y-21579471D01*
X28466754Y-21579230D01*
X28461846Y-21579230D01*
X28456944Y-21579471D01*
X28452059Y-21579952D01*
X28447204Y-21580672D01*
X28442390Y-21581630D01*
X28437629Y-21582822D01*
X28432932Y-21584247D01*
X28428310Y-21585901D01*
X28423776Y-21587779D01*
X28419339Y-21589878D01*
X28415010Y-21592191D01*
X28410800Y-21594715D01*
X28406719Y-21597442D01*
X28402777Y-21600365D01*
X28398983Y-21603479D01*
X28395346Y-21606775D01*
X28391875Y-21610246D01*
X28388579Y-21613883D01*
X28385465Y-21617677D01*
X28382542Y-21621619D01*
X28379815Y-21625700D01*
X28377291Y-21629910D01*
X28374978Y-21634239D01*
X28372879Y-21638676D01*
X28371001Y-21643210D01*
X28369347Y-21647832D01*
X28367922Y-21652529D01*
X28366730Y-21657290D01*
X28365772Y-21662104D01*
X28365052Y-21666959D01*
X28364571Y-21671844D01*
X28364330Y-21676746D01*
X28364330Y-21681654D01*
X28264360Y-21681654D01*
X28264360Y-21674292D01*
X28264842Y-21664487D01*
X28265804Y-21654718D01*
X28267244Y-21645008D01*
X28269160Y-21635380D01*
X28271545Y-21625857D01*
X28274394Y-21616464D01*
X28277701Y-21607221D01*
X28281458Y-21598152D01*
X28285655Y-21589278D01*
X28290283Y-21580620D01*
X28295329Y-21572200D01*
X28300783Y-21564038D01*
X28306631Y-21556154D01*
X28312858Y-21548565D01*
X28319451Y-21541292D01*
X28326392Y-21534351D01*
X28333665Y-21527758D01*
X28341254Y-21521531D01*
X28349138Y-21515683D01*
X28357300Y-21510229D01*
X28365720Y-21505183D01*
X28374378Y-21500555D01*
X28383252Y-21496358D01*
X28392321Y-21492601D01*
X28401564Y-21489294D01*
X28410957Y-21486445D01*
X28420480Y-21484060D01*
X28430108Y-21482144D01*
X28439818Y-21480704D01*
X28449587Y-21479742D01*
X28459392Y-21479260D01*
X28469208Y-21479260D01*
X28479013Y-21479742D01*
G37*
G36*
X29879013Y-21479742D02*
G01*
X29888782Y-21480704D01*
X29898492Y-21482144D01*
X29908120Y-21484060D01*
X29917643Y-21486445D01*
X29927036Y-21489294D01*
X29936279Y-21492601D01*
X29945348Y-21496358D01*
X29954222Y-21500555D01*
X29962880Y-21505183D01*
X29971300Y-21510229D01*
X29979462Y-21515683D01*
X29987346Y-21521531D01*
X29994935Y-21527758D01*
X30002208Y-21534351D01*
X30009149Y-21541292D01*
X30015742Y-21548565D01*
X30021969Y-21556154D01*
X30027817Y-21564038D01*
X30033271Y-21572200D01*
X30038317Y-21580620D01*
X30042945Y-21589278D01*
X30047142Y-21598152D01*
X30050899Y-21607221D01*
X30054206Y-21616464D01*
X30057055Y-21625857D01*
X30059440Y-21635380D01*
X30061356Y-21645008D01*
X30062796Y-21654718D01*
X30063758Y-21664487D01*
X30064240Y-21674292D01*
X30064240Y-21684108D01*
X30063758Y-21693913D01*
X30062796Y-21703682D01*
X30061356Y-21713392D01*
X30059440Y-21723020D01*
X30057055Y-21732543D01*
X30054206Y-21741936D01*
X30050899Y-21751179D01*
X30047142Y-21760248D01*
X30042945Y-21769122D01*
X30038317Y-21777780D01*
X30033271Y-21786200D01*
X30027817Y-21794362D01*
X30021969Y-21802246D01*
X30015742Y-21809835D01*
X30009149Y-21817108D01*
X30002208Y-21824049D01*
X29994935Y-21830642D01*
X29987346Y-21836869D01*
X29979462Y-21842717D01*
X29971300Y-21848171D01*
X29962880Y-21853217D01*
X29954222Y-21857845D01*
X29945348Y-21862042D01*
X29936279Y-21865799D01*
X29927036Y-21869106D01*
X29917643Y-21871955D01*
X29908120Y-21874340D01*
X29898492Y-21876256D01*
X29888782Y-21877696D01*
X29879013Y-21878658D01*
X29869208Y-21879140D01*
X29859392Y-21879140D01*
X29849587Y-21878658D01*
X29839818Y-21877696D01*
X29830108Y-21876256D01*
X29820480Y-21874340D01*
X29810957Y-21871955D01*
X29801564Y-21869106D01*
X29792321Y-21865799D01*
X29783252Y-21862042D01*
X29774378Y-21857845D01*
X29765720Y-21853217D01*
X29757300Y-21848171D01*
X29749138Y-21842717D01*
X29741254Y-21836869D01*
X29733665Y-21830642D01*
X29726392Y-21824049D01*
X29719451Y-21817108D01*
X29712858Y-21809835D01*
X29706631Y-21802246D01*
X29700783Y-21794362D01*
X29695329Y-21786200D01*
X29690283Y-21777780D01*
X29685655Y-21769122D01*
X29681458Y-21760248D01*
X29677701Y-21751179D01*
X29674394Y-21741936D01*
X29671545Y-21732543D01*
X29669160Y-21723020D01*
X29667244Y-21713392D01*
X29665804Y-21703682D01*
X29664842Y-21693913D01*
X29664360Y-21684108D01*
X29664360Y-21681654D01*
X29764330Y-21681654D01*
X29764571Y-21686556D01*
X29765052Y-21691441D01*
X29765772Y-21696296D01*
X29766730Y-21701110D01*
X29767922Y-21705871D01*
X29769347Y-21710568D01*
X29771001Y-21715190D01*
X29772879Y-21719724D01*
X29774978Y-21724161D01*
X29777291Y-21728490D01*
X29779815Y-21732700D01*
X29782542Y-21736781D01*
X29785465Y-21740723D01*
X29788579Y-21744517D01*
X29791875Y-21748154D01*
X29795346Y-21751625D01*
X29798983Y-21754921D01*
X29802777Y-21758035D01*
X29806719Y-21760958D01*
X29810800Y-21763685D01*
X29815010Y-21766209D01*
X29819339Y-21768522D01*
X29823776Y-21770621D01*
X29828310Y-21772499D01*
X29832932Y-21774153D01*
X29837629Y-21775578D01*
X29842390Y-21776770D01*
X29847204Y-21777728D01*
X29852059Y-21778448D01*
X29856944Y-21778929D01*
X29861846Y-21779170D01*
X29866754Y-21779170D01*
X29871656Y-21778929D01*
X29876541Y-21778448D01*
X29881396Y-21777728D01*
X29886210Y-21776770D01*
X29890971Y-21775578D01*
X29895668Y-21774153D01*
X29900290Y-21772499D01*
X29904824Y-21770621D01*
X29909261Y-21768522D01*
X29913590Y-21766209D01*
X29917800Y-21763685D01*
X29921881Y-21760958D01*
X29925823Y-21758035D01*
X29929617Y-21754921D01*
X29933254Y-21751625D01*
X29936725Y-21748154D01*
X29940021Y-21744517D01*
X29943135Y-21740723D01*
X29946058Y-21736781D01*
X29948785Y-21732700D01*
X29951309Y-21728490D01*
X29953622Y-21724161D01*
X29955721Y-21719724D01*
X29957599Y-21715190D01*
X29959253Y-21710568D01*
X29960678Y-21705871D01*
X29961870Y-21701110D01*
X29962828Y-21696296D01*
X29963548Y-21691441D01*
X29964029Y-21686556D01*
X29964270Y-21681654D01*
X29964270Y-21676746D01*
X29964029Y-21671844D01*
X29963548Y-21666959D01*
X29962828Y-21662104D01*
X29961870Y-21657290D01*
X29960678Y-21652529D01*
X29959253Y-21647832D01*
X29957599Y-21643210D01*
X29955721Y-21638676D01*
X29953622Y-21634239D01*
X29951309Y-21629910D01*
X29948785Y-21625700D01*
X29946058Y-21621619D01*
X29943135Y-21617677D01*
X29940021Y-21613883D01*
X29936725Y-21610246D01*
X29933254Y-21606775D01*
X29929617Y-21603479D01*
X29925823Y-21600365D01*
X29921881Y-21597442D01*
X29917800Y-21594715D01*
X29913590Y-21592191D01*
X29909261Y-21589878D01*
X29904824Y-21587779D01*
X29900290Y-21585901D01*
X29895668Y-21584247D01*
X29890971Y-21582822D01*
X29886210Y-21581630D01*
X29881396Y-21580672D01*
X29876541Y-21579952D01*
X29871656Y-21579471D01*
X29866754Y-21579230D01*
X29861846Y-21579230D01*
X29856944Y-21579471D01*
X29852059Y-21579952D01*
X29847204Y-21580672D01*
X29842390Y-21581630D01*
X29837629Y-21582822D01*
X29832932Y-21584247D01*
X29828310Y-21585901D01*
X29823776Y-21587779D01*
X29819339Y-21589878D01*
X29815010Y-21592191D01*
X29810800Y-21594715D01*
X29806719Y-21597442D01*
X29802777Y-21600365D01*
X29798983Y-21603479D01*
X29795346Y-21606775D01*
X29791875Y-21610246D01*
X29788579Y-21613883D01*
X29785465Y-21617677D01*
X29782542Y-21621619D01*
X29779815Y-21625700D01*
X29777291Y-21629910D01*
X29774978Y-21634239D01*
X29772879Y-21638676D01*
X29771001Y-21643210D01*
X29769347Y-21647832D01*
X29767922Y-21652529D01*
X29766730Y-21657290D01*
X29765772Y-21662104D01*
X29765052Y-21666959D01*
X29764571Y-21671844D01*
X29764330Y-21676746D01*
X29764330Y-21681654D01*
X29664360Y-21681654D01*
X29664360Y-21674292D01*
X29664842Y-21664487D01*
X29665804Y-21654718D01*
X29667244Y-21645008D01*
X29669160Y-21635380D01*
X29671545Y-21625857D01*
X29674394Y-21616464D01*
X29677701Y-21607221D01*
X29681458Y-21598152D01*
X29685655Y-21589278D01*
X29690283Y-21580620D01*
X29695329Y-21572200D01*
X29700783Y-21564038D01*
X29706631Y-21556154D01*
X29712858Y-21548565D01*
X29719451Y-21541292D01*
X29726392Y-21534351D01*
X29733665Y-21527758D01*
X29741254Y-21521531D01*
X29749138Y-21515683D01*
X29757300Y-21510229D01*
X29765720Y-21505183D01*
X29774378Y-21500555D01*
X29783252Y-21496358D01*
X29792321Y-21492601D01*
X29801564Y-21489294D01*
X29810957Y-21486445D01*
X29820480Y-21484060D01*
X29830108Y-21482144D01*
X29839818Y-21480704D01*
X29849587Y-21479742D01*
X29859392Y-21479260D01*
X29869208Y-21479260D01*
X29879013Y-21479742D01*
G37*
G36*
X28479013Y-20079742D02*
G01*
X28488782Y-20080704D01*
X28498492Y-20082144D01*
X28508120Y-20084060D01*
X28517643Y-20086445D01*
X28527036Y-20089294D01*
X28536279Y-20092601D01*
X28545348Y-20096358D01*
X28554222Y-20100555D01*
X28562880Y-20105183D01*
X28571300Y-20110229D01*
X28579462Y-20115683D01*
X28587346Y-20121531D01*
X28594935Y-20127758D01*
X28602208Y-20134351D01*
X28609149Y-20141292D01*
X28615742Y-20148565D01*
X28621969Y-20156154D01*
X28627817Y-20164038D01*
X28633271Y-20172200D01*
X28638317Y-20180620D01*
X28642945Y-20189278D01*
X28647142Y-20198152D01*
X28650899Y-20207221D01*
X28654206Y-20216464D01*
X28657055Y-20225857D01*
X28659440Y-20235380D01*
X28661356Y-20245008D01*
X28662796Y-20254718D01*
X28663758Y-20264487D01*
X28664240Y-20274292D01*
X28664240Y-20284108D01*
X28663758Y-20293913D01*
X28662796Y-20303682D01*
X28661356Y-20313392D01*
X28659440Y-20323020D01*
X28657055Y-20332543D01*
X28654206Y-20341936D01*
X28650899Y-20351179D01*
X28647142Y-20360248D01*
X28642945Y-20369122D01*
X28638317Y-20377780D01*
X28633271Y-20386200D01*
X28627817Y-20394362D01*
X28621969Y-20402246D01*
X28615742Y-20409835D01*
X28609149Y-20417108D01*
X28602208Y-20424049D01*
X28594935Y-20430642D01*
X28587346Y-20436869D01*
X28579462Y-20442717D01*
X28571300Y-20448171D01*
X28562880Y-20453217D01*
X28554222Y-20457845D01*
X28545348Y-20462042D01*
X28536279Y-20465799D01*
X28527036Y-20469106D01*
X28517643Y-20471955D01*
X28508120Y-20474340D01*
X28498492Y-20476256D01*
X28488782Y-20477696D01*
X28479013Y-20478658D01*
X28469208Y-20479140D01*
X28459392Y-20479140D01*
X28449587Y-20478658D01*
X28439818Y-20477696D01*
X28430108Y-20476256D01*
X28420480Y-20474340D01*
X28410957Y-20471955D01*
X28401564Y-20469106D01*
X28392321Y-20465799D01*
X28383252Y-20462042D01*
X28374378Y-20457845D01*
X28365720Y-20453217D01*
X28357300Y-20448171D01*
X28349138Y-20442717D01*
X28341254Y-20436869D01*
X28333665Y-20430642D01*
X28326392Y-20424049D01*
X28319451Y-20417108D01*
X28312858Y-20409835D01*
X28306631Y-20402246D01*
X28300783Y-20394362D01*
X28295329Y-20386200D01*
X28290283Y-20377780D01*
X28285655Y-20369122D01*
X28281458Y-20360248D01*
X28277701Y-20351179D01*
X28274394Y-20341936D01*
X28271545Y-20332543D01*
X28269160Y-20323020D01*
X28267244Y-20313392D01*
X28265804Y-20303682D01*
X28264842Y-20293913D01*
X28264360Y-20284108D01*
X28264360Y-20281654D01*
X28364330Y-20281654D01*
X28364571Y-20286556D01*
X28365052Y-20291441D01*
X28365772Y-20296296D01*
X28366730Y-20301110D01*
X28367922Y-20305871D01*
X28369347Y-20310568D01*
X28371001Y-20315190D01*
X28372879Y-20319724D01*
X28374978Y-20324161D01*
X28377291Y-20328490D01*
X28379815Y-20332700D01*
X28382542Y-20336781D01*
X28385465Y-20340723D01*
X28388579Y-20344517D01*
X28391875Y-20348154D01*
X28395346Y-20351625D01*
X28398983Y-20354921D01*
X28402777Y-20358035D01*
X28406719Y-20360958D01*
X28410800Y-20363685D01*
X28415010Y-20366209D01*
X28419339Y-20368522D01*
X28423776Y-20370621D01*
X28428310Y-20372499D01*
X28432932Y-20374153D01*
X28437629Y-20375578D01*
X28442390Y-20376770D01*
X28447204Y-20377728D01*
X28452059Y-20378448D01*
X28456944Y-20378929D01*
X28461846Y-20379170D01*
X28466754Y-20379170D01*
X28471656Y-20378929D01*
X28476541Y-20378448D01*
X28481396Y-20377728D01*
X28486210Y-20376770D01*
X28490971Y-20375578D01*
X28495668Y-20374153D01*
X28500290Y-20372499D01*
X28504824Y-20370621D01*
X28509261Y-20368522D01*
X28513590Y-20366209D01*
X28517800Y-20363685D01*
X28521881Y-20360958D01*
X28525823Y-20358035D01*
X28529617Y-20354921D01*
X28533254Y-20351625D01*
X28536725Y-20348154D01*
X28540021Y-20344517D01*
X28543135Y-20340723D01*
X28546058Y-20336781D01*
X28548785Y-20332700D01*
X28551309Y-20328490D01*
X28553622Y-20324161D01*
X28555721Y-20319724D01*
X28557599Y-20315190D01*
X28559253Y-20310568D01*
X28560678Y-20305871D01*
X28561870Y-20301110D01*
X28562828Y-20296296D01*
X28563548Y-20291441D01*
X28564029Y-20286556D01*
X28564270Y-20281654D01*
X28564270Y-20276746D01*
X28564029Y-20271844D01*
X28563548Y-20266959D01*
X28562828Y-20262104D01*
X28561870Y-20257290D01*
X28560678Y-20252529D01*
X28559253Y-20247832D01*
X28557599Y-20243210D01*
X28555721Y-20238676D01*
X28553622Y-20234239D01*
X28551309Y-20229910D01*
X28548785Y-20225700D01*
X28546058Y-20221619D01*
X28543135Y-20217677D01*
X28540021Y-20213883D01*
X28536725Y-20210246D01*
X28533254Y-20206775D01*
X28529617Y-20203479D01*
X28525823Y-20200365D01*
X28521881Y-20197442D01*
X28517800Y-20194715D01*
X28513590Y-20192191D01*
X28509261Y-20189878D01*
X28504824Y-20187779D01*
X28500290Y-20185901D01*
X28495668Y-20184247D01*
X28490971Y-20182822D01*
X28486210Y-20181630D01*
X28481396Y-20180672D01*
X28476541Y-20179952D01*
X28471656Y-20179471D01*
X28466754Y-20179230D01*
X28461846Y-20179230D01*
X28456944Y-20179471D01*
X28452059Y-20179952D01*
X28447204Y-20180672D01*
X28442390Y-20181630D01*
X28437629Y-20182822D01*
X28432932Y-20184247D01*
X28428310Y-20185901D01*
X28423776Y-20187779D01*
X28419339Y-20189878D01*
X28415010Y-20192191D01*
X28410800Y-20194715D01*
X28406719Y-20197442D01*
X28402777Y-20200365D01*
X28398983Y-20203479D01*
X28395346Y-20206775D01*
X28391875Y-20210246D01*
X28388579Y-20213883D01*
X28385465Y-20217677D01*
X28382542Y-20221619D01*
X28379815Y-20225700D01*
X28377291Y-20229910D01*
X28374978Y-20234239D01*
X28372879Y-20238676D01*
X28371001Y-20243210D01*
X28369347Y-20247832D01*
X28367922Y-20252529D01*
X28366730Y-20257290D01*
X28365772Y-20262104D01*
X28365052Y-20266959D01*
X28364571Y-20271844D01*
X28364330Y-20276746D01*
X28364330Y-20281654D01*
X28264360Y-20281654D01*
X28264360Y-20274292D01*
X28264842Y-20264487D01*
X28265804Y-20254718D01*
X28267244Y-20245008D01*
X28269160Y-20235380D01*
X28271545Y-20225857D01*
X28274394Y-20216464D01*
X28277701Y-20207221D01*
X28281458Y-20198152D01*
X28285655Y-20189278D01*
X28290283Y-20180620D01*
X28295329Y-20172200D01*
X28300783Y-20164038D01*
X28306631Y-20156154D01*
X28312858Y-20148565D01*
X28319451Y-20141292D01*
X28326392Y-20134351D01*
X28333665Y-20127758D01*
X28341254Y-20121531D01*
X28349138Y-20115683D01*
X28357300Y-20110229D01*
X28365720Y-20105183D01*
X28374378Y-20100555D01*
X28383252Y-20096358D01*
X28392321Y-20092601D01*
X28401564Y-20089294D01*
X28410957Y-20086445D01*
X28420480Y-20084060D01*
X28430108Y-20082144D01*
X28439818Y-20080704D01*
X28449587Y-20079742D01*
X28459392Y-20079260D01*
X28469208Y-20079260D01*
X28479013Y-20079742D01*
G37*
G36*
X29879013Y-20079742D02*
G01*
X29888782Y-20080704D01*
X29898492Y-20082144D01*
X29908120Y-20084060D01*
X29917643Y-20086445D01*
X29927036Y-20089294D01*
X29936279Y-20092601D01*
X29945348Y-20096358D01*
X29954222Y-20100555D01*
X29962880Y-20105183D01*
X29971300Y-20110229D01*
X29979462Y-20115683D01*
X29987346Y-20121531D01*
X29994935Y-20127758D01*
X30002208Y-20134351D01*
X30009149Y-20141292D01*
X30015742Y-20148565D01*
X30021969Y-20156154D01*
X30027817Y-20164038D01*
X30033271Y-20172200D01*
X30038317Y-20180620D01*
X30042945Y-20189278D01*
X30047142Y-20198152D01*
X30050899Y-20207221D01*
X30054206Y-20216464D01*
X30057055Y-20225857D01*
X30059440Y-20235380D01*
X30061356Y-20245008D01*
X30062796Y-20254718D01*
X30063758Y-20264487D01*
X30064240Y-20274292D01*
X30064240Y-20284108D01*
X30063758Y-20293913D01*
X30062796Y-20303682D01*
X30061356Y-20313392D01*
X30059440Y-20323020D01*
X30057055Y-20332543D01*
X30054206Y-20341936D01*
X30050899Y-20351179D01*
X30047142Y-20360248D01*
X30042945Y-20369122D01*
X30038317Y-20377780D01*
X30033271Y-20386200D01*
X30027817Y-20394362D01*
X30021969Y-20402246D01*
X30015742Y-20409835D01*
X30009149Y-20417108D01*
X30002208Y-20424049D01*
X29994935Y-20430642D01*
X29987346Y-20436869D01*
X29979462Y-20442717D01*
X29971300Y-20448171D01*
X29962880Y-20453217D01*
X29954222Y-20457845D01*
X29945348Y-20462042D01*
X29936279Y-20465799D01*
X29927036Y-20469106D01*
X29917643Y-20471955D01*
X29908120Y-20474340D01*
X29898492Y-20476256D01*
X29888782Y-20477696D01*
X29879013Y-20478658D01*
X29869208Y-20479140D01*
X29859392Y-20479140D01*
X29849587Y-20478658D01*
X29839818Y-20477696D01*
X29830108Y-20476256D01*
X29820480Y-20474340D01*
X29810957Y-20471955D01*
X29801564Y-20469106D01*
X29792321Y-20465799D01*
X29783252Y-20462042D01*
X29774378Y-20457845D01*
X29765720Y-20453217D01*
X29757300Y-20448171D01*
X29749138Y-20442717D01*
X29741254Y-20436869D01*
X29733665Y-20430642D01*
X29726392Y-20424049D01*
X29719451Y-20417108D01*
X29712858Y-20409835D01*
X29706631Y-20402246D01*
X29700783Y-20394362D01*
X29695329Y-20386200D01*
X29690283Y-20377780D01*
X29685655Y-20369122D01*
X29681458Y-20360248D01*
X29677701Y-20351179D01*
X29674394Y-20341936D01*
X29671545Y-20332543D01*
X29669160Y-20323020D01*
X29667244Y-20313392D01*
X29665804Y-20303682D01*
X29664842Y-20293913D01*
X29664360Y-20284108D01*
X29664360Y-20281654D01*
X29764330Y-20281654D01*
X29764571Y-20286556D01*
X29765052Y-20291441D01*
X29765772Y-20296296D01*
X29766730Y-20301110D01*
X29767922Y-20305871D01*
X29769347Y-20310568D01*
X29771001Y-20315190D01*
X29772879Y-20319724D01*
X29774978Y-20324161D01*
X29777291Y-20328490D01*
X29779815Y-20332700D01*
X29782542Y-20336781D01*
X29785465Y-20340723D01*
X29788579Y-20344517D01*
X29791875Y-20348154D01*
X29795346Y-20351625D01*
X29798983Y-20354921D01*
X29802777Y-20358035D01*
X29806719Y-20360958D01*
X29810800Y-20363685D01*
X29815010Y-20366209D01*
X29819339Y-20368522D01*
X29823776Y-20370621D01*
X29828310Y-20372499D01*
X29832932Y-20374153D01*
X29837629Y-20375578D01*
X29842390Y-20376770D01*
X29847204Y-20377728D01*
X29852059Y-20378448D01*
X29856944Y-20378929D01*
X29861846Y-20379170D01*
X29866754Y-20379170D01*
X29871656Y-20378929D01*
X29876541Y-20378448D01*
X29881396Y-20377728D01*
X29886210Y-20376770D01*
X29890971Y-20375578D01*
X29895668Y-20374153D01*
X29900290Y-20372499D01*
X29904824Y-20370621D01*
X29909261Y-20368522D01*
X29913590Y-20366209D01*
X29917800Y-20363685D01*
X29921881Y-20360958D01*
X29925823Y-20358035D01*
X29929617Y-20354921D01*
X29933254Y-20351625D01*
X29936725Y-20348154D01*
X29940021Y-20344517D01*
X29943135Y-20340723D01*
X29946058Y-20336781D01*
X29948785Y-20332700D01*
X29951309Y-20328490D01*
X29953622Y-20324161D01*
X29955721Y-20319724D01*
X29957599Y-20315190D01*
X29959253Y-20310568D01*
X29960678Y-20305871D01*
X29961870Y-20301110D01*
X29962828Y-20296296D01*
X29963548Y-20291441D01*
X29964029Y-20286556D01*
X29964270Y-20281654D01*
X29964270Y-20276746D01*
X29964029Y-20271844D01*
X29963548Y-20266959D01*
X29962828Y-20262104D01*
X29961870Y-20257290D01*
X29960678Y-20252529D01*
X29959253Y-20247832D01*
X29957599Y-20243210D01*
X29955721Y-20238676D01*
X29953622Y-20234239D01*
X29951309Y-20229910D01*
X29948785Y-20225700D01*
X29946058Y-20221619D01*
X29943135Y-20217677D01*
X29940021Y-20213883D01*
X29936725Y-20210246D01*
X29933254Y-20206775D01*
X29929617Y-20203479D01*
X29925823Y-20200365D01*
X29921881Y-20197442D01*
X29917800Y-20194715D01*
X29913590Y-20192191D01*
X29909261Y-20189878D01*
X29904824Y-20187779D01*
X29900290Y-20185901D01*
X29895668Y-20184247D01*
X29890971Y-20182822D01*
X29886210Y-20181630D01*
X29881396Y-20180672D01*
X29876541Y-20179952D01*
X29871656Y-20179471D01*
X29866754Y-20179230D01*
X29861846Y-20179230D01*
X29856944Y-20179471D01*
X29852059Y-20179952D01*
X29847204Y-20180672D01*
X29842390Y-20181630D01*
X29837629Y-20182822D01*
X29832932Y-20184247D01*
X29828310Y-20185901D01*
X29823776Y-20187779D01*
X29819339Y-20189878D01*
X29815010Y-20192191D01*
X29810800Y-20194715D01*
X29806719Y-20197442D01*
X29802777Y-20200365D01*
X29798983Y-20203479D01*
X29795346Y-20206775D01*
X29791875Y-20210246D01*
X29788579Y-20213883D01*
X29785465Y-20217677D01*
X29782542Y-20221619D01*
X29779815Y-20225700D01*
X29777291Y-20229910D01*
X29774978Y-20234239D01*
X29772879Y-20238676D01*
X29771001Y-20243210D01*
X29769347Y-20247832D01*
X29767922Y-20252529D01*
X29766730Y-20257290D01*
X29765772Y-20262104D01*
X29765052Y-20266959D01*
X29764571Y-20271844D01*
X29764330Y-20276746D01*
X29764330Y-20281654D01*
X29664360Y-20281654D01*
X29664360Y-20274292D01*
X29664842Y-20264487D01*
X29665804Y-20254718D01*
X29667244Y-20245008D01*
X29669160Y-20235380D01*
X29671545Y-20225857D01*
X29674394Y-20216464D01*
X29677701Y-20207221D01*
X29681458Y-20198152D01*
X29685655Y-20189278D01*
X29690283Y-20180620D01*
X29695329Y-20172200D01*
X29700783Y-20164038D01*
X29706631Y-20156154D01*
X29712858Y-20148565D01*
X29719451Y-20141292D01*
X29726392Y-20134351D01*
X29733665Y-20127758D01*
X29741254Y-20121531D01*
X29749138Y-20115683D01*
X29757300Y-20110229D01*
X29765720Y-20105183D01*
X29774378Y-20100555D01*
X29783252Y-20096358D01*
X29792321Y-20092601D01*
X29801564Y-20089294D01*
X29810957Y-20086445D01*
X29820480Y-20084060D01*
X29830108Y-20082144D01*
X29839818Y-20080704D01*
X29849587Y-20079742D01*
X29859392Y-20079260D01*
X29869208Y-20079260D01*
X29879013Y-20079742D01*
G37*
G36*
X28479013Y-18679742D02*
G01*
X28488782Y-18680704D01*
X28498492Y-18682144D01*
X28508120Y-18684060D01*
X28517643Y-18686445D01*
X28527036Y-18689294D01*
X28536279Y-18692601D01*
X28545348Y-18696358D01*
X28554222Y-18700555D01*
X28562880Y-18705183D01*
X28571300Y-18710229D01*
X28579462Y-18715683D01*
X28587346Y-18721531D01*
X28594935Y-18727758D01*
X28602208Y-18734351D01*
X28609149Y-18741292D01*
X28615742Y-18748565D01*
X28621969Y-18756154D01*
X28627817Y-18764038D01*
X28633271Y-18772200D01*
X28638317Y-18780620D01*
X28642945Y-18789278D01*
X28647142Y-18798152D01*
X28650899Y-18807221D01*
X28654206Y-18816464D01*
X28657055Y-18825857D01*
X28659440Y-18835380D01*
X28661356Y-18845008D01*
X28662796Y-18854718D01*
X28663758Y-18864487D01*
X28664240Y-18874292D01*
X28664240Y-18884108D01*
X28663758Y-18893913D01*
X28662796Y-18903682D01*
X28661356Y-18913392D01*
X28659440Y-18923020D01*
X28657055Y-18932543D01*
X28654206Y-18941936D01*
X28650899Y-18951179D01*
X28647142Y-18960248D01*
X28642945Y-18969122D01*
X28638317Y-18977780D01*
X28633271Y-18986200D01*
X28627817Y-18994362D01*
X28621969Y-19002246D01*
X28615742Y-19009835D01*
X28609149Y-19017108D01*
X28602208Y-19024049D01*
X28594935Y-19030642D01*
X28587346Y-19036869D01*
X28579462Y-19042717D01*
X28571300Y-19048171D01*
X28562880Y-19053217D01*
X28554222Y-19057845D01*
X28545348Y-19062042D01*
X28536279Y-19065799D01*
X28527036Y-19069106D01*
X28517643Y-19071955D01*
X28508120Y-19074340D01*
X28498492Y-19076256D01*
X28488782Y-19077696D01*
X28479013Y-19078658D01*
X28469208Y-19079140D01*
X28459392Y-19079140D01*
X28449587Y-19078658D01*
X28439818Y-19077696D01*
X28430108Y-19076256D01*
X28420480Y-19074340D01*
X28410957Y-19071955D01*
X28401564Y-19069106D01*
X28392321Y-19065799D01*
X28383252Y-19062042D01*
X28374378Y-19057845D01*
X28365720Y-19053217D01*
X28357300Y-19048171D01*
X28349138Y-19042717D01*
X28341254Y-19036869D01*
X28333665Y-19030642D01*
X28326392Y-19024049D01*
X28319451Y-19017108D01*
X28312858Y-19009835D01*
X28306631Y-19002246D01*
X28300783Y-18994362D01*
X28295329Y-18986200D01*
X28290283Y-18977780D01*
X28285655Y-18969122D01*
X28281458Y-18960248D01*
X28277701Y-18951179D01*
X28274394Y-18941936D01*
X28271545Y-18932543D01*
X28269160Y-18923020D01*
X28267244Y-18913392D01*
X28265804Y-18903682D01*
X28264842Y-18893913D01*
X28264360Y-18884108D01*
X28264360Y-18881654D01*
X28364330Y-18881654D01*
X28364571Y-18886556D01*
X28365052Y-18891441D01*
X28365772Y-18896296D01*
X28366730Y-18901110D01*
X28367922Y-18905871D01*
X28369347Y-18910568D01*
X28371001Y-18915190D01*
X28372879Y-18919724D01*
X28374978Y-18924161D01*
X28377291Y-18928490D01*
X28379815Y-18932700D01*
X28382542Y-18936781D01*
X28385465Y-18940723D01*
X28388579Y-18944517D01*
X28391875Y-18948154D01*
X28395346Y-18951625D01*
X28398983Y-18954921D01*
X28402777Y-18958035D01*
X28406719Y-18960958D01*
X28410800Y-18963685D01*
X28415010Y-18966209D01*
X28419339Y-18968522D01*
X28423776Y-18970621D01*
X28428310Y-18972499D01*
X28432932Y-18974153D01*
X28437629Y-18975578D01*
X28442390Y-18976770D01*
X28447204Y-18977728D01*
X28452059Y-18978448D01*
X28456944Y-18978929D01*
X28461846Y-18979170D01*
X28466754Y-18979170D01*
X28471656Y-18978929D01*
X28476541Y-18978448D01*
X28481396Y-18977728D01*
X28486210Y-18976770D01*
X28490971Y-18975578D01*
X28495668Y-18974153D01*
X28500290Y-18972499D01*
X28504824Y-18970621D01*
X28509261Y-18968522D01*
X28513590Y-18966209D01*
X28517800Y-18963685D01*
X28521881Y-18960958D01*
X28525823Y-18958035D01*
X28529617Y-18954921D01*
X28533254Y-18951625D01*
X28536725Y-18948154D01*
X28540021Y-18944517D01*
X28543135Y-18940723D01*
X28546058Y-18936781D01*
X28548785Y-18932700D01*
X28551309Y-18928490D01*
X28553622Y-18924161D01*
X28555721Y-18919724D01*
X28557599Y-18915190D01*
X28559253Y-18910568D01*
X28560678Y-18905871D01*
X28561870Y-18901110D01*
X28562828Y-18896296D01*
X28563548Y-18891441D01*
X28564029Y-18886556D01*
X28564270Y-18881654D01*
X28564270Y-18876746D01*
X28564029Y-18871844D01*
X28563548Y-18866959D01*
X28562828Y-18862104D01*
X28561870Y-18857290D01*
X28560678Y-18852529D01*
X28559253Y-18847832D01*
X28557599Y-18843210D01*
X28555721Y-18838676D01*
X28553622Y-18834239D01*
X28551309Y-18829910D01*
X28548785Y-18825700D01*
X28546058Y-18821619D01*
X28543135Y-18817677D01*
X28540021Y-18813883D01*
X28536725Y-18810246D01*
X28533254Y-18806775D01*
X28529617Y-18803479D01*
X28525823Y-18800365D01*
X28521881Y-18797442D01*
X28517800Y-18794715D01*
X28513590Y-18792191D01*
X28509261Y-18789878D01*
X28504824Y-18787779D01*
X28500290Y-18785901D01*
X28495668Y-18784247D01*
X28490971Y-18782822D01*
X28486210Y-18781630D01*
X28481396Y-18780672D01*
X28476541Y-18779952D01*
X28471656Y-18779471D01*
X28466754Y-18779230D01*
X28461846Y-18779230D01*
X28456944Y-18779471D01*
X28452059Y-18779952D01*
X28447204Y-18780672D01*
X28442390Y-18781630D01*
X28437629Y-18782822D01*
X28432932Y-18784247D01*
X28428310Y-18785901D01*
X28423776Y-18787779D01*
X28419339Y-18789878D01*
X28415010Y-18792191D01*
X28410800Y-18794715D01*
X28406719Y-18797442D01*
X28402777Y-18800365D01*
X28398983Y-18803479D01*
X28395346Y-18806775D01*
X28391875Y-18810246D01*
X28388579Y-18813883D01*
X28385465Y-18817677D01*
X28382542Y-18821619D01*
X28379815Y-18825700D01*
X28377291Y-18829910D01*
X28374978Y-18834239D01*
X28372879Y-18838676D01*
X28371001Y-18843210D01*
X28369347Y-18847832D01*
X28367922Y-18852529D01*
X28366730Y-18857290D01*
X28365772Y-18862104D01*
X28365052Y-18866959D01*
X28364571Y-18871844D01*
X28364330Y-18876746D01*
X28364330Y-18881654D01*
X28264360Y-18881654D01*
X28264360Y-18874292D01*
X28264842Y-18864487D01*
X28265804Y-18854718D01*
X28267244Y-18845008D01*
X28269160Y-18835380D01*
X28271545Y-18825857D01*
X28274394Y-18816464D01*
X28277701Y-18807221D01*
X28281458Y-18798152D01*
X28285655Y-18789278D01*
X28290283Y-18780620D01*
X28295329Y-18772200D01*
X28300783Y-18764038D01*
X28306631Y-18756154D01*
X28312858Y-18748565D01*
X28319451Y-18741292D01*
X28326392Y-18734351D01*
X28333665Y-18727758D01*
X28341254Y-18721531D01*
X28349138Y-18715683D01*
X28357300Y-18710229D01*
X28365720Y-18705183D01*
X28374378Y-18700555D01*
X28383252Y-18696358D01*
X28392321Y-18692601D01*
X28401564Y-18689294D01*
X28410957Y-18686445D01*
X28420480Y-18684060D01*
X28430108Y-18682144D01*
X28439818Y-18680704D01*
X28449587Y-18679742D01*
X28459392Y-18679260D01*
X28469208Y-18679260D01*
X28479013Y-18679742D01*
G37*
G36*
X29879013Y-18679742D02*
G01*
X29888782Y-18680704D01*
X29898492Y-18682144D01*
X29908120Y-18684060D01*
X29917643Y-18686445D01*
X29927036Y-18689294D01*
X29936279Y-18692601D01*
X29945348Y-18696358D01*
X29954222Y-18700555D01*
X29962880Y-18705183D01*
X29971300Y-18710229D01*
X29979462Y-18715683D01*
X29987346Y-18721531D01*
X29994935Y-18727758D01*
X30002208Y-18734351D01*
X30009149Y-18741292D01*
X30015742Y-18748565D01*
X30021969Y-18756154D01*
X30027817Y-18764038D01*
X30033271Y-18772200D01*
X30038317Y-18780620D01*
X30042945Y-18789278D01*
X30047142Y-18798152D01*
X30050899Y-18807221D01*
X30054206Y-18816464D01*
X30057055Y-18825857D01*
X30059440Y-18835380D01*
X30061356Y-18845008D01*
X30062796Y-18854718D01*
X30063758Y-18864487D01*
X30064240Y-18874292D01*
X30064240Y-18884108D01*
X30063758Y-18893913D01*
X30062796Y-18903682D01*
X30061356Y-18913392D01*
X30059440Y-18923020D01*
X30057055Y-18932543D01*
X30054206Y-18941936D01*
X30050899Y-18951179D01*
X30047142Y-18960248D01*
X30042945Y-18969122D01*
X30038317Y-18977780D01*
X30033271Y-18986200D01*
X30027817Y-18994362D01*
X30021969Y-19002246D01*
X30015742Y-19009835D01*
X30009149Y-19017108D01*
X30002208Y-19024049D01*
X29994935Y-19030642D01*
X29987346Y-19036869D01*
X29979462Y-19042717D01*
X29971300Y-19048171D01*
X29962880Y-19053217D01*
X29954222Y-19057845D01*
X29945348Y-19062042D01*
X29936279Y-19065799D01*
X29927036Y-19069106D01*
X29917643Y-19071955D01*
X29908120Y-19074340D01*
X29898492Y-19076256D01*
X29888782Y-19077696D01*
X29879013Y-19078658D01*
X29869208Y-19079140D01*
X29859392Y-19079140D01*
X29849587Y-19078658D01*
X29839818Y-19077696D01*
X29830108Y-19076256D01*
X29820480Y-19074340D01*
X29810957Y-19071955D01*
X29801564Y-19069106D01*
X29792321Y-19065799D01*
X29783252Y-19062042D01*
X29774378Y-19057845D01*
X29765720Y-19053217D01*
X29757300Y-19048171D01*
X29749138Y-19042717D01*
X29741254Y-19036869D01*
X29733665Y-19030642D01*
X29726392Y-19024049D01*
X29719451Y-19017108D01*
X29712858Y-19009835D01*
X29706631Y-19002246D01*
X29700783Y-18994362D01*
X29695329Y-18986200D01*
X29690283Y-18977780D01*
X29685655Y-18969122D01*
X29681458Y-18960248D01*
X29677701Y-18951179D01*
X29674394Y-18941936D01*
X29671545Y-18932543D01*
X29669160Y-18923020D01*
X29667244Y-18913392D01*
X29665804Y-18903682D01*
X29664842Y-18893913D01*
X29664360Y-18884108D01*
X29664360Y-18881654D01*
X29764330Y-18881654D01*
X29764571Y-18886556D01*
X29765052Y-18891441D01*
X29765772Y-18896296D01*
X29766730Y-18901110D01*
X29767922Y-18905871D01*
X29769347Y-18910568D01*
X29771001Y-18915190D01*
X29772879Y-18919724D01*
X29774978Y-18924161D01*
X29777291Y-18928490D01*
X29779815Y-18932700D01*
X29782542Y-18936781D01*
X29785465Y-18940723D01*
X29788579Y-18944517D01*
X29791875Y-18948154D01*
X29795346Y-18951625D01*
X29798983Y-18954921D01*
X29802777Y-18958035D01*
X29806719Y-18960958D01*
X29810800Y-18963685D01*
X29815010Y-18966209D01*
X29819339Y-18968522D01*
X29823776Y-18970621D01*
X29828310Y-18972499D01*
X29832932Y-18974153D01*
X29837629Y-18975578D01*
X29842390Y-18976770D01*
X29847204Y-18977728D01*
X29852059Y-18978448D01*
X29856944Y-18978929D01*
X29861846Y-18979170D01*
X29866754Y-18979170D01*
X29871656Y-18978929D01*
X29876541Y-18978448D01*
X29881396Y-18977728D01*
X29886210Y-18976770D01*
X29890971Y-18975578D01*
X29895668Y-18974153D01*
X29900290Y-18972499D01*
X29904824Y-18970621D01*
X29909261Y-18968522D01*
X29913590Y-18966209D01*
X29917800Y-18963685D01*
X29921881Y-18960958D01*
X29925823Y-18958035D01*
X29929617Y-18954921D01*
X29933254Y-18951625D01*
X29936725Y-18948154D01*
X29940021Y-18944517D01*
X29943135Y-18940723D01*
X29946058Y-18936781D01*
X29948785Y-18932700D01*
X29951309Y-18928490D01*
X29953622Y-18924161D01*
X29955721Y-18919724D01*
X29957599Y-18915190D01*
X29959253Y-18910568D01*
X29960678Y-18905871D01*
X29961870Y-18901110D01*
X29962828Y-18896296D01*
X29963548Y-18891441D01*
X29964029Y-18886556D01*
X29964270Y-18881654D01*
X29964270Y-18876746D01*
X29964029Y-18871844D01*
X29963548Y-18866959D01*
X29962828Y-18862104D01*
X29961870Y-18857290D01*
X29960678Y-18852529D01*
X29959253Y-18847832D01*
X29957599Y-18843210D01*
X29955721Y-18838676D01*
X29953622Y-18834239D01*
X29951309Y-18829910D01*
X29948785Y-18825700D01*
X29946058Y-18821619D01*
X29943135Y-18817677D01*
X29940021Y-18813883D01*
X29936725Y-18810246D01*
X29933254Y-18806775D01*
X29929617Y-18803479D01*
X29925823Y-18800365D01*
X29921881Y-18797442D01*
X29917800Y-18794715D01*
X29913590Y-18792191D01*
X29909261Y-18789878D01*
X29904824Y-18787779D01*
X29900290Y-18785901D01*
X29895668Y-18784247D01*
X29890971Y-18782822D01*
X29886210Y-18781630D01*
X29881396Y-18780672D01*
X29876541Y-18779952D01*
X29871656Y-18779471D01*
X29866754Y-18779230D01*
X29861846Y-18779230D01*
X29856944Y-18779471D01*
X29852059Y-18779952D01*
X29847204Y-18780672D01*
X29842390Y-18781630D01*
X29837629Y-18782822D01*
X29832932Y-18784247D01*
X29828310Y-18785901D01*
X29823776Y-18787779D01*
X29819339Y-18789878D01*
X29815010Y-18792191D01*
X29810800Y-18794715D01*
X29806719Y-18797442D01*
X29802777Y-18800365D01*
X29798983Y-18803479D01*
X29795346Y-18806775D01*
X29791875Y-18810246D01*
X29788579Y-18813883D01*
X29785465Y-18817677D01*
X29782542Y-18821619D01*
X29779815Y-18825700D01*
X29777291Y-18829910D01*
X29774978Y-18834239D01*
X29772879Y-18838676D01*
X29771001Y-18843210D01*
X29769347Y-18847832D01*
X29767922Y-18852529D01*
X29766730Y-18857290D01*
X29765772Y-18862104D01*
X29765052Y-18866959D01*
X29764571Y-18871844D01*
X29764330Y-18876746D01*
X29764330Y-18881654D01*
X29664360Y-18881654D01*
X29664360Y-18874292D01*
X29664842Y-18864487D01*
X29665804Y-18854718D01*
X29667244Y-18845008D01*
X29669160Y-18835380D01*
X29671545Y-18825857D01*
X29674394Y-18816464D01*
X29677701Y-18807221D01*
X29681458Y-18798152D01*
X29685655Y-18789278D01*
X29690283Y-18780620D01*
X29695329Y-18772200D01*
X29700783Y-18764038D01*
X29706631Y-18756154D01*
X29712858Y-18748565D01*
X29719451Y-18741292D01*
X29726392Y-18734351D01*
X29733665Y-18727758D01*
X29741254Y-18721531D01*
X29749138Y-18715683D01*
X29757300Y-18710229D01*
X29765720Y-18705183D01*
X29774378Y-18700555D01*
X29783252Y-18696358D01*
X29792321Y-18692601D01*
X29801564Y-18689294D01*
X29810957Y-18686445D01*
X29820480Y-18684060D01*
X29830108Y-18682144D01*
X29839818Y-18680704D01*
X29849587Y-18679742D01*
X29859392Y-18679260D01*
X29869208Y-18679260D01*
X29879013Y-18679742D01*
G37*
G36*
X27779013Y-20779742D02*
G01*
X27788782Y-20780704D01*
X27798492Y-20782144D01*
X27808120Y-20784060D01*
X27817643Y-20786445D01*
X27827036Y-20789294D01*
X27836279Y-20792601D01*
X27845348Y-20796358D01*
X27854222Y-20800555D01*
X27862880Y-20805183D01*
X27871300Y-20810229D01*
X27879462Y-20815683D01*
X27887346Y-20821531D01*
X27894935Y-20827758D01*
X27902208Y-20834351D01*
X27909149Y-20841292D01*
X27915742Y-20848565D01*
X27921969Y-20856154D01*
X27927817Y-20864038D01*
X27933271Y-20872200D01*
X27938317Y-20880620D01*
X27942945Y-20889278D01*
X27947142Y-20898152D01*
X27950899Y-20907221D01*
X27954206Y-20916464D01*
X27957055Y-20925857D01*
X27959440Y-20935380D01*
X27961356Y-20945008D01*
X27962796Y-20954718D01*
X27963758Y-20964487D01*
X27964240Y-20974292D01*
X27964240Y-20984108D01*
X27963758Y-20993913D01*
X27962796Y-21003682D01*
X27961356Y-21013392D01*
X27959440Y-21023020D01*
X27957055Y-21032543D01*
X27954206Y-21041936D01*
X27950899Y-21051179D01*
X27947142Y-21060248D01*
X27942945Y-21069122D01*
X27938317Y-21077780D01*
X27933271Y-21086200D01*
X27927817Y-21094362D01*
X27921969Y-21102246D01*
X27915742Y-21109835D01*
X27909149Y-21117108D01*
X27902208Y-21124049D01*
X27894935Y-21130642D01*
X27887346Y-21136869D01*
X27879462Y-21142717D01*
X27871300Y-21148171D01*
X27862880Y-21153217D01*
X27854222Y-21157845D01*
X27845348Y-21162042D01*
X27836279Y-21165799D01*
X27827036Y-21169106D01*
X27817643Y-21171955D01*
X27808120Y-21174340D01*
X27798492Y-21176256D01*
X27788782Y-21177696D01*
X27779013Y-21178658D01*
X27769208Y-21179140D01*
X27759392Y-21179140D01*
X27749587Y-21178658D01*
X27739818Y-21177696D01*
X27730108Y-21176256D01*
X27720480Y-21174340D01*
X27710957Y-21171955D01*
X27701564Y-21169106D01*
X27692321Y-21165799D01*
X27683252Y-21162042D01*
X27674378Y-21157845D01*
X27665720Y-21153217D01*
X27657300Y-21148171D01*
X27649138Y-21142717D01*
X27641254Y-21136869D01*
X27633665Y-21130642D01*
X27626392Y-21124049D01*
X27619451Y-21117108D01*
X27612858Y-21109835D01*
X27606631Y-21102246D01*
X27600783Y-21094362D01*
X27595329Y-21086200D01*
X27590283Y-21077780D01*
X27585655Y-21069122D01*
X27581458Y-21060248D01*
X27577701Y-21051179D01*
X27574394Y-21041936D01*
X27571545Y-21032543D01*
X27569160Y-21023020D01*
X27567244Y-21013392D01*
X27565804Y-21003682D01*
X27564842Y-20993913D01*
X27564360Y-20984108D01*
X27564360Y-20981654D01*
X27664330Y-20981654D01*
X27664571Y-20986556D01*
X27665052Y-20991441D01*
X27665772Y-20996296D01*
X27666730Y-21001110D01*
X27667922Y-21005871D01*
X27669347Y-21010568D01*
X27671001Y-21015190D01*
X27672879Y-21019724D01*
X27674978Y-21024161D01*
X27677291Y-21028490D01*
X27679815Y-21032700D01*
X27682542Y-21036781D01*
X27685465Y-21040723D01*
X27688579Y-21044517D01*
X27691875Y-21048154D01*
X27695346Y-21051625D01*
X27698983Y-21054921D01*
X27702777Y-21058035D01*
X27706719Y-21060958D01*
X27710800Y-21063685D01*
X27715010Y-21066209D01*
X27719339Y-21068522D01*
X27723776Y-21070621D01*
X27728310Y-21072499D01*
X27732932Y-21074153D01*
X27737629Y-21075578D01*
X27742390Y-21076770D01*
X27747204Y-21077728D01*
X27752059Y-21078448D01*
X27756944Y-21078929D01*
X27761846Y-21079170D01*
X27766754Y-21079170D01*
X27771656Y-21078929D01*
X27776541Y-21078448D01*
X27781396Y-21077728D01*
X27786210Y-21076770D01*
X27790971Y-21075578D01*
X27795668Y-21074153D01*
X27800290Y-21072499D01*
X27804824Y-21070621D01*
X27809261Y-21068522D01*
X27813590Y-21066209D01*
X27817800Y-21063685D01*
X27821881Y-21060958D01*
X27825823Y-21058035D01*
X27829617Y-21054921D01*
X27833254Y-21051625D01*
X27836725Y-21048154D01*
X27840021Y-21044517D01*
X27843135Y-21040723D01*
X27846058Y-21036781D01*
X27848785Y-21032700D01*
X27851309Y-21028490D01*
X27853622Y-21024161D01*
X27855721Y-21019724D01*
X27857599Y-21015190D01*
X27859253Y-21010568D01*
X27860678Y-21005871D01*
X27861870Y-21001110D01*
X27862828Y-20996296D01*
X27863548Y-20991441D01*
X27864029Y-20986556D01*
X27864270Y-20981654D01*
X27864270Y-20976746D01*
X27864029Y-20971844D01*
X27863548Y-20966959D01*
X27862828Y-20962104D01*
X27861870Y-20957290D01*
X27860678Y-20952529D01*
X27859253Y-20947832D01*
X27857599Y-20943210D01*
X27855721Y-20938676D01*
X27853622Y-20934239D01*
X27851309Y-20929910D01*
X27848785Y-20925700D01*
X27846058Y-20921619D01*
X27843135Y-20917677D01*
X27840021Y-20913883D01*
X27836725Y-20910246D01*
X27833254Y-20906775D01*
X27829617Y-20903479D01*
X27825823Y-20900365D01*
X27821881Y-20897442D01*
X27817800Y-20894715D01*
X27813590Y-20892191D01*
X27809261Y-20889878D01*
X27804824Y-20887779D01*
X27800290Y-20885901D01*
X27795668Y-20884247D01*
X27790971Y-20882822D01*
X27786210Y-20881630D01*
X27781396Y-20880672D01*
X27776541Y-20879952D01*
X27771656Y-20879471D01*
X27766754Y-20879230D01*
X27761846Y-20879230D01*
X27756944Y-20879471D01*
X27752059Y-20879952D01*
X27747204Y-20880672D01*
X27742390Y-20881630D01*
X27737629Y-20882822D01*
X27732932Y-20884247D01*
X27728310Y-20885901D01*
X27723776Y-20887779D01*
X27719339Y-20889878D01*
X27715010Y-20892191D01*
X27710800Y-20894715D01*
X27706719Y-20897442D01*
X27702777Y-20900365D01*
X27698983Y-20903479D01*
X27695346Y-20906775D01*
X27691875Y-20910246D01*
X27688579Y-20913883D01*
X27685465Y-20917677D01*
X27682542Y-20921619D01*
X27679815Y-20925700D01*
X27677291Y-20929910D01*
X27674978Y-20934239D01*
X27672879Y-20938676D01*
X27671001Y-20943210D01*
X27669347Y-20947832D01*
X27667922Y-20952529D01*
X27666730Y-20957290D01*
X27665772Y-20962104D01*
X27665052Y-20966959D01*
X27664571Y-20971844D01*
X27664330Y-20976746D01*
X27664330Y-20981654D01*
X27564360Y-20981654D01*
X27564360Y-20974292D01*
X27564842Y-20964487D01*
X27565804Y-20954718D01*
X27567244Y-20945008D01*
X27569160Y-20935380D01*
X27571545Y-20925857D01*
X27574394Y-20916464D01*
X27577701Y-20907221D01*
X27581458Y-20898152D01*
X27585655Y-20889278D01*
X27590283Y-20880620D01*
X27595329Y-20872200D01*
X27600783Y-20864038D01*
X27606631Y-20856154D01*
X27612858Y-20848565D01*
X27619451Y-20841292D01*
X27626392Y-20834351D01*
X27633665Y-20827758D01*
X27641254Y-20821531D01*
X27649138Y-20815683D01*
X27657300Y-20810229D01*
X27665720Y-20805183D01*
X27674378Y-20800555D01*
X27683252Y-20796358D01*
X27692321Y-20792601D01*
X27701564Y-20789294D01*
X27710957Y-20786445D01*
X27720480Y-20784060D01*
X27730108Y-20782144D01*
X27739818Y-20780704D01*
X27749587Y-20779742D01*
X27759392Y-20779260D01*
X27769208Y-20779260D01*
X27779013Y-20779742D01*
G37*
G36*
X29179013Y-20779742D02*
G01*
X29188782Y-20780704D01*
X29198492Y-20782144D01*
X29208120Y-20784060D01*
X29217643Y-20786445D01*
X29227036Y-20789294D01*
X29236279Y-20792601D01*
X29245348Y-20796358D01*
X29254222Y-20800555D01*
X29262880Y-20805183D01*
X29271300Y-20810229D01*
X29279462Y-20815683D01*
X29287346Y-20821531D01*
X29294935Y-20827758D01*
X29302208Y-20834351D01*
X29309149Y-20841292D01*
X29315742Y-20848565D01*
X29321969Y-20856154D01*
X29327817Y-20864038D01*
X29333271Y-20872200D01*
X29338317Y-20880620D01*
X29342945Y-20889278D01*
X29347142Y-20898152D01*
X29350899Y-20907221D01*
X29354206Y-20916464D01*
X29357055Y-20925857D01*
X29359440Y-20935380D01*
X29361356Y-20945008D01*
X29362796Y-20954718D01*
X29363758Y-20964487D01*
X29364240Y-20974292D01*
X29364240Y-20984108D01*
X29363758Y-20993913D01*
X29362796Y-21003682D01*
X29361356Y-21013392D01*
X29359440Y-21023020D01*
X29357055Y-21032543D01*
X29354206Y-21041936D01*
X29350899Y-21051179D01*
X29347142Y-21060248D01*
X29342945Y-21069122D01*
X29338317Y-21077780D01*
X29333271Y-21086200D01*
X29327817Y-21094362D01*
X29321969Y-21102246D01*
X29315742Y-21109835D01*
X29309149Y-21117108D01*
X29302208Y-21124049D01*
X29294935Y-21130642D01*
X29287346Y-21136869D01*
X29279462Y-21142717D01*
X29271300Y-21148171D01*
X29262880Y-21153217D01*
X29254222Y-21157845D01*
X29245348Y-21162042D01*
X29236279Y-21165799D01*
X29227036Y-21169106D01*
X29217643Y-21171955D01*
X29208120Y-21174340D01*
X29198492Y-21176256D01*
X29188782Y-21177696D01*
X29179013Y-21178658D01*
X29169208Y-21179140D01*
X29159392Y-21179140D01*
X29149587Y-21178658D01*
X29139818Y-21177696D01*
X29130108Y-21176256D01*
X29120480Y-21174340D01*
X29110957Y-21171955D01*
X29101564Y-21169106D01*
X29092321Y-21165799D01*
X29083252Y-21162042D01*
X29074378Y-21157845D01*
X29065720Y-21153217D01*
X29057300Y-21148171D01*
X29049138Y-21142717D01*
X29041254Y-21136869D01*
X29033665Y-21130642D01*
X29026392Y-21124049D01*
X29019451Y-21117108D01*
X29012858Y-21109835D01*
X29006631Y-21102246D01*
X29000783Y-21094362D01*
X28995329Y-21086200D01*
X28990283Y-21077780D01*
X28985655Y-21069122D01*
X28981458Y-21060248D01*
X28977701Y-21051179D01*
X28974394Y-21041936D01*
X28971545Y-21032543D01*
X28969160Y-21023020D01*
X28967244Y-21013392D01*
X28965804Y-21003682D01*
X28964842Y-20993913D01*
X28964360Y-20984108D01*
X28964360Y-20981654D01*
X29064330Y-20981654D01*
X29064571Y-20986556D01*
X29065052Y-20991441D01*
X29065772Y-20996296D01*
X29066730Y-21001110D01*
X29067922Y-21005871D01*
X29069347Y-21010568D01*
X29071001Y-21015190D01*
X29072879Y-21019724D01*
X29074978Y-21024161D01*
X29077291Y-21028490D01*
X29079815Y-21032700D01*
X29082542Y-21036781D01*
X29085465Y-21040723D01*
X29088579Y-21044517D01*
X29091875Y-21048154D01*
X29095346Y-21051625D01*
X29098983Y-21054921D01*
X29102777Y-21058035D01*
X29106719Y-21060958D01*
X29110800Y-21063685D01*
X29115010Y-21066209D01*
X29119339Y-21068522D01*
X29123776Y-21070621D01*
X29128310Y-21072499D01*
X29132932Y-21074153D01*
X29137629Y-21075578D01*
X29142390Y-21076770D01*
X29147204Y-21077728D01*
X29152059Y-21078448D01*
X29156944Y-21078929D01*
X29161846Y-21079170D01*
X29166754Y-21079170D01*
X29171656Y-21078929D01*
X29176541Y-21078448D01*
X29181396Y-21077728D01*
X29186210Y-21076770D01*
X29190971Y-21075578D01*
X29195668Y-21074153D01*
X29200290Y-21072499D01*
X29204824Y-21070621D01*
X29209261Y-21068522D01*
X29213590Y-21066209D01*
X29217800Y-21063685D01*
X29221881Y-21060958D01*
X29225823Y-21058035D01*
X29229617Y-21054921D01*
X29233254Y-21051625D01*
X29236725Y-21048154D01*
X29240021Y-21044517D01*
X29243135Y-21040723D01*
X29246058Y-21036781D01*
X29248785Y-21032700D01*
X29251309Y-21028490D01*
X29253622Y-21024161D01*
X29255721Y-21019724D01*
X29257599Y-21015190D01*
X29259253Y-21010568D01*
X29260678Y-21005871D01*
X29261870Y-21001110D01*
X29262828Y-20996296D01*
X29263548Y-20991441D01*
X29264029Y-20986556D01*
X29264270Y-20981654D01*
X29264270Y-20976746D01*
X29264029Y-20971844D01*
X29263548Y-20966959D01*
X29262828Y-20962104D01*
X29261870Y-20957290D01*
X29260678Y-20952529D01*
X29259253Y-20947832D01*
X29257599Y-20943210D01*
X29255721Y-20938676D01*
X29253622Y-20934239D01*
X29251309Y-20929910D01*
X29248785Y-20925700D01*
X29246058Y-20921619D01*
X29243135Y-20917677D01*
X29240021Y-20913883D01*
X29236725Y-20910246D01*
X29233254Y-20906775D01*
X29229617Y-20903479D01*
X29225823Y-20900365D01*
X29221881Y-20897442D01*
X29217800Y-20894715D01*
X29213590Y-20892191D01*
X29209261Y-20889878D01*
X29204824Y-20887779D01*
X29200290Y-20885901D01*
X29195668Y-20884247D01*
X29190971Y-20882822D01*
X29186210Y-20881630D01*
X29181396Y-20880672D01*
X29176541Y-20879952D01*
X29171656Y-20879471D01*
X29166754Y-20879230D01*
X29161846Y-20879230D01*
X29156944Y-20879471D01*
X29152059Y-20879952D01*
X29147204Y-20880672D01*
X29142390Y-20881630D01*
X29137629Y-20882822D01*
X29132932Y-20884247D01*
X29128310Y-20885901D01*
X29123776Y-20887779D01*
X29119339Y-20889878D01*
X29115010Y-20892191D01*
X29110800Y-20894715D01*
X29106719Y-20897442D01*
X29102777Y-20900365D01*
X29098983Y-20903479D01*
X29095346Y-20906775D01*
X29091875Y-20910246D01*
X29088579Y-20913883D01*
X29085465Y-20917677D01*
X29082542Y-20921619D01*
X29079815Y-20925700D01*
X29077291Y-20929910D01*
X29074978Y-20934239D01*
X29072879Y-20938676D01*
X29071001Y-20943210D01*
X29069347Y-20947832D01*
X29067922Y-20952529D01*
X29066730Y-20957290D01*
X29065772Y-20962104D01*
X29065052Y-20966959D01*
X29064571Y-20971844D01*
X29064330Y-20976746D01*
X29064330Y-20981654D01*
X28964360Y-20981654D01*
X28964360Y-20974292D01*
X28964842Y-20964487D01*
X28965804Y-20954718D01*
X28967244Y-20945008D01*
X28969160Y-20935380D01*
X28971545Y-20925857D01*
X28974394Y-20916464D01*
X28977701Y-20907221D01*
X28981458Y-20898152D01*
X28985655Y-20889278D01*
X28990283Y-20880620D01*
X28995329Y-20872200D01*
X29000783Y-20864038D01*
X29006631Y-20856154D01*
X29012858Y-20848565D01*
X29019451Y-20841292D01*
X29026392Y-20834351D01*
X29033665Y-20827758D01*
X29041254Y-20821531D01*
X29049138Y-20815683D01*
X29057300Y-20810229D01*
X29065720Y-20805183D01*
X29074378Y-20800555D01*
X29083252Y-20796358D01*
X29092321Y-20792601D01*
X29101564Y-20789294D01*
X29110957Y-20786445D01*
X29120480Y-20784060D01*
X29130108Y-20782144D01*
X29139818Y-20780704D01*
X29149587Y-20779742D01*
X29159392Y-20779260D01*
X29169208Y-20779260D01*
X29179013Y-20779742D01*
G37*
G36*
X30579013Y-20779742D02*
G01*
X30588782Y-20780704D01*
X30598492Y-20782144D01*
X30608120Y-20784060D01*
X30617643Y-20786445D01*
X30627036Y-20789294D01*
X30636279Y-20792601D01*
X30645348Y-20796358D01*
X30654222Y-20800555D01*
X30662880Y-20805183D01*
X30671300Y-20810229D01*
X30679462Y-20815683D01*
X30687346Y-20821531D01*
X30694935Y-20827758D01*
X30702208Y-20834351D01*
X30709149Y-20841292D01*
X30715742Y-20848565D01*
X30721969Y-20856154D01*
X30727817Y-20864038D01*
X30733271Y-20872200D01*
X30738317Y-20880620D01*
X30742945Y-20889278D01*
X30747142Y-20898152D01*
X30750899Y-20907221D01*
X30754206Y-20916464D01*
X30757055Y-20925857D01*
X30759440Y-20935380D01*
X30761356Y-20945008D01*
X30762796Y-20954718D01*
X30763758Y-20964487D01*
X30764240Y-20974292D01*
X30764240Y-20984108D01*
X30763758Y-20993913D01*
X30762796Y-21003682D01*
X30761356Y-21013392D01*
X30759440Y-21023020D01*
X30757055Y-21032543D01*
X30754206Y-21041936D01*
X30750899Y-21051179D01*
X30747142Y-21060248D01*
X30742945Y-21069122D01*
X30738317Y-21077780D01*
X30733271Y-21086200D01*
X30727817Y-21094362D01*
X30721969Y-21102246D01*
X30715742Y-21109835D01*
X30709149Y-21117108D01*
X30702208Y-21124049D01*
X30694935Y-21130642D01*
X30687346Y-21136869D01*
X30679462Y-21142717D01*
X30671300Y-21148171D01*
X30662880Y-21153217D01*
X30654222Y-21157845D01*
X30645348Y-21162042D01*
X30636279Y-21165799D01*
X30627036Y-21169106D01*
X30617643Y-21171955D01*
X30608120Y-21174340D01*
X30598492Y-21176256D01*
X30588782Y-21177696D01*
X30579013Y-21178658D01*
X30569208Y-21179140D01*
X30559392Y-21179140D01*
X30549587Y-21178658D01*
X30539818Y-21177696D01*
X30530108Y-21176256D01*
X30520480Y-21174340D01*
X30510957Y-21171955D01*
X30501564Y-21169106D01*
X30492321Y-21165799D01*
X30483252Y-21162042D01*
X30474378Y-21157845D01*
X30465720Y-21153217D01*
X30457300Y-21148171D01*
X30449138Y-21142717D01*
X30441254Y-21136869D01*
X30433665Y-21130642D01*
X30426392Y-21124049D01*
X30419451Y-21117108D01*
X30412858Y-21109835D01*
X30406631Y-21102246D01*
X30400783Y-21094362D01*
X30395329Y-21086200D01*
X30390283Y-21077780D01*
X30385655Y-21069122D01*
X30381458Y-21060248D01*
X30377701Y-21051179D01*
X30374394Y-21041936D01*
X30371545Y-21032543D01*
X30369160Y-21023020D01*
X30367244Y-21013392D01*
X30365804Y-21003682D01*
X30364842Y-20993913D01*
X30364360Y-20984108D01*
X30364360Y-20981654D01*
X30464330Y-20981654D01*
X30464571Y-20986556D01*
X30465052Y-20991441D01*
X30465772Y-20996296D01*
X30466730Y-21001110D01*
X30467922Y-21005871D01*
X30469347Y-21010568D01*
X30471001Y-21015190D01*
X30472879Y-21019724D01*
X30474978Y-21024161D01*
X30477291Y-21028490D01*
X30479815Y-21032700D01*
X30482542Y-21036781D01*
X30485465Y-21040723D01*
X30488579Y-21044517D01*
X30491875Y-21048154D01*
X30495346Y-21051625D01*
X30498983Y-21054921D01*
X30502777Y-21058035D01*
X30506719Y-21060958D01*
X30510800Y-21063685D01*
X30515010Y-21066209D01*
X30519339Y-21068522D01*
X30523776Y-21070621D01*
X30528310Y-21072499D01*
X30532932Y-21074153D01*
X30537629Y-21075578D01*
X30542390Y-21076770D01*
X30547204Y-21077728D01*
X30552059Y-21078448D01*
X30556944Y-21078929D01*
X30561846Y-21079170D01*
X30566754Y-21079170D01*
X30571656Y-21078929D01*
X30576541Y-21078448D01*
X30581396Y-21077728D01*
X30586210Y-21076770D01*
X30590971Y-21075578D01*
X30595668Y-21074153D01*
X30600290Y-21072499D01*
X30604824Y-21070621D01*
X30609261Y-21068522D01*
X30613590Y-21066209D01*
X30617800Y-21063685D01*
X30621881Y-21060958D01*
X30625823Y-21058035D01*
X30629617Y-21054921D01*
X30633254Y-21051625D01*
X30636725Y-21048154D01*
X30640021Y-21044517D01*
X30643135Y-21040723D01*
X30646058Y-21036781D01*
X30648785Y-21032700D01*
X30651309Y-21028490D01*
X30653622Y-21024161D01*
X30655721Y-21019724D01*
X30657599Y-21015190D01*
X30659253Y-21010568D01*
X30660678Y-21005871D01*
X30661870Y-21001110D01*
X30662828Y-20996296D01*
X30663548Y-20991441D01*
X30664029Y-20986556D01*
X30664270Y-20981654D01*
X30664270Y-20976746D01*
X30664029Y-20971844D01*
X30663548Y-20966959D01*
X30662828Y-20962104D01*
X30661870Y-20957290D01*
X30660678Y-20952529D01*
X30659253Y-20947832D01*
X30657599Y-20943210D01*
X30655721Y-20938676D01*
X30653622Y-20934239D01*
X30651309Y-20929910D01*
X30648785Y-20925700D01*
X30646058Y-20921619D01*
X30643135Y-20917677D01*
X30640021Y-20913883D01*
X30636725Y-20910246D01*
X30633254Y-20906775D01*
X30629617Y-20903479D01*
X30625823Y-20900365D01*
X30621881Y-20897442D01*
X30617800Y-20894715D01*
X30613590Y-20892191D01*
X30609261Y-20889878D01*
X30604824Y-20887779D01*
X30600290Y-20885901D01*
X30595668Y-20884247D01*
X30590971Y-20882822D01*
X30586210Y-20881630D01*
X30581396Y-20880672D01*
X30576541Y-20879952D01*
X30571656Y-20879471D01*
X30566754Y-20879230D01*
X30561846Y-20879230D01*
X30556944Y-20879471D01*
X30552059Y-20879952D01*
X30547204Y-20880672D01*
X30542390Y-20881630D01*
X30537629Y-20882822D01*
X30532932Y-20884247D01*
X30528310Y-20885901D01*
X30523776Y-20887779D01*
X30519339Y-20889878D01*
X30515010Y-20892191D01*
X30510800Y-20894715D01*
X30506719Y-20897442D01*
X30502777Y-20900365D01*
X30498983Y-20903479D01*
X30495346Y-20906775D01*
X30491875Y-20910246D01*
X30488579Y-20913883D01*
X30485465Y-20917677D01*
X30482542Y-20921619D01*
X30479815Y-20925700D01*
X30477291Y-20929910D01*
X30474978Y-20934239D01*
X30472879Y-20938676D01*
X30471001Y-20943210D01*
X30469347Y-20947832D01*
X30467922Y-20952529D01*
X30466730Y-20957290D01*
X30465772Y-20962104D01*
X30465052Y-20966959D01*
X30464571Y-20971844D01*
X30464330Y-20976746D01*
X30464330Y-20981654D01*
X30364360Y-20981654D01*
X30364360Y-20974292D01*
X30364842Y-20964487D01*
X30365804Y-20954718D01*
X30367244Y-20945008D01*
X30369160Y-20935380D01*
X30371545Y-20925857D01*
X30374394Y-20916464D01*
X30377701Y-20907221D01*
X30381458Y-20898152D01*
X30385655Y-20889278D01*
X30390283Y-20880620D01*
X30395329Y-20872200D01*
X30400783Y-20864038D01*
X30406631Y-20856154D01*
X30412858Y-20848565D01*
X30419451Y-20841292D01*
X30426392Y-20834351D01*
X30433665Y-20827758D01*
X30441254Y-20821531D01*
X30449138Y-20815683D01*
X30457300Y-20810229D01*
X30465720Y-20805183D01*
X30474378Y-20800555D01*
X30483252Y-20796358D01*
X30492321Y-20792601D01*
X30501564Y-20789294D01*
X30510957Y-20786445D01*
X30520480Y-20784060D01*
X30530108Y-20782144D01*
X30539818Y-20780704D01*
X30549587Y-20779742D01*
X30559392Y-20779260D01*
X30569208Y-20779260D01*
X30579013Y-20779742D01*
G37*
G36*
X27779013Y-19379742D02*
G01*
X27788782Y-19380704D01*
X27798492Y-19382144D01*
X27808120Y-19384060D01*
X27817643Y-19386445D01*
X27827036Y-19389294D01*
X27836279Y-19392601D01*
X27845348Y-19396358D01*
X27854222Y-19400555D01*
X27862880Y-19405183D01*
X27871300Y-19410229D01*
X27879462Y-19415683D01*
X27887346Y-19421531D01*
X27894935Y-19427758D01*
X27902208Y-19434351D01*
X27909149Y-19441292D01*
X27915742Y-19448565D01*
X27921969Y-19456154D01*
X27927817Y-19464038D01*
X27933271Y-19472200D01*
X27938317Y-19480620D01*
X27942945Y-19489278D01*
X27947142Y-19498152D01*
X27950899Y-19507221D01*
X27954206Y-19516464D01*
X27957055Y-19525857D01*
X27959440Y-19535380D01*
X27961356Y-19545008D01*
X27962796Y-19554718D01*
X27963758Y-19564487D01*
X27964240Y-19574292D01*
X27964240Y-19584108D01*
X27963758Y-19593913D01*
X27962796Y-19603682D01*
X27961356Y-19613392D01*
X27959440Y-19623020D01*
X27957055Y-19632543D01*
X27954206Y-19641936D01*
X27950899Y-19651179D01*
X27947142Y-19660248D01*
X27942945Y-19669122D01*
X27938317Y-19677780D01*
X27933271Y-19686200D01*
X27927817Y-19694362D01*
X27921969Y-19702246D01*
X27915742Y-19709835D01*
X27909149Y-19717108D01*
X27902208Y-19724049D01*
X27894935Y-19730642D01*
X27887346Y-19736869D01*
X27879462Y-19742717D01*
X27871300Y-19748171D01*
X27862880Y-19753217D01*
X27854222Y-19757845D01*
X27845348Y-19762042D01*
X27836279Y-19765799D01*
X27827036Y-19769106D01*
X27817643Y-19771955D01*
X27808120Y-19774340D01*
X27798492Y-19776256D01*
X27788782Y-19777696D01*
X27779013Y-19778658D01*
X27769208Y-19779140D01*
X27759392Y-19779140D01*
X27749587Y-19778658D01*
X27739818Y-19777696D01*
X27730108Y-19776256D01*
X27720480Y-19774340D01*
X27710957Y-19771955D01*
X27701564Y-19769106D01*
X27692321Y-19765799D01*
X27683252Y-19762042D01*
X27674378Y-19757845D01*
X27665720Y-19753217D01*
X27657300Y-19748171D01*
X27649138Y-19742717D01*
X27641254Y-19736869D01*
X27633665Y-19730642D01*
X27626392Y-19724049D01*
X27619451Y-19717108D01*
X27612858Y-19709835D01*
X27606631Y-19702246D01*
X27600783Y-19694362D01*
X27595329Y-19686200D01*
X27590283Y-19677780D01*
X27585655Y-19669122D01*
X27581458Y-19660248D01*
X27577701Y-19651179D01*
X27574394Y-19641936D01*
X27571545Y-19632543D01*
X27569160Y-19623020D01*
X27567244Y-19613392D01*
X27565804Y-19603682D01*
X27564842Y-19593913D01*
X27564360Y-19584108D01*
X27564360Y-19581654D01*
X27664330Y-19581654D01*
X27664571Y-19586556D01*
X27665052Y-19591441D01*
X27665772Y-19596296D01*
X27666730Y-19601110D01*
X27667922Y-19605871D01*
X27669347Y-19610568D01*
X27671001Y-19615190D01*
X27672879Y-19619724D01*
X27674978Y-19624161D01*
X27677291Y-19628490D01*
X27679815Y-19632700D01*
X27682542Y-19636781D01*
X27685465Y-19640723D01*
X27688579Y-19644517D01*
X27691875Y-19648154D01*
X27695346Y-19651625D01*
X27698983Y-19654921D01*
X27702777Y-19658035D01*
X27706719Y-19660958D01*
X27710800Y-19663685D01*
X27715010Y-19666209D01*
X27719339Y-19668522D01*
X27723776Y-19670621D01*
X27728310Y-19672499D01*
X27732932Y-19674153D01*
X27737629Y-19675578D01*
X27742390Y-19676770D01*
X27747204Y-19677728D01*
X27752059Y-19678448D01*
X27756944Y-19678929D01*
X27761846Y-19679170D01*
X27766754Y-19679170D01*
X27771656Y-19678929D01*
X27776541Y-19678448D01*
X27781396Y-19677728D01*
X27786210Y-19676770D01*
X27790971Y-19675578D01*
X27795668Y-19674153D01*
X27800290Y-19672499D01*
X27804824Y-19670621D01*
X27809261Y-19668522D01*
X27813590Y-19666209D01*
X27817800Y-19663685D01*
X27821881Y-19660958D01*
X27825823Y-19658035D01*
X27829617Y-19654921D01*
X27833254Y-19651625D01*
X27836725Y-19648154D01*
X27840021Y-19644517D01*
X27843135Y-19640723D01*
X27846058Y-19636781D01*
X27848785Y-19632700D01*
X27851309Y-19628490D01*
X27853622Y-19624161D01*
X27855721Y-19619724D01*
X27857599Y-19615190D01*
X27859253Y-19610568D01*
X27860678Y-19605871D01*
X27861870Y-19601110D01*
X27862828Y-19596296D01*
X27863548Y-19591441D01*
X27864029Y-19586556D01*
X27864270Y-19581654D01*
X27864270Y-19576746D01*
X27864029Y-19571844D01*
X27863548Y-19566959D01*
X27862828Y-19562104D01*
X27861870Y-19557290D01*
X27860678Y-19552529D01*
X27859253Y-19547832D01*
X27857599Y-19543210D01*
X27855721Y-19538676D01*
X27853622Y-19534239D01*
X27851309Y-19529910D01*
X27848785Y-19525700D01*
X27846058Y-19521619D01*
X27843135Y-19517677D01*
X27840021Y-19513883D01*
X27836725Y-19510246D01*
X27833254Y-19506775D01*
X27829617Y-19503479D01*
X27825823Y-19500365D01*
X27821881Y-19497442D01*
X27817800Y-19494715D01*
X27813590Y-19492191D01*
X27809261Y-19489878D01*
X27804824Y-19487779D01*
X27800290Y-19485901D01*
X27795668Y-19484247D01*
X27790971Y-19482822D01*
X27786210Y-19481630D01*
X27781396Y-19480672D01*
X27776541Y-19479952D01*
X27771656Y-19479471D01*
X27766754Y-19479230D01*
X27761846Y-19479230D01*
X27756944Y-19479471D01*
X27752059Y-19479952D01*
X27747204Y-19480672D01*
X27742390Y-19481630D01*
X27737629Y-19482822D01*
X27732932Y-19484247D01*
X27728310Y-19485901D01*
X27723776Y-19487779D01*
X27719339Y-19489878D01*
X27715010Y-19492191D01*
X27710800Y-19494715D01*
X27706719Y-19497442D01*
X27702777Y-19500365D01*
X27698983Y-19503479D01*
X27695346Y-19506775D01*
X27691875Y-19510246D01*
X27688579Y-19513883D01*
X27685465Y-19517677D01*
X27682542Y-19521619D01*
X27679815Y-19525700D01*
X27677291Y-19529910D01*
X27674978Y-19534239D01*
X27672879Y-19538676D01*
X27671001Y-19543210D01*
X27669347Y-19547832D01*
X27667922Y-19552529D01*
X27666730Y-19557290D01*
X27665772Y-19562104D01*
X27665052Y-19566959D01*
X27664571Y-19571844D01*
X27664330Y-19576746D01*
X27664330Y-19581654D01*
X27564360Y-19581654D01*
X27564360Y-19574292D01*
X27564842Y-19564487D01*
X27565804Y-19554718D01*
X27567244Y-19545008D01*
X27569160Y-19535380D01*
X27571545Y-19525857D01*
X27574394Y-19516464D01*
X27577701Y-19507221D01*
X27581458Y-19498152D01*
X27585655Y-19489278D01*
X27590283Y-19480620D01*
X27595329Y-19472200D01*
X27600783Y-19464038D01*
X27606631Y-19456154D01*
X27612858Y-19448565D01*
X27619451Y-19441292D01*
X27626392Y-19434351D01*
X27633665Y-19427758D01*
X27641254Y-19421531D01*
X27649138Y-19415683D01*
X27657300Y-19410229D01*
X27665720Y-19405183D01*
X27674378Y-19400555D01*
X27683252Y-19396358D01*
X27692321Y-19392601D01*
X27701564Y-19389294D01*
X27710957Y-19386445D01*
X27720480Y-19384060D01*
X27730108Y-19382144D01*
X27739818Y-19380704D01*
X27749587Y-19379742D01*
X27759392Y-19379260D01*
X27769208Y-19379260D01*
X27779013Y-19379742D01*
G37*
G36*
X30579013Y-19379742D02*
G01*
X30588782Y-19380704D01*
X30598492Y-19382144D01*
X30608120Y-19384060D01*
X30617643Y-19386445D01*
X30627036Y-19389294D01*
X30636279Y-19392601D01*
X30645348Y-19396358D01*
X30654222Y-19400555D01*
X30662880Y-19405183D01*
X30671300Y-19410229D01*
X30679462Y-19415683D01*
X30687346Y-19421531D01*
X30694935Y-19427758D01*
X30702208Y-19434351D01*
X30709149Y-19441292D01*
X30715742Y-19448565D01*
X30721969Y-19456154D01*
X30727817Y-19464038D01*
X30733271Y-19472200D01*
X30738317Y-19480620D01*
X30742945Y-19489278D01*
X30747142Y-19498152D01*
X30750899Y-19507221D01*
X30754206Y-19516464D01*
X30757055Y-19525857D01*
X30759440Y-19535380D01*
X30761356Y-19545008D01*
X30762796Y-19554718D01*
X30763758Y-19564487D01*
X30764240Y-19574292D01*
X30764240Y-19584108D01*
X30763758Y-19593913D01*
X30762796Y-19603682D01*
X30761356Y-19613392D01*
X30759440Y-19623020D01*
X30757055Y-19632543D01*
X30754206Y-19641936D01*
X30750899Y-19651179D01*
X30747142Y-19660248D01*
X30742945Y-19669122D01*
X30738317Y-19677780D01*
X30733271Y-19686200D01*
X30727817Y-19694362D01*
X30721969Y-19702246D01*
X30715742Y-19709835D01*
X30709149Y-19717108D01*
X30702208Y-19724049D01*
X30694935Y-19730642D01*
X30687346Y-19736869D01*
X30679462Y-19742717D01*
X30671300Y-19748171D01*
X30662880Y-19753217D01*
X30654222Y-19757845D01*
X30645348Y-19762042D01*
X30636279Y-19765799D01*
X30627036Y-19769106D01*
X30617643Y-19771955D01*
X30608120Y-19774340D01*
X30598492Y-19776256D01*
X30588782Y-19777696D01*
X30579013Y-19778658D01*
X30569208Y-19779140D01*
X30559392Y-19779140D01*
X30549587Y-19778658D01*
X30539818Y-19777696D01*
X30530108Y-19776256D01*
X30520480Y-19774340D01*
X30510957Y-19771955D01*
X30501564Y-19769106D01*
X30492321Y-19765799D01*
X30483252Y-19762042D01*
X30474378Y-19757845D01*
X30465720Y-19753217D01*
X30457300Y-19748171D01*
X30449138Y-19742717D01*
X30441254Y-19736869D01*
X30433665Y-19730642D01*
X30426392Y-19724049D01*
X30419451Y-19717108D01*
X30412858Y-19709835D01*
X30406631Y-19702246D01*
X30400783Y-19694362D01*
X30395329Y-19686200D01*
X30390283Y-19677780D01*
X30385655Y-19669122D01*
X30381458Y-19660248D01*
X30377701Y-19651179D01*
X30374394Y-19641936D01*
X30371545Y-19632543D01*
X30369160Y-19623020D01*
X30367244Y-19613392D01*
X30365804Y-19603682D01*
X30364842Y-19593913D01*
X30364360Y-19584108D01*
X30364360Y-19581654D01*
X30464330Y-19581654D01*
X30464571Y-19586556D01*
X30465052Y-19591441D01*
X30465772Y-19596296D01*
X30466730Y-19601110D01*
X30467922Y-19605871D01*
X30469347Y-19610568D01*
X30471001Y-19615190D01*
X30472879Y-19619724D01*
X30474978Y-19624161D01*
X30477291Y-19628490D01*
X30479815Y-19632700D01*
X30482542Y-19636781D01*
X30485465Y-19640723D01*
X30488579Y-19644517D01*
X30491875Y-19648154D01*
X30495346Y-19651625D01*
X30498983Y-19654921D01*
X30502777Y-19658035D01*
X30506719Y-19660958D01*
X30510800Y-19663685D01*
X30515010Y-19666209D01*
X30519339Y-19668522D01*
X30523776Y-19670621D01*
X30528310Y-19672499D01*
X30532932Y-19674153D01*
X30537629Y-19675578D01*
X30542390Y-19676770D01*
X30547204Y-19677728D01*
X30552059Y-19678448D01*
X30556944Y-19678929D01*
X30561846Y-19679170D01*
X30566754Y-19679170D01*
X30571656Y-19678929D01*
X30576541Y-19678448D01*
X30581396Y-19677728D01*
X30586210Y-19676770D01*
X30590971Y-19675578D01*
X30595668Y-19674153D01*
X30600290Y-19672499D01*
X30604824Y-19670621D01*
X30609261Y-19668522D01*
X30613590Y-19666209D01*
X30617800Y-19663685D01*
X30621881Y-19660958D01*
X30625823Y-19658035D01*
X30629617Y-19654921D01*
X30633254Y-19651625D01*
X30636725Y-19648154D01*
X30640021Y-19644517D01*
X30643135Y-19640723D01*
X30646058Y-19636781D01*
X30648785Y-19632700D01*
X30651309Y-19628490D01*
X30653622Y-19624161D01*
X30655721Y-19619724D01*
X30657599Y-19615190D01*
X30659253Y-19610568D01*
X30660678Y-19605871D01*
X30661870Y-19601110D01*
X30662828Y-19596296D01*
X30663548Y-19591441D01*
X30664029Y-19586556D01*
X30664270Y-19581654D01*
X30664270Y-19576746D01*
X30664029Y-19571844D01*
X30663548Y-19566959D01*
X30662828Y-19562104D01*
X30661870Y-19557290D01*
X30660678Y-19552529D01*
X30659253Y-19547832D01*
X30657599Y-19543210D01*
X30655721Y-19538676D01*
X30653622Y-19534239D01*
X30651309Y-19529910D01*
X30648785Y-19525700D01*
X30646058Y-19521619D01*
X30643135Y-19517677D01*
X30640021Y-19513883D01*
X30636725Y-19510246D01*
X30633254Y-19506775D01*
X30629617Y-19503479D01*
X30625823Y-19500365D01*
X30621881Y-19497442D01*
X30617800Y-19494715D01*
X30613590Y-19492191D01*
X30609261Y-19489878D01*
X30604824Y-19487779D01*
X30600290Y-19485901D01*
X30595668Y-19484247D01*
X30590971Y-19482822D01*
X30586210Y-19481630D01*
X30581396Y-19480672D01*
X30576541Y-19479952D01*
X30571656Y-19479471D01*
X30566754Y-19479230D01*
X30561846Y-19479230D01*
X30556944Y-19479471D01*
X30552059Y-19479952D01*
X30547204Y-19480672D01*
X30542390Y-19481630D01*
X30537629Y-19482822D01*
X30532932Y-19484247D01*
X30528310Y-19485901D01*
X30523776Y-19487779D01*
X30519339Y-19489878D01*
X30515010Y-19492191D01*
X30510800Y-19494715D01*
X30506719Y-19497442D01*
X30502777Y-19500365D01*
X30498983Y-19503479D01*
X30495346Y-19506775D01*
X30491875Y-19510246D01*
X30488579Y-19513883D01*
X30485465Y-19517677D01*
X30482542Y-19521619D01*
X30479815Y-19525700D01*
X30477291Y-19529910D01*
X30474978Y-19534239D01*
X30472879Y-19538676D01*
X30471001Y-19543210D01*
X30469347Y-19547832D01*
X30467922Y-19552529D01*
X30466730Y-19557290D01*
X30465772Y-19562104D01*
X30465052Y-19566959D01*
X30464571Y-19571844D01*
X30464330Y-19576746D01*
X30464330Y-19581654D01*
X30364360Y-19581654D01*
X30364360Y-19574292D01*
X30364842Y-19564487D01*
X30365804Y-19554718D01*
X30367244Y-19545008D01*
X30369160Y-19535380D01*
X30371545Y-19525857D01*
X30374394Y-19516464D01*
X30377701Y-19507221D01*
X30381458Y-19498152D01*
X30385655Y-19489278D01*
X30390283Y-19480620D01*
X30395329Y-19472200D01*
X30400783Y-19464038D01*
X30406631Y-19456154D01*
X30412858Y-19448565D01*
X30419451Y-19441292D01*
X30426392Y-19434351D01*
X30433665Y-19427758D01*
X30441254Y-19421531D01*
X30449138Y-19415683D01*
X30457300Y-19410229D01*
X30465720Y-19405183D01*
X30474378Y-19400555D01*
X30483252Y-19396358D01*
X30492321Y-19392601D01*
X30501564Y-19389294D01*
X30510957Y-19386445D01*
X30520480Y-19384060D01*
X30530108Y-19382144D01*
X30539818Y-19380704D01*
X30549587Y-19379742D01*
X30559392Y-19379260D01*
X30569208Y-19379260D01*
X30579013Y-19379742D01*
G37*
G36*
X29179013Y-19379742D02*
G01*
X29188782Y-19380704D01*
X29198492Y-19382144D01*
X29208120Y-19384060D01*
X29217643Y-19386445D01*
X29227036Y-19389294D01*
X29236279Y-19392601D01*
X29245348Y-19396358D01*
X29254222Y-19400555D01*
X29262880Y-19405183D01*
X29271300Y-19410229D01*
X29279462Y-19415683D01*
X29287346Y-19421531D01*
X29294935Y-19427758D01*
X29302208Y-19434351D01*
X29309149Y-19441292D01*
X29315742Y-19448565D01*
X29321969Y-19456154D01*
X29327817Y-19464038D01*
X29333271Y-19472200D01*
X29338317Y-19480620D01*
X29342945Y-19489278D01*
X29347142Y-19498152D01*
X29350899Y-19507221D01*
X29354206Y-19516464D01*
X29357055Y-19525857D01*
X29359440Y-19535380D01*
X29361356Y-19545008D01*
X29362796Y-19554718D01*
X29363758Y-19564487D01*
X29364240Y-19574292D01*
X29364240Y-19584108D01*
X29363758Y-19593913D01*
X29362796Y-19603682D01*
X29361356Y-19613392D01*
X29359440Y-19623020D01*
X29357055Y-19632543D01*
X29354206Y-19641936D01*
X29350899Y-19651179D01*
X29347142Y-19660248D01*
X29342945Y-19669122D01*
X29338317Y-19677780D01*
X29333271Y-19686200D01*
X29327817Y-19694362D01*
X29321969Y-19702246D01*
X29315742Y-19709835D01*
X29309149Y-19717108D01*
X29302208Y-19724049D01*
X29294935Y-19730642D01*
X29287346Y-19736869D01*
X29279462Y-19742717D01*
X29271300Y-19748171D01*
X29262880Y-19753217D01*
X29254222Y-19757845D01*
X29245348Y-19762042D01*
X29236279Y-19765799D01*
X29227036Y-19769106D01*
X29217643Y-19771955D01*
X29208120Y-19774340D01*
X29198492Y-19776256D01*
X29188782Y-19777696D01*
X29179013Y-19778658D01*
X29169208Y-19779140D01*
X29159392Y-19779140D01*
X29149587Y-19778658D01*
X29139818Y-19777696D01*
X29130108Y-19776256D01*
X29120480Y-19774340D01*
X29110957Y-19771955D01*
X29101564Y-19769106D01*
X29092321Y-19765799D01*
X29083252Y-19762042D01*
X29074378Y-19757845D01*
X29065720Y-19753217D01*
X29057300Y-19748171D01*
X29049138Y-19742717D01*
X29041254Y-19736869D01*
X29033665Y-19730642D01*
X29026392Y-19724049D01*
X29019451Y-19717108D01*
X29012858Y-19709835D01*
X29006631Y-19702246D01*
X29000783Y-19694362D01*
X28995329Y-19686200D01*
X28990283Y-19677780D01*
X28985655Y-19669122D01*
X28981458Y-19660248D01*
X28977701Y-19651179D01*
X28974394Y-19641936D01*
X28971545Y-19632543D01*
X28969160Y-19623020D01*
X28967244Y-19613392D01*
X28965804Y-19603682D01*
X28964842Y-19593913D01*
X28964360Y-19584108D01*
X28964360Y-19581654D01*
X29064330Y-19581654D01*
X29064571Y-19586556D01*
X29065052Y-19591441D01*
X29065772Y-19596296D01*
X29066730Y-19601110D01*
X29067922Y-19605871D01*
X29069347Y-19610568D01*
X29071001Y-19615190D01*
X29072879Y-19619724D01*
X29074978Y-19624161D01*
X29077291Y-19628490D01*
X29079815Y-19632700D01*
X29082542Y-19636781D01*
X29085465Y-19640723D01*
X29088579Y-19644517D01*
X29091875Y-19648154D01*
X29095346Y-19651625D01*
X29098983Y-19654921D01*
X29102777Y-19658035D01*
X29106719Y-19660958D01*
X29110800Y-19663685D01*
X29115010Y-19666209D01*
X29119339Y-19668522D01*
X29123776Y-19670621D01*
X29128310Y-19672499D01*
X29132932Y-19674153D01*
X29137629Y-19675578D01*
X29142390Y-19676770D01*
X29147204Y-19677728D01*
X29152059Y-19678448D01*
X29156944Y-19678929D01*
X29161846Y-19679170D01*
X29166754Y-19679170D01*
X29171656Y-19678929D01*
X29176541Y-19678448D01*
X29181396Y-19677728D01*
X29186210Y-19676770D01*
X29190971Y-19675578D01*
X29195668Y-19674153D01*
X29200290Y-19672499D01*
X29204824Y-19670621D01*
X29209261Y-19668522D01*
X29213590Y-19666209D01*
X29217800Y-19663685D01*
X29221881Y-19660958D01*
X29225823Y-19658035D01*
X29229617Y-19654921D01*
X29233254Y-19651625D01*
X29236725Y-19648154D01*
X29240021Y-19644517D01*
X29243135Y-19640723D01*
X29246058Y-19636781D01*
X29248785Y-19632700D01*
X29251309Y-19628490D01*
X29253622Y-19624161D01*
X29255721Y-19619724D01*
X29257599Y-19615190D01*
X29259253Y-19610568D01*
X29260678Y-19605871D01*
X29261870Y-19601110D01*
X29262828Y-19596296D01*
X29263548Y-19591441D01*
X29264029Y-19586556D01*
X29264270Y-19581654D01*
X29264270Y-19576746D01*
X29264029Y-19571844D01*
X29263548Y-19566959D01*
X29262828Y-19562104D01*
X29261870Y-19557290D01*
X29260678Y-19552529D01*
X29259253Y-19547832D01*
X29257599Y-19543210D01*
X29255721Y-19538676D01*
X29253622Y-19534239D01*
X29251309Y-19529910D01*
X29248785Y-19525700D01*
X29246058Y-19521619D01*
X29243135Y-19517677D01*
X29240021Y-19513883D01*
X29236725Y-19510246D01*
X29233254Y-19506775D01*
X29229617Y-19503479D01*
X29225823Y-19500365D01*
X29221881Y-19497442D01*
X29217800Y-19494715D01*
X29213590Y-19492191D01*
X29209261Y-19489878D01*
X29204824Y-19487779D01*
X29200290Y-19485901D01*
X29195668Y-19484247D01*
X29190971Y-19482822D01*
X29186210Y-19481630D01*
X29181396Y-19480672D01*
X29176541Y-19479952D01*
X29171656Y-19479471D01*
X29166754Y-19479230D01*
X29161846Y-19479230D01*
X29156944Y-19479471D01*
X29152059Y-19479952D01*
X29147204Y-19480672D01*
X29142390Y-19481630D01*
X29137629Y-19482822D01*
X29132932Y-19484247D01*
X29128310Y-19485901D01*
X29123776Y-19487779D01*
X29119339Y-19489878D01*
X29115010Y-19492191D01*
X29110800Y-19494715D01*
X29106719Y-19497442D01*
X29102777Y-19500365D01*
X29098983Y-19503479D01*
X29095346Y-19506775D01*
X29091875Y-19510246D01*
X29088579Y-19513883D01*
X29085465Y-19517677D01*
X29082542Y-19521619D01*
X29079815Y-19525700D01*
X29077291Y-19529910D01*
X29074978Y-19534239D01*
X29072879Y-19538676D01*
X29071001Y-19543210D01*
X29069347Y-19547832D01*
X29067922Y-19552529D01*
X29066730Y-19557290D01*
X29065772Y-19562104D01*
X29065052Y-19566959D01*
X29064571Y-19571844D01*
X29064330Y-19576746D01*
X29064330Y-19581654D01*
X28964360Y-19581654D01*
X28964360Y-19574292D01*
X28964842Y-19564487D01*
X28965804Y-19554718D01*
X28967244Y-19545008D01*
X28969160Y-19535380D01*
X28971545Y-19525857D01*
X28974394Y-19516464D01*
X28977701Y-19507221D01*
X28981458Y-19498152D01*
X28985655Y-19489278D01*
X28990283Y-19480620D01*
X28995329Y-19472200D01*
X29000783Y-19464038D01*
X29006631Y-19456154D01*
X29012858Y-19448565D01*
X29019451Y-19441292D01*
X29026392Y-19434351D01*
X29033665Y-19427758D01*
X29041254Y-19421531D01*
X29049138Y-19415683D01*
X29057300Y-19410229D01*
X29065720Y-19405183D01*
X29074378Y-19400555D01*
X29083252Y-19396358D01*
X29092321Y-19392601D01*
X29101564Y-19389294D01*
X29110957Y-19386445D01*
X29120480Y-19384060D01*
X29130108Y-19382144D01*
X29139818Y-19380704D01*
X29149587Y-19379742D01*
X29159392Y-19379260D01*
X29169208Y-19379260D01*
X29179013Y-19379742D01*
G37*
%TD*%
M02*
