%TF.GenerationSoftware,Flux,Pcbnew,7.0.11-7.0.11~ubuntu20.04.1*%
%TF.CreationDate,2024-08-16T08:07:52+00:00*%
%TF.ProjectId,input,696e7075-742e-46b6-9963-61645f706362,rev?*%
%TF.SameCoordinates,Original*%
%TF.FileFunction,Profile,NP*%
%FSLAX46Y46*%
G04 Gerber Fmt 4.6, Leading zero omitted, Abs format (unit mm)*
G04 Filename: betterflipperzero*
G04 Build it with Flux! Visit our site at: https://www.flux.ai (PCBNEW 7.0.11-7.0.11~ubuntu20.04.1) date 2024-08-16 08:07:52*
%MOMM*%
%LPD*%
G01*
G04 APERTURE LIST*
%TA.AperFunction,Profile*%
%ADD10C,0.050000*%
%TD*%
G04 APERTURE END LIST*
D10*
X11700000Y-25907400D02*
X11175669Y-25556619D01*
X11175669Y-25556619D02*
X10683750Y-25164153D01*
X10683750Y-25164153D02*
X10226756Y-24732516D01*
X10226756Y-24732516D02*
X9807200Y-24264222D01*
X9807200Y-24264222D02*
X9427594Y-23761787D01*
X9427594Y-23761787D02*
X9090450Y-23227725D01*
X9090450Y-23227725D02*
X8798281Y-22664550D01*
X8798281Y-22664550D02*
X8553600Y-22074778D01*
X8553600Y-22074778D02*
X8358919Y-21460922D01*
X8358919Y-21460922D02*
X8216750Y-20825497D01*
X8216750Y-20825497D02*
X8129606Y-20171018D01*
X8129606Y-20171018D02*
X8100000Y-19500000D01*
X8100000Y-19500000D02*
X8134326Y-18777717D01*
X8134326Y-18777717D02*
X8235211Y-18074864D01*
X8235211Y-18074864D02*
X8399513Y-17394581D01*
X8399513Y-17394581D02*
X8624089Y-16740011D01*
X8624089Y-16740011D02*
X8905799Y-16114295D01*
X8905799Y-16114295D02*
X9241500Y-15520575D01*
X9241500Y-15520575D02*
X9628051Y-14961992D01*
X9628051Y-14961992D02*
X10062311Y-14441689D01*
X10062311Y-14441689D02*
X10541138Y-13962806D01*
X10541138Y-13962806D02*
X11061389Y-13528486D01*
X11061389Y-13528486D02*
X11619924Y-13141870D01*
X11619924Y-13141870D02*
X12213600Y-12806100D01*
X12213600Y-12806100D02*
X12633638Y-11674144D01*
X12633638Y-11674144D02*
X13166500Y-10602431D01*
X13166500Y-10602431D02*
X13804913Y-9598238D01*
X13804913Y-9598238D02*
X14541600Y-8668844D01*
X14541600Y-8668844D02*
X15369288Y-7821531D01*
X15369288Y-7821531D02*
X16280700Y-7063575D01*
X16280700Y-7063575D02*
X17268563Y-6402257D01*
X17268563Y-6402257D02*
X18325600Y-5844856D01*
X18325600Y-5844856D02*
X19444538Y-5398650D01*
X19444538Y-5398650D02*
X20618100Y-5070919D01*
X20618100Y-5070919D02*
X21839013Y-4868943D01*
X21839013Y-4868943D02*
X23100000Y-4800000D01*
X23100000Y-4800000D02*
X30900000Y-4800000D01*
X30900000Y-4800000D02*
X32087701Y-4861126D01*
X32087701Y-4861126D02*
X33240310Y-5040458D01*
X33240310Y-5040458D02*
X34351758Y-5331928D01*
X34351758Y-5331928D02*
X35415978Y-5729467D01*
X35415978Y-5729467D02*
X36426902Y-6227005D01*
X36426902Y-6227005D02*
X37378462Y-6818475D01*
X37378462Y-6818475D02*
X38264592Y-7497807D01*
X38264592Y-7497807D02*
X39079222Y-8258933D01*
X39079222Y-8258933D02*
X39816286Y-9095784D01*
X39816286Y-9095784D02*
X40469715Y-10002292D01*
X40469715Y-10002292D02*
X41033443Y-10972386D01*
X41033443Y-10972386D02*
X41501400Y-12000000D01*
X41501400Y-12000000D02*
X44100000Y-12000000D01*
X44100000Y-12000000D02*
X44832740Y-12049296D01*
X44832740Y-12049296D02*
X45535521Y-12192896D01*
X45535521Y-12192896D02*
X46201908Y-12424364D01*
X46201908Y-12424364D02*
X46825467Y-12737267D01*
X46825467Y-12737267D02*
X47399763Y-13125169D01*
X47399763Y-13125169D02*
X47918362Y-13581638D01*
X47918362Y-13581638D02*
X48374831Y-14100237D01*
X48374831Y-14100237D02*
X48762733Y-14674533D01*
X48762733Y-14674533D02*
X49075636Y-15298092D01*
X49075636Y-15298092D02*
X49307104Y-15964479D01*
X49307104Y-15964479D02*
X49450704Y-16667260D01*
X49450704Y-16667260D02*
X49500000Y-17400000D01*
X49500000Y-17400000D02*
X49500000Y-36900000D01*
X49500000Y-36900000D02*
X49450704Y-37632740D01*
X49450704Y-37632740D02*
X49307104Y-38335521D01*
X49307104Y-38335521D02*
X49075636Y-39001908D01*
X49075636Y-39001908D02*
X48762733Y-39625467D01*
X48762733Y-39625467D02*
X48374831Y-40199763D01*
X48374831Y-40199763D02*
X47918362Y-40718362D01*
X47918362Y-40718362D02*
X47399763Y-41174831D01*
X47399763Y-41174831D02*
X46825467Y-41562733D01*
X46825467Y-41562733D02*
X46201908Y-41875636D01*
X46201908Y-41875636D02*
X45535521Y-42107104D01*
X45535521Y-42107104D02*
X44832740Y-42250704D01*
X44832740Y-42250704D02*
X44100000Y-42300000D01*
X44100000Y-42300000D02*
X42300000Y-42300000D01*
X42300000Y-42300000D02*
X42300000Y-47400000D01*
X42300000Y-47400000D02*
X42250704Y-48132740D01*
X42250704Y-48132740D02*
X42107104Y-48835521D01*
X42107104Y-48835521D02*
X41875636Y-49501908D01*
X41875636Y-49501908D02*
X41562733Y-50125467D01*
X41562733Y-50125467D02*
X41174831Y-50699763D01*
X41174831Y-50699763D02*
X40718362Y-51218362D01*
X40718362Y-51218362D02*
X40199763Y-51674831D01*
X40199763Y-51674831D02*
X39625467Y-52062733D01*
X39625467Y-52062733D02*
X39001908Y-52375636D01*
X39001908Y-52375636D02*
X38335521Y-52607104D01*
X38335521Y-52607104D02*
X37632740Y-52750704D01*
X37632740Y-52750704D02*
X36900000Y-52800000D01*
X36900000Y-52800000D02*
X34200000Y-52800000D01*
X34200000Y-52800000D02*
X33467260Y-52750704D01*
X33467260Y-52750704D02*
X32764479Y-52607104D01*
X32764479Y-52607104D02*
X32098092Y-52375636D01*
X32098092Y-52375636D02*
X31474533Y-52062733D01*
X31474533Y-52062733D02*
X30900237Y-51674831D01*
X30900237Y-51674831D02*
X30381638Y-51218362D01*
X30381638Y-51218362D02*
X29925169Y-50699763D01*
X29925169Y-50699763D02*
X29537267Y-50125467D01*
X29537267Y-50125467D02*
X29224364Y-49501908D01*
X29224364Y-49501908D02*
X28992896Y-48835521D01*
X28992896Y-48835521D02*
X28849296Y-48132740D01*
X28849296Y-48132740D02*
X28800000Y-47400000D01*
X28800000Y-47400000D02*
X28800000Y-43800000D01*
X28800000Y-43800000D02*
X25200000Y-43800000D01*
X25200000Y-43800000D02*
X25200000Y-47400000D01*
X25200000Y-47400000D02*
X25150704Y-48132740D01*
X25150704Y-48132740D02*
X25007104Y-48835521D01*
X25007104Y-48835521D02*
X24775636Y-49501908D01*
X24775636Y-49501908D02*
X24462733Y-50125467D01*
X24462733Y-50125467D02*
X24074831Y-50699763D01*
X24074831Y-50699763D02*
X23618363Y-51218362D01*
X23618363Y-51218362D02*
X23099763Y-51674831D01*
X23099763Y-51674831D02*
X22525467Y-52062733D01*
X22525467Y-52062733D02*
X21901908Y-52375636D01*
X21901908Y-52375636D02*
X21235521Y-52607104D01*
X21235521Y-52607104D02*
X20532740Y-52750704D01*
X20532740Y-52750704D02*
X19800000Y-52800000D01*
X19800000Y-52800000D02*
X17100000Y-52800000D01*
X17100000Y-52800000D02*
X16367260Y-52750704D01*
X16367260Y-52750704D02*
X15664479Y-52607104D01*
X15664479Y-52607104D02*
X14998092Y-52375636D01*
X14998092Y-52375636D02*
X14374533Y-52062733D01*
X14374533Y-52062733D02*
X13800237Y-51674831D01*
X13800237Y-51674831D02*
X13281638Y-51218362D01*
X13281638Y-51218362D02*
X12825169Y-50699763D01*
X12825169Y-50699763D02*
X12437267Y-50125467D01*
X12437267Y-50125467D02*
X12124364Y-49501908D01*
X12124364Y-49501908D02*
X11892896Y-48835521D01*
X11892896Y-48835521D02*
X11749296Y-48132740D01*
X11749296Y-48132740D02*
X11700000Y-47400000D01*
X11700000Y-47400000D02*
X11700000Y-25907400D01*
M02*
