%TF.GenerationSoftware,Flux,Pcbnew,7.0.11-7.0.11~ubuntu20.04.1*%
%TF.CreationDate,2024-08-16T08:07:52+00:00*%
%TF.ProjectId,input,696e7075-742e-46b6-9963-61645f706362,rev?*%
%TF.SameCoordinates,Original*%
%TF.FileFunction,Legend,Bot*%
%TF.FilePolarity,Positive*%
%FSLAX46Y46*%
G04 Gerber Fmt 4.6, Leading zero omitted, Abs format (unit mm)*
G04 Filename: betterflipperzero*
G04 Build it with Flux! Visit our site at: https://www.flux.ai (PCBNEW 7.0.11-7.0.11~ubuntu20.04.1) date 2024-08-16 08:07:52*
%MOMM*%
%LPD*%
G01*
G04 APERTURE LIST*
%ADD10C,0.095000*%
%ADD11C,0.200000*%
%ADD12C,0.127000*%
%ADD13C,0.050000*%
G04 APERTURE END LIST*
D10*
X34621442Y-8455783D02*
X34240489Y-8455783D01*
X34697632Y-8684355D02*
X34430965Y-7884355D01*
X34430965Y-7884355D02*
X34164299Y-8684355D01*
X33897632Y-8684355D02*
X33897632Y-7884355D01*
X33897632Y-7884355D02*
X33440489Y-8684355D01*
X33440489Y-8684355D02*
X33440489Y-7884355D01*
X33173823Y-7884355D02*
X32716680Y-7884355D01*
X32945252Y-8684355D02*
X32945252Y-7884355D01*
X32450013Y-8265307D02*
X32183347Y-8265307D01*
X32069061Y-8684355D02*
X32450013Y-8684355D01*
X32450013Y-8684355D02*
X32450013Y-7884355D01*
X32450013Y-7884355D02*
X32069061Y-7884355D01*
X31726203Y-8684355D02*
X31726203Y-7884355D01*
X31726203Y-7884355D02*
X31269060Y-8684355D01*
X31269060Y-8684355D02*
X31269060Y-7884355D01*
X30888108Y-8684355D02*
X30888108Y-7884355D01*
X30888108Y-7884355D02*
X30430965Y-8684355D01*
X30430965Y-8684355D02*
X30430965Y-7884355D01*
X30088109Y-8455783D02*
X29707156Y-8455783D01*
X30164299Y-8684355D02*
X29897632Y-7884355D01*
X29897632Y-7884355D02*
X29630966Y-8684355D01*
X37173823Y-31884355D02*
X37173823Y-32531974D01*
X37173823Y-32531974D02*
X37135728Y-32608164D01*
X37135728Y-32608164D02*
X37097633Y-32646260D01*
X37097633Y-32646260D02*
X37021442Y-32684355D01*
X37021442Y-32684355D02*
X36869061Y-32684355D01*
X36869061Y-32684355D02*
X36792871Y-32646260D01*
X36792871Y-32646260D02*
X36754776Y-32608164D01*
X36754776Y-32608164D02*
X36716680Y-32531974D01*
X36716680Y-32531974D02*
X36716680Y-31884355D01*
X35916681Y-32684355D02*
X36373824Y-32684355D01*
X36145252Y-32684355D02*
X36145252Y-31884355D01*
X36145252Y-31884355D02*
X36221443Y-31998640D01*
X36221443Y-31998640D02*
X36297633Y-32074831D01*
X36297633Y-32074831D02*
X36373824Y-32112926D01*
D11*
%TO.C,*%
X37764300Y-12559200D02*
X37767707Y-12585082D01*
X37767707Y-12585082D02*
X37777697Y-12609200D01*
X37777697Y-12609200D02*
X37793589Y-12629911D01*
X37793589Y-12629911D02*
X37814300Y-12645803D01*
X37814300Y-12645803D02*
X37838418Y-12655793D01*
X37838418Y-12655793D02*
X37864300Y-12659200D01*
X37864300Y-12659200D02*
X37890182Y-12655793D01*
X37890182Y-12655793D02*
X37914300Y-12645803D01*
X37914300Y-12645803D02*
X37935011Y-12629911D01*
X37935011Y-12629911D02*
X37950903Y-12609200D01*
X37950903Y-12609200D02*
X37960893Y-12585082D01*
X37960893Y-12585082D02*
X37964300Y-12559200D01*
X37964300Y-12559200D02*
X37960893Y-12533318D01*
X37960893Y-12533318D02*
X37950903Y-12509200D01*
X37950903Y-12509200D02*
X37935011Y-12488489D01*
X37935011Y-12488489D02*
X37914300Y-12472597D01*
X37914300Y-12472597D02*
X37890182Y-12462607D01*
X37890182Y-12462607D02*
X37864300Y-12459200D01*
X37864300Y-12459200D02*
X37838418Y-12462607D01*
X37838418Y-12462607D02*
X37814300Y-12472597D01*
X37814300Y-12472597D02*
X37793589Y-12488489D01*
X37793589Y-12488489D02*
X37777697Y-12509200D01*
X37777697Y-12509200D02*
X37767707Y-12533318D01*
X37767707Y-12533318D02*
X37764300Y-12559200D01*
D12*
X36664300Y-11069200D02*
X18664300Y-11069200D01*
X36664300Y-11069200D02*
X36664300Y-5069200D01*
X36664300Y-30569200D02*
X36664300Y-11069200D01*
X18664300Y-30569200D02*
X36664300Y-30569200D01*
X18664300Y-11069200D02*
X18664300Y-30569200D01*
X18664300Y-5069200D02*
X18664300Y-11069200D01*
X36664300Y-5069200D02*
X18664300Y-5069200D01*
D11*
X37764300Y-12559200D02*
X37767707Y-12585082D01*
X37767707Y-12585082D02*
X37777697Y-12609200D01*
X37777697Y-12609200D02*
X37793589Y-12629911D01*
X37793589Y-12629911D02*
X37814300Y-12645803D01*
X37814300Y-12645803D02*
X37838418Y-12655793D01*
X37838418Y-12655793D02*
X37864300Y-12659200D01*
X37864300Y-12659200D02*
X37890182Y-12655793D01*
X37890182Y-12655793D02*
X37914300Y-12645803D01*
X37914300Y-12645803D02*
X37935011Y-12629911D01*
X37935011Y-12629911D02*
X37950903Y-12609200D01*
X37950903Y-12609200D02*
X37960893Y-12585082D01*
X37960893Y-12585082D02*
X37964300Y-12559200D01*
X37964300Y-12559200D02*
X37960893Y-12533318D01*
X37960893Y-12533318D02*
X37950903Y-12509200D01*
X37950903Y-12509200D02*
X37935011Y-12488489D01*
X37935011Y-12488489D02*
X37914300Y-12472597D01*
X37914300Y-12472597D02*
X37890182Y-12462607D01*
X37890182Y-12462607D02*
X37864300Y-12459200D01*
X37864300Y-12459200D02*
X37838418Y-12462607D01*
X37838418Y-12462607D02*
X37814300Y-12472597D01*
X37814300Y-12472597D02*
X37793589Y-12488489D01*
X37793589Y-12488489D02*
X37777697Y-12509200D01*
X37777697Y-12509200D02*
X37767707Y-12533318D01*
X37767707Y-12533318D02*
X37764300Y-12559200D01*
D12*
X18664300Y-30569200D02*
X19909300Y-30569200D01*
X18664300Y-29839200D02*
X18664300Y-30569200D01*
X36664300Y-30569200D02*
X35419300Y-30569200D01*
X36664300Y-29839200D02*
X36664300Y-30569200D01*
X36664300Y-11789200D02*
X36664300Y-5069200D01*
X18664300Y-5069200D02*
X18664300Y-11789200D01*
X36664300Y-5069200D02*
X18664300Y-5069200D01*
D13*
X37414300Y-31319200D02*
X17914300Y-31319200D01*
X17914300Y-4819200D02*
X17914300Y-31319200D01*
X37414300Y-4819200D02*
X17914300Y-4819200D01*
X37414300Y-31319200D02*
X37414300Y-4819200D01*
%TD*%
M02*
