%TF.GenerationSoftware,Flux,Pcbnew,7.0.11-7.0.11~ubuntu20.04.1*%
%TF.CreationDate,2024-08-16T08:07:52+00:00*%
%TF.ProjectId,input,696e7075-742e-46b6-9963-61645f706362,rev?*%
%TF.SameCoordinates,Original*%
%TF.FileFunction,Legend,Top*%
%TF.FilePolarity,Positive*%
%FSLAX46Y46*%
G04 Gerber Fmt 4.6, Leading zero omitted, Abs format (unit mm)*
G04 Filename: betterflipperzero*
G04 Build it with Flux! Visit our site at: https://www.flux.ai (PCBNEW 7.0.11-7.0.11~ubuntu20.04.1) date 2024-08-16 08:07:52*
%MOMM*%
%LPD*%
G01*
G04 APERTURE LIST*
%ADD10C,0.095000*%
%ADD11C,0.047500*%
%ADD12C,0.066500*%
%ADD13C,0.120000*%
%ADD14C,0.100000*%
%ADD15C,0.050000*%
%ADD16C,0.200000*%
%ADD17C,0.127000*%
G04 APERTURE END LIST*
D10*
X30275332Y-34085867D02*
X30237237Y-34047771D01*
X30237237Y-34047771D02*
X30199141Y-33933486D01*
X30199141Y-33933486D02*
X30199141Y-33857295D01*
X30199141Y-33857295D02*
X30237237Y-33743009D01*
X30237237Y-33743009D02*
X30313427Y-33666819D01*
X30313427Y-33666819D02*
X30389617Y-33628724D01*
X30389617Y-33628724D02*
X30541998Y-33590628D01*
X30541998Y-33590628D02*
X30656284Y-33590628D01*
X30656284Y-33590628D02*
X30808665Y-33628724D01*
X30808665Y-33628724D02*
X30884856Y-33666819D01*
X30884856Y-33666819D02*
X30961046Y-33743009D01*
X30961046Y-33743009D02*
X30999141Y-33857295D01*
X30999141Y-33857295D02*
X30999141Y-33933486D01*
X30999141Y-33933486D02*
X30961046Y-34047771D01*
X30961046Y-34047771D02*
X30922951Y-34085867D01*
X30999141Y-34771581D02*
X30999141Y-34619200D01*
X30999141Y-34619200D02*
X30961046Y-34543009D01*
X30961046Y-34543009D02*
X30922951Y-34504914D01*
X30922951Y-34504914D02*
X30808665Y-34428724D01*
X30808665Y-34428724D02*
X30656284Y-34390628D01*
X30656284Y-34390628D02*
X30351522Y-34390628D01*
X30351522Y-34390628D02*
X30275332Y-34428724D01*
X30275332Y-34428724D02*
X30237237Y-34466819D01*
X30237237Y-34466819D02*
X30199141Y-34543009D01*
X30199141Y-34543009D02*
X30199141Y-34695390D01*
X30199141Y-34695390D02*
X30237237Y-34771581D01*
X30237237Y-34771581D02*
X30275332Y-34809676D01*
X30275332Y-34809676D02*
X30351522Y-34847771D01*
X30351522Y-34847771D02*
X30541998Y-34847771D01*
X30541998Y-34847771D02*
X30618189Y-34809676D01*
X30618189Y-34809676D02*
X30656284Y-34771581D01*
X30656284Y-34771581D02*
X30694379Y-34695390D01*
X30694379Y-34695390D02*
X30694379Y-34543009D01*
X30694379Y-34543009D02*
X30656284Y-34466819D01*
X30656284Y-34466819D02*
X30618189Y-34428724D01*
X30618189Y-34428724D02*
X30541998Y-34390628D01*
X16280967Y-12758164D02*
X16242871Y-12796260D01*
X16242871Y-12796260D02*
X16128586Y-12834355D01*
X16128586Y-12834355D02*
X16052395Y-12834355D01*
X16052395Y-12834355D02*
X15938109Y-12796260D01*
X15938109Y-12796260D02*
X15861919Y-12720069D01*
X15861919Y-12720069D02*
X15823824Y-12643879D01*
X15823824Y-12643879D02*
X15785728Y-12491498D01*
X15785728Y-12491498D02*
X15785728Y-12377212D01*
X15785728Y-12377212D02*
X15823824Y-12224831D01*
X15823824Y-12224831D02*
X15861919Y-12148640D01*
X15861919Y-12148640D02*
X15938109Y-12072450D01*
X15938109Y-12072450D02*
X16052395Y-12034355D01*
X16052395Y-12034355D02*
X16128586Y-12034355D01*
X16128586Y-12034355D02*
X16242871Y-12072450D01*
X16242871Y-12072450D02*
X16280967Y-12110545D01*
X16547633Y-12034355D02*
X17042871Y-12034355D01*
X17042871Y-12034355D02*
X16776205Y-12339117D01*
X16776205Y-12339117D02*
X16890490Y-12339117D01*
X16890490Y-12339117D02*
X16966681Y-12377212D01*
X16966681Y-12377212D02*
X17004776Y-12415307D01*
X17004776Y-12415307D02*
X17042871Y-12491498D01*
X17042871Y-12491498D02*
X17042871Y-12681974D01*
X17042871Y-12681974D02*
X17004776Y-12758164D01*
X17004776Y-12758164D02*
X16966681Y-12796260D01*
X16966681Y-12796260D02*
X16890490Y-12834355D01*
X16890490Y-12834355D02*
X16661919Y-12834355D01*
X16661919Y-12834355D02*
X16585728Y-12796260D01*
X16585728Y-12796260D02*
X16547633Y-12758164D01*
X23299455Y-41852537D02*
X22918502Y-42119204D01*
X23299455Y-42309680D02*
X22499455Y-42309680D01*
X22499455Y-42309680D02*
X22499455Y-42004918D01*
X22499455Y-42004918D02*
X22537550Y-41928728D01*
X22537550Y-41928728D02*
X22575645Y-41890633D01*
X22575645Y-41890633D02*
X22651836Y-41852537D01*
X22651836Y-41852537D02*
X22766121Y-41852537D01*
X22766121Y-41852537D02*
X22842312Y-41890633D01*
X22842312Y-41890633D02*
X22880407Y-41928728D01*
X22880407Y-41928728D02*
X22918502Y-42004918D01*
X22918502Y-42004918D02*
X22918502Y-42309680D01*
X23299455Y-41090633D02*
X23299455Y-41547776D01*
X23299455Y-41319204D02*
X22499455Y-41319204D01*
X22499455Y-41319204D02*
X22613740Y-41395395D01*
X22613740Y-41395395D02*
X22689931Y-41471585D01*
X22689931Y-41471585D02*
X22728026Y-41547776D01*
X28929447Y-39652532D02*
X28548494Y-39919199D01*
X28929447Y-40109675D02*
X28129447Y-40109675D01*
X28129447Y-40109675D02*
X28129447Y-39804913D01*
X28129447Y-39804913D02*
X28167542Y-39728723D01*
X28167542Y-39728723D02*
X28205637Y-39690628D01*
X28205637Y-39690628D02*
X28281828Y-39652532D01*
X28281828Y-39652532D02*
X28396113Y-39652532D01*
X28396113Y-39652532D02*
X28472304Y-39690628D01*
X28472304Y-39690628D02*
X28510399Y-39728723D01*
X28510399Y-39728723D02*
X28548494Y-39804913D01*
X28548494Y-39804913D02*
X28548494Y-40109675D01*
X28205637Y-39347771D02*
X28167542Y-39309675D01*
X28167542Y-39309675D02*
X28129447Y-39233485D01*
X28129447Y-39233485D02*
X28129447Y-39043009D01*
X28129447Y-39043009D02*
X28167542Y-38966818D01*
X28167542Y-38966818D02*
X28205637Y-38928723D01*
X28205637Y-38928723D02*
X28281828Y-38890628D01*
X28281828Y-38890628D02*
X28358018Y-38890628D01*
X28358018Y-38890628D02*
X28472304Y-38928723D01*
X28472304Y-38928723D02*
X28929447Y-39385866D01*
X28929447Y-39385866D02*
X28929447Y-38890628D01*
X32149144Y-39928722D02*
X32949144Y-39928722D01*
X32949144Y-39928722D02*
X32949144Y-40119198D01*
X32949144Y-40119198D02*
X32911049Y-40233484D01*
X32911049Y-40233484D02*
X32834859Y-40309674D01*
X32834859Y-40309674D02*
X32758668Y-40347769D01*
X32758668Y-40347769D02*
X32606287Y-40385865D01*
X32606287Y-40385865D02*
X32492001Y-40385865D01*
X32492001Y-40385865D02*
X32339620Y-40347769D01*
X32339620Y-40347769D02*
X32263430Y-40309674D01*
X32263430Y-40309674D02*
X32187240Y-40233484D01*
X32187240Y-40233484D02*
X32149144Y-40119198D01*
X32149144Y-40119198D02*
X32149144Y-39928722D01*
X32149144Y-41147769D02*
X32149144Y-40690626D01*
X32149144Y-40919198D02*
X32949144Y-40919198D01*
X32949144Y-40919198D02*
X32834859Y-40843007D01*
X32834859Y-40843007D02*
X32758668Y-40766817D01*
X32758668Y-40766817D02*
X32720573Y-40690626D01*
X32149144Y-39928722D02*
X32949144Y-39928722D01*
X32949144Y-39928722D02*
X32949144Y-40119198D01*
X32949144Y-40119198D02*
X32911049Y-40233484D01*
X32911049Y-40233484D02*
X32834859Y-40309674D01*
X32834859Y-40309674D02*
X32758668Y-40347769D01*
X32758668Y-40347769D02*
X32606287Y-40385865D01*
X32606287Y-40385865D02*
X32492001Y-40385865D01*
X32492001Y-40385865D02*
X32339620Y-40347769D01*
X32339620Y-40347769D02*
X32263430Y-40309674D01*
X32263430Y-40309674D02*
X32187240Y-40233484D01*
X32187240Y-40233484D02*
X32149144Y-40119198D01*
X32149144Y-40119198D02*
X32149144Y-39928722D01*
X32149144Y-41147769D02*
X32149144Y-40690626D01*
X32149144Y-40919198D02*
X32949144Y-40919198D01*
X32949144Y-40919198D02*
X32834859Y-40843007D01*
X32834859Y-40843007D02*
X32758668Y-40766817D01*
X32758668Y-40766817D02*
X32720573Y-40690626D01*
X21829455Y-37352540D02*
X21829455Y-37733492D01*
X21829455Y-37733492D02*
X21029455Y-37733492D01*
X21829455Y-36666826D02*
X21829455Y-37123969D01*
X21829455Y-36895397D02*
X21029455Y-36895397D01*
X21029455Y-36895397D02*
X21143740Y-36971588D01*
X21143740Y-36971588D02*
X21219931Y-37047778D01*
X21219931Y-37047778D02*
X21258026Y-37123969D01*
D11*
X27516681Y-26201777D02*
X27326205Y-26201777D01*
X27326205Y-26201777D02*
X27326205Y-25801777D01*
X27650015Y-25992253D02*
X27783348Y-25992253D01*
X27840491Y-26201777D02*
X27650015Y-26201777D01*
X27650015Y-26201777D02*
X27650015Y-25801777D01*
X27650015Y-25801777D02*
X27840491Y-25801777D01*
X28011920Y-26201777D02*
X28011920Y-25801777D01*
X28011920Y-25801777D02*
X28107158Y-25801777D01*
X28107158Y-25801777D02*
X28164301Y-25820825D01*
X28164301Y-25820825D02*
X28202396Y-25858920D01*
X28202396Y-25858920D02*
X28221443Y-25897015D01*
X28221443Y-25897015D02*
X28240491Y-25973206D01*
X28240491Y-25973206D02*
X28240491Y-26030349D01*
X28240491Y-26030349D02*
X28221443Y-26106539D01*
X28221443Y-26106539D02*
X28202396Y-26144634D01*
X28202396Y-26144634D02*
X28164301Y-26182730D01*
X28164301Y-26182730D02*
X28107158Y-26201777D01*
X28107158Y-26201777D02*
X28011920Y-26201777D01*
X28621443Y-26201777D02*
X28392872Y-26201777D01*
X28507158Y-26201777D02*
X28507158Y-25801777D01*
X28507158Y-25801777D02*
X28469062Y-25858920D01*
X28469062Y-25858920D02*
X28430967Y-25897015D01*
X28430967Y-25897015D02*
X28392872Y-25916063D01*
D10*
X24030971Y-32578164D02*
X23992875Y-32616260D01*
X23992875Y-32616260D02*
X23878590Y-32654355D01*
X23878590Y-32654355D02*
X23802399Y-32654355D01*
X23802399Y-32654355D02*
X23688113Y-32616260D01*
X23688113Y-32616260D02*
X23611923Y-32540069D01*
X23611923Y-32540069D02*
X23573828Y-32463879D01*
X23573828Y-32463879D02*
X23535732Y-32311498D01*
X23535732Y-32311498D02*
X23535732Y-32197212D01*
X23535732Y-32197212D02*
X23573828Y-32044831D01*
X23573828Y-32044831D02*
X23611923Y-31968640D01*
X23611923Y-31968640D02*
X23688113Y-31892450D01*
X23688113Y-31892450D02*
X23802399Y-31854355D01*
X23802399Y-31854355D02*
X23878590Y-31854355D01*
X23878590Y-31854355D02*
X23992875Y-31892450D01*
X23992875Y-31892450D02*
X24030971Y-31930545D01*
X24716685Y-32121021D02*
X24716685Y-32654355D01*
X24526209Y-31816260D02*
X24335732Y-32387688D01*
X24335732Y-32387688D02*
X24830971Y-32387688D01*
D11*
X27516681Y-28351777D02*
X27326205Y-28351777D01*
X27326205Y-28351777D02*
X27326205Y-27951777D01*
X27650015Y-28142253D02*
X27783348Y-28142253D01*
X27840491Y-28351777D02*
X27650015Y-28351777D01*
X27650015Y-28351777D02*
X27650015Y-27951777D01*
X27650015Y-27951777D02*
X27840491Y-27951777D01*
X28011920Y-28351777D02*
X28011920Y-27951777D01*
X28011920Y-27951777D02*
X28107158Y-27951777D01*
X28107158Y-27951777D02*
X28164301Y-27970825D01*
X28164301Y-27970825D02*
X28202396Y-28008920D01*
X28202396Y-28008920D02*
X28221443Y-28047015D01*
X28221443Y-28047015D02*
X28240491Y-28123206D01*
X28240491Y-28123206D02*
X28240491Y-28180349D01*
X28240491Y-28180349D02*
X28221443Y-28256539D01*
X28221443Y-28256539D02*
X28202396Y-28294634D01*
X28202396Y-28294634D02*
X28164301Y-28332730D01*
X28164301Y-28332730D02*
X28107158Y-28351777D01*
X28107158Y-28351777D02*
X28011920Y-28351777D01*
X28392872Y-27989872D02*
X28411920Y-27970825D01*
X28411920Y-27970825D02*
X28450015Y-27951777D01*
X28450015Y-27951777D02*
X28545253Y-27951777D01*
X28545253Y-27951777D02*
X28583348Y-27970825D01*
X28583348Y-27970825D02*
X28602396Y-27989872D01*
X28602396Y-27989872D02*
X28621443Y-28027968D01*
X28621443Y-28027968D02*
X28621443Y-28066063D01*
X28621443Y-28066063D02*
X28602396Y-28123206D01*
X28602396Y-28123206D02*
X28373824Y-28351777D01*
X28373824Y-28351777D02*
X28621443Y-28351777D01*
D10*
X22330967Y-30684355D02*
X22064300Y-30303402D01*
X21873824Y-30684355D02*
X21873824Y-29884355D01*
X21873824Y-29884355D02*
X22178586Y-29884355D01*
X22178586Y-29884355D02*
X22254776Y-29922450D01*
X22254776Y-29922450D02*
X22292871Y-29960545D01*
X22292871Y-29960545D02*
X22330967Y-30036736D01*
X22330967Y-30036736D02*
X22330967Y-30151021D01*
X22330967Y-30151021D02*
X22292871Y-30227212D01*
X22292871Y-30227212D02*
X22254776Y-30265307D01*
X22254776Y-30265307D02*
X22178586Y-30303402D01*
X22178586Y-30303402D02*
X21873824Y-30303402D01*
X23054776Y-29884355D02*
X22673824Y-29884355D01*
X22673824Y-29884355D02*
X22635728Y-30265307D01*
X22635728Y-30265307D02*
X22673824Y-30227212D01*
X22673824Y-30227212D02*
X22750014Y-30189117D01*
X22750014Y-30189117D02*
X22940490Y-30189117D01*
X22940490Y-30189117D02*
X23016681Y-30227212D01*
X23016681Y-30227212D02*
X23054776Y-30265307D01*
X23054776Y-30265307D02*
X23092871Y-30341498D01*
X23092871Y-30341498D02*
X23092871Y-30531974D01*
X23092871Y-30531974D02*
X23054776Y-30608164D01*
X23054776Y-30608164D02*
X23016681Y-30646260D01*
X23016681Y-30646260D02*
X22940490Y-30684355D01*
X22940490Y-30684355D02*
X22750014Y-30684355D01*
X22750014Y-30684355D02*
X22673824Y-30646260D01*
X22673824Y-30646260D02*
X22635728Y-30608164D01*
X28725332Y-34085867D02*
X28687237Y-34047771D01*
X28687237Y-34047771D02*
X28649141Y-33933486D01*
X28649141Y-33933486D02*
X28649141Y-33857295D01*
X28649141Y-33857295D02*
X28687237Y-33743009D01*
X28687237Y-33743009D02*
X28763427Y-33666819D01*
X28763427Y-33666819D02*
X28839617Y-33628724D01*
X28839617Y-33628724D02*
X28991998Y-33590628D01*
X28991998Y-33590628D02*
X29106284Y-33590628D01*
X29106284Y-33590628D02*
X29258665Y-33628724D01*
X29258665Y-33628724D02*
X29334856Y-33666819D01*
X29334856Y-33666819D02*
X29411046Y-33743009D01*
X29411046Y-33743009D02*
X29449141Y-33857295D01*
X29449141Y-33857295D02*
X29449141Y-33933486D01*
X29449141Y-33933486D02*
X29411046Y-34047771D01*
X29411046Y-34047771D02*
X29372951Y-34085867D01*
X29449141Y-34809676D02*
X29449141Y-34428724D01*
X29449141Y-34428724D02*
X29068189Y-34390628D01*
X29068189Y-34390628D02*
X29106284Y-34428724D01*
X29106284Y-34428724D02*
X29144379Y-34504914D01*
X29144379Y-34504914D02*
X29144379Y-34695390D01*
X29144379Y-34695390D02*
X29106284Y-34771581D01*
X29106284Y-34771581D02*
X29068189Y-34809676D01*
X29068189Y-34809676D02*
X28991998Y-34847771D01*
X28991998Y-34847771D02*
X28801522Y-34847771D01*
X28801522Y-34847771D02*
X28725332Y-34809676D01*
X28725332Y-34809676D02*
X28687237Y-34771581D01*
X28687237Y-34771581D02*
X28649141Y-34695390D01*
X28649141Y-34695390D02*
X28649141Y-34504914D01*
X28649141Y-34504914D02*
X28687237Y-34428724D01*
X28687237Y-34428724D02*
X28725332Y-34390628D01*
X22330967Y-28534355D02*
X22064300Y-28153402D01*
X21873824Y-28534355D02*
X21873824Y-27734355D01*
X21873824Y-27734355D02*
X22178586Y-27734355D01*
X22178586Y-27734355D02*
X22254776Y-27772450D01*
X22254776Y-27772450D02*
X22292871Y-27810545D01*
X22292871Y-27810545D02*
X22330967Y-27886736D01*
X22330967Y-27886736D02*
X22330967Y-28001021D01*
X22330967Y-28001021D02*
X22292871Y-28077212D01*
X22292871Y-28077212D02*
X22254776Y-28115307D01*
X22254776Y-28115307D02*
X22178586Y-28153402D01*
X22178586Y-28153402D02*
X21873824Y-28153402D01*
X23016681Y-28001021D02*
X23016681Y-28534355D01*
X22826205Y-27696260D02*
X22635728Y-28267688D01*
X22635728Y-28267688D02*
X23130967Y-28267688D01*
D12*
X27160966Y-36963591D02*
X27160966Y-37523591D01*
X26574299Y-37016924D02*
X26600966Y-36990258D01*
X26600966Y-36990258D02*
X26680966Y-36963591D01*
X26680966Y-36963591D02*
X26734299Y-36963591D01*
X26734299Y-36963591D02*
X26814299Y-36990258D01*
X26814299Y-36990258D02*
X26867633Y-37043591D01*
X26867633Y-37043591D02*
X26894299Y-37096924D01*
X26894299Y-37096924D02*
X26920966Y-37203591D01*
X26920966Y-37203591D02*
X26920966Y-37283591D01*
X26920966Y-37283591D02*
X26894299Y-37390258D01*
X26894299Y-37390258D02*
X26867633Y-37443591D01*
X26867633Y-37443591D02*
X26814299Y-37496924D01*
X26814299Y-37496924D02*
X26734299Y-37523591D01*
X26734299Y-37523591D02*
X26680966Y-37523591D01*
X26680966Y-37523591D02*
X26600966Y-37496924D01*
X26600966Y-37496924D02*
X26574299Y-37470258D01*
X26040966Y-36963591D02*
X26360966Y-36963591D01*
X26200966Y-36963591D02*
X26200966Y-37523591D01*
X26200966Y-37523591D02*
X26254299Y-37443591D01*
X26254299Y-37443591D02*
X26307633Y-37390258D01*
X26307633Y-37390258D02*
X26360966Y-37363591D01*
D10*
X25833353Y-35584355D02*
X25833353Y-34784355D01*
X26671448Y-35508164D02*
X26633352Y-35546260D01*
X26633352Y-35546260D02*
X26519067Y-35584355D01*
X26519067Y-35584355D02*
X26442876Y-35584355D01*
X26442876Y-35584355D02*
X26328590Y-35546260D01*
X26328590Y-35546260D02*
X26252400Y-35470069D01*
X26252400Y-35470069D02*
X26214305Y-35393879D01*
X26214305Y-35393879D02*
X26176209Y-35241498D01*
X26176209Y-35241498D02*
X26176209Y-35127212D01*
X26176209Y-35127212D02*
X26214305Y-34974831D01*
X26214305Y-34974831D02*
X26252400Y-34898640D01*
X26252400Y-34898640D02*
X26328590Y-34822450D01*
X26328590Y-34822450D02*
X26442876Y-34784355D01*
X26442876Y-34784355D02*
X26519067Y-34784355D01*
X26519067Y-34784355D02*
X26633352Y-34822450D01*
X26633352Y-34822450D02*
X26671448Y-34860545D01*
X27433352Y-35584355D02*
X26976209Y-35584355D01*
X27204781Y-35584355D02*
X27204781Y-34784355D01*
X27204781Y-34784355D02*
X27128590Y-34898640D01*
X27128590Y-34898640D02*
X27052400Y-34974831D01*
X27052400Y-34974831D02*
X26976209Y-35012926D01*
X22330967Y-26384355D02*
X22064300Y-26003402D01*
X21873824Y-26384355D02*
X21873824Y-25584355D01*
X21873824Y-25584355D02*
X22178586Y-25584355D01*
X22178586Y-25584355D02*
X22254776Y-25622450D01*
X22254776Y-25622450D02*
X22292871Y-25660545D01*
X22292871Y-25660545D02*
X22330967Y-25736736D01*
X22330967Y-25736736D02*
X22330967Y-25851021D01*
X22330967Y-25851021D02*
X22292871Y-25927212D01*
X22292871Y-25927212D02*
X22254776Y-25965307D01*
X22254776Y-25965307D02*
X22178586Y-26003402D01*
X22178586Y-26003402D02*
X21873824Y-26003402D01*
X23016681Y-25584355D02*
X22864300Y-25584355D01*
X22864300Y-25584355D02*
X22788109Y-25622450D01*
X22788109Y-25622450D02*
X22750014Y-25660545D01*
X22750014Y-25660545D02*
X22673824Y-25774831D01*
X22673824Y-25774831D02*
X22635728Y-25927212D01*
X22635728Y-25927212D02*
X22635728Y-26231974D01*
X22635728Y-26231974D02*
X22673824Y-26308164D01*
X22673824Y-26308164D02*
X22711919Y-26346260D01*
X22711919Y-26346260D02*
X22788109Y-26384355D01*
X22788109Y-26384355D02*
X22940490Y-26384355D01*
X22940490Y-26384355D02*
X23016681Y-26346260D01*
X23016681Y-26346260D02*
X23054776Y-26308164D01*
X23054776Y-26308164D02*
X23092871Y-26231974D01*
X23092871Y-26231974D02*
X23092871Y-26041498D01*
X23092871Y-26041498D02*
X23054776Y-25965307D01*
X23054776Y-25965307D02*
X23016681Y-25927212D01*
X23016681Y-25927212D02*
X22940490Y-25889117D01*
X22940490Y-25889117D02*
X22788109Y-25889117D01*
X22788109Y-25889117D02*
X22711919Y-25927212D01*
X22711919Y-25927212D02*
X22673824Y-25965307D01*
X22673824Y-25965307D02*
X22635728Y-26041498D01*
X39658355Y-21470491D02*
X40229783Y-21470491D01*
X40229783Y-21470491D02*
X40344069Y-21508586D01*
X40344069Y-21508586D02*
X40420260Y-21584777D01*
X40420260Y-21584777D02*
X40458355Y-21699062D01*
X40458355Y-21699062D02*
X40458355Y-21775253D01*
X39734545Y-21127634D02*
X39696450Y-21089538D01*
X39696450Y-21089538D02*
X39658355Y-21013348D01*
X39658355Y-21013348D02*
X39658355Y-20822872D01*
X39658355Y-20822872D02*
X39696450Y-20746681D01*
X39696450Y-20746681D02*
X39734545Y-20708586D01*
X39734545Y-20708586D02*
X39810736Y-20670491D01*
X39810736Y-20670491D02*
X39886926Y-20670491D01*
X39886926Y-20670491D02*
X40001212Y-20708586D01*
X40001212Y-20708586D02*
X40458355Y-21165729D01*
X40458355Y-21165729D02*
X40458355Y-20670491D01*
X15797628Y-41846260D02*
X15911914Y-41884355D01*
X15911914Y-41884355D02*
X16102390Y-41884355D01*
X16102390Y-41884355D02*
X16178581Y-41846260D01*
X16178581Y-41846260D02*
X16216676Y-41808164D01*
X16216676Y-41808164D02*
X16254771Y-41731974D01*
X16254771Y-41731974D02*
X16254771Y-41655783D01*
X16254771Y-41655783D02*
X16216676Y-41579593D01*
X16216676Y-41579593D02*
X16178581Y-41541498D01*
X16178581Y-41541498D02*
X16102390Y-41503402D01*
X16102390Y-41503402D02*
X15950009Y-41465307D01*
X15950009Y-41465307D02*
X15873819Y-41427212D01*
X15873819Y-41427212D02*
X15835724Y-41389117D01*
X15835724Y-41389117D02*
X15797628Y-41312926D01*
X15797628Y-41312926D02*
X15797628Y-41236736D01*
X15797628Y-41236736D02*
X15835724Y-41160545D01*
X15835724Y-41160545D02*
X15873819Y-41122450D01*
X15873819Y-41122450D02*
X15950009Y-41084355D01*
X15950009Y-41084355D02*
X16140486Y-41084355D01*
X16140486Y-41084355D02*
X16254771Y-41122450D01*
X16521438Y-41084355D02*
X16711914Y-41884355D01*
X16711914Y-41884355D02*
X16864295Y-41312926D01*
X16864295Y-41312926D02*
X17016676Y-41884355D01*
X17016676Y-41884355D02*
X17207153Y-41084355D01*
X17473819Y-41160545D02*
X17511915Y-41122450D01*
X17511915Y-41122450D02*
X17588105Y-41084355D01*
X17588105Y-41084355D02*
X17778581Y-41084355D01*
X17778581Y-41084355D02*
X17854772Y-41122450D01*
X17854772Y-41122450D02*
X17892867Y-41160545D01*
X17892867Y-41160545D02*
X17930962Y-41236736D01*
X17930962Y-41236736D02*
X17930962Y-41312926D01*
X17930962Y-41312926D02*
X17892867Y-41427212D01*
X17892867Y-41427212D02*
X17435724Y-41884355D01*
X17435724Y-41884355D02*
X17930962Y-41884355D01*
X26129447Y-39652532D02*
X25748494Y-39919199D01*
X26129447Y-40109675D02*
X25329447Y-40109675D01*
X25329447Y-40109675D02*
X25329447Y-39804913D01*
X25329447Y-39804913D02*
X25367542Y-39728723D01*
X25367542Y-39728723D02*
X25405637Y-39690628D01*
X25405637Y-39690628D02*
X25481828Y-39652532D01*
X25481828Y-39652532D02*
X25596113Y-39652532D01*
X25596113Y-39652532D02*
X25672304Y-39690628D01*
X25672304Y-39690628D02*
X25710399Y-39728723D01*
X25710399Y-39728723D02*
X25748494Y-39804913D01*
X25748494Y-39804913D02*
X25748494Y-40109675D01*
X25329447Y-39385866D02*
X25329447Y-38890628D01*
X25329447Y-38890628D02*
X25634209Y-39157294D01*
X25634209Y-39157294D02*
X25634209Y-39043009D01*
X25634209Y-39043009D02*
X25672304Y-38966818D01*
X25672304Y-38966818D02*
X25710399Y-38928723D01*
X25710399Y-38928723D02*
X25786590Y-38890628D01*
X25786590Y-38890628D02*
X25977066Y-38890628D01*
X25977066Y-38890628D02*
X26053256Y-38928723D01*
X26053256Y-38928723D02*
X26091352Y-38966818D01*
X26091352Y-38966818D02*
X26129447Y-39043009D01*
X26129447Y-39043009D02*
X26129447Y-39271580D01*
X26129447Y-39271580D02*
X26091352Y-39347771D01*
X26091352Y-39347771D02*
X26053256Y-39385866D01*
X36797628Y-41846260D02*
X36911914Y-41884355D01*
X36911914Y-41884355D02*
X37102390Y-41884355D01*
X37102390Y-41884355D02*
X37178581Y-41846260D01*
X37178581Y-41846260D02*
X37216676Y-41808164D01*
X37216676Y-41808164D02*
X37254771Y-41731974D01*
X37254771Y-41731974D02*
X37254771Y-41655783D01*
X37254771Y-41655783D02*
X37216676Y-41579593D01*
X37216676Y-41579593D02*
X37178581Y-41541498D01*
X37178581Y-41541498D02*
X37102390Y-41503402D01*
X37102390Y-41503402D02*
X36950009Y-41465307D01*
X36950009Y-41465307D02*
X36873819Y-41427212D01*
X36873819Y-41427212D02*
X36835724Y-41389117D01*
X36835724Y-41389117D02*
X36797628Y-41312926D01*
X36797628Y-41312926D02*
X36797628Y-41236736D01*
X36797628Y-41236736D02*
X36835724Y-41160545D01*
X36835724Y-41160545D02*
X36873819Y-41122450D01*
X36873819Y-41122450D02*
X36950009Y-41084355D01*
X36950009Y-41084355D02*
X37140486Y-41084355D01*
X37140486Y-41084355D02*
X37254771Y-41122450D01*
X37521438Y-41084355D02*
X37711914Y-41884355D01*
X37711914Y-41884355D02*
X37864295Y-41312926D01*
X37864295Y-41312926D02*
X38016676Y-41884355D01*
X38016676Y-41884355D02*
X38207153Y-41084355D01*
X38930962Y-41884355D02*
X38473819Y-41884355D01*
X38702391Y-41884355D02*
X38702391Y-41084355D01*
X38702391Y-41084355D02*
X38626200Y-41198640D01*
X38626200Y-41198640D02*
X38550010Y-41274831D01*
X38550010Y-41274831D02*
X38473819Y-41312926D01*
X16280967Y-11408164D02*
X16242871Y-11446260D01*
X16242871Y-11446260D02*
X16128586Y-11484355D01*
X16128586Y-11484355D02*
X16052395Y-11484355D01*
X16052395Y-11484355D02*
X15938109Y-11446260D01*
X15938109Y-11446260D02*
X15861919Y-11370069D01*
X15861919Y-11370069D02*
X15823824Y-11293879D01*
X15823824Y-11293879D02*
X15785728Y-11141498D01*
X15785728Y-11141498D02*
X15785728Y-11027212D01*
X15785728Y-11027212D02*
X15823824Y-10874831D01*
X15823824Y-10874831D02*
X15861919Y-10798640D01*
X15861919Y-10798640D02*
X15938109Y-10722450D01*
X15938109Y-10722450D02*
X16052395Y-10684355D01*
X16052395Y-10684355D02*
X16128586Y-10684355D01*
X16128586Y-10684355D02*
X16242871Y-10722450D01*
X16242871Y-10722450D02*
X16280967Y-10760545D01*
X17042871Y-11484355D02*
X16585728Y-11484355D01*
X16814300Y-11484355D02*
X16814300Y-10684355D01*
X16814300Y-10684355D02*
X16738109Y-10798640D01*
X16738109Y-10798640D02*
X16661919Y-10874831D01*
X16661919Y-10874831D02*
X16585728Y-10912926D01*
X16280967Y-18108164D02*
X16242871Y-18146260D01*
X16242871Y-18146260D02*
X16128586Y-18184355D01*
X16128586Y-18184355D02*
X16052395Y-18184355D01*
X16052395Y-18184355D02*
X15938109Y-18146260D01*
X15938109Y-18146260D02*
X15861919Y-18070069D01*
X15861919Y-18070069D02*
X15823824Y-17993879D01*
X15823824Y-17993879D02*
X15785728Y-17841498D01*
X15785728Y-17841498D02*
X15785728Y-17727212D01*
X15785728Y-17727212D02*
X15823824Y-17574831D01*
X15823824Y-17574831D02*
X15861919Y-17498640D01*
X15861919Y-17498640D02*
X15938109Y-17422450D01*
X15938109Y-17422450D02*
X16052395Y-17384355D01*
X16052395Y-17384355D02*
X16128586Y-17384355D01*
X16128586Y-17384355D02*
X16242871Y-17422450D01*
X16242871Y-17422450D02*
X16280967Y-17460545D01*
X16585728Y-17460545D02*
X16623824Y-17422450D01*
X16623824Y-17422450D02*
X16700014Y-17384355D01*
X16700014Y-17384355D02*
X16890490Y-17384355D01*
X16890490Y-17384355D02*
X16966681Y-17422450D01*
X16966681Y-17422450D02*
X17004776Y-17460545D01*
X17004776Y-17460545D02*
X17042871Y-17536736D01*
X17042871Y-17536736D02*
X17042871Y-17612926D01*
X17042871Y-17612926D02*
X17004776Y-17727212D01*
X17004776Y-17727212D02*
X16547633Y-18184355D01*
X16547633Y-18184355D02*
X17042871Y-18184355D01*
D11*
X27516681Y-30501777D02*
X27326205Y-30501777D01*
X27326205Y-30501777D02*
X27326205Y-30101777D01*
X27650015Y-30292253D02*
X27783348Y-30292253D01*
X27840491Y-30501777D02*
X27650015Y-30501777D01*
X27650015Y-30501777D02*
X27650015Y-30101777D01*
X27650015Y-30101777D02*
X27840491Y-30101777D01*
X28011920Y-30501777D02*
X28011920Y-30101777D01*
X28011920Y-30101777D02*
X28107158Y-30101777D01*
X28107158Y-30101777D02*
X28164301Y-30120825D01*
X28164301Y-30120825D02*
X28202396Y-30158920D01*
X28202396Y-30158920D02*
X28221443Y-30197015D01*
X28221443Y-30197015D02*
X28240491Y-30273206D01*
X28240491Y-30273206D02*
X28240491Y-30330349D01*
X28240491Y-30330349D02*
X28221443Y-30406539D01*
X28221443Y-30406539D02*
X28202396Y-30444634D01*
X28202396Y-30444634D02*
X28164301Y-30482730D01*
X28164301Y-30482730D02*
X28107158Y-30501777D01*
X28107158Y-30501777D02*
X28011920Y-30501777D01*
X28373824Y-30101777D02*
X28621443Y-30101777D01*
X28621443Y-30101777D02*
X28488110Y-30254158D01*
X28488110Y-30254158D02*
X28545253Y-30254158D01*
X28545253Y-30254158D02*
X28583348Y-30273206D01*
X28583348Y-30273206D02*
X28602396Y-30292253D01*
X28602396Y-30292253D02*
X28621443Y-30330349D01*
X28621443Y-30330349D02*
X28621443Y-30425587D01*
X28621443Y-30425587D02*
X28602396Y-30463682D01*
X28602396Y-30463682D02*
X28583348Y-30482730D01*
X28583348Y-30482730D02*
X28545253Y-30501777D01*
X28545253Y-30501777D02*
X28430967Y-30501777D01*
X28430967Y-30501777D02*
X28392872Y-30482730D01*
X28392872Y-30482730D02*
X28373824Y-30463682D01*
D13*
%TO.C,*%
X31074300Y-36578599D02*
X31074300Y-36859799D01*
X30054300Y-36578601D02*
X30054300Y-36859801D01*
X16273700Y-14559200D02*
X16554900Y-14559200D01*
X16273700Y-15579200D02*
X16554900Y-15579200D01*
X23841801Y-41956502D02*
X23841799Y-41481902D01*
X24886801Y-41956498D02*
X24886799Y-41481898D01*
X28041801Y-41956502D02*
X28041799Y-41481902D01*
X29086801Y-41956498D02*
X29086799Y-41481898D01*
D14*
X30514300Y-40769200D02*
X30514301Y-41269200D01*
X30114300Y-40769200D02*
X30514300Y-40169200D01*
X30914300Y-40769200D02*
X30114300Y-40769200D01*
X30514300Y-40169200D02*
X30914300Y-40769200D01*
X30514300Y-40169200D02*
X29964300Y-40169201D01*
X30514300Y-40169200D02*
X31064300Y-40169199D01*
X30514299Y-39769200D02*
X30514300Y-40169200D01*
X29614299Y-39119201D02*
X31414299Y-39119199D01*
X29614301Y-41919201D02*
X29614299Y-39119201D01*
X31414301Y-41919199D02*
X29614301Y-41919201D01*
X31414299Y-39119199D02*
X31414301Y-41919199D01*
D13*
X31514298Y-38269199D02*
X29514298Y-38269201D01*
D15*
X31664298Y-38169199D02*
X31664302Y-42869199D01*
X31664302Y-42869199D02*
X29364302Y-42869201D01*
X29364302Y-42869201D02*
X29364298Y-38169201D01*
X31664298Y-38169199D02*
X29364298Y-38169201D01*
D13*
X29514298Y-38269201D02*
X29514302Y-42169201D01*
X31514298Y-38269199D02*
X31514302Y-42169199D01*
X24274303Y-38054397D02*
X24274297Y-36383997D01*
X22454303Y-38054403D02*
X22454297Y-36384003D01*
D14*
X29994300Y-25749200D02*
X29754300Y-25749200D01*
X29984300Y-26269200D02*
X29744300Y-26269200D01*
X28824300Y-26019200D02*
X28822596Y-26032141D01*
X28822596Y-26032141D02*
X28817601Y-26044200D01*
X28817601Y-26044200D02*
X28809655Y-26054555D01*
X28809655Y-26054555D02*
X28799300Y-26062501D01*
X28799300Y-26062501D02*
X28787241Y-26067496D01*
X28787241Y-26067496D02*
X28774300Y-26069200D01*
X28774300Y-26069200D02*
X28761359Y-26067496D01*
X28761359Y-26067496D02*
X28749300Y-26062501D01*
X28749300Y-26062501D02*
X28738945Y-26054555D01*
X28738945Y-26054555D02*
X28730999Y-26044200D01*
X28730999Y-26044200D02*
X28726004Y-26032141D01*
X28726004Y-26032141D02*
X28724300Y-26019200D01*
X28724300Y-26019200D02*
X28726004Y-26006259D01*
X28726004Y-26006259D02*
X28730999Y-25994200D01*
X28730999Y-25994200D02*
X28738945Y-25983845D01*
X28738945Y-25983845D02*
X28749300Y-25975899D01*
X28749300Y-25975899D02*
X28761359Y-25970904D01*
X28761359Y-25970904D02*
X28774300Y-25969200D01*
X28774300Y-25969200D02*
X28787241Y-25970904D01*
X28787241Y-25970904D02*
X28799300Y-25975899D01*
X28799300Y-25975899D02*
X28809655Y-25983845D01*
X28809655Y-25983845D02*
X28817601Y-25994200D01*
X28817601Y-25994200D02*
X28822596Y-26006259D01*
X28822596Y-26006259D02*
X28824300Y-26019200D01*
D13*
X24304899Y-34229200D02*
X24023699Y-34229200D01*
X24304901Y-33209200D02*
X24023701Y-33209200D01*
D14*
X29994300Y-27899200D02*
X29754300Y-27899200D01*
X29984300Y-28419200D02*
X29744300Y-28419200D01*
X28824300Y-28169200D02*
X28822596Y-28182141D01*
X28822596Y-28182141D02*
X28817601Y-28194200D01*
X28817601Y-28194200D02*
X28809655Y-28204555D01*
X28809655Y-28204555D02*
X28799300Y-28212501D01*
X28799300Y-28212501D02*
X28787241Y-28217496D01*
X28787241Y-28217496D02*
X28774300Y-28219200D01*
X28774300Y-28219200D02*
X28761359Y-28217496D01*
X28761359Y-28217496D02*
X28749300Y-28212501D01*
X28749300Y-28212501D02*
X28738945Y-28204555D01*
X28738945Y-28204555D02*
X28730999Y-28194200D01*
X28730999Y-28194200D02*
X28726004Y-28182141D01*
X28726004Y-28182141D02*
X28724300Y-28169200D01*
X28724300Y-28169200D02*
X28726004Y-28156259D01*
X28726004Y-28156259D02*
X28730999Y-28144200D01*
X28730999Y-28144200D02*
X28738945Y-28133845D01*
X28738945Y-28133845D02*
X28749300Y-28125899D01*
X28749300Y-28125899D02*
X28761359Y-28120904D01*
X28761359Y-28120904D02*
X28774300Y-28119200D01*
X28774300Y-28119200D02*
X28787241Y-28120904D01*
X28787241Y-28120904D02*
X28799300Y-28125899D01*
X28799300Y-28125899D02*
X28809655Y-28133845D01*
X28809655Y-28133845D02*
X28817601Y-28144200D01*
X28817601Y-28144200D02*
X28822596Y-28156259D01*
X28822596Y-28156259D02*
X28824300Y-28169200D01*
D13*
X24627000Y-29796700D02*
X25101600Y-29796700D01*
X24627000Y-30841700D02*
X25101600Y-30841700D01*
X29524300Y-36578599D02*
X29524300Y-36859799D01*
X28504300Y-36578601D02*
X28504300Y-36859801D01*
X24627000Y-27646700D02*
X25101600Y-27646700D01*
X24627000Y-28691700D02*
X25101600Y-28691700D01*
D14*
X27114297Y-38219201D02*
X27614299Y-37719203D01*
X27614303Y-36219203D02*
X27614299Y-37719203D01*
X25614303Y-36219197D02*
X27614303Y-36219203D01*
X25614297Y-38219197D02*
X25614303Y-36219197D01*
X27114297Y-38219201D02*
X25614297Y-38219197D01*
D15*
X28214297Y-38469204D02*
X28214303Y-35969204D01*
X25014297Y-38469196D02*
X25014303Y-35969196D01*
X28214297Y-38469204D02*
X25014297Y-38469196D01*
X28214303Y-35969204D02*
X25014303Y-35969196D01*
D13*
X26114303Y-36099199D02*
X27114303Y-36099201D01*
X28114297Y-38339204D02*
X26114297Y-38339199D01*
X24627000Y-25496700D02*
X25101600Y-25496700D01*
X24627000Y-26541700D02*
X25101600Y-26541700D01*
D16*
X40500412Y-24529224D02*
X40526294Y-24532631D01*
X40526294Y-24532631D02*
X40550412Y-24542621D01*
X40550412Y-24542621D02*
X40571123Y-24558513D01*
X40571123Y-24558513D02*
X40587015Y-24579223D01*
X40587015Y-24579223D02*
X40597005Y-24603341D01*
X40597005Y-24603341D02*
X40600412Y-24629223D01*
X40600412Y-24629223D02*
X40597005Y-24655105D01*
X40597005Y-24655105D02*
X40587015Y-24679223D01*
X40587015Y-24679223D02*
X40571123Y-24699934D01*
X40571123Y-24699934D02*
X40550413Y-24715826D01*
X40550413Y-24715826D02*
X40526295Y-24725816D01*
X40526295Y-24725816D02*
X40500413Y-24729224D01*
X40500413Y-24729224D02*
X40474531Y-24725816D01*
X40474531Y-24725816D02*
X40450413Y-24715826D01*
X40450413Y-24715826D02*
X40429702Y-24699934D01*
X40429702Y-24699934D02*
X40413810Y-24679224D01*
X40413810Y-24679224D02*
X40403820Y-24655106D01*
X40403820Y-24655106D02*
X40400412Y-24629224D01*
X40400412Y-24629224D02*
X40403820Y-24603342D01*
X40403820Y-24603342D02*
X40413810Y-24579224D01*
X40413810Y-24579224D02*
X40429702Y-24558513D01*
X40429702Y-24558513D02*
X40450412Y-24542621D01*
X40450412Y-24542621D02*
X40474530Y-24532631D01*
X40474530Y-24532631D02*
X40500412Y-24529224D01*
D17*
X42200384Y-16759217D02*
X42200416Y-25699217D01*
X49500416Y-25699190D02*
X49500384Y-16759190D01*
D16*
X40500412Y-24529224D02*
X40526294Y-24532631D01*
X40526294Y-24532631D02*
X40550412Y-24542621D01*
X40550412Y-24542621D02*
X40571123Y-24558513D01*
X40571123Y-24558513D02*
X40587015Y-24579223D01*
X40587015Y-24579223D02*
X40597005Y-24603341D01*
X40597005Y-24603341D02*
X40600412Y-24629223D01*
X40600412Y-24629223D02*
X40597005Y-24655105D01*
X40597005Y-24655105D02*
X40587015Y-24679223D01*
X40587015Y-24679223D02*
X40571123Y-24699934D01*
X40571123Y-24699934D02*
X40550413Y-24715826D01*
X40550413Y-24715826D02*
X40526295Y-24725816D01*
X40526295Y-24725816D02*
X40500413Y-24729224D01*
X40500413Y-24729224D02*
X40474531Y-24725816D01*
X40474531Y-24725816D02*
X40450413Y-24715826D01*
X40450413Y-24715826D02*
X40429702Y-24699934D01*
X40429702Y-24699934D02*
X40413810Y-24679224D01*
X40413810Y-24679224D02*
X40403820Y-24655106D01*
X40403820Y-24655106D02*
X40400412Y-24629224D01*
X40400412Y-24629224D02*
X40403820Y-24603342D01*
X40403820Y-24603342D02*
X40413810Y-24579224D01*
X40413810Y-24579224D02*
X40429702Y-24558513D01*
X40429702Y-24558513D02*
X40450412Y-24542621D01*
X40450412Y-24542621D02*
X40474530Y-24532631D01*
X40474530Y-24532631D02*
X40500412Y-24529224D01*
D17*
X49500416Y-25699190D02*
X48270416Y-25699195D01*
X49500384Y-16759190D02*
X49500416Y-25699190D01*
X48270384Y-16759195D02*
X49500384Y-16759190D01*
X44090384Y-16759210D02*
X45530384Y-16759205D01*
X44090416Y-25699210D02*
X45530416Y-25699205D01*
D13*
X18444302Y-47919198D02*
X18564302Y-47919198D01*
X16294302Y-47919201D02*
X17434302Y-47919199D01*
X15164302Y-47919202D02*
X15284302Y-47919202D01*
X15164298Y-43519202D02*
X15164302Y-47919202D01*
X15284298Y-43519202D02*
X15164298Y-43519202D01*
X17434298Y-43519199D02*
X16294298Y-43519201D01*
X18564298Y-43519198D02*
X18444298Y-43519198D01*
X18564302Y-47919198D02*
X18564298Y-43519198D01*
X25241801Y-41956502D02*
X25241799Y-41481902D01*
X26286801Y-41956498D02*
X26286799Y-41481898D01*
X39444302Y-47919198D02*
X39564302Y-47919198D01*
X37294302Y-47919201D02*
X38434302Y-47919199D01*
X36164302Y-47919202D02*
X36284302Y-47919202D01*
X36164298Y-43519202D02*
X36164302Y-47919202D01*
X36284298Y-43519202D02*
X36164298Y-43519202D01*
X38434298Y-43519199D02*
X37294298Y-43519201D01*
X39564298Y-43519198D02*
X39444298Y-43519198D01*
X39564302Y-47919198D02*
X39564298Y-43519198D01*
X16273700Y-13209200D02*
X16554900Y-13209200D01*
X16273700Y-14229200D02*
X16554900Y-14229200D01*
X16273700Y-16209200D02*
X16554900Y-16209200D01*
X16273700Y-17229200D02*
X16554900Y-17229200D01*
D14*
X29994300Y-30049200D02*
X29754300Y-30049200D01*
X29984300Y-30569200D02*
X29744300Y-30569200D01*
X28824300Y-30319200D02*
X28822596Y-30332141D01*
X28822596Y-30332141D02*
X28817601Y-30344200D01*
X28817601Y-30344200D02*
X28809655Y-30354555D01*
X28809655Y-30354555D02*
X28799300Y-30362501D01*
X28799300Y-30362501D02*
X28787241Y-30367496D01*
X28787241Y-30367496D02*
X28774300Y-30369200D01*
X28774300Y-30369200D02*
X28761359Y-30367496D01*
X28761359Y-30367496D02*
X28749300Y-30362501D01*
X28749300Y-30362501D02*
X28738945Y-30354555D01*
X28738945Y-30354555D02*
X28730999Y-30344200D01*
X28730999Y-30344200D02*
X28726004Y-30332141D01*
X28726004Y-30332141D02*
X28724300Y-30319200D01*
X28724300Y-30319200D02*
X28726004Y-30306259D01*
X28726004Y-30306259D02*
X28730999Y-30294200D01*
X28730999Y-30294200D02*
X28738945Y-30283845D01*
X28738945Y-30283845D02*
X28749300Y-30275899D01*
X28749300Y-30275899D02*
X28761359Y-30270904D01*
X28761359Y-30270904D02*
X28774300Y-30269200D01*
X28774300Y-30269200D02*
X28787241Y-30270904D01*
X28787241Y-30270904D02*
X28799300Y-30275899D01*
X28799300Y-30275899D02*
X28809655Y-30283845D01*
X28809655Y-30283845D02*
X28817601Y-30294200D01*
X28817601Y-30294200D02*
X28822596Y-30306259D01*
X28822596Y-30306259D02*
X28824300Y-30319200D01*
%TD*%
M02*
