%TF.GenerationSoftware,Flux,Pcbnew,7.0.11-7.0.11~ubuntu20.04.1*%
%TF.CreationDate,2024-08-16T08:07:52+00:00*%
%TF.ProjectId,input,696e7075-742e-46b6-9963-61645f706362,rev?*%
%TF.SameCoordinates,Original*%
%TF.FileFunction,Paste,Top*%
%TF.FilePolarity,Positive*%
%FSLAX46Y46*%
G04 Gerber Fmt 4.6, Leading zero omitted, Abs format (unit mm)*
G04 Filename: betterflipperzero*
G04 Build it with Flux! Visit our site at: https://www.flux.ai (PCBNEW 7.0.11-7.0.11~ubuntu20.04.1) date 2024-08-16 08:07:52*
%MOMM*%
%LPD*%
G01*
G04 APERTURE LIST*
G04 Aperture macros list*
%AMFreePoly0*
4,1,101,0.383457,0.474848,0.388093,0.474391,0.392690,0.473632,0.397228,0.472574,0.401686,0.471221,0.406047,0.469580,0.410291,0.467657,0.414400,0.465461,0.418357,0.463001,0.422144,0.460287,0.425745,0.457331,0.429146,0.454146,0.432331,0.450745,0.435287,0.447144,0.438001,0.443357,0.440461,0.439400,0.442657,0.435291,0.444580,0.431047,0.446221,0.426686,0.447574,0.422228,
0.448632,0.417690,0.449391,0.413093,0.449848,0.408457,0.450000,0.403800,0.450000,-0.403800,0.449848,-0.408457,0.449391,-0.413093,0.448632,-0.417690,0.447574,-0.422228,0.446221,-0.426686,0.444580,-0.431047,0.442657,-0.435291,0.440461,-0.439400,0.438001,-0.443357,0.435287,-0.447144,0.432331,-0.450745,0.429146,-0.454146,0.425745,-0.457331,0.422144,-0.460287,0.418357,-0.463001,
0.414400,-0.465461,0.410291,-0.467657,0.406047,-0.469580,0.401686,-0.471221,0.397228,-0.472574,0.392690,-0.473632,0.388093,-0.474391,0.383457,-0.474848,0.378800,-0.475000,-0.378800,-0.475000,-0.383457,-0.474848,-0.388093,-0.474391,-0.392690,-0.473632,-0.397228,-0.472574,-0.401686,-0.471221,-0.406047,-0.469580,-0.410291,-0.467657,-0.414400,-0.465461,-0.418357,-0.463001,-0.422144,-0.460287,
-0.425745,-0.457331,-0.429146,-0.454146,-0.432331,-0.450745,-0.435287,-0.447144,-0.438001,-0.443357,-0.440461,-0.439400,-0.442657,-0.435291,-0.444580,-0.431047,-0.446221,-0.426686,-0.447574,-0.422228,-0.448632,-0.417690,-0.449391,-0.413093,-0.449848,-0.408457,-0.450000,-0.403800,-0.450000,0.403800,-0.449848,0.408457,-0.449391,0.413093,-0.448632,0.417690,-0.447574,0.422228,-0.446221,0.426686,
-0.444580,0.431047,-0.442657,0.435291,-0.440461,0.439400,-0.438001,0.443357,-0.435287,0.447144,-0.432331,0.450745,-0.429146,0.454146,-0.425745,0.457331,-0.422144,0.460287,-0.418357,0.463001,-0.414400,0.465461,-0.410291,0.467657,-0.406047,0.469580,-0.401686,0.471221,-0.397228,0.472574,-0.392690,0.473632,-0.388093,0.474391,-0.383457,0.474848,-0.378800,0.475000,0.378800,0.475000,
0.383457,0.474848,0.383457,0.474848,$1*%
%AMFreePoly1*
4,1,101,0.333457,0.474848,0.338093,0.474391,0.342690,0.473632,0.347228,0.472574,0.351686,0.471221,0.356047,0.469580,0.360291,0.467657,0.364400,0.465461,0.368357,0.463001,0.372144,0.460287,0.375745,0.457331,0.379146,0.454146,0.382331,0.450745,0.385287,0.447144,0.388001,0.443357,0.390461,0.439400,0.392657,0.435291,0.394580,0.431047,0.396221,0.426686,0.397574,0.422228,
0.398632,0.417690,0.399391,0.413093,0.399848,0.408457,0.400000,0.403800,0.400000,-0.403800,0.399848,-0.408457,0.399391,-0.413093,0.398632,-0.417690,0.397574,-0.422228,0.396221,-0.426686,0.394580,-0.431047,0.392657,-0.435291,0.390461,-0.439400,0.388001,-0.443357,0.385287,-0.447144,0.382331,-0.450745,0.379146,-0.454146,0.375745,-0.457331,0.372144,-0.460287,0.368357,-0.463001,
0.364400,-0.465461,0.360291,-0.467657,0.356047,-0.469580,0.351686,-0.471221,0.347228,-0.472574,0.342690,-0.473632,0.338093,-0.474391,0.333457,-0.474848,0.328800,-0.475000,-0.328800,-0.475000,-0.333457,-0.474848,-0.338093,-0.474391,-0.342690,-0.473632,-0.347228,-0.472574,-0.351686,-0.471221,-0.356047,-0.469580,-0.360291,-0.467657,-0.364400,-0.465461,-0.368357,-0.463001,-0.372144,-0.460287,
-0.375745,-0.457331,-0.379146,-0.454146,-0.382331,-0.450745,-0.385287,-0.447144,-0.388001,-0.443357,-0.390461,-0.439400,-0.392657,-0.435291,-0.394580,-0.431047,-0.396221,-0.426686,-0.397574,-0.422228,-0.398632,-0.417690,-0.399391,-0.413093,-0.399848,-0.408457,-0.400000,-0.403800,-0.400000,0.403800,-0.399848,0.408457,-0.399391,0.413093,-0.398632,0.417690,-0.397574,0.422228,-0.396221,0.426686,
-0.394580,0.431047,-0.392657,0.435291,-0.390461,0.439400,-0.388001,0.443357,-0.385287,0.447144,-0.382331,0.450745,-0.379146,0.454146,-0.375745,0.457331,-0.372144,0.460287,-0.368357,0.463001,-0.364400,0.465461,-0.360291,0.467657,-0.356047,0.469580,-0.351686,0.471221,-0.347228,0.472574,-0.342690,0.473632,-0.338093,0.474391,-0.333457,0.474848,-0.328800,0.475000,0.328800,0.475000,
0.333457,0.474848,0.333457,0.474848,$1*%
%AMFreePoly2*
4,1,5,0.450000,-0.600000,-0.450000,-0.600000,-0.450000,0.600000,0.450000,0.600000,0.450000,-0.600000,0.450000,-0.600000,$1*%
%AMFreePoly3*
4,1,101,0.391820,0.949695,0.401100,0.948781,0.410300,0.947262,0.419382,0.945144,0.428305,0.942438,0.437032,0.939153,0.445526,0.935304,0.453750,0.930909,0.461669,0.925984,0.469249,0.920553,0.476457,0.914637,0.483263,0.908263,0.489637,0.901457,0.495553,0.894249,0.500984,0.886669,0.505909,0.878750,0.510304,0.870526,0.514153,0.862032,0.517438,0.853305,0.520144,0.844382,
0.522262,0.835300,0.523781,0.826100,0.524695,0.816820,0.525000,0.807500,0.525000,-0.807500,0.524695,-0.816820,0.523781,-0.826100,0.522262,-0.835300,0.520144,-0.844382,0.517438,-0.853305,0.514153,-0.862032,0.510304,-0.870526,0.505909,-0.878750,0.500984,-0.886669,0.495553,-0.894249,0.489637,-0.901457,0.483263,-0.908263,0.476457,-0.914637,0.469249,-0.920553,0.461669,-0.925984,
0.453750,-0.930909,0.445526,-0.935304,0.437032,-0.939153,0.428305,-0.942438,0.419382,-0.945144,0.410300,-0.947262,0.401100,-0.948781,0.391820,-0.949695,0.382500,-0.950000,-0.382500,-0.950000,-0.391820,-0.949695,-0.401100,-0.948781,-0.410300,-0.947262,-0.419382,-0.945144,-0.428305,-0.942438,-0.437032,-0.939153,-0.445526,-0.935304,-0.453750,-0.930909,-0.461669,-0.925984,-0.469249,-0.920553,
-0.476457,-0.914637,-0.483263,-0.908263,-0.489637,-0.901457,-0.495553,-0.894249,-0.500984,-0.886669,-0.505909,-0.878750,-0.510304,-0.870526,-0.514153,-0.862032,-0.517438,-0.853305,-0.520144,-0.844382,-0.522262,-0.835300,-0.523781,-0.826100,-0.524695,-0.816820,-0.525000,-0.807500,-0.525000,0.807500,-0.524695,0.816820,-0.523781,0.826100,-0.522262,0.835300,-0.520144,0.844382,-0.517438,0.853305,
-0.514153,0.862032,-0.510304,0.870526,-0.505909,0.878750,-0.500984,0.886669,-0.495553,0.894249,-0.489637,0.901457,-0.483263,0.908263,-0.476457,0.914637,-0.469249,0.920553,-0.461669,0.925984,-0.453750,0.930909,-0.445526,0.935304,-0.437032,0.939153,-0.428305,0.942438,-0.419382,0.945144,-0.410300,0.947262,-0.401100,0.948781,-0.391820,0.949695,-0.382500,0.950000,0.382500,0.950000,
0.391820,0.949695,0.391820,0.949695,$1*%
%AMFreePoly4*
4,1,69,0.253265,0.319589,0.256364,0.319078,0.262429,0.317453,0.268230,0.315050,0.271000,0.313569,0.276221,0.310081,0.278649,0.308088,0.280941,0.305941,0.283088,0.303649,0.285081,0.301221,0.288569,0.296000,0.290050,0.293230,0.292453,0.287429,0.294078,0.281364,0.294589,0.278265,0.295000,0.272000,0.295000,-0.272000,0.294589,-0.278265,0.294078,-0.281364,0.292453,-0.287429,
0.290050,-0.293230,0.288569,-0.296000,0.285081,-0.301221,0.283088,-0.303649,0.280941,-0.305941,0.278649,-0.308088,0.276221,-0.310081,0.271000,-0.313569,0.268230,-0.315050,0.262429,-0.317453,0.256364,-0.319078,0.253265,-0.319589,0.247000,-0.320000,-0.247000,-0.320000,-0.253265,-0.319589,-0.256364,-0.319078,-0.262429,-0.317453,-0.268230,-0.315050,-0.271000,-0.313569,-0.276221,-0.310081,
-0.278649,-0.308088,-0.280941,-0.305941,-0.283088,-0.303649,-0.285081,-0.301221,-0.288569,-0.296000,-0.290050,-0.293230,-0.292453,-0.287429,-0.294078,-0.281364,-0.294589,-0.278265,-0.295000,-0.272000,-0.295000,0.272000,-0.294589,0.278265,-0.294078,0.281364,-0.292453,0.287429,-0.290050,0.293230,-0.288569,0.296000,-0.285081,0.301221,-0.283088,0.303649,-0.280941,0.305941,-0.278649,0.308088,
-0.276221,0.310081,-0.271000,0.313569,-0.268230,0.315050,-0.262429,0.317453,-0.256364,0.319078,-0.253265,0.319589,-0.247000,0.320000,0.247000,0.320000,0.253265,0.319589,0.253265,0.319589,$1*%
%AMFreePoly5*
4,1,5,0.250000,-0.125000,-0.250000,-0.125000,-0.250000,0.125000,0.250000,0.125000,0.250000,-0.125000,0.250000,-0.125000,$1*%
%AMFreePoly6*
4,1,5,0.450000,-0.800000,-0.450000,-0.800000,-0.450000,0.800000,0.450000,0.800000,0.450000,-0.800000,0.450000,-0.800000,$1*%
%AMFreePoly7*
4,1,5,0.375000,-0.325000,-0.375000,-0.325000,-0.375000,0.325000,0.375000,0.325000,0.375000,-0.325000,0.375000,-0.325000,$1*%
%AMFreePoly8*
4,1,5,0.300000,-0.725000,-0.300000,-0.725000,-0.300000,0.725000,0.300000,0.725000,0.300000,-0.725000,0.300000,-0.725000,$1*%
%AMFreePoly9*
4,1,5,0.150000,-0.725000,-0.150000,-0.725000,-0.150000,0.725000,0.150000,0.725000,0.150000,-0.725000,0.150000,-0.725000,$1*%
%AMFreePoly10*
4,1,5,0.500000,-0.350000,-0.500000,-0.350000,-0.500000,0.350000,0.500000,0.350000,0.500000,-0.350000,0.500000,-0.350000,$1*%
G04 Aperture macros list end*
%ADD10FreePoly0,270.000000*%
%ADD11FreePoly0,0.000000*%
%ADD12FreePoly1,90.000000*%
%ADD13FreePoly2,270.000000*%
%ADD14FreePoly3,90.000000*%
%ADD15FreePoly4,0.000000*%
%ADD16FreePoly0,180.000000*%
%ADD17FreePoly1,0.000000*%
%ADD18FreePoly5,180.000000*%
%ADD19FreePoly6,180.000000*%
%ADD20FreePoly7,180.000000*%
%ADD21FreePoly8,90.000000*%
%ADD22FreePoly9,90.000000*%
%ADD23FreePoly10,270.000000*%
G04 APERTURE END LIST*
D10*
%TO.C,*%
X30564299Y-35944200D03*
X30564301Y-37494200D03*
D11*
X15639300Y-15069200D03*
X17189300Y-15069200D03*
D12*
X24364297Y-40894200D03*
X24364303Y-42544200D03*
X28564297Y-40894200D03*
X28564303Y-42544200D03*
D13*
X30514302Y-42169200D03*
X30514298Y-38869200D03*
D14*
X23364294Y-35644200D03*
X23364306Y-38794200D03*
D15*
X29379300Y-26019200D03*
X30349300Y-26019200D03*
D16*
X24939300Y-33719202D03*
X23389300Y-33719198D03*
D15*
X29379300Y-28169200D03*
X30349300Y-28169200D03*
D17*
X25689300Y-30319200D03*
X24039300Y-30319200D03*
D10*
X29014299Y-35944200D03*
X29014301Y-37494200D03*
D17*
X25689300Y-28169200D03*
X24039300Y-28169200D03*
D18*
X27564299Y-37469203D03*
X25664299Y-37469197D03*
D19*
X26614300Y-37219200D03*
D18*
X27564301Y-36969203D03*
X25664301Y-36969197D03*
X27564302Y-36469203D03*
X25664298Y-37969197D03*
X25664302Y-36469197D03*
X27564298Y-37969203D03*
D20*
X26614299Y-37619200D03*
X26614301Y-36819200D03*
D17*
X25689300Y-26019200D03*
X24039300Y-26019200D03*
D21*
X41805409Y-23679219D03*
D22*
X41805394Y-19479219D03*
D21*
X41805391Y-18779219D03*
D22*
X41805395Y-19979219D03*
X41805399Y-20979219D03*
X41805406Y-22979219D03*
D21*
X41805412Y-24479219D03*
D22*
X41805397Y-20479219D03*
D21*
X41805388Y-17979219D03*
D22*
X41805403Y-21979219D03*
X41805401Y-21479219D03*
X41805405Y-22479219D03*
D23*
X17939302Y-47969199D03*
X15789298Y-43469201D03*
X17939298Y-43469199D03*
X15789302Y-47969201D03*
D12*
X25764297Y-40894200D03*
X25764303Y-42544200D03*
D23*
X38939302Y-47969199D03*
X36789298Y-43469201D03*
X38939298Y-43469199D03*
X36789302Y-47969201D03*
D11*
X15639300Y-13719200D03*
X17189300Y-13719200D03*
X15639300Y-16719200D03*
X17189300Y-16719200D03*
D15*
X29379300Y-30319200D03*
X30349300Y-30319200D03*
%TD*%
M02*
