%TF.GenerationSoftware,Flux,Pcbnew,7.0.11-7.0.11~ubuntu20.04.1*%
%TF.CreationDate,2024-08-16T08:07:52+00:00*%
%TF.ProjectId,input,696e7075-742e-46b6-9963-61645f706362,rev?*%
%TF.SameCoordinates,Original*%
%TF.FileFunction,Soldermask,Bot*%
%TF.FilePolarity,Negative*%
%FSLAX46Y46*%
G04 Gerber Fmt 4.6, Leading zero omitted, Abs format (unit mm)*
G04 Filename: betterflipperzero*
G04 Build it with Flux! Visit our site at: https://www.flux.ai (PCBNEW 7.0.11-7.0.11~ubuntu20.04.1) date 2024-08-16 08:07:52*
%MOMM*%
%LPD*%
G01*
G04 APERTURE LIST*
G04 APERTURE END LIST*
%TO.C,*%
G36*
X43284006Y-16385638D02*
G01*
X43309650Y-16388164D01*
X43335139Y-16391945D01*
X43360412Y-16396972D01*
X43385408Y-16403233D01*
X43410067Y-16410713D01*
X43434329Y-16419394D01*
X43458136Y-16429255D01*
X43481430Y-16440273D01*
X43504156Y-16452420D01*
X43526258Y-16465667D01*
X43547683Y-16479983D01*
X43568381Y-16495333D01*
X43588300Y-16511681D01*
X43607393Y-16528986D01*
X43625614Y-16547207D01*
X43642919Y-16566300D01*
X43659266Y-16586219D01*
X43674616Y-16606916D01*
X43688932Y-16628342D01*
X43702180Y-16650444D01*
X43714327Y-16673169D01*
X43725344Y-16696464D01*
X43735205Y-16720270D01*
X43743886Y-16744532D01*
X43751367Y-16769191D01*
X43757628Y-16794187D01*
X43762655Y-16819460D01*
X43766436Y-16844950D01*
X43768962Y-16870594D01*
X43770226Y-16896331D01*
X43770226Y-16922099D01*
X43768962Y-16947837D01*
X43766436Y-16973481D01*
X43762655Y-16998970D01*
X43757628Y-17024244D01*
X43751367Y-17049240D01*
X43743886Y-17073898D01*
X43735205Y-17098160D01*
X43725344Y-17121967D01*
X43714327Y-17145261D01*
X43702180Y-17167987D01*
X43688932Y-17190089D01*
X43674616Y-17211515D01*
X43659266Y-17232212D01*
X43642919Y-17252131D01*
X43625614Y-17271224D01*
X43607393Y-17289445D01*
X43588300Y-17306750D01*
X43568381Y-17323097D01*
X43547683Y-17338447D01*
X43526258Y-17352763D01*
X43504156Y-17366011D01*
X43481430Y-17378158D01*
X43458136Y-17389175D01*
X43434329Y-17399037D01*
X43410067Y-17407718D01*
X43385408Y-17415198D01*
X43360412Y-17421459D01*
X43335139Y-17426486D01*
X43309650Y-17430267D01*
X43284006Y-17432793D01*
X43258268Y-17434057D01*
X43232500Y-17434057D01*
X42182500Y-17434057D01*
X42156763Y-17432793D01*
X42131119Y-17430267D01*
X42105629Y-17426486D01*
X42080356Y-17421459D01*
X42055360Y-17415198D01*
X42030701Y-17407718D01*
X42006439Y-17399037D01*
X41982632Y-17389175D01*
X41959338Y-17378158D01*
X41936613Y-17366011D01*
X41914510Y-17352763D01*
X41893085Y-17338447D01*
X41872388Y-17323097D01*
X41852468Y-17306750D01*
X41833375Y-17289445D01*
X41815154Y-17271224D01*
X41797849Y-17252131D01*
X41781502Y-17232212D01*
X41766152Y-17211515D01*
X41751836Y-17190089D01*
X41738588Y-17167987D01*
X41726441Y-17145261D01*
X41715424Y-17121967D01*
X41705563Y-17098160D01*
X41696882Y-17073898D01*
X41689402Y-17049240D01*
X41683141Y-17024244D01*
X41678113Y-16998970D01*
X41674332Y-16973481D01*
X41671807Y-16947837D01*
X41670542Y-16922099D01*
X41670542Y-16917191D01*
X41845482Y-16917191D01*
X41846265Y-16933124D01*
X41847828Y-16948999D01*
X41850169Y-16964778D01*
X41853281Y-16980423D01*
X41857157Y-16995897D01*
X41861787Y-17011162D01*
X41867161Y-17026181D01*
X41873266Y-17040919D01*
X41880086Y-17055339D01*
X41887606Y-17069407D01*
X41895807Y-17083090D01*
X41904669Y-17096353D01*
X41914172Y-17109166D01*
X41924291Y-17121497D01*
X41935004Y-17133316D01*
X41946283Y-17144596D01*
X41958103Y-17155308D01*
X41970434Y-17165428D01*
X41983246Y-17174930D01*
X41996510Y-17183793D01*
X42010192Y-17191994D01*
X42024260Y-17199513D01*
X42038681Y-17206334D01*
X42053418Y-17212438D01*
X42068438Y-17217812D01*
X42083702Y-17222443D01*
X42099176Y-17226319D01*
X42114822Y-17229431D01*
X42130601Y-17231771D01*
X42146476Y-17233335D01*
X42162408Y-17234117D01*
X43262408Y-17234117D01*
X43278360Y-17234117D01*
X43294293Y-17233335D01*
X43310168Y-17231771D01*
X43325947Y-17229431D01*
X43341592Y-17226319D01*
X43357066Y-17222443D01*
X43372331Y-17217812D01*
X43387350Y-17212438D01*
X43402088Y-17206334D01*
X43416508Y-17199513D01*
X43430576Y-17191994D01*
X43444258Y-17183793D01*
X43457522Y-17174930D01*
X43470334Y-17165428D01*
X43482665Y-17155308D01*
X43494485Y-17144596D01*
X43505764Y-17133316D01*
X43516477Y-17121497D01*
X43526597Y-17109166D01*
X43536099Y-17096353D01*
X43544962Y-17083090D01*
X43553162Y-17069407D01*
X43560682Y-17055339D01*
X43567502Y-17040919D01*
X43573607Y-17026181D01*
X43578981Y-17011162D01*
X43583611Y-16995897D01*
X43587487Y-16980423D01*
X43590599Y-16964778D01*
X43592940Y-16948999D01*
X43594504Y-16933124D01*
X43595286Y-16917191D01*
X43595286Y-16901239D01*
X43594504Y-16885307D01*
X43592940Y-16869432D01*
X43590599Y-16853653D01*
X43587487Y-16838007D01*
X43583611Y-16822534D01*
X43578981Y-16807269D01*
X43573607Y-16792249D01*
X43567502Y-16777512D01*
X43560682Y-16763092D01*
X43553162Y-16749023D01*
X43544962Y-16735341D01*
X43536099Y-16722078D01*
X43526597Y-16709265D01*
X43516477Y-16696934D01*
X43505764Y-16685115D01*
X43494485Y-16673835D01*
X43482665Y-16663122D01*
X43470334Y-16653003D01*
X43457522Y-16643500D01*
X43444258Y-16634638D01*
X43430576Y-16626437D01*
X43416508Y-16618917D01*
X43402088Y-16612097D01*
X43387350Y-16605993D01*
X43372331Y-16600619D01*
X43357066Y-16595988D01*
X43341592Y-16592112D01*
X43325947Y-16589000D01*
X43310168Y-16586660D01*
X43294293Y-16585096D01*
X43278360Y-16584313D01*
X42162408Y-16584313D01*
X42146476Y-16585096D01*
X42130601Y-16586660D01*
X42114822Y-16589000D01*
X42099176Y-16592112D01*
X42083702Y-16595988D01*
X42068438Y-16600619D01*
X42053418Y-16605993D01*
X42038681Y-16612097D01*
X42024260Y-16618917D01*
X42010192Y-16626437D01*
X41996510Y-16634638D01*
X41983246Y-16643500D01*
X41970434Y-16653003D01*
X41958103Y-16663122D01*
X41946283Y-16673835D01*
X41935004Y-16685115D01*
X41924291Y-16696934D01*
X41914172Y-16709265D01*
X41904669Y-16722078D01*
X41895807Y-16735341D01*
X41887606Y-16749023D01*
X41880086Y-16763092D01*
X41873266Y-16777512D01*
X41867161Y-16792249D01*
X41861787Y-16807269D01*
X41857157Y-16822534D01*
X41853281Y-16838007D01*
X41850169Y-16853653D01*
X41847828Y-16869432D01*
X41846265Y-16885307D01*
X41845482Y-16901239D01*
X41845482Y-16917191D01*
X41670542Y-16917191D01*
X41670542Y-16896331D01*
X41671807Y-16870594D01*
X41674332Y-16844950D01*
X41678113Y-16819460D01*
X41683141Y-16794187D01*
X41689402Y-16769191D01*
X41696882Y-16744532D01*
X41705563Y-16720270D01*
X41715424Y-16696464D01*
X41726441Y-16673169D01*
X41738588Y-16650444D01*
X41751836Y-16628342D01*
X41766152Y-16606916D01*
X41781502Y-16586219D01*
X41797849Y-16566300D01*
X41815154Y-16547207D01*
X41833375Y-16528986D01*
X41852468Y-16511681D01*
X41872388Y-16495333D01*
X41893085Y-16479983D01*
X41914510Y-16465667D01*
X41936613Y-16452420D01*
X41959338Y-16440273D01*
X41982632Y-16429255D01*
X42006439Y-16419394D01*
X42030701Y-16410713D01*
X42055360Y-16403233D01*
X42080356Y-16396972D01*
X42105629Y-16391945D01*
X42131119Y-16388164D01*
X42156763Y-16385638D01*
X42182500Y-16384373D01*
X43258268Y-16384373D01*
X43284006Y-16385638D01*
G37*
G36*
X43284037Y-25025638D02*
G01*
X43309681Y-25028164D01*
X43335171Y-25031945D01*
X43360444Y-25036972D01*
X43385440Y-25043233D01*
X43410099Y-25050713D01*
X43434361Y-25059394D01*
X43458168Y-25069255D01*
X43481462Y-25080273D01*
X43504187Y-25092420D01*
X43526290Y-25105667D01*
X43547715Y-25119983D01*
X43568412Y-25135333D01*
X43588332Y-25151681D01*
X43607425Y-25168986D01*
X43625646Y-25187207D01*
X43642951Y-25206300D01*
X43659298Y-25226219D01*
X43674648Y-25246916D01*
X43688964Y-25268342D01*
X43702212Y-25290444D01*
X43714359Y-25313169D01*
X43725376Y-25336464D01*
X43735237Y-25360270D01*
X43743918Y-25384532D01*
X43751398Y-25409191D01*
X43757659Y-25434187D01*
X43762687Y-25459460D01*
X43766468Y-25484950D01*
X43768993Y-25510594D01*
X43770258Y-25536331D01*
X43770258Y-25562099D01*
X43768993Y-25587837D01*
X43766468Y-25613481D01*
X43762687Y-25638970D01*
X43757659Y-25664244D01*
X43751398Y-25689240D01*
X43743918Y-25713898D01*
X43735237Y-25738160D01*
X43725376Y-25761967D01*
X43714359Y-25785261D01*
X43702212Y-25807987D01*
X43688964Y-25830089D01*
X43674648Y-25851515D01*
X43659298Y-25872212D01*
X43642951Y-25892131D01*
X43625646Y-25911224D01*
X43607425Y-25929445D01*
X43588332Y-25946750D01*
X43568412Y-25963097D01*
X43547715Y-25978447D01*
X43526290Y-25992763D01*
X43504187Y-26006011D01*
X43481462Y-26018158D01*
X43458168Y-26029175D01*
X43434361Y-26039037D01*
X43410099Y-26047718D01*
X43385440Y-26055198D01*
X43360444Y-26061459D01*
X43335171Y-26066486D01*
X43309681Y-26070267D01*
X43284037Y-26072793D01*
X43258300Y-26074057D01*
X43232532Y-26074057D01*
X42182532Y-26074057D01*
X42156794Y-26072793D01*
X42131150Y-26070267D01*
X42105661Y-26066486D01*
X42080388Y-26061459D01*
X42055392Y-26055198D01*
X42030733Y-26047718D01*
X42006471Y-26039037D01*
X41982664Y-26029175D01*
X41959370Y-26018158D01*
X41936644Y-26006011D01*
X41914542Y-25992763D01*
X41893117Y-25978447D01*
X41872419Y-25963097D01*
X41852500Y-25946750D01*
X41833407Y-25929445D01*
X41815186Y-25911224D01*
X41797881Y-25892131D01*
X41781534Y-25872212D01*
X41766184Y-25851515D01*
X41751868Y-25830089D01*
X41738620Y-25807987D01*
X41726473Y-25785261D01*
X41715456Y-25761967D01*
X41705595Y-25738160D01*
X41696914Y-25713898D01*
X41689433Y-25689240D01*
X41683172Y-25664244D01*
X41678145Y-25638970D01*
X41674364Y-25613481D01*
X41671838Y-25587837D01*
X41670574Y-25562099D01*
X41670574Y-25557191D01*
X41845514Y-25557191D01*
X41846296Y-25573124D01*
X41847860Y-25588999D01*
X41850201Y-25604778D01*
X41853313Y-25620423D01*
X41857189Y-25635897D01*
X41861819Y-25651162D01*
X41867193Y-25666181D01*
X41873298Y-25680919D01*
X41880118Y-25695339D01*
X41887638Y-25709407D01*
X41895838Y-25723090D01*
X41904701Y-25736353D01*
X41914203Y-25749166D01*
X41924323Y-25761497D01*
X41935036Y-25773316D01*
X41946315Y-25784596D01*
X41958135Y-25795308D01*
X41970466Y-25805428D01*
X41983278Y-25814930D01*
X41996542Y-25823793D01*
X42010224Y-25831994D01*
X42024292Y-25839513D01*
X42038712Y-25846334D01*
X42053450Y-25852438D01*
X42068469Y-25857812D01*
X42083734Y-25862443D01*
X42099208Y-25866319D01*
X42114853Y-25869431D01*
X42130632Y-25871771D01*
X42146507Y-25873335D01*
X42162440Y-25874117D01*
X43262440Y-25874117D01*
X43278392Y-25874117D01*
X43294324Y-25873335D01*
X43310199Y-25871771D01*
X43325978Y-25869431D01*
X43341624Y-25866319D01*
X43357098Y-25862443D01*
X43372362Y-25857812D01*
X43387382Y-25852438D01*
X43402119Y-25846334D01*
X43416540Y-25839513D01*
X43430608Y-25831994D01*
X43444290Y-25823793D01*
X43457554Y-25814930D01*
X43470366Y-25805428D01*
X43482697Y-25795308D01*
X43494517Y-25784596D01*
X43505796Y-25773316D01*
X43516509Y-25761497D01*
X43526628Y-25749166D01*
X43536131Y-25736353D01*
X43544993Y-25723090D01*
X43553194Y-25709407D01*
X43560714Y-25695339D01*
X43567534Y-25680919D01*
X43573639Y-25666181D01*
X43579013Y-25651162D01*
X43583643Y-25635897D01*
X43587519Y-25620423D01*
X43590631Y-25604778D01*
X43592972Y-25588999D01*
X43594535Y-25573124D01*
X43595318Y-25557191D01*
X43595318Y-25541239D01*
X43594535Y-25525307D01*
X43592972Y-25509432D01*
X43590631Y-25493653D01*
X43587519Y-25478007D01*
X43583643Y-25462534D01*
X43579013Y-25447269D01*
X43573639Y-25432249D01*
X43567534Y-25417512D01*
X43560714Y-25403092D01*
X43553194Y-25389023D01*
X43544993Y-25375341D01*
X43536131Y-25362078D01*
X43526628Y-25349265D01*
X43516509Y-25336934D01*
X43505796Y-25325115D01*
X43494517Y-25313835D01*
X43482697Y-25303122D01*
X43470366Y-25293003D01*
X43457554Y-25283500D01*
X43444290Y-25274638D01*
X43430608Y-25266437D01*
X43416540Y-25258917D01*
X43402119Y-25252097D01*
X43387382Y-25245993D01*
X43372362Y-25240619D01*
X43357098Y-25235988D01*
X43341624Y-25232112D01*
X43325978Y-25229000D01*
X43310199Y-25226660D01*
X43294324Y-25225096D01*
X43278392Y-25224313D01*
X42162440Y-25224313D01*
X42146507Y-25225096D01*
X42130632Y-25226660D01*
X42114853Y-25229000D01*
X42099208Y-25232112D01*
X42083734Y-25235988D01*
X42068469Y-25240619D01*
X42053450Y-25245993D01*
X42038712Y-25252097D01*
X42024292Y-25258917D01*
X42010224Y-25266437D01*
X41996542Y-25274638D01*
X41983278Y-25283500D01*
X41970466Y-25293003D01*
X41958135Y-25303122D01*
X41946315Y-25313835D01*
X41935036Y-25325115D01*
X41924323Y-25336934D01*
X41914203Y-25349265D01*
X41904701Y-25362078D01*
X41895838Y-25375341D01*
X41887638Y-25389023D01*
X41880118Y-25403092D01*
X41873298Y-25417512D01*
X41867193Y-25432249D01*
X41861819Y-25447269D01*
X41857189Y-25462534D01*
X41853313Y-25478007D01*
X41850201Y-25493653D01*
X41847860Y-25509432D01*
X41846296Y-25525307D01*
X41845514Y-25541239D01*
X41845514Y-25557191D01*
X41670574Y-25557191D01*
X41670574Y-25536331D01*
X41671838Y-25510594D01*
X41674364Y-25484950D01*
X41678145Y-25459460D01*
X41683172Y-25434187D01*
X41689433Y-25409191D01*
X41696914Y-25384532D01*
X41705595Y-25360270D01*
X41715456Y-25336464D01*
X41726473Y-25313169D01*
X41738620Y-25290444D01*
X41751868Y-25268342D01*
X41766184Y-25246916D01*
X41781534Y-25226219D01*
X41797881Y-25206300D01*
X41815186Y-25187207D01*
X41833407Y-25168986D01*
X41852500Y-25151681D01*
X41872419Y-25135333D01*
X41893117Y-25119983D01*
X41914542Y-25105667D01*
X41936644Y-25092420D01*
X41959370Y-25080273D01*
X41982664Y-25069255D01*
X42006471Y-25059394D01*
X42030733Y-25050713D01*
X42055392Y-25043233D01*
X42080388Y-25036972D01*
X42105661Y-25031945D01*
X42131150Y-25028164D01*
X42156794Y-25025638D01*
X42182532Y-25024373D01*
X43258300Y-25024373D01*
X43284037Y-25025638D01*
G37*
G36*
X47464037Y-25025623D02*
G01*
X47489681Y-25028148D01*
X47515171Y-25031929D01*
X47540444Y-25036956D01*
X47565440Y-25043218D01*
X47590099Y-25050698D01*
X47614361Y-25059379D01*
X47638168Y-25069240D01*
X47661462Y-25080257D01*
X47684187Y-25092404D01*
X47706290Y-25105652D01*
X47727715Y-25119968D01*
X47748412Y-25135318D01*
X47768332Y-25151665D01*
X47787425Y-25168970D01*
X47805646Y-25187191D01*
X47822951Y-25206284D01*
X47839298Y-25226203D01*
X47854648Y-25246901D01*
X47868964Y-25268326D01*
X47882212Y-25290428D01*
X47894359Y-25313154D01*
X47905376Y-25336448D01*
X47915237Y-25360255D01*
X47923918Y-25384517D01*
X47931398Y-25409176D01*
X47937659Y-25434172D01*
X47942687Y-25459445D01*
X47946468Y-25484934D01*
X47948993Y-25510579D01*
X47950258Y-25536316D01*
X47950258Y-25562084D01*
X47948993Y-25587821D01*
X47946468Y-25613466D01*
X47942687Y-25638955D01*
X47937659Y-25664228D01*
X47931398Y-25689224D01*
X47923918Y-25713883D01*
X47915237Y-25738145D01*
X47905376Y-25761952D01*
X47894359Y-25785246D01*
X47882212Y-25807972D01*
X47868964Y-25830074D01*
X47854648Y-25851499D01*
X47839298Y-25872197D01*
X47822951Y-25892116D01*
X47805646Y-25911209D01*
X47787425Y-25929430D01*
X47768332Y-25946735D01*
X47748412Y-25963082D01*
X47727715Y-25978432D01*
X47706290Y-25992748D01*
X47684187Y-26005996D01*
X47661462Y-26018143D01*
X47638168Y-26029160D01*
X47614361Y-26039021D01*
X47590099Y-26047702D01*
X47565440Y-26055182D01*
X47540444Y-26061444D01*
X47515171Y-26066471D01*
X47489681Y-26070252D01*
X47464037Y-26072777D01*
X47438300Y-26074042D01*
X47412532Y-26074042D01*
X46362532Y-26074042D01*
X46336794Y-26072777D01*
X46311150Y-26070252D01*
X46285661Y-26066471D01*
X46260388Y-26061444D01*
X46235392Y-26055182D01*
X46210733Y-26047702D01*
X46186471Y-26039021D01*
X46162664Y-26029160D01*
X46139370Y-26018143D01*
X46116644Y-26005996D01*
X46094542Y-25992748D01*
X46073117Y-25978432D01*
X46052419Y-25963082D01*
X46032500Y-25946735D01*
X46013407Y-25929430D01*
X45995186Y-25911209D01*
X45977881Y-25892116D01*
X45961534Y-25872197D01*
X45946184Y-25851499D01*
X45931868Y-25830074D01*
X45918620Y-25807972D01*
X45906473Y-25785246D01*
X45895456Y-25761952D01*
X45885595Y-25738145D01*
X45876914Y-25713883D01*
X45869433Y-25689224D01*
X45863172Y-25664228D01*
X45858145Y-25638955D01*
X45854364Y-25613466D01*
X45851838Y-25587821D01*
X45850574Y-25562084D01*
X45850574Y-25557176D01*
X46275514Y-25557176D01*
X46276296Y-25573108D01*
X46277860Y-25588983D01*
X46280201Y-25604763D01*
X46283313Y-25620408D01*
X46287189Y-25635882D01*
X46291819Y-25651147D01*
X46297193Y-25666166D01*
X46303298Y-25680903D01*
X46310118Y-25695324D01*
X46317638Y-25709392D01*
X46325838Y-25723074D01*
X46334701Y-25736338D01*
X46344203Y-25749150D01*
X46354323Y-25761481D01*
X46365036Y-25773301D01*
X46376315Y-25784580D01*
X46388135Y-25795293D01*
X46400466Y-25805413D01*
X46413278Y-25814915D01*
X46426542Y-25823777D01*
X46440224Y-25831978D01*
X46454292Y-25839498D01*
X46468712Y-25846318D01*
X46483450Y-25852423D01*
X46498469Y-25857797D01*
X46513734Y-25862427D01*
X46529208Y-25866303D01*
X46544853Y-25869415D01*
X46560632Y-25871756D01*
X46576507Y-25873319D01*
X46592440Y-25874102D01*
X47192440Y-25874102D01*
X47208392Y-25874102D01*
X47224324Y-25873319D01*
X47240199Y-25871756D01*
X47255978Y-25869415D01*
X47271624Y-25866303D01*
X47287098Y-25862427D01*
X47302362Y-25857797D01*
X47317382Y-25852423D01*
X47332119Y-25846318D01*
X47346540Y-25839498D01*
X47360608Y-25831978D01*
X47374290Y-25823777D01*
X47387554Y-25814915D01*
X47400366Y-25805413D01*
X47412697Y-25795293D01*
X47424517Y-25784580D01*
X47435796Y-25773301D01*
X47446509Y-25761481D01*
X47456628Y-25749150D01*
X47466131Y-25736338D01*
X47474993Y-25723074D01*
X47483194Y-25709392D01*
X47490714Y-25695324D01*
X47497534Y-25680903D01*
X47503639Y-25666166D01*
X47509013Y-25651147D01*
X47513643Y-25635882D01*
X47517519Y-25620408D01*
X47520631Y-25604763D01*
X47522972Y-25588983D01*
X47524535Y-25573108D01*
X47525318Y-25557176D01*
X47525318Y-25541224D01*
X47524535Y-25525292D01*
X47522972Y-25509417D01*
X47520631Y-25493637D01*
X47517519Y-25477992D01*
X47513643Y-25462518D01*
X47509013Y-25447253D01*
X47503639Y-25432234D01*
X47497534Y-25417497D01*
X47490714Y-25403076D01*
X47483194Y-25389008D01*
X47474993Y-25375326D01*
X47466131Y-25362062D01*
X47456628Y-25349250D01*
X47446509Y-25336919D01*
X47435796Y-25325099D01*
X47424517Y-25313820D01*
X47412697Y-25303107D01*
X47400366Y-25292987D01*
X47387554Y-25283485D01*
X47374290Y-25274623D01*
X47360608Y-25266422D01*
X47346540Y-25258902D01*
X47332119Y-25252082D01*
X47317382Y-25245977D01*
X47302362Y-25240603D01*
X47287098Y-25235973D01*
X47271624Y-25232097D01*
X47255978Y-25228985D01*
X47240199Y-25226644D01*
X47224324Y-25225081D01*
X47208392Y-25224298D01*
X46592440Y-25224298D01*
X46576507Y-25225081D01*
X46560632Y-25226644D01*
X46544853Y-25228985D01*
X46529208Y-25232097D01*
X46513734Y-25235973D01*
X46498469Y-25240603D01*
X46483450Y-25245977D01*
X46468712Y-25252082D01*
X46454292Y-25258902D01*
X46440224Y-25266422D01*
X46426542Y-25274623D01*
X46413278Y-25283485D01*
X46400466Y-25292987D01*
X46388135Y-25303107D01*
X46376315Y-25313820D01*
X46365036Y-25325099D01*
X46354323Y-25336919D01*
X46344203Y-25349250D01*
X46334701Y-25362062D01*
X46325838Y-25375326D01*
X46317638Y-25389008D01*
X46310118Y-25403076D01*
X46303298Y-25417497D01*
X46297193Y-25432234D01*
X46291819Y-25447253D01*
X46287189Y-25462518D01*
X46283313Y-25477992D01*
X46280201Y-25493637D01*
X46277860Y-25509417D01*
X46276296Y-25525292D01*
X46275514Y-25541224D01*
X46275514Y-25557176D01*
X45850574Y-25557176D01*
X45850574Y-25536316D01*
X45851838Y-25510579D01*
X45854364Y-25484934D01*
X45858145Y-25459445D01*
X45863172Y-25434172D01*
X45869433Y-25409176D01*
X45876914Y-25384517D01*
X45885595Y-25360255D01*
X45895456Y-25336448D01*
X45906473Y-25313154D01*
X45918620Y-25290428D01*
X45931868Y-25268326D01*
X45946184Y-25246901D01*
X45961534Y-25226203D01*
X45977881Y-25206284D01*
X45995186Y-25187191D01*
X46013407Y-25168970D01*
X46032500Y-25151665D01*
X46052419Y-25135318D01*
X46073117Y-25119968D01*
X46094542Y-25105652D01*
X46116644Y-25092404D01*
X46139370Y-25080257D01*
X46162664Y-25069240D01*
X46186471Y-25059379D01*
X46210733Y-25050698D01*
X46235392Y-25043218D01*
X46260388Y-25036956D01*
X46285661Y-25031929D01*
X46311150Y-25028148D01*
X46336794Y-25025623D01*
X46362532Y-25024358D01*
X47438300Y-25024358D01*
X47464037Y-25025623D01*
G37*
G36*
X47464006Y-16385623D02*
G01*
X47489650Y-16388148D01*
X47515139Y-16391929D01*
X47540412Y-16396956D01*
X47565408Y-16403218D01*
X47590067Y-16410698D01*
X47614329Y-16419379D01*
X47638136Y-16429240D01*
X47661430Y-16440257D01*
X47684156Y-16452404D01*
X47706258Y-16465652D01*
X47727683Y-16479968D01*
X47748381Y-16495318D01*
X47768300Y-16511665D01*
X47787393Y-16528970D01*
X47805614Y-16547191D01*
X47822919Y-16566284D01*
X47839266Y-16586203D01*
X47854616Y-16606901D01*
X47868932Y-16628326D01*
X47882180Y-16650428D01*
X47894327Y-16673154D01*
X47905344Y-16696448D01*
X47915205Y-16720255D01*
X47923886Y-16744517D01*
X47931367Y-16769176D01*
X47937628Y-16794172D01*
X47942655Y-16819445D01*
X47946436Y-16844934D01*
X47948962Y-16870579D01*
X47950226Y-16896316D01*
X47950226Y-16922084D01*
X47948962Y-16947821D01*
X47946436Y-16973466D01*
X47942655Y-16998955D01*
X47937628Y-17024228D01*
X47931367Y-17049224D01*
X47923886Y-17073883D01*
X47915205Y-17098145D01*
X47905344Y-17121952D01*
X47894327Y-17145246D01*
X47882180Y-17167972D01*
X47868932Y-17190074D01*
X47854616Y-17211499D01*
X47839266Y-17232197D01*
X47822919Y-17252116D01*
X47805614Y-17271209D01*
X47787393Y-17289430D01*
X47768300Y-17306735D01*
X47748381Y-17323082D01*
X47727683Y-17338432D01*
X47706258Y-17352748D01*
X47684156Y-17365996D01*
X47661430Y-17378143D01*
X47638136Y-17389160D01*
X47614329Y-17399021D01*
X47590067Y-17407702D01*
X47565408Y-17415182D01*
X47540412Y-17421444D01*
X47515139Y-17426471D01*
X47489650Y-17430252D01*
X47464006Y-17432777D01*
X47438268Y-17434042D01*
X47412500Y-17434042D01*
X46362500Y-17434042D01*
X46336763Y-17432777D01*
X46311119Y-17430252D01*
X46285629Y-17426471D01*
X46260356Y-17421444D01*
X46235360Y-17415182D01*
X46210701Y-17407702D01*
X46186439Y-17399021D01*
X46162632Y-17389160D01*
X46139338Y-17378143D01*
X46116613Y-17365996D01*
X46094510Y-17352748D01*
X46073085Y-17338432D01*
X46052388Y-17323082D01*
X46032468Y-17306735D01*
X46013375Y-17289430D01*
X45995154Y-17271209D01*
X45977849Y-17252116D01*
X45961502Y-17232197D01*
X45946152Y-17211499D01*
X45931836Y-17190074D01*
X45918588Y-17167972D01*
X45906441Y-17145246D01*
X45895424Y-17121952D01*
X45885563Y-17098145D01*
X45876882Y-17073883D01*
X45869402Y-17049224D01*
X45863141Y-17024228D01*
X45858113Y-16998955D01*
X45854332Y-16973466D01*
X45851807Y-16947821D01*
X45850542Y-16922084D01*
X45850542Y-16917176D01*
X46275482Y-16917176D01*
X46276265Y-16933108D01*
X46277828Y-16948983D01*
X46280169Y-16964763D01*
X46283281Y-16980408D01*
X46287157Y-16995882D01*
X46291787Y-17011147D01*
X46297161Y-17026166D01*
X46303266Y-17040903D01*
X46310086Y-17055324D01*
X46317606Y-17069392D01*
X46325807Y-17083074D01*
X46334669Y-17096338D01*
X46344172Y-17109150D01*
X46354291Y-17121481D01*
X46365004Y-17133301D01*
X46376283Y-17144580D01*
X46388103Y-17155293D01*
X46400434Y-17165413D01*
X46413246Y-17174915D01*
X46426510Y-17183777D01*
X46440192Y-17191978D01*
X46454260Y-17199498D01*
X46468681Y-17206318D01*
X46483418Y-17212423D01*
X46498438Y-17217797D01*
X46513702Y-17222427D01*
X46529176Y-17226303D01*
X46544822Y-17229415D01*
X46560601Y-17231756D01*
X46576476Y-17233319D01*
X46592408Y-17234102D01*
X47192408Y-17234102D01*
X47208360Y-17234102D01*
X47224293Y-17233319D01*
X47240168Y-17231756D01*
X47255947Y-17229415D01*
X47271592Y-17226303D01*
X47287066Y-17222427D01*
X47302331Y-17217797D01*
X47317350Y-17212423D01*
X47332088Y-17206318D01*
X47346508Y-17199498D01*
X47360576Y-17191978D01*
X47374258Y-17183777D01*
X47387522Y-17174915D01*
X47400334Y-17165413D01*
X47412665Y-17155293D01*
X47424485Y-17144580D01*
X47435764Y-17133301D01*
X47446477Y-17121481D01*
X47456597Y-17109150D01*
X47466099Y-17096338D01*
X47474962Y-17083074D01*
X47483162Y-17069392D01*
X47490682Y-17055324D01*
X47497502Y-17040903D01*
X47503607Y-17026166D01*
X47508981Y-17011147D01*
X47513611Y-16995882D01*
X47517487Y-16980408D01*
X47520599Y-16964763D01*
X47522940Y-16948983D01*
X47524504Y-16933108D01*
X47525286Y-16917176D01*
X47525286Y-16901224D01*
X47524504Y-16885292D01*
X47522940Y-16869417D01*
X47520599Y-16853637D01*
X47517487Y-16837992D01*
X47513611Y-16822518D01*
X47508981Y-16807253D01*
X47503607Y-16792234D01*
X47497502Y-16777497D01*
X47490682Y-16763076D01*
X47483162Y-16749008D01*
X47474962Y-16735326D01*
X47466099Y-16722062D01*
X47456597Y-16709250D01*
X47446477Y-16696919D01*
X47435764Y-16685099D01*
X47424485Y-16673820D01*
X47412665Y-16663107D01*
X47400334Y-16652987D01*
X47387522Y-16643485D01*
X47374258Y-16634623D01*
X47360576Y-16626422D01*
X47346508Y-16618902D01*
X47332088Y-16612082D01*
X47317350Y-16605977D01*
X47302331Y-16600603D01*
X47287066Y-16595973D01*
X47271592Y-16592097D01*
X47255947Y-16588985D01*
X47240168Y-16586644D01*
X47224293Y-16585081D01*
X47208360Y-16584298D01*
X46592408Y-16584298D01*
X46576476Y-16585081D01*
X46560601Y-16586644D01*
X46544822Y-16588985D01*
X46529176Y-16592097D01*
X46513702Y-16595973D01*
X46498438Y-16600603D01*
X46483418Y-16605977D01*
X46468681Y-16612082D01*
X46454260Y-16618902D01*
X46440192Y-16626422D01*
X46426510Y-16634623D01*
X46413246Y-16643485D01*
X46400434Y-16652987D01*
X46388103Y-16663107D01*
X46376283Y-16673820D01*
X46365004Y-16685099D01*
X46354291Y-16696919D01*
X46344172Y-16709250D01*
X46334669Y-16722062D01*
X46325807Y-16735326D01*
X46317606Y-16749008D01*
X46310086Y-16763076D01*
X46303266Y-16777497D01*
X46297161Y-16792234D01*
X46291787Y-16807253D01*
X46287157Y-16822518D01*
X46283281Y-16837992D01*
X46280169Y-16853637D01*
X46277828Y-16869417D01*
X46276265Y-16885292D01*
X46275482Y-16901224D01*
X46275482Y-16917176D01*
X45850542Y-16917176D01*
X45850542Y-16896316D01*
X45851807Y-16870579D01*
X45854332Y-16844934D01*
X45858113Y-16819445D01*
X45863141Y-16794172D01*
X45869402Y-16769176D01*
X45876882Y-16744517D01*
X45885563Y-16720255D01*
X45895424Y-16696448D01*
X45906441Y-16673154D01*
X45918588Y-16650428D01*
X45931836Y-16628326D01*
X45946152Y-16606901D01*
X45961502Y-16586203D01*
X45977849Y-16566284D01*
X45995154Y-16547191D01*
X46013375Y-16528970D01*
X46032468Y-16511665D01*
X46052388Y-16495318D01*
X46073085Y-16479968D01*
X46094510Y-16465652D01*
X46116613Y-16452404D01*
X46139338Y-16440257D01*
X46162632Y-16429240D01*
X46186439Y-16419379D01*
X46210701Y-16410698D01*
X46235360Y-16403218D01*
X46260356Y-16396956D01*
X46285629Y-16391929D01*
X46311119Y-16388148D01*
X46336763Y-16385623D01*
X46362500Y-16384358D01*
X47438268Y-16384358D01*
X47464006Y-16385623D01*
G37*
G36*
X19664300Y-14279200D02*
G01*
X18164300Y-14279200D01*
X18164300Y-13379200D01*
X19664300Y-13379200D01*
X19664300Y-14279200D01*
G37*
G36*
X19664300Y-18089200D02*
G01*
X18164300Y-18089200D01*
X18164300Y-17189200D01*
X19664300Y-17189200D01*
X19664300Y-18089200D01*
G37*
G36*
X28214300Y-19329200D02*
G01*
X27314300Y-19329200D01*
X27314300Y-18429200D01*
X28214300Y-18429200D01*
X28214300Y-19329200D01*
G37*
G36*
X28214300Y-22129200D02*
G01*
X27314300Y-22129200D01*
X27314300Y-21229200D01*
X28214300Y-21229200D01*
X28214300Y-22129200D01*
G37*
G36*
X31289300Y-31069200D02*
G01*
X30389300Y-31069200D01*
X30389300Y-29569200D01*
X31289300Y-29569200D01*
X31289300Y-31069200D01*
G37*
G36*
X19664300Y-15549200D02*
G01*
X18164300Y-15549200D01*
X18164300Y-14649200D01*
X19664300Y-14649200D01*
X19664300Y-15549200D01*
G37*
G36*
X19664300Y-19359200D02*
G01*
X18164300Y-19359200D01*
X18164300Y-18459200D01*
X19664300Y-18459200D01*
X19664300Y-19359200D01*
G37*
G36*
X19664300Y-26979200D02*
G01*
X18164300Y-26979200D01*
X18164300Y-26079200D01*
X19664300Y-26079200D01*
X19664300Y-26979200D01*
G37*
G36*
X28749300Y-31069200D02*
G01*
X27849300Y-31069200D01*
X27849300Y-29569200D01*
X28749300Y-29569200D01*
X28749300Y-31069200D01*
G37*
G36*
X31014300Y-22129200D02*
G01*
X30114300Y-22129200D01*
X30114300Y-21229200D01*
X31014300Y-21229200D01*
X31014300Y-22129200D01*
G37*
G36*
X37164300Y-20629200D02*
G01*
X35664300Y-20629200D01*
X35664300Y-19729200D01*
X37164300Y-19729200D01*
X37164300Y-20629200D01*
G37*
G36*
X32559300Y-31069200D02*
G01*
X31659300Y-31069200D01*
X31659300Y-29569200D01*
X32559300Y-29569200D01*
X32559300Y-31069200D01*
G37*
G36*
X37164300Y-28249200D02*
G01*
X35664300Y-28249200D01*
X35664300Y-27349200D01*
X37164300Y-27349200D01*
X37164300Y-28249200D01*
G37*
G36*
X19664300Y-28249200D02*
G01*
X18164300Y-28249200D01*
X18164300Y-27349200D01*
X19664300Y-27349200D01*
X19664300Y-28249200D01*
G37*
G36*
X19664300Y-25709200D02*
G01*
X18164300Y-25709200D01*
X18164300Y-24809200D01*
X19664300Y-24809200D01*
X19664300Y-25709200D01*
G37*
G36*
X37164300Y-14279200D02*
G01*
X35664300Y-14279200D01*
X35664300Y-13379200D01*
X37164300Y-13379200D01*
X37164300Y-14279200D01*
G37*
G36*
X19664300Y-21899200D02*
G01*
X18164300Y-21899200D01*
X18164300Y-20999200D01*
X19664300Y-20999200D01*
X19664300Y-21899200D01*
G37*
G36*
X22399300Y-31069200D02*
G01*
X21499300Y-31069200D01*
X21499300Y-29569200D01*
X22399300Y-29569200D01*
X22399300Y-31069200D01*
G37*
G36*
X19664300Y-16819200D02*
G01*
X18164300Y-16819200D01*
X18164300Y-15919200D01*
X19664300Y-15919200D01*
X19664300Y-16819200D01*
G37*
G36*
X37164300Y-24439200D02*
G01*
X35664300Y-24439200D01*
X35664300Y-23539200D01*
X37164300Y-23539200D01*
X37164300Y-24439200D01*
G37*
G36*
X19664300Y-29519200D02*
G01*
X18164300Y-29519200D01*
X18164300Y-28619200D01*
X19664300Y-28619200D01*
X19664300Y-29519200D01*
G37*
G36*
X37164300Y-29519200D02*
G01*
X35664300Y-29519200D01*
X35664300Y-28619200D01*
X37164300Y-28619200D01*
X37164300Y-29519200D01*
G37*
G36*
X33829300Y-31069200D02*
G01*
X32929300Y-31069200D01*
X32929300Y-29569200D01*
X33829300Y-29569200D01*
X33829300Y-31069200D01*
G37*
G36*
X23669300Y-31069200D02*
G01*
X22769300Y-31069200D01*
X22769300Y-29569200D01*
X23669300Y-29569200D01*
X23669300Y-31069200D01*
G37*
G36*
X31014300Y-20729200D02*
G01*
X30114300Y-20729200D01*
X30114300Y-19829200D01*
X31014300Y-19829200D01*
X31014300Y-20729200D01*
G37*
G36*
X37164300Y-16819200D02*
G01*
X35664300Y-16819200D01*
X35664300Y-15919200D01*
X37164300Y-15919200D01*
X37164300Y-16819200D01*
G37*
G36*
X30019300Y-31069200D02*
G01*
X29119300Y-31069200D01*
X29119300Y-29569200D01*
X30019300Y-29569200D01*
X30019300Y-31069200D01*
G37*
G36*
X37164300Y-15549200D02*
G01*
X35664300Y-15549200D01*
X35664300Y-14649200D01*
X37164300Y-14649200D01*
X37164300Y-15549200D01*
G37*
G36*
X21129300Y-31069200D02*
G01*
X20229300Y-31069200D01*
X20229300Y-29569200D01*
X21129300Y-29569200D01*
X21129300Y-31069200D01*
G37*
G36*
X37164300Y-21899200D02*
G01*
X35664300Y-21899200D01*
X35664300Y-20999200D01*
X37164300Y-20999200D01*
X37164300Y-21899200D01*
G37*
G36*
X37164300Y-23169200D02*
G01*
X35664300Y-23169200D01*
X35664300Y-22269200D01*
X37164300Y-22269200D01*
X37164300Y-23169200D01*
G37*
G36*
X19664300Y-20629200D02*
G01*
X18164300Y-20629200D01*
X18164300Y-19729200D01*
X19664300Y-19729200D01*
X19664300Y-20629200D01*
G37*
G36*
X28214300Y-20729200D02*
G01*
X27314300Y-20729200D01*
X27314300Y-19829200D01*
X28214300Y-19829200D01*
X28214300Y-20729200D01*
G37*
G36*
X37164300Y-25709200D02*
G01*
X35664300Y-25709200D01*
X35664300Y-24809200D01*
X37164300Y-24809200D01*
X37164300Y-25709200D01*
G37*
G36*
X19664300Y-23169200D02*
G01*
X18164300Y-23169200D01*
X18164300Y-22269200D01*
X19664300Y-22269200D01*
X19664300Y-23169200D01*
G37*
G36*
X37164300Y-26979200D02*
G01*
X35664300Y-26979200D01*
X35664300Y-26079200D01*
X37164300Y-26079200D01*
X37164300Y-26979200D01*
G37*
G36*
X37164300Y-19359200D02*
G01*
X35664300Y-19359200D01*
X35664300Y-18459200D01*
X37164300Y-18459200D01*
X37164300Y-19359200D01*
G37*
G36*
X27479300Y-31069200D02*
G01*
X26579300Y-31069200D01*
X26579300Y-29569200D01*
X27479300Y-29569200D01*
X27479300Y-31069200D01*
G37*
G36*
X29614300Y-22129200D02*
G01*
X28714300Y-22129200D01*
X28714300Y-21229200D01*
X29614300Y-21229200D01*
X29614300Y-22129200D01*
G37*
G36*
X19664300Y-13009200D02*
G01*
X18164300Y-13009200D01*
X18164300Y-12109200D01*
X19664300Y-12109200D01*
X19664300Y-13009200D01*
G37*
G36*
X29614300Y-20729200D02*
G01*
X28714300Y-20729200D01*
X28714300Y-19829200D01*
X29614300Y-19829200D01*
X29614300Y-20729200D01*
G37*
G36*
X26209300Y-31069200D02*
G01*
X25309300Y-31069200D01*
X25309300Y-29569200D01*
X26209300Y-29569200D01*
X26209300Y-31069200D01*
G37*
G36*
X37164300Y-18089200D02*
G01*
X35664300Y-18089200D01*
X35664300Y-17189200D01*
X37164300Y-17189200D01*
X37164300Y-18089200D01*
G37*
G36*
X37164300Y-13009200D02*
G01*
X35664300Y-13009200D01*
X35664300Y-12109200D01*
X37164300Y-12109200D01*
X37164300Y-13009200D01*
G37*
G36*
X24939300Y-31069200D02*
G01*
X24039300Y-31069200D01*
X24039300Y-29569200D01*
X24939300Y-29569200D01*
X24939300Y-31069200D01*
G37*
G36*
X29614300Y-19329200D02*
G01*
X28714300Y-19329200D01*
X28714300Y-18429200D01*
X29614300Y-18429200D01*
X29614300Y-19329200D01*
G37*
G36*
X35099300Y-31069200D02*
G01*
X34199300Y-31069200D01*
X34199300Y-29569200D01*
X35099300Y-29569200D01*
X35099300Y-31069200D01*
G37*
G36*
X31014300Y-19329200D02*
G01*
X30114300Y-19329200D01*
X30114300Y-18429200D01*
X31014300Y-18429200D01*
X31014300Y-19329200D01*
G37*
G36*
X19664300Y-24439200D02*
G01*
X18164300Y-24439200D01*
X18164300Y-23539200D01*
X19664300Y-23539200D01*
X19664300Y-24439200D01*
G37*
G36*
X28479013Y-21479742D02*
G01*
X28488782Y-21480704D01*
X28498492Y-21482144D01*
X28508120Y-21484060D01*
X28517643Y-21486445D01*
X28527036Y-21489294D01*
X28536279Y-21492601D01*
X28545348Y-21496358D01*
X28554222Y-21500555D01*
X28562880Y-21505183D01*
X28571300Y-21510229D01*
X28579462Y-21515683D01*
X28587346Y-21521531D01*
X28594935Y-21527758D01*
X28602208Y-21534351D01*
X28609149Y-21541292D01*
X28615742Y-21548565D01*
X28621969Y-21556154D01*
X28627817Y-21564038D01*
X28633271Y-21572200D01*
X28638317Y-21580620D01*
X28642945Y-21589278D01*
X28647142Y-21598152D01*
X28650899Y-21607221D01*
X28654206Y-21616464D01*
X28657055Y-21625857D01*
X28659440Y-21635380D01*
X28661356Y-21645008D01*
X28662796Y-21654718D01*
X28663758Y-21664487D01*
X28664240Y-21674292D01*
X28664240Y-21684108D01*
X28663758Y-21693913D01*
X28662796Y-21703682D01*
X28661356Y-21713392D01*
X28659440Y-21723020D01*
X28657055Y-21732543D01*
X28654206Y-21741936D01*
X28650899Y-21751179D01*
X28647142Y-21760248D01*
X28642945Y-21769122D01*
X28638317Y-21777780D01*
X28633271Y-21786200D01*
X28627817Y-21794362D01*
X28621969Y-21802246D01*
X28615742Y-21809835D01*
X28609149Y-21817108D01*
X28602208Y-21824049D01*
X28594935Y-21830642D01*
X28587346Y-21836869D01*
X28579462Y-21842717D01*
X28571300Y-21848171D01*
X28562880Y-21853217D01*
X28554222Y-21857845D01*
X28545348Y-21862042D01*
X28536279Y-21865799D01*
X28527036Y-21869106D01*
X28517643Y-21871955D01*
X28508120Y-21874340D01*
X28498492Y-21876256D01*
X28488782Y-21877696D01*
X28479013Y-21878658D01*
X28469208Y-21879140D01*
X28459392Y-21879140D01*
X28449587Y-21878658D01*
X28439818Y-21877696D01*
X28430108Y-21876256D01*
X28420480Y-21874340D01*
X28410957Y-21871955D01*
X28401564Y-21869106D01*
X28392321Y-21865799D01*
X28383252Y-21862042D01*
X28374378Y-21857845D01*
X28365720Y-21853217D01*
X28357300Y-21848171D01*
X28349138Y-21842717D01*
X28341254Y-21836869D01*
X28333665Y-21830642D01*
X28326392Y-21824049D01*
X28319451Y-21817108D01*
X28312858Y-21809835D01*
X28306631Y-21802246D01*
X28300783Y-21794362D01*
X28295329Y-21786200D01*
X28290283Y-21777780D01*
X28285655Y-21769122D01*
X28281458Y-21760248D01*
X28277701Y-21751179D01*
X28274394Y-21741936D01*
X28271545Y-21732543D01*
X28269160Y-21723020D01*
X28267244Y-21713392D01*
X28265804Y-21703682D01*
X28264842Y-21693913D01*
X28264360Y-21684108D01*
X28264360Y-21681654D01*
X28364330Y-21681654D01*
X28364571Y-21686556D01*
X28365052Y-21691441D01*
X28365772Y-21696296D01*
X28366730Y-21701110D01*
X28367922Y-21705871D01*
X28369347Y-21710568D01*
X28371001Y-21715190D01*
X28372879Y-21719724D01*
X28374978Y-21724161D01*
X28377291Y-21728490D01*
X28379815Y-21732700D01*
X28382542Y-21736781D01*
X28385465Y-21740723D01*
X28388579Y-21744517D01*
X28391875Y-21748154D01*
X28395346Y-21751625D01*
X28398983Y-21754921D01*
X28402777Y-21758035D01*
X28406719Y-21760958D01*
X28410800Y-21763685D01*
X28415010Y-21766209D01*
X28419339Y-21768522D01*
X28423776Y-21770621D01*
X28428310Y-21772499D01*
X28432932Y-21774153D01*
X28437629Y-21775578D01*
X28442390Y-21776770D01*
X28447204Y-21777728D01*
X28452059Y-21778448D01*
X28456944Y-21778929D01*
X28461846Y-21779170D01*
X28466754Y-21779170D01*
X28471656Y-21778929D01*
X28476541Y-21778448D01*
X28481396Y-21777728D01*
X28486210Y-21776770D01*
X28490971Y-21775578D01*
X28495668Y-21774153D01*
X28500290Y-21772499D01*
X28504824Y-21770621D01*
X28509261Y-21768522D01*
X28513590Y-21766209D01*
X28517800Y-21763685D01*
X28521881Y-21760958D01*
X28525823Y-21758035D01*
X28529617Y-21754921D01*
X28533254Y-21751625D01*
X28536725Y-21748154D01*
X28540021Y-21744517D01*
X28543135Y-21740723D01*
X28546058Y-21736781D01*
X28548785Y-21732700D01*
X28551309Y-21728490D01*
X28553622Y-21724161D01*
X28555721Y-21719724D01*
X28557599Y-21715190D01*
X28559253Y-21710568D01*
X28560678Y-21705871D01*
X28561870Y-21701110D01*
X28562828Y-21696296D01*
X28563548Y-21691441D01*
X28564029Y-21686556D01*
X28564270Y-21681654D01*
X28564270Y-21676746D01*
X28564029Y-21671844D01*
X28563548Y-21666959D01*
X28562828Y-21662104D01*
X28561870Y-21657290D01*
X28560678Y-21652529D01*
X28559253Y-21647832D01*
X28557599Y-21643210D01*
X28555721Y-21638676D01*
X28553622Y-21634239D01*
X28551309Y-21629910D01*
X28548785Y-21625700D01*
X28546058Y-21621619D01*
X28543135Y-21617677D01*
X28540021Y-21613883D01*
X28536725Y-21610246D01*
X28533254Y-21606775D01*
X28529617Y-21603479D01*
X28525823Y-21600365D01*
X28521881Y-21597442D01*
X28517800Y-21594715D01*
X28513590Y-21592191D01*
X28509261Y-21589878D01*
X28504824Y-21587779D01*
X28500290Y-21585901D01*
X28495668Y-21584247D01*
X28490971Y-21582822D01*
X28486210Y-21581630D01*
X28481396Y-21580672D01*
X28476541Y-21579952D01*
X28471656Y-21579471D01*
X28466754Y-21579230D01*
X28461846Y-21579230D01*
X28456944Y-21579471D01*
X28452059Y-21579952D01*
X28447204Y-21580672D01*
X28442390Y-21581630D01*
X28437629Y-21582822D01*
X28432932Y-21584247D01*
X28428310Y-21585901D01*
X28423776Y-21587779D01*
X28419339Y-21589878D01*
X28415010Y-21592191D01*
X28410800Y-21594715D01*
X28406719Y-21597442D01*
X28402777Y-21600365D01*
X28398983Y-21603479D01*
X28395346Y-21606775D01*
X28391875Y-21610246D01*
X28388579Y-21613883D01*
X28385465Y-21617677D01*
X28382542Y-21621619D01*
X28379815Y-21625700D01*
X28377291Y-21629910D01*
X28374978Y-21634239D01*
X28372879Y-21638676D01*
X28371001Y-21643210D01*
X28369347Y-21647832D01*
X28367922Y-21652529D01*
X28366730Y-21657290D01*
X28365772Y-21662104D01*
X28365052Y-21666959D01*
X28364571Y-21671844D01*
X28364330Y-21676746D01*
X28364330Y-21681654D01*
X28264360Y-21681654D01*
X28264360Y-21674292D01*
X28264842Y-21664487D01*
X28265804Y-21654718D01*
X28267244Y-21645008D01*
X28269160Y-21635380D01*
X28271545Y-21625857D01*
X28274394Y-21616464D01*
X28277701Y-21607221D01*
X28281458Y-21598152D01*
X28285655Y-21589278D01*
X28290283Y-21580620D01*
X28295329Y-21572200D01*
X28300783Y-21564038D01*
X28306631Y-21556154D01*
X28312858Y-21548565D01*
X28319451Y-21541292D01*
X28326392Y-21534351D01*
X28333665Y-21527758D01*
X28341254Y-21521531D01*
X28349138Y-21515683D01*
X28357300Y-21510229D01*
X28365720Y-21505183D01*
X28374378Y-21500555D01*
X28383252Y-21496358D01*
X28392321Y-21492601D01*
X28401564Y-21489294D01*
X28410957Y-21486445D01*
X28420480Y-21484060D01*
X28430108Y-21482144D01*
X28439818Y-21480704D01*
X28449587Y-21479742D01*
X28459392Y-21479260D01*
X28469208Y-21479260D01*
X28479013Y-21479742D01*
G37*
G36*
X29879013Y-21479742D02*
G01*
X29888782Y-21480704D01*
X29898492Y-21482144D01*
X29908120Y-21484060D01*
X29917643Y-21486445D01*
X29927036Y-21489294D01*
X29936279Y-21492601D01*
X29945348Y-21496358D01*
X29954222Y-21500555D01*
X29962880Y-21505183D01*
X29971300Y-21510229D01*
X29979462Y-21515683D01*
X29987346Y-21521531D01*
X29994935Y-21527758D01*
X30002208Y-21534351D01*
X30009149Y-21541292D01*
X30015742Y-21548565D01*
X30021969Y-21556154D01*
X30027817Y-21564038D01*
X30033271Y-21572200D01*
X30038317Y-21580620D01*
X30042945Y-21589278D01*
X30047142Y-21598152D01*
X30050899Y-21607221D01*
X30054206Y-21616464D01*
X30057055Y-21625857D01*
X30059440Y-21635380D01*
X30061356Y-21645008D01*
X30062796Y-21654718D01*
X30063758Y-21664487D01*
X30064240Y-21674292D01*
X30064240Y-21684108D01*
X30063758Y-21693913D01*
X30062796Y-21703682D01*
X30061356Y-21713392D01*
X30059440Y-21723020D01*
X30057055Y-21732543D01*
X30054206Y-21741936D01*
X30050899Y-21751179D01*
X30047142Y-21760248D01*
X30042945Y-21769122D01*
X30038317Y-21777780D01*
X30033271Y-21786200D01*
X30027817Y-21794362D01*
X30021969Y-21802246D01*
X30015742Y-21809835D01*
X30009149Y-21817108D01*
X30002208Y-21824049D01*
X29994935Y-21830642D01*
X29987346Y-21836869D01*
X29979462Y-21842717D01*
X29971300Y-21848171D01*
X29962880Y-21853217D01*
X29954222Y-21857845D01*
X29945348Y-21862042D01*
X29936279Y-21865799D01*
X29927036Y-21869106D01*
X29917643Y-21871955D01*
X29908120Y-21874340D01*
X29898492Y-21876256D01*
X29888782Y-21877696D01*
X29879013Y-21878658D01*
X29869208Y-21879140D01*
X29859392Y-21879140D01*
X29849587Y-21878658D01*
X29839818Y-21877696D01*
X29830108Y-21876256D01*
X29820480Y-21874340D01*
X29810957Y-21871955D01*
X29801564Y-21869106D01*
X29792321Y-21865799D01*
X29783252Y-21862042D01*
X29774378Y-21857845D01*
X29765720Y-21853217D01*
X29757300Y-21848171D01*
X29749138Y-21842717D01*
X29741254Y-21836869D01*
X29733665Y-21830642D01*
X29726392Y-21824049D01*
X29719451Y-21817108D01*
X29712858Y-21809835D01*
X29706631Y-21802246D01*
X29700783Y-21794362D01*
X29695329Y-21786200D01*
X29690283Y-21777780D01*
X29685655Y-21769122D01*
X29681458Y-21760248D01*
X29677701Y-21751179D01*
X29674394Y-21741936D01*
X29671545Y-21732543D01*
X29669160Y-21723020D01*
X29667244Y-21713392D01*
X29665804Y-21703682D01*
X29664842Y-21693913D01*
X29664360Y-21684108D01*
X29664360Y-21681654D01*
X29764330Y-21681654D01*
X29764571Y-21686556D01*
X29765052Y-21691441D01*
X29765772Y-21696296D01*
X29766730Y-21701110D01*
X29767922Y-21705871D01*
X29769347Y-21710568D01*
X29771001Y-21715190D01*
X29772879Y-21719724D01*
X29774978Y-21724161D01*
X29777291Y-21728490D01*
X29779815Y-21732700D01*
X29782542Y-21736781D01*
X29785465Y-21740723D01*
X29788579Y-21744517D01*
X29791875Y-21748154D01*
X29795346Y-21751625D01*
X29798983Y-21754921D01*
X29802777Y-21758035D01*
X29806719Y-21760958D01*
X29810800Y-21763685D01*
X29815010Y-21766209D01*
X29819339Y-21768522D01*
X29823776Y-21770621D01*
X29828310Y-21772499D01*
X29832932Y-21774153D01*
X29837629Y-21775578D01*
X29842390Y-21776770D01*
X29847204Y-21777728D01*
X29852059Y-21778448D01*
X29856944Y-21778929D01*
X29861846Y-21779170D01*
X29866754Y-21779170D01*
X29871656Y-21778929D01*
X29876541Y-21778448D01*
X29881396Y-21777728D01*
X29886210Y-21776770D01*
X29890971Y-21775578D01*
X29895668Y-21774153D01*
X29900290Y-21772499D01*
X29904824Y-21770621D01*
X29909261Y-21768522D01*
X29913590Y-21766209D01*
X29917800Y-21763685D01*
X29921881Y-21760958D01*
X29925823Y-21758035D01*
X29929617Y-21754921D01*
X29933254Y-21751625D01*
X29936725Y-21748154D01*
X29940021Y-21744517D01*
X29943135Y-21740723D01*
X29946058Y-21736781D01*
X29948785Y-21732700D01*
X29951309Y-21728490D01*
X29953622Y-21724161D01*
X29955721Y-21719724D01*
X29957599Y-21715190D01*
X29959253Y-21710568D01*
X29960678Y-21705871D01*
X29961870Y-21701110D01*
X29962828Y-21696296D01*
X29963548Y-21691441D01*
X29964029Y-21686556D01*
X29964270Y-21681654D01*
X29964270Y-21676746D01*
X29964029Y-21671844D01*
X29963548Y-21666959D01*
X29962828Y-21662104D01*
X29961870Y-21657290D01*
X29960678Y-21652529D01*
X29959253Y-21647832D01*
X29957599Y-21643210D01*
X29955721Y-21638676D01*
X29953622Y-21634239D01*
X29951309Y-21629910D01*
X29948785Y-21625700D01*
X29946058Y-21621619D01*
X29943135Y-21617677D01*
X29940021Y-21613883D01*
X29936725Y-21610246D01*
X29933254Y-21606775D01*
X29929617Y-21603479D01*
X29925823Y-21600365D01*
X29921881Y-21597442D01*
X29917800Y-21594715D01*
X29913590Y-21592191D01*
X29909261Y-21589878D01*
X29904824Y-21587779D01*
X29900290Y-21585901D01*
X29895668Y-21584247D01*
X29890971Y-21582822D01*
X29886210Y-21581630D01*
X29881396Y-21580672D01*
X29876541Y-21579952D01*
X29871656Y-21579471D01*
X29866754Y-21579230D01*
X29861846Y-21579230D01*
X29856944Y-21579471D01*
X29852059Y-21579952D01*
X29847204Y-21580672D01*
X29842390Y-21581630D01*
X29837629Y-21582822D01*
X29832932Y-21584247D01*
X29828310Y-21585901D01*
X29823776Y-21587779D01*
X29819339Y-21589878D01*
X29815010Y-21592191D01*
X29810800Y-21594715D01*
X29806719Y-21597442D01*
X29802777Y-21600365D01*
X29798983Y-21603479D01*
X29795346Y-21606775D01*
X29791875Y-21610246D01*
X29788579Y-21613883D01*
X29785465Y-21617677D01*
X29782542Y-21621619D01*
X29779815Y-21625700D01*
X29777291Y-21629910D01*
X29774978Y-21634239D01*
X29772879Y-21638676D01*
X29771001Y-21643210D01*
X29769347Y-21647832D01*
X29767922Y-21652529D01*
X29766730Y-21657290D01*
X29765772Y-21662104D01*
X29765052Y-21666959D01*
X29764571Y-21671844D01*
X29764330Y-21676746D01*
X29764330Y-21681654D01*
X29664360Y-21681654D01*
X29664360Y-21674292D01*
X29664842Y-21664487D01*
X29665804Y-21654718D01*
X29667244Y-21645008D01*
X29669160Y-21635380D01*
X29671545Y-21625857D01*
X29674394Y-21616464D01*
X29677701Y-21607221D01*
X29681458Y-21598152D01*
X29685655Y-21589278D01*
X29690283Y-21580620D01*
X29695329Y-21572200D01*
X29700783Y-21564038D01*
X29706631Y-21556154D01*
X29712858Y-21548565D01*
X29719451Y-21541292D01*
X29726392Y-21534351D01*
X29733665Y-21527758D01*
X29741254Y-21521531D01*
X29749138Y-21515683D01*
X29757300Y-21510229D01*
X29765720Y-21505183D01*
X29774378Y-21500555D01*
X29783252Y-21496358D01*
X29792321Y-21492601D01*
X29801564Y-21489294D01*
X29810957Y-21486445D01*
X29820480Y-21484060D01*
X29830108Y-21482144D01*
X29839818Y-21480704D01*
X29849587Y-21479742D01*
X29859392Y-21479260D01*
X29869208Y-21479260D01*
X29879013Y-21479742D01*
G37*
G36*
X28479013Y-20079742D02*
G01*
X28488782Y-20080704D01*
X28498492Y-20082144D01*
X28508120Y-20084060D01*
X28517643Y-20086445D01*
X28527036Y-20089294D01*
X28536279Y-20092601D01*
X28545348Y-20096358D01*
X28554222Y-20100555D01*
X28562880Y-20105183D01*
X28571300Y-20110229D01*
X28579462Y-20115683D01*
X28587346Y-20121531D01*
X28594935Y-20127758D01*
X28602208Y-20134351D01*
X28609149Y-20141292D01*
X28615742Y-20148565D01*
X28621969Y-20156154D01*
X28627817Y-20164038D01*
X28633271Y-20172200D01*
X28638317Y-20180620D01*
X28642945Y-20189278D01*
X28647142Y-20198152D01*
X28650899Y-20207221D01*
X28654206Y-20216464D01*
X28657055Y-20225857D01*
X28659440Y-20235380D01*
X28661356Y-20245008D01*
X28662796Y-20254718D01*
X28663758Y-20264487D01*
X28664240Y-20274292D01*
X28664240Y-20284108D01*
X28663758Y-20293913D01*
X28662796Y-20303682D01*
X28661356Y-20313392D01*
X28659440Y-20323020D01*
X28657055Y-20332543D01*
X28654206Y-20341936D01*
X28650899Y-20351179D01*
X28647142Y-20360248D01*
X28642945Y-20369122D01*
X28638317Y-20377780D01*
X28633271Y-20386200D01*
X28627817Y-20394362D01*
X28621969Y-20402246D01*
X28615742Y-20409835D01*
X28609149Y-20417108D01*
X28602208Y-20424049D01*
X28594935Y-20430642D01*
X28587346Y-20436869D01*
X28579462Y-20442717D01*
X28571300Y-20448171D01*
X28562880Y-20453217D01*
X28554222Y-20457845D01*
X28545348Y-20462042D01*
X28536279Y-20465799D01*
X28527036Y-20469106D01*
X28517643Y-20471955D01*
X28508120Y-20474340D01*
X28498492Y-20476256D01*
X28488782Y-20477696D01*
X28479013Y-20478658D01*
X28469208Y-20479140D01*
X28459392Y-20479140D01*
X28449587Y-20478658D01*
X28439818Y-20477696D01*
X28430108Y-20476256D01*
X28420480Y-20474340D01*
X28410957Y-20471955D01*
X28401564Y-20469106D01*
X28392321Y-20465799D01*
X28383252Y-20462042D01*
X28374378Y-20457845D01*
X28365720Y-20453217D01*
X28357300Y-20448171D01*
X28349138Y-20442717D01*
X28341254Y-20436869D01*
X28333665Y-20430642D01*
X28326392Y-20424049D01*
X28319451Y-20417108D01*
X28312858Y-20409835D01*
X28306631Y-20402246D01*
X28300783Y-20394362D01*
X28295329Y-20386200D01*
X28290283Y-20377780D01*
X28285655Y-20369122D01*
X28281458Y-20360248D01*
X28277701Y-20351179D01*
X28274394Y-20341936D01*
X28271545Y-20332543D01*
X28269160Y-20323020D01*
X28267244Y-20313392D01*
X28265804Y-20303682D01*
X28264842Y-20293913D01*
X28264360Y-20284108D01*
X28264360Y-20281654D01*
X28364330Y-20281654D01*
X28364571Y-20286556D01*
X28365052Y-20291441D01*
X28365772Y-20296296D01*
X28366730Y-20301110D01*
X28367922Y-20305871D01*
X28369347Y-20310568D01*
X28371001Y-20315190D01*
X28372879Y-20319724D01*
X28374978Y-20324161D01*
X28377291Y-20328490D01*
X28379815Y-20332700D01*
X28382542Y-20336781D01*
X28385465Y-20340723D01*
X28388579Y-20344517D01*
X28391875Y-20348154D01*
X28395346Y-20351625D01*
X28398983Y-20354921D01*
X28402777Y-20358035D01*
X28406719Y-20360958D01*
X28410800Y-20363685D01*
X28415010Y-20366209D01*
X28419339Y-20368522D01*
X28423776Y-20370621D01*
X28428310Y-20372499D01*
X28432932Y-20374153D01*
X28437629Y-20375578D01*
X28442390Y-20376770D01*
X28447204Y-20377728D01*
X28452059Y-20378448D01*
X28456944Y-20378929D01*
X28461846Y-20379170D01*
X28466754Y-20379170D01*
X28471656Y-20378929D01*
X28476541Y-20378448D01*
X28481396Y-20377728D01*
X28486210Y-20376770D01*
X28490971Y-20375578D01*
X28495668Y-20374153D01*
X28500290Y-20372499D01*
X28504824Y-20370621D01*
X28509261Y-20368522D01*
X28513590Y-20366209D01*
X28517800Y-20363685D01*
X28521881Y-20360958D01*
X28525823Y-20358035D01*
X28529617Y-20354921D01*
X28533254Y-20351625D01*
X28536725Y-20348154D01*
X28540021Y-20344517D01*
X28543135Y-20340723D01*
X28546058Y-20336781D01*
X28548785Y-20332700D01*
X28551309Y-20328490D01*
X28553622Y-20324161D01*
X28555721Y-20319724D01*
X28557599Y-20315190D01*
X28559253Y-20310568D01*
X28560678Y-20305871D01*
X28561870Y-20301110D01*
X28562828Y-20296296D01*
X28563548Y-20291441D01*
X28564029Y-20286556D01*
X28564270Y-20281654D01*
X28564270Y-20276746D01*
X28564029Y-20271844D01*
X28563548Y-20266959D01*
X28562828Y-20262104D01*
X28561870Y-20257290D01*
X28560678Y-20252529D01*
X28559253Y-20247832D01*
X28557599Y-20243210D01*
X28555721Y-20238676D01*
X28553622Y-20234239D01*
X28551309Y-20229910D01*
X28548785Y-20225700D01*
X28546058Y-20221619D01*
X28543135Y-20217677D01*
X28540021Y-20213883D01*
X28536725Y-20210246D01*
X28533254Y-20206775D01*
X28529617Y-20203479D01*
X28525823Y-20200365D01*
X28521881Y-20197442D01*
X28517800Y-20194715D01*
X28513590Y-20192191D01*
X28509261Y-20189878D01*
X28504824Y-20187779D01*
X28500290Y-20185901D01*
X28495668Y-20184247D01*
X28490971Y-20182822D01*
X28486210Y-20181630D01*
X28481396Y-20180672D01*
X28476541Y-20179952D01*
X28471656Y-20179471D01*
X28466754Y-20179230D01*
X28461846Y-20179230D01*
X28456944Y-20179471D01*
X28452059Y-20179952D01*
X28447204Y-20180672D01*
X28442390Y-20181630D01*
X28437629Y-20182822D01*
X28432932Y-20184247D01*
X28428310Y-20185901D01*
X28423776Y-20187779D01*
X28419339Y-20189878D01*
X28415010Y-20192191D01*
X28410800Y-20194715D01*
X28406719Y-20197442D01*
X28402777Y-20200365D01*
X28398983Y-20203479D01*
X28395346Y-20206775D01*
X28391875Y-20210246D01*
X28388579Y-20213883D01*
X28385465Y-20217677D01*
X28382542Y-20221619D01*
X28379815Y-20225700D01*
X28377291Y-20229910D01*
X28374978Y-20234239D01*
X28372879Y-20238676D01*
X28371001Y-20243210D01*
X28369347Y-20247832D01*
X28367922Y-20252529D01*
X28366730Y-20257290D01*
X28365772Y-20262104D01*
X28365052Y-20266959D01*
X28364571Y-20271844D01*
X28364330Y-20276746D01*
X28364330Y-20281654D01*
X28264360Y-20281654D01*
X28264360Y-20274292D01*
X28264842Y-20264487D01*
X28265804Y-20254718D01*
X28267244Y-20245008D01*
X28269160Y-20235380D01*
X28271545Y-20225857D01*
X28274394Y-20216464D01*
X28277701Y-20207221D01*
X28281458Y-20198152D01*
X28285655Y-20189278D01*
X28290283Y-20180620D01*
X28295329Y-20172200D01*
X28300783Y-20164038D01*
X28306631Y-20156154D01*
X28312858Y-20148565D01*
X28319451Y-20141292D01*
X28326392Y-20134351D01*
X28333665Y-20127758D01*
X28341254Y-20121531D01*
X28349138Y-20115683D01*
X28357300Y-20110229D01*
X28365720Y-20105183D01*
X28374378Y-20100555D01*
X28383252Y-20096358D01*
X28392321Y-20092601D01*
X28401564Y-20089294D01*
X28410957Y-20086445D01*
X28420480Y-20084060D01*
X28430108Y-20082144D01*
X28439818Y-20080704D01*
X28449587Y-20079742D01*
X28459392Y-20079260D01*
X28469208Y-20079260D01*
X28479013Y-20079742D01*
G37*
G36*
X29879013Y-20079742D02*
G01*
X29888782Y-20080704D01*
X29898492Y-20082144D01*
X29908120Y-20084060D01*
X29917643Y-20086445D01*
X29927036Y-20089294D01*
X29936279Y-20092601D01*
X29945348Y-20096358D01*
X29954222Y-20100555D01*
X29962880Y-20105183D01*
X29971300Y-20110229D01*
X29979462Y-20115683D01*
X29987346Y-20121531D01*
X29994935Y-20127758D01*
X30002208Y-20134351D01*
X30009149Y-20141292D01*
X30015742Y-20148565D01*
X30021969Y-20156154D01*
X30027817Y-20164038D01*
X30033271Y-20172200D01*
X30038317Y-20180620D01*
X30042945Y-20189278D01*
X30047142Y-20198152D01*
X30050899Y-20207221D01*
X30054206Y-20216464D01*
X30057055Y-20225857D01*
X30059440Y-20235380D01*
X30061356Y-20245008D01*
X30062796Y-20254718D01*
X30063758Y-20264487D01*
X30064240Y-20274292D01*
X30064240Y-20284108D01*
X30063758Y-20293913D01*
X30062796Y-20303682D01*
X30061356Y-20313392D01*
X30059440Y-20323020D01*
X30057055Y-20332543D01*
X30054206Y-20341936D01*
X30050899Y-20351179D01*
X30047142Y-20360248D01*
X30042945Y-20369122D01*
X30038317Y-20377780D01*
X30033271Y-20386200D01*
X30027817Y-20394362D01*
X30021969Y-20402246D01*
X30015742Y-20409835D01*
X30009149Y-20417108D01*
X30002208Y-20424049D01*
X29994935Y-20430642D01*
X29987346Y-20436869D01*
X29979462Y-20442717D01*
X29971300Y-20448171D01*
X29962880Y-20453217D01*
X29954222Y-20457845D01*
X29945348Y-20462042D01*
X29936279Y-20465799D01*
X29927036Y-20469106D01*
X29917643Y-20471955D01*
X29908120Y-20474340D01*
X29898492Y-20476256D01*
X29888782Y-20477696D01*
X29879013Y-20478658D01*
X29869208Y-20479140D01*
X29859392Y-20479140D01*
X29849587Y-20478658D01*
X29839818Y-20477696D01*
X29830108Y-20476256D01*
X29820480Y-20474340D01*
X29810957Y-20471955D01*
X29801564Y-20469106D01*
X29792321Y-20465799D01*
X29783252Y-20462042D01*
X29774378Y-20457845D01*
X29765720Y-20453217D01*
X29757300Y-20448171D01*
X29749138Y-20442717D01*
X29741254Y-20436869D01*
X29733665Y-20430642D01*
X29726392Y-20424049D01*
X29719451Y-20417108D01*
X29712858Y-20409835D01*
X29706631Y-20402246D01*
X29700783Y-20394362D01*
X29695329Y-20386200D01*
X29690283Y-20377780D01*
X29685655Y-20369122D01*
X29681458Y-20360248D01*
X29677701Y-20351179D01*
X29674394Y-20341936D01*
X29671545Y-20332543D01*
X29669160Y-20323020D01*
X29667244Y-20313392D01*
X29665804Y-20303682D01*
X29664842Y-20293913D01*
X29664360Y-20284108D01*
X29664360Y-20281654D01*
X29764330Y-20281654D01*
X29764571Y-20286556D01*
X29765052Y-20291441D01*
X29765772Y-20296296D01*
X29766730Y-20301110D01*
X29767922Y-20305871D01*
X29769347Y-20310568D01*
X29771001Y-20315190D01*
X29772879Y-20319724D01*
X29774978Y-20324161D01*
X29777291Y-20328490D01*
X29779815Y-20332700D01*
X29782542Y-20336781D01*
X29785465Y-20340723D01*
X29788579Y-20344517D01*
X29791875Y-20348154D01*
X29795346Y-20351625D01*
X29798983Y-20354921D01*
X29802777Y-20358035D01*
X29806719Y-20360958D01*
X29810800Y-20363685D01*
X29815010Y-20366209D01*
X29819339Y-20368522D01*
X29823776Y-20370621D01*
X29828310Y-20372499D01*
X29832932Y-20374153D01*
X29837629Y-20375578D01*
X29842390Y-20376770D01*
X29847204Y-20377728D01*
X29852059Y-20378448D01*
X29856944Y-20378929D01*
X29861846Y-20379170D01*
X29866754Y-20379170D01*
X29871656Y-20378929D01*
X29876541Y-20378448D01*
X29881396Y-20377728D01*
X29886210Y-20376770D01*
X29890971Y-20375578D01*
X29895668Y-20374153D01*
X29900290Y-20372499D01*
X29904824Y-20370621D01*
X29909261Y-20368522D01*
X29913590Y-20366209D01*
X29917800Y-20363685D01*
X29921881Y-20360958D01*
X29925823Y-20358035D01*
X29929617Y-20354921D01*
X29933254Y-20351625D01*
X29936725Y-20348154D01*
X29940021Y-20344517D01*
X29943135Y-20340723D01*
X29946058Y-20336781D01*
X29948785Y-20332700D01*
X29951309Y-20328490D01*
X29953622Y-20324161D01*
X29955721Y-20319724D01*
X29957599Y-20315190D01*
X29959253Y-20310568D01*
X29960678Y-20305871D01*
X29961870Y-20301110D01*
X29962828Y-20296296D01*
X29963548Y-20291441D01*
X29964029Y-20286556D01*
X29964270Y-20281654D01*
X29964270Y-20276746D01*
X29964029Y-20271844D01*
X29963548Y-20266959D01*
X29962828Y-20262104D01*
X29961870Y-20257290D01*
X29960678Y-20252529D01*
X29959253Y-20247832D01*
X29957599Y-20243210D01*
X29955721Y-20238676D01*
X29953622Y-20234239D01*
X29951309Y-20229910D01*
X29948785Y-20225700D01*
X29946058Y-20221619D01*
X29943135Y-20217677D01*
X29940021Y-20213883D01*
X29936725Y-20210246D01*
X29933254Y-20206775D01*
X29929617Y-20203479D01*
X29925823Y-20200365D01*
X29921881Y-20197442D01*
X29917800Y-20194715D01*
X29913590Y-20192191D01*
X29909261Y-20189878D01*
X29904824Y-20187779D01*
X29900290Y-20185901D01*
X29895668Y-20184247D01*
X29890971Y-20182822D01*
X29886210Y-20181630D01*
X29881396Y-20180672D01*
X29876541Y-20179952D01*
X29871656Y-20179471D01*
X29866754Y-20179230D01*
X29861846Y-20179230D01*
X29856944Y-20179471D01*
X29852059Y-20179952D01*
X29847204Y-20180672D01*
X29842390Y-20181630D01*
X29837629Y-20182822D01*
X29832932Y-20184247D01*
X29828310Y-20185901D01*
X29823776Y-20187779D01*
X29819339Y-20189878D01*
X29815010Y-20192191D01*
X29810800Y-20194715D01*
X29806719Y-20197442D01*
X29802777Y-20200365D01*
X29798983Y-20203479D01*
X29795346Y-20206775D01*
X29791875Y-20210246D01*
X29788579Y-20213883D01*
X29785465Y-20217677D01*
X29782542Y-20221619D01*
X29779815Y-20225700D01*
X29777291Y-20229910D01*
X29774978Y-20234239D01*
X29772879Y-20238676D01*
X29771001Y-20243210D01*
X29769347Y-20247832D01*
X29767922Y-20252529D01*
X29766730Y-20257290D01*
X29765772Y-20262104D01*
X29765052Y-20266959D01*
X29764571Y-20271844D01*
X29764330Y-20276746D01*
X29764330Y-20281654D01*
X29664360Y-20281654D01*
X29664360Y-20274292D01*
X29664842Y-20264487D01*
X29665804Y-20254718D01*
X29667244Y-20245008D01*
X29669160Y-20235380D01*
X29671545Y-20225857D01*
X29674394Y-20216464D01*
X29677701Y-20207221D01*
X29681458Y-20198152D01*
X29685655Y-20189278D01*
X29690283Y-20180620D01*
X29695329Y-20172200D01*
X29700783Y-20164038D01*
X29706631Y-20156154D01*
X29712858Y-20148565D01*
X29719451Y-20141292D01*
X29726392Y-20134351D01*
X29733665Y-20127758D01*
X29741254Y-20121531D01*
X29749138Y-20115683D01*
X29757300Y-20110229D01*
X29765720Y-20105183D01*
X29774378Y-20100555D01*
X29783252Y-20096358D01*
X29792321Y-20092601D01*
X29801564Y-20089294D01*
X29810957Y-20086445D01*
X29820480Y-20084060D01*
X29830108Y-20082144D01*
X29839818Y-20080704D01*
X29849587Y-20079742D01*
X29859392Y-20079260D01*
X29869208Y-20079260D01*
X29879013Y-20079742D01*
G37*
G36*
X28479013Y-18679742D02*
G01*
X28488782Y-18680704D01*
X28498492Y-18682144D01*
X28508120Y-18684060D01*
X28517643Y-18686445D01*
X28527036Y-18689294D01*
X28536279Y-18692601D01*
X28545348Y-18696358D01*
X28554222Y-18700555D01*
X28562880Y-18705183D01*
X28571300Y-18710229D01*
X28579462Y-18715683D01*
X28587346Y-18721531D01*
X28594935Y-18727758D01*
X28602208Y-18734351D01*
X28609149Y-18741292D01*
X28615742Y-18748565D01*
X28621969Y-18756154D01*
X28627817Y-18764038D01*
X28633271Y-18772200D01*
X28638317Y-18780620D01*
X28642945Y-18789278D01*
X28647142Y-18798152D01*
X28650899Y-18807221D01*
X28654206Y-18816464D01*
X28657055Y-18825857D01*
X28659440Y-18835380D01*
X28661356Y-18845008D01*
X28662796Y-18854718D01*
X28663758Y-18864487D01*
X28664240Y-18874292D01*
X28664240Y-18884108D01*
X28663758Y-18893913D01*
X28662796Y-18903682D01*
X28661356Y-18913392D01*
X28659440Y-18923020D01*
X28657055Y-18932543D01*
X28654206Y-18941936D01*
X28650899Y-18951179D01*
X28647142Y-18960248D01*
X28642945Y-18969122D01*
X28638317Y-18977780D01*
X28633271Y-18986200D01*
X28627817Y-18994362D01*
X28621969Y-19002246D01*
X28615742Y-19009835D01*
X28609149Y-19017108D01*
X28602208Y-19024049D01*
X28594935Y-19030642D01*
X28587346Y-19036869D01*
X28579462Y-19042717D01*
X28571300Y-19048171D01*
X28562880Y-19053217D01*
X28554222Y-19057845D01*
X28545348Y-19062042D01*
X28536279Y-19065799D01*
X28527036Y-19069106D01*
X28517643Y-19071955D01*
X28508120Y-19074340D01*
X28498492Y-19076256D01*
X28488782Y-19077696D01*
X28479013Y-19078658D01*
X28469208Y-19079140D01*
X28459392Y-19079140D01*
X28449587Y-19078658D01*
X28439818Y-19077696D01*
X28430108Y-19076256D01*
X28420480Y-19074340D01*
X28410957Y-19071955D01*
X28401564Y-19069106D01*
X28392321Y-19065799D01*
X28383252Y-19062042D01*
X28374378Y-19057845D01*
X28365720Y-19053217D01*
X28357300Y-19048171D01*
X28349138Y-19042717D01*
X28341254Y-19036869D01*
X28333665Y-19030642D01*
X28326392Y-19024049D01*
X28319451Y-19017108D01*
X28312858Y-19009835D01*
X28306631Y-19002246D01*
X28300783Y-18994362D01*
X28295329Y-18986200D01*
X28290283Y-18977780D01*
X28285655Y-18969122D01*
X28281458Y-18960248D01*
X28277701Y-18951179D01*
X28274394Y-18941936D01*
X28271545Y-18932543D01*
X28269160Y-18923020D01*
X28267244Y-18913392D01*
X28265804Y-18903682D01*
X28264842Y-18893913D01*
X28264360Y-18884108D01*
X28264360Y-18881654D01*
X28364330Y-18881654D01*
X28364571Y-18886556D01*
X28365052Y-18891441D01*
X28365772Y-18896296D01*
X28366730Y-18901110D01*
X28367922Y-18905871D01*
X28369347Y-18910568D01*
X28371001Y-18915190D01*
X28372879Y-18919724D01*
X28374978Y-18924161D01*
X28377291Y-18928490D01*
X28379815Y-18932700D01*
X28382542Y-18936781D01*
X28385465Y-18940723D01*
X28388579Y-18944517D01*
X28391875Y-18948154D01*
X28395346Y-18951625D01*
X28398983Y-18954921D01*
X28402777Y-18958035D01*
X28406719Y-18960958D01*
X28410800Y-18963685D01*
X28415010Y-18966209D01*
X28419339Y-18968522D01*
X28423776Y-18970621D01*
X28428310Y-18972499D01*
X28432932Y-18974153D01*
X28437629Y-18975578D01*
X28442390Y-18976770D01*
X28447204Y-18977728D01*
X28452059Y-18978448D01*
X28456944Y-18978929D01*
X28461846Y-18979170D01*
X28466754Y-18979170D01*
X28471656Y-18978929D01*
X28476541Y-18978448D01*
X28481396Y-18977728D01*
X28486210Y-18976770D01*
X28490971Y-18975578D01*
X28495668Y-18974153D01*
X28500290Y-18972499D01*
X28504824Y-18970621D01*
X28509261Y-18968522D01*
X28513590Y-18966209D01*
X28517800Y-18963685D01*
X28521881Y-18960958D01*
X28525823Y-18958035D01*
X28529617Y-18954921D01*
X28533254Y-18951625D01*
X28536725Y-18948154D01*
X28540021Y-18944517D01*
X28543135Y-18940723D01*
X28546058Y-18936781D01*
X28548785Y-18932700D01*
X28551309Y-18928490D01*
X28553622Y-18924161D01*
X28555721Y-18919724D01*
X28557599Y-18915190D01*
X28559253Y-18910568D01*
X28560678Y-18905871D01*
X28561870Y-18901110D01*
X28562828Y-18896296D01*
X28563548Y-18891441D01*
X28564029Y-18886556D01*
X28564270Y-18881654D01*
X28564270Y-18876746D01*
X28564029Y-18871844D01*
X28563548Y-18866959D01*
X28562828Y-18862104D01*
X28561870Y-18857290D01*
X28560678Y-18852529D01*
X28559253Y-18847832D01*
X28557599Y-18843210D01*
X28555721Y-18838676D01*
X28553622Y-18834239D01*
X28551309Y-18829910D01*
X28548785Y-18825700D01*
X28546058Y-18821619D01*
X28543135Y-18817677D01*
X28540021Y-18813883D01*
X28536725Y-18810246D01*
X28533254Y-18806775D01*
X28529617Y-18803479D01*
X28525823Y-18800365D01*
X28521881Y-18797442D01*
X28517800Y-18794715D01*
X28513590Y-18792191D01*
X28509261Y-18789878D01*
X28504824Y-18787779D01*
X28500290Y-18785901D01*
X28495668Y-18784247D01*
X28490971Y-18782822D01*
X28486210Y-18781630D01*
X28481396Y-18780672D01*
X28476541Y-18779952D01*
X28471656Y-18779471D01*
X28466754Y-18779230D01*
X28461846Y-18779230D01*
X28456944Y-18779471D01*
X28452059Y-18779952D01*
X28447204Y-18780672D01*
X28442390Y-18781630D01*
X28437629Y-18782822D01*
X28432932Y-18784247D01*
X28428310Y-18785901D01*
X28423776Y-18787779D01*
X28419339Y-18789878D01*
X28415010Y-18792191D01*
X28410800Y-18794715D01*
X28406719Y-18797442D01*
X28402777Y-18800365D01*
X28398983Y-18803479D01*
X28395346Y-18806775D01*
X28391875Y-18810246D01*
X28388579Y-18813883D01*
X28385465Y-18817677D01*
X28382542Y-18821619D01*
X28379815Y-18825700D01*
X28377291Y-18829910D01*
X28374978Y-18834239D01*
X28372879Y-18838676D01*
X28371001Y-18843210D01*
X28369347Y-18847832D01*
X28367922Y-18852529D01*
X28366730Y-18857290D01*
X28365772Y-18862104D01*
X28365052Y-18866959D01*
X28364571Y-18871844D01*
X28364330Y-18876746D01*
X28364330Y-18881654D01*
X28264360Y-18881654D01*
X28264360Y-18874292D01*
X28264842Y-18864487D01*
X28265804Y-18854718D01*
X28267244Y-18845008D01*
X28269160Y-18835380D01*
X28271545Y-18825857D01*
X28274394Y-18816464D01*
X28277701Y-18807221D01*
X28281458Y-18798152D01*
X28285655Y-18789278D01*
X28290283Y-18780620D01*
X28295329Y-18772200D01*
X28300783Y-18764038D01*
X28306631Y-18756154D01*
X28312858Y-18748565D01*
X28319451Y-18741292D01*
X28326392Y-18734351D01*
X28333665Y-18727758D01*
X28341254Y-18721531D01*
X28349138Y-18715683D01*
X28357300Y-18710229D01*
X28365720Y-18705183D01*
X28374378Y-18700555D01*
X28383252Y-18696358D01*
X28392321Y-18692601D01*
X28401564Y-18689294D01*
X28410957Y-18686445D01*
X28420480Y-18684060D01*
X28430108Y-18682144D01*
X28439818Y-18680704D01*
X28449587Y-18679742D01*
X28459392Y-18679260D01*
X28469208Y-18679260D01*
X28479013Y-18679742D01*
G37*
G36*
X29879013Y-18679742D02*
G01*
X29888782Y-18680704D01*
X29898492Y-18682144D01*
X29908120Y-18684060D01*
X29917643Y-18686445D01*
X29927036Y-18689294D01*
X29936279Y-18692601D01*
X29945348Y-18696358D01*
X29954222Y-18700555D01*
X29962880Y-18705183D01*
X29971300Y-18710229D01*
X29979462Y-18715683D01*
X29987346Y-18721531D01*
X29994935Y-18727758D01*
X30002208Y-18734351D01*
X30009149Y-18741292D01*
X30015742Y-18748565D01*
X30021969Y-18756154D01*
X30027817Y-18764038D01*
X30033271Y-18772200D01*
X30038317Y-18780620D01*
X30042945Y-18789278D01*
X30047142Y-18798152D01*
X30050899Y-18807221D01*
X30054206Y-18816464D01*
X30057055Y-18825857D01*
X30059440Y-18835380D01*
X30061356Y-18845008D01*
X30062796Y-18854718D01*
X30063758Y-18864487D01*
X30064240Y-18874292D01*
X30064240Y-18884108D01*
X30063758Y-18893913D01*
X30062796Y-18903682D01*
X30061356Y-18913392D01*
X30059440Y-18923020D01*
X30057055Y-18932543D01*
X30054206Y-18941936D01*
X30050899Y-18951179D01*
X30047142Y-18960248D01*
X30042945Y-18969122D01*
X30038317Y-18977780D01*
X30033271Y-18986200D01*
X30027817Y-18994362D01*
X30021969Y-19002246D01*
X30015742Y-19009835D01*
X30009149Y-19017108D01*
X30002208Y-19024049D01*
X29994935Y-19030642D01*
X29987346Y-19036869D01*
X29979462Y-19042717D01*
X29971300Y-19048171D01*
X29962880Y-19053217D01*
X29954222Y-19057845D01*
X29945348Y-19062042D01*
X29936279Y-19065799D01*
X29927036Y-19069106D01*
X29917643Y-19071955D01*
X29908120Y-19074340D01*
X29898492Y-19076256D01*
X29888782Y-19077696D01*
X29879013Y-19078658D01*
X29869208Y-19079140D01*
X29859392Y-19079140D01*
X29849587Y-19078658D01*
X29839818Y-19077696D01*
X29830108Y-19076256D01*
X29820480Y-19074340D01*
X29810957Y-19071955D01*
X29801564Y-19069106D01*
X29792321Y-19065799D01*
X29783252Y-19062042D01*
X29774378Y-19057845D01*
X29765720Y-19053217D01*
X29757300Y-19048171D01*
X29749138Y-19042717D01*
X29741254Y-19036869D01*
X29733665Y-19030642D01*
X29726392Y-19024049D01*
X29719451Y-19017108D01*
X29712858Y-19009835D01*
X29706631Y-19002246D01*
X29700783Y-18994362D01*
X29695329Y-18986200D01*
X29690283Y-18977780D01*
X29685655Y-18969122D01*
X29681458Y-18960248D01*
X29677701Y-18951179D01*
X29674394Y-18941936D01*
X29671545Y-18932543D01*
X29669160Y-18923020D01*
X29667244Y-18913392D01*
X29665804Y-18903682D01*
X29664842Y-18893913D01*
X29664360Y-18884108D01*
X29664360Y-18881654D01*
X29764330Y-18881654D01*
X29764571Y-18886556D01*
X29765052Y-18891441D01*
X29765772Y-18896296D01*
X29766730Y-18901110D01*
X29767922Y-18905871D01*
X29769347Y-18910568D01*
X29771001Y-18915190D01*
X29772879Y-18919724D01*
X29774978Y-18924161D01*
X29777291Y-18928490D01*
X29779815Y-18932700D01*
X29782542Y-18936781D01*
X29785465Y-18940723D01*
X29788579Y-18944517D01*
X29791875Y-18948154D01*
X29795346Y-18951625D01*
X29798983Y-18954921D01*
X29802777Y-18958035D01*
X29806719Y-18960958D01*
X29810800Y-18963685D01*
X29815010Y-18966209D01*
X29819339Y-18968522D01*
X29823776Y-18970621D01*
X29828310Y-18972499D01*
X29832932Y-18974153D01*
X29837629Y-18975578D01*
X29842390Y-18976770D01*
X29847204Y-18977728D01*
X29852059Y-18978448D01*
X29856944Y-18978929D01*
X29861846Y-18979170D01*
X29866754Y-18979170D01*
X29871656Y-18978929D01*
X29876541Y-18978448D01*
X29881396Y-18977728D01*
X29886210Y-18976770D01*
X29890971Y-18975578D01*
X29895668Y-18974153D01*
X29900290Y-18972499D01*
X29904824Y-18970621D01*
X29909261Y-18968522D01*
X29913590Y-18966209D01*
X29917800Y-18963685D01*
X29921881Y-18960958D01*
X29925823Y-18958035D01*
X29929617Y-18954921D01*
X29933254Y-18951625D01*
X29936725Y-18948154D01*
X29940021Y-18944517D01*
X29943135Y-18940723D01*
X29946058Y-18936781D01*
X29948785Y-18932700D01*
X29951309Y-18928490D01*
X29953622Y-18924161D01*
X29955721Y-18919724D01*
X29957599Y-18915190D01*
X29959253Y-18910568D01*
X29960678Y-18905871D01*
X29961870Y-18901110D01*
X29962828Y-18896296D01*
X29963548Y-18891441D01*
X29964029Y-18886556D01*
X29964270Y-18881654D01*
X29964270Y-18876746D01*
X29964029Y-18871844D01*
X29963548Y-18866959D01*
X29962828Y-18862104D01*
X29961870Y-18857290D01*
X29960678Y-18852529D01*
X29959253Y-18847832D01*
X29957599Y-18843210D01*
X29955721Y-18838676D01*
X29953622Y-18834239D01*
X29951309Y-18829910D01*
X29948785Y-18825700D01*
X29946058Y-18821619D01*
X29943135Y-18817677D01*
X29940021Y-18813883D01*
X29936725Y-18810246D01*
X29933254Y-18806775D01*
X29929617Y-18803479D01*
X29925823Y-18800365D01*
X29921881Y-18797442D01*
X29917800Y-18794715D01*
X29913590Y-18792191D01*
X29909261Y-18789878D01*
X29904824Y-18787779D01*
X29900290Y-18785901D01*
X29895668Y-18784247D01*
X29890971Y-18782822D01*
X29886210Y-18781630D01*
X29881396Y-18780672D01*
X29876541Y-18779952D01*
X29871656Y-18779471D01*
X29866754Y-18779230D01*
X29861846Y-18779230D01*
X29856944Y-18779471D01*
X29852059Y-18779952D01*
X29847204Y-18780672D01*
X29842390Y-18781630D01*
X29837629Y-18782822D01*
X29832932Y-18784247D01*
X29828310Y-18785901D01*
X29823776Y-18787779D01*
X29819339Y-18789878D01*
X29815010Y-18792191D01*
X29810800Y-18794715D01*
X29806719Y-18797442D01*
X29802777Y-18800365D01*
X29798983Y-18803479D01*
X29795346Y-18806775D01*
X29791875Y-18810246D01*
X29788579Y-18813883D01*
X29785465Y-18817677D01*
X29782542Y-18821619D01*
X29779815Y-18825700D01*
X29777291Y-18829910D01*
X29774978Y-18834239D01*
X29772879Y-18838676D01*
X29771001Y-18843210D01*
X29769347Y-18847832D01*
X29767922Y-18852529D01*
X29766730Y-18857290D01*
X29765772Y-18862104D01*
X29765052Y-18866959D01*
X29764571Y-18871844D01*
X29764330Y-18876746D01*
X29764330Y-18881654D01*
X29664360Y-18881654D01*
X29664360Y-18874292D01*
X29664842Y-18864487D01*
X29665804Y-18854718D01*
X29667244Y-18845008D01*
X29669160Y-18835380D01*
X29671545Y-18825857D01*
X29674394Y-18816464D01*
X29677701Y-18807221D01*
X29681458Y-18798152D01*
X29685655Y-18789278D01*
X29690283Y-18780620D01*
X29695329Y-18772200D01*
X29700783Y-18764038D01*
X29706631Y-18756154D01*
X29712858Y-18748565D01*
X29719451Y-18741292D01*
X29726392Y-18734351D01*
X29733665Y-18727758D01*
X29741254Y-18721531D01*
X29749138Y-18715683D01*
X29757300Y-18710229D01*
X29765720Y-18705183D01*
X29774378Y-18700555D01*
X29783252Y-18696358D01*
X29792321Y-18692601D01*
X29801564Y-18689294D01*
X29810957Y-18686445D01*
X29820480Y-18684060D01*
X29830108Y-18682144D01*
X29839818Y-18680704D01*
X29849587Y-18679742D01*
X29859392Y-18679260D01*
X29869208Y-18679260D01*
X29879013Y-18679742D01*
G37*
G36*
X27779013Y-20779742D02*
G01*
X27788782Y-20780704D01*
X27798492Y-20782144D01*
X27808120Y-20784060D01*
X27817643Y-20786445D01*
X27827036Y-20789294D01*
X27836279Y-20792601D01*
X27845348Y-20796358D01*
X27854222Y-20800555D01*
X27862880Y-20805183D01*
X27871300Y-20810229D01*
X27879462Y-20815683D01*
X27887346Y-20821531D01*
X27894935Y-20827758D01*
X27902208Y-20834351D01*
X27909149Y-20841292D01*
X27915742Y-20848565D01*
X27921969Y-20856154D01*
X27927817Y-20864038D01*
X27933271Y-20872200D01*
X27938317Y-20880620D01*
X27942945Y-20889278D01*
X27947142Y-20898152D01*
X27950899Y-20907221D01*
X27954206Y-20916464D01*
X27957055Y-20925857D01*
X27959440Y-20935380D01*
X27961356Y-20945008D01*
X27962796Y-20954718D01*
X27963758Y-20964487D01*
X27964240Y-20974292D01*
X27964240Y-20984108D01*
X27963758Y-20993913D01*
X27962796Y-21003682D01*
X27961356Y-21013392D01*
X27959440Y-21023020D01*
X27957055Y-21032543D01*
X27954206Y-21041936D01*
X27950899Y-21051179D01*
X27947142Y-21060248D01*
X27942945Y-21069122D01*
X27938317Y-21077780D01*
X27933271Y-21086200D01*
X27927817Y-21094362D01*
X27921969Y-21102246D01*
X27915742Y-21109835D01*
X27909149Y-21117108D01*
X27902208Y-21124049D01*
X27894935Y-21130642D01*
X27887346Y-21136869D01*
X27879462Y-21142717D01*
X27871300Y-21148171D01*
X27862880Y-21153217D01*
X27854222Y-21157845D01*
X27845348Y-21162042D01*
X27836279Y-21165799D01*
X27827036Y-21169106D01*
X27817643Y-21171955D01*
X27808120Y-21174340D01*
X27798492Y-21176256D01*
X27788782Y-21177696D01*
X27779013Y-21178658D01*
X27769208Y-21179140D01*
X27759392Y-21179140D01*
X27749587Y-21178658D01*
X27739818Y-21177696D01*
X27730108Y-21176256D01*
X27720480Y-21174340D01*
X27710957Y-21171955D01*
X27701564Y-21169106D01*
X27692321Y-21165799D01*
X27683252Y-21162042D01*
X27674378Y-21157845D01*
X27665720Y-21153217D01*
X27657300Y-21148171D01*
X27649138Y-21142717D01*
X27641254Y-21136869D01*
X27633665Y-21130642D01*
X27626392Y-21124049D01*
X27619451Y-21117108D01*
X27612858Y-21109835D01*
X27606631Y-21102246D01*
X27600783Y-21094362D01*
X27595329Y-21086200D01*
X27590283Y-21077780D01*
X27585655Y-21069122D01*
X27581458Y-21060248D01*
X27577701Y-21051179D01*
X27574394Y-21041936D01*
X27571545Y-21032543D01*
X27569160Y-21023020D01*
X27567244Y-21013392D01*
X27565804Y-21003682D01*
X27564842Y-20993913D01*
X27564360Y-20984108D01*
X27564360Y-20981654D01*
X27664330Y-20981654D01*
X27664571Y-20986556D01*
X27665052Y-20991441D01*
X27665772Y-20996296D01*
X27666730Y-21001110D01*
X27667922Y-21005871D01*
X27669347Y-21010568D01*
X27671001Y-21015190D01*
X27672879Y-21019724D01*
X27674978Y-21024161D01*
X27677291Y-21028490D01*
X27679815Y-21032700D01*
X27682542Y-21036781D01*
X27685465Y-21040723D01*
X27688579Y-21044517D01*
X27691875Y-21048154D01*
X27695346Y-21051625D01*
X27698983Y-21054921D01*
X27702777Y-21058035D01*
X27706719Y-21060958D01*
X27710800Y-21063685D01*
X27715010Y-21066209D01*
X27719339Y-21068522D01*
X27723776Y-21070621D01*
X27728310Y-21072499D01*
X27732932Y-21074153D01*
X27737629Y-21075578D01*
X27742390Y-21076770D01*
X27747204Y-21077728D01*
X27752059Y-21078448D01*
X27756944Y-21078929D01*
X27761846Y-21079170D01*
X27766754Y-21079170D01*
X27771656Y-21078929D01*
X27776541Y-21078448D01*
X27781396Y-21077728D01*
X27786210Y-21076770D01*
X27790971Y-21075578D01*
X27795668Y-21074153D01*
X27800290Y-21072499D01*
X27804824Y-21070621D01*
X27809261Y-21068522D01*
X27813590Y-21066209D01*
X27817800Y-21063685D01*
X27821881Y-21060958D01*
X27825823Y-21058035D01*
X27829617Y-21054921D01*
X27833254Y-21051625D01*
X27836725Y-21048154D01*
X27840021Y-21044517D01*
X27843135Y-21040723D01*
X27846058Y-21036781D01*
X27848785Y-21032700D01*
X27851309Y-21028490D01*
X27853622Y-21024161D01*
X27855721Y-21019724D01*
X27857599Y-21015190D01*
X27859253Y-21010568D01*
X27860678Y-21005871D01*
X27861870Y-21001110D01*
X27862828Y-20996296D01*
X27863548Y-20991441D01*
X27864029Y-20986556D01*
X27864270Y-20981654D01*
X27864270Y-20976746D01*
X27864029Y-20971844D01*
X27863548Y-20966959D01*
X27862828Y-20962104D01*
X27861870Y-20957290D01*
X27860678Y-20952529D01*
X27859253Y-20947832D01*
X27857599Y-20943210D01*
X27855721Y-20938676D01*
X27853622Y-20934239D01*
X27851309Y-20929910D01*
X27848785Y-20925700D01*
X27846058Y-20921619D01*
X27843135Y-20917677D01*
X27840021Y-20913883D01*
X27836725Y-20910246D01*
X27833254Y-20906775D01*
X27829617Y-20903479D01*
X27825823Y-20900365D01*
X27821881Y-20897442D01*
X27817800Y-20894715D01*
X27813590Y-20892191D01*
X27809261Y-20889878D01*
X27804824Y-20887779D01*
X27800290Y-20885901D01*
X27795668Y-20884247D01*
X27790971Y-20882822D01*
X27786210Y-20881630D01*
X27781396Y-20880672D01*
X27776541Y-20879952D01*
X27771656Y-20879471D01*
X27766754Y-20879230D01*
X27761846Y-20879230D01*
X27756944Y-20879471D01*
X27752059Y-20879952D01*
X27747204Y-20880672D01*
X27742390Y-20881630D01*
X27737629Y-20882822D01*
X27732932Y-20884247D01*
X27728310Y-20885901D01*
X27723776Y-20887779D01*
X27719339Y-20889878D01*
X27715010Y-20892191D01*
X27710800Y-20894715D01*
X27706719Y-20897442D01*
X27702777Y-20900365D01*
X27698983Y-20903479D01*
X27695346Y-20906775D01*
X27691875Y-20910246D01*
X27688579Y-20913883D01*
X27685465Y-20917677D01*
X27682542Y-20921619D01*
X27679815Y-20925700D01*
X27677291Y-20929910D01*
X27674978Y-20934239D01*
X27672879Y-20938676D01*
X27671001Y-20943210D01*
X27669347Y-20947832D01*
X27667922Y-20952529D01*
X27666730Y-20957290D01*
X27665772Y-20962104D01*
X27665052Y-20966959D01*
X27664571Y-20971844D01*
X27664330Y-20976746D01*
X27664330Y-20981654D01*
X27564360Y-20981654D01*
X27564360Y-20974292D01*
X27564842Y-20964487D01*
X27565804Y-20954718D01*
X27567244Y-20945008D01*
X27569160Y-20935380D01*
X27571545Y-20925857D01*
X27574394Y-20916464D01*
X27577701Y-20907221D01*
X27581458Y-20898152D01*
X27585655Y-20889278D01*
X27590283Y-20880620D01*
X27595329Y-20872200D01*
X27600783Y-20864038D01*
X27606631Y-20856154D01*
X27612858Y-20848565D01*
X27619451Y-20841292D01*
X27626392Y-20834351D01*
X27633665Y-20827758D01*
X27641254Y-20821531D01*
X27649138Y-20815683D01*
X27657300Y-20810229D01*
X27665720Y-20805183D01*
X27674378Y-20800555D01*
X27683252Y-20796358D01*
X27692321Y-20792601D01*
X27701564Y-20789294D01*
X27710957Y-20786445D01*
X27720480Y-20784060D01*
X27730108Y-20782144D01*
X27739818Y-20780704D01*
X27749587Y-20779742D01*
X27759392Y-20779260D01*
X27769208Y-20779260D01*
X27779013Y-20779742D01*
G37*
G36*
X29179013Y-20779742D02*
G01*
X29188782Y-20780704D01*
X29198492Y-20782144D01*
X29208120Y-20784060D01*
X29217643Y-20786445D01*
X29227036Y-20789294D01*
X29236279Y-20792601D01*
X29245348Y-20796358D01*
X29254222Y-20800555D01*
X29262880Y-20805183D01*
X29271300Y-20810229D01*
X29279462Y-20815683D01*
X29287346Y-20821531D01*
X29294935Y-20827758D01*
X29302208Y-20834351D01*
X29309149Y-20841292D01*
X29315742Y-20848565D01*
X29321969Y-20856154D01*
X29327817Y-20864038D01*
X29333271Y-20872200D01*
X29338317Y-20880620D01*
X29342945Y-20889278D01*
X29347142Y-20898152D01*
X29350899Y-20907221D01*
X29354206Y-20916464D01*
X29357055Y-20925857D01*
X29359440Y-20935380D01*
X29361356Y-20945008D01*
X29362796Y-20954718D01*
X29363758Y-20964487D01*
X29364240Y-20974292D01*
X29364240Y-20984108D01*
X29363758Y-20993913D01*
X29362796Y-21003682D01*
X29361356Y-21013392D01*
X29359440Y-21023020D01*
X29357055Y-21032543D01*
X29354206Y-21041936D01*
X29350899Y-21051179D01*
X29347142Y-21060248D01*
X29342945Y-21069122D01*
X29338317Y-21077780D01*
X29333271Y-21086200D01*
X29327817Y-21094362D01*
X29321969Y-21102246D01*
X29315742Y-21109835D01*
X29309149Y-21117108D01*
X29302208Y-21124049D01*
X29294935Y-21130642D01*
X29287346Y-21136869D01*
X29279462Y-21142717D01*
X29271300Y-21148171D01*
X29262880Y-21153217D01*
X29254222Y-21157845D01*
X29245348Y-21162042D01*
X29236279Y-21165799D01*
X29227036Y-21169106D01*
X29217643Y-21171955D01*
X29208120Y-21174340D01*
X29198492Y-21176256D01*
X29188782Y-21177696D01*
X29179013Y-21178658D01*
X29169208Y-21179140D01*
X29159392Y-21179140D01*
X29149587Y-21178658D01*
X29139818Y-21177696D01*
X29130108Y-21176256D01*
X29120480Y-21174340D01*
X29110957Y-21171955D01*
X29101564Y-21169106D01*
X29092321Y-21165799D01*
X29083252Y-21162042D01*
X29074378Y-21157845D01*
X29065720Y-21153217D01*
X29057300Y-21148171D01*
X29049138Y-21142717D01*
X29041254Y-21136869D01*
X29033665Y-21130642D01*
X29026392Y-21124049D01*
X29019451Y-21117108D01*
X29012858Y-21109835D01*
X29006631Y-21102246D01*
X29000783Y-21094362D01*
X28995329Y-21086200D01*
X28990283Y-21077780D01*
X28985655Y-21069122D01*
X28981458Y-21060248D01*
X28977701Y-21051179D01*
X28974394Y-21041936D01*
X28971545Y-21032543D01*
X28969160Y-21023020D01*
X28967244Y-21013392D01*
X28965804Y-21003682D01*
X28964842Y-20993913D01*
X28964360Y-20984108D01*
X28964360Y-20981654D01*
X29064330Y-20981654D01*
X29064571Y-20986556D01*
X29065052Y-20991441D01*
X29065772Y-20996296D01*
X29066730Y-21001110D01*
X29067922Y-21005871D01*
X29069347Y-21010568D01*
X29071001Y-21015190D01*
X29072879Y-21019724D01*
X29074978Y-21024161D01*
X29077291Y-21028490D01*
X29079815Y-21032700D01*
X29082542Y-21036781D01*
X29085465Y-21040723D01*
X29088579Y-21044517D01*
X29091875Y-21048154D01*
X29095346Y-21051625D01*
X29098983Y-21054921D01*
X29102777Y-21058035D01*
X29106719Y-21060958D01*
X29110800Y-21063685D01*
X29115010Y-21066209D01*
X29119339Y-21068522D01*
X29123776Y-21070621D01*
X29128310Y-21072499D01*
X29132932Y-21074153D01*
X29137629Y-21075578D01*
X29142390Y-21076770D01*
X29147204Y-21077728D01*
X29152059Y-21078448D01*
X29156944Y-21078929D01*
X29161846Y-21079170D01*
X29166754Y-21079170D01*
X29171656Y-21078929D01*
X29176541Y-21078448D01*
X29181396Y-21077728D01*
X29186210Y-21076770D01*
X29190971Y-21075578D01*
X29195668Y-21074153D01*
X29200290Y-21072499D01*
X29204824Y-21070621D01*
X29209261Y-21068522D01*
X29213590Y-21066209D01*
X29217800Y-21063685D01*
X29221881Y-21060958D01*
X29225823Y-21058035D01*
X29229617Y-21054921D01*
X29233254Y-21051625D01*
X29236725Y-21048154D01*
X29240021Y-21044517D01*
X29243135Y-21040723D01*
X29246058Y-21036781D01*
X29248785Y-21032700D01*
X29251309Y-21028490D01*
X29253622Y-21024161D01*
X29255721Y-21019724D01*
X29257599Y-21015190D01*
X29259253Y-21010568D01*
X29260678Y-21005871D01*
X29261870Y-21001110D01*
X29262828Y-20996296D01*
X29263548Y-20991441D01*
X29264029Y-20986556D01*
X29264270Y-20981654D01*
X29264270Y-20976746D01*
X29264029Y-20971844D01*
X29263548Y-20966959D01*
X29262828Y-20962104D01*
X29261870Y-20957290D01*
X29260678Y-20952529D01*
X29259253Y-20947832D01*
X29257599Y-20943210D01*
X29255721Y-20938676D01*
X29253622Y-20934239D01*
X29251309Y-20929910D01*
X29248785Y-20925700D01*
X29246058Y-20921619D01*
X29243135Y-20917677D01*
X29240021Y-20913883D01*
X29236725Y-20910246D01*
X29233254Y-20906775D01*
X29229617Y-20903479D01*
X29225823Y-20900365D01*
X29221881Y-20897442D01*
X29217800Y-20894715D01*
X29213590Y-20892191D01*
X29209261Y-20889878D01*
X29204824Y-20887779D01*
X29200290Y-20885901D01*
X29195668Y-20884247D01*
X29190971Y-20882822D01*
X29186210Y-20881630D01*
X29181396Y-20880672D01*
X29176541Y-20879952D01*
X29171656Y-20879471D01*
X29166754Y-20879230D01*
X29161846Y-20879230D01*
X29156944Y-20879471D01*
X29152059Y-20879952D01*
X29147204Y-20880672D01*
X29142390Y-20881630D01*
X29137629Y-20882822D01*
X29132932Y-20884247D01*
X29128310Y-20885901D01*
X29123776Y-20887779D01*
X29119339Y-20889878D01*
X29115010Y-20892191D01*
X29110800Y-20894715D01*
X29106719Y-20897442D01*
X29102777Y-20900365D01*
X29098983Y-20903479D01*
X29095346Y-20906775D01*
X29091875Y-20910246D01*
X29088579Y-20913883D01*
X29085465Y-20917677D01*
X29082542Y-20921619D01*
X29079815Y-20925700D01*
X29077291Y-20929910D01*
X29074978Y-20934239D01*
X29072879Y-20938676D01*
X29071001Y-20943210D01*
X29069347Y-20947832D01*
X29067922Y-20952529D01*
X29066730Y-20957290D01*
X29065772Y-20962104D01*
X29065052Y-20966959D01*
X29064571Y-20971844D01*
X29064330Y-20976746D01*
X29064330Y-20981654D01*
X28964360Y-20981654D01*
X28964360Y-20974292D01*
X28964842Y-20964487D01*
X28965804Y-20954718D01*
X28967244Y-20945008D01*
X28969160Y-20935380D01*
X28971545Y-20925857D01*
X28974394Y-20916464D01*
X28977701Y-20907221D01*
X28981458Y-20898152D01*
X28985655Y-20889278D01*
X28990283Y-20880620D01*
X28995329Y-20872200D01*
X29000783Y-20864038D01*
X29006631Y-20856154D01*
X29012858Y-20848565D01*
X29019451Y-20841292D01*
X29026392Y-20834351D01*
X29033665Y-20827758D01*
X29041254Y-20821531D01*
X29049138Y-20815683D01*
X29057300Y-20810229D01*
X29065720Y-20805183D01*
X29074378Y-20800555D01*
X29083252Y-20796358D01*
X29092321Y-20792601D01*
X29101564Y-20789294D01*
X29110957Y-20786445D01*
X29120480Y-20784060D01*
X29130108Y-20782144D01*
X29139818Y-20780704D01*
X29149587Y-20779742D01*
X29159392Y-20779260D01*
X29169208Y-20779260D01*
X29179013Y-20779742D01*
G37*
G36*
X30579013Y-20779742D02*
G01*
X30588782Y-20780704D01*
X30598492Y-20782144D01*
X30608120Y-20784060D01*
X30617643Y-20786445D01*
X30627036Y-20789294D01*
X30636279Y-20792601D01*
X30645348Y-20796358D01*
X30654222Y-20800555D01*
X30662880Y-20805183D01*
X30671300Y-20810229D01*
X30679462Y-20815683D01*
X30687346Y-20821531D01*
X30694935Y-20827758D01*
X30702208Y-20834351D01*
X30709149Y-20841292D01*
X30715742Y-20848565D01*
X30721969Y-20856154D01*
X30727817Y-20864038D01*
X30733271Y-20872200D01*
X30738317Y-20880620D01*
X30742945Y-20889278D01*
X30747142Y-20898152D01*
X30750899Y-20907221D01*
X30754206Y-20916464D01*
X30757055Y-20925857D01*
X30759440Y-20935380D01*
X30761356Y-20945008D01*
X30762796Y-20954718D01*
X30763758Y-20964487D01*
X30764240Y-20974292D01*
X30764240Y-20984108D01*
X30763758Y-20993913D01*
X30762796Y-21003682D01*
X30761356Y-21013392D01*
X30759440Y-21023020D01*
X30757055Y-21032543D01*
X30754206Y-21041936D01*
X30750899Y-21051179D01*
X30747142Y-21060248D01*
X30742945Y-21069122D01*
X30738317Y-21077780D01*
X30733271Y-21086200D01*
X30727817Y-21094362D01*
X30721969Y-21102246D01*
X30715742Y-21109835D01*
X30709149Y-21117108D01*
X30702208Y-21124049D01*
X30694935Y-21130642D01*
X30687346Y-21136869D01*
X30679462Y-21142717D01*
X30671300Y-21148171D01*
X30662880Y-21153217D01*
X30654222Y-21157845D01*
X30645348Y-21162042D01*
X30636279Y-21165799D01*
X30627036Y-21169106D01*
X30617643Y-21171955D01*
X30608120Y-21174340D01*
X30598492Y-21176256D01*
X30588782Y-21177696D01*
X30579013Y-21178658D01*
X30569208Y-21179140D01*
X30559392Y-21179140D01*
X30549587Y-21178658D01*
X30539818Y-21177696D01*
X30530108Y-21176256D01*
X30520480Y-21174340D01*
X30510957Y-21171955D01*
X30501564Y-21169106D01*
X30492321Y-21165799D01*
X30483252Y-21162042D01*
X30474378Y-21157845D01*
X30465720Y-21153217D01*
X30457300Y-21148171D01*
X30449138Y-21142717D01*
X30441254Y-21136869D01*
X30433665Y-21130642D01*
X30426392Y-21124049D01*
X30419451Y-21117108D01*
X30412858Y-21109835D01*
X30406631Y-21102246D01*
X30400783Y-21094362D01*
X30395329Y-21086200D01*
X30390283Y-21077780D01*
X30385655Y-21069122D01*
X30381458Y-21060248D01*
X30377701Y-21051179D01*
X30374394Y-21041936D01*
X30371545Y-21032543D01*
X30369160Y-21023020D01*
X30367244Y-21013392D01*
X30365804Y-21003682D01*
X30364842Y-20993913D01*
X30364360Y-20984108D01*
X30364360Y-20981654D01*
X30464330Y-20981654D01*
X30464571Y-20986556D01*
X30465052Y-20991441D01*
X30465772Y-20996296D01*
X30466730Y-21001110D01*
X30467922Y-21005871D01*
X30469347Y-21010568D01*
X30471001Y-21015190D01*
X30472879Y-21019724D01*
X30474978Y-21024161D01*
X30477291Y-21028490D01*
X30479815Y-21032700D01*
X30482542Y-21036781D01*
X30485465Y-21040723D01*
X30488579Y-21044517D01*
X30491875Y-21048154D01*
X30495346Y-21051625D01*
X30498983Y-21054921D01*
X30502777Y-21058035D01*
X30506719Y-21060958D01*
X30510800Y-21063685D01*
X30515010Y-21066209D01*
X30519339Y-21068522D01*
X30523776Y-21070621D01*
X30528310Y-21072499D01*
X30532932Y-21074153D01*
X30537629Y-21075578D01*
X30542390Y-21076770D01*
X30547204Y-21077728D01*
X30552059Y-21078448D01*
X30556944Y-21078929D01*
X30561846Y-21079170D01*
X30566754Y-21079170D01*
X30571656Y-21078929D01*
X30576541Y-21078448D01*
X30581396Y-21077728D01*
X30586210Y-21076770D01*
X30590971Y-21075578D01*
X30595668Y-21074153D01*
X30600290Y-21072499D01*
X30604824Y-21070621D01*
X30609261Y-21068522D01*
X30613590Y-21066209D01*
X30617800Y-21063685D01*
X30621881Y-21060958D01*
X30625823Y-21058035D01*
X30629617Y-21054921D01*
X30633254Y-21051625D01*
X30636725Y-21048154D01*
X30640021Y-21044517D01*
X30643135Y-21040723D01*
X30646058Y-21036781D01*
X30648785Y-21032700D01*
X30651309Y-21028490D01*
X30653622Y-21024161D01*
X30655721Y-21019724D01*
X30657599Y-21015190D01*
X30659253Y-21010568D01*
X30660678Y-21005871D01*
X30661870Y-21001110D01*
X30662828Y-20996296D01*
X30663548Y-20991441D01*
X30664029Y-20986556D01*
X30664270Y-20981654D01*
X30664270Y-20976746D01*
X30664029Y-20971844D01*
X30663548Y-20966959D01*
X30662828Y-20962104D01*
X30661870Y-20957290D01*
X30660678Y-20952529D01*
X30659253Y-20947832D01*
X30657599Y-20943210D01*
X30655721Y-20938676D01*
X30653622Y-20934239D01*
X30651309Y-20929910D01*
X30648785Y-20925700D01*
X30646058Y-20921619D01*
X30643135Y-20917677D01*
X30640021Y-20913883D01*
X30636725Y-20910246D01*
X30633254Y-20906775D01*
X30629617Y-20903479D01*
X30625823Y-20900365D01*
X30621881Y-20897442D01*
X30617800Y-20894715D01*
X30613590Y-20892191D01*
X30609261Y-20889878D01*
X30604824Y-20887779D01*
X30600290Y-20885901D01*
X30595668Y-20884247D01*
X30590971Y-20882822D01*
X30586210Y-20881630D01*
X30581396Y-20880672D01*
X30576541Y-20879952D01*
X30571656Y-20879471D01*
X30566754Y-20879230D01*
X30561846Y-20879230D01*
X30556944Y-20879471D01*
X30552059Y-20879952D01*
X30547204Y-20880672D01*
X30542390Y-20881630D01*
X30537629Y-20882822D01*
X30532932Y-20884247D01*
X30528310Y-20885901D01*
X30523776Y-20887779D01*
X30519339Y-20889878D01*
X30515010Y-20892191D01*
X30510800Y-20894715D01*
X30506719Y-20897442D01*
X30502777Y-20900365D01*
X30498983Y-20903479D01*
X30495346Y-20906775D01*
X30491875Y-20910246D01*
X30488579Y-20913883D01*
X30485465Y-20917677D01*
X30482542Y-20921619D01*
X30479815Y-20925700D01*
X30477291Y-20929910D01*
X30474978Y-20934239D01*
X30472879Y-20938676D01*
X30471001Y-20943210D01*
X30469347Y-20947832D01*
X30467922Y-20952529D01*
X30466730Y-20957290D01*
X30465772Y-20962104D01*
X30465052Y-20966959D01*
X30464571Y-20971844D01*
X30464330Y-20976746D01*
X30464330Y-20981654D01*
X30364360Y-20981654D01*
X30364360Y-20974292D01*
X30364842Y-20964487D01*
X30365804Y-20954718D01*
X30367244Y-20945008D01*
X30369160Y-20935380D01*
X30371545Y-20925857D01*
X30374394Y-20916464D01*
X30377701Y-20907221D01*
X30381458Y-20898152D01*
X30385655Y-20889278D01*
X30390283Y-20880620D01*
X30395329Y-20872200D01*
X30400783Y-20864038D01*
X30406631Y-20856154D01*
X30412858Y-20848565D01*
X30419451Y-20841292D01*
X30426392Y-20834351D01*
X30433665Y-20827758D01*
X30441254Y-20821531D01*
X30449138Y-20815683D01*
X30457300Y-20810229D01*
X30465720Y-20805183D01*
X30474378Y-20800555D01*
X30483252Y-20796358D01*
X30492321Y-20792601D01*
X30501564Y-20789294D01*
X30510957Y-20786445D01*
X30520480Y-20784060D01*
X30530108Y-20782144D01*
X30539818Y-20780704D01*
X30549587Y-20779742D01*
X30559392Y-20779260D01*
X30569208Y-20779260D01*
X30579013Y-20779742D01*
G37*
G36*
X27779013Y-19379742D02*
G01*
X27788782Y-19380704D01*
X27798492Y-19382144D01*
X27808120Y-19384060D01*
X27817643Y-19386445D01*
X27827036Y-19389294D01*
X27836279Y-19392601D01*
X27845348Y-19396358D01*
X27854222Y-19400555D01*
X27862880Y-19405183D01*
X27871300Y-19410229D01*
X27879462Y-19415683D01*
X27887346Y-19421531D01*
X27894935Y-19427758D01*
X27902208Y-19434351D01*
X27909149Y-19441292D01*
X27915742Y-19448565D01*
X27921969Y-19456154D01*
X27927817Y-19464038D01*
X27933271Y-19472200D01*
X27938317Y-19480620D01*
X27942945Y-19489278D01*
X27947142Y-19498152D01*
X27950899Y-19507221D01*
X27954206Y-19516464D01*
X27957055Y-19525857D01*
X27959440Y-19535380D01*
X27961356Y-19545008D01*
X27962796Y-19554718D01*
X27963758Y-19564487D01*
X27964240Y-19574292D01*
X27964240Y-19584108D01*
X27963758Y-19593913D01*
X27962796Y-19603682D01*
X27961356Y-19613392D01*
X27959440Y-19623020D01*
X27957055Y-19632543D01*
X27954206Y-19641936D01*
X27950899Y-19651179D01*
X27947142Y-19660248D01*
X27942945Y-19669122D01*
X27938317Y-19677780D01*
X27933271Y-19686200D01*
X27927817Y-19694362D01*
X27921969Y-19702246D01*
X27915742Y-19709835D01*
X27909149Y-19717108D01*
X27902208Y-19724049D01*
X27894935Y-19730642D01*
X27887346Y-19736869D01*
X27879462Y-19742717D01*
X27871300Y-19748171D01*
X27862880Y-19753217D01*
X27854222Y-19757845D01*
X27845348Y-19762042D01*
X27836279Y-19765799D01*
X27827036Y-19769106D01*
X27817643Y-19771955D01*
X27808120Y-19774340D01*
X27798492Y-19776256D01*
X27788782Y-19777696D01*
X27779013Y-19778658D01*
X27769208Y-19779140D01*
X27759392Y-19779140D01*
X27749587Y-19778658D01*
X27739818Y-19777696D01*
X27730108Y-19776256D01*
X27720480Y-19774340D01*
X27710957Y-19771955D01*
X27701564Y-19769106D01*
X27692321Y-19765799D01*
X27683252Y-19762042D01*
X27674378Y-19757845D01*
X27665720Y-19753217D01*
X27657300Y-19748171D01*
X27649138Y-19742717D01*
X27641254Y-19736869D01*
X27633665Y-19730642D01*
X27626392Y-19724049D01*
X27619451Y-19717108D01*
X27612858Y-19709835D01*
X27606631Y-19702246D01*
X27600783Y-19694362D01*
X27595329Y-19686200D01*
X27590283Y-19677780D01*
X27585655Y-19669122D01*
X27581458Y-19660248D01*
X27577701Y-19651179D01*
X27574394Y-19641936D01*
X27571545Y-19632543D01*
X27569160Y-19623020D01*
X27567244Y-19613392D01*
X27565804Y-19603682D01*
X27564842Y-19593913D01*
X27564360Y-19584108D01*
X27564360Y-19581654D01*
X27664330Y-19581654D01*
X27664571Y-19586556D01*
X27665052Y-19591441D01*
X27665772Y-19596296D01*
X27666730Y-19601110D01*
X27667922Y-19605871D01*
X27669347Y-19610568D01*
X27671001Y-19615190D01*
X27672879Y-19619724D01*
X27674978Y-19624161D01*
X27677291Y-19628490D01*
X27679815Y-19632700D01*
X27682542Y-19636781D01*
X27685465Y-19640723D01*
X27688579Y-19644517D01*
X27691875Y-19648154D01*
X27695346Y-19651625D01*
X27698983Y-19654921D01*
X27702777Y-19658035D01*
X27706719Y-19660958D01*
X27710800Y-19663685D01*
X27715010Y-19666209D01*
X27719339Y-19668522D01*
X27723776Y-19670621D01*
X27728310Y-19672499D01*
X27732932Y-19674153D01*
X27737629Y-19675578D01*
X27742390Y-19676770D01*
X27747204Y-19677728D01*
X27752059Y-19678448D01*
X27756944Y-19678929D01*
X27761846Y-19679170D01*
X27766754Y-19679170D01*
X27771656Y-19678929D01*
X27776541Y-19678448D01*
X27781396Y-19677728D01*
X27786210Y-19676770D01*
X27790971Y-19675578D01*
X27795668Y-19674153D01*
X27800290Y-19672499D01*
X27804824Y-19670621D01*
X27809261Y-19668522D01*
X27813590Y-19666209D01*
X27817800Y-19663685D01*
X27821881Y-19660958D01*
X27825823Y-19658035D01*
X27829617Y-19654921D01*
X27833254Y-19651625D01*
X27836725Y-19648154D01*
X27840021Y-19644517D01*
X27843135Y-19640723D01*
X27846058Y-19636781D01*
X27848785Y-19632700D01*
X27851309Y-19628490D01*
X27853622Y-19624161D01*
X27855721Y-19619724D01*
X27857599Y-19615190D01*
X27859253Y-19610568D01*
X27860678Y-19605871D01*
X27861870Y-19601110D01*
X27862828Y-19596296D01*
X27863548Y-19591441D01*
X27864029Y-19586556D01*
X27864270Y-19581654D01*
X27864270Y-19576746D01*
X27864029Y-19571844D01*
X27863548Y-19566959D01*
X27862828Y-19562104D01*
X27861870Y-19557290D01*
X27860678Y-19552529D01*
X27859253Y-19547832D01*
X27857599Y-19543210D01*
X27855721Y-19538676D01*
X27853622Y-19534239D01*
X27851309Y-19529910D01*
X27848785Y-19525700D01*
X27846058Y-19521619D01*
X27843135Y-19517677D01*
X27840021Y-19513883D01*
X27836725Y-19510246D01*
X27833254Y-19506775D01*
X27829617Y-19503479D01*
X27825823Y-19500365D01*
X27821881Y-19497442D01*
X27817800Y-19494715D01*
X27813590Y-19492191D01*
X27809261Y-19489878D01*
X27804824Y-19487779D01*
X27800290Y-19485901D01*
X27795668Y-19484247D01*
X27790971Y-19482822D01*
X27786210Y-19481630D01*
X27781396Y-19480672D01*
X27776541Y-19479952D01*
X27771656Y-19479471D01*
X27766754Y-19479230D01*
X27761846Y-19479230D01*
X27756944Y-19479471D01*
X27752059Y-19479952D01*
X27747204Y-19480672D01*
X27742390Y-19481630D01*
X27737629Y-19482822D01*
X27732932Y-19484247D01*
X27728310Y-19485901D01*
X27723776Y-19487779D01*
X27719339Y-19489878D01*
X27715010Y-19492191D01*
X27710800Y-19494715D01*
X27706719Y-19497442D01*
X27702777Y-19500365D01*
X27698983Y-19503479D01*
X27695346Y-19506775D01*
X27691875Y-19510246D01*
X27688579Y-19513883D01*
X27685465Y-19517677D01*
X27682542Y-19521619D01*
X27679815Y-19525700D01*
X27677291Y-19529910D01*
X27674978Y-19534239D01*
X27672879Y-19538676D01*
X27671001Y-19543210D01*
X27669347Y-19547832D01*
X27667922Y-19552529D01*
X27666730Y-19557290D01*
X27665772Y-19562104D01*
X27665052Y-19566959D01*
X27664571Y-19571844D01*
X27664330Y-19576746D01*
X27664330Y-19581654D01*
X27564360Y-19581654D01*
X27564360Y-19574292D01*
X27564842Y-19564487D01*
X27565804Y-19554718D01*
X27567244Y-19545008D01*
X27569160Y-19535380D01*
X27571545Y-19525857D01*
X27574394Y-19516464D01*
X27577701Y-19507221D01*
X27581458Y-19498152D01*
X27585655Y-19489278D01*
X27590283Y-19480620D01*
X27595329Y-19472200D01*
X27600783Y-19464038D01*
X27606631Y-19456154D01*
X27612858Y-19448565D01*
X27619451Y-19441292D01*
X27626392Y-19434351D01*
X27633665Y-19427758D01*
X27641254Y-19421531D01*
X27649138Y-19415683D01*
X27657300Y-19410229D01*
X27665720Y-19405183D01*
X27674378Y-19400555D01*
X27683252Y-19396358D01*
X27692321Y-19392601D01*
X27701564Y-19389294D01*
X27710957Y-19386445D01*
X27720480Y-19384060D01*
X27730108Y-19382144D01*
X27739818Y-19380704D01*
X27749587Y-19379742D01*
X27759392Y-19379260D01*
X27769208Y-19379260D01*
X27779013Y-19379742D01*
G37*
G36*
X30579013Y-19379742D02*
G01*
X30588782Y-19380704D01*
X30598492Y-19382144D01*
X30608120Y-19384060D01*
X30617643Y-19386445D01*
X30627036Y-19389294D01*
X30636279Y-19392601D01*
X30645348Y-19396358D01*
X30654222Y-19400555D01*
X30662880Y-19405183D01*
X30671300Y-19410229D01*
X30679462Y-19415683D01*
X30687346Y-19421531D01*
X30694935Y-19427758D01*
X30702208Y-19434351D01*
X30709149Y-19441292D01*
X30715742Y-19448565D01*
X30721969Y-19456154D01*
X30727817Y-19464038D01*
X30733271Y-19472200D01*
X30738317Y-19480620D01*
X30742945Y-19489278D01*
X30747142Y-19498152D01*
X30750899Y-19507221D01*
X30754206Y-19516464D01*
X30757055Y-19525857D01*
X30759440Y-19535380D01*
X30761356Y-19545008D01*
X30762796Y-19554718D01*
X30763758Y-19564487D01*
X30764240Y-19574292D01*
X30764240Y-19584108D01*
X30763758Y-19593913D01*
X30762796Y-19603682D01*
X30761356Y-19613392D01*
X30759440Y-19623020D01*
X30757055Y-19632543D01*
X30754206Y-19641936D01*
X30750899Y-19651179D01*
X30747142Y-19660248D01*
X30742945Y-19669122D01*
X30738317Y-19677780D01*
X30733271Y-19686200D01*
X30727817Y-19694362D01*
X30721969Y-19702246D01*
X30715742Y-19709835D01*
X30709149Y-19717108D01*
X30702208Y-19724049D01*
X30694935Y-19730642D01*
X30687346Y-19736869D01*
X30679462Y-19742717D01*
X30671300Y-19748171D01*
X30662880Y-19753217D01*
X30654222Y-19757845D01*
X30645348Y-19762042D01*
X30636279Y-19765799D01*
X30627036Y-19769106D01*
X30617643Y-19771955D01*
X30608120Y-19774340D01*
X30598492Y-19776256D01*
X30588782Y-19777696D01*
X30579013Y-19778658D01*
X30569208Y-19779140D01*
X30559392Y-19779140D01*
X30549587Y-19778658D01*
X30539818Y-19777696D01*
X30530108Y-19776256D01*
X30520480Y-19774340D01*
X30510957Y-19771955D01*
X30501564Y-19769106D01*
X30492321Y-19765799D01*
X30483252Y-19762042D01*
X30474378Y-19757845D01*
X30465720Y-19753217D01*
X30457300Y-19748171D01*
X30449138Y-19742717D01*
X30441254Y-19736869D01*
X30433665Y-19730642D01*
X30426392Y-19724049D01*
X30419451Y-19717108D01*
X30412858Y-19709835D01*
X30406631Y-19702246D01*
X30400783Y-19694362D01*
X30395329Y-19686200D01*
X30390283Y-19677780D01*
X30385655Y-19669122D01*
X30381458Y-19660248D01*
X30377701Y-19651179D01*
X30374394Y-19641936D01*
X30371545Y-19632543D01*
X30369160Y-19623020D01*
X30367244Y-19613392D01*
X30365804Y-19603682D01*
X30364842Y-19593913D01*
X30364360Y-19584108D01*
X30364360Y-19581654D01*
X30464330Y-19581654D01*
X30464571Y-19586556D01*
X30465052Y-19591441D01*
X30465772Y-19596296D01*
X30466730Y-19601110D01*
X30467922Y-19605871D01*
X30469347Y-19610568D01*
X30471001Y-19615190D01*
X30472879Y-19619724D01*
X30474978Y-19624161D01*
X30477291Y-19628490D01*
X30479815Y-19632700D01*
X30482542Y-19636781D01*
X30485465Y-19640723D01*
X30488579Y-19644517D01*
X30491875Y-19648154D01*
X30495346Y-19651625D01*
X30498983Y-19654921D01*
X30502777Y-19658035D01*
X30506719Y-19660958D01*
X30510800Y-19663685D01*
X30515010Y-19666209D01*
X30519339Y-19668522D01*
X30523776Y-19670621D01*
X30528310Y-19672499D01*
X30532932Y-19674153D01*
X30537629Y-19675578D01*
X30542390Y-19676770D01*
X30547204Y-19677728D01*
X30552059Y-19678448D01*
X30556944Y-19678929D01*
X30561846Y-19679170D01*
X30566754Y-19679170D01*
X30571656Y-19678929D01*
X30576541Y-19678448D01*
X30581396Y-19677728D01*
X30586210Y-19676770D01*
X30590971Y-19675578D01*
X30595668Y-19674153D01*
X30600290Y-19672499D01*
X30604824Y-19670621D01*
X30609261Y-19668522D01*
X30613590Y-19666209D01*
X30617800Y-19663685D01*
X30621881Y-19660958D01*
X30625823Y-19658035D01*
X30629617Y-19654921D01*
X30633254Y-19651625D01*
X30636725Y-19648154D01*
X30640021Y-19644517D01*
X30643135Y-19640723D01*
X30646058Y-19636781D01*
X30648785Y-19632700D01*
X30651309Y-19628490D01*
X30653622Y-19624161D01*
X30655721Y-19619724D01*
X30657599Y-19615190D01*
X30659253Y-19610568D01*
X30660678Y-19605871D01*
X30661870Y-19601110D01*
X30662828Y-19596296D01*
X30663548Y-19591441D01*
X30664029Y-19586556D01*
X30664270Y-19581654D01*
X30664270Y-19576746D01*
X30664029Y-19571844D01*
X30663548Y-19566959D01*
X30662828Y-19562104D01*
X30661870Y-19557290D01*
X30660678Y-19552529D01*
X30659253Y-19547832D01*
X30657599Y-19543210D01*
X30655721Y-19538676D01*
X30653622Y-19534239D01*
X30651309Y-19529910D01*
X30648785Y-19525700D01*
X30646058Y-19521619D01*
X30643135Y-19517677D01*
X30640021Y-19513883D01*
X30636725Y-19510246D01*
X30633254Y-19506775D01*
X30629617Y-19503479D01*
X30625823Y-19500365D01*
X30621881Y-19497442D01*
X30617800Y-19494715D01*
X30613590Y-19492191D01*
X30609261Y-19489878D01*
X30604824Y-19487779D01*
X30600290Y-19485901D01*
X30595668Y-19484247D01*
X30590971Y-19482822D01*
X30586210Y-19481630D01*
X30581396Y-19480672D01*
X30576541Y-19479952D01*
X30571656Y-19479471D01*
X30566754Y-19479230D01*
X30561846Y-19479230D01*
X30556944Y-19479471D01*
X30552059Y-19479952D01*
X30547204Y-19480672D01*
X30542390Y-19481630D01*
X30537629Y-19482822D01*
X30532932Y-19484247D01*
X30528310Y-19485901D01*
X30523776Y-19487779D01*
X30519339Y-19489878D01*
X30515010Y-19492191D01*
X30510800Y-19494715D01*
X30506719Y-19497442D01*
X30502777Y-19500365D01*
X30498983Y-19503479D01*
X30495346Y-19506775D01*
X30491875Y-19510246D01*
X30488579Y-19513883D01*
X30485465Y-19517677D01*
X30482542Y-19521619D01*
X30479815Y-19525700D01*
X30477291Y-19529910D01*
X30474978Y-19534239D01*
X30472879Y-19538676D01*
X30471001Y-19543210D01*
X30469347Y-19547832D01*
X30467922Y-19552529D01*
X30466730Y-19557290D01*
X30465772Y-19562104D01*
X30465052Y-19566959D01*
X30464571Y-19571844D01*
X30464330Y-19576746D01*
X30464330Y-19581654D01*
X30364360Y-19581654D01*
X30364360Y-19574292D01*
X30364842Y-19564487D01*
X30365804Y-19554718D01*
X30367244Y-19545008D01*
X30369160Y-19535380D01*
X30371545Y-19525857D01*
X30374394Y-19516464D01*
X30377701Y-19507221D01*
X30381458Y-19498152D01*
X30385655Y-19489278D01*
X30390283Y-19480620D01*
X30395329Y-19472200D01*
X30400783Y-19464038D01*
X30406631Y-19456154D01*
X30412858Y-19448565D01*
X30419451Y-19441292D01*
X30426392Y-19434351D01*
X30433665Y-19427758D01*
X30441254Y-19421531D01*
X30449138Y-19415683D01*
X30457300Y-19410229D01*
X30465720Y-19405183D01*
X30474378Y-19400555D01*
X30483252Y-19396358D01*
X30492321Y-19392601D01*
X30501564Y-19389294D01*
X30510957Y-19386445D01*
X30520480Y-19384060D01*
X30530108Y-19382144D01*
X30539818Y-19380704D01*
X30549587Y-19379742D01*
X30559392Y-19379260D01*
X30569208Y-19379260D01*
X30579013Y-19379742D01*
G37*
G36*
X29179013Y-19379742D02*
G01*
X29188782Y-19380704D01*
X29198492Y-19382144D01*
X29208120Y-19384060D01*
X29217643Y-19386445D01*
X29227036Y-19389294D01*
X29236279Y-19392601D01*
X29245348Y-19396358D01*
X29254222Y-19400555D01*
X29262880Y-19405183D01*
X29271300Y-19410229D01*
X29279462Y-19415683D01*
X29287346Y-19421531D01*
X29294935Y-19427758D01*
X29302208Y-19434351D01*
X29309149Y-19441292D01*
X29315742Y-19448565D01*
X29321969Y-19456154D01*
X29327817Y-19464038D01*
X29333271Y-19472200D01*
X29338317Y-19480620D01*
X29342945Y-19489278D01*
X29347142Y-19498152D01*
X29350899Y-19507221D01*
X29354206Y-19516464D01*
X29357055Y-19525857D01*
X29359440Y-19535380D01*
X29361356Y-19545008D01*
X29362796Y-19554718D01*
X29363758Y-19564487D01*
X29364240Y-19574292D01*
X29364240Y-19584108D01*
X29363758Y-19593913D01*
X29362796Y-19603682D01*
X29361356Y-19613392D01*
X29359440Y-19623020D01*
X29357055Y-19632543D01*
X29354206Y-19641936D01*
X29350899Y-19651179D01*
X29347142Y-19660248D01*
X29342945Y-19669122D01*
X29338317Y-19677780D01*
X29333271Y-19686200D01*
X29327817Y-19694362D01*
X29321969Y-19702246D01*
X29315742Y-19709835D01*
X29309149Y-19717108D01*
X29302208Y-19724049D01*
X29294935Y-19730642D01*
X29287346Y-19736869D01*
X29279462Y-19742717D01*
X29271300Y-19748171D01*
X29262880Y-19753217D01*
X29254222Y-19757845D01*
X29245348Y-19762042D01*
X29236279Y-19765799D01*
X29227036Y-19769106D01*
X29217643Y-19771955D01*
X29208120Y-19774340D01*
X29198492Y-19776256D01*
X29188782Y-19777696D01*
X29179013Y-19778658D01*
X29169208Y-19779140D01*
X29159392Y-19779140D01*
X29149587Y-19778658D01*
X29139818Y-19777696D01*
X29130108Y-19776256D01*
X29120480Y-19774340D01*
X29110957Y-19771955D01*
X29101564Y-19769106D01*
X29092321Y-19765799D01*
X29083252Y-19762042D01*
X29074378Y-19757845D01*
X29065720Y-19753217D01*
X29057300Y-19748171D01*
X29049138Y-19742717D01*
X29041254Y-19736869D01*
X29033665Y-19730642D01*
X29026392Y-19724049D01*
X29019451Y-19717108D01*
X29012858Y-19709835D01*
X29006631Y-19702246D01*
X29000783Y-19694362D01*
X28995329Y-19686200D01*
X28990283Y-19677780D01*
X28985655Y-19669122D01*
X28981458Y-19660248D01*
X28977701Y-19651179D01*
X28974394Y-19641936D01*
X28971545Y-19632543D01*
X28969160Y-19623020D01*
X28967244Y-19613392D01*
X28965804Y-19603682D01*
X28964842Y-19593913D01*
X28964360Y-19584108D01*
X28964360Y-19581654D01*
X29064330Y-19581654D01*
X29064571Y-19586556D01*
X29065052Y-19591441D01*
X29065772Y-19596296D01*
X29066730Y-19601110D01*
X29067922Y-19605871D01*
X29069347Y-19610568D01*
X29071001Y-19615190D01*
X29072879Y-19619724D01*
X29074978Y-19624161D01*
X29077291Y-19628490D01*
X29079815Y-19632700D01*
X29082542Y-19636781D01*
X29085465Y-19640723D01*
X29088579Y-19644517D01*
X29091875Y-19648154D01*
X29095346Y-19651625D01*
X29098983Y-19654921D01*
X29102777Y-19658035D01*
X29106719Y-19660958D01*
X29110800Y-19663685D01*
X29115010Y-19666209D01*
X29119339Y-19668522D01*
X29123776Y-19670621D01*
X29128310Y-19672499D01*
X29132932Y-19674153D01*
X29137629Y-19675578D01*
X29142390Y-19676770D01*
X29147204Y-19677728D01*
X29152059Y-19678448D01*
X29156944Y-19678929D01*
X29161846Y-19679170D01*
X29166754Y-19679170D01*
X29171656Y-19678929D01*
X29176541Y-19678448D01*
X29181396Y-19677728D01*
X29186210Y-19676770D01*
X29190971Y-19675578D01*
X29195668Y-19674153D01*
X29200290Y-19672499D01*
X29204824Y-19670621D01*
X29209261Y-19668522D01*
X29213590Y-19666209D01*
X29217800Y-19663685D01*
X29221881Y-19660958D01*
X29225823Y-19658035D01*
X29229617Y-19654921D01*
X29233254Y-19651625D01*
X29236725Y-19648154D01*
X29240021Y-19644517D01*
X29243135Y-19640723D01*
X29246058Y-19636781D01*
X29248785Y-19632700D01*
X29251309Y-19628490D01*
X29253622Y-19624161D01*
X29255721Y-19619724D01*
X29257599Y-19615190D01*
X29259253Y-19610568D01*
X29260678Y-19605871D01*
X29261870Y-19601110D01*
X29262828Y-19596296D01*
X29263548Y-19591441D01*
X29264029Y-19586556D01*
X29264270Y-19581654D01*
X29264270Y-19576746D01*
X29264029Y-19571844D01*
X29263548Y-19566959D01*
X29262828Y-19562104D01*
X29261870Y-19557290D01*
X29260678Y-19552529D01*
X29259253Y-19547832D01*
X29257599Y-19543210D01*
X29255721Y-19538676D01*
X29253622Y-19534239D01*
X29251309Y-19529910D01*
X29248785Y-19525700D01*
X29246058Y-19521619D01*
X29243135Y-19517677D01*
X29240021Y-19513883D01*
X29236725Y-19510246D01*
X29233254Y-19506775D01*
X29229617Y-19503479D01*
X29225823Y-19500365D01*
X29221881Y-19497442D01*
X29217800Y-19494715D01*
X29213590Y-19492191D01*
X29209261Y-19489878D01*
X29204824Y-19487779D01*
X29200290Y-19485901D01*
X29195668Y-19484247D01*
X29190971Y-19482822D01*
X29186210Y-19481630D01*
X29181396Y-19480672D01*
X29176541Y-19479952D01*
X29171656Y-19479471D01*
X29166754Y-19479230D01*
X29161846Y-19479230D01*
X29156944Y-19479471D01*
X29152059Y-19479952D01*
X29147204Y-19480672D01*
X29142390Y-19481630D01*
X29137629Y-19482822D01*
X29132932Y-19484247D01*
X29128310Y-19485901D01*
X29123776Y-19487779D01*
X29119339Y-19489878D01*
X29115010Y-19492191D01*
X29110800Y-19494715D01*
X29106719Y-19497442D01*
X29102777Y-19500365D01*
X29098983Y-19503479D01*
X29095346Y-19506775D01*
X29091875Y-19510246D01*
X29088579Y-19513883D01*
X29085465Y-19517677D01*
X29082542Y-19521619D01*
X29079815Y-19525700D01*
X29077291Y-19529910D01*
X29074978Y-19534239D01*
X29072879Y-19538676D01*
X29071001Y-19543210D01*
X29069347Y-19547832D01*
X29067922Y-19552529D01*
X29066730Y-19557290D01*
X29065772Y-19562104D01*
X29065052Y-19566959D01*
X29064571Y-19571844D01*
X29064330Y-19576746D01*
X29064330Y-19581654D01*
X28964360Y-19581654D01*
X28964360Y-19574292D01*
X28964842Y-19564487D01*
X28965804Y-19554718D01*
X28967244Y-19545008D01*
X28969160Y-19535380D01*
X28971545Y-19525857D01*
X28974394Y-19516464D01*
X28977701Y-19507221D01*
X28981458Y-19498152D01*
X28985655Y-19489278D01*
X28990283Y-19480620D01*
X28995329Y-19472200D01*
X29000783Y-19464038D01*
X29006631Y-19456154D01*
X29012858Y-19448565D01*
X29019451Y-19441292D01*
X29026392Y-19434351D01*
X29033665Y-19427758D01*
X29041254Y-19421531D01*
X29049138Y-19415683D01*
X29057300Y-19410229D01*
X29065720Y-19405183D01*
X29074378Y-19400555D01*
X29083252Y-19396358D01*
X29092321Y-19392601D01*
X29101564Y-19389294D01*
X29110957Y-19386445D01*
X29120480Y-19384060D01*
X29130108Y-19382144D01*
X29139818Y-19380704D01*
X29149587Y-19379742D01*
X29159392Y-19379260D01*
X29169208Y-19379260D01*
X29179013Y-19379742D01*
G37*
%TD*%
M02*
