<?xml version="1.0" encoding="UTF-8"?>
<svg version="1.1" xmlns="http://www.w3.org/2000/svg" width="1920" height="1080">
<path d="M0 0 C1.10756496 -0.00359425 1.10756496 -0.00359425 2.23750497 -0.0072611 C4.73021318 -0.014118 7.22287033 -0.01383972 9.71558726 -0.01363313 C11.52107173 -0.01710152 13.32655542 -0.0210031 15.13203812 -0.02530044 C20.12642376 -0.03589246 25.12079857 -0.04020657 30.11519363 -0.04352394 C35.53624021 -0.04818327 40.95727645 -0.05851521 46.37831616 -0.06809402 C57.14497137 -0.08617156 67.91162676 -0.0987287 78.67829142 -0.10956253 C87.63272811 -0.11872346 96.58715934 -0.13020962 105.54159129 -0.1431936 C107.47742712 -0.14599733 107.47742712 -0.14599733 109.45237075 -0.1488577 C112.08425638 -0.15267474 114.71614201 -0.15649355 117.34802763 -0.16031409 C152.94235101 -0.21147418 188.53668774 -0.24721212 224.13103259 -0.27950799 C225.22442525 -0.28050212 225.22442525 -0.28050212 226.33990666 -0.28151632 C284.71295117 -0.33455234 343.08600289 -0.37970576 401.45906308 -0.41131412 C414.94392922 -0.41862103 428.42879522 -0.42619971 441.91366115 -0.43390591 C444.3044755 -0.43527005 446.69528987 -0.43662441 449.08610423 -0.43797864 C499.48756191 -0.46665692 549.88892217 -0.52576694 600.29032726 -0.6029939 C637.0751573 -0.65934374 673.85996566 -0.71128542 710.64483607 -0.73135698 C711.40098825 -0.73177167 712.15714043 -0.73218637 712.93620632 -0.73261363 C729.53388004 -0.74162637 746.13155382 -0.74815203 762.72922943 -0.75233599 C769.40705453 -0.75405887 776.08487952 -0.75611687 782.76270449 -0.7582792 C783.49356268 -0.75850701 784.22442086 -0.75873481 784.97742626 -0.75896952 C808.53863051 -0.76647222 832.09968926 -0.80208698 855.66083819 -0.85224903 C880.04430411 -0.90401224 904.42759064 -0.92386554 928.81110893 -0.90647109 C942.87842304 -0.89742442 956.94518847 -0.91365087 971.01241278 -0.96548659 C980.39678193 -0.99761064 989.78078137 -0.99735525 999.16516565 -0.97025598 C1004.52041355 -0.95573072 1009.8746148 -0.95575428 1015.22976117 -0.99507292 C1020.09627389 -1.03052578 1024.96090565 -1.02498665 1029.82737517 -0.9859466 C1031.58207814 -0.9791938 1033.33691894 -0.98771802 1035.09145398 -1.01291469 C1048.17261934 -1.188803 1048.17261934 -1.188803 1052.05633838 2.10583074 C1053.62103737 4.405969 1054.70650417 6.5569674 1055.73259509 9.13455451 C1056.33845446 10.13365851 1056.94431384 11.13276251 1057.56853259 12.1621424 C1058.07642321 13.05151495 1058.58431384 13.94088751 1059.10759509 14.85721076 C1059.69282946 15.87750372 1060.27806384 16.89779669 1060.88103259 17.94900763 C1061.49204821 19.0208631 1062.10306384 20.09271857 1062.73259509 21.19705451 C1064.06540757 23.52157431 1065.39874752 25.8457854 1066.73259509 28.16971076 C1067.06815417 28.75507605 1067.40371325 29.34044135 1067.74944079 29.94354498 C1071.04644759 35.69189904 1074.386358 41.41476823 1077.73259509 47.13455451 C1082.55737728 55.38657702 1087.34260254 63.66038124 1092.10759509 71.94705451 C1097.22538073 80.84356598 1102.41907048 89.69108386 1107.67009509 98.50955451 C1113.46622424 108.24505331 1119.13586968 118.04345342 1124.73232043 127.8942591 C1129.64101751 136.53005472 1134.64652677 145.10148286 1139.73259509 153.63455451 C1145.51009306 163.32766145 1151.1590217 173.08390408 1156.73259509 182.89480841 C1161.64120597 191.53041633 1166.64663238 200.10166005 1171.73259509 208.63455451 C1177.16434242 217.74758372 1182.49244456 226.91072763 1187.73259509 236.13455451 C1199.95631446 258.31094562 1199.95631446 258.31094562 1213.49699938 279.66018927 C1214.73259509 282.13455451 1214.73259509 282.13455451 1214.57317126 284.65481818 C1213.69570955 287.24336845 1212.64376628 289.43981551 1211.28337634 291.81033576 C1210.77234362 292.70808722 1210.26131091 293.60583869 1209.73479235 294.53079474 C1209.17719225 295.49316046 1208.61959216 296.45552619 1208.04509509 297.44705451 C1207.46493639 298.4603382 1206.8847777 299.47362189 1206.28703845 300.51761115 C1204.4444508 303.72848387 1202.59046672 306.93250398 1200.73259509 310.13455451 C1200.15187243 311.13647833 1199.57114977 312.13840216 1198.97282946 313.17068732 C1195.49591702 319.16176578 1192.00068186 325.14198467 1188.49870837 331.11844122 C1185.57003369 336.11994067 1182.65177462 341.12750927 1179.73259509 346.13455451 C1176.24646408 352.11237529 1172.75935281 358.08961449 1169.26775134 364.06424201 C1163.26482484 374.33987949 1157.29062958 384.63089003 1151.35759509 394.94705451 C1146.23973395 403.8435234 1141.04612044 412.6910826 1135.79509509 421.50955451 C1129.99896593 431.24505331 1124.32932049 441.04345342 1118.73286974 450.8942591 C1113.18058997 460.6622999 1107.48538727 470.33836606 1101.73259509 479.99002326 C1096.63241733 488.56668936 1091.66518969 497.2120264 1086.73662341 505.88775885 C1081.09999973 515.80439332 1075.32357064 525.62995943 1069.4821068 535.42727911 C1064.66792485 543.51426546 1059.96382181 551.65781946 1055.36052477 559.86673224 C1054.9083861 560.66796515 1054.45624743 561.46919806 1053.99040759 562.29471076 C1053.59998278 562.99217413 1053.20955798 563.68963751 1052.80730212 564.40823615 C1051.73259509 566.13455451 1051.73259509 566.13455451 1049.73259509 568.13455451 C1047.01291479 568.33091447 1044.39520094 568.40006101 1041.67434645 568.3829515 C1040.40179347 568.38678576 1040.40179347 568.38678576 1039.10353235 568.39069748 C1036.22379527 568.39688589 1033.34427224 568.38865939 1030.46454203 568.38065016 C1028.38499899 568.38212782 1026.30545642 568.38448325 1024.22591525 568.38764316 C1018.46128798 568.3938197 1012.69673051 568.3873993 1006.93210841 568.37908689 C1000.67970256 568.37225114 994.42730419 568.37695382 988.17489696 568.38024187 C977.20023272 568.38440091 966.22559353 568.38114733 955.25093234 568.37296546 C943.4704264 568.3642214 931.68993084 568.35981887 919.90942156 568.36076987 C919.16645624 568.36082725 918.42349091 568.36088464 917.65801148 568.36094376 C913.86989516 568.36125649 910.08177885 568.36164039 906.29366255 568.36204943 C878.84660465 568.36486742 851.399556 568.35799241 823.95250094 568.34601462 C796.76338559 568.33417769 769.57427419 568.32646605 742.38515627 568.32430899 C741.5413863 568.32424017 740.69761633 568.32417134 739.82827758 568.32410043 C732.12196352 568.32347405 724.41564945 568.32289867 716.70933538 568.32238449 C697.55060054 568.32110554 678.39186579 568.3191868 659.23313105 568.31683409 C658.36059562 568.31672746 657.4880602 568.31662082 656.5890843 568.31651096 C614.12471271 568.3112654 571.66034373 568.29864926 529.19597399 568.28543341 C514.45622792 568.28085017 499.71648184 568.27629948 484.97673571 568.27188361 C484.06259991 568.27160971 483.14846411 568.27133581 482.20662722 568.27105361 C439.72653413 568.25837011 397.2464406 568.25091577 354.76634612 568.24481402 C352.0091796 568.24441789 349.25201309 568.2440195 346.49484657 568.24362066 C328.22326472 568.24098114 309.95168285 568.23843183 291.68010097 568.23594294 C255.32285791 568.23098968 218.96561493 568.2255063 182.608372 568.21965885 C180.8768676 568.21938037 179.1453632 568.21910226 177.4138588 568.21882452 C99.44572143 568.20631518 21.47758597 568.18763831 -56.49054945 568.16629279 C-57.22075508 568.16609292 -57.95096071 568.16589305 -58.70329378 568.16568712 C-95.22466427 568.15568579 -131.74603465 568.14533271 -168.26740491 568.13455451 C-168.53649341 567.46083685 -168.80558191 566.7871192 -169.0828246 566.09298585 C-169.43878232 565.20231657 -169.79474004 564.31164728 -170.16148436 563.39398801 C-170.51307286 562.51402036 -170.86466136 561.6340527 -171.22690405 560.72741936 C-172.40402185 557.79411342 -173.59895313 554.86847967 -174.7990554 551.94452411 C-187.35817738 521.33344476 -199.11289657 490.42919748 -210.32659382 459.30154938 C-211.0155375 457.38973656 -211.70587003 455.47842901 -212.39627254 453.56714261 C-237.14999272 384.95451396 -253.42637087 319.51408571 -254.07990491 189.69705451 C-254.04704432 188.3112501 -254.01421445 186.92544497 -253.98141515 185.53963912 C-253.14670613 150.69947965 -251.60706355 115.9068262 -249.26740491 81.13455451 C-242.72562257 78.44629225 -236.14889369 75.99918119 -229.43601453 73.77501166 C-228.49924261 73.46194955 -227.56247069 73.14888743 -226.59731174 72.82633859 C-223.48779509 71.78796863 -220.37687936 70.75385876 -217.26594007 69.71975958 C-215.02459386 68.97228621 -212.78333431 68.22455292 -210.54215467 67.47658026 C-204.47746851 65.45340752 -198.41154403 63.43397195 -192.34535873 61.4152993 C-186.63810531 59.51551788 -180.93171805 57.6131397 -175.22529893 55.71085425 C-163.92456341 51.94377589 -152.62286709 48.17958849 -141.32062757 44.41702521 C-130.35700943 40.76718796 -119.39409783 37.11523856 -108.4319557 33.46097052 C-107.75580955 33.23557515 -107.07966341 33.01017979 -106.38302799 32.77795426 C-105.7080395 32.55294465 -105.03305102 32.32793503 -104.33760834 32.09610695 C-92.47723911 28.14243229 -80.61629359 24.19048949 -68.75502622 20.23951018 C-63.7063081 18.55778201 -58.65776081 16.87554282 -53.60934293 15.19291365 C-47.67217648 13.21419242 -41.73450358 11.23699845 -35.79643095 9.26099837 C-33.61452666 8.5346723 -31.4327923 7.80783554 -29.25123823 7.08045828 C-26.28024998 6.08996583 -23.30865563 5.10131394 -20.33689344 4.11314642 C-19.46822979 3.82307567 -18.59956614 3.53300492 -17.70457935 3.23414415 C-16.90856796 2.96988183 -16.11255656 2.70561952 -15.29242361 2.43334925 C-14.60675333 2.2050273 -13.92108306 1.97670535 -13.2146349 1.74146456 C-12.572049 1.54118424 -11.92946311 1.34090392 -11.26740491 1.13455451 C-10.44199783 0.87244101 -10.44199783 0.87244101 -9.59991585 0.60503228 C-6.37624361 -0.04519667 -3.28900109 0.00463924 0 0 Z " fill="#000000" transform="translate(477.2674049139023,255.8654454946518)"/>
</svg>
