<?xml version="1.0" standalone="no"?>
<!DOCTYPE svg PUBLIC "-//W3C//DTD SVG 20010904//EN"
 "http://www.w3.org/TR/2001/REC-SVG-20010904/DTD/svg10.dtd">
<svg version="1.0" xmlns="http://www.w3.org/2000/svg"
 width="1024.000000pt" height="1024.000000pt" viewBox="0 0 1024.000000 1024.000000"
 preserveAspectRatio="xMidYMid meet">

<g transform="translate(0.000000,1024.000000) scale(0.100000,-0.100000)"
fill="#000000" stroke="none">
<path d="M6120 9104 c624 -624 1804 -1802 2623 -2616 l1487 -1480 0 2616 0
2616 -2622 0 -2623 0 1135 -1136z m2250 404 c2 -8 50 -838 50 -861 0 -27 0
-27 29 -12 16 8 56 40 89 70 72 67 127 165 148 267 8 40 17 74 19 76 2 3 49 1
104 -3 l101 -7 0 -37 c-1 -105 -72 -281 -157 -386 -118 -146 -291 -239 -495
-268 -26 -4 -38 -2 -38 6 -2 99 -50 830 -54 835 -4 3 -30 -19 -59 -50 -57 -59
-111 -158 -123 -222 l-7 -39 -106 8 c-58 3 -108 9 -111 11 -2 3 3 35 13 72 56
217 233 419 434 496 73 27 162 51 163 44z m909 -488 l54 0 -6 -68 c-16 -170
-101 -395 -204 -541 -76 -108 -226 -248 -334 -312 -148 -88 -326 -149 -480
-165 l-66 -6 -6 103 c-6 115 -4 119 53 119 50 0 207 44 285 79 257 117 462
372 521 651 7 36 14 77 14 92 0 54 8 61 64 54 28 -3 75 -6 105 -6z m426 -26
l47 -7 -7 -66 c-28 -283 -144 -574 -314 -796 -75 -98 -262 -276 -357 -342
-209 -142 -484 -243 -735 -268 l-66 -7 -6 38 c-4 22 -7 72 -7 112 l0 72 46 0
c108 0 346 66 479 132 90 45 212 127 292 196 81 70 212 228 272 329 88 149
162 373 177 539 l7 74 62 0 c34 0 84 -3 110 -6z"/>
<path d="M1447 8853 c-41 -90 -18 -244 54 -357 26 -42 41 -53 127 -93 97 -46
277 -98 378 -109 30 -4 54 -10 54 -14 0 -4 -21 -24 -47 -44 -49 -38 -42 -51 9
-15 38 27 46 18 18 -21 -12 -17 -26 -46 -31 -65 -7 -26 -62 -84 -232 -247
-122 -117 -259 -250 -304 -296 -81 -82 -121 -104 -152 -83 -12 7 -11 13 6 34
11 14 35 38 54 54 19 15 138 124 264 242 127 119 253 236 281 262 44 41 49 49
38 64 -12 17 -16 16 -51 -11 -50 -38 -311 -282 -500 -468 l-152 -149 -68 2
c-37 1 -128 8 -201 16 -74 8 -145 15 -158 15 -31 0 -61 -34 -69 -79 -16 -95
-14 -119 8 -153 24 -35 56 -46 147 -48 91 -3 91 -7 -3 -107 -227 -244 -331
-396 -344 -501 -7 -60 4 -133 17 -112 11 18 17 4 23 -62 7 -74 78 -151 109
-120 5 5 11 43 12 83 2 59 9 86 33 134 40 78 107 168 172 230 29 28 59 57 67
65 7 8 25 26 39 40 14 14 40 41 58 60 18 19 48 50 68 70 19 19 48 52 63 72 15
20 49 51 76 68 47 30 51 31 104 21 90 -17 203 -58 356 -132 155 -74 190 -83
190 -48 0 11 5 17 10 14 18 -11 11 52 -9 76 -14 17 -17 33 -13 61 4 34 1 42
-32 73 -47 44 -141 96 -253 141 -48 20 -92 39 -96 43 -8 8 103 118 169 166 21
16 62 52 89 80 28 28 88 85 135 125 47 41 121 109 165 150 44 41 127 110 184
153 84 62 110 77 140 77 20 0 119 -20 221 -45 179 -44 215 -55 365 -108 39
-14 90 -30 115 -37 25 -6 68 -21 95 -32 28 -11 75 -28 105 -38 69 -23 138 -50
214 -85 l59 -27 -121 -58 c-67 -32 -132 -62 -144 -66 -33 -10 -197 -101 -235
-130 -18 -14 -33 -32 -33 -40 0 -8 -18 -21 -40 -30 -22 -9 -40 -20 -40 -25 0
-4 -15 -15 -32 -24 -18 -8 -125 -81 -238 -160 -290 -206 -308 -219 -362 -272
-13 -12 -44 -37 -69 -55 -26 -18 -104 -87 -175 -153 -70 -66 -131 -120 -135
-120 -27 0 -191 -228 -221 -309 -23 -59 -36 -199 -21 -218 6 -7 14 -39 17 -70
4 -31 15 -67 25 -80 9 -13 22 -35 29 -51 14 -32 85 -80 155 -103 45 -15 63
-15 171 -4 67 7 126 16 131 20 16 12 214 68 280 80 33 6 97 15 142 19 45 5 97
16 114 25 18 9 41 16 52 16 16 0 2 -19 -59 -82 -128 -133 -194 -220 -210 -280
-19 -73 -18 -99 3 -91 13 5 15 3 7 -13 -5 -10 -9 -44 -9 -76 0 -47 5 -64 30
-99 17 -23 47 -56 68 -73 52 -41 147 -48 251 -18 113 33 301 81 304 77 2 -2
-31 -23 -73 -47 -159 -89 -383 -227 -468 -287 -107 -76 -232 -197 -282 -273
l-38 -58 27 -82 c14 -46 26 -88 26 -95 0 -25 34 -83 52 -89 27 -8 38 3 38 39
1 41 30 106 64 136 14 14 26 29 26 35 0 24 210 157 361 230 335 159 388 182
394 163 2 -6 9 -46 15 -87 14 -102 48 -166 112 -219 121 -99 240 -127 537
-124 225 3 303 15 401 63 30 15 80 35 110 45 51 17 94 40 130 72 8 7 38 30 65
51 96 74 216 195 239 241 23 45 39 100 56 192 11 55 -2 111 -31 140 -11 11
-22 30 -24 42 -6 31 -57 74 -102 86 -52 14 -200 24 -215 14 -15 -9 -23 -10
-105 -23 -34 -5 -68 -7 -76 -4 -8 3 -18 1 -21 -5 -4 -5 -22 -7 -41 -4 -26 4
-35 2 -35 -8 0 -15 -28 -20 -115 -23 -27 0 -53 -6 -57 -12 -5 -7 -23 -12 -42
-12 -18 0 -45 -8 -59 -17 -15 -9 -31 -14 -37 -10 -5 3 -10 1 -10 -6 0 -6 -8
-9 -19 -6 -11 3 -28 -1 -38 -8 -11 -7 -41 -18 -69 -24 -42 -8 -134 -34 -205
-56 -41 -13 -16 13 34 36 28 13 54 26 57 30 11 13 119 69 132 69 9 0 27 9 41
20 14 11 31 20 39 20 7 0 54 20 103 44 50 24 121 56 160 71 38 14 88 36 110
49 22 13 63 29 90 35 130 29 230 61 240 75 7 8 23 20 38 25 24 9 25 13 17 42
-5 18 -19 42 -30 54 -12 13 -18 29 -15 38 9 22 -29 57 -62 57 -50 0 -293 -69
-412 -116 -64 -26 -181 -78 -260 -115 -79 -38 -149 -69 -155 -69 -6 0 -24 -7
-40 -15 -16 -9 -59 -20 -95 -25 -36 -6 -76 -13 -87 -16 -12 -3 -25 -1 -28 5
-4 6 -2 11 5 11 7 0 10 3 7 6 -4 3 -21 -3 -40 -12 -18 -10 -46 -19 -62 -20
-16 -1 -35 -10 -42 -19 -9 -13 -20 -15 -43 -10 -24 5 -33 3 -37 -10 -4 -9 -13
-14 -21 -11 -7 3 -89 -10 -181 -28 -210 -43 -295 -56 -369 -56 -74 0 -89 9
-73 41 19 35 207 225 265 267 28 20 68 52 90 72 50 45 217 155 310 204 38 20
76 43 85 50 8 7 31 21 50 31 39 20 130 109 130 128 0 7 -11 35 -24 63 -40 86
-103 95 -231 32 -102 -49 -228 -118 -246 -134 -8 -8 -31 -14 -50 -15 -29 -1
-30 -2 -11 -8 22 -6 18 -10 -45 -53 -63 -43 -78 -49 -183 -67 -63 -11 -180
-30 -260 -41 -80 -11 -162 -22 -182 -25 -21 -3 -38 -1 -38 4 0 11 9 14 105 36
38 9 79 22 90 29 15 10 26 11 39 4 20 -11 31 -5 21 11 -4 7 -26 9 -62 4 -37
-4 -54 -3 -50 4 8 13 85 28 267 50 80 10 134 19 120 21 -27 3 -220 -23 -658
-88 -150 -22 -297 -40 -327 -40 -50 0 -55 2 -61 26 -4 14 -2 30 5 37 6 6 11
18 11 27 0 24 97 182 124 202 12 10 36 36 52 59 15 22 38 45 51 50 13 5 23 17
23 28 0 11 9 22 19 26 12 4 18 12 14 21 -3 9 2 14 17 14 13 0 20 5 18 12 -3 7
5 20 16 29 16 14 24 15 35 6 12 -10 14 -9 8 5 -7 18 28 49 71 62 13 4 22 15
22 26 0 11 12 26 28 34 15 8 40 31 55 50 15 20 35 36 43 36 8 0 12 -5 9 -11
-4 -6 2 -5 14 3 22 14 28 28 11 28 -5 0 -10 5 -10 10 0 6 5 10 11 10 6 0 22 9
36 20 14 11 36 20 49 20 14 0 24 6 24 14 0 8 14 28 30 46 25 27 33 30 45 20
12 -10 15 -10 15 3 0 10 6 14 14 11 9 -3 13 1 13 12 -2 21 100 84 122 76 9 -3
12 -1 7 6 -9 15 37 58 83 78 37 17 82 46 121 80 57 48 383 230 456 254 21 7
62 23 89 35 28 12 90 35 140 51 76 25 93 34 113 64 16 24 22 43 17 60 -3 14
-8 42 -12 63 -4 27 -16 47 -44 70 -20 18 -41 45 -44 59 -11 44 -119 143 -204
187 -184 96 -596 240 -842 295 -64 14 -123 26 -132 26 -16 0 -57 61 -57 86 0
8 -14 20 -31 26 -23 8 -29 15 -26 29 4 14 -3 21 -29 29 -29 10 -39 8 -91 -21
-32 -17 -67 -38 -78 -45 -31 -22 -75 -17 -311 36 -228 51 -305 75 -409 128
-85 43 -106 69 -114 139 -8 78 -32 84 -64 16z m801 -378 c26 0 42 -5 42 -12 0
-32 -122 -21 -128 11 -3 15 0 17 20 10 12 -5 42 -9 66 -9z m-23 -55 c-3 -5
-13 -10 -21 -10 -8 0 -14 5 -14 10 0 6 9 10 21 10 11 0 17 -4 14 -10z m680
-95 c229 -59 465 -138 465 -156 0 -13 2 -13 -133 31 -119 38 -293 87 -488 135
-53 14 -105 27 -115 31 -18 5 -18 5 -1 -9 10 -8 66 -27 125 -41 189 -47 220
-58 197 -67 -13 -5 -1 -8 38 -8 36 -1 56 -5 52 -11 -3 -6 0 -12 7 -14 7 -2 54
-16 103 -31 213 -63 429 -156 546 -236 68 -46 76 -56 51 -64 -12 -3 -42 7 -78
28 -191 107 -677 285 -839 306 -59 8 -294 67 -303 76 -2 2 19 26 48 53 l53 48
66 -18 c36 -9 129 -34 206 -53z m650 -205 c3 -5 1 -10 -4 -10 -6 0 -11 5 -11
10 0 6 2 10 4 10 3 0 8 -4 11 -10z m149 -85 c41 -24 97 -75 82 -75 -6 0 -108
71 -130 91 -19 17 6 9 48 -16z m-1773 -94 c-6 -10 -29 -35 -53 -56 -24 -21
-126 -117 -227 -214 -101 -97 -190 -180 -198 -184 -8 -5 -20 -4 -28 3 -12 10
-8 18 26 49 23 20 62 57 87 84 25 26 50 47 56 48 6 0 25 19 41 42 17 23 36 42
43 42 6 0 23 17 37 38 14 20 30 37 35 37 4 0 26 18 47 39 44 46 124 101 135
95 5 -3 4 -13 -1 -23z m1541 -293 c-9 -9 -15 -9 -24 0 -9 9 -7 12 12 12 19 0
21 -3 12 -12z m-264 -211 c-15 -12 -62 -44 -105 -70 -43 -27 -120 -76 -171
-110 -138 -91 -175 -112 -170 -96 8 27 431 300 463 299 6 0 -2 -11 -17 -23z
m-278 -45 c0 -15 -52 -34 -63 -23 -11 11 -4 15 38 24 11 3 21 5 23 6 1 0 2 -3
2 -7z m-1365 -24 c20 -9 35 -28 21 -28 -15 0 -66 24 -66 31 0 12 14 11 45 -3z
m1270 -44 c-31 -24 -62 -33 -49 -13 9 16 67 49 74 43 3 -3 -8 -17 -25 -30z
m-927 -68 l27 -28 -25 7 c-31 9 -100 53 -100 63 0 31 50 9 98 -42z m862 30 c0
-12 -112 -96 -121 -91 -6 5 2 15 20 26 17 10 31 23 31 29 0 5 9 10 20 10 11 0
20 7 20 15 0 8 7 15 15 15 8 0 15 -2 15 -4z m-1625 -15 c3 -5 -3 -16 -13 -23
-10 -7 -85 -85 -166 -173 -169 -183 -294 -344 -328 -421 -13 -30 -27 -54 -32
-54 -5 0 -6 24 -4 54 5 62 60 185 107 238 17 20 31 45 31 57 0 13 4 19 11 16
14 -9 49 23 49 45 0 9 15 23 33 31 23 10 33 22 37 44 4 19 8 26 13 18 9 -14
18 -7 88 77 25 30 44 61 42 68 -3 6 6 16 19 21 30 13 105 14 113 2z m82 -9 c7
-5 -52 -72 -169 -192 -99 -102 -199 -207 -220 -235 -39 -48 -78 -83 -78 -70 0
10 58 91 100 140 22 26 40 53 40 61 0 8 7 17 17 21 26 10 131 121 159 169 14
24 33 44 42 44 19 0 52 29 52 46 0 20 35 30 57 16z m1387 -78 c25 -10 19 -22
-26 -50 -51 -31 -305 -234 -382 -305 -50 -46 -82 -63 -74 -39 6 19 180 169
321 277 75 58 137 109 137 114 0 11 3 11 24 3z m-1970 -589 c-4 -17 -10 -23
-16 -17 -6 6 -6 18 2 32 15 28 23 20 14 -15z m1343 -112 c-50 -65 -87 -101
-87 -86 0 15 88 131 108 142 30 17 25 3 -21 -56z m993 -377 c0 -3 -15 -17 -34
-31 -28 -21 -58 -30 -158 -45 -158 -25 -288 -34 -288 -20 0 5 5 10 12 10 6 0
19 6 27 14 24 22 441 89 441 72z m-60 -244 c0 -16 -59 -91 -80 -102 -11 -6
-20 -16 -21 -23 -1 -15 -78 -82 -85 -74 -8 8 45 76 116 149 53 55 70 67 70 50z
m1241 -135 c-13 -13 -26 -3 -16 12 3 6 11 8 17 5 6 -4 6 -10 -1 -17z m-65 -25
c-10 -16 -144 -102 -159 -102 -9 0 -19 -5 -22 -10 -4 -6 -24 -19 -46 -31 -22
-11 -49 -29 -59 -39 -11 -11 -32 -20 -47 -20 -20 0 -24 -3 -14 -9 20 -13 -22
-38 -76 -47 -24 -4 -43 -12 -43 -18 0 -7 -19 -20 -42 -31 -24 -10 -46 -23 -50
-29 -4 -6 -18 -11 -30 -11 -14 0 -23 -6 -23 -15 0 -8 -11 -16 -25 -18 -14 -2
-36 -13 -49 -25 -17 -16 -25 -18 -28 -9 -3 6 -9 12 -15 12 -6 0 -7 -7 -4 -15
3 -10 -1 -18 -12 -22 -9 -3 -25 -13 -34 -21 -10 -8 -18 -12 -18 -8 0 4 -12 -1
-27 -12 -16 -10 -48 -27 -73 -36 -25 -10 -54 -26 -65 -35 -11 -10 -39 -27 -63
-37 -26 -11 -41 -23 -38 -31 3 -7 -4 -17 -14 -23 -22 -12 -27 -1 -7 19 12 12
-49 -12 -108 -43 -25 -13 -47 -14 -34 -2 11 10 250 166 255 166 3 0 83 45 177
99 213 123 349 195 591 316 181 91 213 104 202 87z m807 -176 c18 -7 41 -23
51 -35 22 -24 22 -24 -24 -10 -58 18 -210 27 -210 12 0 -9 10 -11 30 -6 19 3
30 1 30 -5 0 -12 -26 -17 -125 -27 -212 -21 -777 -160 -1077 -265 -49 -16 -95
-30 -103 -30 -25 0 -17 35 13 56 38 28 215 104 242 104 12 0 34 6 48 14 15 8
65 22 112 31 47 9 126 30 175 47 50 17 113 35 140 39 123 20 169 28 213 38
207 49 419 65 485 37z m-83 -46 c0 -5 -7 -10 -16 -10 -8 0 -12 5 -9 10 3 6 10
10 16 10 5 0 9 -4 9 -10z m-1620 -22 c-32 -12 -51 -3 -20 10 14 5 29 7 34 4 5
-3 -1 -9 -14 -14z m1734 -54 c9 -3 16 -15 16 -25 0 -23 -35 -95 -50 -104 -6
-4 -16 -21 -24 -38 -17 -43 -90 -113 -208 -202 -70 -53 -93 -76 -85 -84 18
-18 -3 -34 -133 -96 -185 -89 -293 -110 -540 -102 -172 5 -280 20 -280 38 0 5
42 9 93 10 181 1 469 17 524 30 47 10 156 49 151 54 -2 2 -46 -8 -98 -22 -108
-28 -405 -47 -507 -33 -176 24 -324 107 -354 198 -11 32 -10 37 11 54 12 10
30 18 39 18 9 0 28 7 43 14 16 8 63 24 105 36 43 12 161 47 263 79 283 90 516
143 745 170 85 10 267 13 289 5z m-1524 -263 c0 -14 -127 -58 -137 -47 -5 5
36 25 97 49 23 9 40 8 40 -2z m1436 -45 c8 -8 11 -21 8 -29 -8 -21 -194 -191
-201 -183 -7 7 67 105 118 156 19 20 38 44 42 53 8 21 14 21 33 3z m-65 -24
c-12 -22 -81 -77 -81 -64 0 13 79 96 86 90 3 -4 1 -15 -5 -26z m-181 -191 c0
-5 10 -7 23 -3 20 5 21 4 8 -12 -8 -9 -21 -14 -29 -11 -8 3 -61 -15 -117 -41
-57 -25 -112 -44 -122 -42 -12 2 -1 12 36 28 30 14 84 39 120 57 72 35 81 37
81 24z m-260 -121 c0 -5 -7 -10 -15 -10 -8 0 -15 5 -15 10 0 6 7 10 15 10 8 0
15 -4 15 -10z m-80 -20 c0 -5 -9 -10 -21 -10 -11 0 -17 5 -14 10 3 6 13 10 21
10 8 0 14 -4 14 -10z m-420 -26 c0 -8 -5 -12 -10 -9 -6 4 -8 11 -5 16 9 14 15
11 15 -7z m350 7 c-25 -14 -120 -24 -120 -13 0 13 29 19 90 20 30 1 40 -2 30
-7z m-279 -16 c-1 -15 -24 -12 -29 3 -3 9 2 13 12 10 10 -1 17 -7 17 -13z"/>
<path d="M4562 8177 l-534 -534 34 -127 33 -128 210 -207 c282 -276 353 -317
533 -309 73 3 98 8 155 35 92 44 191 143 238 238 31 63 34 78 35 165 l2 95 53
6 c117 13 236 104 296 226 34 69 38 85 41 175 5 112 -11 193 -59 309 -54 133
-95 186 -298 392 -107 108 -197 197 -200 197 -4 0 -246 -240 -539 -533z m935
16 c70 -142 54 -276 -48 -387 -92 -101 -205 -138 -309 -101 -24 8 -45 14 -47
11 -2 -2 9 -27 24 -57 23 -45 27 -67 27 -134 1 -68 -4 -89 -28 -139 -37 -75
-127 -165 -202 -202 -53 -26 -69 -29 -159 -29 -94 0 -105 2 -170 34 -60 29
-99 63 -278 240 l-207 205 497 498 498 498 183 -183 c157 -157 188 -192 219
-254z"/>
<path d="M5015 8139 l-100 -100 55 -51 c90 -81 149 -97 210 -55 75 50 94 124
49 190 -25 36 -100 117 -109 117 -3 0 -50 -45 -105 -101z m150 -146 c-15 -14
-39 -23 -58 -23 l-31 0 39 40 c37 38 40 39 58 23 18 -17 18 -18 -8 -40z"/>
<path d="M4610 7735 l-124 -125 39 -41 c62 -64 133 -117 170 -128 46 -13 96 2
141 41 46 40 64 77 64 129 0 60 -30 114 -102 186 l-63 63 -125 -125z m204
-144 l27 -28 -35 -31 c-41 -36 -86 -48 -117 -32 -21 12 -20 13 32 66 29 30 56
54 59 54 4 0 19 -13 34 -29z"/>
<path d="M5690 7303 c-123 -21 -259 -102 -372 -222 -85 -91 -129 -160 -166
-263 -24 -65 -27 -87 -27 -203 0 -116 3 -138 27 -203 14 -40 46 -105 69 -145
57 -96 197 -236 269 -270 72 -33 168 -50 238 -42 75 9 242 64 242 80 0 7 -7
31 -15 54 -17 49 -9 52 30 11 l29 -30 64 62 c165 162 242 331 242 529 0 383
-307 696 -630 642z m211 -78 c103 -37 214 -138 265 -240 32 -67 42 -168 24
-246 -7 -30 -30 -89 -52 -131 -41 -79 -159 -228 -181 -228 -6 0 -107 95 -224
212 -235 234 -225 229 -264 143 -40 -86 -16 -167 65 -222 52 -35 116 -44 171
-23 26 10 27 8 77 -97 59 -122 59 -121 -40 -149 -85 -25 -202 -16 -277 20
-127 62 -241 212 -267 353 -46 250 216 571 512 627 40 7 145 -3 191 -19z"/>
<path d="M5701 6969 l-34 -21 117 -116 117 -117 19 25 c24 31 34 79 25 120 -8
37 -56 95 -96 116 -41 21 -108 18 -148 -7z"/>
<path d="M4330 6875 c-19 -7 -71 -23 -115 -35 -89 -24 -108 -32 -210 -82 -62
-31 -70 -39 -73 -66 -4 -38 28 -103 65 -132 36 -28 83 -22 134 20 21 16 41 30
45 30 15 0 170 94 197 119 36 32 69 95 61 114 -3 8 -1 18 5 22 42 25 -45 34
-109 10z"/>
<path d="M6848 6613 l-108 -108 -45 45 -45 45 -122 -122 -121 -121 18 -72 18
-72 -160 -161 c-88 -89 -172 -183 -186 -209 -32 -55 -57 -146 -57 -203 0 -143
93 -316 277 -514 l69 -74 152 99 c83 54 152 105 152 113 0 28 -63 247 -76 261
-12 14 2 31 96 125 l110 110 58 -58 57 -57 130 130 129 129 -25 90 -26 90 69
68 c37 37 68 74 68 83 0 8 -14 65 -31 125 l-30 110 -127 128 c-70 70 -129 127
-132 127 -3 0 -53 -48 -112 -107z m210 -66 l92 -92 -110 -110 -110 -110 57
-57 57 -58 -84 -85 -84 -85 -59 58 -58 57 -169 -171 c-162 -163 -170 -173
-170 -210 0 -46 14 -69 83 -140 l49 -52 -106 -71 c-58 -39 -110 -71 -115 -71
-15 0 -132 141 -171 206 -28 47 -35 70 -38 124 -6 106 16 140 249 375 l199
201 -45 45 -45 44 85 85 85 84 45 -44 45 -45 108 108 c59 59 109 107 112 107
3 0 47 -42 98 -93z"/>
<path d="M3073 6233 c9 -2 23 -2 30 0 6 3 -1 5 -18 5 -16 0 -22 -2 -12 -5z"/>
<path d="M3013 6223 c9 -2 23 -2 30 0 6 3 -1 5 -18 5 -16 0 -22 -2 -12 -5z"/>
<path d="M7593 5878 l-113 -113 -45 45 -45 45 -121 -121 -120 -120 18 -72 17
-72 -160 -162 c-175 -177 -213 -235 -235 -352 -29 -159 62 -350 275 -580 l65
-70 155 103 c85 57 153 108 151 114 -2 7 -18 64 -35 127 -17 63 -38 122 -45
130 -13 14 -1 30 99 129 l113 112 54 -59 54 -60 131 130 131 130 -26 89 -25
90 71 72 71 72 -34 125 -35 125 -127 128 -127 127 -112 -112z m207 -73 l95
-95 -110 -110 -109 -110 52 -53 c28 -29 52 -57 52 -63 0 -5 -36 -45 -80 -89
l-80 -79 -58 57 -58 57 -172 -173 c-185 -187 -190 -194 -156 -259 9 -18 39
-55 66 -84 l49 -52 -95 -66 c-52 -36 -101 -69 -109 -72 -22 -8 -153 140 -193
220 -25 52 -34 81 -34 120 0 93 32 139 252 362 l197 200 -44 45 -45 44 85 85
85 84 45 -44 45 -45 108 108 c59 59 109 107 112 107 3 0 48 -43 100 -95z"/>
<path d="M3925 5774 c-38 -14 -116 -40 -173 -57 -57 -17 -99 -33 -93 -35 6 -2
50 8 98 22 123 36 282 95 258 95 -11 0 -51 -11 -90 -25z"/>
<path d="M10 2616 l0 -2616 2622 0 2623 0 -1115 1116 c-613 613 -1793 1791
-2622 2616 l-1508 1500 0 -2616z m1382 626 c7 -10 45 -36 83 -57 97 -54 259
-218 348 -353 102 -155 181 -318 266 -547 66 -180 136 -310 237 -440 71 -92
241 -260 329 -326 190 -143 433 -263 678 -337 49 -15 89 -32 89 -37 0 -6 -68
-32 -151 -60 l-151 -50 110 -110 c60 -60 110 -116 110 -123 0 -14 -11 -14
-265 9 -476 43 -883 167 -1114 339 -170 126 -404 415 -581 715 -44 74 -65 112
-140 251 -231 429 -372 635 -512 746 l-39 31 -67 -46 c-37 -26 -116 -90 -176
-143 l-108 -97 -37 37 -36 37 60 55 c124 112 414 291 581 358 33 13 97 39 144
58 104 43 273 99 322 107 4 0 13 -7 20 -17z"/>
<path d="M1389 2996 c-13 -7 -65 -38 -116 -69 -51 -32 -96 -57 -101 -57 -4 0
-29 -13 -55 -30 -54 -34 -62 -64 -21 -82 20 -10 38 -8 96 9 l70 21 24 -52 c13
-28 24 -56 24 -62 0 -6 -25 -28 -55 -48 -61 -40 -74 -59 -55 -81 21 -25 54
-17 162 38 205 104 257 146 228 182 -17 21 -44 18 -124 -10 -38 -13 -72 -22
-76 -20 -4 2 -15 25 -25 51 l-17 46 36 30 c61 50 85 117 48 137 -13 7 -26 6
-43 -3z"/>
<path d="M1585 2534 c-44 -14 -125 -38 -179 -54 -102 -30 -134 -49 -121 -70 5
-9 26 -11 66 -7 57 5 59 4 85 -30 27 -35 27 -36 8 -51 -10 -8 -34 -21 -52 -28
-25 -11 -33 -20 -30 -37 2 -17 11 -23 39 -25 29 -2 50 7 115 49 96 64 220 185
230 224 5 21 3 31 -11 42 -26 18 -58 16 -150 -13z m66 -73 c-19 -34 -92 -85
-108 -75 -19 12 -49 62 -41 69 7 8 86 23 126 24 29 1 32 -1 23 -18z"/>
<path d="M1717 2285 c-80 -22 -171 -90 -220 -165 -27 -40 -22 -97 12 -131 51
-51 97 -33 66 25 -11 21 -16 42 -12 58 14 54 122 131 204 144 43 7 59 -4 65
-46 5 -37 49 -35 62 3 29 83 -66 144 -177 112z"/>
<path d="M1869 2024 c-72 -63 -129 -95 -211 -119 -64 -18 -88 -39 -69 -58 17
-17 102 -12 140 8 35 18 61 14 61 -8 0 -7 -23 -46 -50 -86 -51 -74 -57 -102
-24 -115 9 -3 24 -2 33 4 23 12 74 92 91 141 13 36 14 37 84 44 105 10 136 33
75 54 -18 6 -59 11 -92 11 l-61 0 57 51 c69 62 82 82 67 109 -16 30 -31 25
-101 -36z"/>
<path d="M2136 1655 c-84 -30 -175 -133 -183 -209 -5 -39 -2 -47 28 -79 41
-43 69 -52 95 -32 19 15 19 15 -6 35 -14 11 -31 25 -39 31 -37 32 21 155 91
191 43 22 73 13 88 -28 13 -32 25 -30 40 6 10 25 10 34 -4 55 -13 20 -56 48
-69 45 -1 -1 -19 -7 -41 -15z"/>
<path d="M2343 1533 c-7 -2 -50 -52 -95 -110 -124 -158 -115 -140 -85 -171 36
-38 134 -95 147 -87 20 12 6 33 -44 67 -28 18 -51 38 -53 44 -2 6 28 50 67 98
76 94 104 141 95 156 -7 11 -13 11 -32 3z"/>
<path d="M2492 1378 c-96 -161 -107 -199 -72 -255 27 -44 63 -52 115 -24 74
39 184 231 132 231 -16 0 -37 -23 -57 -64 -8 -16 -38 -54 -67 -84 -50 -53 -53
-55 -75 -40 -34 23 -27 56 31 151 28 45 51 90 51 100 0 29 -37 19 -58 -15z"/>
<path d="M2757 1263 c-3 -5 -22 -39 -42 -78 -21 -38 -47 -86 -58 -106 -18 -32
-19 -39 -7 -54 30 -37 120 -57 159 -35 25 13 45 64 37 94 -5 20 0 28 29 45 42
24 55 63 30 91 -28 31 -136 62 -148 43z m73 -48 c31 -16 39 -42 18 -63 -16
-16 -50 -15 -71 1 -15 10 -16 17 -6 45 12 36 18 38 59 17z m-36 -125 c24 -23
15 -65 -15 -73 -12 -3 -39 1 -60 10 l-39 15 22 40 c19 34 26 38 48 33 14 -3
33 -15 44 -25z"/>
<path d="M5630 4899 c-268 -36 -485 -110 -1210 -412 -362 -151 -694 -313 -825
-402 -116 -78 -140 -99 -207 -179 -37 -44 -48 -64 -43 -80 3 -12 12 -59 20
-106 16 -103 28 -135 54 -150 16 -8 22 -7 31 9 5 11 10 27 10 36 0 27 38 91
70 118 16 14 30 29 30 34 1 9 116 77 215 126 39 20 143 60 230 90 88 30 192
66 230 80 125 45 119 47 126 -63 7 -112 23 -154 85 -223 64 -72 96 -93 183
-121 110 -37 201 -54 377 -71 140 -13 167 -13 252 1 52 8 102 19 111 23 9 5
52 19 96 31 91 25 155 51 155 62 0 4 15 14 33 22 17 7 68 39 112 71 177 127
207 163 255 310 29 86 29 148 1 186 -12 15 -21 37 -21 48 0 33 -48 79 -105
100 -64 24 -201 34 -265 20 -36 -8 -46 -7 -55 5 -10 13 -12 12 -22 -2 -9 -14
-15 -15 -31 -5 -14 8 -23 8 -30 1 -7 -7 -20 -7 -42 0 -25 9 -32 9 -37 -3 -3
-8 -8 -13 -12 -11 -3 2 -33 0 -66 -4 -33 -4 -66 -4 -74 0 -9 5 -21 2 -29 -6
-16 -17 -32 -18 -32 -3 0 8 -4 8 -12 2 -13 -10 -24 -13 -78 -16 -16 -1 -30 -5
-30 -8 0 -4 -10 -7 -22 -7 -13 0 -41 -5 -63 -10 -105 -28 -289 -50 -265 -33 8
6 25 11 37 11 12 0 23 4 25 9 2 5 12 11 23 13 11 1 22 6 25 9 10 13 130 59
153 59 14 0 30 7 37 15 7 8 20 15 29 15 9 0 109 32 224 70 114 38 231 74 260
79 28 5 92 16 141 25 49 9 96 22 106 31 9 8 26 15 38 15 12 0 22 6 23 13 3 35
-5 64 -23 84 -13 14 -18 28 -13 43 7 22 -7 45 -34 59 -9 4 -77 0 -151 -10z
m-430 -209 c0 -5 -4 -10 -9 -10 -6 0 -13 5 -16 10 -3 6 1 10 9 10 9 0 16 -4
16 -10z m-85 -30 c-4 -6 -41 -27 -83 -46 -43 -20 -94 -44 -114 -55 -20 -10
-43 -19 -51 -19 -8 0 -22 -9 -32 -20 -10 -11 -31 -20 -47 -20 -17 0 -27 -4
-23 -10 9 -14 -56 -40 -99 -40 -19 0 -38 -5 -42 -12 -5 -7 -2 -8 7 -3 9 5 11
5 4 -2 -5 -5 -29 -16 -52 -23 -24 -7 -43 -17 -43 -22 0 -4 -14 -8 -30 -8 -19
0 -29 -5 -28 -12 2 -8 -8 -13 -24 -13 -14 -1 -34 -7 -43 -15 -21 -17 -186 -88
-233 -100 -18 -4 -44 -15 -57 -24 -14 -9 -75 -35 -137 -57 -150 -54 -153 -55
-144 -40 9 14 199 112 316 162 47 20 156 69 243 108 87 39 163 71 168 71 5 0
31 11 58 25 58 29 325 135 341 135 6 0 25 8 43 17 28 14 72 28 100 32 5 1 5
-4 2 -9z m780 -240 c32 -12 75 -48 75 -62 0 -4 -16 -1 -36 7 -20 8 -66 20
-103 26 -36 5 -76 13 -88 16 -14 3 -23 1 -23 -6 0 -6 13 -11 29 -11 17 0 32
-4 35 -9 6 -10 -98 -26 -112 -17 -14 8 -366 -22 -507 -43 -179 -28 -377 -64
-520 -96 -66 -15 -132 -28 -147 -30 -14 -3 -32 -6 -39 -7 -26 -6 -20 31 7 49
43 28 183 75 239 80 28 3 64 11 82 20 18 8 36 12 42 9 13 -8 145 11 271 39 58
13 119 23 135 23 44 1 159 10 245 21 98 12 376 7 415 -9z m-65 -50 c0 -5 -4
-10 -9 -10 -6 0 -13 5 -16 10 -3 6 1 10 9 10 9 0 16 -4 16 -10z m93 -78 c15
-6 27 -17 27 -25 0 -7 -12 -31 -27 -54 -89 -131 -120 -159 -301 -273 -58 -37
-86 -60 -84 -71 1 -9 -4 -22 -13 -29 -8 -7 -15 -9 -15 -5 0 5 -8 1 -17 -7 -22
-19 -225 -83 -307 -98 -145 -25 -448 6 -590 60 -51 19 -17 32 55 21 91 -15
281 -26 439 -26 101 0 152 5 203 19 37 10 66 20 64 23 -3 2 -45 -3 -93 -13
-73 -14 -121 -15 -274 -10 -215 8 -282 22 -406 81 -102 49 -156 100 -175 165
-11 35 -10 43 3 57 17 16 28 19 228 57 69 13 185 38 258 55 73 17 173 35 223
41 49 6 110 15 136 20 27 6 84 15 128 20 109 12 503 6 538 -8z m-1533 -112 c0
-14 -35 -27 -96 -35 -63 -10 -50 5 24 27 70 20 72 20 72 8z m-385 -39 c-3 -6
-14 -11 -23 -11 -15 1 -15 2 2 15 21 16 32 13 21 -4z m1737 -174 c-27 -29 -82
-61 -82 -48 0 13 91 83 98 76 3 -3 -4 -15 -16 -28z m63 23 c-3 -5 1 -10 9 -10
32 0 14 -20 -80 -92 -134 -102 -134 -102 -134 -90 0 19 121 142 159 162 20 11
30 19 23 20 -18 0 -4 20 14 20 8 0 12 -4 9 -10z m-260 -190 c3 -5 13 -6 22 -3
11 4 14 2 11 -8 -3 -8 -19 -15 -39 -16 -19 -1 -74 -15 -123 -32 -50 -17 -98
-31 -108 -31 -34 0 -9 18 50 36 31 10 82 28 112 41 63 26 67 26 75 13z m-765
-90 c0 -5 -4 -10 -10 -10 -5 0 -10 5 -10 10 0 6 5 10 10 10 6 0 10 -4 10 -10z
m491 -3 c-1 -12 -15 -9 -19 4 -3 6 1 10 8 8 6 -3 11 -8 11 -12z m-426 -8 c12
-19 -5 -23 -22 -6 -16 16 -16 17 -1 17 9 0 20 -5 23 -11z m347 -11 c-6 -6 -19
-7 -29 -3 -17 7 -17 8 2 15 24 9 41 2 27 -12z m-87 -8 c-28 -12 -95 -12 -95 0
0 6 25 10 58 9 41 0 51 -3 37 -9z"/>
<path d="M4360 4329 c0 -5 5 -7 10 -4 6 3 10 8 10 11 0 2 -4 4 -10 4 -5 0 -10
-5 -10 -11z"/>
<path d="M8060 4904 c-190 -40 -382 -201 -480 -400 -128 -259 -75 -539 146
-773 141 -149 274 -195 454 -157 36 8 91 24 124 36 63 24 61 18 40 106 l-7 29
37 -35 37 -34 69 72 c163 170 233 328 234 527 0 297 -205 576 -463 631 -80 17
-107 16 -191 -2z m273 -88 c85 -41 180 -133 219 -214 55 -111 51 -243 -10
-367 -33 -67 -101 -161 -154 -212 l-43 -43 -215 215 c-118 118 -218 215 -222
215 -14 0 -57 -85 -63 -126 -12 -69 28 -140 95 -174 50 -25 89 -29 140 -16
l45 11 48 -99 c26 -54 47 -104 47 -111 0 -17 -63 -41 -143 -55 -126 -22 -239
20 -348 129 -213 214 -188 486 68 721 131 119 235 162 383 157 79 -3 105 -8
153 -31z"/>
<path d="M8098 4578 l-38 -23 118 -118 118 -118 22 40 c12 21 22 55 22 76 0
118 -145 203 -242 143z"/>
<path d="M8692 3767 l-394 -394 32 -119 32 -119 131 -132 131 -133 231 229
c246 245 270 262 348 247 51 -10 110 -80 144 -172 16 -41 31 -73 35 -71 3 1
63 73 132 160 l127 157 -31 113 c-40 145 -46 160 -93 219 -40 52 -118 108
-149 108 -10 0 -20 10 -23 23 -4 13 -63 81 -133 150 l-127 127 -393 -393z
m485 211 l93 -92 -42 -43 -42 -42 40 10 c84 24 181 -10 235 -82 55 -73 57 -66
-35 -183 l-83 -106 -38 61 c-65 106 -143 143 -248 119 -49 -12 -64 -24 -267
-226 -119 -118 -220 -214 -225 -214 -5 0 -51 42 -102 92 l-93 93 352 352 c194
194 355 353 358 353 2 0 46 -41 97 -92z"/>
<path d="M5875 3631 c-107 -7 -134 -13 -254 -54 -284 -99 -461 -225 -535 -380
-69 -143 -69 -213 1 -372 39 -89 59 -114 118 -154 56 -38 107 -55 285 -97 167
-39 178 -40 557 -48 139 -3 256 -6 260 -7 5 0 -46 -15 -112 -33 -66 -18 -187
-54 -269 -80 -82 -26 -173 -50 -202 -52 -29 -2 -74 -13 -99 -24 -53 -23 -75
-25 -75 -9 0 18 -28 -9 -36 -34 -4 -12 -16 -35 -26 -50 -17 -23 -19 -38 -14
-80 10 -85 18 -127 25 -131 10 -7 571 31 816 55 63 6 223 9 375 6 298 -5 359
-15 477 -72 83 -41 117 -77 109 -115 -22 -95 -29 -203 -17 -256 13 -56 53
-111 93 -126 39 -15 50 47 22 123 -11 32 -17 89 -19 203 -3 152 -5 161 -32
214 -15 30 -32 55 -38 55 -5 0 -16 8 -23 18 -7 10 -22 19 -35 21 -12 2 -22 9
-22 17 0 17 -38 32 -47 18 -4 -7 -45 -4 -125 9 -84 14 -181 20 -338 23 -121 1
-222 5 -224 7 -11 10 14 14 135 23 100 8 51 9 -215 5 -211 -3 -341 -2 -337 4
3 5 25 12 48 16 23 4 48 12 56 19 18 15 97 36 136 37 21 0 27 4 22 15 -4 12 7
15 67 16 40 1 59 4 42 6 -16 3 -34 9 -40 15 -7 7 12 9 59 6 38 -2 64 -2 58 0
-7 2 -12 8 -12 14 0 7 15 9 40 5 22 -3 43 -1 46 4 6 11 44 12 44 2 0 -12 83
-14 90 -3 3 5 80 13 171 16 90 4 169 10 174 15 14 11 277 -9 345 -25 86 -22
124 -26 138 -17 9 5 15 32 16 70 5 122 -56 163 -276 182 -130 11 -183 8 -243
-12 -16 -5 -88 -13 -160 -17 -71 -4 -128 -11 -127 -16 6 -15 -21 -25 -91 -32
-47 -5 -67 -3 -67 5 0 6 8 11 18 11 13 1 11 4 -8 14 -14 7 -63 16 -110 19 -90
7 -84 -5 10 -18 74 -10 84 -16 66 -40 -13 -19 -28 -20 -202 -21 -119 0 -249 7
-356 19 -175 19 -224 30 -213 47 8 14 128 13 142 -1 7 -7 13 -7 17 0 4 6 -9
13 -31 17 -107 18 -186 36 -258 60 -139 45 -121 59 30 24 48 -11 155 -27 240
-35 84 -8 173 -19 197 -24 112 -23 212 -20 184 6 -5 4 -11 2 -13 -4 -3 -7 -14
-13 -24 -13 -11 0 -17 5 -14 10 4 6 -10 10 -35 10 -23 0 -62 6 -88 14 -26 8
-101 20 -167 26 -65 7 -155 22 -200 35 -44 13 -96 26 -115 30 -82 17 -276 76
-323 99 -29 14 -64 36 -79 50 -37 33 -78 95 -78 116 0 41 146 141 289 197 123
48 278 93 323 93 36 0 38 -2 38 -30 0 -45 67 -112 175 -175 127 -75 195 -95
345 -105 238 -15 361 0 477 59 71 35 86 51 112 119 29 73 27 98 -16 171 -72
121 -197 208 -363 251 -74 20 -115 23 -325 25 -132 2 -294 0 -360 -4z m704
-287 c40 -9 98 -26 129 -39 31 -12 81 -28 110 -35 46 -10 51 -14 40 -27 -28
-35 -95 -65 -181 -85 -79 -17 -115 -19 -247 -15 -89 3 -185 12 -227 22 -106
24 -308 133 -287 154 3 3 40 11 82 18 42 7 97 16 122 22 68 14 374 5 459 -15z
m-804 -735 c7 -7 -1 -9 -24 -7 -19 2 -37 9 -39 17 -4 11 2 12 24 7 16 -4 34
-12 39 -17z m1085 -9 c0 -5 -18 -10 -39 -10 -22 0 -43 5 -46 10 -4 6 12 10 39
10 25 0 46 -4 46 -10z m-84 -59 c-9 -14 -63 -15 -71 -1 -7 12 57 30 69 19 4
-4 5 -12 2 -18z m74 11 c0 -14 -11 -21 -26 -15 -8 3 -11 9 -8 14 7 11 34 12
34 1z m-162 -14 c-5 -16 -118 -24 -118 -9 0 9 32 16 93 19 19 1 27 -2 25 -10z
m-200 -40 c-3 -7 -40 -20 -84 -29 -127 -26 -303 -75 -537 -150 -120 -38 -225
-69 -235 -69 -39 1 26 32 148 71 69 22 143 48 165 58 22 10 94 33 160 51 66
18 158 43 205 56 95 26 184 32 178 12z m62 2 c-20 -5 -39 -5 -44 1 -6 5 7 9
35 8 l44 -1 -35 -8z m-255 -150 c3 -6 -4 -10 -17 -10 -18 0 -20 2 -8 10 19 12
18 12 25 0z m-155 -45 c0 -8 -4 -15 -10 -15 -5 0 -10 7 -10 15 0 8 5 15 10 15
6 0 10 -7 10 -15z m310 -75 c0 -5 -12 -10 -26 -10 -14 0 -23 4 -19 10 3 6 15
10 26 10 10 0 19 -4 19 -10z m-70 -10 c0 -5 -4 -10 -9 -10 -6 0 -13 5 -16 10
-3 6 1 10 9 10 9 0 16 -4 16 -10z m815 -70 c3 -5 -1 -10 -9 -10 -9 0 -16 5
-16 10 0 6 4 10 9 10 6 0 13 -4 16 -10z m79 -51 c23 -18 36 -49 20 -49 -4 0
-22 16 -41 35 -37 38 -23 48 21 14z m66 -104 c0 -8 -4 -15 -10 -15 -5 0 -10 7
-10 15 0 8 5 15 10 15 6 0 10 -7 10 -15z"/>
<path d="M5980 2608 c0 -4 14 -8 30 -8 17 0 30 2 30 4 0 2 -13 6 -30 8 -16 3
-30 1 -30 -4z"/>
<path d="M6078 2593 c12 -2 30 -2 40 0 9 3 -1 5 -23 4 -22 0 -30 -2 -17 -4z"/>
<path d="M6230 2579 c30 -5 80 -13 111 -19 31 -6 65 -7 75 -3 12 5 -18 12 -81
20 -113 14 -189 15 -105 2z"/>
<path d="M6770 2250 c0 -7 7 -10 15 -6 13 5 78 0 245 -19 39 -4 36 -3 -15 10
-91 21 -245 31 -245 15z"/>
<path d="M7088 2213 c6 -2 18 -2 25 0 6 3 1 5 -13 5 -14 0 -19 -2 -12 -5z"/>
</g>
</svg>
