<?xml version="1.0" standalone="no"?>
<!DOCTYPE svg PUBLIC "-//W3C//DTD SVG 20010904//EN"
 "http://www.w3.org/TR/2001/REC-SVG-20010904/DTD/svg10.dtd">
<svg version="1.0" xmlns="http://www.w3.org/2000/svg"
 width="2880.000000pt" height="1620.000000pt" viewBox="0 0 2880.000000 1620.000000"
 preserveAspectRatio="xMidYMid meet">

<g transform="translate(0.000000,1620.000000) scale(0.100000,-0.100000)"
fill="#000000" stroke="none">
<path d="M6201 13315 c-23 -35 -41 -67 -41 -71 0 -4 -29 -54 -64 -113 -35 -58
-89 -151 -121 -206 -31 -55 -83 -143 -114 -195 -31 -52 -67 -115 -81 -141 -14
-25 -40 -71 -58 -100 -62 -102 -160 -269 -165 -283 -3 -7 -37 -67 -76 -132
-38 -66 -88 -150 -111 -189 -23 -38 -70 -119 -106 -179 -35 -60 -64 -112 -64
-114 0 -2 -30 -54 -66 -116 -37 -61 -90 -151 -119 -201 -29 -49 -79 -135 -111
-190 -33 -55 -61 -104 -63 -110 -2 -5 -24 -44 -49 -85 -25 -41 -62 -104 -83
-140 -50 -89 -169 -294 -206 -355 -17 -27 -59 -99 -93 -160 -73 -128 -141
-244 -235 -405 -37 -63 -91 -155 -120 -205 -28 -49 -78 -135 -111 -190 -32
-55 -64 -111 -70 -125 -6 -14 -32 -59 -58 -100 -25 -41 -46 -78 -46 -84 0 -5
15 -32 33 -60 19 -28 49 -78 66 -111 18 -33 52 -91 75 -130 24 -38 71 -119
106 -180 70 -122 187 -323 250 -430 23 -38 71 -122 107 -185 36 -63 94 -162
128 -220 34 -58 88 -150 120 -205 32 -55 86 -147 120 -205 34 -58 64 -110 66
-115 2 -6 31 -55 63 -110 33 -55 84 -143 114 -195 30 -52 83 -143 118 -201 35
-59 64 -109 64 -112 0 -3 24 -45 53 -94 30 -48 82 -137 117 -198 34 -60 76
-132 93 -160 36 -60 155 -265 206 -355 95 -167 136 -238 159 -275 28 -44 138
-234 209 -359 24 -43 62 -106 83 -141 22 -34 40 -65 40 -70 0 -4 19 -36 41
-71 l42 -64 9124 2 9125 3 139 420 c76 231 160 481 185 555 26 74 57 169 70
210 24 77 216 656 309 930 29 85 74 218 100 295 26 77 60 181 75 230 16 50 52
160 80 245 121 355 160 473 209 620 l51 155 0 1806 0 1807 -102 36 c-131 45
-3150 1052 -3363 1121 l-160 51 0 -3835 0 -3836 -24 -70 c-39 -113 -96 -218
-158 -290 -54 -61 -89 -90 -198 -162 -56 -38 -195 -83 -290 -94 -51 -6 -2743
-8 -7315 -7 l-7235 3 -80 22 c-188 52 -364 186 -462 350 -46 79 -91 225 -103
333 -14 137 -14 6606 0 6739 11 101 55 246 98 321 43 76 129 173 200 226 77
59 138 91 237 125 l70 24 7320 0 c7069 0 7322 -1 7385 -18 232 -66 409 -226
506 -457 l23 -55 1 348 0 347 -7909 0 -7909 0 -41 -65z m18629 -1185 c0 -5 -4
-10 -10 -10 -5 0 -10 5 -10 10 0 6 5 10 10 10 6 0 10 -4 10 -10z m-234 -94
c30 -30 54 -59 54 -66 0 -6 5 -8 10 -5 6 4 13 -7 16 -24 6 -26 11 -31 36 -31
33 0 63 -24 52 -41 -5 -8 -10 -7 -16 5 -5 10 -22 16 -42 16 -27 0 -35 -5 -39
-22 -3 -13 -10 -41 -16 -62 -5 -22 -7 -52 -4 -68 5 -24 8 -26 25 -17 11 6 22
8 25 5 9 -8 -17 -36 -34 -36 -8 0 -11 -4 -8 -10 3 -5 19 -10 35 -10 21 0 29
-6 34 -25 4 -16 13 -25 25 -25 41 0 51 -11 51 -55 0 -24 5 -47 10 -50 6 -3 10
-16 10 -29 0 -12 4 -26 10 -32 13 -13 -10 -74 -27 -74 -17 0 -17 27 0 34 10 5
10 7 0 12 -7 3 -13 20 -13 36 0 17 -8 49 -17 70 -17 39 -33 50 -33 23 0 -8 -4
-15 -10 -15 -5 0 -10 -7 -10 -15 0 -21 -28 -19 -33 3 -4 13 -5 11 -6 -5 -1
-26 -4 -27 -32 -13 -16 9 -19 22 -19 82 0 56 -3 69 -12 60 -17 -17 -57 -15
-64 3 -4 9 -19 15 -39 15 -18 0 -35 4 -37 9 -3 9 -83 16 -145 13 -26 -2 -34
-7 -39 -27 -3 -14 -10 -25 -15 -25 -5 0 -9 -7 -9 -15 0 -17 -35 -55 -50 -55
-15 0 -50 -33 -50 -47 0 -7 -9 -13 -20 -13 -12 0 -20 -7 -20 -16 0 -9 -9 -18
-20 -21 -11 -3 -20 -14 -20 -24 0 -11 -7 -19 -17 -19 -21 0 -43 -42 -43 -81 0
-46 -12 -89 -25 -89 -7 0 -15 -7 -19 -15 -3 -8 -14 -15 -25 -15 -20 0 -31 -18
-31 -51 0 -10 -4 -19 -8 -19 -5 0 -9 -13 -10 -30 0 -17 -12 -41 -26 -57 -14
-15 -26 -32 -26 -37 0 -5 -12 -19 -26 -31 -24 -21 -28 -21 -55 -8 -31 15 -39
33 -15 33 8 0 17 7 20 16 10 25 7 74 -4 74 -5 0 -10 5 -10 12 0 9 3 9 12 0 7
-7 16 -12 20 -12 13 0 9 88 -4 94 -7 3 -4 4 7 1 30 -7 45 7 52 49 4 27 2 41
-8 46 -7 5 -10 13 -5 17 5 4 11 2 13 -4 10 -27 23 -11 23 25 0 33 -3 38 -21
38 -23 -1 -48 28 -36 41 5 4 11 2 15 -4 13 -21 58 -26 76 -8 18 19 21 35 5 35
-5 0 -7 -4 -4 -10 3 -5 -3 -10 -14 -10 -12 0 -21 5 -21 10 0 6 -7 10 -15 10
-9 0 -15 9 -15 25 0 14 -4 25 -10 25 -6 0 -10 48 -10 125 0 69 4 125 9 125 5
0 12 20 15 45 4 25 11 45 16 45 4 0 11 11 14 25 4 14 13 25 20 25 8 0 17 13
21 30 6 28 9 29 48 27 42 -3 42 -3 51 -52 9 -49 25 -75 45 -75 6 0 11 -18 11
-40 0 -22 -4 -40 -10 -40 -5 0 -10 -9 -10 -20 0 -11 5 -20 10 -20 16 0 12 -32
-7 -52 -13 -14 -14 -21 -5 -30 9 -9 12 -9 12 2 0 23 50 80 71 80 26 0 49 23
49 49 0 11 7 26 15 35 8 8 15 19 15 25 0 6 7 11 15 11 9 0 15 -9 15 -21 0 -43
53 -67 65 -29 6 20 45 29 45 10 0 -5 7 -10 15 -10 8 0 15 5 15 10 0 6 9 10 21
10 22 0 49 -22 49 -39 0 -7 27 -11 69 -11 46 0 71 -4 74 -12 2 -7 8 -10 12 -6
4 4 2 15 -6 24 -11 14 -11 18 -1 21 6 3 15 22 18 44 4 25 12 39 21 39 11 0 14
7 9 23 -3 12 -6 36 -6 52 0 28 -54 105 -74 105 -9 0 -45 41 -46 53 0 15 14 5
66 -47z m-19 -31 c48 -50 53 -59 53 -100 0 -25 -4 -45 -8 -45 -5 0 -12 -19
-18 -42 -9 -42 -10 -43 -49 -43 -37 0 -40 2 -48 35 -8 35 -8 35 -57 32 -28 -2
-50 -8 -50 -13 0 -14 -50 -11 -51 4 -1 6 -2 36 -3 64 -1 45 2 53 17 53 10 0
21 8 24 17 4 10 21 32 38 49 60 60 85 58 152 -11z m213 35 c0 -5 -4 -10 -10
-10 -5 0 -10 5 -10 10 0 6 5 10 10 10 6 0 10 -4 10 -10z m46 -17 c-10 -10 -19
5 -10 18 6 11 8 11 12 0 2 -7 1 -15 -2 -18z m-11 -35 c6 -13 22 -29 38 -36 37
-18 35 -42 -3 -42 -19 0 -33 -7 -40 -21 -11 -20 -12 -20 -37 5 -20 21 -24 32
-19 56 11 56 44 77 61 38z m35 7 c0 -8 5 -15 12 -15 6 0 9 -2 6 -5 -3 -3 -13
-3 -22 1 -17 7 -22 34 -6 34 6 0 10 -7 10 -15z m-833 -27 c-3 -8 -6 -5 -6 6
-1 11 2 17 5 13 3 -3 4 -12 1 -19z m47 -33 c19 -28 20 -35 6 -35 -5 0 -10 6
-10 14 0 8 -7 16 -15 20 -8 3 -15 10 -15 16 0 18 17 11 34 -15z m886 5 c0 -12
-10 -24 -24 -29 -13 -5 -26 -17 -29 -25 -4 -9 -14 -16 -24 -16 -22 -1 -47 -20
-56 -42 -7 -21 -37 -24 -55 -6 -18 18 -15 28 8 28 13 0 18 -5 14 -15 -4 -8 -1
-15 5 -15 6 0 11 6 11 13 0 23 36 57 59 57 11 0 21 4 21 10 0 5 11 12 25 16
16 4 25 13 25 25 0 10 5 19 10 19 6 0 10 -9 10 -20z m-640 -50 c-12 -10 -20
-30 -20 -49 0 -17 -4 -31 -10 -31 -19 0 -10 59 13 83 12 13 26 21 30 19 4 -2
-1 -12 -13 -22z m-215 -68 c-9 -9 -25 11 -25 32 0 37 14 40 22 4 3 -18 5 -34
3 -36z m1215 32 c0 -8 -4 -12 -10 -9 -5 3 -10 10 -10 16 0 5 5 9 10 9 6 0 10
-7 10 -16z m-40 -4 c0 -5 -2 -10 -4 -10 -3 0 -8 5 -11 10 -3 6 -1 10 4 10 6 0
11 -4 11 -10z m67 -36 c-9 -9 -28 6 -21 18 4 6 10 6 17 -1 6 -6 8 -13 4 -17z
m-1507 6 c0 -5 -4 -10 -10 -10 -5 0 -10 5 -10 10 0 6 5 10 10 10 6 0 10 -4 10
-10z m280 -105 c-23 -28 -33 -17 -26 31 9 66 19 76 30 27 6 -31 5 -47 -4 -58z
m1240 73 c0 -4 -9 -8 -21 -8 -18 0 -19 -2 -5 -15 8 -8 22 -15 31 -15 20 0 16
-32 -5 -37 -13 -4 -13 -3 0 6 12 8 9 12 -15 21 -37 14 -55 6 -55 -25 0 -14 -4
-25 -10 -25 -5 0 -10 14 -10 30 0 17 5 30 10 30 6 0 10 11 10 24 0 21 4 24 35
23 19 -1 35 -5 35 -9z m-1540 -18 c0 -5 -4 -10 -10 -10 -5 0 -10 5 -10 10 0 6
5 10 10 10 6 0 10 -4 10 -10z m1570 0 c0 -5 -5 -10 -11 -10 -5 0 -7 5 -4 10 3
6 8 10 11 10 2 0 4 -4 4 -10z m78 -46 c-2 -13 -14 -20 -33 -22 -17 -2 -36 -9
-43 -14 -7 -6 -15 -8 -18 -5 -10 10 23 37 44 37 12 0 22 9 26 22 4 17 8 20 17
11 6 -6 9 -19 7 -29z m-288 2 c0 -9 7 -12 19 -9 13 3 30 -6 51 -27 17 -18 29
-34 27 -36 -9 -9 -37 9 -42 27 -4 10 -15 19 -25 19 -29 0 -50 11 -50 26 0 8 5
14 10 14 6 0 10 -6 10 -14z m-426 -22 c9 -8 16 -21 16 -27 0 -8 -3 -8 -8 -2
-4 6 -15 18 -25 28 -10 9 -14 17 -8 17 5 0 17 -7 25 -16z m570 -18 c-3 -9 -13
-16 -21 -16 -8 0 -13 6 -10 13 2 6 10 11 16 10 6 -2 11 2 11 9 0 6 2 9 5 6 3
-3 3 -13 -1 -22z m36 -10 c0 -8 -4 -18 -10 -21 -5 -3 -10 -15 -10 -25 0 -10
-10 -26 -22 -34 -30 -21 -38 -9 -10 15 13 10 21 23 17 28 -6 11 15 51 27 51 5
0 8 -6 8 -14z m-975 -16 c-5 -15 -2 -20 12 -20 10 0 29 -9 43 -20 14 -11 29
-20 33 -20 11 0 49 -41 65 -68 7 -12 15 -68 18 -125 5 -80 3 -106 -8 -121 -8
-10 -20 -16 -26 -12 -15 9 -16 36 -2 36 12 0 13 77 1 84 -4 3 -11 23 -14 43
-4 24 -16 45 -32 57 -14 10 -25 25 -25 32 0 8 -11 14 -25 14 -16 0 -25 -6 -25
-15 0 -8 6 -14 13 -12 7 1 13 -11 15 -30 2 -24 -1 -33 -12 -33 -8 0 -17 -6
-20 -12 -5 -10 -7 -10 -12 0 -3 6 -10 12 -16 12 -8 0 -9 -35 -4 -110 l6 -110
-26 6 c-40 10 -64 35 -64 66 0 18 -5 28 -15 28 -20 0 -22 135 -1 147 7 4 16
28 19 52 3 24 10 47 14 50 5 3 12 14 16 24 3 9 13 17 21 17 15 0 30 27 27 48
-1 6 5 12 14 12 12 0 15 -6 10 -20z m95 -5 c0 -8 -7 -15 -15 -15 -8 0 -15 7
-15 15 0 8 7 15 15 15 8 0 15 -7 15 -15z m350 -60 c0 -14 -4 -25 -10 -25 -5 0
-10 11 -10 25 0 14 5 25 10 25 6 0 10 -11 10 -25z m-230 -10 c0 -8 -9 -15 -20
-15 -11 0 -20 7 -20 15 0 8 9 15 20 15 11 0 20 -7 20 -15z m240 -50 c0 -9 7
-18 15 -21 8 -4 15 -12 15 -20 0 -8 -7 -14 -15 -14 -8 0 -15 7 -15 15 0 8 -4
15 -10 15 -5 0 -10 9 -10 20 0 11 5 20 10 20 6 0 10 -7 10 -15z m321 -7 c7
-90 7 -148 -1 -148 -6 0 -10 29 -10 64 0 36 -4 68 -10 71 -15 9 -12 25 5 25 8
0 15 -6 16 -12z m-33 -47 c3 -27 0 -32 -15 -29 -19 3 -28 30 -19 54 10 26 31
10 34 -25z m-158 -66 c0 -14 5 -25 10 -25 6 0 10 -5 10 -11 0 -27 32 -41 98
-42 l67 -2 -4 -85 c-2 -47 -7 -86 -12 -88 -12 -5 -11 -42 1 -42 6 0 10 -7 10
-15 0 -8 -4 -15 -10 -15 -5 0 -10 -9 -10 -20 0 -11 5 -20 10 -20 6 0 10 7 10
15 0 8 5 15 11 15 7 0 8 -11 4 -32 -8 -36 -26 -68 -37 -68 -4 0 -11 -18 -14
-40 -4 -22 -11 -40 -16 -40 -5 0 -6 5 -3 10 3 6 1 10 -5 10 -14 0 -3 41 15 56
18 14 31 64 16 64 -6 0 -11 -9 -11 -19 0 -11 -8 -26 -19 -33 -10 -7 -21 -23
-25 -35 -4 -13 -12 -23 -17 -23 -5 0 -9 -6 -9 -13 0 -7 -10 -17 -22 -22 -13
-6 -24 -19 -26 -30 -2 -11 -17 -31 -35 -44 -18 -13 -41 -42 -51 -65 -23 -48
-39 -66 -58 -66 -8 0 -32 -15 -53 -34 -38 -34 -69 -45 -129 -47 -17 0 -25 -3
-18 -6 6 -2 10 -9 6 -14 -3 -5 10 -9 29 -9 22 0 37 6 41 16 14 36 26 -3 26
-82 0 -49 4 -84 10 -84 20 0 10 -48 -11 -55 -15 -5 -18 -10 -10 -18 6 -6 11
-36 11 -67 0 -31 5 -61 11 -67 6 -6 9 -43 7 -92 -2 -60 0 -81 10 -81 6 0 12
-9 12 -20 0 -11 -4 -20 -9 -20 -5 0 -11 -13 -13 -30 -3 -20 0 -30 8 -30 7 0
14 -12 16 -27 3 -24 7 -28 32 -25 l29 4 -6 -54 c-4 -29 -11 -54 -17 -56 -8 -3
-8 -8 0 -17 6 -7 10 -39 8 -72 -3 -49 -6 -60 -25 -68 -13 -5 -23 -15 -23 -22
0 -7 -4 -13 -10 -13 -5 0 -10 -7 -10 -16 0 -17 -23 -44 -39 -44 -5 0 -13 9
-16 20 -3 11 -10 20 -15 20 -5 0 -11 12 -13 28 -2 16 -5 8 -6 -21 -1 -56 -24
-62 -29 -9 -2 18 -7 32 -13 32 -11 0 -12 27 0 32 4 2 11 39 13 84 l6 81 -24
-5 c-19 -3 -24 -11 -24 -33 0 -16 5 -29 10 -29 6 0 10 -13 10 -30 0 -21 -5
-30 -16 -30 -13 0 -15 -7 -10 -32 4 -18 11 -34 16 -36 16 -6 12 -92 -6 -109
-15 -16 -11 -72 6 -83 5 -3 10 -21 12 -39 4 -45 28 -54 28 -12 0 21 5 31 15
31 11 0 15 -12 15 -51 0 -45 -2 -50 -19 -44 -19 6 -23 -7 -9 -30 8 -15 -3 -76
-13 -69 -5 3 -9 1 -9 -5 0 -34 -62 -52 -99 -29 -15 9 -64 9 -218 0 -139 -9
-225 -9 -288 -2 -49 5 -118 10 -153 10 -34 0 -104 9 -155 21 -76 17 -134 22
-340 25 -230 3 -248 2 -245 -14 2 -13 -4 -17 -24 -17 -15 0 -33 -8 -40 -18
-12 -16 -21 -16 -93 -7 -44 6 -91 10 -105 10 -31 0 -86 35 -71 44 6 4 14 5 19
3 4 -3 5 17 4 44 -3 31 0 49 7 49 6 0 11 11 11 24 0 23 22 39 46 35 39 -7 42
0 46 93 2 61 7 93 16 96 6 2 12 11 12 21 0 9 9 23 20 31 11 8 20 20 20 27 0
19 17 16 39 -6 28 -28 61 -17 61 19 0 16 7 35 15 44 8 8 15 19 15 25 0 17 70
13 76 -4 11 -27 42 -18 46 13 2 16 9 27 18 27 8 0 18 4 21 9 4 4 16 3 27 -3
25 -13 40 -87 22 -104 -10 -9 -14 -9 -17 1 -5 12 -43 18 -43 6 0 -11 25 -29
55 -39 41 -14 43 -40 6 -76 -17 -16 -31 -34 -31 -39 0 -6 -11 -8 -25 -4 -16 4
-25 2 -25 -6 0 -12 -14 -28 -72 -90 -16 -16 -28 -32 -28 -37 0 -5 -22 -30 -50
-57 -27 -27 -50 -56 -50 -65 0 -9 -5 -22 -12 -29 -14 -14 -18 -52 -6 -52 4 0
8 8 8 17 0 10 12 28 28 41 22 19 34 23 64 18 33 -5 41 -2 71 29 22 22 43 35
60 35 18 0 43 17 82 54 30 30 55 60 55 67 0 7 12 24 27 36 14 13 23 26 20 29
-3 4 -13 -1 -22 -10 -18 -18 -45 -22 -45 -6 0 6 5 10 10 10 6 0 10 18 10 40 0
22 -4 40 -10 40 -5 0 -10 7 -10 16 0 11 8 14 28 12 21 -2 27 -8 26 -25 0 -13
3 -23 8 -23 4 0 8 11 8 25 0 14 -4 25 -10 25 -5 0 -10 7 -10 15 0 8 5 15 10
15 6 0 10 11 10 25 0 16 6 25 15 25 11 0 15 12 15 45 0 25 5 45 10 45 6 0 10
10 10 23 0 12 7 35 15 51 17 32 20 66 5 66 -5 0 -10 5 -10 11 0 8 5 7 15 -1
20 -17 24 -12 32 46 5 37 14 57 40 81 18 18 33 39 33 48 0 8 7 15 15 15 8 0
15 5 15 10 0 6 -7 10 -15 10 -8 0 -15 5 -15 10 0 6 -7 10 -15 10 -18 0 -20 26
-3 36 6 4 16 0 23 -9 19 -26 25 -20 25 23 0 26 -5 40 -13 40 -17 0 -47 36 -47
56 0 25 25 43 69 50 23 4 41 10 41 15 0 5 7 9 15 9 8 0 15 9 15 20 0 11 -4 20
-10 20 -5 0 -10 11 -10 25 0 23 4 25 40 25 22 0 40 -4 40 -10 0 -5 9 -10 20
-10 11 0 20 7 20 15 0 8 4 15 9 15 5 0 14 14 20 31 8 23 15 30 27 25 14 -6 16
0 12 39 -3 25 -2 45 1 45 15 0 31 -25 31 -47 0 -18 6 -23 25 -23 33 0 67 31
56 49 -7 11 -10 9 -16 -8 -8 -25 -34 -28 -41 -3 -11 37 -22 47 -49 47 -16 0
-30 6 -33 14 -3 8 1 12 9 9 8 -3 21 2 29 10 11 12 12 16 2 20 -17 5 -15 32 3
32 11 0 15 12 15 45 0 45 0 45 35 45 28 0 35 -4 35 -20 0 -13 7 -20 20 -20 15
0 20 7 20 25 0 14 5 25 10 25 5 0 9 3 9 8 -1 4 -1 22 0 40 2 47 28 42 36 -8 4
-22 9 -40 12 -40 11 0 33 30 33 44 0 9 4 16 9 16 5 0 12 14 16 30 4 17 10 30
14 30 4 0 14 16 21 36 8 20 22 41 31 48 9 6 19 24 23 41 10 41 86 108 86 75 0
-5 25 -10 55 -10 30 0 55 5 55 10 0 6 6 10 14 10 8 0 16 7 20 15 3 8 12 15 20
15 7 0 16 9 19 20 3 11 13 20 22 20 9 0 23 7 31 15 9 8 24 15 34 15 10 0 20 7
24 15 3 8 15 15 26 15 11 0 20 7 20 15 0 8 9 15 20 15 12 0 31 11 44 25 17 18
34 25 60 25 25 0 36 4 36 15 0 8 8 15 17 15 9 0 13 3 10 6 -10 10 33 44 55 44
13 0 18 -7 18 -25z m160 10 c0 -8 -6 -15 -14 -15 -17 0 -28 14 -19 24 12 12
33 6 33 -9z m-365 -20 c0 -10 -6 -20 -12 -22 -8 -3 -13 5 -13 22 0 17 5 25 13
23 6 -3 12 -13 12 -23z m-685 -30 c0 -8 -7 -15 -15 -15 -8 0 -15 7 -15 15 0 8
7 15 15 15 8 0 15 -7 15 -15z m1110 -25 c0 -11 -4 -20 -10 -20 -5 0 -10 9 -10
20 0 11 5 20 10 20 6 0 10 -9 10 -20z m16 -57 c-4 -38 -23 -40 -23 -3 0 17 6
30 13 30 8 0 12 -10 10 -27z m-1056 -3 c0 -11 -7 -20 -15 -20 -8 0 -15 9 -15
20 0 11 7 20 15 20 8 0 15 -9 15 -20z m498 -18 c2 -7 -3 -12 -12 -12 -9 0 -16
7 -16 16 0 17 22 14 28 -4z m-808 -2 c0 -5 -4 -10 -10 -10 -5 0 -10 5 -10 10
0 6 5 10 10 10 6 0 10 -4 10 -10z m1710 -20 c0 -5 -4 -10 -10 -10 -5 0 -10 5
-10 10 0 6 5 10 10 10 6 0 10 -4 10 -10z m-1735 -10 c3 -5 1 -10 -4 -10 -6 0
-11 5 -11 10 0 6 2 10 4 10 3 0 8 -4 11 -10z m1385 -44 c0 -24 -3 -58 -6 -75
-7 -34 -24 -42 -24 -11 0 11 3 20 8 20 4 0 5 25 4 55 -3 35 0 55 7 55 6 0 11
-19 11 -44z m323 38 c10 -10 -4 -34 -20 -34 -8 0 -11 5 -8 10 11 17 -7 11 -21
-7 -12 -16 -13 -15 -14 10 0 23 4 27 28 27 16 0 31 -3 35 -6z m57 -14 c0 -13
-10 -24 -25 -30 -14 -5 -25 -16 -25 -25 0 -8 -4 -15 -10 -15 -5 0 -10 7 -10
15 0 8 5 15 10 15 6 0 10 7 10 15 0 8 6 15 14 15 8 0 16 7 20 15 8 21 16 19
16 -5z m-1152 -12 c-3 -7 -11 -13 -18 -13 -7 0 -15 6 -17 13 -3 7 4 12 17 12
13 0 20 -5 18 -12z m-438 -19 c0 -24 -23 -21 -28 4 -2 10 3 17 12 17 10 0 16
-9 16 -21z m1425 11 c3 -5 -3 -10 -14 -10 -12 0 -21 5 -21 10 0 6 6 10 14 10
8 0 18 -4 21 -10z m65 -30 c8 -5 11 -12 7 -17 -5 -4 -11 -2 -15 4 -4 6 -18 13
-32 16 l-25 4 25 1 c14 1 32 -2 40 -8z m-1520 -35 c0 -8 -7 -15 -15 -15 -8 0
-15 7 -15 15 0 8 7 15 15 15 8 0 15 -7 15 -15z m1568 -32 c-3 -19 -48 -32 -48
-14 0 6 7 11 15 11 8 0 15 5 15 10 0 6 5 10 11 10 6 0 9 -8 7 -17z m-1618 -68
c0 -8 -7 -15 -15 -15 -8 0 -15 7 -15 15 0 8 7 15 15 15 8 0 15 -7 15 -15z
m-190 -122 c0 -7 -6 -13 -13 -13 -14 0 -48 36 -41 43 9 8 54 -18 54 -30z
m1420 -33 c0 -5 -4 -10 -10 -10 -5 0 -10 5 -10 10 0 6 5 10 10 10 6 0 10 -4
10 -10z m-1452 -32 c-3 -7 -11 -13 -18 -13 -7 0 -15 6 -17 13 -3 7 4 12 17 12
13 0 20 -5 18 -12z m1412 2 c0 -6 -7 -13 -15 -16 -8 -4 -15 -12 -15 -20 0 -8
-7 -14 -15 -14 -8 0 -15 -7 -15 -15 0 -8 -7 -15 -15 -15 -24 0 -18 20 18 56
32 33 57 44 57 24z m64 -15 c9 -34 -1 -48 -28 -41 -18 4 -24 -1 -35 -29 -7
-19 -25 -48 -42 -64 -16 -16 -27 -36 -24 -43 3 -8 -3 -22 -13 -31 -15 -13 -25
-15 -43 -8 -13 5 -19 11 -14 12 6 1 15 3 20 4 6 2 16 3 23 4 7 1 12 15 12 37
0 25 4 35 13 31 13 -5 32 11 32 28 0 6 7 27 15 48 13 35 17 38 42 33 27 -5 38
6 18 19 -15 9 -12 25 4 25 8 0 17 -11 20 -25z m-2060 -58 c20 -16 25 -26 18
-31 -7 -4 -12 -1 -12 8 0 9 -11 18 -25 22 -14 3 -25 10 -25 15 0 15 13 10 44
-14z m664 -22 c3 -16 1 -18 -9 -7 -8 7 -41 12 -87 12 -40 0 -71 3 -69 8 3 4
40 7 84 7 69 -1 78 -3 81 -20z m-818 -10 c0 -8 -6 -15 -14 -15 -20 0 -29 17
-14 23 22 9 28 7 28 -8z m50 0 c0 -8 -7 -15 -15 -15 -8 0 -15 7 -15 15 0 8 7
15 15 15 8 0 15 -7 15 -15z m1952 0 c0 -5 -5 -11 -11 -13 -6 -2 -11 4 -11 13
0 9 5 15 11 13 6 -2 11 -8 11 -13z m-2132 -5 c0 -5 -4 -10 -10 -10 -5 0 -10 5
-10 10 0 6 5 10 10 10 6 0 10 -4 10 -10z m340 0 c0 -5 -2 -10 -4 -10 -3 0 -8
5 -11 10 -3 6 -1 10 4 10 6 0 11 -4 11 -10z m-90 -15 c0 -8 -7 -15 -15 -15 -8
0 -15 7 -15 15 0 8 7 15 15 15 8 0 15 -7 15 -15z m840 0 c0 -8 -6 -15 -12 -15
-7 0 -23 -15 -36 -34 -12 -18 -33 -43 -46 -55 l-24 -23 -21 21 c-20 20 -28 41
-15 41 3 0 12 -7 21 -16 14 -14 17 -13 34 5 11 11 19 23 19 26 0 12 55 64 68
65 6 0 12 -7 12 -15z m-1170 -5 c0 -5 -4 -10 -10 -10 -5 0 -10 5 -10 10 0 6 5
10 10 10 6 0 10 -4 10 -10z m467 -5 c8 -22 -6 -33 -17 -15 -13 20 -12 30 0 30
6 0 13 -7 17 -15z m-414 -10 c1 -5 -6 -11 -15 -13 -11 -2 -18 3 -18 13 0 17
30 18 33 0z m127 -4 c0 -20 -25 -35 -41 -25 -5 3 -9 14 -9 25 0 14 7 19 25 19
18 0 25 -5 25 -19z m240 2 c16 -9 31 -26 34 -37 5 -21 5 -21 20 -1 15 20 15
20 16 -2 0 -13 5 -23 11 -23 5 0 8 -4 4 -10 -3 -5 -13 -6 -23 -3 -12 4 -14 3
-7 -5 6 -6 24 -12 40 -14 29 -3 30 -5 33 -55 2 -43 0 -53 -12 -53 -9 0 -16 5
-16 10 0 13 -167 13 -175 0 -3 -5 -28 -12 -55 -16 -28 -4 -50 -10 -50 -14 0
-4 -18 -10 -39 -14 -21 -3 -41 -12 -44 -20 -3 -8 -19 -17 -36 -21 -17 -4 -31
-10 -31 -13 0 -8 -74 -42 -90 -42 -6 0 -8 -10 -4 -24 3 -13 1 -27 -6 -31 -7
-4 -14 1 -17 14 -7 26 -23 27 -51 1 -12 -11 -26 -20 -32 -20 -5 0 -10 -6 -10
-14 0 -8 -6 -21 -12 -28 -7 -8 -18 -23 -24 -33 -15 -27 -38 -25 -42 3 -2 12 1
22 7 22 5 0 13 27 17 60 4 33 10 60 14 60 4 0 10 19 13 42 3 23 13 47 21 54 9
6 16 20 16 30 0 44 12 63 43 70 18 4 37 13 43 22 7 10 22 13 47 10 20 -2 37 0
37 4 0 4 7 8 15 8 8 0 15 5 15 10 0 6 29 10 66 10 45 0 70 5 80 15 9 8 29 15
46 15 20 0 37 8 50 25 23 29 49 32 88 8z m1828 -20 c4 -25 -22 -33 -32 -10 -3
6 -4 1 -3 -13 2 -20 -2 -25 -22 -25 -14 0 -26 6 -29 13 -2 7 5 12 18 12 16 0
20 4 16 16 -9 23 2 36 27 32 14 -2 23 -11 25 -25z m-2148 -4 c0 -25 -20 -47
-40 -42 -23 6 -27 33 -5 33 8 0 15 5 15 10 0 6 7 10 15 10 8 0 15 -5 15 -11z
m2050 -24 c0 -8 -6 -15 -14 -15 -23 0 -27 -29 -10 -65 17 -36 13 -55 -12 -55
-10 0 -14 -13 -14 -47 0 -57 7 -68 39 -70 28 -2 27 0 34 -41 5 -25 3 -32 -6
-29 -6 2 -12 12 -12 22 0 10 -6 20 -13 23 -6 2 -12 -3 -12 -12 0 -9 -7 -16
-15 -16 -9 0 -15 9 -15 25 0 14 -4 25 -10 25 -6 0 -10 29 -10 68 0 62 2 70 23
80 12 6 16 11 10 11 -7 1 -13 8 -13 16 0 8 -4 15 -10 15 -5 0 -10 15 -10 34 0
28 4 35 23 39 41 8 47 7 47 -8z m-2250 -30 c0 -8 -4 -15 -10 -15 -5 0 -10 7
-10 15 0 8 5 15 10 15 6 0 10 -7 10 -15z m48 -3 c2 -7 -3 -12 -12 -12 -9 0
-16 7 -16 16 0 17 22 14 28 -4z m642 -48 c0 -25 -4 -43 -9 -40 -4 3 -8 24 -8
46 0 22 4 40 8 40 5 0 9 -21 9 -46z m0 -64 c0 -5 -2 -10 -4 -10 -3 0 -8 5 -11
10 -3 6 -1 10 4 10 6 0 11 -4 11 -10z m70 -71 c0 -33 -4 -59 -10 -59 -6 0 -10
29 -10 66 0 41 4 63 10 59 6 -3 10 -33 10 -66z m380 61 c0 -5 -4 -10 -10 -10
-5 0 -10 5 -10 10 0 6 5 10 10 10 6 0 10 -4 10 -10z m-1195 -30 c3 -5 1 -10
-4 -10 -6 0 -11 5 -11 10 0 6 2 10 4 10 3 0 8 -4 11 -10z m500 0 c3 -5 1 -10
-4 -10 -6 0 -11 -7 -11 -15 0 -8 -7 -15 -15 -15 -9 0 -15 9 -15 25 0 18 5 25
19 25 11 0 23 -4 26 -10z m185 0 c0 -5 -13 -10 -30 -10 -16 0 -30 5 -30 10 0
6 14 10 30 10 17 0 30 -4 30 -10z m450 -35 c0 -8 -4 -15 -10 -15 -5 0 -10 7
-10 15 0 8 5 15 10 15 6 0 10 -7 10 -15z m0 -45 c0 -5 -4 -10 -10 -10 -5 0
-10 5 -10 10 0 6 5 10 10 10 6 0 10 -4 10 -10z m-263 -62 c-9 -24 -28 -55 -42
-70 -19 -21 -25 -38 -25 -73 0 -25 -4 -45 -10 -45 -6 0 -10 27 -10 60 0 47 3
60 15 60 8 0 15 9 15 19 0 10 7 21 15 25 8 3 15 15 15 26 0 11 7 20 15 20 8 0
14 3 14 8 -3 15 1 25 7 19 4 -4 0 -26 -9 -49z m173 32 c0 -5 -4 -10 -10 -10
-5 0 -10 5 -10 10 0 6 5 10 10 10 6 0 10 -4 10 -10z m-700 -23 c0 -17 -20 -37
-37 -37 -19 0 -16 20 5 36 22 17 32 17 32 1z m-383 -19 c-3 -8 -6 -5 -6 6 -1
11 2 17 5 13 3 -3 4 -12 1 -19z m2403 -23 c0 -19 -4 -35 -10 -35 -5 0 -10 16
-10 35 0 19 5 35 10 35 6 0 10 -16 10 -35z m-38 -37 c3 -29 11 -54 17 -56 6
-2 11 -10 11 -18 0 -8 5 -14 10 -14 6 0 10 -11 10 -25 0 -18 5 -25 19 -25 16
0 18 7 15 55 -3 50 7 73 19 43 14 -38 -14 -141 -36 -132 -8 3 -17 -2 -21 -12
-5 -12 -14 -15 -36 -11 -24 5 -29 3 -32 -16 -2 -12 4 -30 12 -39 35 -39 40
-49 40 -78 0 -16 -4 -30 -10 -30 -5 0 -13 -18 -16 -40 -5 -30 -11 -40 -25 -40
-10 0 -20 8 -23 18 -3 9 -4 119 -3 244 2 225 2 228 23 228 19 0 22 -7 26 -52z
m-1894 24 c2 -7 -10 -17 -27 -23 -17 -6 -31 -15 -31 -20 0 -5 -6 -9 -14 -9 -8
0 -17 -7 -20 -16 -5 -12 -1 -14 16 -8 12 4 28 13 36 20 7 8 18 14 23 14 6 0
18 7 26 16 17 16 62 12 74 -8 10 -16 178 -18 194 -2 17 17 25 18 25 3 0 -7 6
-17 14 -23 8 -6 16 -31 19 -55 3 -24 11 -47 18 -52 12 -7 12 -10 0 -21 -11
-10 -14 -10 -18 0 -9 24 -31 11 -37 -23 -6 -29 -11 -35 -31 -35 -14 0 -25 5
-25 10 0 6 -11 10 -24 10 -14 0 -28 -4 -31 -10 -9 -14 -95 -13 -95 2 0 6 -13
-3 -28 -20 -16 -18 -36 -32 -45 -32 -9 0 -35 -18 -57 -40 -22 -22 -45 -40 -51
-40 -5 0 -12 -7 -15 -15 -4 -8 -11 -15 -18 -15 -6 0 -24 -16 -41 -35 -18 -21
-39 -35 -52 -35 -13 0 -23 -4 -23 -9 0 -5 -9 -12 -19 -16 -11 -3 -22 -18 -26
-34 -3 -15 -15 -33 -25 -41 -11 -8 -20 -20 -20 -27 0 -6 -8 -18 -18 -25 -11
-7 -22 -30 -26 -51 -9 -49 -36 -47 -51 4 -5 20 -15 43 -22 51 -8 9 -12 48 -11
113 1 69 -2 100 -10 103 -7 2 -12 8 -12 13 0 17 40 49 63 49 15 0 28 11 41 35
11 19 25 35 33 35 8 0 31 18 52 40 21 22 45 40 54 40 9 0 19 9 22 20 3 11 10
20 14 20 13 0 51 36 51 49 0 6 5 11 11 11 6 0 8 8 5 18 -6 19 13 33 62 47 12
4 22 13 22 21 0 19 41 15 48 -4z m192 -22 c0 -5 -7 -10 -15 -10 -8 0 -15 5
-15 10 0 6 7 10 15 10 8 0 15 -4 15 -10z m410 0 c0 -5 -4 -10 -10 -10 -5 0
-10 5 -10 10 0 6 5 10 10 10 6 0 10 -4 10 -10z m1325 -20 c3 -5 1 -10 -4 -10
-6 0 -11 5 -11 10 0 6 2 10 4 10 3 0 8 -4 11 -10z m-2145 -65 c-7 -8 -19 -15
-26 -15 -20 0 -17 27 4 39 23 13 39 -3 22 -24z m658 -43 c2 -15 -2 -22 -12
-22 -11 0 -16 9 -16 26 0 31 23 28 28 -4z m-720 -23 c-2 -6 -8 -10 -13 -10 -5
0 -11 4 -13 10 -2 6 4 11 13 11 9 0 15 -5 13 -11z m706 -36 c-4 -16 -11 -38
-15 -50 -6 -17 -5 -23 6 -23 11 0 13 -8 8 -32 -3 -18 -9 -35 -13 -38 -10 -8
-33 -218 -25 -230 5 -8 10 -7 18 3 15 18 57 32 57 19 0 -6 -7 -13 -16 -16 -11
-4 -15 -14 -12 -31 3 -15 0 -26 -9 -29 -28 -11 -43 -6 -43 14 0 11 -4 20 -10
20 -6 0 -10 33 -10 80 0 47 4 80 10 80 6 0 10 20 10 44 0 25 5 48 10 51 6 3
10 19 10 35 0 16 -4 32 -10 35 -5 3 -10 15 -10 26 0 10 5 19 10 19 6 0 10 11
10 25 0 16 6 25 15 25 12 0 14 -7 9 -27z m150 -5 c-8 -28 -12 -33 -20 -25 -9
8 6 47 17 47 6 0 7 -10 3 -22z m-951 -11 c3 -7 3 -25 0 -40 -4 -20 -11 -27
-29 -27 -25 0 -32 14 -14 25 6 4 8 11 4 16 -9 15 3 39 20 39 7 0 16 -6 19 -13z
m2338 -40 c-5 -5 -7 -23 -4 -40 5 -22 3 -28 -6 -23 -7 5 -10 14 -7 22 3 8 -1
14 -9 14 -21 0 -18 23 5 40 11 8 21 21 21 30 1 8 4 4 6 -9 3 -13 0 -28 -6 -34z
m-2531 18 c0 -8 5 -15 10 -15 6 0 10 -4 10 -10 0 -5 -7 -10 -15 -10 -8 0 -15
4 -15 9 0 5 -3 16 -6 25 -3 9 -1 16 5 16 6 0 11 -7 11 -15z m754 -54 c8 -12
-17 -61 -31 -61 -26 0 -7 68 19 70 4 0 9 -4 12 -9z m1772 -88 c-10 -10 -19 5
-10 18 6 11 8 11 12 0 2 -7 1 -15 -2 -18z m-1450 -20 c-10 -10 -19 5 -10 18 6
11 8 11 12 0 2 -7 1 -15 -2 -18z m1435 7 c-1 -29 -15 -91 -21 -95 -12 -7 -21
38 -10 49 6 6 10 21 10 34 0 13 5 22 11 20 6 -2 10 -6 10 -8z m-1651 -36 c0
-8 -4 -14 -10 -14 -5 0 -10 -7 -10 -15 0 -8 -7 -15 -15 -15 -20 0 -19 29 1 51
18 20 34 17 34 -7z m190 -44 c0 -5 -4 -10 -10 -10 -5 0 -10 5 -10 10 0 6 5 10
10 10 6 0 10 -4 10 -10z m1442 -62 c-7 -7 -12 -27 -12 -45 0 -18 -4 -33 -10
-33 -27 0 -3 89 25 90 5 0 4 -5 -3 -12z m-2380 -78 c16 -15 18 -20 7 -20 -16
0 -39 19 -39 32 0 13 9 9 32 -12z m518 0 c0 -11 -4 -20 -10 -20 -5 0 -10 9
-10 20 0 11 5 20 10 20 6 0 10 -9 10 -20z m1830 -37 c0 -45 -13 -63 -50 -73
-31 -8 -37 -14 -33 -33 3 -17 -5 -28 -34 -47 -51 -33 -53 -34 -53 -17 0 9 6
18 13 20 9 4 9 8 -2 15 -9 6 -11 17 -7 28 7 18 8 18 20 2 7 -10 22 -18 32 -17
11 0 13 3 7 6 -7 2 -13 15 -13 29 0 20 6 25 40 30 22 4 40 10 40 15 0 5 6 9
14 9 9 0 12 8 8 25 -2 15 0 25 7 25 6 0 11 -8 11 -17z m-2300 -62 c0 -6 -4
-13 -10 -16 -5 -3 -10 1 -10 9 0 9 5 16 10 16 6 0 10 -4 10 -9z m780 -21 c0
-11 -4 -20 -10 -20 -5 0 -10 9 -10 20 0 11 5 20 10 20 6 0 10 -9 10 -20z
m-744 -55 c4 -8 12 -15 20 -15 8 0 14 -4 14 -10 0 -16 -18 -12 -40 10 -22 22
-25 30 -10 30 6 0 13 -7 16 -15z m2034 5 c0 -5 -4 -10 -8 -10 -4 0 -8 -12 -7
-27 0 -45 -29 -36 -33 10 -3 34 -1 37 22 37 14 0 26 -4 26 -10z m50 -30 c0 -5
-5 -10 -10 -10 -6 0 -15 -10 -20 -22 -8 -21 -9 -20 -9 10 -1 26 3 32 19 32 11
0 20 -4 20 -10z m-2040 -34 c0 -3 -4 -8 -10 -11 -5 -3 -10 -1 -10 4 0 6 5 11
10 11 6 0 10 -2 10 -4z m148 -20 c3 -13 -1 -17 -14 -14 -11 2 -20 11 -22 22
-3 13 1 17 14 14 11 -2 20 -11 22 -22z m-128 -46 c0 -5 -4 -10 -10 -10 -5 0
-10 5 -10 10 0 6 5 10 10 10 6 0 10 -4 10 -10z m50 -45 c0 -19 -21 -19 -46 0
-18 14 -17 14 14 15 22 0 32 -5 32 -15z m33 -46 c10 -11 16 -23 13 -27 -5 -4
-46 35 -46 45 0 10 18 0 33 -18z m1921 -64 c-9 -14 -26 -25 -38 -25 -20 0 -19
1 7 24 27 23 36 46 17 46 -5 0 -10 10 -10 23 0 19 2 18 20 -11 19 -30 19 -34
4 -57z m-1550 -51 c23 -9 20 -27 -18 -107 -32 -67 -82 -209 -155 -439 -17 -55
-31 -120 -31 -147 0 -28 -4 -52 -9 -55 -5 -3 -20 4 -35 15 -33 26 -34 74 -6
174 11 38 20 73 20 76 0 6 -98 -12 -171 -31 -34 -9 -37 -14 -58 -82 -34 -115
-48 -205 -33 -228 28 -45 8 -52 -37 -14 -29 24 -31 31 -30 87 0 34 8 92 18
130 9 37 15 67 13 67 -3 0 -29 -14 -58 -31 -56 -31 -89 -35 -89 -9 0 9 35 32
84 57 l84 42 53 145 c87 242 139 340 177 334 34 -5 45 -34 24 -65 -40 -62 -82
-154 -124 -267 -24 -65 -42 -120 -40 -122 1 -2 32 3 67 11 36 7 82 16 102 20
36 6 37 6 69 102 18 54 49 139 70 189 24 61 32 91 23 87 -24 -9 -16 17 14 42
27 25 48 30 76 19z m480 -20 c22 -9 20 -31 -9 -80 -26 -44 -86 -178 -111 -248
l-14 -39 22 19 c12 10 72 65 132 122 61 56 117 101 125 100 8 -2 19 -11 25
-21 9 -15 1 -28 -59 -85 -86 -82 -253 -234 -269 -245 -6 -4 44 -6 111 -5 128
2 153 -5 153 -43 0 -20 -24 -26 -35 -9 -6 10 -23 9 -202 -6 l-61 -5 -12 -50
c-12 -48 -10 -89 5 -136 11 -33 -15 -30 -49 6 -35 36 -43 90 -26 174 16 80 64
212 91 245 11 15 16 28 10 30 -5 2 -7 10 -4 18 3 7 9 12 13 9 4 -3 11 2 14 11
3 8 2 12 -4 9 -17 -11 -11 14 8 33 10 10 16 24 14 30 -2 7 1 12 7 12 6 0 11 9
11 20 0 11 14 47 30 80 30 60 45 69 84 54z m395 -3 c12 -8 5 -30 -41 -128 -61
-127 -101 -223 -95 -229 2 -2 60 51 130 117 127 120 148 133 171 97 12 -20
-15 -53 -129 -151 -38 -33 -101 -89 -138 -124 l-68 -64 122 2 c109 2 123 1
135 -16 18 -24 12 -41 -12 -36 -25 5 -135 3 -211 -5 l-63 -6 -11 -41 c-11 -42
-8 -116 6 -149 11 -28 -22 -22 -50 8 -34 37 -45 82 -33 140 5 27 11 60 12 74
1 14 8 36 14 50 6 14 21 53 33 88 12 35 25 58 29 52 3 -6 11 5 17 25 8 24 8
33 1 29 -6 -4 -8 -1 -6 7 3 8 11 13 18 11 8 -2 9 5 5 19 -5 13 -3 19 3 15 6
-4 8 2 5 14 -3 11 -1 20 5 20 9 0 25 37 23 53 -1 9 47 106 61 125 12 14 47 16
67 3z m935 -207 c25 -9 19 -46 -20 -134 -19 -45 -33 -84 -30 -88 3 -3 6 0 6 6
0 16 119 190 137 200 26 15 62 -9 69 -47 4 -19 2 -89 -5 -155 -15 -165 -15
-206 4 -206 17 0 21 -35 5 -45 -16 -10 -49 13 -66 47 -13 26 -15 51 -10 147 4
64 9 130 12 146 5 29 4 29 -11 10 -32 -38 -129 -210 -156 -275 -15 -36 -33
-65 -38 -64 -6 1 -15 2 -21 3 -20 3 -52 84 -47 120 7 52 95 286 119 316 21 26
27 29 52 19z m-474 -34 c12 -12 18 -25 14 -31 -8 -14 -59 -237 -74 -326 -6
-40 -9 -81 -5 -92 14 -44 -46 -37 -70 9 -15 28 -11 91 11 205 4 21 -13 0 -55
-66 -34 -54 -68 -100 -77 -103 -22 -8 -67 18 -83 48 -13 23 -12 37 8 113 25
102 74 213 93 213 60 -1 71 -26 39 -88 -22 -45 -65 -172 -59 -177 2 -3 51 67
109 155 57 88 110 160 117 160 6 0 21 -9 32 -20z m330 0 c12 -12 18 -25 14
-31 -8 -14 -59 -237 -74 -326 -6 -40 -9 -81 -5 -92 14 -44 -46 -37 -70 9 -15
28 -11 91 11 205 4 21 -13 0 -55 -66 -34 -54 -68 -100 -77 -103 -22 -8 -67 18
-83 48 -13 23 -12 37 8 113 25 102 74 213 93 213 60 -1 71 -26 39 -88 -22 -45
-65 -172 -59 -177 2 -3 51 67 109 155 57 88 110 160 117 160 6 0 21 -9 32 -20z
m-1526 -7 c4 -4 22 -6 40 -5 52 5 64 -19 37 -72 -27 -55 -59 -178 -67 -262 -7
-70 -24 -83 -59 -44 -17 19 -18 27 -7 105 7 47 15 93 18 102 8 22 -102 -131
-123 -172 -36 -70 -64 -81 -103 -40 -19 20 -22 31 -16 67 10 65 91 220 145
278 41 44 52 50 87 50 23 0 44 -3 48 -7z"/>
<path d="M23984 11598 c-4 -13 -15 -30 -24 -38 -20 -17 -38 -100 -22 -100 12
0 22 24 22 51 0 10 5 19 10 19 6 0 10 5 10 11 0 15 26 39 43 39 12 0 27 20 27
36 0 2 -13 4 -29 4 -22 0 -32 -6 -37 -22z"/>
<path d="M24890 11030 c0 -5 -13 -10 -30 -10 -16 0 -30 -4 -30 -9 0 -5 -9 -11
-20 -14 -11 -3 -20 -10 -20 -17 0 -12 40 -4 50 10 3 4 26 10 51 14 41 6 47 5
52 -14 3 -11 10 -20 17 -20 14 0 4 38 -16 57 -15 15 -54 17 -54 3z"/>
<path d="M24755 10970 c-11 -4 -27 -17 -36 -28 -9 -11 -22 -21 -29 -24 -15 -5
-16 -91 0 -96 6 -2 17 -10 24 -18 8 -8 19 -14 25 -14 6 0 11 -4 11 -8 0 -5 25
-10 55 -11 33 -1 55 2 55 8 0 6 10 11 22 11 12 0 18 3 15 7 -4 3 -44 8 -89 10
-49 2 -85 9 -90 16 -4 7 -8 28 -8 47 0 35 0 35 46 37 41 1 45 -1 44 -20 -4
-41 -1 -53 9 -39 12 20 0 65 -21 80 -12 9 -17 20 -13 33 4 10 5 19 3 18 -2 0
-12 -4 -23 -9z"/>
<path d="M24947 10933 c-10 -9 -8 -33 2 -33 5 0 11 9 14 20 5 20 -3 26 -16 13z"/>
<path d="M24906 10848 c-18 -35 -16 -41 7 -33 16 7 29 52 16 60 -4 3 -15 -9
-23 -27z"/>
<path d="M24460 10800 c0 -25 -4 -30 -24 -30 -14 0 -31 7 -40 15 -8 8 -17 15
-20 15 -3 0 -6 -7 -6 -15 0 -8 5 -15 10 -15 15 0 12 -21 -5 -34 -14 -10 -11
-16 19 -46 20 -19 36 -43 36 -52 0 -10 7 -18 15 -18 8 0 15 -7 15 -15 0 -8 -4
-15 -9 -15 -5 0 -14 -13 -20 -30 -5 -16 -14 -30 -20 -30 -5 0 -12 -13 -16 -30
-4 -16 -10 -30 -15 -30 -4 0 -11 -20 -14 -45 -4 -25 -11 -45 -17 -45 -5 0 -9
-6 -9 -14 0 -8 -8 -21 -18 -28 -11 -8 -21 -31 -25 -58 -3 -24 -11 -46 -16 -48
-6 -2 -11 -15 -11 -28 0 -13 -4 -24 -10 -24 -5 0 -10 -9 -10 -19 0 -11 -5 -32
-12 -48 -6 -15 -13 -37 -15 -48 -2 -11 -8 -21 -13 -23 -6 -2 -10 -15 -10 -28
0 -13 -4 -24 -9 -24 -4 0 -11 -27 -15 -60 -4 -33 -11 -60 -16 -60 -6 0 -10 -7
-10 -15 0 -8 3 -15 8 -15 17 0 34 46 34 92 -1 34 4 51 14 55 8 3 14 16 14 29
0 15 6 24 15 24 9 0 15 -9 15 -25 0 -14 -3 -25 -8 -25 -4 0 -6 -17 -4 -39 2
-21 -1 -42 -7 -45 -7 -5 -11 -57 -11 -148 0 -155 -5 -167 -62 -168 -16 0 -28
-4 -28 -10 0 -5 4 -10 9 -10 5 0 11 -8 15 -17 3 -10 9 -24 12 -30 4 -9 -3 -13
-19 -13 -14 0 -27 -4 -29 -9 -8 -21 -47 -21 -67 0 -16 17 -27 20 -55 15 -27
-5 -37 -3 -44 10 -8 14 -23 17 -76 16 -51 0 -66 3 -66 14 0 8 6 14 13 14 8 0
7 4 -3 10 -18 12 -21 12 -39 1 -10 -7 -10 -12 5 -30 14 -15 30 -21 61 -21 37
0 43 -3 43 -21 0 -17 4 -20 24 -15 15 4 30 1 38 -8 8 -7 25 -17 38 -21 14 -4
33 -16 43 -26 26 -27 87 -23 87 6 0 7 7 15 15 19 8 3 15 12 15 21 0 8 9 15 19
15 20 0 31 18 31 51 0 10 5 19 10 19 6 0 10 7 10 15 0 16 8 27 42 66 10 10 21
44 24 74 4 30 10 55 15 55 4 0 11 30 15 68 3 37 11 70 16 73 4 3 11 36 15 73
4 43 11 70 20 73 7 3 16 23 19 44 4 21 11 39 16 39 5 0 7 4 4 8 -3 5 2 21 10
36 7 16 14 39 14 52 0 13 4 24 9 24 5 0 12 27 16 60 4 33 11 63 16 66 5 3 9
21 9 40 0 19 4 34 9 34 5 0 11 41 13 92 3 58 9 93 16 96 7 2 12 10 12 18 0 8
5 14 10 14 6 0 10 9 10 20 0 11 -4 20 -10 20 -5 0 -10 -4 -10 -10 0 -15 -19
-12 -36 4 -8 9 -14 34 -14 60 0 25 -4 46 -10 46 -5 0 -10 -13 -10 -30z m-20
-95 c0 -8 -7 -15 -15 -15 -8 0 -15 7 -15 15 0 8 7 15 15 15 8 0 15 -7 15 -15z
m0 -255 c0 -25 -4 -30 -25 -30 -16 0 -25 6 -25 15 0 8 5 15 10 15 6 0 10 7 10
15 0 8 7 15 15 15 10 0 15 -10 15 -30z m-170 -375 c0 -8 -7 -15 -15 -15 -8 0
-15 7 -15 15 0 8 7 15 15 15 8 0 15 -7 15 -15z"/>
<path d="M23986 10333 c-11 -27 4 -121 20 -127 11 -4 14 10 14 69 0 57 -3 75
-14 75 -8 0 -17 -8 -20 -17z"/>
<path d="M24030 10200 c-9 -27 -6 -47 8 -62 35 -35 42 -48 42 -73 0 -14 3 -24
8 -22 6 4 7 22 3 85 -1 6 -10 12 -21 12 -13 0 -22 10 -29 33 -5 17 -10 30 -11
27z"/>
<path d="M24587 10094 c-15 -16 -6 -42 17 -48 15 -4 26 -15 28 -28 2 -12 9
-23 17 -26 20 -7 3 38 -24 64 -12 11 -24 26 -26 33 -3 7 -8 9 -12 5z"/>
<path d="M23665 9980 c3 -5 8 -10 11 -10 2 0 4 5 4 10 0 6 -5 10 -11 10 -5 0
-7 -4 -4 -10z"/>
<path d="M24637 9973 c-12 -11 -8 -68 6 -87 12 -16 13 -13 13 21 0 21 4 46 8
56 6 12 4 17 -6 17 -8 0 -18 -3 -21 -7z"/>
<path d="M23696 9893 c4 -27 11 -49 15 -51 5 -2 9 -12 9 -23 0 -10 5 -19 10
-19 6 0 10 -13 10 -30 0 -16 4 -30 9 -30 5 0 12 -11 15 -25 6 -25 46 -37 46
-14 0 6 -7 9 -15 5 -11 -4 -15 1 -15 19 0 14 -4 25 -10 25 -5 0 -10 11 -10 25
0 14 -4 25 -9 25 -5 0 -12 23 -16 50 -4 28 -11 47 -16 44 -5 -3 -9 6 -9 20 0
14 -5 26 -11 26 -7 0 -8 -16 -3 -47z"/>
<path d="M23832 9684 c-12 -13 -11 -18 5 -32 11 -9 22 -25 26 -34 3 -10 11
-18 16 -18 13 0 3 29 -17 52 -8 10 -12 24 -9 33 8 19 -4 19 -21 -1z"/>
<path d="M23920 9629 c0 -17 31 -22 45 -8 12 12 10 14 -15 16 -17 1 -30 -2
-30 -8z"/>
<path d="M23880 9571 c0 -5 9 -7 20 -4 11 3 20 7 20 9 0 2 -9 4 -20 4 -11 0
-20 -4 -20 -9z"/>
<path d="M22862 9210 c0 -14 2 -19 5 -12 2 6 2 18 0 25 -3 6 -5 1 -5 -13z"/>
<path d="M23624 8848 l-19 -23 23 19 c21 18 27 26 19 26 -2 0 -12 -10 -23 -22z"/>
<path d="M24400 8795 c-7 -9 -11 -17 -9 -20 3 -2 10 5 17 15 14 24 10 26 -8 5z"/>
<path d="M24351 8724 c-16 -37 -9 -39 11 -3 9 16 14 29 9 29 -4 0 -13 -12 -20
-26z"/>
<path d="M24730 8795 c-7 -9 -11 -17 -9 -20 3 -2 10 5 17 15 14 24 10 26 -8 5z"/>
<path d="M24681 8724 c-16 -37 -9 -39 11 -3 9 16 14 29 9 29 -4 0 -13 -12 -20
-26z"/>
<path d="M23239 8811 c-40 -52 -129 -208 -112 -198 19 12 163 209 163 223 0
28 -16 20 -51 -25z"/>
</g>
</svg>
