%TF.GenerationSoftware,Flux,Pcbnew,7.0.11-7.0.11~ubuntu20.04.1*%
%TF.CreationDate,2024-08-16T13:12:05+00:00*%
%TF.ProjectId,input,696e7075-742e-46b6-9963-61645f706362,rev?*%
%TF.SameCoordinates,Original*%
%TF.FileFunction,Copper,L1,Top*%
%TF.FilePolarity,Positive*%
%FSLAX46Y46*%
G04 Gerber Fmt 4.6, Leading zero omitted, Abs format (unit mm)*
G04 Filename: betterflipperzero*
G04 Build it with Flux! Visit our site at: https://www.flux.ai (PCBNEW 7.0.11-7.0.11~ubuntu20.04.1) date 2024-08-16 13:12:05*
%MOMM*%
%LPD*%
G01*
G04 APERTURE LIST*
G04 Aperture macros list*
%AMHorizOval*
0 Thick line with rounded ends*
0 $1 width*
0 $2 $3 position (X,Y) of the first rounded end (center of the circle)*
0 $4 $5 position (X,Y) of the second rounded end (center of the circle)*
0 Add line between two ends*
20,1,$1,$2,$3,$4,$5,0*
0 Add two circle primitives to create the rounded ends*
1,1,$1,$2,$3*
1,1,$1,$4,$5*%
%AMFreePoly0*
4,1,101,0.383457,0.474848,0.388093,0.474391,0.392690,0.473632,0.397228,0.472574,0.401686,0.471221,0.406047,0.469580,0.410291,0.467657,0.414400,0.465461,0.418357,0.463001,0.422144,0.460287,0.425745,0.457331,0.429146,0.454146,0.432331,0.450745,0.435287,0.447144,0.438001,0.443357,0.440461,0.439400,0.442657,0.435291,0.444580,0.431047,0.446221,0.426686,0.447574,0.422228,
0.448632,0.417690,0.449391,0.413093,0.449848,0.408457,0.450000,0.403800,0.450000,-0.403800,0.449848,-0.408457,0.449391,-0.413093,0.448632,-0.417690,0.447574,-0.422228,0.446221,-0.426686,0.444580,-0.431047,0.442657,-0.435291,0.440461,-0.439400,0.438001,-0.443357,0.435287,-0.447144,0.432331,-0.450745,0.429146,-0.454146,0.425745,-0.457331,0.422144,-0.460287,0.418357,-0.463001,
0.414400,-0.465461,0.410291,-0.467657,0.406047,-0.469580,0.401686,-0.471221,0.397228,-0.472574,0.392690,-0.473632,0.388093,-0.474391,0.383457,-0.474848,0.378800,-0.475000,-0.378800,-0.475000,-0.383457,-0.474848,-0.388093,-0.474391,-0.392690,-0.473632,-0.397228,-0.472574,-0.401686,-0.471221,-0.406047,-0.469580,-0.410291,-0.467657,-0.414400,-0.465461,-0.418357,-0.463001,-0.422144,-0.460287,
-0.425745,-0.457331,-0.429146,-0.454146,-0.432331,-0.450745,-0.435287,-0.447144,-0.438001,-0.443357,-0.440461,-0.439400,-0.442657,-0.435291,-0.444580,-0.431047,-0.446221,-0.426686,-0.447574,-0.422228,-0.448632,-0.417690,-0.449391,-0.413093,-0.449848,-0.408457,-0.450000,-0.403800,-0.450000,0.403800,-0.449848,0.408457,-0.449391,0.413093,-0.448632,0.417690,-0.447574,0.422228,-0.446221,0.426686,
-0.444580,0.431047,-0.442657,0.435291,-0.440461,0.439400,-0.438001,0.443357,-0.435287,0.447144,-0.432331,0.450745,-0.429146,0.454146,-0.425745,0.457331,-0.422144,0.460287,-0.418357,0.463001,-0.414400,0.465461,-0.410291,0.467657,-0.406047,0.469580,-0.401686,0.471221,-0.397228,0.472574,-0.392690,0.473632,-0.388093,0.474391,-0.383457,0.474848,-0.378800,0.475000,0.378800,0.475000,
0.383457,0.474848,0.383457,0.474848,$1*%
%AMFreePoly1*
4,1,69,0.253264,0.319589,0.256364,0.319078,0.262429,0.317453,0.268230,0.315050,0.271000,0.313569,0.276221,0.310081,0.278649,0.308088,0.280941,0.305941,0.283088,0.303649,0.285081,0.301221,0.288569,0.296000,0.290050,0.293230,0.292453,0.287429,0.294078,0.281364,0.294589,0.278265,0.295000,0.272000,0.295000,-0.272000,0.294589,-0.278265,0.294078,-0.281364,0.292453,-0.287429,
0.290050,-0.293230,0.288569,-0.296000,0.285081,-0.301221,0.283088,-0.303649,0.280941,-0.305941,0.278649,-0.308088,0.276221,-0.310081,0.271000,-0.313569,0.268230,-0.315050,0.262429,-0.317453,0.256364,-0.319078,0.253265,-0.319589,0.247000,-0.320000,-0.247000,-0.320000,-0.253264,-0.319589,-0.256364,-0.319078,-0.262429,-0.317453,-0.268230,-0.315050,-0.271000,-0.313569,-0.276221,-0.310081,
-0.278649,-0.308088,-0.280941,-0.305941,-0.283088,-0.303649,-0.285081,-0.301221,-0.288569,-0.296000,-0.290050,-0.293230,-0.292453,-0.287429,-0.294078,-0.281364,-0.294589,-0.278265,-0.295000,-0.272000,-0.295000,0.272000,-0.294589,0.278265,-0.294078,0.281364,-0.292453,0.287429,-0.290050,0.293230,-0.288569,0.296000,-0.285081,0.301221,-0.283088,0.303649,-0.280941,0.305941,-0.278649,0.308088,
-0.276221,0.310081,-0.271000,0.313569,-0.268230,0.315050,-0.262429,0.317453,-0.256364,0.319078,-0.253265,0.319589,-0.247000,0.320000,0.247000,0.320000,0.253264,0.319589,0.253264,0.319589,$1*%
%AMFreePoly2*
4,1,101,0.333457,0.474848,0.338093,0.474391,0.342690,0.473632,0.347228,0.472574,0.351686,0.471221,0.356047,0.469580,0.360291,0.467657,0.364400,0.465461,0.368357,0.463001,0.372144,0.460287,0.375745,0.457331,0.379146,0.454146,0.382331,0.450745,0.385287,0.447144,0.388001,0.443357,0.390461,0.439400,0.392657,0.435291,0.394580,0.431047,0.396221,0.426686,0.397574,0.422228,
0.398632,0.417690,0.399391,0.413093,0.399848,0.408457,0.400000,0.403800,0.400000,-0.403800,0.399848,-0.408457,0.399391,-0.413093,0.398632,-0.417690,0.397574,-0.422228,0.396221,-0.426686,0.394580,-0.431047,0.392657,-0.435291,0.390461,-0.439400,0.388001,-0.443357,0.385287,-0.447144,0.382331,-0.450745,0.379146,-0.454146,0.375745,-0.457331,0.372144,-0.460287,0.368357,-0.463001,
0.364400,-0.465461,0.360291,-0.467657,0.356047,-0.469580,0.351686,-0.471221,0.347228,-0.472574,0.342690,-0.473632,0.338093,-0.474391,0.333457,-0.474848,0.328800,-0.475000,-0.328800,-0.475000,-0.333457,-0.474848,-0.338093,-0.474391,-0.342690,-0.473632,-0.347228,-0.472574,-0.351686,-0.471221,-0.356047,-0.469580,-0.360291,-0.467657,-0.364400,-0.465461,-0.368357,-0.463001,-0.372144,-0.460287,
-0.375745,-0.457331,-0.379146,-0.454146,-0.382331,-0.450745,-0.385287,-0.447144,-0.388001,-0.443357,-0.390461,-0.439400,-0.392657,-0.435291,-0.394580,-0.431047,-0.396221,-0.426686,-0.397574,-0.422228,-0.398632,-0.417690,-0.399391,-0.413093,-0.399848,-0.408457,-0.400000,-0.403800,-0.400000,0.403800,-0.399848,0.408457,-0.399391,0.413093,-0.398632,0.417690,-0.397574,0.422228,-0.396221,0.426686,
-0.394580,0.431047,-0.392657,0.435291,-0.390461,0.439400,-0.388001,0.443357,-0.385287,0.447144,-0.382331,0.450745,-0.379146,0.454146,-0.375745,0.457331,-0.372144,0.460287,-0.368357,0.463001,-0.364400,0.465461,-0.360291,0.467657,-0.356047,0.469580,-0.351686,0.471221,-0.347228,0.472574,-0.342690,0.473632,-0.338093,0.474391,-0.333457,0.474848,-0.328800,0.475000,0.328800,0.475000,
0.333457,0.474848,0.333457,0.474848,$1*%
%AMFreePoly3*
4,1,101,0.048901,0.504638,0.053831,0.504152,0.058718,0.503345,0.063543,0.502221,0.068282,0.500783,0.072919,0.499038,0.077431,0.496993,0.081800,0.494658,0.086007,0.492042,0.090033,0.489157,0.093862,0.486014,0.097478,0.482628,0.100864,0.479012,0.104007,0.475183,0.106892,0.471157,0.109508,0.466950,0.111843,0.462581,0.113888,0.458069,0.115632,0.453433,0.117071,0.448693,
0.118195,0.443869,0.119003,0.438981,0.119488,0.434051,0.119650,0.429100,0.119650,-0.429100,0.119488,-0.434051,0.119003,-0.438981,0.118195,-0.443869,0.117071,-0.448693,0.115632,-0.453433,0.113888,-0.458069,0.111843,-0.462581,0.109508,-0.466950,0.106892,-0.471157,0.104007,-0.475183,0.100864,-0.479012,0.097478,-0.482628,0.093862,-0.486014,0.090033,-0.489157,0.086007,-0.492042,
0.081800,-0.494658,0.077431,-0.496993,0.072919,-0.499038,0.068282,-0.500783,0.063543,-0.502221,0.058718,-0.503345,0.053831,-0.504152,0.048901,-0.504638,0.043950,-0.504800,-0.043950,-0.504800,-0.048901,-0.504638,-0.053831,-0.504152,-0.058718,-0.503345,-0.063543,-0.502221,-0.068282,-0.500783,-0.072919,-0.499038,-0.077431,-0.496993,-0.081800,-0.494658,-0.086007,-0.492042,-0.090033,-0.489157,
-0.093862,-0.486014,-0.097478,-0.482628,-0.100864,-0.479012,-0.104007,-0.475183,-0.106892,-0.471157,-0.109508,-0.466950,-0.111843,-0.462581,-0.113888,-0.458069,-0.115632,-0.453433,-0.117071,-0.448693,-0.118195,-0.443869,-0.119003,-0.438981,-0.119488,-0.434051,-0.119650,-0.429100,-0.119650,0.429100,-0.119488,0.434051,-0.119003,0.438981,-0.118195,0.443869,-0.117071,0.448693,-0.115632,0.453433,
-0.113888,0.458069,-0.111843,0.462581,-0.109508,0.466950,-0.106892,0.471157,-0.104007,0.475183,-0.100864,0.479012,-0.097478,0.482628,-0.093862,0.486014,-0.090033,0.489157,-0.086007,0.492042,-0.081800,0.494658,-0.077431,0.496993,-0.072919,0.499038,-0.068282,0.500783,-0.063543,0.502221,-0.058718,0.503345,-0.053831,0.504152,-0.048901,0.504638,-0.043950,0.504800,0.043950,0.504800,
0.048901,0.504638,0.048901,0.504638,$1*%
%AMFreePoly4*
4,1,101,0.434051,0.119488,0.438981,0.119003,0.443869,0.118195,0.448693,0.117071,0.453433,0.115632,0.458069,0.113888,0.462581,0.111843,0.466950,0.109508,0.471157,0.106892,0.475183,0.104007,0.479012,0.100864,0.482628,0.097478,0.486014,0.093862,0.489157,0.090033,0.492042,0.086007,0.494658,0.081800,0.496993,0.077431,0.499038,0.072919,0.500783,0.068282,0.502221,0.063543,
0.503345,0.058718,0.504152,0.053831,0.504638,0.048901,0.504800,0.043950,0.504800,-0.043950,0.504638,-0.048901,0.504152,-0.053831,0.503345,-0.058718,0.502221,-0.063543,0.500783,-0.068282,0.499038,-0.072919,0.496993,-0.077431,0.494658,-0.081800,0.492042,-0.086007,0.489157,-0.090033,0.486014,-0.093862,0.482628,-0.097478,0.479012,-0.100864,0.475183,-0.104007,0.471157,-0.106892,
0.466950,-0.109508,0.462581,-0.111843,0.458069,-0.113888,0.453433,-0.115632,0.448693,-0.117071,0.443869,-0.118195,0.438981,-0.119003,0.434051,-0.119488,0.429100,-0.119650,-0.429100,-0.119650,-0.434051,-0.119488,-0.438981,-0.119003,-0.443869,-0.118195,-0.448693,-0.117071,-0.453433,-0.115632,-0.458069,-0.113888,-0.462581,-0.111843,-0.466950,-0.109508,-0.471157,-0.106892,-0.475183,-0.104007,
-0.479012,-0.100864,-0.482628,-0.097478,-0.486014,-0.093862,-0.489157,-0.090033,-0.492042,-0.086007,-0.494658,-0.081800,-0.496993,-0.077431,-0.499038,-0.072919,-0.500783,-0.068282,-0.502221,-0.063543,-0.503345,-0.058718,-0.504152,-0.053831,-0.504638,-0.048901,-0.504800,-0.043950,-0.504800,0.043950,-0.504638,0.048901,-0.504152,0.053831,-0.503345,0.058718,-0.502221,0.063543,-0.500783,0.068282,
-0.499038,0.072919,-0.496993,0.077431,-0.494658,0.081800,-0.492042,0.086007,-0.489157,0.090033,-0.486014,0.093862,-0.482628,0.097478,-0.479012,0.100864,-0.475183,0.104007,-0.471157,0.106892,-0.466950,0.109508,-0.462581,0.111843,-0.458069,0.113888,-0.453433,0.115632,-0.448693,0.117071,-0.443869,0.118195,-0.438981,0.119003,-0.434051,0.119488,-0.429100,0.119650,0.429100,0.119650,
0.434051,0.119488,0.434051,0.119488,$1*%
%AMFreePoly5*
4,1,5,0.504800,-0.119650,-0.504800,-0.119650,-0.504800,0.119650,0.504800,0.119650,0.504800,-0.119650,0.504800,-0.119650,$1*%
%AMFreePoly6*
4,1,5,1.625000,-1.625000,-1.625000,-1.625000,-1.625000,1.625000,1.625000,1.625000,1.625000,-1.625000,1.625000,-1.625000,$1*%
%AMFreePoly7*
4,1,5,0.450000,-0.600000,-0.450000,-0.600000,-0.450000,0.600000,0.450000,0.600000,0.450000,-0.600000,0.450000,-0.600000,$1*%
%AMFreePoly8*
4,1,101,0.391820,0.949695,0.401100,0.948781,0.410300,0.947262,0.419382,0.945144,0.428305,0.942438,0.437032,0.939153,0.445526,0.935304,0.453750,0.930909,0.461669,0.925984,0.469249,0.920553,0.476457,0.914637,0.483263,0.908263,0.489637,0.901457,0.495553,0.894249,0.500984,0.886669,0.505909,0.878750,0.510304,0.870526,0.514153,0.862032,0.517438,0.853305,0.520144,0.844382,
0.522262,0.835300,0.523781,0.826100,0.524695,0.816820,0.525000,0.807500,0.525000,-0.807500,0.524695,-0.816820,0.523781,-0.826100,0.522262,-0.835300,0.520144,-0.844382,0.517438,-0.853305,0.514153,-0.862032,0.510304,-0.870526,0.505909,-0.878750,0.500984,-0.886669,0.495553,-0.894249,0.489637,-0.901457,0.483263,-0.908263,0.476457,-0.914637,0.469249,-0.920553,0.461669,-0.925984,
0.453750,-0.930909,0.445526,-0.935304,0.437032,-0.939153,0.428305,-0.942438,0.419382,-0.945144,0.410300,-0.947262,0.401100,-0.948781,0.391820,-0.949695,0.382500,-0.950000,-0.382500,-0.950000,-0.391820,-0.949695,-0.401100,-0.948781,-0.410300,-0.947262,-0.419382,-0.945144,-0.428305,-0.942438,-0.437032,-0.939153,-0.445526,-0.935304,-0.453750,-0.930909,-0.461669,-0.925984,-0.469249,-0.920553,
-0.476457,-0.914637,-0.483263,-0.908263,-0.489637,-0.901457,-0.495553,-0.894249,-0.500984,-0.886669,-0.505909,-0.878750,-0.510304,-0.870526,-0.514153,-0.862032,-0.517438,-0.853305,-0.520144,-0.844382,-0.522262,-0.835300,-0.523781,-0.826100,-0.524695,-0.816820,-0.525000,-0.807500,-0.525000,0.807500,-0.524695,0.816820,-0.523781,0.826100,-0.522262,0.835300,-0.520144,0.844382,-0.517438,0.853305,
-0.514153,0.862032,-0.510304,0.870526,-0.505909,0.878750,-0.500984,0.886669,-0.495553,0.894249,-0.489637,0.901457,-0.483263,0.908263,-0.476457,0.914637,-0.469249,0.920553,-0.461669,0.925984,-0.453750,0.930909,-0.445526,0.935304,-0.437032,0.939153,-0.428305,0.942438,-0.419382,0.945144,-0.410300,0.947262,-0.401100,0.948781,-0.391820,0.949695,-0.382500,0.950000,0.382500,0.950000,
0.391820,0.949695,0.391820,0.949695,$1*%
%AMFreePoly9*
4,1,5,0.250000,-0.125000,-0.250000,-0.125000,-0.250000,0.125000,0.250000,0.125000,0.250000,-0.125000,0.250000,-0.125000,$1*%
%AMFreePoly10*
4,1,5,0.450000,-0.800000,-0.450000,-0.800000,-0.450000,0.800000,0.450000,0.800000,0.450000,-0.800000,0.450000,-0.800000,$1*%
%AMFreePoly11*
4,1,5,0.375000,-0.325000,-0.375000,-0.325000,-0.375000,0.325000,0.375000,0.325000,0.375000,-0.325000,0.375000,-0.325000,$1*%
%AMFreePoly12*
4,1,5,0.300000,-0.724999,-0.300001,-0.725000,-0.300000,0.724999,0.300001,0.725000,0.300000,-0.724999,0.300000,-0.724999,$1*%
%AMFreePoly13*
4,1,5,0.150000,-0.725000,-0.150000,-0.725000,-0.150000,0.725000,0.150000,0.725000,0.150000,-0.725000,0.150000,-0.725000,$1*%
%AMFreePoly14*
4,1,5,0.500000,-0.350000,-0.500000,-0.350000,-0.500000,0.350000,0.500000,0.350000,0.500000,-0.350000,0.500000,-0.350000,$1*%
%AMFreePoly15*
4,1,129,0.022069,0.299187,0.036723,0.297744,0.051289,0.295583,0.065730,0.292711,0.080014,0.289133,0.094105,0.284858,0.107969,0.279898,0.121572,0.274263,0.134883,0.267967,0.147869,0.261026,0.160499,0.253456,0.172742,0.245275,0.184569,0.236504,0.195952,0.227163,0.206862,0.217274,0.217274,0.206862,0.227163,0.195952,0.236504,0.184569,0.245275,0.172742,0.253456,0.160499,
0.261026,0.147869,0.267967,0.134883,0.274263,0.121572,0.279898,0.107969,0.284858,0.094105,0.289133,0.080014,0.292711,0.065730,0.295583,0.051289,0.297744,0.036723,0.299187,0.022069,0.299910,0.007362,0.299910,-0.007362,0.299187,-0.022069,0.297744,-0.036723,0.295583,-0.051289,0.292711,-0.065730,0.289133,-0.080014,0.284858,-0.094105,0.279898,-0.107969,0.274263,-0.121572,
0.267967,-0.134883,0.261026,-0.147869,0.253456,-0.160499,0.245275,-0.172742,0.236504,-0.184569,0.227163,-0.195952,0.217274,-0.206862,0.206862,-0.217274,0.195952,-0.227163,0.184569,-0.236504,0.172742,-0.245275,0.160499,-0.253456,0.147869,-0.261026,0.134883,-0.267967,0.121572,-0.274263,0.107969,-0.279898,0.094105,-0.284858,0.080014,-0.289133,0.065730,-0.292711,0.051289,-0.295583,
0.036723,-0.297744,0.022069,-0.299187,0.007362,-0.299910,-0.007362,-0.299910,-0.022069,-0.299187,-0.036723,-0.297744,-0.051289,-0.295583,-0.065730,-0.292711,-0.080014,-0.289133,-0.094105,-0.284858,-0.107969,-0.279898,-0.121572,-0.274263,-0.134883,-0.267967,-0.147869,-0.261026,-0.160499,-0.253456,-0.172742,-0.245275,-0.184569,-0.236504,-0.195952,-0.227163,-0.206862,-0.217274,-0.217274,-0.206862,
-0.227163,-0.195952,-0.236504,-0.184569,-0.245275,-0.172742,-0.253456,-0.160499,-0.261026,-0.147869,-0.267967,-0.134883,-0.274263,-0.121572,-0.279898,-0.107969,-0.284858,-0.094105,-0.289133,-0.080014,-0.292711,-0.065730,-0.295583,-0.051289,-0.297744,-0.036723,-0.299187,-0.022069,-0.299910,-0.007362,-0.299910,0.007362,-0.299187,0.022069,-0.297744,0.036723,-0.295583,0.051289,-0.292711,0.065730,
-0.289133,0.080014,-0.284858,0.094105,-0.279898,0.107969,-0.274263,0.121572,-0.267967,0.134883,-0.261026,0.147869,-0.253456,0.160499,-0.245275,0.172742,-0.236504,0.184569,-0.227163,0.195952,-0.217274,0.206862,-0.206862,0.217274,-0.195952,0.227163,-0.184569,0.236504,-0.172742,0.245275,-0.160499,0.253456,-0.147869,0.261026,-0.134883,0.267967,-0.121572,0.274263,-0.107969,0.279898,
-0.094105,0.284858,-0.080014,0.289133,-0.065730,0.292711,-0.051289,0.295583,-0.036723,0.297744,-0.022069,0.299187,-0.007362,0.299910,0.007362,0.299910,0.022069,0.299187,0.022069,0.299187,$1*%
%AMFreePoly16*
4,1,5,0.350000,-0.762500,-0.350000,-0.762500,-0.350000,0.762500,0.350000,0.762500,0.350000,-0.762500,0.350000,-0.762500,$1*%
%AMFreePoly17*
4,1,5,1.256500,-1.701000,-1.256500,-1.701000,-1.256500,1.701000,1.256500,1.701000,1.256500,-1.701000,1.256500,-1.701000,$1*%
%AMFreePoly18*
4,1,5,0.850000,-0.850000,-0.850000,-0.850000,-0.850000,0.850000,0.850000,0.850000,0.850000,-0.850000,0.850000,-0.850000,$1*%
%AMFreePoly19*
4,1,5,0.750000,-0.450000,-0.750000,-0.450000,-0.750000,0.450000,0.750000,0.450000,0.750000,-0.450000,0.750000,-0.450000,$1*%
%AMFreePoly20*
4,1,5,0.450000,-0.449999,-0.449999,-0.450000,-0.450000,0.449999,0.449999,0.450000,0.450000,-0.449999,0.450000,-0.449999,$1*%
%AMFreePoly21*
4,1,5,0.450000,-0.750000,-0.450000,-0.750000,-0.450000,0.750000,0.450000,0.750000,0.450000,-0.750000,0.450000,-0.750000,$1*%
G04 Aperture macros list end*
%TA.AperFunction,SMDPad,CuDef*%
%ADD10FreePoly0,270.000000*%
%TD*%
%TA.AperFunction,SMDPad,CuDef*%
%ADD11FreePoly0,0.000000*%
%TD*%
%TA.AperFunction,SMDPad,CuDef*%
%ADD12FreePoly1,60.000000*%
%TD*%
%TA.AperFunction,SMDPad,CuDef*%
%ADD13FreePoly2,0.000000*%
%TD*%
%TA.AperFunction,SMDPad,CuDef*%
%ADD14FreePoly2,90.000000*%
%TD*%
%TA.AperFunction,SMDPad,CuDef*%
%ADD15FreePoly2,60.000000*%
%TD*%
%TA.AperFunction,SMDPad,CuDef*%
%ADD16FreePoly3,45.000000*%
%TD*%
%TA.AperFunction,SMDPad,CuDef*%
%ADD17FreePoly4,45.000000*%
%TD*%
%TA.AperFunction,SMDPad,CuDef*%
%ADD18FreePoly5,45.000000*%
%TD*%
%TA.AperFunction,SMDPad,CuDef*%
%ADD19FreePoly6,45.000000*%
%TD*%
%TA.AperFunction,SMDPad,CuDef*%
%ADD20FreePoly7,0.000000*%
%TD*%
%TA.AperFunction,SMDPad,CuDef*%
%ADD21FreePoly0,315.000000*%
%TD*%
%TA.AperFunction,SMDPad,CuDef*%
%ADD22FreePoly8,90.000000*%
%TD*%
%TA.AperFunction,SMDPad,CuDef*%
%ADD23FreePoly0,90.000000*%
%TD*%
%TA.AperFunction,SMDPad,CuDef*%
%ADD24FreePoly2,20.000000*%
%TD*%
%TA.AperFunction,SMDPad,CuDef*%
%ADD25FreePoly9,180.000000*%
%TD*%
%TA.AperFunction,SMDPad,CuDef*%
%ADD26FreePoly10,180.000000*%
%TD*%
%TA.AperFunction,SMDPad,CuDef*%
%ADD27FreePoly11,180.000000*%
%TD*%
%TA.AperFunction,SMDPad,CuDef*%
%ADD28FreePoly12,60.000000*%
%TD*%
%TA.AperFunction,ComponentPad*%
%ADD29HorizOval,1.050000X-0.454663X0.262500X0.454663X-0.262500X0*%
%TD*%
%TA.AperFunction,SMDPad,CuDef*%
%ADD30FreePoly13,60.000000*%
%TD*%
%TA.AperFunction,SMDPad,CuDef*%
%ADD31FreePoly14,60.000000*%
%TD*%
%TA.AperFunction,SMDPad,CuDef*%
%ADD32C,0.300000*%
%TD*%
%TA.AperFunction,ComponentPad*%
%ADD33FreePoly15,0.000000*%
%TD*%
%TA.AperFunction,SMDPad,CuDef*%
%ADD34FreePoly16,90.000000*%
%TD*%
%TA.AperFunction,SMDPad,CuDef*%
%ADD35FreePoly17,0.000000*%
%TD*%
%TA.AperFunction,ComponentPad*%
%ADD36C,1.700000*%
%TD*%
%TA.AperFunction,ComponentPad*%
%ADD37FreePoly18,0.000000*%
%TD*%
%TA.AperFunction,ComponentPad*%
%ADD38C,2.700000*%
%TD*%
%TA.AperFunction,SMDPad,CuDef*%
%ADD39FreePoly19,30.000000*%
%TD*%
%TA.AperFunction,SMDPad,CuDef*%
%ADD40FreePoly20,30.000000*%
%TD*%
%TA.AperFunction,SMDPad,CuDef*%
%ADD41FreePoly21,30.000000*%
%TD*%
%TA.AperFunction,ComponentPad*%
%ADD42C,0.400000*%
%TD*%
%TA.AperFunction,Conductor*%
%ADD43C,0.300000*%
%TD*%
%TA.AperFunction,Conductor*%
%ADD44C,0.254000*%
%TD*%
%TA.AperFunction,Conductor*%
%ADD45C,0.150000*%
%TD*%
G04 APERTURE END LIST*
D10*
%TO.P,,0010a281-9625-4b87-8630-e849da612791__a8b75a33-3cb2-8e5c-90f2-4f5d5d478f01*%
%TO.N,N/C*%
X33279499Y-19474800D03*
%TO.P,,0010a281-9625-4b87-8630-e849da612791__e7d28857-a36c-3a38-170d-dea6c395fcdc*%
X33279501Y-21024800D03*
D11*
%TO.P,,10179e13-901f-4a9e-905b-5b922606ba8b__5237503d-4662-b83a-7859-31969858b9c0*%
X-20673600Y32435100D03*
%TO.P,,10179e13-901f-4a9e-905b-5b922606ba8b__e5e04a27-c5c4-f2e6-5799-708eb3f01464*%
X-19123600Y32435100D03*
D12*
%TO.P,,1533f821-2e16-4cb4-9000-e756edf446be__19df6ce8-a846-e1b2-05db-22f2506d0f7c*%
X52396201Y-21246623D03*
%TO.P,,1533f821-2e16-4cb4-9000-e756edf446be__8f080fcc-9862-851f-ac94-a53a2efce9df*%
X52881199Y-20406577D03*
D13*
%TO.P,,18c22cae-14a1-4829-b5fd-bb9c44a5a619__880f28ef-cf41-0acc-4a98-ce0afa37b0c2*%
X29858900Y-17205000D03*
%TO.P,,18c22cae-14a1-4829-b5fd-bb9c44a5a619__dff57d78-487b-f832-db06-4405c23ce37c*%
X28208900Y-17205000D03*
D10*
%TO.P,,1949ffa0-f59a-4643-aa07-ddacf28a1cf7__a8b75a33-3cb2-8e5c-90f2-4f5d5d478f01*%
X43031399Y-19474800D03*
%TO.P,,1949ffa0-f59a-4643-aa07-ddacf28a1cf7__e7d28857-a36c-3a38-170d-dea6c395fcdc*%
X43031401Y-21024800D03*
D14*
%TO.P,,1bd70ada-1483-4ad4-8d92-41e7eff8a534__01f9f934-68ec-8f74-1ae3-e10fbfbab168*%
X50379297Y-19445700D03*
%TO.P,,1bd70ada-1483-4ad4-8d92-41e7eff8a534__c0b736e9-ddb9-3e06-7eaa-230be2d07706*%
X50379303Y-21095700D03*
D15*
%TO.P,,1e943c50-a112-4075-9a26-621878ace220__01f9f934-68ec-8f74-1ae3-e10fbfbab168*%
X52281098Y-2736528D03*
%TO.P,,1e943c50-a112-4075-9a26-621878ace220__c0b736e9-ddb9-3e06-7eaa-230be2d07706*%
X51456102Y-4165472D03*
D16*
%TO.P,,221ba14b-5e40-4b00-9377-0c91ee7b7984__0346d11a-cc3d-48da-98fe-d3ff9cb714f8*%
X-31099845Y24977572D03*
D17*
%TO.P,,221ba14b-5e40-4b00-9377-0c91ee7b7984__050a06f0-c816-4e8b-be80-2a629b78c32d*%
X-27633328Y26745345D03*
D16*
%TO.P,,221ba14b-5e40-4b00-9377-0c91ee7b7984__16414f85-d3d9-4f77-b7ad-a215146fdd89*%
X-25512002Y23632382D03*
D17*
%TO.P,,221ba14b-5e40-4b00-9377-0c91ee7b7984__179cd0d1-7bda-4b4b-aff8-f966a14fc2cb*%
X-31099842Y23278819D03*
%TO.P,,221ba14b-5e40-4b00-9377-0c91ee7b7984__2cb74242-30db-4433-b055-78c3a63b34d5*%
X-26926220Y26038240D03*
D16*
%TO.P,,221ba14b-5e40-4b00-9377-0c91ee7b7984__3712a657-4be2-481f-a490-5408d6131b9c*%
X-26572660Y22571720D03*
D17*
%TO.P,,221ba14b-5e40-4b00-9377-0c91ee7b7984__3970662e-ffc1-452f-82ac-9b2318b5287b*%
X-29685626Y21864608D03*
D16*
%TO.P,,221ba14b-5e40-4b00-9377-0c91ee7b7984__3ac874e3-638a-4c3e-909c-709d4de6a4d3*%
X-26926213Y22218166D03*
D17*
%TO.P,,221ba14b-5e40-4b00-9377-0c91ee7b7984__470b264d-e8f1-4dc0-bd8d-ce724d799677*%
X-30746288Y22925266D03*
D16*
%TO.P,,221ba14b-5e40-4b00-9377-0c91ee7b7984__4daa85b2-e312-408d-a87d-68bc089017dc*%
X-25865555Y23278828D03*
%TO.P,,221ba14b-5e40-4b00-9377-0c91ee7b7984__54b981c8-d9cc-4933-ade3-18359107ad7a*%
X-27279766Y21864612D03*
D17*
%TO.P,,221ba14b-5e40-4b00-9377-0c91ee7b7984__551b4afa-3363-4cc1-adee-4d7649c8b485*%
X-27986882Y27098898D03*
D16*
%TO.P,,221ba14b-5e40-4b00-9377-0c91ee7b7984__55a523f7-3b3a-4e8f-a307-333f3d987582*%
X-30039187Y26038234D03*
%TO.P,,221ba14b-5e40-4b00-9377-0c91ee7b7984__6474b2d2-8c9d-48e2-a092-ec5d3cbe97af*%
X-29332081Y26745342D03*
%TO.P,,221ba14b-5e40-4b00-9377-0c91ee7b7984__6bd1bd16-e05d-4a9a-bc8a-666a4b6f8b56*%
X-27986871Y21157504D03*
D17*
%TO.P,,221ba14b-5e40-4b00-9377-0c91ee7b7984__6e4719a0-9e51-42b7-8dcd-736d3c16459b*%
X-26219112Y25331134D03*
%TO.P,,221ba14b-5e40-4b00-9377-0c91ee7b7984__781a54f2-b9b2-4621-8ae4-ea6347c452d0*%
X-26572666Y25684687D03*
D18*
%TO.P,,221ba14b-5e40-4b00-9377-0c91ee7b7984__7a9e597e-29fd-40e6-9159-f904752ddae9*%
X-31453396Y23632371D03*
D19*
%TO.P,,221ba14b-5e40-4b00-9377-0c91ee7b7984__7e1c190e-0a49-4287-89cf-ef55c60cb21a*%
X-28482700Y24128200D03*
D16*
%TO.P,,221ba14b-5e40-4b00-9377-0c91ee7b7984__8d9c3ed9-3b88-4a76-b523-8f1ab0673c4a*%
X-31453398Y24624018D03*
D17*
%TO.P,,221ba14b-5e40-4b00-9377-0c91ee7b7984__928fa228-cf5e-40a9-8d1f-e7aac9580b5c*%
X-30039180Y22218160D03*
%TO.P,,221ba14b-5e40-4b00-9377-0c91ee7b7984__92b352cd-a457-4811-b6c4-1e623509a8a6*%
X-30392734Y22571713D03*
%TO.P,,221ba14b-5e40-4b00-9377-0c91ee7b7984__957616f1-4a99-4c5d-8240-302207afc420*%
X-27279774Y26391792D03*
%TO.P,,221ba14b-5e40-4b00-9377-0c91ee7b7984__9bfc1fe4-f0e5-4473-ab41-7dad110679af*%
X-25512004Y24624029D03*
%TO.P,,221ba14b-5e40-4b00-9377-0c91ee7b7984__a0e62edd-a9ff-4c65-b796-007d3bf6c59a*%
X-28978518Y21157502D03*
D16*
%TO.P,,221ba14b-5e40-4b00-9377-0c91ee7b7984__a2a978f7-faa6-41db-b84c-21d3f67f84d0*%
X-30746292Y25331126D03*
D17*
%TO.P,,221ba14b-5e40-4b00-9377-0c91ee7b7984__a88a2445-ea13-4034-a4a1-cef04e7ae01e*%
X-29332072Y21511055D03*
D16*
%TO.P,,221ba14b-5e40-4b00-9377-0c91ee7b7984__aff2ce85-9457-477f-ab88-4a8409625aff*%
X-26219108Y22925274D03*
%TO.P,,221ba14b-5e40-4b00-9377-0c91ee7b7984__d5b12da7-367d-4a2f-ae38-3724db8ee86c*%
X-29685634Y26391788D03*
%TO.P,,221ba14b-5e40-4b00-9377-0c91ee7b7984__d678cda4-b583-41cc-a4ca-20569d6dc1f3*%
X-27633319Y21511058D03*
D17*
%TO.P,,221ba14b-5e40-4b00-9377-0c91ee7b7984__e0dc9e5b-6151-4d44-916a-7d0422ab01bb*%
X-25865558Y24977581D03*
D16*
%TO.P,,221ba14b-5e40-4b00-9377-0c91ee7b7984__f1fe2644-7efa-4e00-b901-30870e41964a*%
X-30392740Y25684680D03*
%TO.P,,221ba14b-5e40-4b00-9377-0c91ee7b7984__f8ec06ef-c86f-499f-887f-ab11b9ca347f*%
X-28978529Y27098896D03*
D12*
%TO.P,,35fffb2f-c24f-44b0-9ce7-a2cb4a14c22a__19df6ce8-a846-e1b2-05db-22f2506d0f7c*%
X53334201Y-19591623D03*
%TO.P,,35fffb2f-c24f-44b0-9ce7-a2cb4a14c22a__8f080fcc-9862-851f-ac94-a53a2efce9df*%
X53819199Y-18751577D03*
D20*
%TO.P,,394ee993-ba30-4a24-9c16-73cffc8d4028__1577f1d3-71c4-2623-0279-565a1ea081c1*%
X38564800Y-20166000D03*
%TO.P,,394ee993-ba30-4a24-9c16-73cffc8d4028__42b66c87-8084-4a5a-c8ea-cb38d5e185a6*%
X35264800Y-20166000D03*
D21*
%TO.P,,3daed40e-1bc7-4a51-b7a3-8370d6d47871__5237503d-4662-b83a-7859-31969858b9c0*%
X-20422307Y11042809D03*
%TO.P,,3daed40e-1bc7-4a51-b7a3-8370d6d47871__e5e04a27-c5c4-f2e6-5799-708eb3f01464*%
X-19326293Y9946791D03*
D11*
%TO.P,,4758f96a-9e86-4d80-986a-dadb8b7ddcc9__5237503d-4662-b83a-7859-31969858b9c0*%
X-37673400Y29560300D03*
%TO.P,,4758f96a-9e86-4d80-986a-dadb8b7ddcc9__e5e04a27-c5c4-f2e6-5799-708eb3f01464*%
X-36123400Y29560300D03*
D22*
%TO.P,,4b1d030c-23c6-4428-8a25-76829b4191b8__31c6f0d0-50f6-960d-170d-c511f55a9b68*%
X41779394Y-14829000D03*
%TO.P,,4b1d030c-23c6-4428-8a25-76829b4191b8__b768ec21-c56b-dbb5-cb30-f29d59675d9b*%
X41779406Y-17979000D03*
D11*
%TO.P,,5eb68629-6b5d-4550-b90b-c9291fad2fb5__5237503d-4662-b83a-7859-31969858b9c0*%
X28308900Y-21024800D03*
%TO.P,,5eb68629-6b5d-4550-b90b-c9291fad2fb5__e5e04a27-c5c4-f2e6-5799-708eb3f01464*%
X29858900Y-21024800D03*
D13*
%TO.P,,60a244c5-d10d-4886-a741-2cdd059b6d91__880f28ef-cf41-0acc-4a98-ce0afa37b0c2*%
X-20673600Y30115900D03*
%TO.P,,60a244c5-d10d-4886-a741-2cdd059b6d91__dff57d78-487b-f832-db06-4405c23ce37c*%
X-22323600Y30115900D03*
D12*
%TO.P,,60c54a7c-a239-48df-9b37-4b6b48bed50f__19df6ce8-a846-e1b2-05db-22f2506d0f7c*%
X56143001Y-14798423D03*
%TO.P,,60c54a7c-a239-48df-9b37-4b6b48bed50f__8f080fcc-9862-851f-ac94-a53a2efce9df*%
X56627999Y-13958377D03*
D23*
%TO.P,,6289d063-6756-4d27-9632-03e967e45b4d__a8b75a33-3cb2-8e5c-90f2-4f5d5d478f01*%
X47612103Y-20995700D03*
%TO.P,,6289d063-6756-4d27-9632-03e967e45b4d__e7d28857-a36c-3a38-170d-dea6c395fcdc*%
X47612097Y-19445700D03*
D12*
%TO.P,,79e52730-bbdb-45ff-a905-f7419e8e4af1__19df6ce8-a846-e1b2-05db-22f2506d0f7c*%
X55214101Y-16404023D03*
%TO.P,,79e52730-bbdb-45ff-a905-f7419e8e4af1__8f080fcc-9862-851f-ac94-a53a2efce9df*%
X55699099Y-15563977D03*
D13*
%TO.P,,7c5edf4f-6d2f-4b4e-b04e-aac4f9f5a07c__880f28ef-cf41-0acc-4a98-ce0afa37b0c2*%
X29816300Y-18823900D03*
%TO.P,,7c5edf4f-6d2f-4b4e-b04e-aac4f9f5a07c__dff57d78-487b-f832-db06-4405c23ce37c*%
X28166300Y-18823900D03*
D24*
%TO.P,,82ab0584-48ad-443a-8024-c45fe0ee61a0__01f9f934-68ec-8f74-1ae3-e10fbfbab168*%
X53334245Y-17040330D03*
%TO.P,,82ab0584-48ad-443a-8024-c45fe0ee61a0__c0b736e9-ddb9-3e06-7eaa-230be2d07706*%
X51783755Y-17604670D03*
D13*
%TO.P,,842f9449-02a1-4d1a-b26e-c50279cfa113__880f28ef-cf41-0acc-4a98-ce0afa37b0c2*%
X49515600Y-13999400D03*
%TO.P,,842f9449-02a1-4d1a-b26e-c50279cfa113__dff57d78-487b-f832-db06-4405c23ce37c*%
X47865600Y-13999400D03*
D10*
%TO.P,,871c6f84-682a-46a7-a560-0fa3dfc1a650__a8b75a33-3cb2-8e5c-90f2-4f5d5d478f01*%
X31729499Y-19474800D03*
%TO.P,,871c6f84-682a-46a7-a560-0fa3dfc1a650__e7d28857-a36c-3a38-170d-dea6c395fcdc*%
X31729501Y-21024800D03*
D24*
%TO.P,,896224c3-dbc8-4abe-a833-265c910b5a2a__01f9f934-68ec-8f74-1ae3-e10fbfbab168*%
X54431645Y-15448230D03*
%TO.P,,896224c3-dbc8-4abe-a833-265c910b5a2a__c0b736e9-ddb9-3e06-7eaa-230be2d07706*%
X52881155Y-16012570D03*
D25*
%TO.P,,8b302e13-f71c-4062-9d82-053c33ca9656__32eff046-d9e0-18e8-7bbc-7467f7b6efae*%
X45755199Y-16662603D03*
%TO.P,,8b302e13-f71c-4062-9d82-053c33ca9656__4c213a6a-6d76-4ea1-e569-dfe8ede1aeff*%
X43855199Y-16662597D03*
D26*
%TO.P,,8b302e13-f71c-4062-9d82-053c33ca9656__69e66901-bfb2-e6b7-f15b-32909172146e*%
X44805200Y-16412600D03*
D25*
%TO.P,,8b302e13-f71c-4062-9d82-053c33ca9656__a886149e-ff37-585f-1ff1-36d4df050416*%
X45755201Y-16162603D03*
%TO.P,,8b302e13-f71c-4062-9d82-053c33ca9656__aa58d5cb-5cae-cdad-245c-c7e601ff32ea*%
X43855201Y-16162597D03*
%TO.P,,8b302e13-f71c-4062-9d82-053c33ca9656__ca5d6d7a-1c82-9d96-dcd4-41909f451f0a*%
X45755202Y-15662603D03*
%TO.P,,8b302e13-f71c-4062-9d82-053c33ca9656__cb277430-fdd2-c0fd-4091-3a6047ac1bec*%
X43855198Y-17162597D03*
%TO.P,,8b302e13-f71c-4062-9d82-053c33ca9656__d9555ea3-ca23-f7f3-158e-aec4ec02ca40*%
X43855202Y-15662597D03*
%TO.P,,8b302e13-f71c-4062-9d82-053c33ca9656__f6cf87ef-0249-316e-da5e-b7fa8c96fd14*%
X45755198Y-17162603D03*
D27*
%TO.P,,8b302e13-f71c-4062-9d82-053c33ca9656__cb9ba39c-6136-d20f-f990-b02bfb239a92.mounts.b9644a1eb790e3d14f1f83a627598a43*%
X44805199Y-16812600D03*
%TO.P,,8b302e13-f71c-4062-9d82-053c33ca9656__cb9ba39c-6136-d20f-f990-b02bfb239a92.mounts.4aebec6aa118fb00a21a48258067d5bb*%
X44805201Y-16012600D03*
D24*
%TO.P,,8c56276d-aee2-4a74-a2d1-ddd118787a7b__01f9f934-68ec-8f74-1ae3-e10fbfbab168*%
X55497545Y-13823330D03*
%TO.P,,8c56276d-aee2-4a74-a2d1-ddd118787a7b__c0b736e9-ddb9-3e06-7eaa-230be2d07706*%
X53947055Y-14387670D03*
D11*
%TO.P,,95baa569-f9dd-4049-83ef-bc59426378dd__5237503d-4662-b83a-7859-31969858b9c0*%
X-23679500Y32435100D03*
%TO.P,,95baa569-f9dd-4049-83ef-bc59426378dd__e5e04a27-c5c4-f2e6-5799-708eb3f01464*%
X-22129500Y32435100D03*
D28*
%TO.P,,a9728bda-38a0-4284-839c-b054ecb6658e__07915a39-5feb-4ac4-e795-568eaf4cd385*%
X52665600Y-6980076D03*
D29*
%TO.P,,a9728bda-38a0-4284-839c-b054ecb6658e__2326611f-98f6-a130-ac94-da96fde3ec8f*%
X56843000Y-1574574D03*
D30*
%TO.P,,a9728bda-38a0-4284-839c-b054ecb6658e__36b8249d-a17e-0989-17f5-82d3877f634c*%
X54765591Y-3342764D03*
D28*
%TO.P,,a9728bda-38a0-4284-839c-b054ecb6658e__370894d7-d23e-ca6e-68ad-8632a7172eab*%
X55115589Y-2736546D03*
D29*
%TO.P,,a9728bda-38a0-4284-839c-b054ecb6658e__9415c64b-4f59-a6d9-e7ea-dc5b1de656fb*%
X52523018Y-9057044D03*
D30*
%TO.P,,a9728bda-38a0-4284-839c-b054ecb6658e__96fd4a3b-ac99-3b40-4ff6-c74af54212cc*%
X54515592Y-3775778D03*
D29*
%TO.P,,a9728bda-38a0-4284-839c-b054ecb6658e__9b3c6dc7-8e8d-43a0-5d61-3a6777006a6c*%
X56143009Y-11147035D03*
D30*
%TO.P,,a9728bda-38a0-4284-839c-b054ecb6658e__9cd5cde1-77b8-118b-6a91-0dff09215c23*%
X54015594Y-4641804D03*
%TO.P,,a9728bda-38a0-4284-839c-b054ecb6658e__a7782b22-e299-6787-b0ca-26a30c5a4303*%
X53015598Y-6373857D03*
D28*
%TO.P,,a9728bda-38a0-4284-839c-b054ecb6658e__a9a68cea-4a28-f2fa-8aa7-78e6b8eb6585*%
X52265601Y-7672897D03*
D30*
%TO.P,,a9728bda-38a0-4284-839c-b054ecb6658e__b1068b8a-d3b5-1454-5967-5a549d66355d*%
X54265593Y-4208791D03*
D28*
%TO.P,,a9728bda-38a0-4284-839c-b054ecb6658e__bd66447d-b9b3-7436-e489-a537e4a6ebe4*%
X55515587Y-2043724D03*
D30*
%TO.P,,a9728bda-38a0-4284-839c-b054ecb6658e__c5aa6eb3-34a2-e8d5-7968-db391b649adf*%
X53515596Y-5507831D03*
%TO.P,,a9728bda-38a0-4284-839c-b054ecb6658e__de99be4b-df9a-8e96-edba-33e0613485da*%
X53765595Y-5074817D03*
%TO.P,,a9728bda-38a0-4284-839c-b054ecb6658e__e0306a75-b2bb-f35b-e69a-992792120783*%
X53265597Y-5940844D03*
D29*
%TO.P,,a9728bda-38a0-4284-839c-b054ecb6658e__e8284091-fcc7-bc14-948c-a2f31e589c00*%
X60462991Y-3664565D03*
D31*
%TO.P,,aab681b7-051f-4eef-ada8-0e5650fae2fc__0085da58-ba94-9f96-ec85-8d16384fa131*%
X66020617Y7247658D03*
%TO.P,,aab681b7-051f-4eef-ada8-0e5650fae2fc__419bc6d8-5c3d-f146-f7d0-edc2a4cc07ef*%
X65632583Y2275542D03*
%TO.P,,aab681b7-051f-4eef-ada8-0e5650fae2fc__86340d85-e791-fb4e-c3c5-eb12b899817a*%
X63770626Y3350538D03*
%TO.P,,aab681b7-051f-4eef-ada8-0e5650fae2fc__af593a51-bd6b-32bd-d4f9-077db4f49b2d*%
X67882574Y6172662D03*
D32*
%TO.P,,b47b39cd-066e-4d9b-819c-8c99630e36ba__ba183820-9b07-4a9e-8e29-d9f7379966ef*%
X-20247455Y9514764D03*
%TO.P,,b47b39cd-066e-4d9b-819c-8c99630e36ba__d041fc9e-ab4b-45ae-9975-b16d9b4b9686*%
X-20799703Y10067017D03*
D33*
%TO.P,,b47b39cd-066e-4d9b-819c-8c99630e36ba__55c7e7af-67a4-4066-a0f7-a2581e1d74bf*%
%TO.N,Net (P1)*%
X-21441616Y9699607D03*
%TO.P,,b47b39cd-066e-4d9b-819c-8c99630e36ba__6940ea2e-3799-43a3-a682-a446a143f7d9*%
X-23284634Y6424438D03*
%TO.P,,b47b39cd-066e-4d9b-819c-8c99630e36ba__de70eb82-9b2e-4f63-b72e-cc61ce8525f8*%
X-20706794Y9064481D03*
D14*
%TO.P,,b8a3615e-2d61-426d-9832-fa2255f5e593__01f9f934-68ec-8f74-1ae3-e10fbfbab168*%
%TO.N,N/C*%
X50386397Y-19474800D03*
%TO.P,,b8a3615e-2d61-426d-9832-fa2255f5e593__c0b736e9-ddb9-3e06-7eaa-230be2d07706*%
X50386403Y-21124800D03*
D13*
%TO.P,,bb5ce85a-b6fd-4174-a9c4-fb6fd87375f0__880f28ef-cf41-0acc-4a98-ce0afa37b0c2*%
X-34620700Y32435100D03*
%TO.P,,bb5ce85a-b6fd-4174-a9c4-fb6fd87375f0__dff57d78-487b-f832-db06-4405c23ce37c*%
X-36270700Y32435100D03*
%TO.P,,bf0d4bd8-b605-4d27-a26f-233422e3f7e0__880f28ef-cf41-0acc-4a98-ce0afa37b0c2*%
X-37944900Y32435100D03*
%TO.P,,bf0d4bd8-b605-4d27-a26f-233422e3f7e0__dff57d78-487b-f832-db06-4405c23ce37c*%
X-39594900Y32435100D03*
D11*
%TO.P,,c6aef2a4-8dea-411b-8be0-0b3aa219c240__5237503d-4662-b83a-7859-31969858b9c0*%
X-30039200Y32435100D03*
%TO.P,,c6aef2a4-8dea-411b-8be0-0b3aa219c240__e5e04a27-c5c4-f2e6-5799-708eb3f01464*%
X-28489200Y32435100D03*
D13*
%TO.P,,c8d57658-18c1-4440-b710-bdc8f4d0a789__880f28ef-cf41-0acc-4a98-ce0afa37b0c2*%
X49440200Y-5940800D03*
%TO.P,,c8d57658-18c1-4440-b710-bdc8f4d0a789__dff57d78-487b-f832-db06-4405c23ce37c*%
X47790200Y-5940800D03*
D34*
%TO.P,,d2b4218e-b8f7-43d3-96c4-e8e9110546de__46e51790-4e87-4e7a-9cf6-32759bc916ed*%
X50324100Y-11056900D03*
%TO.P,,d2b4218e-b8f7-43d3-96c4-e8e9110546de__53ff9fc6-a482-48ce-abda-0922c32aace2*%
X50324100Y-9786900D03*
%TO.P,,d2b4218e-b8f7-43d3-96c4-e8e9110546de__78c493d0-80d2-444b-a10a-76d81ff3a9b9*%
X44900100Y-11056900D03*
%TO.P,,d2b4218e-b8f7-43d3-96c4-e8e9110546de__bae93405-5c70-4585-a5b0-4593674d3981*%
X50324100Y-8516900D03*
%TO.P,,d2b4218e-b8f7-43d3-96c4-e8e9110546de__bf7fbd18-ea23-4c07-9431-240f0c5e7e13*%
X44900100Y-12326900D03*
%TO.P,,d2b4218e-b8f7-43d3-96c4-e8e9110546de__e39a0824-7798-48cf-a826-c0605dfb66b2*%
X50324100Y-12326900D03*
%TO.P,,d2b4218e-b8f7-43d3-96c4-e8e9110546de__eddff88b-9f7f-4945-baba-2d9542f369ff*%
X44900100Y-8516900D03*
%TO.P,,d2b4218e-b8f7-43d3-96c4-e8e9110546de__fa147687-f6ec-41d5-a36c-13290859e504*%
X44900100Y-9786900D03*
D35*
%TO.P,,d2b4218e-b8f7-43d3-96c4-e8e9110546de__fda16eca-e3f1-40aa-bca4-10e84b023ed6*%
X47612100Y-10421900D03*
D31*
%TO.P,,d6d96221-c3f9-4294-8086-9e709b607623__0085da58-ba94-9f96-ec85-8d16384fa131*%
X63032117Y2053558D03*
%TO.P,,d6d96221-c3f9-4294-8086-9e709b607623__419bc6d8-5c3d-f146-f7d0-edc2a4cc07ef*%
X62644083Y-2918558D03*
%TO.P,,d6d96221-c3f9-4294-8086-9e709b607623__86340d85-e791-fb4e-c3c5-eb12b899817a*%
X60782126Y-1843562D03*
%TO.P,,d6d96221-c3f9-4294-8086-9e709b607623__af593a51-bd6b-32bd-d4f9-077db4f49b2d*%
X64894074Y978562D03*
D13*
%TO.P,,d7364598-e306-4f2e-a771-a2d675ffaa7b__880f28ef-cf41-0acc-4a98-ce0afa37b0c2*%
X-25276200Y32435100D03*
%TO.P,,d7364598-e306-4f2e-a771-a2d675ffaa7b__dff57d78-487b-f832-db06-4405c23ce37c*%
X-26926200Y32435100D03*
D10*
%TO.P,,daa54b81-b566-4e88-a8c5-510f42c550a1__a8b75a33-3cb2-8e5c-90f2-4f5d5d478f01*%
X45456499Y-19445700D03*
%TO.P,,daa54b81-b566-4e88-a8c5-510f42c550a1__e7d28857-a36c-3a38-170d-dea6c395fcdc*%
X45456501Y-20995700D03*
%TO.P,,e74d2e39-30af-4c37-8b68-42bc77afd08f__a8b75a33-3cb2-8e5c-90f2-4f5d5d478f01*%
X40533699Y-19445700D03*
%TO.P,,e74d2e39-30af-4c37-8b68-42bc77afd08f__e7d28857-a36c-3a38-170d-dea6c395fcdc*%
X40533701Y-20995700D03*
D12*
%TO.P,,eafcf384-d761-4edd-89af-8fcae178e2d5__19df6ce8-a846-e1b2-05db-22f2506d0f7c*%
X54237301Y-18009523D03*
%TO.P,,eafcf384-d761-4edd-89af-8fcae178e2d5__8f080fcc-9862-851f-ac94-a53a2efce9df*%
X54722299Y-17169477D03*
D11*
%TO.P,,f62bb8a9-2664-4222-b69f-b21cc9f2d0e2__5237503d-4662-b83a-7859-31969858b9c0*%
X-33003400Y32435100D03*
%TO.P,,f62bb8a9-2664-4222-b69f-b21cc9f2d0e2__e5e04a27-c5c4-f2e6-5799-708eb3f01464*%
X-31453400Y32435100D03*
D36*
%TO.P,,fde93685-1b47-4d55-9189-6f2810ccf2d7__09777ebb-f9ec-a1d8-aacd-1e03d3e185cb*%
X9062700Y26038200D03*
%TO.P,,fde93685-1b47-4d55-9189-6f2810ccf2d7__17aa498e-7034-989d-93a1-20cf048a9bb7*%
X-1097300Y26038200D03*
D37*
%TO.P,,fde93685-1b47-4d55-9189-6f2810ccf2d7__780a0c78-b655-92b5-eb7b-7bb07a38f6bb*%
X-6177300Y26038200D03*
D36*
%TO.P,,fde93685-1b47-4d55-9189-6f2810ccf2d7__88186ed4-c72e-9151-10db-74afa3b3250f*%
X11602700Y26038200D03*
%TO.P,,fde93685-1b47-4d55-9189-6f2810ccf2d7__a5452cd5-cdfa-37d5-f511-cce953e8887a*%
X-3637300Y26038200D03*
%TO.P,,fde93685-1b47-4d55-9189-6f2810ccf2d7__bf89ace4-a929-4341-2316-5258132c0519*%
X6522700Y26038200D03*
%TO.P,,fde93685-1b47-4d55-9189-6f2810ccf2d7__e1477550-86e3-7622-8486-9d94b12c61a3*%
X3982700Y26038200D03*
%TO.P,,fde93685-1b47-4d55-9189-6f2810ccf2d7__fd60c3f0-3f20-7c4b-71bf-496c76bfff57*%
X1442700Y26038200D03*
D38*
%TO.P,,fde93685-1b47-4d55-9189-6f2810ccf2d7__9b5df1e0-9f2a-899f-2919-7db1566b6d64.mounts.13e7b21decf95421cd3e398441d8b521*%
X-13287300Y26038200D03*
%TO.P,,fde93685-1b47-4d55-9189-6f2810ccf2d7__9b5df1e0-9f2a-899f-2919-7db1566b6d64.mounts.13400cc629a4f6eba2ffef736c215646*%
X18712700Y-13461800D03*
%TO.P,,fde93685-1b47-4d55-9189-6f2810ccf2d7__9b5df1e0-9f2a-899f-2919-7db1566b6d64.mounts.9b67ec2108eab0208d9c6083db633c0f*%
X-13287300Y-13461800D03*
%TO.P,,fde93685-1b47-4d55-9189-6f2810ccf2d7__9b5df1e0-9f2a-899f-2919-7db1566b6d64.mounts.285fa6b931a40c0607ac10948467f53c*%
X18712700Y26038200D03*
D39*
%TO.P,,ff6aa628-a694-44a5-a8a3-0151430d2fb0__038cb78d-7f13-44e4-8e9a-53693437642d*%
X56150613Y24863848D03*
%TO.P,,ff6aa628-a694-44a5-a8a3-0151430d2fb0__074883e9-8a1b-44e0-b46a-ca9c67916540*%
X58055617Y21564294D03*
D40*
%TO.P,,ff6aa628-a694-44a5-a8a3-0151430d2fb0__0a1d94a2-9a47-41fa-913a-718297cb936f*%
X51011299Y16065414D03*
%TO.P,,ff6aa628-a694-44a5-a8a3-0151430d2fb0__0eb7175f-22de-45c6-bfae-ba31aa1429b7*%
X52411302Y13640544D03*
D41*
%TO.P,,ff6aa628-a694-44a5-a8a3-0151430d2fb0__149b1002-9ffa-4318-9ba7-5207bbca47d8*%
X54068285Y4620587D03*
D39*
%TO.P,,ff6aa628-a694-44a5-a8a3-0151430d2fb0__15feaab6-c953-4c18-8f18-0eeba2babf8d*%
X56785614Y23763997D03*
%TO.P,,ff6aa628-a694-44a5-a8a3-0151430d2fb0__19b3b8ac-30e6-4f2c-b3e4-cec8665f28e7*%
X58690618Y20464442D03*
%TO.P,,ff6aa628-a694-44a5-a8a3-0151430d2fb0__1a1dc7dd-29d8-42d6-bf00-5b4859417f33*%
X62500626Y13865333D03*
D41*
%TO.P,,ff6aa628-a694-44a5-a8a3-0151430d2fb0__28c3e18f-85a8-4a4e-811e-de92b424a83b*%
X56267988Y5890589D03*
D40*
%TO.P,,ff6aa628-a694-44a5-a8a3-0151430d2fb0__2e2b374c-2dcd-4d96-bdc8-4a44c8bff2cb*%
X49986432Y12240541D03*
D39*
%TO.P,,ff6aa628-a694-44a5-a8a3-0151430d2fb0__364f9212-23cf-4965-adf2-c0874852d737*%
X44170186Y10614572D03*
D41*
%TO.P,,ff6aa628-a694-44a5-a8a3-0151430d2fb0__372b3587-4c65-4638-b6bd-0d615aaa9bcf*%
X52968433Y3985585D03*
D39*
%TO.P,,ff6aa628-a694-44a5-a8a3-0151430d2fb0__378f37c9-9415-404b-9497-740ee99041f1*%
X47980194Y4015463D03*
%TO.P,,ff6aa628-a694-44a5-a8a3-0151430d2fb0__389e2361-d216-424a-ad14-878b2c16ddf4*%
X63135628Y12765482D03*
%TO.P,,ff6aa628-a694-44a5-a8a3-0151430d2fb0__467385d9-c49a-4b0c-9521-ff0dd23c2353*%
X61865625Y14965185D03*
%TO.P,,ff6aa628-a694-44a5-a8a3-0151430d2fb0__48c404ab-321c-4d57-808f-5b71ff3facaa*%
X40995179Y16113830D03*
%TO.P,,ff6aa628-a694-44a5-a8a3-0151430d2fb0__4b351687-6185-426a-ae30-48d9cbd76add*%
X59960621Y18264739D03*
D41*
%TO.P,,ff6aa628-a694-44a5-a8a3-0151430d2fb0__4d4f93f3-8acb-4554-ac43-cd747cba396f*%
X61767245Y9065596D03*
D39*
%TO.P,,ff6aa628-a694-44a5-a8a3-0151430d2fb0__4e079aee-7172-4049-b943-7630e2bcc7bb*%
X57420615Y22664145D03*
%TO.P,,ff6aa628-a694-44a5-a8a3-0151430d2fb0__54bf5518-18c6-4e11-8164-12302f1229fc*%
X46075190Y7315018D03*
%TO.P,,ff6aa628-a694-44a5-a8a3-0151430d2fb0__57377a0b-5d9b-4471-ad37-440a84dc5c1c*%
X63770629Y11665630D03*
%TO.P,,ff6aa628-a694-44a5-a8a3-0151430d2fb0__598dd6e4-bd38-4f37-a754-6b03fa56aff0*%
X48615195Y2915612D03*
D41*
%TO.P,,ff6aa628-a694-44a5-a8a3-0151430d2fb0__5b5fe32f-7fbe-4265-8d60-dc4b99d1a4c5*%
X51868582Y3350584D03*
%TO.P,,ff6aa628-a694-44a5-a8a3-0151430d2fb0__5e286a02-b1c0-4b2e-894b-9e9484d7c671*%
X60667393Y8430595D03*
D40*
%TO.P,,ff6aa628-a694-44a5-a8a3-0151430d2fb0__867a37e5-175c-4e72-b1bc-70e2c8b4a089*%
X49286431Y13452976D03*
D39*
%TO.P,,ff6aa628-a694-44a5-a8a3-0151430d2fb0__8d1d5373-94ab-4aec-a6e3-7ae1b222c6b0*%
X42265182Y13914127D03*
D41*
%TO.P,,ff6aa628-a694-44a5-a8a3-0151430d2fb0__9483d5e5-e44a-49e7-a9f2-cfc808672c84*%
X55168136Y5255588D03*
D39*
%TO.P,,ff6aa628-a694-44a5-a8a3-0151430d2fb0__95038b53-efb1-401a-b7b0-5a15d90bdd5a*%
X41630180Y15013978D03*
D41*
%TO.P,,ff6aa628-a694-44a5-a8a3-0151430d2fb0__9808895e-53c5-4bb1-89b5-2f682c8c59c8*%
X62867096Y9700598D03*
D39*
%TO.P,,ff6aa628-a694-44a5-a8a3-0151430d2fb0__9dbd24d4-d20d-45c3-a21d-a6a6f23e3004*%
X44805187Y9514721D03*
%TO.P,,ff6aa628-a694-44a5-a8a3-0151430d2fb0__a5461eb3-ba20-4ff8-986f-77093064c7fd*%
X45440188Y8414869D03*
%TO.P,,ff6aa628-a694-44a5-a8a3-0151430d2fb0__b328097a-6308-4fb0-8865-8b354d07d1e1*%
X59325619Y19364591D03*
D40*
%TO.P,,ff6aa628-a694-44a5-a8a3-0151430d2fb0__b3d47a51-17b0-40f1-94d7-91665f8a5b74*%
X51711300Y14852979D03*
D39*
%TO.P,,ff6aa628-a694-44a5-a8a3-0151430d2fb0__bfd8b816-9a44-4830-ba7a-92ffaa0cd6c4*%
X46710191Y6215166D03*
%TO.P,,ff6aa628-a694-44a5-a8a3-0151430d2fb0__c0aeacaa-8ce1-4b42-866c-b142a90d5e1b*%
X60595622Y17164888D03*
%TO.P,,ff6aa628-a694-44a5-a8a3-0151430d2fb0__c2966f8a-bd4c-4e9e-9bd3-e290757d07ca*%
X47345192Y5115315D03*
%TO.P,,ff6aa628-a694-44a5-a8a3-0151430d2fb0__c3afd9a5-1ab7-4def-a4ee-3e28405bceff*%
X43535184Y11714424D03*
D41*
%TO.P,,ff6aa628-a694-44a5-a8a3-0151430d2fb0__c62376b8-e5dc-4ab0-8908-f15f3f11b117*%
X57367839Y6525591D03*
D40*
%TO.P,,ff6aa628-a694-44a5-a8a3-0151430d2fb0__cfdba786-50db-4356-96cf-ac6ee75314e0*%
X51198867Y12940543D03*
D39*
%TO.P,,ff6aa628-a694-44a5-a8a3-0151430d2fb0__ee163daa-5110-4e00-ad80-3db228fbfcac*%
X55515611Y25963700D03*
D40*
%TO.P,,ff6aa628-a694-44a5-a8a3-0151430d2fb0__ee302306-e8f5-4173-904b-e082f63f0331*%
X50498865Y14152977D03*
D41*
%TO.P,,ff6aa628-a694-44a5-a8a3-0151430d2fb0__f2452f17-455e-40a4-8de7-c5d61dafdc3f*%
X58467690Y7160592D03*
D39*
%TO.P,,ff6aa628-a694-44a5-a8a3-0151430d2fb0__f338ba31-623d-455e-8973-1e6afaa89b04*%
X42900183Y12814275D03*
%TO.P,,ff6aa628-a694-44a5-a8a3-0151430d2fb0__f4caacbd-9c2b-4dae-912c-0c8f53f0194d*%
X40360177Y17213681D03*
D41*
%TO.P,,ff6aa628-a694-44a5-a8a3-0151430d2fb0__f4e0e1de-4650-498a-92e2-2bd6617ff5d9*%
X59567542Y7795593D03*
D40*
%TO.P,,ff6aa628-a694-44a5-a8a3-0151430d2fb0__fad17131-84aa-453f-ae74-725cc6191e8b*%
X49798864Y15365412D03*
D41*
%TO.P,,ff6aa628-a694-44a5-a8a3-0151430d2fb0__fae28ec3-3b8c-4290-866b-75b4c93d0946*%
X50768730Y2715583D03*
D40*
%TO.P,,ff6aa628-a694-44a5-a8a3-0151430d2fb0__fb3ef5ee-6d96-40cb-bf5b-23e493685d10*%
X48586429Y14665411D03*
D39*
%TO.P,,ff6aa628-a694-44a5-a8a3-0151430d2fb0__fe26ffc2-a141-46a4-b02c-250e6d92bf8c*%
X61230623Y16065036D03*
D42*
%TO.P,,ff6aa628-a694-44a5-a8a3-0151430d2fb0__ee3a696f-ef70-402c-ab0c-7137ed4eee28.defaultFootprint.mounts.183bc2e5b0fd3164e75ded3f1243107f*%
X51805084Y13290543D03*
%TO.P,,ff6aa628-a694-44a5-a8a3-0151430d2fb0__ee3a696f-ef70-402c-ab0c-7137ed4eee28.defaultFootprint.mounts.9dc978c55082aad2fafacdbd9f5f57bc*%
X50592650Y12590542D03*
%TO.P,,ff6aa628-a694-44a5-a8a3-0151430d2fb0__ee3a696f-ef70-402c-ab0c-7137ed4eee28.defaultFootprint.mounts.a0d68b55a491274f814daab068f0c950*%
X51105083Y14502978D03*
%TO.P,,ff6aa628-a694-44a5-a8a3-0151430d2fb0__ee3a696f-ef70-402c-ab0c-7137ed4eee28.defaultFootprint.mounts.afcd757d940930679b843bc1e4386240*%
X49892648Y13802977D03*
%TO.P,,ff6aa628-a694-44a5-a8a3-0151430d2fb0__ee3a696f-ef70-402c-ab0c-7137ed4eee28.defaultFootprint.mounts.4504ff15bdcf4818a54146cc7a8e9a0d*%
X50405081Y15715413D03*
%TO.P,,ff6aa628-a694-44a5-a8a3-0151430d2fb0__ee3a696f-ef70-402c-ab0c-7137ed4eee28.defaultFootprint.mounts.19f3852e009ba6bfae8a2fce513ef1dd*%
X49192647Y15015411D03*
%TO.P,,ff6aa628-a694-44a5-a8a3-0151430d2fb0__ee3a696f-ef70-402c-ab0c-7137ed4eee28.defaultFootprint.mounts.6d4d26d8edc27532900a7c937b5e863d*%
X52061301Y14246762D03*
%TO.P,,ff6aa628-a694-44a5-a8a3-0151430d2fb0__ee3a696f-ef70-402c-ab0c-7137ed4eee28.defaultFootprint.mounts.f2ecf32f083cf9b5783a264d7a48b752*%
X50848866Y13546760D03*
%TO.P,,ff6aa628-a694-44a5-a8a3-0151430d2fb0__ee3a696f-ef70-402c-ab0c-7137ed4eee28.defaultFootprint.mounts.cf10f8cc0c36fe03b55323802961a88d*%
X49636431Y12846759D03*
%TO.P,,ff6aa628-a694-44a5-a8a3-0151430d2fb0__ee3a696f-ef70-402c-ab0c-7137ed4eee28.defaultFootprint.mounts.52e844226e796b1c42a9f7f1323ab2f7*%
X51361299Y15459196D03*
%TO.P,,ff6aa628-a694-44a5-a8a3-0151430d2fb0__ee3a696f-ef70-402c-ab0c-7137ed4eee28.defaultFootprint.mounts.a17b4eabb5e4ad17dbcba1ef557d9230*%
X48936430Y14059193D03*
%TO.P,,ff6aa628-a694-44a5-a8a3-0151430d2fb0__ee3a696f-ef70-402c-ab0c-7137ed4eee28.defaultFootprint.mounts.fab9ee6953aa1da2d8a8f965443f1f1b*%
X50148865Y14759195D03*
D33*
%TO.P,,207bfe61-dce0-4f39-be21-0d850f98b387*%
%TO.N,Net 10*%
X62644100Y752000D03*
%TO.P,,a650fbb7-4685-45b4-a32a-ea1cce39617a*%
X54068300Y23764000D03*
%TO.P,,347703a5-faa3-4a19-8658-400d6e74c78d*%
%TO.N,Net 6*%
X-25865600Y28437800D03*
%TO.P,,8766b817-0d94-4bd6-be7a-57be64c73932*%
X45440200Y18264700D03*
%TO.P,,20ae2f0a-8201-4819-835e-11af35ee14f1*%
%TO.N,Net 58*%
X-24097800Y28314700D03*
%TO.P,,62b8ada6-d1ed-4fe0-bf0a-13137be8c887*%
X-30392800Y29614500D03*
%TO.P,,01173b48-433f-476a-8512-74e8639255fa*%
%TO.N,Net 27*%
X-22680800Y26391700D03*
%TO.P,,1e3a95c6-b6ca-41fb-b598-488343e0906d*%
X-21374200Y29022400D03*
%TO.P,,29738394-fc21-4af3-a422-23968b129d75*%
X-19610900Y30899500D03*
%TO.P,,299a8220-cd96-43c9-b804-11321be162cb*%
X55934200Y8618600D03*
%TO.P,,984e020b-c8eb-4202-ada3-974d2924432e*%
X-26790700Y27458700D03*
%TO.P,,9d14486d-19d5-44bb-8658-f328cde09b27*%
X-31278200Y26391700D03*
%TO.P,,c5a86da6-6979-45c7-91b2-233b6e3c2928*%
X-24299300Y24977600D03*
%TO.P,,87fc061c-74f9-4937-b412-e6bfcb352be4*%
%TO.N,Net 13*%
X50748200Y-5074800D03*
%TO.P,,e8682695-0348-472d-818d-7dad2f3a248a*%
X46453400Y752000D03*
%TO.P,,04735876-aa60-49a8-b3ef-dafb8d97c6dc*%
%TO.N,Net 42*%
X51981500Y-3542800D03*
%TO.P,,547e7e36-499d-4f71-9a58-2572d818a868*%
X53515600Y-3078000D03*
%TO.P,,77028e07-86d5-4c74-86b8-4fccadde9762*%
%TO.N,Net 51*%
X42485100Y-12677400D03*
%TO.P,,8a8af2b2-8879-4748-8847-2b7529634d4f*%
X52625500Y-13650800D03*
%TO.P,,9a0ee4e0-4754-4aaf-bff0-f1295a4e016c*%
X41134600Y-11654800D03*
%TO.P,,9bb1d60f-9d26-468d-805d-ebec73a94ccf*%
X38212400Y-14387700D03*
%TO.P,,a41bcef6-0361-49d1-a9da-00d1fe06c176*%
X38904600Y-11654800D03*
%TO.P,,f469767e-8128-4d27-9fcb-dea7d323cce4*%
X51783800Y-13035700D03*
%TO.P,,307e88f4-dc42-43b6-a702-2edeb4db613b*%
%TO.N,Net 57*%
X-33405100Y27781100D03*
%TO.P,,7989da36-5e86-4160-8c86-af81154e94c0*%
X-18405500Y26391700D03*
%TO.P,,cb6df5cb-6e1d-452c-b854-d627b1a8e27e*%
X-19852000Y22218200D03*
%TO.P,,1c11753f-ba3c-4bc2-be14-7363f8c25c7e*%
%TO.N,GND*%
X49391700Y-20658400D03*
%TO.P,,48bce387-0c37-4954-a6b6-4bf429cc0ca7*%
X46770300Y-18482000D03*
%TO.P,,5497b025-87f2-4bd4-82bf-cf54279d495f*%
X47263500Y-15662600D03*
%TO.P,,6775c09e-24aa-4cb4-96bd-0e9dbbb39c8e*%
X65882100Y1306800D03*
%TO.P,,a038efce-1679-48d2-9dd2-f55c39d1bf0d*%
X51181200Y-16412600D03*
%TO.P,,a1b2cd5e-ac41-4acb-aaac-2dd1f3635b58*%
X44024200Y-18396100D03*
%TO.P,,b80b3862-2a3c-44e5-8999-8d92642536fd*%
X52265600Y-15108900D03*
%TO.P,,bb25d5dc-cc56-4c14-9856-18a8bdec11ac*%
X42575300Y18264700D03*
%TO.P,,bbfc730c-79c0-46ee-9314-bfb150350888*%
X56267900Y3350600D03*
%TO.P,,bca37ccc-f576-4123-bd04-3af01d74a4e4*%
X56268000Y-196400D03*
%TO.P,,c2a06121-aa2e-44ef-a1a9-41b443d0512b*%
X51868600Y11714500D03*
%TO.P,,e6c870e3-3ee4-422e-a94c-332fd1cf1eff*%
X42817200Y-15662600D03*
%TO.P,,f008b36e-c631-4d32-8d68-21d83ef20b9c*%
X50076100Y-20224400D03*
%TO.P,,6d486441-d8c5-414f-bf81-0cfa98cb07fc.via3.7*%
X27750000Y22650000D03*
%TO.P,,6d486441-d8c5-414f-bf81-0cfa98cb07fc.via3.6*%
X12750000Y22650000D03*
%TO.P,,6d486441-d8c5-414f-bf81-0cfa98cb07fc.via3.5*%
X-2250000Y22650000D03*
%TO.P,,6d486441-d8c5-414f-bf81-0cfa98cb07fc.via3.2*%
X-47250000Y22650000D03*
%TO.P,,6d486441-d8c5-414f-bf81-0cfa98cb07fc.via3.1*%
X-62250000Y22650000D03*
%TO.P,,6d486441-d8c5-414f-bf81-0cfa98cb07fc.via2.8*%
X42750000Y7650000D03*
%TO.P,,6d486441-d8c5-414f-bf81-0cfa98cb07fc.via2.7*%
X27750000Y7650000D03*
%TO.P,,6d486441-d8c5-414f-bf81-0cfa98cb07fc.via2.6*%
X12750000Y7650000D03*
%TO.P,,6d486441-d8c5-414f-bf81-0cfa98cb07fc.via2.5*%
X-2250000Y7650000D03*
%TO.P,,6d486441-d8c5-414f-bf81-0cfa98cb07fc.via2.4*%
X-17250000Y7650000D03*
%TO.P,,6d486441-d8c5-414f-bf81-0cfa98cb07fc.via2.3*%
X-32250000Y7650000D03*
%TO.P,,6d486441-d8c5-414f-bf81-0cfa98cb07fc.via2.2*%
X-47250000Y7650000D03*
%TO.P,,6d486441-d8c5-414f-bf81-0cfa98cb07fc.via2.1*%
X-62250000Y7650000D03*
%TO.P,,6d486441-d8c5-414f-bf81-0cfa98cb07fc.via1.7*%
X27750000Y-7350000D03*
%TO.P,,6d486441-d8c5-414f-bf81-0cfa98cb07fc.via1.6*%
X12750000Y-7350000D03*
%TO.P,,6d486441-d8c5-414f-bf81-0cfa98cb07fc.via1.5*%
X-2250000Y-7350000D03*
%TO.P,,6d486441-d8c5-414f-bf81-0cfa98cb07fc.via1.4*%
X-17250000Y-7350000D03*
%TO.P,,6d486441-d8c5-414f-bf81-0cfa98cb07fc.via1.2*%
X-47250000Y-7350000D03*
%TO.P,,6196e16c-7979-42d9-ad76-d445ddcc023d*%
%TO.N,Net 60*%
X47612100Y20464400D03*
%TO.P,,8356cf02-b333-4ecf-9e76-3fdb20e3ea38*%
X36633700Y32094000D03*
%TO.P,,a681c5ee-d869-4702-9617-cfb630c6daa8*%
X37059000Y30274800D03*
%TO.P,,fb35e27d-4a78-4c9e-b249-daa247fc444f*%
X-33979700Y26877400D03*
%TO.P,,32ca3a93-bba3-4c95-ab01-a7d48099238a*%
%TO.N,Net 59*%
X-23899800Y25684700D03*
%TO.P,,432c190e-7c6c-4629-a38a-289f299b0d74*%
X-24649800Y30899500D03*
%TO.P,,8c6fb8ec-4a97-4d96-9b68-1593b071ff7f*%
X-22461600Y27960600D03*
%TO.P,,9ecb8053-2c34-42dd-aa87-3024201c3ca2*%
X-25865600Y27601100D03*
%TO.P,,0ec2af76-9b66-48f3-a4a8-54f28df96267*%
%TO.N,Net 3*%
X-30392800Y21157500D03*
%TO.P,,1eaf378b-8dbd-49d5-8fd8-018d2d19bfe8*%
X59350200Y-2180600D03*
%TO.P,,297875d3-6ab7-425d-822c-8615cb265d7d*%
X39690600Y14059200D03*
%TO.P,,29ece115-5ec5-4e1a-aa3f-630b2d4a187a*%
X39690600Y12119600D03*
%TO.P,,6cae4a02-7858-4adb-abfa-c0b26730a22e*%
X44024200Y-20353900D03*
%TO.P,,fb6fff71-3ec6-4a7f-8d99-817b3e6bc926*%
X57367800Y495100D03*
%TO.P,,1d9e1414-e1fb-4408-8873-1aea5c839521*%
%TO.N,Net 44*%
X50958500Y-6132300D03*
%TO.P,,56c795dd-ded3-4d13-b249-e762881859f4*%
X39471200Y-14387600D03*
%TO.P,,dbd85782-9d4a-4d35-82c0-c87f9340991b*%
X39471100Y-14387700D03*
%TO.P,,42cda95b-14da-48be-890f-8489d13776ef*%
%TO.N,Net 20*%
X-27484600Y30341100D03*
%TO.P,,5d5dd051-ccc1-4574-aa30-766a32dbaf3d*%
X46933700Y20113400D03*
%TO.P,,bce8f571-2969-44a2-8e6b-e7d608574577*%
X-27484600Y29839900D03*
%TO.P,,d414dfef-8bc4-4ba2-a1da-e591f79817a4*%
X-19610900Y27698300D03*
%TO.P,,d9c929ea-34a2-4451-8b3c-4ed1978d07de*%
X-20020100Y29336000D03*
%TO.P,,e7371f10-f576-454d-a515-931f4f247937*%
X-17535200Y29336000D03*
%TO.P,,3aef87f0-7e20-4b50-877e-3518ec160918*%
%TO.N,Net 39*%
X36373800Y-18703000D03*
%TO.P,,53003c4b-45ff-46d7-9773-f4d178b73864*%
X47612100Y30899500D03*
%TO.P,,612118c2-8d54-4ec9-b86e-2c9f77602be6*%
X41779400Y-19976000D03*
%TO.P,,a2e25e8b-db38-4693-85f8-e128b4206fee*%
X38904600Y-9610800D03*
%TO.P,,b65aa16b-f548-4922-b1f7-fde41a5b7604*%
X41779400Y-19975700D03*
%TO.P,,cfcc94f9-2960-459e-a499-888820702cf8*%
X41779400Y-19975700D03*
%TO.P,,e4262e91-97c3-4149-8109-5f20bcfdb5dc*%
X-20020100Y31577900D03*
%TO.P,,f00835aa-4bee-4063-806c-f1905ca385f0*%
X40533700Y-16011200D03*
%TO.P,,13ed02ec-455c-4228-9391-f37b0673b352*%
%TO.N,Net 52*%
X54995000Y-15108900D03*
%TO.P,,2765ba84-73cf-4e7b-bcce-b3ba41b84a0b*%
X37812400Y-18310700D03*
%TO.P,,3481bf63-ebb2-4752-9003-f489efb7f34d*%
X34703400Y-18310700D03*
%TO.P,,42e6fb36-b780-480a-ad2b-f9716734e04a*%
X47423800Y-16726300D03*
%TO.P,,8fdf950a-6024-4205-b211-1a80856d01a7*%
X35690200Y-18310500D03*
%TO.P,,95f910c8-75bc-4a4d-bc3f-551c1527a05b*%
X37812500Y-18310700D03*
%TO.P,,d602e7bc-ce25-48e9-933c-900972f0a96d*%
X46770300Y-16012600D03*
%TO.P,,d78f01b3-265d-45cb-a132-82fa5d007254*%
X51461500Y-13651000D03*
%TO.P,,efc4761c-483a-4a34-b530-6b625bfd6c42*%
X48124100Y-17040300D03*
%TO.P,,6a511f93-fd61-4c61-8898-c57759339e15*%
%TO.N,Net 5*%
X43031400Y-18063400D03*
%TO.P,,a04df105-bec7-4903-a160-04d1c57021e6*%
X48342100Y-18396100D03*
%TO.P,,87e76f1a-bbef-4d27-a374-b311089021c5*%
%TO.N,Net 14*%
X53265600Y-2314900D03*
%TO.P,,b7399197-4958-4fdd-98c9-2a5ee51927ed*%
X48425000Y-9000D03*
%TO.P,,6d486441-d8c5-414f-bf81-0cfa98cb07fc.via.island.25*%
%TO.N,GND*%
X-20536600Y25355800D03*
%TO.P,,6d486441-d8c5-414f-bf81-0cfa98cb07fc.via.island.24*%
X-31621500Y30653100D03*
%TO.P,,6d486441-d8c5-414f-bf81-0cfa98cb07fc.via.island.23*%
X-34366600Y30671300D03*
%TO.P,,6d486441-d8c5-414f-bf81-0cfa98cb07fc.via.island.22*%
X-37317400Y31007200D03*
%TO.P,,6d486441-d8c5-414f-bf81-0cfa98cb07fc.via.island.21*%
X-28680000Y31325700D03*
%TO.P,,6d486441-d8c5-414f-bf81-0cfa98cb07fc.via.island.20*%
X50983500Y-2030000D03*
%TO.P,,6d486441-d8c5-414f-bf81-0cfa98cb07fc.via.island.19*%
X51270200Y30606700D03*
%TO.P,,6d486441-d8c5-414f-bf81-0cfa98cb07fc.via.island.18*%
X36814000Y26867600D03*
%TO.P,,6d486441-d8c5-414f-bf81-0cfa98cb07fc.via.island.17*%
X44323500Y27662400D03*
%TO.P,,6d486441-d8c5-414f-bf81-0cfa98cb07fc.via.island.16*%
X45299800Y14883400D03*
%TO.P,,6d486441-d8c5-414f-bf81-0cfa98cb07fc.via.island.15*%
X59343500Y11936400D03*
%TO.P,,6d486441-d8c5-414f-bf81-0cfa98cb07fc.via.island.14*%
X50093800Y23296800D03*
%TO.P,,6d486441-d8c5-414f-bf81-0cfa98cb07fc.via.island.13*%
X58578300Y-5409300D03*
%TO.P,,6d486441-d8c5-414f-bf81-0cfa98cb07fc.via.island.12*%
X32710700Y-17826800D03*
%TO.P,,6d486441-d8c5-414f-bf81-0cfa98cb07fc.via.island.11*%
X62369300Y6403500D03*
%TO.P,,6d486441-d8c5-414f-bf81-0cfa98cb07fc.via.island.10*%
X40904400Y-9557600D03*
%TO.P,,6d486441-d8c5-414f-bf81-0cfa98cb07fc.via.island.9*%
X-21772400Y14447800D03*
%TO.P,,6d486441-d8c5-414f-bf81-0cfa98cb07fc.via.island.8*%
X49131900Y16837500D03*
%TO.P,,6d486441-d8c5-414f-bf81-0cfa98cb07fc.via.island.7*%
X-33511300Y23643000D03*
%TO.P,,6d486441-d8c5-414f-bf81-0cfa98cb07fc.via.island.6*%
X55296600Y-6710900D03*
%TO.P,,6d486441-d8c5-414f-bf81-0cfa98cb07fc.via.island.5*%
X-26609600Y19321900D03*
%TO.P,,6d486441-d8c5-414f-bf81-0cfa98cb07fc.via.island.4*%
X-23305700Y23649000D03*
%TO.P,,6d486441-d8c5-414f-bf81-0cfa98cb07fc.via.island.3*%
X45460900Y4551100D03*
%TO.P,,6d486441-d8c5-414f-bf81-0cfa98cb07fc.via.island.2*%
X36623500Y-21565500D03*
%TO.P,,6d486441-d8c5-414f-bf81-0cfa98cb07fc.via.island.1*%
X51868500Y6268500D03*
%TO.P,,6d486441-d8c5-414f-bf81-0cfa98cb07fc.via.island.0*%
X54470700Y9340500D03*
%TD*%
D43*
%TO.N,Net (P1)*%
X-21608640Y8550984D02*
X-21587144Y8529488D01*
X-70752576Y5369224D02*
X-70752859Y5369224D01*
X-21962188Y9753067D02*
X-21513600Y9753065D01*
X-22881434Y8126725D02*
X-22854423Y8099714D01*
X-45225901Y32168456D02*
X-21587144Y8529488D01*
X-46993895Y-18389671D02*
X-46993895Y-18389671D01*
X-45013766Y32804851D02*
X-45014049Y32804851D01*
X-20696470Y9065753D02*
X-20697743Y9064481D01*
X-22245051Y5227585D02*
X-22245049Y5697386D01*
X-71388973Y5157095D02*
X-71389256Y5157095D01*
X-45226136Y-20298867D02*
X-47630299Y-20298856D01*
X-21113660Y9753063D02*
X-20799703Y10067017D01*
X-72025370Y4944965D02*
X-72025361Y6924864D01*
X-72661767Y4732836D02*
X-47630299Y-20298856D01*
X-45225901Y32168456D02*
X-45226184Y32168456D01*
X-45438036Y31532061D02*
X-47417935Y31532070D01*
X-20194437Y6288236D02*
X-22231744Y8325561D01*
X-47206030Y-19026066D02*
X-47206030Y-19026066D01*
X-45438036Y31532061D02*
X-22231814Y8325632D01*
X-23517831Y7914596D02*
X-23528438Y7925203D01*
X-45014007Y-20935264D02*
X-47842434Y-20935251D01*
X-45650170Y30895666D02*
X-45650453Y30895666D01*
X-19558049Y4520466D02*
X-19558040Y6500365D01*
X-22245037Y8338854D02*
X-22231814Y8325632D01*
X-47205805Y30895673D02*
X-71388966Y6712730D01*
X-21513529Y9752994D02*
X-21489629Y9729094D01*
X-45438265Y-19662470D02*
X-47418164Y-19662461D01*
X-47417935Y31532070D02*
X-72025361Y6924864D01*
X-19558049Y4520466D02*
X-45014007Y-20935264D01*
X-73298164Y4520707D02*
X-47842434Y-20935251D01*
X-71388973Y5157095D02*
X-47206030Y-19026066D01*
X-47842434Y-20935251D02*
X-47842434Y-20935251D01*
X-45862305Y30259271D02*
X-45862588Y30259271D01*
X-72025370Y4944965D02*
X-47418164Y-19662461D01*
X-20697743Y9064481D02*
X-20706794Y9064481D01*
X-21460143Y9699607D02*
X-21441475Y9699607D01*
X-20696470Y9065753D02*
X-20247455Y9514764D01*
X-47418164Y-19662461D02*
X-47418164Y-19662461D01*
X-21467234Y5156870D02*
X-45650395Y-19026073D01*
X-21467234Y5156870D02*
X-21467231Y5863977D01*
X-72661756Y7136999D02*
X-72662039Y7136999D01*
X-22959012Y6411355D02*
X-23269856Y6411357D01*
X-72025370Y4944965D02*
X-72025653Y4944965D01*
X-71388973Y5157095D02*
X-71388966Y6712730D01*
X-23283149Y6424509D02*
X-23284564Y6424509D01*
X-45650170Y30895666D02*
X-22854423Y8099714D01*
X-46993676Y30259276D02*
X-70752571Y6500595D01*
X-19558040Y6500365D02*
X-21587144Y8529488D01*
X-73298151Y7349134D02*
X-73298434Y7349134D01*
X-45862305Y30259271D02*
X-23528438Y7925203D01*
X-20830839Y4944736D02*
X-20830834Y6076106D01*
X-20194444Y4732601D02*
X-45226136Y-20298867D01*
X-45438036Y31532061D02*
X-45438318Y31532061D01*
X-45013766Y32804851D02*
X-47842193Y32804864D01*
X-45225901Y32168456D02*
X-47630064Y32168467D01*
X-21962188Y9753067D02*
X-21113660Y9753063D01*
X-45862524Y-18389676D02*
X-46993895Y-18389671D01*
X-20194444Y4732601D02*
X-20194437Y6288236D01*
X-20830834Y6076106D02*
X-22854423Y8099714D01*
X-21489629Y9729094D02*
X-21460072Y9699537D01*
X-47842193Y32804864D02*
X-73298151Y7349134D01*
X-72661756Y7136999D02*
X-72661767Y4732836D01*
X-21962188Y9753067D02*
X-45013766Y32804851D01*
X-22245120Y5697457D02*
X-22959012Y6411355D01*
X-70752576Y5369224D02*
X-70752571Y6500595D01*
X-20830839Y4944736D02*
X-45438265Y-19662470D01*
X-22245051Y5227585D02*
X-45862524Y-18389676D01*
X-45650170Y30895666D02*
X-47205805Y30895673D01*
X-45862305Y30259271D02*
X-46993676Y30259276D01*
X-23269997Y6411357D02*
X-23294322Y6435681D01*
X-23269997Y6411357D02*
X-23283149Y6424509D01*
X-21467231Y5863977D02*
X-23528438Y7925203D01*
X-45650395Y-19026073D02*
X-47206030Y-19026066D01*
X-47630064Y32168467D02*
X-72661756Y7136999D01*
X-47630299Y-20298856D02*
X-47630299Y-20298856D01*
X-70752576Y5369224D02*
X-46993895Y-18389671D01*
X-73298151Y7349134D02*
X-73298164Y4520707D01*
D44*
%TO.N,Net 41*%
X55497600Y-14153000D02*
X56143000Y-14798400D01*
X55497500Y-13823300D02*
X55497500Y-14152900D01*
%TO.N,Net 10*%
X61767300Y-124800D02*
X62644100Y752000D01*
X54068300Y23764000D02*
X55050700Y23764000D01*
X56628000Y-13139700D02*
X57420600Y-12347100D01*
X55050800Y23764000D02*
X56150600Y24863800D01*
X60297300Y-7857400D02*
X60297300Y-5678800D01*
X61767200Y-4208800D02*
X61767200Y-3342700D01*
X61767200Y-3342700D02*
X61767200Y-124900D01*
X57420600Y-12347100D02*
X57420600Y-10734100D01*
X57420700Y-10734000D02*
X60297300Y-7857400D01*
X56628000Y-13958300D02*
X56628000Y-13139700D01*
X60297300Y-5678800D02*
X61767300Y-4208800D01*
%TO.N,Net 47*%
X54431700Y-15621600D02*
X55214100Y-16404000D01*
X54431600Y-15448200D02*
X54431600Y-15621600D01*
D45*
%TO.N,Net 56*%
X-31453400Y32435100D02*
X-31453200Y32435300D01*
X-38928200Y34345100D02*
X-32133400Y34345100D01*
X-32133400Y34345100D02*
X-31453400Y33665100D01*
X-39594900Y33678500D02*
X-38928300Y34345100D01*
X-39594900Y32435100D02*
X-39594900Y33678500D01*
X-31453400Y33665100D02*
X-31453400Y32435100D01*
D44*
%TO.N,Net 50*%
X52396200Y-19614500D02*
X50386400Y-17604700D01*
X51356800Y-9610800D02*
X51356800Y-7857400D01*
X50386400Y-15439400D02*
X52523000Y-13302800D01*
X51356800Y-7857400D02*
X49440200Y-5940800D01*
X52523000Y-13302800D02*
X52523000Y-10777000D01*
X52396200Y-21246600D02*
X52396200Y-19614400D01*
X50386400Y-17604600D02*
X50386400Y-15439400D01*
X52523000Y-10777000D02*
X51356800Y-9610800D01*
%TO.N,Net 6*%
X47790200Y15914700D02*
X45440200Y18264700D01*
X50768800Y9612000D02*
X47790200Y12590600D01*
D45*
X-27171700Y27781100D02*
X-27171700Y27206900D01*
D44*
X47790200Y12590500D02*
X47790200Y15914700D01*
D45*
X-27171700Y27207000D02*
X-27633300Y26745400D01*
X-25865600Y28437800D02*
X-26515000Y28437800D01*
D44*
X50768700Y2715600D02*
X50768700Y9612000D01*
D45*
X-26514900Y28437900D02*
X-27171700Y27781100D01*
%TO.N,Net (P1)*%
X-19326300Y9946800D02*
X-19326300Y15325400D01*
D44*
X-20422300Y15007200D02*
X-24357100Y18942000D01*
D45*
X-19326300Y15325300D02*
X-26572700Y22571700D01*
X-28700600Y17151100D02*
X-25994600Y17151100D01*
X-37944900Y31859200D02*
X-40676900Y29127200D01*
D44*
X-20799700Y10067000D02*
X-20799700Y10665400D01*
X-20422300Y11042800D02*
X-20422300Y15007200D01*
D45*
X-40676800Y29127300D02*
X-28700600Y17151100D01*
D44*
X-20247500Y9514800D02*
X-19758300Y9514800D01*
X-19758300Y9514800D02*
X-19326300Y9946800D01*
D45*
X-24357100Y18942000D02*
X-27279700Y21864600D01*
D44*
X-20799700Y10665400D02*
X-20422300Y11042800D01*
D45*
X-24357100Y18788700D02*
X-24357100Y18941900D01*
D44*
X-20799700Y10901000D02*
X-20657900Y11042800D01*
D45*
X-25994600Y17151100D02*
X-24357000Y18788700D01*
X-37944900Y32435100D02*
X-37944900Y31859100D01*
%TO.N,Net 58*%
X-30039200Y29968100D02*
X-30392800Y29614500D01*
X-30039200Y32435100D02*
X-30039200Y29968100D01*
X-24097800Y28314700D02*
X-24649800Y28314700D01*
X-24649800Y28314700D02*
X-26926200Y26038300D01*
%TO.N,Net 27*%
X-31278200Y26391700D02*
X-31099800Y26391700D01*
X-22885100Y26391700D02*
X-24299300Y24977500D01*
X55934200Y8618600D02*
X55934200Y6224400D01*
X55934200Y6224400D02*
X56268000Y5890600D01*
X-20673600Y29723000D02*
X-21374200Y29022400D01*
X-22680800Y26391700D02*
X-22885200Y26391700D01*
X-20394500Y30115900D02*
X-19610900Y30899500D01*
X-20673600Y30115900D02*
X-20673600Y29723100D01*
X-20673600Y30115900D02*
X-20394600Y30115900D01*
X-31099700Y26391700D02*
X-30392700Y25684700D01*
%TO.N,Net 55*%
X-23037200Y27098900D02*
X-25512000Y24624100D01*
X-33003400Y28314700D02*
X-31004000Y28314700D01*
X-22323600Y27098900D02*
X-23037200Y27098900D01*
X-31004000Y28314700D02*
X-29202800Y30115900D01*
X-25340600Y30115900D02*
X-22323600Y27098900D01*
X-34620600Y32435100D02*
X-33003300Y32435100D01*
X-29202800Y30115900D02*
X-25340600Y30115900D01*
X-33003400Y32435100D02*
X-33003400Y28314700D01*
D44*
%TO.N,Net 13*%
X46453400Y752000D02*
X46453400Y2488600D01*
X51623200Y-5507800D02*
X51181200Y-5507800D01*
X53531600Y-4641800D02*
X52665600Y-3775800D01*
X52665600Y-4465400D02*
X51623200Y-5507800D01*
X46453400Y2488700D02*
X47980200Y4015500D01*
X54015600Y-4641800D02*
X53531600Y-4641800D01*
X52665600Y-3775800D02*
X52665600Y-4465400D01*
X51181200Y-5507800D02*
X50748200Y-5074800D01*
%TO.N,Net 42*%
X51981500Y-3542800D02*
X51981500Y-3640000D01*
X54765600Y-3342800D02*
X53780400Y-3342800D01*
X53780400Y-3342800D02*
X53515600Y-3078000D01*
X51981500Y-3640000D02*
X51456100Y-4165400D01*
%TO.N,Net 51*%
X38904600Y-11654800D02*
X41134600Y-11654800D01*
X34406000Y-21024800D02*
X35264800Y-20166000D01*
X46759600Y-13035700D02*
X46050800Y-12326900D01*
X35264800Y-17335300D02*
X38212400Y-14387700D01*
X30871500Y-19474800D02*
X30871500Y-21502600D01*
X28166300Y-17162400D02*
X28208900Y-17205000D01*
X35264800Y-20166000D02*
X35264800Y-17335400D01*
X26792100Y-17729200D02*
X27358900Y-17162400D01*
X28166300Y-19332200D02*
X29858900Y-21024800D01*
X29858900Y-18462200D02*
X30871500Y-19474800D01*
X28208900Y-18823900D02*
X27552700Y-18823900D01*
X51783700Y-14492600D02*
X52625500Y-13650800D01*
X31284000Y-21915100D02*
X32911200Y-21915100D01*
X53819200Y-18751600D02*
X53614800Y-18751600D01*
X52625400Y-17254200D02*
X52396200Y-17025000D01*
X28166300Y-18823900D02*
X28166300Y-19332100D01*
X27358900Y-17162400D02*
X28166300Y-17162400D01*
X30871500Y-21502500D02*
X31284100Y-21915100D01*
X52396200Y-17025000D02*
X51783800Y-16412600D01*
X32911100Y-21393200D02*
X33279500Y-21024800D01*
X28208900Y-17205000D02*
X29858900Y-17205000D01*
X51783800Y-16412600D02*
X51783800Y-14492600D01*
X42485100Y-12677400D02*
X43692300Y-12677400D01*
X51783800Y-13035700D02*
X46759600Y-13035700D01*
X52785200Y-19335400D02*
X52785200Y-20310600D01*
X27552600Y-18823900D02*
X26792200Y-18063500D01*
X33279600Y-21024800D02*
X34406000Y-21024800D01*
X52625400Y-17762300D02*
X52625400Y-17254300D01*
X32911200Y-21915100D02*
X32911200Y-21393100D01*
X53819200Y-18751600D02*
X53369000Y-18751600D01*
X52785200Y-20310600D02*
X52881200Y-20406600D01*
X53614700Y-18751500D02*
X52625500Y-17762300D01*
X53369000Y-18751600D02*
X52785200Y-19335400D01*
X26792200Y-18063400D02*
X26792200Y-17729200D01*
X43692300Y-12677400D02*
X44218900Y-12150800D01*
X46050800Y-12326900D02*
X44900000Y-12326900D01*
X53819200Y-18751500D02*
X53819200Y-18592500D01*
X29858900Y-17205000D02*
X29858900Y-18462200D01*
%TO.N,Net 45*%
X53334200Y-17040300D02*
X53334200Y-17106500D01*
X53334300Y-17106500D02*
X54237300Y-18009500D01*
D45*
%TO.N,Net 57*%
X-36270700Y30646700D02*
X-33405100Y27781100D01*
X-24097800Y22218200D02*
X-25512000Y23632400D01*
X-19852000Y22218200D02*
X-24097800Y22218200D01*
X-19123600Y32435100D02*
X-19123600Y27109700D01*
X-19123600Y27109700D02*
X-18405600Y26391700D01*
X-36270700Y32435100D02*
X-36270700Y30646700D01*
D44*
%TO.N,GND*%
X52411300Y13640500D02*
X51898700Y13640500D01*
X-38650600Y28416300D02*
X-31745400Y21511100D01*
X50379200Y-19467700D02*
X50386300Y-19474900D01*
X51868600Y11714500D02*
X51868600Y12270900D01*
X-31745400Y21511100D02*
X-31453400Y21511100D01*
X55515600Y-2018500D02*
X54765600Y-1268500D01*
X65222300Y1306800D02*
X64894100Y978600D01*
X-36123400Y29560300D02*
X-36437800Y29560300D01*
X51011300Y16065400D02*
X51011300Y15553000D01*
X65882100Y2026000D02*
X65632500Y2275600D01*
X42817200Y-15662600D02*
X43855200Y-15662600D01*
X48009400Y-16577000D02*
X47423800Y-17162600D01*
X-36437800Y29560300D02*
X-37302800Y30425300D01*
X50324100Y-2043700D02*
X51588300Y-2043700D01*
X45806500Y-19445800D02*
X46770300Y-18482000D01*
X49286400Y13453000D02*
X49286400Y13965400D01*
X33279500Y-19474800D02*
X33279500Y-15808600D01*
X-37302800Y30425200D02*
X-38067800Y30425200D01*
D45*
X29859600Y-21024800D02*
X31024600Y-22189800D01*
D44*
X47860300Y-22189800D02*
X49391700Y-20658400D01*
X43799600Y-13823400D02*
X44805200Y-14829000D01*
X49798900Y15365400D02*
X50311300Y15365400D01*
X43068000Y-18703000D02*
X43792000Y-17979000D01*
X50498800Y14153000D02*
X51898800Y14153000D01*
X51898800Y13640600D02*
X51198800Y12940600D01*
X55515600Y2598100D02*
X55515800Y2598300D01*
X52265600Y-7672900D02*
X51623200Y-7672900D01*
X51898900Y14152900D02*
X52411300Y13640500D01*
X51011300Y15553000D02*
X51711300Y14853000D01*
X51868600Y12270800D02*
X51198800Y12940600D01*
X54765600Y-1268500D02*
X53749200Y-1268500D01*
X49578400Y-17979000D02*
X49642800Y-17914600D01*
X43792000Y-13287200D02*
X43799600Y-13279600D01*
X-31453400Y21511100D02*
X-30392800Y22571700D01*
X42575300Y18264700D02*
X41411300Y18264700D01*
X35264800Y-13823300D02*
X43799600Y-13823300D01*
X45755200Y-15662600D02*
X45755400Y-15662400D01*
X43792000Y-17979000D02*
X49578400Y-17979000D01*
X-38067700Y30425300D02*
X-38650700Y29842300D01*
X52973900Y-2043700D02*
X52281100Y-2736500D01*
X31729500Y-19474800D02*
X31729500Y-16810400D01*
X45755200Y-17162600D02*
X45755400Y-17162400D01*
X64894000Y1537000D02*
X65632600Y2275600D01*
X62644100Y-2918600D02*
X62644100Y-1271400D01*
X49986400Y12240500D02*
X49986400Y13640500D01*
X49607000Y-3342800D02*
X49607000Y-2760800D01*
X55515600Y-2043700D02*
X55515600Y-2018500D01*
X55515600Y-948800D02*
X55515600Y2598000D01*
X50076100Y-19770900D02*
X50379300Y-19467700D01*
X41401000Y-19445700D02*
X42143800Y-18702900D01*
X-38650700Y29842300D02*
X-38650700Y28416300D01*
X53749100Y-1268500D02*
X52973900Y-2043700D01*
X51181200Y-17002100D02*
X51783800Y-17604700D01*
X43799600Y-13279600D02*
X45743000Y-13279600D01*
X42143800Y-18702900D02*
X43068000Y-18702900D01*
X48586500Y14665400D02*
X49986500Y14665400D01*
X49986500Y14665400D02*
X50498900Y14153000D01*
X50324100Y-4059800D02*
X49607100Y-3342800D01*
X41411200Y18264700D02*
X40360200Y17213700D01*
X49986400Y12240500D02*
X50498800Y12240500D01*
X55515600Y-948800D02*
X55515800Y-948600D01*
X51588300Y-2043700D02*
X52281100Y-2736500D01*
X49286400Y13453000D02*
X49286400Y12940400D01*
X31729500Y-16810400D02*
X31741700Y-16810400D01*
X49286400Y12940500D02*
X49986400Y12240500D01*
X47423800Y-17162600D02*
X45755200Y-17162600D01*
X65632600Y3922700D02*
X67882600Y6172700D01*
X35264800Y-13287300D02*
X43792000Y-13287300D01*
X45743000Y-13279600D02*
X48009400Y-15546000D01*
X45456500Y-19445700D02*
X45806500Y-19445700D01*
X49888500Y-17914600D02*
X50379300Y-18405400D01*
D43*
X50498900Y15553000D02*
X51011300Y16065400D01*
D44*
X49607100Y-2760800D02*
X50324100Y-2043800D01*
X51711300Y14853000D02*
X51711300Y14340600D01*
X44024200Y-18482000D02*
X44024200Y-18396200D01*
X48586400Y14665400D02*
X49098800Y14665400D01*
X47263500Y-15662600D02*
X45755300Y-15662600D01*
X50324100Y-6373800D02*
X50324100Y-4059800D01*
X44805200Y-14829000D02*
X44805200Y-16412600D01*
X49642900Y-17914600D02*
X49888500Y-17914600D01*
X50311300Y15365400D02*
X51011300Y16065400D01*
X50498800Y12240600D02*
X51198800Y12940600D01*
X51623100Y-7672900D02*
X50324100Y-6373900D01*
X55515600Y-2043800D02*
X55515600Y-948800D01*
X62644100Y-1271400D02*
X64894100Y978600D01*
X43031400Y-19474800D02*
X44024200Y-18482000D01*
X65882100Y1306800D02*
X65882100Y2026000D01*
X33279400Y-15808700D02*
X35264800Y-13823300D01*
X31024600Y-22189900D02*
X47860200Y-22189900D01*
X65882100Y1306800D02*
X65222300Y1306800D01*
X55515600Y-948800D02*
X56268000Y-196400D01*
X50379300Y-18405300D02*
X50379300Y-19467700D01*
X53947000Y-14387700D02*
X52986800Y-14387700D01*
X65632600Y2275500D02*
X65632600Y3922700D01*
X40533700Y-19445700D02*
X41401100Y-19445700D01*
X55515500Y2598200D02*
X56267900Y3350600D01*
D43*
X50498900Y14153000D02*
X50498900Y15553000D01*
D44*
X49098900Y14665400D02*
X49798900Y15365400D01*
X50076100Y-20224400D02*
X50076100Y-19770800D01*
X51181200Y-16412600D02*
X51181200Y-17002200D01*
X51711300Y14340500D02*
X52411300Y13640500D01*
X44805200Y-16412600D02*
X44805400Y-16412400D01*
X64894100Y978600D02*
X64894100Y1537000D01*
X49986400Y13640600D02*
X50498800Y14153000D01*
X48009400Y-15546000D02*
X48009400Y-16577000D01*
X49286400Y13965400D02*
X48586400Y14665400D01*
D45*
X28308900Y-21024800D02*
X29859500Y-21024800D01*
D44*
X52986800Y-14387700D02*
X52265600Y-15108900D01*
X31741600Y-16810400D02*
X35264800Y-13287200D01*
%TO.N,Net 48*%
X66020600Y7247700D02*
X66020600Y9415700D01*
X66020600Y9415600D02*
X63770600Y11665600D01*
X63770600Y4997700D02*
X66020600Y7247700D01*
X63770600Y3350500D02*
X63770600Y4997700D01*
%TO.N,Net 60*%
X54068500Y15553000D02*
X53315800Y15553000D01*
X37059100Y31668600D02*
X36633700Y32094000D01*
D45*
X-33979700Y26877400D02*
X-32999700Y26877400D01*
X-32999700Y26877400D02*
X-31099900Y24977600D01*
D44*
X54068300Y7030000D02*
X52061300Y9037000D01*
X53524900Y12060500D02*
X54754900Y13290500D01*
X54754900Y13290600D02*
X54754900Y14866600D01*
X54068300Y4620600D02*
X54068300Y7030000D01*
X37059000Y30274800D02*
X37059000Y31668600D01*
X53315800Y15553000D02*
X48404400Y20464400D01*
X47612100Y20464400D02*
X48404400Y20464400D01*
X54754900Y14866600D02*
X54068500Y15553000D01*
X53524900Y10973700D02*
X53524900Y12060500D01*
X52061300Y9510200D02*
X53524900Y10973800D01*
X52061300Y9037000D02*
X52061300Y9510200D01*
D45*
%TO.N,Net 59*%
X-23165500Y26391700D02*
X-23192700Y26391700D01*
X-22461700Y27894500D02*
X-21666100Y27098900D01*
X-26070400Y27601100D02*
X-27279800Y26391700D01*
X-23679500Y32435100D02*
X-23679500Y31249900D01*
X-24299400Y31249900D02*
X-24649800Y30899500D01*
X-22461600Y27960500D02*
X-22461600Y27894500D01*
X-23192800Y26391700D02*
X-23899800Y25684700D01*
X-22458300Y27098900D02*
X-23165500Y26391700D01*
X-23679500Y31250000D02*
X-24299300Y31250000D01*
X-21666100Y27098900D02*
X-22458300Y27098900D01*
X-25865500Y27601100D02*
X-26070500Y27601100D01*
D43*
%TO.N,Net 22*%
X52968400Y9258500D02*
X52968400Y9423900D01*
X54940400Y13065400D02*
X55934200Y14059200D01*
X55168100Y5255600D02*
X55168100Y7058800D01*
X55168200Y7058800D02*
X52968400Y9258600D01*
X52968400Y9424000D02*
X54754900Y11210400D01*
X53223500Y16393600D02*
X48586500Y21030600D01*
X54940400Y12590500D02*
X54940400Y13065300D01*
X54068500Y16393600D02*
X53223500Y16393600D01*
X55934200Y14527900D02*
X54068500Y16393500D01*
X54754900Y12405100D02*
X54940300Y12590500D01*
X54754900Y11210400D02*
X54754900Y12405000D01*
X55934200Y14059200D02*
X55934200Y14527800D01*
D44*
%TO.N,Net 3*%
X59350200Y-2180600D02*
X59934800Y-2180600D01*
X60782100Y-1843600D02*
X59706500Y-1843600D01*
X60297300Y-2328400D02*
X60782100Y-1843600D01*
X43031400Y-21024800D02*
X43353200Y-21024800D01*
X40675400Y14059200D02*
X41630200Y15014000D01*
X-30392800Y21157500D02*
X-29685600Y21864700D01*
X60782100Y-196400D02*
X63032100Y2053600D01*
X60297300Y-2543000D02*
X60297300Y-2328400D01*
X-30392800Y21157500D02*
X-30392600Y21157700D01*
X39690600Y14059200D02*
X40675400Y14059200D01*
X59706600Y-1843600D02*
X57367800Y495200D01*
X43353200Y-21024800D02*
X44024200Y-20353800D01*
X39690600Y14059200D02*
X39690600Y12119600D01*
X59934900Y-2180600D02*
X60297300Y-2543000D01*
X60782100Y-1843600D02*
X60782100Y-196400D01*
%TO.N,Net 44*%
X38564800Y-20166000D02*
X38564800Y-15294000D01*
X50958600Y-6132300D02*
X51817800Y-6132300D01*
X39471200Y-14387600D02*
X39471400Y-14387400D01*
X38564800Y-15294000D02*
X39471200Y-14387600D01*
X51817800Y-6132300D02*
X52665600Y-6980100D01*
D45*
%TO.N,Net 20*%
X-26103600Y33257700D02*
X-26926200Y32435100D01*
X-26926200Y32435100D02*
X-26926200Y30899500D01*
X-20020100Y28107500D02*
X-19610900Y27698300D01*
D44*
X51361300Y9816300D02*
X52968500Y11423500D01*
D45*
X-17535200Y32828500D02*
X-17964400Y33257700D01*
D44*
X52968400Y11423500D02*
X52968400Y12446700D01*
X52968400Y3985600D02*
X52968400Y7429800D01*
X48334300Y18712800D02*
X46933700Y20113400D01*
X54068500Y13546800D02*
X54068500Y14194800D01*
D45*
X-17964400Y33257700D02*
X-26103600Y33257700D01*
D44*
X51361300Y9037000D02*
X51361300Y9816400D01*
D45*
X-17535200Y29336000D02*
X-17535200Y32828600D01*
D44*
X52968500Y12446700D02*
X54068500Y13546700D01*
D45*
X-26926200Y30899500D02*
X-27484600Y30341100D01*
X-27484600Y27601100D02*
X-27986800Y27098900D01*
D44*
X49550700Y18712700D02*
X54068500Y14194800D01*
X49550700Y18712700D02*
X48334400Y18712700D01*
X52968500Y7429800D02*
X51361300Y9037000D01*
D45*
X-27484600Y29839900D02*
X-27484600Y27601100D01*
X-20020100Y29335900D02*
X-20020100Y28107500D01*
D44*
%TO.N,Net 40*%
X41779400Y-17979000D02*
X41779400Y-17914600D01*
X41779400Y-17914600D02*
X43031400Y-16662600D01*
X43031400Y-16662600D02*
X43855200Y-16662600D01*
%TO.N,Net 49*%
X29858900Y-18823900D02*
X30110900Y-18823900D01*
X30871500Y-18063300D02*
X30871500Y-17335300D01*
X41134600Y-12677400D02*
X42157200Y-11654800D01*
X42817200Y-9610800D02*
X44219000Y-9610800D01*
X35264800Y-12677400D02*
X41134600Y-12677400D01*
X29858900Y-18823900D02*
X29858900Y-18347900D01*
X42157200Y-10666800D02*
X42143800Y-10653400D01*
X30110900Y-18823900D02*
X30871500Y-18063300D01*
X42157200Y-11654800D02*
X42157200Y-10666800D01*
X29858900Y-18347900D02*
X30871500Y-17335300D01*
X30871500Y-17070700D02*
X30871500Y-17335300D01*
X30871500Y-17070700D02*
X35264800Y-12677400D01*
X42143800Y-10284200D02*
X42817200Y-9610800D01*
X42143800Y-10653400D02*
X42143800Y-10284200D01*
D45*
%TO.N,Net 39*%
X-22323600Y29596000D02*
X-17351600Y24624000D01*
X44024200Y-19682800D02*
X43353200Y-20353800D01*
D44*
X41779400Y-19976000D02*
X41779400Y-19975700D01*
D45*
X51356800Y-21095700D02*
X52396200Y-22135100D01*
D44*
X41612500Y16731200D02*
X40995100Y16113800D01*
D45*
X-24848400Y30622700D02*
X-22830400Y30622700D01*
X42157200Y-20353800D02*
X41779400Y-19976000D01*
D44*
X-21374200Y31417800D02*
X-20020200Y31417800D01*
D45*
X52396200Y-22135100D02*
X52785200Y-21746100D01*
X-17351500Y23477800D02*
X-19524100Y21305200D01*
D44*
X39910400Y-20224400D02*
X41530600Y-20224400D01*
D45*
X52785200Y-21509500D02*
X53199000Y-21095700D01*
D44*
X40533700Y-16011200D02*
X40533700Y-18063400D01*
X41779400Y-19976000D02*
X41779400Y-19975700D01*
X41779400Y-14829000D02*
X40585400Y-14829000D01*
D45*
X54000200Y-19699100D02*
X54000200Y-19443300D01*
X50379300Y-21095700D02*
X51356900Y-21095700D01*
D44*
X41779400Y-14829000D02*
X41779400Y-15715200D01*
X42143800Y-16162600D02*
X43855200Y-16162600D01*
D45*
X-25276200Y31050500D02*
X-24848400Y30622700D01*
D44*
X40533700Y-20995700D02*
X40533700Y-21432500D01*
D45*
X-17351600Y24624000D02*
X-17351600Y23477800D01*
D43*
X40533700Y-16011200D02*
X40597100Y-16011200D01*
D44*
X46050800Y-20658400D02*
X45793800Y-20658400D01*
X-31745400Y23632300D02*
X-37673400Y29560300D01*
X-31453400Y23632400D02*
X-31745400Y23632400D01*
X41779400Y-15798200D02*
X42143800Y-16162600D01*
X-22323600Y30115900D02*
X-22323600Y30468500D01*
D45*
X54237300Y-19206100D02*
X54237300Y-19042700D01*
X38983500Y-19324800D02*
X39133500Y-19474800D01*
D44*
X40533700Y-21432500D02*
X41016300Y-21915100D01*
X42575300Y16731100D02*
X41612500Y16731100D01*
X47612100Y21767900D02*
X42575300Y16731100D01*
D45*
X-23891900Y21305200D02*
X-25865500Y23278800D01*
X-22830400Y30622700D02*
X-22323600Y30115900D01*
D44*
X38904600Y-9610800D02*
X38904600Y14023200D01*
D43*
X40597200Y-16011200D02*
X41779400Y-14829000D01*
D45*
X53630400Y-20068900D02*
X54000200Y-19699100D01*
X54722300Y-18228900D02*
X54722300Y-17762300D01*
D44*
X36373800Y-19785400D02*
X36373800Y-18703000D01*
X40585400Y-14829000D02*
X39699200Y-15715200D01*
X45456600Y-20907300D02*
X44024200Y-19474900D01*
X45793900Y-20658300D02*
X45456500Y-20995700D01*
D45*
X39133500Y-19474800D02*
X39133500Y-21273800D01*
X53199000Y-21095700D02*
X53199000Y-20837900D01*
D44*
X48729300Y-19445700D02*
X50379300Y-21095700D01*
X47612100Y30899500D02*
X47612100Y21767900D01*
X45456500Y-20995700D02*
X45456500Y-20907300D01*
D45*
X44024200Y-19474900D02*
X44024200Y-19682800D01*
X38904600Y-21502600D02*
X38091000Y-21502600D01*
D44*
X39471400Y-19125700D02*
X39471400Y-19785500D01*
X41016300Y-21915100D02*
X44537100Y-21915100D01*
X41779400Y-15715200D02*
X41779400Y-15798200D01*
D45*
X54722300Y-17169500D02*
X54722500Y-17169300D01*
D44*
X-20020100Y31417900D02*
X-20020100Y31577900D01*
D43*
X41779400Y-19975900D02*
X41779600Y-19975700D01*
D44*
X47263400Y-19445700D02*
X46050800Y-20658300D01*
X47612100Y-19445700D02*
X48729300Y-19445700D01*
X54722300Y-17169500D02*
X54722300Y-16956300D01*
D45*
X54528500Y-18751500D02*
X54528500Y-18422700D01*
D44*
X39471400Y-19785400D02*
X39910400Y-20224400D01*
X40533800Y-18063300D02*
X39471400Y-19125700D01*
D45*
X54000100Y-19443300D02*
X54237300Y-19206100D01*
X38983500Y-19125600D02*
X38983500Y-19324800D01*
X54722300Y-17762300D02*
X54722300Y-17169500D01*
D44*
X39699200Y-15715200D02*
X39699200Y-18410000D01*
X47612100Y-19445700D02*
X47263500Y-19445700D01*
D45*
X-22323600Y30115900D02*
X-22323600Y29596100D01*
X38091000Y-21502600D02*
X36373800Y-19785400D01*
X54237300Y-19042700D02*
X54528500Y-18751500D01*
D44*
X44537100Y-21915100D02*
X45456500Y-20995700D01*
D45*
X43353200Y-20353800D02*
X42157200Y-20353800D01*
D44*
X40098700Y15217400D02*
X40995100Y16113800D01*
D45*
X54528500Y-18422700D02*
X54722300Y-18228900D01*
D44*
X38904600Y14023200D02*
X40995100Y16113800D01*
D45*
X53199000Y-20838000D02*
X53630400Y-20406600D01*
D44*
X-22323600Y30468400D02*
X-21374200Y31417800D01*
D45*
X39133400Y-21273800D02*
X38904600Y-21502600D01*
X52785200Y-21746100D02*
X52785200Y-21509500D01*
X53630400Y-20406600D02*
X53630400Y-20068800D01*
D44*
X39699200Y-18410000D02*
X38983600Y-19125600D01*
X41530600Y-20224500D02*
X41779400Y-19975700D01*
D45*
X-19524100Y21305200D02*
X-23891900Y21305200D01*
X-25276200Y32435100D02*
X-25276200Y31050500D01*
%TO.N,Net 52*%
X47423800Y-16726300D02*
X47423800Y-16666100D01*
D44*
X37812400Y-18310700D02*
X35690200Y-18310500D01*
D45*
X34190200Y-18823900D02*
X34703400Y-18310700D01*
X34190100Y-19975700D02*
X34190100Y-18823900D01*
X32708900Y-20224400D02*
X33941500Y-20224400D01*
X47423800Y-16666100D02*
X46770200Y-16012500D01*
X31908500Y-21024800D02*
X32708900Y-20224400D01*
D44*
X55699100Y-15564000D02*
X55243900Y-15108800D01*
X51461500Y-13651000D02*
X51461500Y-13703000D01*
D45*
X33941400Y-20224400D02*
X34190100Y-19975700D01*
D43*
X46770300Y-16012600D02*
X45905300Y-16012600D01*
D44*
X55699100Y-15564000D02*
X55631900Y-15564000D01*
X55244000Y-15108900D02*
X54995000Y-15108900D01*
X51461500Y-13702900D02*
X48124100Y-17040300D01*
D45*
X31729500Y-21024800D02*
X31908500Y-21024800D01*
D44*
%TO.N,Net 5*%
X50379300Y-19445700D02*
X49391700Y-19445700D01*
D45*
X43031400Y-17986400D02*
X43855200Y-17162600D01*
D44*
X49391700Y-19445700D02*
X48342100Y-18396100D01*
D45*
X43031400Y-18063400D02*
X43031400Y-17986400D01*
D44*
%TO.N,Net 14*%
X53015600Y-3342700D02*
X53015600Y-2564900D01*
D45*
X53765600Y-5074800D02*
X53302400Y-5074800D01*
D44*
X53015600Y-2564900D02*
X53265600Y-2314900D01*
D45*
X53302500Y-5074800D02*
X52965300Y-4737600D01*
D44*
X48425000Y1337000D02*
X48425000Y1862200D01*
X54265600Y-4208800D02*
X53881600Y-4208800D01*
X53881600Y-4208800D02*
X53015600Y-3342800D01*
X47993400Y2293800D02*
X48615200Y2915600D01*
X48425000Y1862200D02*
X47993400Y2293800D01*
X48425000Y-9000D02*
X48425000Y1337000D01*
%TD*%
%TA.AperFunction,Conductor*%
%TO.N,GND*%
G36*
X-37229000Y30535000D02*
G01*
X-38194000Y30535000D01*
X-38271000Y30720000D01*
X-37571000Y31420000D01*
X-37563000Y31427000D01*
X-37514000Y31463000D01*
X-37484000Y31477000D01*
X-37461000Y31481000D01*
X-37462000Y31481000D01*
X-37411000Y31498000D01*
X-37337000Y31531000D01*
X-37327000Y31537000D01*
X-37261000Y31583000D01*
X-37215000Y31622000D01*
X-37170000Y31667000D01*
X-37046000Y31667000D01*
X-37001000Y31622000D01*
X-36943000Y31573000D01*
X-36935000Y31567000D01*
X-36884000Y31536000D01*
X-36846000Y31468000D01*
X-36846000Y30691000D01*
X-36847000Y30679000D01*
X-36856000Y30623000D01*
X-36856000Y30542000D01*
X-36998000Y30454000D01*
X-37075000Y30493000D01*
X-37081000Y30495000D01*
X-37130000Y30512000D01*
X-37132000Y30512000D01*
X-37136000Y30513000D01*
X-37229000Y30535000D01*
G37*
%TD.AperFunction*%
%TA.AperFunction,Conductor*%
G36*
X51546000Y4608000D02*
G01*
X51396000Y4694000D01*
X51396000Y7852000D01*
X51581000Y7929000D01*
X52318000Y7193000D01*
X52341000Y7138000D01*
X52341000Y5114000D01*
X52301000Y5044000D01*
X52066000Y4908000D01*
X51546000Y4608000D01*
G37*
%TD.AperFunction*%
%TA.AperFunction,Conductor*%
G36*
X34079000Y-22076000D02*
G01*
X34006000Y-21882000D01*
X34092000Y-21806000D01*
X34093000Y-21805000D01*
X34142000Y-21747000D01*
X34179000Y-21689000D01*
X34246000Y-21652000D01*
X34443000Y-21652000D01*
X34471000Y-21653000D01*
X34517000Y-21640000D01*
X34526000Y-21638000D01*
X34596000Y-21628000D01*
X34601000Y-21626000D01*
X34626000Y-21614000D01*
X34639000Y-21609000D01*
X34663000Y-21603000D01*
X34667000Y-21601000D01*
X34706000Y-21576000D01*
X34712000Y-21573000D01*
X34768000Y-21544000D01*
X34771000Y-21543000D01*
X34798000Y-21515000D01*
X34814000Y-21503000D01*
X34816000Y-21502000D01*
X35029000Y-21289000D01*
X35084000Y-21266000D01*
X36215000Y-21266000D01*
X36215000Y-20702000D01*
X36400000Y-20625000D01*
X37661000Y-21886000D01*
X37584000Y-22071000D01*
X34079000Y-22076000D01*
G37*
%TD.AperFunction*%
%TA.AperFunction,Conductor*%
G36*
X-33763000Y28952000D02*
G01*
X-35673000Y30862000D01*
X-35696000Y30917000D01*
X-35696000Y31464000D01*
X-35663000Y31529000D01*
X-35593000Y31579000D01*
X-35550000Y31616000D01*
X-35512000Y31654000D01*
X-35395000Y31659000D01*
X-35286000Y31568000D01*
X-35230000Y31533000D01*
X-35164000Y31501000D01*
X-35163000Y31500000D01*
X-35114000Y31484000D01*
X-35108000Y31483000D01*
X-35034000Y31465000D01*
X-34980000Y31460000D01*
X-34259000Y31460000D01*
X-34208000Y31465000D01*
X-34206000Y31466000D01*
X-34204000Y31466000D01*
X-34138000Y31480000D01*
X-34139000Y31480000D01*
X-34083000Y31500000D01*
X-34080000Y31501000D01*
X-34013000Y31531000D01*
X-34003000Y31537000D01*
X-33943000Y31579000D01*
X-33894000Y31620000D01*
X-33785000Y31622000D01*
X-33727000Y31574000D01*
X-33615000Y31503000D01*
X-33578000Y31436000D01*
X-33578000Y29029000D01*
X-33763000Y28952000D01*
G37*
%TD.AperFunction*%
%TA.AperFunction,Conductor*%
G36*
X52341000Y12499000D02*
G01*
X52341000Y11716000D01*
X52318000Y11661000D01*
X51025000Y10367000D01*
X50901000Y10367000D01*
X49279000Y11989000D01*
X49396000Y12189000D01*
X49540000Y12148000D01*
X49734000Y12148000D01*
X49934000Y12204000D01*
X50012000Y12184000D01*
X50163000Y12033000D01*
X50319000Y11942000D01*
X50503000Y11892000D01*
X50689000Y11892000D01*
X50862000Y11941000D01*
X50866000Y11942000D01*
X51022000Y12033000D01*
X51150000Y12161000D01*
X51241000Y12317000D01*
X51291000Y12494000D01*
X51291000Y12608000D01*
X51438000Y12695000D01*
X51530000Y12644000D01*
X51542000Y12639000D01*
X51709000Y12592000D01*
X51895000Y12592000D01*
X52079000Y12642000D01*
X52195000Y12709000D01*
X52345000Y12623000D01*
X52345000Y12525000D01*
X52344000Y12510000D01*
X52341000Y12499000D01*
G37*
%TD.AperFunction*%
%TA.AperFunction,Conductor*%
G36*
X-31273000Y28890000D02*
G01*
X-32340000Y28890000D01*
X-32428000Y28978000D01*
X-32428000Y31441000D01*
X-32383000Y31513000D01*
X-32345000Y31532000D01*
X-32272000Y31579000D01*
X-32184000Y31579000D01*
X-32108000Y31530000D01*
X-32044000Y31502000D01*
X-32042000Y31501000D01*
X-31986000Y31480000D01*
X-31920000Y31466000D01*
X-31918000Y31466000D01*
X-31916000Y31465000D01*
X-31865000Y31460000D01*
X-31044000Y31460000D01*
X-30990000Y31465000D01*
X-30916000Y31483000D01*
X-30910000Y31484000D01*
X-30861000Y31500000D01*
X-30855000Y31503000D01*
X-30756000Y31553000D01*
X-30614000Y31465000D01*
X-30614000Y30442000D01*
X-30678000Y30361000D01*
X-30709000Y30353000D01*
X-30884000Y30251000D01*
X-31031000Y30104000D01*
X-31033000Y30101000D01*
X-31135000Y29922000D01*
X-31190000Y29717000D01*
X-31190000Y29511000D01*
X-31135000Y29307000D01*
X-31054000Y29165000D01*
X-31067000Y29064000D01*
X-31218000Y28913000D01*
X-31273000Y28890000D01*
G37*
%TD.AperFunction*%
%TA.AperFunction,Conductor*%
G36*
X48098000Y-20390000D02*
G01*
X48101000Y-20390000D01*
X48174000Y-20373000D01*
X48179000Y-20372000D01*
X48229000Y-20356000D01*
X48230000Y-20355000D01*
X48297000Y-20322000D01*
X48357000Y-20285000D01*
X48359000Y-20283000D01*
X48470000Y-20188000D01*
X48588000Y-20192000D01*
X49381000Y-20985000D01*
X49404000Y-21040000D01*
X49404000Y-21460000D01*
X49410000Y-21513000D01*
X49425000Y-21577000D01*
X49426000Y-21581000D01*
X49427000Y-21586000D01*
X49427000Y-21588000D01*
X49431000Y-21603000D01*
X49432000Y-21604000D01*
X49452000Y-21668000D01*
X49486000Y-21738000D01*
X49524000Y-21797000D01*
X49595000Y-21882000D01*
X49515000Y-22055000D01*
X46240000Y-22059000D01*
X46168000Y-21861000D01*
X46270000Y-21776000D01*
X46319000Y-21718000D01*
X46357000Y-21659000D01*
X46391000Y-21589000D01*
X46393000Y-21586000D01*
X46393000Y-21585000D01*
X46408000Y-21539000D01*
X46409000Y-21533000D01*
X46427000Y-21458000D01*
X46432000Y-21410000D01*
X46432000Y-21197000D01*
X46455000Y-21142000D01*
X47177000Y-20419000D01*
X47232000Y-20396000D01*
X48048000Y-20396000D01*
X48098000Y-20390000D01*
G37*
%TD.AperFunction*%
%TA.AperFunction,Conductor*%
G36*
X47457000Y-18496000D02*
G01*
X47143000Y-18496000D01*
X47050000Y-18518000D01*
X47046000Y-18519000D01*
X47044000Y-18519000D01*
X46994000Y-18536000D01*
X46924000Y-18570000D01*
X46851000Y-18617000D01*
X46791000Y-18677000D01*
X46756000Y-18718000D01*
X46712000Y-18781000D01*
X46707000Y-18790000D01*
X46678000Y-18855000D01*
X46677000Y-18858000D01*
X46676000Y-18860000D01*
X46657000Y-18914000D01*
X46642000Y-18985000D01*
X46637000Y-19035000D01*
X46637000Y-19152000D01*
X46614000Y-19207000D01*
X45816000Y-20006000D01*
X45761000Y-20029000D01*
X45729000Y-20029000D01*
X45676000Y-20043000D01*
X45656000Y-20046000D01*
X45515000Y-20046000D01*
X45460000Y-20023000D01*
X44441000Y-19005000D01*
X44311000Y-18911000D01*
X44128000Y-18852000D01*
X43945000Y-18847000D01*
X43940000Y-18848000D01*
X43754000Y-18901000D01*
X43753000Y-18902000D01*
X43643000Y-18977000D01*
X43589000Y-19014000D01*
X43587000Y-19016000D01*
X43472000Y-19164000D01*
X43469000Y-19170000D01*
X43404000Y-19350000D01*
X43404000Y-19351000D01*
X43398000Y-19467000D01*
X43376000Y-19518000D01*
X43138000Y-19756000D01*
X43083000Y-19779000D01*
X42617000Y-19779000D01*
X42537000Y-19717000D01*
X42523000Y-19668000D01*
X42523000Y-19667000D01*
X42419000Y-19490000D01*
X42414000Y-19483000D01*
X42269000Y-19338000D01*
X42075000Y-19227000D01*
X42135000Y-19004000D01*
X42597000Y-19004000D01*
X42678000Y-18999000D01*
X42761000Y-18981000D01*
X42824000Y-18959000D01*
X42825000Y-18958000D01*
X42827000Y-18957000D01*
X42899000Y-18925000D01*
X42980000Y-18873000D01*
X43022000Y-18861000D01*
X43136000Y-18861000D01*
X43341000Y-18807000D01*
X43521000Y-18700000D01*
X43666000Y-18556000D01*
X43671000Y-18549000D01*
X43774000Y-18374000D01*
X43829000Y-18168000D01*
X43829000Y-18033000D01*
X43852000Y-17978000D01*
X44020000Y-17811000D01*
X44075000Y-17788000D01*
X44605000Y-17788000D01*
X44605000Y-17726000D01*
X44693000Y-17638000D01*
X45680000Y-17638000D01*
X45680000Y-17376000D01*
X45768000Y-17288000D01*
X46505000Y-17288000D01*
X46505000Y-17173000D01*
X46730000Y-17115000D01*
X46786000Y-17216000D01*
X46934000Y-17364000D01*
X46937000Y-17366000D01*
X47114000Y-17467000D01*
X47320000Y-17524000D01*
X47447000Y-17524000D01*
X47502000Y-17547000D01*
X47637000Y-17680000D01*
X47713000Y-17722000D01*
X47742000Y-17855000D01*
X47704000Y-17906000D01*
X47596000Y-18093000D01*
X47596000Y-18095000D01*
X47545000Y-18290000D01*
X47545000Y-18408000D01*
X47457000Y-18496000D01*
G37*
%TD.AperFunction*%
%TA.AperFunction,Conductor*%
G36*
X48602000Y15412000D02*
G01*
X48417000Y15489000D01*
X48417000Y15941000D01*
X48419000Y15981000D01*
X48403000Y16038000D01*
X48401000Y16048000D01*
X48393000Y16105000D01*
X48381000Y16128000D01*
X48376000Y16143000D01*
X48369000Y16169000D01*
X48366000Y16176000D01*
X48338000Y16220000D01*
X48333000Y16228000D01*
X48308000Y16279000D01*
X48283000Y16304000D01*
X48270000Y16321000D01*
X48268000Y16325000D01*
X46259000Y18333000D01*
X46240000Y18366000D01*
X46181000Y18579000D01*
X46080000Y18752000D01*
X46079000Y18753000D01*
X45931000Y18902000D01*
X45928000Y18904000D01*
X45848000Y18950000D01*
X45828000Y19097000D01*
X46263000Y19531000D01*
X46387000Y19531000D01*
X46441000Y19477000D01*
X46631000Y19368000D01*
X46828000Y19316000D01*
X46863000Y19296000D01*
X47891000Y18269000D01*
X47894000Y18266000D01*
X47937000Y18219000D01*
X47992000Y18188000D01*
X48001000Y18183000D01*
X48050000Y18147000D01*
X48081000Y18137000D01*
X48094000Y18131000D01*
X48115000Y18120000D01*
X48166000Y18109000D01*
X48173000Y18107000D01*
X48229000Y18090000D01*
X48263000Y18089000D01*
X48272000Y18088000D01*
X48281000Y18086000D01*
X48281000Y18087000D01*
X48289000Y18086000D01*
X48376000Y18086000D01*
X48414000Y18085000D01*
X48424000Y18086000D01*
X49258000Y18086000D01*
X49313000Y18063000D01*
X50819000Y16558000D01*
X50703000Y16358000D01*
X50496000Y16414000D01*
X50309000Y16414000D01*
X50140000Y16366000D01*
X50132000Y16363000D01*
X49979000Y16277000D01*
X49845000Y16143000D01*
X49844000Y16141000D01*
X49752000Y15981000D01*
X49707000Y15806000D01*
X49707000Y15697000D01*
X49555000Y15610000D01*
X49464000Y15664000D01*
X49462000Y15665000D01*
X49289000Y15714000D01*
X49103000Y15714000D01*
X48919000Y15664000D01*
X48763000Y15573000D01*
X48602000Y15412000D01*
G37*
%TD.AperFunction*%
%TA.AperFunction,Conductor*%
G36*
X-29450000Y20281000D02*
G01*
X-29400000Y20267000D01*
X-29396000Y20266000D01*
X-29394000Y20265000D01*
X-29340000Y20253000D01*
X-29335000Y20252000D01*
X-29256000Y20245000D01*
X-29247000Y20245000D01*
X-29169000Y20252000D01*
X-29168000Y20253000D01*
X-29163000Y20254000D01*
X-29104000Y20266000D01*
X-29096000Y20268000D01*
X-29036000Y20288000D01*
X-29032000Y20289000D01*
X-28963000Y20320000D01*
X-28955000Y20324000D01*
X-28906000Y20362000D01*
X-28905000Y20363000D01*
X-28874000Y20386000D01*
X-28866000Y20393000D01*
X-28544000Y20714000D01*
X-28420000Y20714000D01*
X-28105000Y20399000D01*
X-28061000Y20362000D01*
X-28060000Y20361000D01*
X-27999000Y20320000D01*
X-27928000Y20288000D01*
X-27870000Y20268000D01*
X-27862000Y20266000D01*
X-27798000Y20252000D01*
X-27719000Y20244000D01*
X-27715000Y20244000D01*
X-27633000Y20252000D01*
X-27568000Y20266000D01*
X-27560000Y20268000D01*
X-27501000Y20288000D01*
X-27430000Y20320000D01*
X-27370000Y20361000D01*
X-27320000Y20403000D01*
X-27245000Y20478000D01*
X-27199000Y20525000D01*
X-27158000Y20590000D01*
X-27158000Y20591000D01*
X-27097000Y20700000D01*
X-26949000Y20721000D01*
X-25155000Y18927000D01*
X-25155000Y18803000D01*
X-26210000Y17749000D01*
X-26265000Y17726000D01*
X-28431000Y17726000D01*
X-28486000Y17749000D01*
X-31053000Y20316000D01*
X-30893000Y20525000D01*
X-30705000Y20416000D01*
X-30700000Y20414000D01*
X-30496000Y20360000D01*
X-30287000Y20360000D01*
X-30090000Y20412000D01*
X-29869000Y20539000D01*
X-29768000Y20526000D01*
X-29638000Y20396000D01*
X-29621000Y20381000D01*
X-29616000Y20378000D01*
X-29542000Y20322000D01*
X-29449000Y20281000D01*
X-29450000Y20281000D01*
G37*
%TD.AperFunction*%
%TA.AperFunction,Conductor*%
G36*
X47483000Y-14974000D02*
G01*
X48260000Y-14974000D01*
X48353000Y-14952000D01*
X48357000Y-14951000D01*
X48359000Y-14951000D01*
X48407000Y-14935000D01*
X48409000Y-14934000D01*
X48476000Y-14901000D01*
X48531000Y-14867000D01*
X48637000Y-14779000D01*
X48747000Y-14779000D01*
X48842000Y-14861000D01*
X48913000Y-14906000D01*
X48975000Y-14933000D01*
X48978000Y-14935000D01*
X49102000Y-14981000D01*
X49137000Y-15141000D01*
X48113000Y-16164000D01*
X47989000Y-16164000D01*
X47915000Y-16090000D01*
X47729000Y-15982000D01*
X47623000Y-15954000D01*
X47566000Y-15898000D01*
X47514000Y-15708000D01*
X47511000Y-15701000D01*
X47408000Y-15523000D01*
X47264000Y-15379000D01*
X47262000Y-15378000D01*
X47081000Y-15270000D01*
X47080000Y-15270000D01*
X46875000Y-15215000D01*
X46664000Y-15215000D01*
X46459000Y-15269000D01*
X46319000Y-15352000D01*
X46280000Y-15363000D01*
X45873000Y-15363000D01*
X45781000Y-15374000D01*
X45680000Y-15285000D01*
X45680000Y-15188000D01*
X43930000Y-15188000D01*
X43930000Y-15448000D01*
X43842000Y-15536000D01*
X43291000Y-15536000D01*
X43201000Y-15429000D01*
X43226000Y-15285000D01*
X43229000Y-15230000D01*
X43229000Y-14433000D01*
X43226000Y-14374000D01*
X43213000Y-14294000D01*
X43211000Y-14287000D01*
X43180000Y-14197000D01*
X43138000Y-14116000D01*
X43101000Y-14061000D01*
X43048000Y-13998000D01*
X42979000Y-13934000D01*
X42906000Y-13887000D01*
X42903000Y-13886000D01*
X42902000Y-13885000D01*
X42832000Y-13852000D01*
X42754000Y-13826000D01*
X42675000Y-13809000D01*
X42597000Y-13804000D01*
X40962000Y-13804000D01*
X40883000Y-13809000D01*
X40875000Y-13810000D01*
X40803000Y-13826000D01*
X40729000Y-13850000D01*
X40654000Y-13887000D01*
X40576000Y-13937000D01*
X40510000Y-13999000D01*
X40471000Y-14044000D01*
X40404000Y-14135000D01*
X40242000Y-14126000D01*
X40143000Y-13958000D01*
X40143000Y-13957000D01*
X40110000Y-13899000D01*
X39963000Y-13752000D01*
X39780000Y-13644000D01*
X39645000Y-13608000D01*
X39483000Y-13565000D01*
X39517000Y-13304000D01*
X41155000Y-13304000D01*
X41200000Y-13306000D01*
X41258000Y-13290000D01*
X41268000Y-13288000D01*
X41325000Y-13280000D01*
X41348000Y-13268000D01*
X41364000Y-13262000D01*
X41394000Y-13254000D01*
X41440000Y-13225000D01*
X41448000Y-13220000D01*
X41499000Y-13195000D01*
X41523000Y-13170000D01*
X41538000Y-13159000D01*
X41546000Y-13154000D01*
X41646000Y-13053000D01*
X41794000Y-13073000D01*
X41847000Y-13167000D01*
X41992000Y-13312000D01*
X42174000Y-13420000D01*
X42175000Y-13420000D01*
X42380000Y-13475000D01*
X42590000Y-13475000D01*
X42795000Y-13420000D01*
X42797000Y-13420000D01*
X42974000Y-13315000D01*
X43013000Y-13304000D01*
X43713000Y-13304000D01*
X43758000Y-13306000D01*
X43816000Y-13290000D01*
X43826000Y-13288000D01*
X43883000Y-13280000D01*
X43906000Y-13268000D01*
X43922000Y-13262000D01*
X43952000Y-13254000D01*
X43954000Y-13254000D01*
X43999000Y-13225000D01*
X44006000Y-13222000D01*
X44079000Y-13185000D01*
X44113000Y-13177000D01*
X45982000Y-13177000D01*
X46037000Y-13200000D01*
X46325000Y-13488000D01*
X46361000Y-13528000D01*
X46363000Y-13530000D01*
X46426000Y-13566000D01*
X46471000Y-13598000D01*
X46476000Y-13601000D01*
X46500000Y-13609000D01*
X46514000Y-13615000D01*
X46541000Y-13630000D01*
X46593000Y-13640000D01*
X46601000Y-13642000D01*
X46653000Y-13658000D01*
X46685000Y-13659000D01*
X46698000Y-13661000D01*
X46705000Y-13662000D01*
X46715000Y-13663000D01*
X46878000Y-13663000D01*
X46966000Y-13751000D01*
X46966000Y-14458000D01*
X46967000Y-14465000D01*
X46985000Y-14557000D01*
X46988000Y-14568000D01*
X47005000Y-14612000D01*
X47007000Y-14615000D01*
X47035000Y-14679000D01*
X47077000Y-14745000D01*
X47080000Y-14749000D01*
X47127000Y-14805000D01*
X47135000Y-14813000D01*
X47192000Y-14861000D01*
X47263000Y-14906000D01*
X47325000Y-14933000D01*
X47328000Y-14935000D01*
X47375000Y-14953000D01*
X47383000Y-14955000D01*
X47475000Y-14973000D01*
X47483000Y-14974000D01*
G37*
%TD.AperFunction*%
%TA.AperFunction,Conductor*%
G36*
X-31232000Y22054000D02*
G01*
X-31168000Y22035000D01*
X-31164000Y22034000D01*
X-31162000Y22033000D01*
X-31108000Y22021000D01*
X-31103000Y22020000D01*
X-30919000Y22004000D01*
X-30853000Y21824000D01*
X-31031000Y21647000D01*
X-31135000Y21465000D01*
X-31190000Y21260000D01*
X-31190000Y21055000D01*
X-31134000Y20847000D01*
X-31024000Y20654000D01*
X-31232000Y20495000D01*
X-39802000Y29065000D01*
X-39802000Y29189000D01*
X-38808000Y30183000D01*
X-38623000Y30106000D01*
X-38623000Y29091000D01*
X-38601000Y28998000D01*
X-38600000Y28994000D01*
X-38600000Y28992000D01*
X-38585000Y28946000D01*
X-38583000Y28942000D01*
X-38549000Y28872000D01*
X-38511000Y28813000D01*
X-38462000Y28755000D01*
X-38454000Y28747000D01*
X-38397000Y28699000D01*
X-38326000Y28654000D01*
X-38264000Y28627000D01*
X-38262000Y28626000D01*
X-38206000Y28605000D01*
X-38140000Y28591000D01*
X-38138000Y28591000D01*
X-38136000Y28590000D01*
X-38085000Y28585000D01*
X-37618000Y28585000D01*
X-37563000Y28562000D01*
X-32543000Y23543000D01*
X-32543000Y23419000D01*
X-32602000Y23360000D01*
X-31719000Y22477000D01*
X-31705000Y22473000D01*
X-31672000Y22453000D01*
X-31670000Y22452000D01*
X-31667000Y22450000D01*
X-31627000Y22428000D01*
X-31597000Y22398000D01*
X-31577000Y22362000D01*
X-31542000Y22305000D01*
X-31498000Y22256000D01*
X-31409000Y22167000D01*
X-31370000Y22134000D01*
X-31370000Y22135000D01*
X-31305000Y22092000D01*
X-31232000Y22054000D01*
G37*
%TD.AperFunction*%
%TA.AperFunction,Conductor*%
G36*
X31495000Y-18137000D02*
G01*
X31498000Y-18119000D01*
X31499000Y-18108000D01*
X31499000Y-17363000D01*
X31522000Y-17308000D01*
X35502000Y-13327000D01*
X35557000Y-13304000D01*
X38165000Y-13304000D01*
X38200000Y-13563000D01*
X37902000Y-13647000D01*
X37724000Y-13749000D01*
X37575000Y-13898000D01*
X37467000Y-14085000D01*
X37415000Y-14282000D01*
X37395000Y-14317000D01*
X34808000Y-16905000D01*
X34805000Y-16908000D01*
X34772000Y-16936000D01*
X34768000Y-16942000D01*
X34739000Y-16993000D01*
X34735000Y-17000000D01*
X34700000Y-17050000D01*
X34690000Y-17080000D01*
X34685000Y-17092000D01*
X34672000Y-17117000D01*
X34665000Y-17156000D01*
X34662000Y-17165000D01*
X34643000Y-17227000D01*
X34642000Y-17232000D01*
X34641000Y-17276000D01*
X34638000Y-17293000D01*
X34638000Y-17437000D01*
X34577000Y-17518000D01*
X34400000Y-17567000D01*
X34393000Y-17570000D01*
X34215000Y-17672000D01*
X34214000Y-17673000D01*
X34066000Y-17820000D01*
X34065000Y-17821000D01*
X33958000Y-18008000D01*
X33906000Y-18205000D01*
X33906000Y-18263000D01*
X33883000Y-18318000D01*
X33816000Y-18385000D01*
X33806000Y-18393000D01*
X33759000Y-18427000D01*
X33758000Y-18428000D01*
X33704000Y-18519000D01*
X33701000Y-18522000D01*
X33646000Y-18603000D01*
X33645000Y-18606000D01*
X33644000Y-18612000D01*
X33642000Y-18621000D01*
X33641000Y-18623000D01*
X33621000Y-18743000D01*
X33606000Y-18834000D01*
X33613000Y-18870000D01*
X33615000Y-18885000D01*
X33615000Y-19561000D01*
X33527000Y-19649000D01*
X32747000Y-19649000D01*
X32735000Y-19648000D01*
X32688000Y-19640000D01*
X32686000Y-19641000D01*
X32591000Y-19663000D01*
X32589000Y-19664000D01*
X32482000Y-19686000D01*
X32467000Y-19692000D01*
X32461000Y-19694000D01*
X32459000Y-19695000D01*
X32370000Y-19761000D01*
X32367000Y-19764000D01*
X32291000Y-19814000D01*
X32289000Y-19816000D01*
X32265000Y-19853000D01*
X32255000Y-19866000D01*
X32069000Y-20052000D01*
X32014000Y-20075000D01*
X31586000Y-20075000D01*
X31498000Y-19987000D01*
X31498000Y-19453000D01*
X31500000Y-19406000D01*
X31489000Y-19366000D01*
X31487000Y-19357000D01*
X31478000Y-19291000D01*
X31477000Y-19288000D01*
X31463000Y-19259000D01*
X31457000Y-19246000D01*
X31449000Y-19218000D01*
X31448000Y-19213000D01*
X31423000Y-19177000D01*
X31390000Y-19112000D01*
X31390000Y-19110000D01*
X31364000Y-19085000D01*
X31351000Y-19068000D01*
X31349000Y-19064000D01*
X31116000Y-18831000D01*
X31116000Y-18707000D01*
X31314000Y-18508000D01*
X31317000Y-18505000D01*
X31365000Y-18461000D01*
X31369000Y-18457000D01*
X31399000Y-18402000D01*
X31404000Y-18395000D01*
X31435000Y-18353000D01*
X31444000Y-18323000D01*
X31450000Y-18310000D01*
X31465000Y-18282000D01*
X31474000Y-18233000D01*
X31477000Y-18224000D01*
X31494000Y-18169000D01*
X31495000Y-18137000D01*
G37*
%TD.AperFunction*%
%TA.AperFunction,Conductor*%
G36*
X-21246000Y26691000D02*
G01*
X-21234000Y26703000D01*
X-21184000Y26786000D01*
X-21183000Y26787000D01*
X-21122000Y26885000D01*
X-21120000Y26889000D01*
X-21118000Y26899000D01*
X-21104000Y26982000D01*
X-21083000Y27104000D01*
X-21082000Y27124000D01*
X-21115000Y27265000D01*
X-20917000Y27376000D01*
X-17950000Y24409000D01*
X-17927000Y24354000D01*
X-17927000Y23748000D01*
X-17950000Y23693000D01*
X-19027000Y22616000D01*
X-19177000Y22638000D01*
X-19214000Y22708000D01*
X-19362000Y22856000D01*
X-19542000Y22959000D01*
X-19541000Y22959000D01*
X-19748000Y23016000D01*
X-19956000Y23016000D01*
X-20162000Y22959000D01*
X-20342000Y22856000D01*
X-20382000Y22816000D01*
X-20437000Y22793000D01*
X-23828000Y22793000D01*
X-23883000Y22816000D01*
X-24635000Y23568000D01*
X-24651000Y23591000D01*
X-24668000Y23631000D01*
X-24671000Y23637000D01*
X-24713000Y23704000D01*
X-24760000Y23757000D01*
X-25069000Y24066000D01*
X-25069000Y24190000D01*
X-24916000Y24343000D01*
X-24813000Y24356000D01*
X-24610000Y24235000D01*
X-24404000Y24180000D01*
X-24193000Y24180000D01*
X-23988000Y24234000D01*
X-23809000Y24341000D01*
X-23807000Y24343000D01*
X-23662000Y24487000D01*
X-23661000Y24488000D01*
X-23558000Y24667000D01*
X-23502000Y24875000D01*
X-23502000Y24930000D01*
X-23479000Y24985000D01*
X-23435000Y25029000D01*
X-23419000Y25041000D01*
X-23413000Y25044000D01*
X-23259000Y25198000D01*
X-23256000Y25204000D01*
X-23244000Y25220000D01*
X-22889000Y25575000D01*
X-22824000Y25598000D01*
X-22790000Y25594000D01*
X-22577000Y25594000D01*
X-22370000Y25651000D01*
X-22371000Y25651000D01*
X-22191000Y25754000D01*
X-22043000Y25902000D01*
X-21940000Y26081000D01*
X-21883000Y26286000D01*
X-21883000Y26436000D01*
X-21795000Y26524000D01*
X-21717000Y26524000D01*
X-21704000Y26523000D01*
X-21656000Y26515000D01*
X-21430000Y26562000D01*
X-21429000Y26562000D01*
X-21326000Y26636000D01*
X-21324000Y26637000D01*
X-21246000Y26691000D01*
G37*
%TD.AperFunction*%
%TA.AperFunction,Conductor*%
G36*
X-21690000Y10458000D02*
G01*
X-21768000Y10478000D01*
X-27681000Y16391000D01*
X-27604000Y16576000D01*
X-26039000Y16576000D01*
X-26027000Y16575000D01*
X-25974000Y16566000D01*
X-25972000Y16567000D01*
X-25849000Y16595000D01*
X-25848000Y16596000D01*
X-25766000Y16613000D01*
X-25757000Y16617000D01*
X-25743000Y16622000D01*
X-25649000Y16693000D01*
X-25645000Y16695000D01*
X-25576000Y16742000D01*
X-25574000Y16745000D01*
X-25553000Y16777000D01*
X-25543000Y16790000D01*
X-24380000Y17953000D01*
X-24256000Y17953000D01*
X-21072000Y14770000D01*
X-21049000Y14715000D01*
X-21049000Y11792000D01*
X-21072000Y11737000D01*
X-21394000Y11414000D01*
X-21428000Y11374000D01*
X-21470000Y11314000D01*
X-21477000Y11302000D01*
X-21506000Y11237000D01*
X-21507000Y11234000D01*
X-21527000Y11178000D01*
X-21528000Y11175000D01*
X-21542000Y11107000D01*
X-21550000Y11028000D01*
X-21550000Y11019000D01*
X-21541000Y10940000D01*
X-21524000Y10867000D01*
X-21523000Y10860000D01*
X-21508000Y10815000D01*
X-21506000Y10811000D01*
X-21472000Y10742000D01*
X-21419000Y10660000D01*
X-21473000Y10518000D01*
X-21690000Y10458000D01*
G37*
%TD.AperFunction*%
%TA.AperFunction,Conductor*%
G36*
X61146000Y-7316000D02*
G01*
X60924000Y-7256000D01*
X60924000Y-5972000D01*
X60947000Y-5917000D01*
X62211000Y-4651000D01*
X62215000Y-4648000D01*
X62262000Y-4606000D01*
X62289000Y-4555000D01*
X62295000Y-4545000D01*
X62333000Y-4494000D01*
X62343000Y-4462000D01*
X62349000Y-4449000D01*
X62360000Y-4429000D01*
X62371000Y-4377000D01*
X62373000Y-4370000D01*
X62390000Y-4314000D01*
X62391000Y-4278000D01*
X62393000Y-4267000D01*
X62394000Y-4253000D01*
X62394000Y-4182000D01*
X62395000Y-4131000D01*
X62394000Y-4118000D01*
X62394000Y-418000D01*
X62417000Y-363000D01*
X62714000Y-65000D01*
X62749000Y-45000D01*
X62948000Y7000D01*
X63134000Y114000D01*
X63282000Y262000D01*
X63385000Y441000D01*
X63442000Y648000D01*
X63442000Y857000D01*
X63412000Y966000D01*
X63420000Y1026000D01*
X64278000Y2513000D01*
X64281000Y2534000D01*
X65007000Y3792000D01*
X64438000Y4121000D01*
X64398000Y4191000D01*
X64398000Y4705000D01*
X64421000Y4760000D01*
X65806000Y6146000D01*
X65907000Y6159000D01*
X66257000Y5957000D01*
X67257000Y7689000D01*
X66688000Y8018000D01*
X66648000Y8088000D01*
X66648000Y9459000D01*
X66871000Y9519000D01*
X67573000Y8297000D01*
X68839000Y6091000D01*
X68839000Y6010000D01*
X67573000Y3804000D01*
X66210000Y1434000D01*
X64845000Y-933000D01*
X63477000Y-3299000D01*
X62106000Y-5664000D01*
X61146000Y-7316000D01*
G37*
%TD.AperFunction*%
%TA.AperFunction,Conductor*%
G36*
X47272000Y12227000D02*
G01*
X47298000Y12201000D01*
X47311000Y12184000D01*
X47313000Y12180000D01*
X50119000Y9375000D01*
X50142000Y9320000D01*
X50142000Y3844000D01*
X50102000Y3774000D01*
X49774000Y3585000D01*
X49654000Y3617000D01*
X49538000Y3818000D01*
X49223000Y4363000D01*
X48903000Y4918000D01*
X48589000Y5461000D01*
X46048000Y9863000D01*
X45728000Y10417000D01*
X45414000Y10962000D01*
X45411000Y10967000D01*
X45408000Y10971000D01*
X45093000Y11518000D01*
X44787000Y12047000D01*
X44783000Y12052000D01*
X44458000Y12617000D01*
X44147000Y13155000D01*
X44143000Y13162000D01*
X42873000Y15362000D01*
X42532000Y15951000D01*
X42587000Y16087000D01*
X42683000Y16114000D01*
X42692000Y16116000D01*
X42765000Y16128000D01*
X42790000Y16141000D01*
X42804000Y16146000D01*
X42831000Y16153000D01*
X42836000Y16155000D01*
X42878000Y16182000D01*
X42885000Y16185000D01*
X42935000Y16210000D01*
X42940000Y16213000D01*
X42965000Y16239000D01*
X42982000Y16252000D01*
X42986000Y16254000D01*
X44608000Y17877000D01*
X44755000Y17857000D01*
X44801000Y17777000D01*
X44803000Y17774000D01*
X44952000Y17626000D01*
X44953000Y17625000D01*
X45127000Y17524000D01*
X45336000Y17467000D01*
X45370000Y17447000D01*
X47140000Y15678000D01*
X47163000Y15623000D01*
X47163000Y12545000D01*
X47162000Y12524000D01*
X47174000Y12479000D01*
X47175000Y12473000D01*
X47187000Y12399000D01*
X47202000Y12370000D01*
X47208000Y12354000D01*
X47213000Y12332000D01*
X47216000Y12327000D01*
X47241000Y12288000D01*
X47246000Y12280000D01*
X47272000Y12227000D01*
G37*
%TD.AperFunction*%
%TA.AperFunction,Conductor*%
G36*
X-46164000Y-17740000D02*
G01*
X-46693000Y-17740000D01*
X-46748000Y-17717000D01*
X-70080000Y5615000D01*
X-70103000Y5670000D01*
X-70103000Y6200000D01*
X-70080000Y6255000D01*
X-46748000Y29586000D01*
X-46693000Y29609000D01*
X-46163000Y29609000D01*
X-46108000Y29586000D01*
X-24024000Y7501000D01*
X-24014000Y7489000D01*
X-24013000Y7487000D01*
X-23977000Y7454000D01*
X-23741000Y7218000D01*
X-23741000Y7093000D01*
X-23921000Y6917000D01*
X-24027000Y6732000D01*
X-24082000Y6527000D01*
X-24082000Y6322000D01*
X-24027000Y6117000D01*
X-23923000Y5935000D01*
X-23774000Y5786000D01*
X-23592000Y5682000D01*
X-23387000Y5627000D01*
X-23184000Y5627000D01*
X-23149000Y5633000D01*
X-23078000Y5611000D01*
X-22991000Y5524000D01*
X-22991000Y5400000D01*
X-46109000Y-17717000D01*
X-46164000Y-17740000D01*
G37*
%TD.AperFunction*%
%TA.AperFunction,Conductor*%
G36*
X34901000Y-12159000D02*
G01*
X34876000Y-12184000D01*
X34859000Y-12197000D01*
X34855000Y-12199000D01*
X30686000Y-16369000D01*
X30575000Y-16377000D01*
X30524000Y-16339000D01*
X30487000Y-16316000D01*
X30485000Y-16315000D01*
X30434000Y-16280000D01*
X30430000Y-16279000D01*
X30314000Y-16241000D01*
X30251000Y-16234000D01*
X30218000Y-16230000D01*
X29499000Y-16230000D01*
X29466000Y-16234000D01*
X29404000Y-16241000D01*
X29288000Y-16279000D01*
X29230000Y-16316000D01*
X29229000Y-16317000D01*
X29189000Y-16342000D01*
X29089000Y-16427000D01*
X28979000Y-16427000D01*
X28877000Y-16340000D01*
X28837000Y-16316000D01*
X28835000Y-16315000D01*
X28784000Y-16280000D01*
X28780000Y-16279000D01*
X28664000Y-16241000D01*
X28601000Y-16234000D01*
X28568000Y-16230000D01*
X27849000Y-16230000D01*
X27816000Y-16234000D01*
X27754000Y-16241000D01*
X27638000Y-16279000D01*
X27580000Y-16316000D01*
X27579000Y-16317000D01*
X27536000Y-16344000D01*
X27535000Y-16345000D01*
X27477000Y-16394000D01*
X27474000Y-16397000D01*
X27431000Y-16449000D01*
X27427000Y-16453000D01*
X27391000Y-16502000D01*
X27328000Y-16534000D01*
X27295000Y-16534000D01*
X27248000Y-16547000D01*
X27239000Y-16549000D01*
X27169000Y-16559000D01*
X27164000Y-16561000D01*
X27139000Y-16573000D01*
X27126000Y-16578000D01*
X27102000Y-16584000D01*
X27098000Y-16586000D01*
X27059000Y-16611000D01*
X27053000Y-16614000D01*
X26997000Y-16643000D01*
X26993000Y-16646000D01*
X26963000Y-16674000D01*
X26957000Y-16679000D01*
X26949000Y-16685000D01*
X26356000Y-17280000D01*
X26352000Y-17283000D01*
X26297000Y-17332000D01*
X26261000Y-17397000D01*
X26256000Y-17405000D01*
X26230000Y-17440000D01*
X26226000Y-17447000D01*
X26219000Y-17469000D01*
X26214000Y-17481000D01*
X26198000Y-17511000D01*
X26198000Y-17513000D01*
X26190000Y-17560000D01*
X26187000Y-17569000D01*
X26170000Y-17624000D01*
X26169000Y-17655000D01*
X26167000Y-17667000D01*
X26166000Y-17674000D01*
X26165000Y-17684000D01*
X26165000Y-18102000D01*
X26163000Y-18131000D01*
X26178000Y-18187000D01*
X26179000Y-18193000D01*
X26189000Y-18251000D01*
X26190000Y-18255000D01*
X26200000Y-18275000D01*
X26203000Y-18286000D01*
X26212000Y-18317000D01*
X26213000Y-18318000D01*
X26214000Y-18323000D01*
X26217000Y-18328000D01*
X26249000Y-18377000D01*
X26255000Y-18386000D01*
X26274000Y-18427000D01*
X26295000Y-18449000D01*
X26303000Y-18459000D01*
X26311000Y-18471000D01*
X26312000Y-18472000D01*
X27128000Y-19287000D01*
X27132000Y-19291000D01*
X27155000Y-19318000D01*
X27157000Y-19320000D01*
X27204000Y-19346000D01*
X27211000Y-19350000D01*
X27277000Y-19396000D01*
X27306000Y-19435000D01*
X27312000Y-19453000D01*
X27341000Y-19512000D01*
X27379000Y-19571000D01*
X27428000Y-19629000D01*
X27436000Y-19637000D01*
X27495000Y-19687000D01*
X27556000Y-19725000D01*
X27623000Y-19758000D01*
X27624000Y-19759000D01*
X27674000Y-19775000D01*
X27679000Y-19776000D01*
X27715000Y-19785000D01*
X27752000Y-19805000D01*
X28886000Y-20938000D01*
X28909000Y-20993000D01*
X28909000Y-21463000D01*
X28913000Y-21493000D01*
X28921000Y-21561000D01*
X28948000Y-21642000D01*
X28990000Y-21725000D01*
X28996000Y-21735000D01*
X29031000Y-21781000D01*
X29137000Y-21907000D01*
X29057000Y-22081000D01*
X22201000Y-22088000D01*
X12051000Y-22094000D01*
X1901000Y-22099000D01*
X-8249000Y-22100000D01*
X-18399000Y-22099000D01*
X-28549000Y-22094000D01*
X-38699000Y-22088000D01*
X-48849000Y-22078000D01*
X-58999000Y-22065000D01*
X-68912000Y-22050000D01*
X-68990000Y-21993000D01*
X-69588000Y-20219000D01*
X-70263000Y-18216000D01*
X-70936000Y-16214000D01*
X-71609000Y-14210000D01*
X-72281000Y-12207000D01*
X-72977000Y-10131000D01*
X-72976000Y-10129000D01*
X-73622000Y-8198000D01*
X-74291000Y-6194000D01*
X-74960000Y-4189000D01*
X-76296000Y-177000D01*
X-76946000Y1781000D01*
X-76950000Y1804000D01*
X-76965000Y3801000D01*
X-76978000Y5851000D01*
X-76978000Y5852000D01*
X-76988000Y7902000D01*
X-76994000Y9950000D01*
X-76999000Y12000000D01*
X-77000000Y14050000D01*
X-76999000Y16099000D01*
X-76999000Y16100000D01*
X-76994000Y18150000D01*
X-76988000Y20198000D01*
X-76978000Y22248000D01*
X-76965000Y24298000D01*
X-76952000Y26111000D01*
X-76895000Y26189000D01*
X-75107000Y26791000D01*
X-73094000Y27468000D01*
X-71080000Y28145000D01*
X-69067000Y28822000D01*
X-67054000Y29497000D01*
X-65042000Y30173000D01*
X-63029000Y30847000D01*
X-61017000Y31522000D01*
X-59005000Y32195000D01*
X-56994000Y32868000D01*
X-54982000Y33541000D01*
X-53022000Y34196000D01*
X-52998000Y34200000D01*
X-44243000Y34203000D01*
X-40125000Y34204000D01*
X-40040000Y34044000D01*
X-40139000Y33899000D01*
X-40140000Y33897000D01*
X-40141000Y33891000D01*
X-40143000Y33882000D01*
X-40144000Y33880000D01*
X-40164000Y33760000D01*
X-40179000Y33669000D01*
X-40179000Y33668000D01*
X-40172000Y33632000D01*
X-40170000Y33617000D01*
X-40170000Y33408000D01*
X-40202000Y33344000D01*
X-40274000Y33290000D01*
X-40276000Y33288000D01*
X-40328000Y33245000D01*
X-40333000Y33240000D01*
X-40383000Y33181000D01*
X-40422000Y33119000D01*
X-40454000Y33053000D01*
X-40456000Y33049000D01*
X-40471000Y33002000D01*
X-40472000Y32997000D01*
X-40489000Y32924000D01*
X-40489000Y32921000D01*
X-40495000Y32868000D01*
X-40495000Y31997000D01*
X-40489000Y31946000D01*
X-40472000Y31873000D01*
X-40471000Y31866000D01*
X-40456000Y31821000D01*
X-40454000Y31817000D01*
X-40420000Y31747000D01*
X-40382000Y31688000D01*
X-40333000Y31630000D01*
X-40325000Y31622000D01*
X-40266000Y31572000D01*
X-40204000Y31533000D01*
X-40138000Y31501000D01*
X-40137000Y31500000D01*
X-40087000Y31484000D01*
X-40082000Y31483000D01*
X-40009000Y31466000D01*
X-40006000Y31466000D01*
X-39956000Y31460000D01*
X-39419000Y31460000D01*
X-39342000Y31275000D01*
X-40891000Y29725000D01*
X-41015000Y29725000D01*
X-44558000Y33267000D01*
X-44560000Y33270000D01*
X-44597000Y33312000D01*
X-44613000Y33322000D01*
X-44624000Y33329000D01*
X-44638000Y33342000D01*
X-44644000Y33346000D01*
X-44673000Y33361000D01*
X-44685000Y33368000D01*
X-44698000Y33377000D01*
X-44705000Y33381000D01*
X-44721000Y33388000D01*
X-44728000Y33391000D01*
X-44756000Y33407000D01*
X-44783000Y33414000D01*
X-44797000Y33419000D01*
X-44819000Y33430000D01*
X-44836000Y33433000D01*
X-44853000Y33437000D01*
X-44863000Y33441000D01*
X-44871000Y33443000D01*
X-44888000Y33445000D01*
X-44897000Y33446000D01*
X-44933000Y33456000D01*
X-44977000Y33455000D01*
X-45010000Y33455000D01*
X-45054000Y33460000D01*
X-45059000Y33459000D01*
X-45072000Y33457000D01*
X-45087000Y33455000D01*
X-47770000Y33455000D01*
X-47786000Y33457000D01*
X-47829000Y33455000D01*
X-47883000Y33455000D01*
X-47899000Y33452000D01*
X-47905000Y33452000D01*
X-47958000Y33448000D01*
X-47988000Y33439000D01*
X-47996000Y33437000D01*
X-48031000Y33430000D01*
X-48035000Y33429000D01*
X-48064000Y33416000D01*
X-48073000Y33412000D01*
X-48145000Y33390000D01*
X-48146000Y33389000D01*
X-48169000Y33371000D01*
X-48182000Y33363000D01*
X-48187000Y33360000D01*
X-48250000Y33310000D01*
X-48252000Y33308000D01*
X-48278000Y33288000D01*
X-48286000Y33280000D01*
X-48292000Y33275000D01*
X-48331000Y33243000D01*
X-48343000Y33225000D01*
X-48353000Y33213000D01*
X-73704000Y7862000D01*
X-73712000Y7855000D01*
X-73719000Y7847000D01*
X-73733000Y7834000D01*
X-73753000Y7820000D01*
X-73792000Y7771000D01*
X-73796000Y7766000D01*
X-73842000Y7718000D01*
X-73851000Y7697000D01*
X-73861000Y7681000D01*
X-73871000Y7668000D01*
X-73908000Y7574000D01*
X-73910000Y7569000D01*
X-73924000Y7539000D01*
X-73925000Y7532000D01*
X-73930000Y7513000D01*
X-73939000Y7493000D01*
X-73939000Y7491000D01*
X-73945000Y7415000D01*
X-73945000Y7409000D01*
X-73947000Y7395000D01*
X-73948000Y7382000D01*
X-73948000Y7352000D01*
X-73951000Y7309000D01*
X-73950000Y7300000D01*
X-73949000Y7294000D01*
X-73948000Y7283000D01*
X-73948000Y4595000D01*
X-73950000Y4573000D01*
X-73948000Y4532000D01*
X-73948000Y4487000D01*
X-73944000Y4450000D01*
X-73943000Y4446000D01*
X-73940000Y4400000D01*
X-73932000Y4370000D01*
X-73929000Y4358000D01*
X-73926000Y4338000D01*
X-73908000Y4295000D01*
X-73884000Y4222000D01*
X-73880000Y4216000D01*
X-73862000Y4191000D01*
X-73854000Y4176000D01*
X-73853000Y4174000D01*
X-73804000Y4115000D01*
X-73801000Y4112000D01*
X-73780000Y4083000D01*
X-73773000Y4077000D01*
X-73766000Y4070000D01*
X-73732000Y4030000D01*
X-73720000Y4022000D01*
X-73708000Y4012000D01*
X-48355000Y-21341000D01*
X-48345000Y-21355000D01*
X-48310000Y-21387000D01*
X-48282000Y-21415000D01*
X-48272000Y-21424000D01*
X-48267000Y-21429000D01*
X-48247000Y-21450000D01*
X-48238000Y-21454000D01*
X-48218000Y-21468000D01*
X-48206000Y-21480000D01*
X-48193000Y-21487000D01*
X-48182000Y-21494000D01*
X-48161000Y-21509000D01*
X-48126000Y-21522000D01*
X-48115000Y-21527000D01*
X-48081000Y-21547000D01*
X-48061000Y-21552000D01*
X-48047000Y-21556000D01*
X-48038000Y-21560000D01*
X-48037000Y-21561000D01*
X-48027000Y-21562000D01*
X-48011000Y-21566000D01*
X-47985000Y-21576000D01*
X-47933000Y-21580000D01*
X-47922000Y-21581000D01*
X-47899000Y-21587000D01*
X-47898000Y-21587000D01*
X-47858000Y-21585000D01*
X-47850000Y-21585000D01*
X-47803000Y-21588000D01*
X-47796000Y-21586000D01*
X-47781000Y-21585000D01*
X-45086000Y-21585000D01*
X-45072000Y-21587000D01*
X-45069000Y-21587000D01*
X-45027000Y-21585000D01*
X-44978000Y-21585000D01*
X-44948000Y-21582000D01*
X-44946000Y-21581000D01*
X-44898000Y-21578000D01*
X-44900000Y-21578000D01*
X-44881000Y-21572000D01*
X-44867000Y-21568000D01*
X-44832000Y-21563000D01*
X-44789000Y-21544000D01*
X-44781000Y-21541000D01*
X-44709000Y-21519000D01*
X-44710000Y-21519000D01*
X-44686000Y-21501000D01*
X-44671000Y-21492000D01*
X-44668000Y-21490000D01*
X-44613000Y-21446000D01*
X-44611000Y-21444000D01*
X-44579000Y-21419000D01*
X-44566000Y-21406000D01*
X-44522000Y-21368000D01*
X-44518000Y-21361000D01*
X-44507000Y-21347000D01*
X-36383000Y-13223000D01*
X-15126000Y-13223000D01*
X-15126000Y-13701000D01*
X-15000000Y-14172000D01*
X-14999000Y-14175000D01*
X-14759000Y-14590000D01*
X-14415000Y-14934000D01*
X-14413000Y-14935000D01*
X-13998000Y-15174000D01*
X-13527000Y-15300000D01*
X-13048000Y-15300000D01*
X-12576000Y-15174000D01*
X-12577000Y-15174000D01*
X-12157000Y-14932000D01*
X-11817000Y-14592000D01*
X-11575000Y-14172000D01*
X-11449000Y-13701000D01*
X-11449000Y-13223000D01*
X16874000Y-13223000D01*
X16874000Y-13701000D01*
X17000000Y-14172000D01*
X17001000Y-14175000D01*
X17241000Y-14590000D01*
X17585000Y-14934000D01*
X17587000Y-14935000D01*
X18002000Y-15174000D01*
X18473000Y-15300000D01*
X18952000Y-15300000D01*
X19424000Y-15174000D01*
X19423000Y-15174000D01*
X19843000Y-14932000D01*
X20183000Y-14592000D01*
X20425000Y-14172000D01*
X20551000Y-13701000D01*
X20551000Y-13223000D01*
X20426000Y-12753000D01*
X20185000Y-12334000D01*
X19843000Y-11992000D01*
X19423000Y-11750000D01*
X19424000Y-11750000D01*
X18953000Y-11623000D01*
X18472000Y-11623000D01*
X18001000Y-11750000D01*
X17585000Y-11990000D01*
X17241000Y-12334000D01*
X17001000Y-12748000D01*
X16999000Y-12753000D01*
X16874000Y-13223000D01*
X-11449000Y-13223000D01*
X-11574000Y-12753000D01*
X-11815000Y-12334000D01*
X-12157000Y-11992000D01*
X-12577000Y-11750000D01*
X-12576000Y-11750000D01*
X-13047000Y-11623000D01*
X-13528000Y-11623000D01*
X-13999000Y-11750000D01*
X-14415000Y-11990000D01*
X-14759000Y-12334000D01*
X-14999000Y-12748000D01*
X-15001000Y-12753000D01*
X-15126000Y-13223000D01*
X-36383000Y-13223000D01*
X-19156000Y4004000D01*
X-19150000Y4008000D01*
X-19142000Y4015000D01*
X-19124000Y4035000D01*
X-19075000Y4084000D01*
X-19068000Y4092000D01*
X-19058000Y4107000D01*
X-19052000Y4114000D01*
X-19018000Y4150000D01*
X-19007000Y4174000D01*
X-18999000Y4187000D01*
X-18985000Y4205000D01*
X-18983000Y4208000D01*
X-18964000Y4258000D01*
X-18961000Y4264000D01*
X-18933000Y4322000D01*
X-18932000Y4326000D01*
X-18929000Y4344000D01*
X-18925000Y4360000D01*
X-18921000Y4370000D01*
X-18916000Y4430000D01*
X-18915000Y4436000D01*
X-18908000Y4480000D01*
X-18908000Y4515000D01*
X-18903000Y4560000D01*
X-18906000Y4573000D01*
X-18908000Y4591000D01*
X-18908000Y6429000D01*
X-18907000Y6438000D01*
X-18906000Y6445000D01*
X-18908000Y6483000D01*
X-18908000Y6533000D01*
X-18911000Y6550000D01*
X-18911000Y6558000D01*
X-18915000Y6622000D01*
X-18923000Y6645000D01*
X-18926000Y6658000D01*
X-18929000Y6682000D01*
X-18930000Y6684000D01*
X-18951000Y6731000D01*
X-18954000Y6738000D01*
X-18975000Y6803000D01*
X-18976000Y6805000D01*
X-18988000Y6821000D01*
X-18995000Y6833000D01*
X-19001000Y6845000D01*
X-19055000Y6911000D01*
X-19056000Y6913000D01*
X-19070000Y6931000D01*
X-19085000Y6946000D01*
X-19124000Y6994000D01*
X-19139000Y7003000D01*
X-19154000Y7014000D01*
X-20351000Y8213000D01*
X-20332000Y8360000D01*
X-20217000Y8426000D01*
X-20216000Y8427000D01*
X-20068000Y8576000D01*
X-19966000Y8753000D01*
X-19964000Y8757000D01*
X-19945000Y8827000D01*
X-19864000Y8888000D01*
X-19738000Y8888000D01*
X-19693000Y8886000D01*
X-19668000Y8894000D01*
X-19614000Y8890000D01*
X-19548000Y8860000D01*
X-19508000Y8846000D01*
X-19506000Y8846000D01*
X-19501000Y8845000D01*
X-19429000Y8828000D01*
X-19426000Y8828000D01*
X-19345000Y8819000D01*
X-19343000Y8819000D01*
X-19262000Y8828000D01*
X-19259000Y8828000D01*
X-19187000Y8845000D01*
X-19182000Y8846000D01*
X-19180000Y8846000D01*
X-19139000Y8860000D01*
X-19065000Y8893000D01*
X-19055000Y8899000D01*
X-18995000Y8941000D01*
X-18952000Y8978000D01*
X-18369000Y9560000D01*
X-18321000Y9609000D01*
X-18276000Y9680000D01*
X-18244000Y9745000D01*
X-18240000Y9754000D01*
X-18225000Y9800000D01*
X-18225000Y9802000D01*
X-18224000Y9806000D01*
X-18202000Y9899000D01*
X-18202000Y10030000D01*
X-18224000Y10123000D01*
X-18225000Y10127000D01*
X-18240000Y10175000D01*
X-18242000Y10179000D01*
X-18274000Y10245000D01*
X-18321000Y10320000D01*
X-18368000Y10368000D01*
X-18728000Y10728000D01*
X-18751000Y10783000D01*
X-18751000Y15281000D01*
X-18750000Y15292000D01*
X-18741000Y15347000D01*
X-18741000Y15349000D01*
X-18769000Y15465000D01*
X-18770000Y15467000D01*
X-18788000Y15554000D01*
X-18792000Y15563000D01*
X-18795000Y15573000D01*
X-18798000Y15584000D01*
X-18871000Y15677000D01*
X-18874000Y15681000D01*
X-18919000Y15746000D01*
X-18952000Y15767000D01*
X-18965000Y15777000D01*
X-23733000Y20545000D01*
X-23656000Y20730000D01*
X-19577000Y20730000D01*
X-19562000Y20729000D01*
X-19509000Y20718000D01*
X-19380000Y20749000D01*
X-19378000Y20750000D01*
X-19295000Y20767000D01*
X-19286000Y20771000D01*
X-19272000Y20776000D01*
X-19178000Y20847000D01*
X-19175000Y20849000D01*
X-19103000Y20898000D01*
X-19082000Y20931000D01*
X-19072000Y20944000D01*
X-16977000Y23039000D01*
X-16968000Y23047000D01*
X-16922000Y23080000D01*
X-16920000Y23082000D01*
X-16877000Y23156000D01*
X-16875000Y23159000D01*
X-16809000Y23262000D01*
X-16805000Y23275000D01*
X-16803000Y23280000D01*
X-16783000Y23399000D01*
X-16768000Y23486000D01*
X-16775000Y23521000D01*
X-16777000Y23536000D01*
X-16777000Y24580000D01*
X-16776000Y24592000D01*
X-16767000Y24646000D01*
X-16796000Y24767000D01*
X-16797000Y24769000D01*
X-16814000Y24854000D01*
X-16818000Y24862000D01*
X-16823000Y24876000D01*
X-16894000Y24970000D01*
X-16896000Y24974000D01*
X-16943000Y25043000D01*
X-16946000Y25045000D01*
X-16978000Y25066000D01*
X-16991000Y25076000D01*
X-17740000Y25825000D01*
X-17753000Y25926000D01*
X-17660000Y26089000D01*
X-17610376Y26277000D01*
X-15126000Y26277000D01*
X-15126000Y25797000D01*
X-15000000Y25328000D01*
X-14999000Y25325000D01*
X-14759000Y24910000D01*
X-14415000Y24566000D01*
X-13998000Y24326000D01*
X-13527000Y24200000D01*
X-13048000Y24200000D01*
X-12576000Y24326000D01*
X-12577000Y24326000D01*
X-12157000Y24568000D01*
X-11817000Y24908000D01*
X-11575000Y25328000D01*
X-11449000Y25797000D01*
X-11449000Y26277000D01*
X-11575000Y26749000D01*
X-11815000Y27166000D01*
X-12037000Y27388000D01*
X-7527000Y27388000D01*
X-7527000Y24688000D01*
X-4827000Y24688000D01*
X-4827000Y25067000D01*
X-4642000Y25144000D01*
X-4461000Y24963000D01*
X-4161000Y24789000D01*
X-4158000Y24788000D01*
X-3811000Y24695000D01*
X-3461000Y24695000D01*
X-3116000Y24788000D01*
X-2814000Y24963000D01*
X-2562000Y25215000D01*
X-2453000Y25402000D01*
X-2280000Y25402000D01*
X-2173000Y25215000D01*
X-1921000Y24963000D01*
X-1621000Y24789000D01*
X-1618000Y24788000D01*
X-1271000Y24695000D01*
X-921000Y24695000D01*
X-575000Y24788000D01*
X-576000Y24788000D01*
X-274000Y24963000D01*
X-22000Y25215000D01*
X87000Y25402000D01*
X260000Y25402000D01*
X367000Y25215000D01*
X619000Y24963000D01*
X919000Y24789000D01*
X922000Y24788000D01*
X1269000Y24695000D01*
X1619000Y24695000D01*
X1965000Y24788000D01*
X1964000Y24788000D01*
X2266000Y24963000D01*
X2518000Y25215000D01*
X2627000Y25402000D01*
X2800000Y25402000D01*
X2907000Y25215000D01*
X3159000Y24963000D01*
X3459000Y24789000D01*
X3462000Y24788000D01*
X3809000Y24695000D01*
X4159000Y24695000D01*
X4505000Y24788000D01*
X4504000Y24788000D01*
X4806000Y24963000D01*
X5058000Y25215000D01*
X5167000Y25402000D01*
X5340000Y25402000D01*
X5447000Y25215000D01*
X5699000Y24963000D01*
X5999000Y24789000D01*
X6002000Y24788000D01*
X6349000Y24695000D01*
X6699000Y24695000D01*
X7045000Y24788000D01*
X7044000Y24788000D01*
X7346000Y24963000D01*
X7598000Y25215000D01*
X7707000Y25402000D01*
X7880000Y25402000D01*
X7987000Y25215000D01*
X8239000Y24963000D01*
X8539000Y24789000D01*
X8542000Y24788000D01*
X8889000Y24695000D01*
X9239000Y24695000D01*
X9585000Y24788000D01*
X9584000Y24788000D01*
X9886000Y24963000D01*
X10138000Y25215000D01*
X10247000Y25402000D01*
X10420000Y25402000D01*
X10527000Y25215000D01*
X10779000Y24963000D01*
X11079000Y24789000D01*
X11082000Y24788000D01*
X11429000Y24695000D01*
X11779000Y24695000D01*
X12125000Y24788000D01*
X12124000Y24788000D01*
X12426000Y24963000D01*
X12678000Y25215000D01*
X12853000Y25517000D01*
X12945000Y25864000D01*
X12945000Y26211000D01*
X12927400Y26277000D01*
X16874000Y26277000D01*
X16874000Y25797000D01*
X17000000Y25328000D01*
X17001000Y25325000D01*
X17241000Y24910000D01*
X17585000Y24566000D01*
X18002000Y24326000D01*
X18473000Y24200000D01*
X18952000Y24200000D01*
X19424000Y24326000D01*
X19423000Y24326000D01*
X19843000Y24568000D01*
X20183000Y24908000D01*
X20425000Y25328000D01*
X20551000Y25797000D01*
X20551000Y26277000D01*
X20425000Y26749000D01*
X20185000Y27166000D01*
X19843000Y27508000D01*
X19423000Y27750000D01*
X19424000Y27750000D01*
X18953000Y27877000D01*
X18472000Y27877000D01*
X18001000Y27750000D01*
X17584000Y27509000D01*
X17241000Y27166000D01*
X17000000Y26751000D01*
X16874000Y26277000D01*
X12927400Y26277000D01*
X12853000Y26556000D01*
X12676000Y26864000D01*
X12427000Y27113000D01*
X12122000Y27288000D01*
X12123000Y27288000D01*
X11779000Y27381000D01*
X11429000Y27381000D01*
X11083000Y27288000D01*
X10778000Y27113000D01*
X10529000Y26864000D01*
X10420000Y26674000D01*
X10247000Y26674000D01*
X10136000Y26864000D01*
X9887000Y27113000D01*
X9582000Y27288000D01*
X9583000Y27288000D01*
X9239000Y27381000D01*
X8889000Y27381000D01*
X8543000Y27288000D01*
X8238000Y27113000D01*
X7989000Y26864000D01*
X7880000Y26674000D01*
X7707000Y26674000D01*
X7596000Y26864000D01*
X7347000Y27113000D01*
X7042000Y27288000D01*
X7043000Y27288000D01*
X6699000Y27381000D01*
X6349000Y27381000D01*
X6003000Y27288000D01*
X5698000Y27113000D01*
X5449000Y26864000D01*
X5340000Y26674000D01*
X5167000Y26674000D01*
X5056000Y26864000D01*
X4807000Y27113000D01*
X4502000Y27288000D01*
X4503000Y27288000D01*
X4159000Y27381000D01*
X3809000Y27381000D01*
X3463000Y27288000D01*
X3158000Y27113000D01*
X2909000Y26864000D01*
X2800000Y26674000D01*
X2627000Y26674000D01*
X2516000Y26864000D01*
X2267000Y27113000D01*
X1962000Y27288000D01*
X1963000Y27288000D01*
X1619000Y27381000D01*
X1269000Y27381000D01*
X923000Y27288000D01*
X618000Y27113000D01*
X369000Y26864000D01*
X260000Y26674000D01*
X87000Y26674000D01*
X-24000Y26864000D01*
X-273000Y27113000D01*
X-578000Y27288000D01*
X-577000Y27288000D01*
X-921000Y27381000D01*
X-1271000Y27381000D01*
X-1617000Y27288000D01*
X-1922000Y27113000D01*
X-2171000Y26864000D01*
X-2280000Y26674000D01*
X-2453000Y26674000D01*
X-2564000Y26864000D01*
X-2813000Y27113000D01*
X-3118000Y27288000D01*
X-3117000Y27288000D01*
X-3461000Y27381000D01*
X-3811000Y27381000D01*
X-4157000Y27288000D01*
X-4462000Y27113000D01*
X-4642000Y26933000D01*
X-4827000Y27010000D01*
X-4827000Y27388000D01*
X-7527000Y27388000D01*
X-12037000Y27388000D01*
X-12157000Y27508000D01*
X-12577000Y27750000D01*
X-12576000Y27750000D01*
X-13047000Y27877000D01*
X-13528000Y27877000D01*
X-13999000Y27750000D01*
X-14416000Y27509000D01*
X-14759000Y27166000D01*
X-15000000Y26751000D01*
X-15126000Y26277000D01*
X-17610376Y26277000D01*
X-17608000Y26286000D01*
X-17608000Y26495000D01*
X-17661000Y26696000D01*
X-17662000Y26699000D01*
X-17769000Y26883000D01*
X-17916000Y27030000D01*
X-18098000Y27134000D01*
X-18303000Y27189000D01*
X-18358000Y27189000D01*
X-18413000Y27212000D01*
X-18526000Y27325000D01*
X-18549000Y27380000D01*
X-18549000Y29053000D01*
X-18326000Y29113000D01*
X-18173000Y28846000D01*
X-18025000Y28698000D01*
X-17838000Y28591000D01*
X-17641000Y28539000D01*
X-17432000Y28539000D01*
X-17227000Y28593000D01*
X-17226000Y28594000D01*
X-17046000Y28698000D01*
X-16898000Y28845000D01*
X-16897000Y28846000D01*
X-16790000Y29033000D01*
X-16738000Y29229000D01*
X-16738000Y29441000D01*
X-16790000Y29639000D01*
X-16897000Y29826000D01*
X-16937000Y29866000D01*
X-16960000Y29921000D01*
X-16960000Y32197000D01*
X35836000Y32197000D01*
X35836000Y31990000D01*
X35893000Y31784000D01*
X35996000Y31604000D01*
X36144000Y31456000D01*
X36316000Y31357000D01*
X36344000Y31357000D01*
X36432000Y31269000D01*
X36432000Y30804000D01*
X36422000Y30766000D01*
X36317000Y30584000D01*
X36316000Y30581000D01*
X36262000Y30377000D01*
X36262000Y30169000D01*
X36314000Y29971000D01*
X36315000Y29969000D01*
X36421000Y29785000D01*
X36569000Y29637000D01*
X36749000Y29534000D01*
X36955000Y29477000D01*
X37163000Y29477000D01*
X37370000Y29534000D01*
X37369000Y29534000D01*
X37549000Y29637000D01*
X37697000Y29785000D01*
X37803000Y29969000D01*
X37804000Y29971000D01*
X37856000Y30169000D01*
X37856000Y30377000D01*
X37802000Y30581000D01*
X37801000Y30584000D01*
X37696000Y30766000D01*
X37686000Y30804000D01*
X37686000Y31685000D01*
X37688000Y31734000D01*
X37674000Y31786000D01*
X37673000Y31793000D01*
X37662000Y31859000D01*
X37662000Y31860000D01*
X37653000Y31877000D01*
X37647000Y31891000D01*
X37637000Y31926000D01*
X37611000Y31967000D01*
X37607000Y31974000D01*
X37581000Y32027000D01*
X37576000Y32034000D01*
X37552000Y32059000D01*
X37546000Y32066000D01*
X37541000Y32073000D01*
X37538000Y32077000D01*
X37452000Y32163000D01*
X37432000Y32197000D01*
X37380000Y32395000D01*
X37380000Y32397000D01*
X37272000Y32584000D01*
X37271000Y32585000D01*
X37123000Y32732000D01*
X36942000Y32837000D01*
X36737000Y32891000D01*
X36528000Y32891000D01*
X36330000Y32839000D01*
X36144000Y32732000D01*
X35996000Y32584000D01*
X35893000Y32404000D01*
X35836000Y32197000D01*
X-16960000Y32197000D01*
X-16960000Y32784000D01*
X-16959000Y32796000D01*
X-16950000Y32850000D01*
X-16950000Y32851000D01*
X-16980000Y32975000D01*
X-16981000Y32977000D01*
X-16997000Y33057000D01*
X-17002000Y33067000D01*
X-17006000Y33079000D01*
X-17076000Y33175000D01*
X-17078000Y33177000D01*
X-17128000Y33248000D01*
X-17161000Y33270000D01*
X-17174000Y33280000D01*
X-17520000Y33626000D01*
X-17528000Y33635000D01*
X-17566000Y33688000D01*
X-17567000Y33689000D01*
X-17667000Y33749000D01*
X-17670000Y33752000D01*
X-17744000Y33802000D01*
X-17745000Y33802000D01*
X-17751000Y33803000D01*
X-17763000Y33806000D01*
X-17765000Y33807000D01*
X-17899000Y33829000D01*
X-17975000Y33842000D01*
X-18011000Y33835000D01*
X-18026000Y33833000D01*
X-26066000Y33833000D01*
X-26078000Y33834000D01*
X-26125000Y33842000D01*
X-26127000Y33841000D01*
X-26222000Y33819000D01*
X-26224000Y33818000D01*
X-26331000Y33796000D01*
X-26346000Y33790000D01*
X-26352000Y33788000D01*
X-26354000Y33787000D01*
X-26443000Y33721000D01*
X-26446000Y33718000D01*
X-26522000Y33668000D01*
X-26526000Y33664000D01*
X-26551000Y33626000D01*
X-26560000Y33613000D01*
X-26741000Y33433000D01*
X-26796000Y33410000D01*
X-27286000Y33410000D01*
X-27385000Y33398000D01*
X-27455000Y33375000D01*
X-27459000Y33373000D01*
X-27562000Y33327000D01*
X-27623000Y33275000D01*
X-27624000Y33274000D01*
X-27659000Y33245000D01*
X-27661000Y33243000D01*
X-27704000Y33191000D01*
X-27706000Y33189000D01*
X-27740000Y33144000D01*
X-27745000Y33135000D01*
X-27787000Y33052000D01*
X-27803000Y33001000D01*
X-27804000Y32997000D01*
X-27826000Y32904000D01*
X-27826000Y31966000D01*
X-27825000Y31961000D01*
X-27804000Y31873000D01*
X-27803000Y31869000D01*
X-27803000Y31867000D01*
X-27787000Y31818000D01*
X-27745000Y31735000D01*
X-27740000Y31726000D01*
X-27704000Y31679000D01*
X-27661000Y31627000D01*
X-27656000Y31622000D01*
X-27609000Y31582000D01*
X-27607000Y31581000D01*
X-27602000Y31577000D01*
X-27534000Y31529000D01*
X-27501000Y31464000D01*
X-27501000Y31227000D01*
X-27562000Y31147000D01*
X-27795000Y31082000D01*
X-27973000Y30980000D01*
X-28122000Y30832000D01*
X-28125000Y30829000D01*
X-28182000Y30731000D01*
X-28251000Y30691000D01*
X-29158000Y30691000D01*
X-29170000Y30692000D01*
X-29224000Y30701000D01*
X-29227000Y30700000D01*
X-29351000Y30672000D01*
X-29464000Y30762000D01*
X-29464000Y31441000D01*
X-29419000Y31513000D01*
X-29383000Y31531000D01*
X-29319000Y31571000D01*
X-29317000Y31573000D01*
X-29259000Y31622000D01*
X-29251000Y31630000D01*
X-29202000Y31688000D01*
X-29164000Y31747000D01*
X-29132000Y31812000D01*
X-29128000Y31821000D01*
X-29113000Y31866000D01*
X-29112000Y31873000D01*
X-29095000Y31946000D01*
X-29089000Y31997000D01*
X-29089000Y32868000D01*
X-29095000Y32921000D01*
X-29095000Y32924000D01*
X-29112000Y32997000D01*
X-29113000Y33002000D01*
X-29128000Y33049000D01*
X-29130000Y33053000D01*
X-29162000Y33119000D01*
X-29201000Y33181000D01*
X-29251000Y33240000D01*
X-29256000Y33245000D01*
X-29308000Y33288000D01*
X-29310000Y33290000D01*
X-29354000Y33323000D01*
X-29365000Y33329000D01*
X-29445000Y33370000D01*
X-29530000Y33398000D01*
X-29531000Y33399000D01*
X-29596000Y33406000D01*
X-29597000Y33406000D01*
X-29630000Y33410000D01*
X-30449000Y33410000D01*
X-30548000Y33398000D01*
X-30618000Y33375000D01*
X-30625000Y33372000D01*
X-30743000Y33321000D01*
X-30878000Y33410000D01*
X-30878000Y33621000D01*
X-30877000Y33633000D01*
X-30868000Y33687000D01*
X-30868000Y33688000D01*
X-30897000Y33808000D01*
X-30898000Y33810000D01*
X-30916000Y33896000D01*
X-30919000Y33904000D01*
X-30923000Y33914000D01*
X-30923000Y33915000D01*
X-31017000Y34041000D01*
X-30933000Y34206000D01*
X-17818000Y34206000D01*
X-9009000Y34203000D01*
X-201000Y34200000D01*
X8607000Y34195000D01*
X17416000Y34189000D01*
X26224000Y34181000D01*
X35032000Y34172000D01*
X43841000Y34162000D01*
X52461000Y34150000D01*
X52530000Y34110000D01*
X53824000Y31919000D01*
X55211000Y29563000D01*
X56596000Y27206000D01*
X57977000Y24850000D01*
X57977000Y24849000D01*
X59356000Y22489000D01*
X60733000Y20127000D01*
X62106000Y17765000D01*
X63477000Y15400000D01*
X64846000Y13033000D01*
X66210000Y10667000D01*
X66459000Y10235000D01*
X66250000Y10075000D01*
X65115000Y11209000D01*
X65134000Y11356000D01*
X65328000Y11468000D01*
X64693000Y12568000D01*
X64378000Y13113000D01*
X64058000Y13668000D01*
X63743000Y14213000D01*
X61203000Y18613000D01*
X60883000Y19167000D01*
X60618000Y19626000D01*
X60568000Y19712000D01*
X60248000Y20267000D01*
X59942000Y20797000D01*
X59940000Y20799000D01*
X59938000Y20803000D01*
X59613000Y21367000D01*
X59299000Y21910000D01*
X56758000Y26312000D01*
X54593000Y25062000D01*
X54893000Y24541000D01*
X54807000Y24391000D01*
X54597000Y24391000D01*
X54559000Y24401000D01*
X54372000Y24509000D01*
X54174000Y24561000D01*
X53965000Y24561000D01*
X53760000Y24507000D01*
X53579000Y24402000D01*
X53578000Y24401000D01*
X53431000Y24255000D01*
X53430000Y24254000D01*
X53322000Y24066000D01*
X53271000Y23870000D01*
X53271000Y23658000D01*
X53323000Y23461000D01*
X53430000Y23274000D01*
X53431000Y23273000D01*
X53579000Y23126000D01*
X53759000Y23022000D01*
X53760000Y23021000D01*
X53965000Y22967000D01*
X54174000Y22967000D01*
X54371000Y23019000D01*
X54559000Y23127000D01*
X54597000Y23137000D01*
X55071000Y23137000D01*
X55116000Y23135000D01*
X55171000Y23150000D01*
X55181000Y23152000D01*
X55242000Y23160000D01*
X55270000Y23173000D01*
X55278000Y23176000D01*
X55307000Y23185000D01*
X55348000Y23212000D01*
X55411000Y23244000D01*
X55417000Y23248000D01*
X55477000Y23304000D01*
X55621000Y23283000D01*
X56178000Y22316000D01*
X56813000Y21216000D01*
X57147000Y20638000D01*
X57818000Y19476000D01*
X58440000Y18398000D01*
X59353000Y16817000D01*
X61258000Y13517000D01*
X61605000Y12917000D01*
X62214000Y11862000D01*
X62644000Y11116000D01*
X62612000Y10996000D01*
X61419000Y10308000D01*
X60853000Y9981000D01*
X59765000Y9353000D01*
X58636000Y8701000D01*
X57020000Y7768000D01*
X56659000Y7560000D01*
X56509000Y7646000D01*
X56509000Y8034000D01*
X56532000Y8089000D01*
X56572000Y8129000D01*
X56675000Y8306000D01*
X56732000Y8513000D01*
X56732000Y8723000D01*
X56675000Y8929000D01*
X56573000Y9107000D01*
X56425000Y9256000D01*
X56424000Y9257000D01*
X56237000Y9364000D01*
X56040000Y9416000D01*
X55831000Y9416000D01*
X55627000Y9362000D01*
X55625000Y9361000D01*
X55443000Y9255000D01*
X55296000Y9108000D01*
X55192000Y8926000D01*
X55137000Y8720000D01*
X55137000Y8516000D01*
X55208000Y8253000D01*
X55008000Y8137000D01*
X53867000Y9279000D01*
X53867000Y9403000D01*
X55164000Y10700000D01*
X55176000Y10710000D01*
X55198000Y10734000D01*
X55200000Y10737000D01*
X55238000Y10774000D01*
X55260000Y10803000D01*
X55265000Y10809000D01*
X55294000Y10840000D01*
X55299000Y10847000D01*
X55306000Y10862000D01*
X55312000Y10873000D01*
X55330000Y10899000D01*
X55345000Y10940000D01*
X55349000Y10948000D01*
X55380000Y11011000D01*
X55383000Y11033000D01*
X55387000Y11048000D01*
X55391000Y11058000D01*
X55393000Y11069000D01*
X55397000Y11119000D01*
X55397000Y11123000D01*
X55405000Y11171000D01*
X55405000Y11204000D01*
X55410000Y11250000D01*
X55407000Y11262000D01*
X55405000Y11280000D01*
X55405000Y12105000D01*
X55422000Y12154000D01*
X55449000Y12187000D01*
X55452000Y12190000D01*
X55480000Y12220000D01*
X55481000Y12222000D01*
X55489000Y12239000D01*
X55497000Y12252000D01*
X55513000Y12274000D01*
X55516000Y12280000D01*
X55534000Y12327000D01*
X55537000Y12334000D01*
X55565000Y12391000D01*
X55567000Y12409000D01*
X55571000Y12426000D01*
X55578000Y12445000D01*
X55586000Y12526000D01*
X55586000Y12529000D01*
X55590000Y12551000D01*
X55590000Y12574000D01*
X55596000Y12631000D01*
X55592000Y12650000D01*
X55590000Y12667000D01*
X55590000Y12764000D01*
X55613000Y12819000D01*
X56343000Y13549000D01*
X56349000Y13554000D01*
X56358000Y13562000D01*
X56376000Y13581000D01*
X56378000Y13585000D01*
X56417000Y13623000D01*
X56424000Y13631000D01*
X56437000Y13649000D01*
X56442000Y13655000D01*
X56475000Y13691000D01*
X56483000Y13709000D01*
X56492000Y13724000D01*
X56510000Y13748000D01*
X56527000Y13794000D01*
X56530000Y13801000D01*
X56559000Y13860000D01*
X56562000Y13882000D01*
X56566000Y13897000D01*
X56570000Y13907000D01*
X56571000Y13914000D01*
X56576000Y13969000D01*
X56576000Y13974000D01*
X56584000Y14022000D01*
X56584000Y14058000D01*
X56589000Y14100000D01*
X56588000Y14104000D01*
X56586000Y14117000D01*
X56584000Y14132000D01*
X56584000Y14453000D01*
X56585000Y14462000D01*
X56586000Y14475000D01*
X56584000Y14514000D01*
X56584000Y14570000D01*
X56580000Y14591000D01*
X56577000Y14652000D01*
X56575000Y14658000D01*
X56571000Y14671000D01*
X56567000Y14685000D01*
X56563000Y14709000D01*
X56538000Y14762000D01*
X56535000Y14770000D01*
X56514000Y14832000D01*
X56503000Y14847000D01*
X56495000Y14861000D01*
X56486000Y14880000D01*
X56442000Y14931000D01*
X56437000Y14937000D01*
X56425000Y14955000D01*
X56420000Y14961000D01*
X56404000Y14977000D01*
X56371000Y15016000D01*
X56367000Y15019000D01*
X56356000Y15027000D01*
X56344000Y15037000D01*
X54583000Y16798000D01*
X54573000Y16810000D01*
X54570000Y16815000D01*
X54523000Y16858000D01*
X54519000Y16862000D01*
X54506000Y16876000D01*
X54505000Y16877000D01*
X54485000Y16892000D01*
X54480000Y16896000D01*
X54440000Y16933000D01*
X54434000Y16937000D01*
X54409000Y16949000D01*
X54398000Y16956000D01*
X54379000Y16970000D01*
X54341000Y16984000D01*
X54334000Y16987000D01*
X54271000Y17018000D01*
X54262000Y17020000D01*
X54244000Y17023000D01*
X54228000Y17027000D01*
X54218000Y17031000D01*
X54219000Y17031000D01*
X54158000Y17036000D01*
X54152000Y17037000D01*
X54107000Y17044000D01*
X54072000Y17044000D01*
X54028000Y17049000D01*
X54023000Y17048000D01*
X54010000Y17046000D01*
X53995000Y17044000D01*
X53525000Y17044000D01*
X53470000Y17067000D01*
X49023000Y21514000D01*
X49015000Y21521000D01*
X48904000Y21604000D01*
X48899000Y21607000D01*
X48738000Y21667000D01*
X48735000Y21668000D01*
X48548000Y21686000D01*
X48541000Y21685000D01*
X48350000Y21643000D01*
X48238000Y21735000D01*
X48240000Y21847000D01*
X48239000Y21854000D01*
X48239000Y30370000D01*
X48249000Y30408000D01*
X48353000Y30589000D01*
X48410000Y30794000D01*
X48410000Y31005000D01*
X48353000Y31210000D01*
X48251000Y31388000D01*
X48104000Y31536000D01*
X48103000Y31537000D01*
X47915000Y31645000D01*
X47718000Y31697000D01*
X47506000Y31697000D01*
X47309000Y31645000D01*
X47121000Y31537000D01*
X47120000Y31536000D01*
X46973000Y31388000D01*
X46971000Y31385000D01*
X46870000Y31208000D01*
X46870000Y31207000D01*
X46815000Y31002000D01*
X46815000Y30796000D01*
X46870000Y30591000D01*
X46871000Y30589000D01*
X46975000Y30407000D01*
X46985000Y30370000D01*
X46985000Y22060000D01*
X46962000Y22005000D01*
X42338000Y17381000D01*
X42283000Y17358000D01*
X41768000Y17358000D01*
X41698000Y17398000D01*
X41603000Y17562000D01*
X39438000Y16312000D01*
X39723000Y15818000D01*
X39710000Y15717000D01*
X38452000Y14457000D01*
X38448000Y14454000D01*
X38411000Y14421000D01*
X38384000Y14371000D01*
X38342000Y14312000D01*
X38339000Y14306000D01*
X38328000Y14274000D01*
X38322000Y14261000D01*
X38312000Y14243000D01*
X38311000Y14241000D01*
X38303000Y14199000D01*
X38301000Y14191000D01*
X38283000Y14134000D01*
X38282000Y14126000D01*
X38281000Y14094000D01*
X38280000Y14085000D01*
X38278000Y14076000D01*
X38279000Y14076000D01*
X38278000Y14068000D01*
X38278000Y13960000D01*
X38277000Y13943000D01*
X38278000Y13939000D01*
X38278000Y-9083000D01*
X38267000Y-9122000D01*
X38162000Y-9300000D01*
X38161000Y-9304000D01*
X38107000Y-9506000D01*
X38107000Y-9717000D01*
X38161000Y-9922000D01*
X38268000Y-10101000D01*
X38270000Y-10103000D01*
X38414000Y-10248000D01*
X38415000Y-10249000D01*
X38597000Y-10353000D01*
X38802000Y-10408000D01*
X39007000Y-10408000D01*
X39213000Y-10353000D01*
X39212000Y-10353000D01*
X39394000Y-10249000D01*
X39541000Y-10102000D01*
X39647000Y-9920000D01*
X39649000Y-9915000D01*
X39702000Y-9715000D01*
X39702000Y-9505000D01*
X39650000Y-9308000D01*
X39542000Y-9120000D01*
X39532000Y-9082000D01*
X39532000Y11234000D01*
X39620000Y11322000D01*
X39795000Y11322000D01*
X39999000Y11376000D01*
X40180000Y11484000D01*
X40182000Y11485000D01*
X40327000Y11627000D01*
X40433000Y11812000D01*
X40488000Y12017000D01*
X40488000Y12222000D01*
X40433000Y12427000D01*
X40328000Y12610000D01*
X40318000Y12648000D01*
X40318000Y13344000D01*
X40406000Y13432000D01*
X40712000Y13432000D01*
X40741000Y13431000D01*
X40785000Y13443000D01*
X40792000Y13444000D01*
X40865000Y13456000D01*
X40890000Y13469000D01*
X40905000Y13474000D01*
X40992000Y13497000D01*
X41086000Y13458000D01*
X41658000Y12466000D01*
X41990000Y11892000D01*
X42613000Y10812000D01*
X43253000Y9704000D01*
X44198000Y8067000D01*
X46103000Y4767000D01*
X46458000Y4152000D01*
X46708000Y3718000D01*
X46695000Y3617000D01*
X46006000Y2928000D01*
X45959000Y2885000D01*
X45923000Y2822000D01*
X45891000Y2777000D01*
X45888000Y2771000D01*
X45882000Y2751000D01*
X45876000Y2736000D01*
X45859000Y2706000D01*
X45849000Y2655000D01*
X45847000Y2647000D01*
X45831000Y2595000D01*
X45830000Y2563000D01*
X45828000Y2550000D01*
X45827000Y2543000D01*
X45826000Y2533000D01*
X45826000Y1281000D01*
X45816000Y1243000D01*
X45708000Y1055000D01*
X45656000Y858000D01*
X45656000Y646000D01*
X45708000Y449000D01*
X45815000Y262000D01*
X45816000Y261000D01*
X45965000Y113000D01*
X45968000Y111000D01*
X46143000Y11000D01*
X46145000Y10000D01*
X46351000Y-45000D01*
X46556000Y-45000D01*
X46762000Y10000D01*
X46761000Y10000D01*
X46943000Y114000D01*
X47088000Y259000D01*
X47196000Y441000D01*
X47251000Y647000D01*
X47251000Y857000D01*
X47196000Y1062000D01*
X47196000Y1063000D01*
X47091000Y1241000D01*
X47080000Y1280000D01*
X47080000Y2270000D01*
X47338000Y2307000D01*
X47402000Y2082000D01*
X47403000Y2080000D01*
X47414000Y2037000D01*
X47420000Y2024000D01*
X47533000Y1858000D01*
X47563000Y1836000D01*
X47570000Y1830000D01*
X47775000Y1625000D01*
X47798000Y1570000D01*
X47798000Y520000D01*
X47788000Y482000D01*
X47680000Y294000D01*
X47628000Y97000D01*
X47628000Y-115000D01*
X47680000Y-312000D01*
X47787000Y-499000D01*
X47935000Y-647000D01*
X48122000Y-754000D01*
X48319000Y-806000D01*
X48531000Y-806000D01*
X48728000Y-754000D01*
X48915000Y-647000D01*
X49063000Y-499000D01*
X49170000Y-312000D01*
X49222000Y-115000D01*
X49222000Y97000D01*
X49170000Y294000D01*
X49062000Y482000D01*
X49052000Y520000D01*
X49052000Y1890000D01*
X49054000Y1928000D01*
X49037000Y1990000D01*
X49076000Y2084000D01*
X49720000Y2456000D01*
X49840000Y2424000D01*
X50571000Y1158000D01*
X53871000Y3063000D01*
X55471000Y3987000D01*
X56607000Y4643000D01*
X57648000Y5244000D01*
X58816000Y5918000D01*
X59370000Y6238000D01*
X61570000Y7508000D01*
X63206000Y8453000D01*
X64315000Y9093000D01*
X63584000Y10360000D01*
X63616000Y10479000D01*
X63848000Y10614000D01*
X63949000Y10601000D01*
X65371000Y9179000D01*
X65394000Y9124000D01*
X65394000Y7882000D01*
X65384000Y7844000D01*
X64917000Y7035000D01*
X64905000Y7019000D01*
X63315000Y5429000D01*
X63276000Y5395000D01*
X63246000Y5341000D01*
X63242000Y5334000D01*
X63206000Y5283000D01*
X63197000Y5254000D01*
X63190000Y5239000D01*
X63178000Y5218000D01*
X63167000Y5166000D01*
X63165000Y5159000D01*
X63148000Y5103000D01*
X63147000Y5069000D01*
X63146000Y5060000D01*
X63144000Y5051000D01*
X63145000Y5051000D01*
X63144000Y5043000D01*
X63144000Y4935000D01*
X63143000Y4917000D01*
X63144000Y4913000D01*
X63144000Y3985000D01*
X63134000Y3947000D01*
X62525000Y2892000D01*
X62522000Y2871000D01*
X61928000Y1841000D01*
X61916000Y1825000D01*
X60335000Y244000D01*
X60288000Y201000D01*
X60257000Y146000D01*
X60252000Y137000D01*
X60216000Y88000D01*
X60215000Y86000D01*
X60206000Y57000D01*
X60200000Y44000D01*
X60189000Y23000D01*
X60178000Y-28000D01*
X60176000Y-35000D01*
X60159000Y-91000D01*
X60158000Y-125000D01*
X60157000Y-134000D01*
X60155000Y-143000D01*
X60156000Y-143000D01*
X60155000Y-151000D01*
X60155000Y-252000D01*
X60154000Y-277000D01*
X60155000Y-282000D01*
X60155000Y-1142000D01*
X59970000Y-1219000D01*
X58186000Y564000D01*
X58166000Y598000D01*
X58114000Y796000D01*
X58114000Y798000D01*
X58006000Y985000D01*
X58005000Y986000D01*
X57856000Y1134000D01*
X57855000Y1135000D01*
X57682000Y1236000D01*
X57472000Y1293000D01*
X57264000Y1293000D01*
X57058000Y1236000D01*
X56878000Y1133000D01*
X56730000Y985000D01*
X56627000Y805000D01*
X56570000Y598000D01*
X56570000Y391000D01*
X56627000Y185000D01*
X56731000Y4000D01*
X56878000Y-143000D01*
X56881000Y-145000D01*
X57065000Y-250000D01*
X57262000Y-302000D01*
X57297000Y-322000D01*
X58650000Y-1674000D01*
X58663000Y-1774000D01*
X58610000Y-1867000D01*
X58608000Y-1873000D01*
X58553000Y-2078000D01*
X58553000Y-2284000D01*
X58608000Y-2488000D01*
X58712000Y-2670000D01*
X58859000Y-2817000D01*
X59041000Y-2923000D01*
X59043000Y-2924000D01*
X59247000Y-2978000D01*
X59456000Y-2978000D01*
X59653000Y-2926000D01*
X59697000Y-2906000D01*
X59790000Y-2923000D01*
X59879000Y-3012000D01*
X59883000Y-3015000D01*
X59891000Y-3023000D01*
X59911000Y-3044000D01*
X59918000Y-3049000D01*
X60000000Y-3096000D01*
X60020000Y-3243000D01*
X59946000Y-3316000D01*
X59904000Y-3389000D01*
X59903000Y-3392000D01*
X59881000Y-3475000D01*
X59881000Y-3554000D01*
X59904000Y-3640000D01*
X59946000Y-3713000D01*
X60004000Y-3771000D01*
X60525000Y-4072000D01*
X60599000Y-4115000D01*
X60727000Y-4150000D01*
X60772000Y-4317000D01*
X59850000Y-5239000D01*
X59803000Y-5282000D01*
X59772000Y-5337000D01*
X59767000Y-5346000D01*
X59731000Y-5395000D01*
X59730000Y-5397000D01*
X59721000Y-5426000D01*
X59715000Y-5439000D01*
X59704000Y-5459000D01*
X59696000Y-5504000D01*
X59693000Y-5514000D01*
X59675000Y-5572000D01*
X59674000Y-5577000D01*
X59673000Y-5608000D01*
X59672000Y-5617000D01*
X59670000Y-5626000D01*
X59671000Y-5626000D01*
X59670000Y-5634000D01*
X59670000Y-5725000D01*
X59669000Y-5762000D01*
X59670000Y-5771000D01*
X59670000Y-7565000D01*
X59647000Y-7620000D01*
X56977000Y-10291000D01*
X56974000Y-10294000D01*
X56927000Y-10337000D01*
X56896000Y-10392000D01*
X56891000Y-10401000D01*
X56855000Y-10450000D01*
X56854000Y-10452000D01*
X56845000Y-10481000D01*
X56839000Y-10494000D01*
X56828000Y-10515000D01*
X56817000Y-10566000D01*
X56815000Y-10573000D01*
X56798000Y-10629000D01*
X56797000Y-10663000D01*
X56796000Y-10672000D01*
X56794000Y-10681000D01*
X56795000Y-10681000D01*
X56794000Y-10692000D01*
X56794000Y-10797000D01*
X56793000Y-10819000D01*
X56794000Y-10825000D01*
X56794000Y-10978000D01*
X56644000Y-11064000D01*
X56009000Y-10698000D01*
X55923000Y-10675000D01*
X55844000Y-10675000D01*
X55757000Y-10698000D01*
X55755000Y-10699000D01*
X55687000Y-10738000D01*
X55684000Y-10740000D01*
X55626000Y-10798000D01*
X55624000Y-10801000D01*
X55585000Y-10869000D01*
X55584000Y-10871000D01*
X55561000Y-10958000D01*
X55561000Y-11036000D01*
X55584000Y-11123000D01*
X55585000Y-11125000D01*
X55624000Y-11193000D01*
X55626000Y-11196000D01*
X55684000Y-11254000D01*
X56205000Y-11555000D01*
X56277000Y-11596000D01*
X56363000Y-11619000D01*
X56442000Y-11619000D01*
X56529000Y-11596000D01*
X56531000Y-11595000D01*
X56645000Y-11530000D01*
X56794000Y-11617000D01*
X56794000Y-12053000D01*
X56771000Y-12108000D01*
X56175000Y-12706000D01*
X56171000Y-12709000D01*
X56133000Y-12743000D01*
X56097000Y-12810000D01*
X55986000Y-12848000D01*
X55887000Y-12804000D01*
X55858000Y-12793000D01*
X55791000Y-12770000D01*
X55703000Y-12760000D01*
X55606000Y-12760000D01*
X55521000Y-12780000D01*
X55487000Y-12791000D01*
X55485000Y-12792000D01*
X54839000Y-13025000D01*
X54833000Y-13027000D01*
X54776000Y-13054000D01*
X54724000Y-13087000D01*
X54722000Y-13088000D01*
X54658000Y-13137000D01*
X54655000Y-13139000D01*
X54616000Y-13186000D01*
X54571000Y-13237000D01*
X54525000Y-13329000D01*
X54508000Y-13378000D01*
X54508000Y-13379000D01*
X54489000Y-13434000D01*
X54476000Y-13553000D01*
X54491000Y-13684000D01*
X54510000Y-13739000D01*
X54511000Y-13741000D01*
X54695000Y-14251000D01*
X54622000Y-14373000D01*
X54546000Y-14384000D01*
X54479000Y-14399000D01*
X54435000Y-14409000D01*
X53772000Y-14650000D01*
X53767000Y-14652000D01*
X53710000Y-14679000D01*
X53658000Y-14712000D01*
X53656000Y-14713000D01*
X53610000Y-14748000D01*
X53539000Y-14819000D01*
X53533000Y-14826000D01*
X53502000Y-14878000D01*
X53501000Y-14880000D01*
X53463000Y-14938000D01*
X53443000Y-15003000D01*
X53442000Y-15005000D01*
X53423000Y-15061000D01*
X53410000Y-15180000D01*
X53417000Y-15242000D01*
X53423000Y-15299000D01*
X53425000Y-15310000D01*
X53443000Y-15362000D01*
X53445000Y-15366000D01*
X53620000Y-15849000D01*
X53530000Y-15977000D01*
X53443000Y-15977000D01*
X53358000Y-15997000D01*
X53324000Y-16008000D01*
X53322000Y-16009000D01*
X52678000Y-16242000D01*
X52606000Y-16273000D01*
X52517000Y-16257000D01*
X52435000Y-16178000D01*
X52411000Y-16122000D01*
X52411000Y-14786000D01*
X52434000Y-14731000D01*
X52697000Y-14467000D01*
X52731000Y-14447000D01*
X52934000Y-14393000D01*
X52933000Y-14393000D01*
X53115000Y-14289000D01*
X53262000Y-14142000D01*
X53368000Y-13960000D01*
X53370000Y-13955000D01*
X53423000Y-13755000D01*
X53423000Y-13545000D01*
X53371000Y-13348000D01*
X53264000Y-13161000D01*
X53263000Y-13159000D01*
X53173000Y-13071000D01*
X53150000Y-13015000D01*
X53150000Y-10759000D01*
X53152000Y-10712000D01*
X53136000Y-10654000D01*
X53134000Y-10644000D01*
X53127000Y-10591000D01*
X53126000Y-10587000D01*
X53114000Y-10564000D01*
X53109000Y-10549000D01*
X53103000Y-10525000D01*
X53100000Y-10517000D01*
X53075000Y-10479000D01*
X53071000Y-10472000D01*
X53041000Y-10412000D01*
X53016000Y-10388000D01*
X53003000Y-10371000D01*
X53001000Y-10367000D01*
X52146000Y-9513000D01*
X52306000Y-9304000D01*
X52783000Y-9579000D01*
X52785000Y-9580000D01*
X52874000Y-9631000D01*
X52960000Y-9654000D01*
X53039000Y-9654000D01*
X53126000Y-9631000D01*
X53125000Y-9631000D01*
X53198000Y-9589000D01*
X53258000Y-9529000D01*
X53298000Y-9460000D01*
X53299000Y-9457000D01*
X53322000Y-9371000D01*
X53322000Y-9293000D01*
X53299000Y-9207000D01*
X53298000Y-9204000D01*
X53260000Y-9138000D01*
X53257000Y-9134000D01*
X53172000Y-9049000D01*
X53288000Y-8850000D01*
X53587000Y-8931000D01*
X53808000Y-8931000D01*
X54025000Y-8872000D01*
X54215000Y-8762000D01*
X54216000Y-8761000D01*
X54375000Y-8605000D01*
X54376000Y-8604000D01*
X54484000Y-8414000D01*
X54485000Y-8412000D01*
X54544000Y-8193000D01*
X54544000Y-7973000D01*
X54486000Y-7757000D01*
X54485000Y-7756000D01*
X54376000Y-7565000D01*
X54217000Y-7406000D01*
X54006000Y-7284000D01*
X53974000Y-7164000D01*
X54121000Y-6909000D01*
X54251000Y-6683000D01*
X55501000Y-4518000D01*
X55776000Y-4042000D01*
X55928000Y-3777000D01*
X56048000Y-3745000D01*
X56259000Y-3866000D01*
X56260000Y-3867000D01*
X56476000Y-3925000D01*
X56698000Y-3925000D01*
X56914000Y-3867000D01*
X56915000Y-3866000D01*
X57107000Y-3756000D01*
X57265000Y-3598000D01*
X57375000Y-3406000D01*
X57376000Y-3405000D01*
X57434000Y-3191000D01*
X57434000Y-2967000D01*
X57376000Y-2752000D01*
X57265000Y-2558000D01*
X57046000Y-2339000D01*
X57164000Y-2139000D01*
X57279000Y-2172000D01*
X57361000Y-2172000D01*
X57443000Y-2150000D01*
X57444000Y-2150000D01*
X57514000Y-2108000D01*
X57520000Y-2104000D01*
X57575000Y-2049000D01*
X57580000Y-2042000D01*
X57620000Y-1974000D01*
X57620000Y-1973000D01*
X57642000Y-1891000D01*
X57642000Y-1808000D01*
X57620000Y-1726000D01*
X57620000Y-1725000D01*
X57580000Y-1657000D01*
X57575000Y-1649000D01*
X57517000Y-1592000D01*
X57516000Y-1591000D01*
X56495000Y-1001000D01*
X56492000Y-1000000D01*
X56406000Y-977000D01*
X56325000Y-977000D01*
X56243000Y-999000D01*
X56172000Y-1041000D01*
X56167000Y-1045000D01*
X56111000Y-1100000D01*
X56106000Y-1107000D01*
X56066000Y-1175000D01*
X56066000Y-1176000D01*
X56044000Y-1258000D01*
X56044000Y-1341000D01*
X56066000Y-1423000D01*
X56066000Y-1424000D01*
X56106000Y-1492000D01*
X56112000Y-1499000D01*
X56169000Y-1557000D01*
X56170000Y-1558000D01*
X57015000Y-2046000D01*
X56914000Y-2289000D01*
X56698000Y-2231000D01*
X56476000Y-2231000D01*
X56260000Y-2289000D01*
X56259000Y-2290000D01*
X56140000Y-2358000D01*
X56060000Y-2358000D01*
X54455000Y-1431000D01*
X54153000Y-1955000D01*
X53980000Y-1955000D01*
X53907000Y-1829000D01*
X53905000Y-1826000D01*
X53754000Y-1676000D01*
X53576000Y-1574000D01*
X53577000Y-1574000D01*
X53371000Y-1517000D01*
X53160000Y-1517000D01*
X52953000Y-1574000D01*
X52776000Y-1677000D01*
X52632000Y-1822000D01*
X52631000Y-1823000D01*
X52523000Y-2004000D01*
X52523000Y-2005000D01*
X52468000Y-2210000D01*
X52468000Y-2227000D01*
X52460000Y-2261000D01*
X52449000Y-2283000D01*
X52440000Y-2312000D01*
X52434000Y-2325000D01*
X52423000Y-2346000D01*
X52412000Y-2397000D01*
X52410000Y-2404000D01*
X52393000Y-2460000D01*
X52392000Y-2494000D01*
X52391000Y-2503000D01*
X52389000Y-2512000D01*
X52390000Y-2512000D01*
X52389000Y-2520000D01*
X52389000Y-2705000D01*
X52271000Y-2795000D01*
X52087000Y-2745000D01*
X51876000Y-2745000D01*
X51671000Y-2802000D01*
X51493000Y-2904000D01*
X51344000Y-3052000D01*
X51323000Y-3078000D01*
X51261000Y-3108000D01*
X51216000Y-3108000D01*
X51209000Y-3109000D01*
X51117000Y-3127000D01*
X51109000Y-3129000D01*
X51062000Y-3147000D01*
X51059000Y-3149000D01*
X50997000Y-3176000D01*
X50926000Y-3221000D01*
X50925000Y-3222000D01*
X50867000Y-3271000D01*
X50861000Y-3277000D01*
X50812000Y-3335000D01*
X50806000Y-3343000D01*
X50780000Y-3386000D01*
X50438000Y-3979000D01*
X50437000Y-3980000D01*
X50434000Y-3985000D01*
X50411000Y-4033000D01*
X50409000Y-4038000D01*
X50394000Y-4086000D01*
X50393000Y-4090000D01*
X50371000Y-4183000D01*
X50371000Y-4325000D01*
X50332000Y-4394000D01*
X50262000Y-4435000D01*
X50258000Y-4438000D01*
X50111000Y-4584000D01*
X50110000Y-4585000D01*
X50003000Y-4772000D01*
X49968000Y-4904000D01*
X49887000Y-4966000D01*
X49046000Y-4966000D01*
X48953000Y-4988000D01*
X48949000Y-4989000D01*
X48947000Y-4989000D01*
X48896000Y-5006000D01*
X48816000Y-5047000D01*
X48806000Y-5052000D01*
X48761000Y-5086000D01*
X48759000Y-5088000D01*
X48670000Y-5163000D01*
X48559000Y-5163000D01*
X48486000Y-5100000D01*
X48429000Y-5051000D01*
X48425000Y-5048000D01*
X48328000Y-5004000D01*
X48269000Y-4985000D01*
X48187000Y-4967000D01*
X48182000Y-4966000D01*
X47396000Y-4966000D01*
X47303000Y-4988000D01*
X47299000Y-4989000D01*
X47297000Y-4989000D01*
X47246000Y-5006000D01*
X47166000Y-5047000D01*
X47156000Y-5052000D01*
X47111000Y-5086000D01*
X47109000Y-5088000D01*
X47057000Y-5131000D01*
X47052000Y-5136000D01*
X47012000Y-5183000D01*
X46967000Y-5248000D01*
X46960000Y-5260000D01*
X46928000Y-5332000D01*
X46914000Y-5375000D01*
X46913000Y-5380000D01*
X46896000Y-5452000D01*
X46896000Y-5455000D01*
X46890000Y-5505000D01*
X46890000Y-6377000D01*
X46896000Y-6430000D01*
X46913000Y-6503000D01*
X46914000Y-6510000D01*
X46929000Y-6555000D01*
X46931000Y-6559000D01*
X46965000Y-6629000D01*
X47003000Y-6688000D01*
X47052000Y-6746000D01*
X47060000Y-6754000D01*
X47119000Y-6804000D01*
X47180000Y-6842000D01*
X47247000Y-6875000D01*
X47248000Y-6876000D01*
X47298000Y-6892000D01*
X47303000Y-6893000D01*
X47376000Y-6910000D01*
X47379000Y-6910000D01*
X47429000Y-6916000D01*
X48151000Y-6916000D01*
X48201000Y-6910000D01*
X48204000Y-6910000D01*
X48276000Y-6893000D01*
X48281000Y-6892000D01*
X48283000Y-6892000D01*
X48324000Y-6878000D01*
X48398000Y-6845000D01*
X48408000Y-6839000D01*
X48467000Y-6798000D01*
X48559000Y-6719000D01*
X48670000Y-6719000D01*
X48773000Y-6806000D01*
X48830000Y-6842000D01*
X48897000Y-6875000D01*
X48898000Y-6876000D01*
X48948000Y-6892000D01*
X48953000Y-6893000D01*
X49026000Y-6910000D01*
X49029000Y-6910000D01*
X49079000Y-6916000D01*
X49496000Y-6916000D01*
X49551000Y-6939000D01*
X50095000Y-7482000D01*
X50018000Y-7667000D01*
X49062000Y-7667000D01*
X49062000Y-8133000D01*
X48974000Y-8221000D01*
X46251000Y-8221000D01*
X46163000Y-8133000D01*
X46163000Y-7667000D01*
X43638000Y-7667000D01*
X43638000Y-8896000D01*
X43550000Y-8984000D01*
X42820000Y-8984000D01*
X42752000Y-8981000D01*
X42687000Y-8999000D01*
X42677000Y-9001000D01*
X42626000Y-9008000D01*
X42609000Y-9017000D01*
X42595000Y-9022000D01*
X42562000Y-9031000D01*
X42509000Y-9064000D01*
X42459000Y-9089000D01*
X42453000Y-9094000D01*
X42425000Y-9119000D01*
X42420000Y-9123000D01*
X42411000Y-9130000D01*
X42406000Y-9134000D01*
X41700000Y-9841000D01*
X41697000Y-9844000D01*
X41650000Y-9887000D01*
X41619000Y-9942000D01*
X41614000Y-9951000D01*
X41578000Y-10000000D01*
X41577000Y-10002000D01*
X41568000Y-10031000D01*
X41562000Y-10044000D01*
X41551000Y-10065000D01*
X41540000Y-10116000D01*
X41538000Y-10123000D01*
X41521000Y-10179000D01*
X41520000Y-10213000D01*
X41519000Y-10222000D01*
X41517000Y-10231000D01*
X41518000Y-10231000D01*
X41517000Y-10239000D01*
X41517000Y-10340000D01*
X41516000Y-10365000D01*
X41517000Y-10370000D01*
X41517000Y-10692000D01*
X41516000Y-10720000D01*
X41521000Y-10803000D01*
X41400000Y-10901000D01*
X41243000Y-10857000D01*
X41029000Y-10857000D01*
X40822000Y-10914000D01*
X40643000Y-11018000D01*
X40605000Y-11028000D01*
X39434000Y-11028000D01*
X39396000Y-11018000D01*
X39215000Y-10914000D01*
X39216000Y-10914000D01*
X39010000Y-10857000D01*
X38799000Y-10857000D01*
X38592000Y-10914000D01*
X38415000Y-11017000D01*
X38271000Y-11161000D01*
X38270000Y-11163000D01*
X38162000Y-11344000D01*
X38162000Y-11345000D01*
X38107000Y-11550000D01*
X38107000Y-11760000D01*
X38153000Y-11933000D01*
X38063000Y-12050000D01*
X35245000Y-12050000D01*
X35200000Y-12048000D01*
X35142000Y-12064000D01*
X35132000Y-12066000D01*
X35075000Y-12074000D01*
X35052000Y-12086000D01*
X35036000Y-12092000D01*
X35006000Y-12100000D01*
X34960000Y-12129000D01*
X34952000Y-12134000D01*
X34901000Y-12159000D01*
G37*
%TD.AperFunction*%
%TD*%
M02*
