%TF.GenerationSoftware,Flux,Pcbnew,7.0.11-7.0.11~ubuntu20.04.1*%
%TF.CreationDate,2024-08-16T13:12:05+00:00*%
%TF.ProjectId,input,696e7075-742e-46b6-9963-61645f706362,rev?*%
%TF.SameCoordinates,Original*%
%TF.FileFunction,Copper,L2,Bot*%
%TF.FilePolarity,Positive*%
%FSLAX46Y46*%
G04 Gerber Fmt 4.6, Leading zero omitted, Abs format (unit mm)*
G04 Filename: betterflipperzero*
G04 Build it with Flux! Visit our site at: https://www.flux.ai (PCBNEW 7.0.11-7.0.11~ubuntu20.04.1) date 2024-08-16 13:12:05*
%MOMM*%
%LPD*%
G01*
G04 APERTURE LIST*
G04 Aperture macros list*
%AMHorizOval*
0 Thick line with rounded ends*
0 $1 width*
0 $2 $3 position (X,Y) of the first rounded end (center of the circle)*
0 $4 $5 position (X,Y) of the second rounded end (center of the circle)*
0 Add line between two ends*
20,1,$1,$2,$3,$4,$5,0*
0 Add two circle primitives to create the rounded ends*
1,1,$1,$2,$3*
1,1,$1,$4,$5*%
%AMFreePoly0*
4,1,129,0.022069,0.299187,0.036723,0.297744,0.051289,0.295583,0.065730,0.292711,0.080014,0.289133,0.094105,0.284858,0.107969,0.279898,0.121572,0.274263,0.134883,0.267967,0.147869,0.261026,0.160499,0.253456,0.172742,0.245275,0.184569,0.236504,0.195952,0.227163,0.206862,0.217274,0.217274,0.206862,0.227163,0.195952,0.236504,0.184569,0.245275,0.172742,0.253456,0.160499,
0.261026,0.147869,0.267967,0.134883,0.274263,0.121572,0.279898,0.107969,0.284858,0.094105,0.289133,0.080014,0.292711,0.065730,0.295583,0.051289,0.297744,0.036723,0.299187,0.022069,0.299910,0.007362,0.299910,-0.007362,0.299187,-0.022069,0.297744,-0.036723,0.295583,-0.051289,0.292711,-0.065730,0.289133,-0.080014,0.284858,-0.094105,0.279898,-0.107969,0.274263,-0.121572,
0.267967,-0.134883,0.261026,-0.147869,0.253456,-0.160499,0.245275,-0.172742,0.236504,-0.184569,0.227163,-0.195952,0.217274,-0.206862,0.206862,-0.217274,0.195952,-0.227163,0.184569,-0.236504,0.172742,-0.245275,0.160499,-0.253456,0.147869,-0.261026,0.134883,-0.267967,0.121572,-0.274263,0.107969,-0.279898,0.094105,-0.284858,0.080014,-0.289133,0.065730,-0.292711,0.051289,-0.295583,
0.036723,-0.297744,0.022069,-0.299187,0.007362,-0.299910,-0.007362,-0.299910,-0.022069,-0.299187,-0.036723,-0.297744,-0.051289,-0.295583,-0.065730,-0.292711,-0.080014,-0.289133,-0.094105,-0.284858,-0.107969,-0.279898,-0.121572,-0.274263,-0.134883,-0.267967,-0.147869,-0.261026,-0.160499,-0.253456,-0.172742,-0.245275,-0.184569,-0.236504,-0.195952,-0.227163,-0.206862,-0.217274,-0.217274,-0.206862,
-0.227163,-0.195952,-0.236504,-0.184569,-0.245275,-0.172742,-0.253456,-0.160499,-0.261026,-0.147869,-0.267967,-0.134883,-0.274263,-0.121572,-0.279898,-0.107969,-0.284858,-0.094105,-0.289133,-0.080014,-0.292711,-0.065730,-0.295583,-0.051289,-0.297744,-0.036723,-0.299187,-0.022069,-0.299910,-0.007362,-0.299910,0.007362,-0.299187,0.022069,-0.297744,0.036723,-0.295583,0.051289,-0.292711,0.065730,
-0.289133,0.080014,-0.284858,0.094105,-0.279898,0.107969,-0.274263,0.121572,-0.267967,0.134883,-0.261026,0.147869,-0.253456,0.160499,-0.245275,0.172742,-0.236504,0.184569,-0.227163,0.195952,-0.217274,0.206862,-0.206862,0.217274,-0.195952,0.227163,-0.184569,0.236504,-0.172742,0.245275,-0.160499,0.253456,-0.147869,0.261026,-0.134883,0.267967,-0.121572,0.274263,-0.107969,0.279898,
-0.094105,0.284858,-0.080014,0.289133,-0.065730,0.292711,-0.051289,0.295583,-0.036723,0.297744,-0.022069,0.299187,-0.007362,0.299910,0.007362,0.299910,0.022069,0.299187,0.022069,0.299187,$1*%
%AMFreePoly1*
4,1,5,0.850000,-0.850000,-0.850000,-0.850000,-0.850000,0.850000,0.850000,0.850000,0.850000,-0.850000,0.850000,-0.850000,$1*%
G04 Aperture macros list end*
%TA.AperFunction,ComponentPad*%
%ADD10HorizOval,1.050000X-0.454663X0.262500X0.454663X-0.262500X0*%
%TD*%
%TA.AperFunction,ComponentPad*%
%ADD11FreePoly0,0.000000*%
%TD*%
%TA.AperFunction,ComponentPad*%
%ADD12C,1.700000*%
%TD*%
%TA.AperFunction,ComponentPad*%
%ADD13FreePoly1,0.000000*%
%TD*%
%TA.AperFunction,ComponentPad*%
%ADD14C,2.700000*%
%TD*%
%TA.AperFunction,ComponentPad*%
%ADD15C,0.400000*%
%TD*%
%TA.AperFunction,Conductor*%
%ADD16C,0.300000*%
%TD*%
%TA.AperFunction,Conductor*%
%ADD17C,0.254000*%
%TD*%
%TA.AperFunction,Conductor*%
%ADD18C,0.150000*%
%TD*%
G04 APERTURE END LIST*
D10*
%TO.P,,a9728bda-38a0-4284-839c-b054ecb6658e__2326611f-98f6-a130-ac94-da96fde3ec8f*%
%TO.N,N/C*%
X56843000Y-1574574D03*
%TO.P,,a9728bda-38a0-4284-839c-b054ecb6658e__9415c64b-4f59-a6d9-e7ea-dc5b1de656fb*%
X52523018Y-9057044D03*
%TO.P,,a9728bda-38a0-4284-839c-b054ecb6658e__9b3c6dc7-8e8d-43a0-5d61-3a6777006a6c*%
X56143009Y-11147035D03*
%TO.P,,a9728bda-38a0-4284-839c-b054ecb6658e__e8284091-fcc7-bc14-948c-a2f31e589c00*%
X60462991Y-3664565D03*
D11*
%TO.P,,b47b39cd-066e-4d9b-819c-8c99630e36ba__55c7e7af-67a4-4066-a0f7-a2581e1d74bf*%
%TO.N,Net (P1)*%
X-21441616Y9699607D03*
%TO.P,,b47b39cd-066e-4d9b-819c-8c99630e36ba__6940ea2e-3799-43a3-a682-a446a143f7d9*%
X-23284634Y6424438D03*
%TO.P,,b47b39cd-066e-4d9b-819c-8c99630e36ba__de70eb82-9b2e-4f63-b72e-cc61ce8525f8*%
X-20706794Y9064481D03*
D12*
%TO.P,,fde93685-1b47-4d55-9189-6f2810ccf2d7__09777ebb-f9ec-a1d8-aacd-1e03d3e185cb*%
%TO.N,N/C*%
X9062700Y26038200D03*
%TO.P,,fde93685-1b47-4d55-9189-6f2810ccf2d7__17aa498e-7034-989d-93a1-20cf048a9bb7*%
X-1097300Y26038200D03*
D13*
%TO.P,,fde93685-1b47-4d55-9189-6f2810ccf2d7__780a0c78-b655-92b5-eb7b-7bb07a38f6bb*%
X-6177300Y26038200D03*
D12*
%TO.P,,fde93685-1b47-4d55-9189-6f2810ccf2d7__88186ed4-c72e-9151-10db-74afa3b3250f*%
X11602700Y26038200D03*
%TO.P,,fde93685-1b47-4d55-9189-6f2810ccf2d7__a5452cd5-cdfa-37d5-f511-cce953e8887a*%
X-3637300Y26038200D03*
%TO.P,,fde93685-1b47-4d55-9189-6f2810ccf2d7__bf89ace4-a929-4341-2316-5258132c0519*%
X6522700Y26038200D03*
%TO.P,,fde93685-1b47-4d55-9189-6f2810ccf2d7__e1477550-86e3-7622-8486-9d94b12c61a3*%
X3982700Y26038200D03*
%TO.P,,fde93685-1b47-4d55-9189-6f2810ccf2d7__fd60c3f0-3f20-7c4b-71bf-496c76bfff57*%
X1442700Y26038200D03*
D14*
%TO.P,,fde93685-1b47-4d55-9189-6f2810ccf2d7__9b5df1e0-9f2a-899f-2919-7db1566b6d64.mounts.13e7b21decf95421cd3e398441d8b521*%
X-13287300Y26038200D03*
%TO.P,,fde93685-1b47-4d55-9189-6f2810ccf2d7__9b5df1e0-9f2a-899f-2919-7db1566b6d64.mounts.13400cc629a4f6eba2ffef736c215646*%
X18712700Y-13461800D03*
%TO.P,,fde93685-1b47-4d55-9189-6f2810ccf2d7__9b5df1e0-9f2a-899f-2919-7db1566b6d64.mounts.9b67ec2108eab0208d9c6083db633c0f*%
X-13287300Y-13461800D03*
%TO.P,,fde93685-1b47-4d55-9189-6f2810ccf2d7__9b5df1e0-9f2a-899f-2919-7db1566b6d64.mounts.285fa6b931a40c0607ac10948467f53c*%
X18712700Y26038200D03*
D15*
%TO.P,,ff6aa628-a694-44a5-a8a3-0151430d2fb0__ee3a696f-ef70-402c-ab0c-7137ed4eee28.defaultFootprint.mounts.183bc2e5b0fd3164e75ded3f1243107f*%
X51805084Y13290543D03*
%TO.P,,ff6aa628-a694-44a5-a8a3-0151430d2fb0__ee3a696f-ef70-402c-ab0c-7137ed4eee28.defaultFootprint.mounts.9dc978c55082aad2fafacdbd9f5f57bc*%
X50592650Y12590542D03*
%TO.P,,ff6aa628-a694-44a5-a8a3-0151430d2fb0__ee3a696f-ef70-402c-ab0c-7137ed4eee28.defaultFootprint.mounts.a0d68b55a491274f814daab068f0c950*%
X51105083Y14502978D03*
%TO.P,,ff6aa628-a694-44a5-a8a3-0151430d2fb0__ee3a696f-ef70-402c-ab0c-7137ed4eee28.defaultFootprint.mounts.afcd757d940930679b843bc1e4386240*%
X49892648Y13802977D03*
%TO.P,,ff6aa628-a694-44a5-a8a3-0151430d2fb0__ee3a696f-ef70-402c-ab0c-7137ed4eee28.defaultFootprint.mounts.4504ff15bdcf4818a54146cc7a8e9a0d*%
X50405081Y15715413D03*
%TO.P,,ff6aa628-a694-44a5-a8a3-0151430d2fb0__ee3a696f-ef70-402c-ab0c-7137ed4eee28.defaultFootprint.mounts.19f3852e009ba6bfae8a2fce513ef1dd*%
X49192647Y15015411D03*
%TO.P,,ff6aa628-a694-44a5-a8a3-0151430d2fb0__ee3a696f-ef70-402c-ab0c-7137ed4eee28.defaultFootprint.mounts.6d4d26d8edc27532900a7c937b5e863d*%
X52061301Y14246762D03*
%TO.P,,ff6aa628-a694-44a5-a8a3-0151430d2fb0__ee3a696f-ef70-402c-ab0c-7137ed4eee28.defaultFootprint.mounts.f2ecf32f083cf9b5783a264d7a48b752*%
X50848866Y13546760D03*
%TO.P,,ff6aa628-a694-44a5-a8a3-0151430d2fb0__ee3a696f-ef70-402c-ab0c-7137ed4eee28.defaultFootprint.mounts.cf10f8cc0c36fe03b55323802961a88d*%
X49636431Y12846759D03*
%TO.P,,ff6aa628-a694-44a5-a8a3-0151430d2fb0__ee3a696f-ef70-402c-ab0c-7137ed4eee28.defaultFootprint.mounts.52e844226e796b1c42a9f7f1323ab2f7*%
X51361299Y15459196D03*
%TO.P,,ff6aa628-a694-44a5-a8a3-0151430d2fb0__ee3a696f-ef70-402c-ab0c-7137ed4eee28.defaultFootprint.mounts.a17b4eabb5e4ad17dbcba1ef557d9230*%
X48936430Y14059193D03*
%TO.P,,ff6aa628-a694-44a5-a8a3-0151430d2fb0__ee3a696f-ef70-402c-ab0c-7137ed4eee28.defaultFootprint.mounts.fab9ee6953aa1da2d8a8f965443f1f1b*%
X50148865Y14759195D03*
D11*
%TO.P,,207bfe61-dce0-4f39-be21-0d850f98b387*%
%TO.N,Net 10*%
X62644100Y752000D03*
%TO.P,,a650fbb7-4685-45b4-a32a-ea1cce39617a*%
X54068300Y23764000D03*
%TO.P,,347703a5-faa3-4a19-8658-400d6e74c78d*%
%TO.N,Net 6*%
X-25865600Y28437800D03*
%TO.P,,8766b817-0d94-4bd6-be7a-57be64c73932*%
X45440200Y18264700D03*
%TO.P,,20ae2f0a-8201-4819-835e-11af35ee14f1*%
%TO.N,Net 58*%
X-24097800Y28314700D03*
%TO.P,,62b8ada6-d1ed-4fe0-bf0a-13137be8c887*%
X-30392800Y29614500D03*
%TO.P,,01173b48-433f-476a-8512-74e8639255fa*%
%TO.N,Net 27*%
X-22680800Y26391700D03*
%TO.P,,1e3a95c6-b6ca-41fb-b598-488343e0906d*%
X-21374200Y29022400D03*
%TO.P,,29738394-fc21-4af3-a422-23968b129d75*%
X-19610900Y30899500D03*
%TO.P,,299a8220-cd96-43c9-b804-11321be162cb*%
X55934200Y8618600D03*
%TO.P,,984e020b-c8eb-4202-ada3-974d2924432e*%
X-26790700Y27458700D03*
%TO.P,,9d14486d-19d5-44bb-8658-f328cde09b27*%
X-31278200Y26391700D03*
%TO.P,,c5a86da6-6979-45c7-91b2-233b6e3c2928*%
X-24299300Y24977600D03*
%TO.P,,87fc061c-74f9-4937-b412-e6bfcb352be4*%
%TO.N,Net 13*%
X50748200Y-5074800D03*
%TO.P,,e8682695-0348-472d-818d-7dad2f3a248a*%
X46453400Y752000D03*
%TO.P,,04735876-aa60-49a8-b3ef-dafb8d97c6dc*%
%TO.N,Net 42*%
X51981500Y-3542800D03*
%TO.P,,547e7e36-499d-4f71-9a58-2572d818a868*%
X53515600Y-3078000D03*
%TO.P,,77028e07-86d5-4c74-86b8-4fccadde9762*%
%TO.N,Net 51*%
X42485100Y-12677400D03*
%TO.P,,8a8af2b2-8879-4748-8847-2b7529634d4f*%
X52625500Y-13650800D03*
%TO.P,,9a0ee4e0-4754-4aaf-bff0-f1295a4e016c*%
X41134600Y-11654800D03*
%TO.P,,9bb1d60f-9d26-468d-805d-ebec73a94ccf*%
X38212400Y-14387700D03*
%TO.P,,a41bcef6-0361-49d1-a9da-00d1fe06c176*%
X38904600Y-11654800D03*
%TO.P,,f469767e-8128-4d27-9fcb-dea7d323cce4*%
X51783800Y-13035700D03*
%TO.P,,307e88f4-dc42-43b6-a702-2edeb4db613b*%
%TO.N,Net 57*%
X-33405100Y27781100D03*
%TO.P,,7989da36-5e86-4160-8c86-af81154e94c0*%
X-18405500Y26391700D03*
%TO.P,,cb6df5cb-6e1d-452c-b854-d627b1a8e27e*%
X-19852000Y22218200D03*
%TO.P,,1c11753f-ba3c-4bc2-be14-7363f8c25c7e*%
%TO.N,GND*%
X49391700Y-20658400D03*
%TO.P,,48bce387-0c37-4954-a6b6-4bf429cc0ca7*%
X46770300Y-18482000D03*
%TO.P,,5497b025-87f2-4bd4-82bf-cf54279d495f*%
X47263500Y-15662600D03*
%TO.P,,6775c09e-24aa-4cb4-96bd-0e9dbbb39c8e*%
X65882100Y1306800D03*
%TO.P,,a038efce-1679-48d2-9dd2-f55c39d1bf0d*%
X51181200Y-16412600D03*
%TO.P,,a1b2cd5e-ac41-4acb-aaac-2dd1f3635b58*%
X44024200Y-18396100D03*
%TO.P,,b80b3862-2a3c-44e5-8999-8d92642536fd*%
X52265600Y-15108900D03*
%TO.P,,bb25d5dc-cc56-4c14-9856-18a8bdec11ac*%
X42575300Y18264700D03*
%TO.P,,bbfc730c-79c0-46ee-9314-bfb150350888*%
X56267900Y3350600D03*
%TO.P,,bca37ccc-f576-4123-bd04-3af01d74a4e4*%
X56268000Y-196400D03*
%TO.P,,c2a06121-aa2e-44ef-a1a9-41b443d0512b*%
X51868600Y11714500D03*
%TO.P,,e6c870e3-3ee4-422e-a94c-332fd1cf1eff*%
X42817200Y-15662600D03*
%TO.P,,f008b36e-c631-4d32-8d68-21d83ef20b9c*%
X50076100Y-20224400D03*
%TO.P,,6d486441-d8c5-414f-bf81-0cfa98cb07fc.via3.7*%
X27750000Y22650000D03*
%TO.P,,6d486441-d8c5-414f-bf81-0cfa98cb07fc.via3.6*%
X12750000Y22650000D03*
%TO.P,,6d486441-d8c5-414f-bf81-0cfa98cb07fc.via3.5*%
X-2250000Y22650000D03*
%TO.P,,6d486441-d8c5-414f-bf81-0cfa98cb07fc.via3.2*%
X-47250000Y22650000D03*
%TO.P,,6d486441-d8c5-414f-bf81-0cfa98cb07fc.via3.1*%
X-62250000Y22650000D03*
%TO.P,,6d486441-d8c5-414f-bf81-0cfa98cb07fc.via2.8*%
X42750000Y7650000D03*
%TO.P,,6d486441-d8c5-414f-bf81-0cfa98cb07fc.via2.7*%
X27750000Y7650000D03*
%TO.P,,6d486441-d8c5-414f-bf81-0cfa98cb07fc.via2.6*%
X12750000Y7650000D03*
%TO.P,,6d486441-d8c5-414f-bf81-0cfa98cb07fc.via2.5*%
X-2250000Y7650000D03*
%TO.P,,6d486441-d8c5-414f-bf81-0cfa98cb07fc.via2.4*%
X-17250000Y7650000D03*
%TO.P,,6d486441-d8c5-414f-bf81-0cfa98cb07fc.via2.3*%
X-32250000Y7650000D03*
%TO.P,,6d486441-d8c5-414f-bf81-0cfa98cb07fc.via2.2*%
X-47250000Y7650000D03*
%TO.P,,6d486441-d8c5-414f-bf81-0cfa98cb07fc.via2.1*%
X-62250000Y7650000D03*
%TO.P,,6d486441-d8c5-414f-bf81-0cfa98cb07fc.via1.7*%
X27750000Y-7350000D03*
%TO.P,,6d486441-d8c5-414f-bf81-0cfa98cb07fc.via1.6*%
X12750000Y-7350000D03*
%TO.P,,6d486441-d8c5-414f-bf81-0cfa98cb07fc.via1.5*%
X-2250000Y-7350000D03*
%TO.P,,6d486441-d8c5-414f-bf81-0cfa98cb07fc.via1.4*%
X-17250000Y-7350000D03*
%TO.P,,6d486441-d8c5-414f-bf81-0cfa98cb07fc.via1.2*%
X-47250000Y-7350000D03*
%TO.P,,6196e16c-7979-42d9-ad76-d445ddcc023d*%
%TO.N,Net 60*%
X47612100Y20464400D03*
%TO.P,,8356cf02-b333-4ecf-9e76-3fdb20e3ea38*%
X36633700Y32094000D03*
%TO.P,,a681c5ee-d869-4702-9617-cfb630c6daa8*%
X37059000Y30274800D03*
%TO.P,,fb35e27d-4a78-4c9e-b249-daa247fc444f*%
X-33979700Y26877400D03*
%TO.P,,32ca3a93-bba3-4c95-ab01-a7d48099238a*%
%TO.N,Net 59*%
X-23899800Y25684700D03*
%TO.P,,432c190e-7c6c-4629-a38a-289f299b0d74*%
X-24649800Y30899500D03*
%TO.P,,8c6fb8ec-4a97-4d96-9b68-1593b071ff7f*%
X-22461600Y27960600D03*
%TO.P,,9ecb8053-2c34-42dd-aa87-3024201c3ca2*%
X-25865600Y27601100D03*
%TO.P,,0ec2af76-9b66-48f3-a4a8-54f28df96267*%
%TO.N,Net 3*%
X-30392800Y21157500D03*
%TO.P,,1eaf378b-8dbd-49d5-8fd8-018d2d19bfe8*%
X59350200Y-2180600D03*
%TO.P,,297875d3-6ab7-425d-822c-8615cb265d7d*%
X39690600Y14059200D03*
%TO.P,,29ece115-5ec5-4e1a-aa3f-630b2d4a187a*%
X39690600Y12119600D03*
%TO.P,,6cae4a02-7858-4adb-abfa-c0b26730a22e*%
X44024200Y-20353900D03*
%TO.P,,fb6fff71-3ec6-4a7f-8d99-817b3e6bc926*%
X57367800Y495100D03*
%TO.P,,1d9e1414-e1fb-4408-8873-1aea5c839521*%
%TO.N,Net 44*%
X50958500Y-6132300D03*
%TO.P,,56c795dd-ded3-4d13-b249-e762881859f4*%
X39471200Y-14387600D03*
%TO.P,,dbd85782-9d4a-4d35-82c0-c87f9340991b*%
X39471100Y-14387700D03*
%TO.P,,42cda95b-14da-48be-890f-8489d13776ef*%
%TO.N,Net 20*%
X-27484600Y30341100D03*
%TO.P,,5d5dd051-ccc1-4574-aa30-766a32dbaf3d*%
X46933700Y20113400D03*
%TO.P,,bce8f571-2969-44a2-8e6b-e7d608574577*%
X-27484600Y29839900D03*
%TO.P,,d414dfef-8bc4-4ba2-a1da-e591f79817a4*%
X-19610900Y27698300D03*
%TO.P,,d9c929ea-34a2-4451-8b3c-4ed1978d07de*%
X-20020100Y29336000D03*
%TO.P,,e7371f10-f576-454d-a515-931f4f247937*%
X-17535200Y29336000D03*
%TO.P,,3aef87f0-7e20-4b50-877e-3518ec160918*%
%TO.N,Net 39*%
X36373800Y-18703000D03*
%TO.P,,53003c4b-45ff-46d7-9773-f4d178b73864*%
X47612100Y30899500D03*
%TO.P,,612118c2-8d54-4ec9-b86e-2c9f77602be6*%
X41779400Y-19976000D03*
%TO.P,,a2e25e8b-db38-4693-85f8-e128b4206fee*%
X38904600Y-9610800D03*
%TO.P,,b65aa16b-f548-4922-b1f7-fde41a5b7604*%
X41779400Y-19975700D03*
%TO.P,,cfcc94f9-2960-459e-a499-888820702cf8*%
X41779400Y-19975700D03*
%TO.P,,e4262e91-97c3-4149-8109-5f20bcfdb5dc*%
X-20020100Y31577900D03*
%TO.P,,f00835aa-4bee-4063-806c-f1905ca385f0*%
X40533700Y-16011200D03*
%TO.P,,13ed02ec-455c-4228-9391-f37b0673b352*%
%TO.N,Net 52*%
X54995000Y-15108900D03*
%TO.P,,2765ba84-73cf-4e7b-bcce-b3ba41b84a0b*%
X37812400Y-18310700D03*
%TO.P,,3481bf63-ebb2-4752-9003-f489efb7f34d*%
X34703400Y-18310700D03*
%TO.P,,42e6fb36-b780-480a-ad2b-f9716734e04a*%
X47423800Y-16726300D03*
%TO.P,,8fdf950a-6024-4205-b211-1a80856d01a7*%
X35690200Y-18310500D03*
%TO.P,,95f910c8-75bc-4a4d-bc3f-551c1527a05b*%
X37812500Y-18310700D03*
%TO.P,,d602e7bc-ce25-48e9-933c-900972f0a96d*%
X46770300Y-16012600D03*
%TO.P,,d78f01b3-265d-45cb-a132-82fa5d007254*%
X51461500Y-13651000D03*
%TO.P,,efc4761c-483a-4a34-b530-6b625bfd6c42*%
X48124100Y-17040300D03*
%TO.P,,6a511f93-fd61-4c61-8898-c57759339e15*%
%TO.N,Net 5*%
X43031400Y-18063400D03*
%TO.P,,a04df105-bec7-4903-a160-04d1c57021e6*%
X48342100Y-18396100D03*
%TO.P,,87e76f1a-bbef-4d27-a374-b311089021c5*%
%TO.N,Net 14*%
X53265600Y-2314900D03*
%TO.P,,b7399197-4958-4fdd-98c9-2a5ee51927ed*%
X48425000Y-9000D03*
%TO.P,,6d486441-d8c5-414f-bf81-0cfa98cb07fc.via.island.25*%
%TO.N,GND*%
X-20536600Y25355800D03*
%TO.P,,6d486441-d8c5-414f-bf81-0cfa98cb07fc.via.island.24*%
X-31621500Y30653100D03*
%TO.P,,6d486441-d8c5-414f-bf81-0cfa98cb07fc.via.island.23*%
X-34366600Y30671300D03*
%TO.P,,6d486441-d8c5-414f-bf81-0cfa98cb07fc.via.island.22*%
X-37317400Y31007200D03*
%TO.P,,6d486441-d8c5-414f-bf81-0cfa98cb07fc.via.island.21*%
X-28680000Y31325700D03*
%TO.P,,6d486441-d8c5-414f-bf81-0cfa98cb07fc.via.island.20*%
X50983500Y-2030000D03*
%TO.P,,6d486441-d8c5-414f-bf81-0cfa98cb07fc.via.island.19*%
X51270200Y30606700D03*
%TO.P,,6d486441-d8c5-414f-bf81-0cfa98cb07fc.via.island.18*%
X36814000Y26867600D03*
%TO.P,,6d486441-d8c5-414f-bf81-0cfa98cb07fc.via.island.17*%
X44323500Y27662400D03*
%TO.P,,6d486441-d8c5-414f-bf81-0cfa98cb07fc.via.island.16*%
X45299800Y14883400D03*
%TO.P,,6d486441-d8c5-414f-bf81-0cfa98cb07fc.via.island.15*%
X59343500Y11936400D03*
%TO.P,,6d486441-d8c5-414f-bf81-0cfa98cb07fc.via.island.14*%
X50093800Y23296800D03*
%TO.P,,6d486441-d8c5-414f-bf81-0cfa98cb07fc.via.island.13*%
X58578300Y-5409300D03*
%TO.P,,6d486441-d8c5-414f-bf81-0cfa98cb07fc.via.island.12*%
X32710700Y-17826800D03*
%TO.P,,6d486441-d8c5-414f-bf81-0cfa98cb07fc.via.island.11*%
X62369300Y6403500D03*
%TO.P,,6d486441-d8c5-414f-bf81-0cfa98cb07fc.via.island.10*%
X40904400Y-9557600D03*
%TO.P,,6d486441-d8c5-414f-bf81-0cfa98cb07fc.via.island.9*%
X-21772400Y14447800D03*
%TO.P,,6d486441-d8c5-414f-bf81-0cfa98cb07fc.via.island.8*%
X49131900Y16837500D03*
%TO.P,,6d486441-d8c5-414f-bf81-0cfa98cb07fc.via.island.7*%
X-33511300Y23643000D03*
%TO.P,,6d486441-d8c5-414f-bf81-0cfa98cb07fc.via.island.6*%
X55296600Y-6710900D03*
%TO.P,,6d486441-d8c5-414f-bf81-0cfa98cb07fc.via.island.5*%
X-26609600Y19321900D03*
%TO.P,,6d486441-d8c5-414f-bf81-0cfa98cb07fc.via.island.4*%
X-23305700Y23649000D03*
%TO.P,,6d486441-d8c5-414f-bf81-0cfa98cb07fc.via.island.3*%
X45460900Y4551100D03*
%TO.P,,6d486441-d8c5-414f-bf81-0cfa98cb07fc.via.island.2*%
X36623500Y-21565500D03*
%TO.P,,6d486441-d8c5-414f-bf81-0cfa98cb07fc.via.island.1*%
X51868500Y6268500D03*
%TO.P,,6d486441-d8c5-414f-bf81-0cfa98cb07fc.via.island.0*%
X54470700Y9340500D03*
%TD*%
D16*
%TO.N,Net (P1)*%
X-23284634Y6424438D02*
X-23284917Y6424438D01*
X-21441616Y9699607D02*
X-21441899Y9699607D01*
X-20657933Y9072046D02*
X-20664155Y9065824D01*
X-23284634Y6424438D02*
X-23284917Y6424438D01*
X-20664155Y9065824D02*
X-20696399Y9065824D01*
X-20705450Y9065824D02*
X-20696399Y9065824D01*
X-23294322Y6435681D02*
X-20657933Y9072046D01*
X-21441616Y9699607D02*
X-21441899Y9699607D01*
X-21489629Y9729094D02*
X-21489912Y9729094D01*
X-21489629Y9729094D02*
X-21489912Y9729094D01*
X-20706794Y9064481D02*
X-20705521Y9065753D01*
D17*
%TO.N,Net 10*%
X62644100Y752000D02*
X62644100Y3324600D01*
X56268000Y21564200D02*
X54068200Y23764000D01*
X62644000Y3324500D02*
X56268000Y9700500D01*
X56268000Y9700600D02*
X56268000Y21564200D01*
X54068300Y23764000D02*
X54068500Y23764200D01*
D18*
%TO.N,Net 6*%
X-23949200Y26877400D02*
X-24305200Y26877400D01*
X-18090600Y30274900D02*
X-22680800Y25684700D01*
D17*
X44635000Y18264800D02*
X43535200Y19364600D01*
X45440200Y18264700D02*
X44635000Y18264700D01*
D18*
X-22680800Y25684700D02*
X-22756400Y25684700D01*
D17*
X43535200Y19364600D02*
X41275000Y19364600D01*
X41274900Y19364600D02*
X30364700Y30274800D01*
D18*
X-24305200Y26877400D02*
X-25865600Y28437800D01*
X-22756400Y25684700D02*
X-23949200Y26877500D01*
X30364700Y30274800D02*
X-18090700Y30274800D01*
%TO.N,Net 58*%
X-25397600Y29614500D02*
X-24097800Y28314700D01*
X-30392800Y29614500D02*
X-25397600Y29614500D01*
%TO.N,Net 27*%
X-24299300Y24977500D02*
X-26780500Y27458700D01*
X52523000Y24486600D02*
X52523000Y22357400D01*
X-21374200Y27698300D02*
X-22680800Y26391700D01*
X-26780500Y27458700D02*
X-26790700Y27458700D01*
X52523000Y22357400D02*
X55515800Y19364600D01*
X55515800Y9037000D02*
X55934200Y8618600D01*
X55515800Y19364600D02*
X55515800Y9037000D01*
X-19610900Y30899500D02*
X46110100Y30899500D01*
X-26790700Y27458700D02*
X-30211100Y27458700D01*
X46110200Y30899500D02*
X52523000Y24486700D01*
X-30211200Y27458700D02*
X-31278200Y26391700D01*
X-21374200Y29022400D02*
X-21374200Y27698400D01*
D17*
%TO.N,Net 13*%
X50748200Y-5074800D02*
X50748200Y-3542800D01*
X50748200Y-3542800D02*
X46453400Y752000D01*
%TO.N,Net 42*%
X53368500Y-3078000D02*
X52281100Y-4165400D01*
X52281100Y-4165400D02*
X52281100Y-3842400D01*
X53515600Y-3078000D02*
X53368600Y-3078000D01*
X52281100Y-3842400D02*
X51981500Y-3542800D01*
%TO.N,Net 51*%
X52399000Y-13650800D02*
X51783800Y-13035600D01*
X38212400Y-14387700D02*
X38212400Y-12347100D01*
X52625500Y-13650800D02*
X52398900Y-13650800D01*
X41134600Y-11654800D02*
X41462400Y-11654800D01*
X38212400Y-12347000D02*
X38904600Y-11654800D01*
X41462500Y-11654800D02*
X42485100Y-12677400D01*
D18*
%TO.N,Net 57*%
X-19852100Y22218100D02*
X-19851900Y22218300D01*
X-25415000Y27781100D02*
X-19852000Y22218100D01*
X-33405000Y27781100D02*
X-25415000Y27781100D01*
X-18405500Y26391700D02*
X-18405500Y23664700D01*
X-18405600Y23664600D02*
X-19852000Y22218200D01*
D17*
%TO.N,GND*%
X47612100Y-16011200D02*
X47263500Y-15662600D01*
X56267900Y7315100D02*
X51868500Y11714500D01*
X49642100Y-20658400D02*
X50076100Y-20224400D01*
X42817200Y-17162400D02*
X42817200Y-15662600D01*
X47612100Y-16162600D02*
X47612100Y-16011200D01*
X46770300Y-17004400D02*
X47612100Y-16162600D01*
X44024200Y-18369400D02*
X42817200Y-17162400D01*
X49391700Y-20658400D02*
X49642100Y-20658400D01*
X44024200Y-18396100D02*
X44024200Y-18369300D01*
X52265600Y-15328200D02*
X51181200Y-16412600D01*
X56267900Y7315100D02*
X53524900Y7315100D01*
X52265600Y-15108900D02*
X52265600Y-15328100D01*
X56267900Y3350500D02*
X56267900Y7315100D01*
X56267900Y-196400D02*
X64378900Y-196400D01*
X53524900Y7315100D02*
X42575300Y18264700D01*
X46770300Y-18482000D02*
X46770300Y-17004400D01*
X64378900Y-196400D02*
X65882100Y1306800D01*
X51868600Y11714400D02*
X51868800Y11714600D01*
D18*
%TO.N,Net 60*%
X36633700Y32094000D02*
X-17241900Y32094000D01*
D17*
X46869400Y20464400D02*
X37059000Y30274800D01*
D18*
X-35830200Y24977500D02*
X-35830200Y25026900D01*
X-35830200Y25027000D02*
X-33979800Y26877400D01*
X-18405600Y33257700D02*
X-39974400Y33257700D01*
D17*
X47612100Y20464400D02*
X46869500Y20464400D01*
D18*
X-40381700Y33665100D02*
X-40381700Y29529100D01*
X-40381800Y29529100D02*
X-35830200Y24977500D01*
X-39974300Y33257700D02*
X-40381700Y33665100D01*
X-17241800Y32093900D02*
X-18405600Y33257700D01*
%TO.N,Net 59*%
X-23165500Y26391700D02*
X-23165300Y26391900D01*
X-24649800Y30148700D02*
X-22461600Y27960500D01*
X-23165500Y26391700D02*
X-23165300Y26391900D01*
X-24649800Y30899500D02*
X-24649800Y30148700D01*
X-23949100Y25684700D02*
X-25865500Y27601100D01*
X-23899800Y25684700D02*
X-23949200Y25684700D01*
D17*
%TO.N,Net 3*%
X54015600Y-10180100D02*
X56843000Y-7352700D01*
X39690600Y12119600D02*
X-21354800Y12119600D01*
X47612100Y-17445400D02*
X48342100Y-17445400D01*
X-21354800Y12119600D02*
X-30392800Y21157600D01*
X50958500Y-14829000D02*
X50958500Y-13302800D01*
X45170900Y-17979000D02*
X47612100Y-17979000D01*
X48342100Y-17445400D02*
X50958500Y-14829000D01*
X54015600Y-10245700D02*
X54015600Y-10180100D01*
X57367900Y495100D02*
X47690500Y495100D01*
X44024200Y-20353900D02*
X44024200Y-19125700D01*
X41630200Y10614600D02*
X41630200Y12119600D01*
X47690500Y495100D02*
X44170100Y4015500D01*
X56843000Y-4687800D02*
X59350200Y-2180600D01*
X44170200Y4015400D02*
X44170200Y8074600D01*
X44170200Y8074600D02*
X41630200Y10614600D01*
X50958500Y-13302800D02*
X54015500Y-10245800D01*
X56843000Y-7352800D02*
X56843000Y-4687800D01*
X44024200Y-19125600D02*
X45170800Y-17979000D01*
X41630200Y12119600D02*
X39690600Y14059200D01*
X47612100Y-17979000D02*
X47612100Y-17445400D01*
%TO.N,Net 44*%
X39471200Y-14387600D02*
X39471200Y-8964200D01*
X41455300Y-6980100D02*
X50110700Y-6980100D01*
X50110700Y-6980100D02*
X50958500Y-6132300D01*
X39471200Y-8964200D02*
X41455400Y-6980000D01*
D18*
%TO.N,Net 20*%
X-27484600Y30341100D02*
X-27484600Y29839900D01*
X46933700Y20113400D02*
X46534900Y20113400D01*
X-19610900Y27698300D02*
X-19172900Y27698300D01*
X36373500Y30274800D02*
X30924900Y30274800D01*
X30605800Y30593900D02*
X-18762200Y30593900D01*
X-19172800Y27698300D02*
X-17535200Y29336000D01*
X30925000Y30274800D02*
X30605800Y30594000D01*
X-18762100Y30594000D02*
X-20020100Y29336000D01*
X46534800Y20113400D02*
X36373400Y30274800D01*
X-27484600Y29839800D02*
X-27484400Y29840000D01*
D17*
%TO.N,Net 39*%
X41779400Y-19975700D02*
X41779400Y-18691100D01*
X46933700Y31577900D02*
X47612100Y30899500D01*
X36373800Y-18703000D02*
X36373800Y-12141600D01*
X-20020100Y31577900D02*
X46933700Y31577900D01*
X41779300Y-18691000D02*
X40533700Y-17445400D01*
X36373800Y-12141600D02*
X38904600Y-9610800D01*
X40533700Y-17445400D02*
X40533700Y-16162600D01*
%TO.N,Net 52*%
X34703400Y-18310500D02*
X34703600Y-18310300D01*
D16*
X37812500Y-18310700D02*
X37812500Y-17204900D01*
X39471400Y-15167900D02*
X40251600Y-14387700D01*
D17*
X51461400Y-13651000D02*
X51461600Y-13650800D01*
D16*
X45145300Y-14387700D02*
X46770300Y-16012700D01*
X39471400Y-15546000D02*
X39471400Y-15167800D01*
D17*
X37812500Y-18310700D02*
X37812700Y-18310500D01*
X54995100Y-15108900D02*
X52919300Y-15108900D01*
D16*
X37812400Y-17205000D02*
X39471400Y-15546000D01*
X40251600Y-14387700D02*
X45145400Y-14387700D01*
D18*
X47737800Y-17040300D02*
X47423800Y-16726300D01*
D17*
X52919300Y-15108800D02*
X51461500Y-13651000D01*
D18*
X48124100Y-17040300D02*
X47737900Y-17040300D01*
D17*
X35690200Y-18310500D02*
X34703400Y-18310500D01*
%TO.N,Net 5*%
X40112800Y-21915100D02*
X39471400Y-21273700D01*
X45743000Y-21915100D02*
X40112800Y-21915100D01*
D18*
X40533700Y-15294000D02*
X40533700Y-15565800D01*
D17*
X39471400Y-21273800D02*
X39471400Y-16356200D01*
X39471400Y-16356200D02*
X40533600Y-15294000D01*
D18*
X40533700Y-15565800D02*
X43031300Y-18063400D01*
X48342100Y-18396100D02*
X47540700Y-18396100D01*
X47540700Y-18396100D02*
X46461900Y-19474900D01*
D17*
X46461900Y-19475000D02*
X46461900Y-21196200D01*
X46462000Y-21196200D02*
X45743000Y-21915100D01*
%TO.N,Net 14*%
X49171000Y-755000D02*
X48425000Y-9000D01*
X53016100Y-2314900D02*
X51456100Y-754900D01*
X53265600Y-2314900D02*
X53016000Y-2314900D01*
X51456100Y-755000D02*
X49170900Y-755000D01*
%TD*%
%TA.AperFunction,Conductor*%
%TO.N,GND*%
G36*
X51307000Y-3090000D02*
G01*
X51183000Y-3090000D01*
X49660000Y-1567000D01*
X49737000Y-1382000D01*
X51164000Y-1382000D01*
X51219000Y-1405000D01*
X52418000Y-2604000D01*
X52302000Y-2803000D01*
X52088000Y-2745000D01*
X51876000Y-2745000D01*
X51671000Y-2802000D01*
X51493000Y-2904000D01*
X51307000Y-3090000D01*
G37*
%TD.AperFunction*%
%TA.AperFunction,Conductor*%
G36*
X-19044000Y25902000D02*
G01*
X-19003000Y25861000D01*
X-18980000Y25806000D01*
X-18980000Y23935000D01*
X-19003000Y23880000D01*
X-19789000Y23093000D01*
X-19913000Y23093000D01*
X-22124000Y25304000D01*
X-22124000Y25428000D01*
X-20359000Y27194000D01*
X-20235000Y27194000D01*
X-20101000Y27060000D01*
X-19914000Y26953000D01*
X-19717000Y26901000D01*
X-19505000Y26901000D01*
X-19201000Y26982000D01*
X-19079000Y26824000D01*
X-19146000Y26707000D01*
X-19150000Y26696000D01*
X-19203000Y26495000D01*
X-19203000Y26286000D01*
X-19151000Y26089000D01*
X-19044000Y25902000D01*
G37*
%TD.AperFunction*%
%TA.AperFunction,Conductor*%
G36*
X44014000Y-18248000D02*
G01*
X43829000Y-18171000D01*
X43829000Y-17959000D01*
X43775000Y-17754000D01*
X43667000Y-17574000D01*
X43668000Y-17574000D01*
X43523000Y-17427000D01*
X43524000Y-17427000D01*
X43339000Y-17321000D01*
X43340000Y-17321000D01*
X43134000Y-17266000D01*
X43079000Y-17266000D01*
X43024000Y-17243000D01*
X41185000Y-15404000D01*
X41162000Y-15353000D01*
X41152000Y-15131000D01*
X41241000Y-15038000D01*
X44845000Y-15038000D01*
X44900000Y-15061000D01*
X45964000Y-16125000D01*
X45984000Y-16159000D01*
X46028000Y-16321000D01*
X46132000Y-16502000D01*
X46279000Y-16649000D01*
X46465000Y-16757000D01*
X46572000Y-16785000D01*
X46629000Y-16841000D01*
X46683000Y-17036000D01*
X46778000Y-17202000D01*
X46691000Y-17352000D01*
X45265000Y-17352000D01*
X45256000Y-17351000D01*
X45215000Y-17352000D01*
X45126000Y-17352000D01*
X45116000Y-17353000D01*
X45114000Y-17353000D01*
X45101000Y-17355000D01*
X45069000Y-17356000D01*
X45013000Y-17373000D01*
X45005000Y-17375000D01*
X44953000Y-17385000D01*
X44931000Y-17397000D01*
X44919000Y-17402000D01*
X44881000Y-17414000D01*
X44825000Y-17454000D01*
X44819000Y-17458000D01*
X44780000Y-17480000D01*
X44773000Y-17485000D01*
X44742000Y-17520000D01*
X44014000Y-18248000D01*
G37*
%TD.AperFunction*%
%TA.AperFunction,Conductor*%
G36*
X-29903000Y28976000D02*
G01*
X-29862000Y29017000D01*
X-29807000Y29040000D01*
X-26612000Y29040000D01*
X-26526000Y28889000D01*
X-26609000Y28746000D01*
X-26609000Y28745000D01*
X-26663000Y28539000D01*
X-26663000Y28444000D01*
X-26751000Y28356000D01*
X-32820000Y28356000D01*
X-32875000Y28379000D01*
X-32915000Y28419000D01*
X-33095000Y28522000D01*
X-33094000Y28522000D01*
X-33301000Y28579000D01*
X-33509000Y28579000D01*
X-33715000Y28522000D01*
X-33895000Y28419000D01*
X-34043000Y28271000D01*
X-34146000Y28091000D01*
X-34203000Y27885000D01*
X-34203000Y27709000D01*
X-34260000Y27630000D01*
X-34294000Y27619000D01*
X-34470000Y27514000D01*
X-34472000Y27512000D01*
X-34617000Y27368000D01*
X-34618000Y27367000D01*
X-34723000Y27183000D01*
X-34777000Y26979000D01*
X-34777000Y26925000D01*
X-34800000Y26870000D01*
X-35793000Y25877000D01*
X-35917000Y25877000D01*
X-39784000Y29744000D01*
X-39807000Y29799000D01*
X-39807000Y32595000D01*
X-39719000Y32683000D01*
X-18676000Y32683000D01*
X-18621000Y32660000D01*
X-18351000Y32390000D01*
X-18428000Y32205000D01*
X-19491000Y32205000D01*
X-19529000Y32215000D01*
X-19717000Y32323000D01*
X-19914000Y32375000D01*
X-20126000Y32375000D01*
X-20323000Y32323000D01*
X-20510000Y32216000D01*
X-20658000Y32068000D01*
X-20761000Y31888000D01*
X-20818000Y31682000D01*
X-20818000Y31474000D01*
X-20761000Y31268000D01*
X-20658000Y31088000D01*
X-20510000Y30940000D01*
X-20507000Y30938000D01*
X-20448000Y30903000D01*
X-20408000Y30834000D01*
X-20408000Y30797000D01*
X-20353000Y30591000D01*
X-20352000Y30589000D01*
X-20252000Y30414000D01*
X-20250000Y30411000D01*
X-20128000Y30289000D01*
X-20173000Y30121000D01*
X-20324000Y30081000D01*
X-20510000Y29974000D01*
X-20658000Y29826000D01*
X-20660000Y29823000D01*
X-20742000Y29679000D01*
X-20864000Y29647000D01*
X-21063000Y29766000D01*
X-21268000Y29820000D01*
X-21479000Y29820000D01*
X-21685000Y29765000D01*
X-21866000Y29657000D01*
X-21867000Y29656000D01*
X-22012000Y29512000D01*
X-22115000Y29335000D01*
X-22172000Y29128000D01*
X-22172000Y28833000D01*
X-22282000Y28743000D01*
X-22355000Y28758000D01*
X-22414000Y28758000D01*
X-22469000Y28781000D01*
X-23998000Y30310000D01*
X-24011000Y30411000D01*
X-23909000Y30589000D01*
X-23852000Y30794000D01*
X-23852000Y31005000D01*
X-23909000Y31210000D01*
X-24011000Y31388000D01*
X-24159000Y31537000D01*
X-24160000Y31538000D01*
X-24347000Y31645000D01*
X-24544000Y31697000D01*
X-24753000Y31697000D01*
X-24957000Y31643000D01*
X-24959000Y31642000D01*
X-25141000Y31536000D01*
X-25288000Y31389000D01*
X-25392000Y31207000D01*
X-25447000Y31002000D01*
X-25447000Y30797000D01*
X-25392000Y30592000D01*
X-25254000Y30350000D01*
X-25322000Y30208000D01*
X-25430000Y30191000D01*
X-25442000Y30190000D01*
X-26599000Y30190000D01*
X-26687000Y30278000D01*
X-26687000Y30446000D01*
X-26742000Y30651000D01*
X-26742000Y30652000D01*
X-26850000Y30833000D01*
X-26850000Y30834000D01*
X-26995000Y30979000D01*
X-27172000Y31082000D01*
X-27379000Y31139000D01*
X-27590000Y31139000D01*
X-27795000Y31082000D01*
X-27973000Y30980000D01*
X-28122000Y30832000D01*
X-28123000Y30831000D01*
X-28230000Y30644000D01*
X-28282000Y30447000D01*
X-28282000Y30278000D01*
X-28370000Y30190000D01*
X-29808000Y30190000D01*
X-29863000Y30213000D01*
X-29903000Y30253000D01*
X-30090000Y30360000D01*
X-30287000Y30412000D01*
X-30496000Y30412000D01*
X-30700000Y30358000D01*
X-30702000Y30357000D01*
X-30884000Y30251000D01*
X-31031000Y30104000D01*
X-31135000Y29922000D01*
X-31190000Y29717000D01*
X-31190000Y29512000D01*
X-31135000Y29307000D01*
X-31031000Y29125000D01*
X-30884000Y28978000D01*
X-30702000Y28872000D01*
X-30700000Y28871000D01*
X-30496000Y28817000D01*
X-30287000Y28817000D01*
X-30090000Y28869000D01*
X-29903000Y28976000D01*
G37*
%TD.AperFunction*%
%TA.AperFunction,Conductor*%
G36*
X35881000Y-11752000D02*
G01*
X35856000Y-11777000D01*
X35831000Y-11828000D01*
X35826000Y-11836000D01*
X35798000Y-11880000D01*
X35795000Y-11887000D01*
X35788000Y-11913000D01*
X35783000Y-11928000D01*
X35771000Y-11951000D01*
X35771000Y-11952000D01*
X35763000Y-12008000D01*
X35761000Y-12018000D01*
X35745000Y-12076000D01*
X35747000Y-12129000D01*
X35747000Y-17425000D01*
X35659000Y-17513000D01*
X35587000Y-17513000D01*
X35383000Y-17567000D01*
X35378000Y-17569000D01*
X35236000Y-17651000D01*
X35156000Y-17651000D01*
X35016000Y-17570000D01*
X34809000Y-17513000D01*
X34598000Y-17513000D01*
X34393000Y-17570000D01*
X34215000Y-17672000D01*
X34066000Y-17821000D01*
X33957000Y-18009000D01*
X33906000Y-18205000D01*
X33906000Y-18414000D01*
X33959000Y-18615000D01*
X33961000Y-18620000D01*
X34067000Y-18802000D01*
X34214000Y-18949000D01*
X34217000Y-18951000D01*
X34396000Y-19053000D01*
X34601000Y-19108000D01*
X34806000Y-19108000D01*
X35012000Y-19053000D01*
X35011000Y-19053000D01*
X35156000Y-18970000D01*
X35236000Y-18970000D01*
X35378000Y-19052000D01*
X35383000Y-19054000D01*
X35587000Y-19108000D01*
X35640000Y-19108000D01*
X35709000Y-19148000D01*
X35734000Y-19190000D01*
X35737000Y-19194000D01*
X35884000Y-19341000D01*
X36071000Y-19448000D01*
X36268000Y-19500000D01*
X36477000Y-19500000D01*
X36682000Y-19446000D01*
X36683000Y-19445000D01*
X36863000Y-19341000D01*
X37009000Y-19196000D01*
X37011000Y-19194000D01*
X37151000Y-18951000D01*
X37271000Y-18919000D01*
X37505000Y-19053000D01*
X37710000Y-19108000D01*
X37915000Y-19108000D01*
X38121000Y-19053000D01*
X38120000Y-19053000D01*
X38299000Y-18951000D01*
X38302000Y-18949000D01*
X38449000Y-18802000D01*
X38488000Y-18737000D01*
X38557000Y-18619000D01*
X38606000Y-18509000D01*
X38844000Y-18559000D01*
X38844000Y-21182000D01*
X38843000Y-21195000D01*
X38844000Y-21246000D01*
X38844000Y-21319000D01*
X38845000Y-21327000D01*
X38844000Y-21327000D01*
X38846000Y-21336000D01*
X38847000Y-21345000D01*
X38848000Y-21378000D01*
X38868000Y-21443000D01*
X38871000Y-21453000D01*
X38880000Y-21499000D01*
X38892000Y-21520000D01*
X38898000Y-21534000D01*
X38905000Y-21557000D01*
X38907000Y-21560000D01*
X38939000Y-21605000D01*
X38976000Y-21670000D01*
X38976000Y-21671000D01*
X39032000Y-21721000D01*
X39036000Y-21724000D01*
X39195000Y-21884000D01*
X39118000Y-22069000D01*
X32349000Y-22078000D01*
X22201000Y-22088000D01*
X12051000Y-22094000D01*
X1901000Y-22099000D01*
X-8249000Y-22100000D01*
X-18399000Y-22099000D01*
X-28549000Y-22094000D01*
X-38699000Y-22088000D01*
X-48849000Y-22078000D01*
X-58999000Y-22065000D01*
X-68912000Y-22050000D01*
X-68990000Y-21993000D01*
X-69588000Y-20219000D01*
X-70263000Y-18216000D01*
X-70936000Y-16214000D01*
X-71609000Y-14210000D01*
X-71939800Y-13224000D01*
X-15126000Y-13224000D01*
X-15126000Y-13701000D01*
X-15000000Y-14172000D01*
X-14999000Y-14175000D01*
X-14758000Y-14591000D01*
X-14415000Y-14934000D01*
X-13998000Y-15174000D01*
X-13527000Y-15300000D01*
X-13048000Y-15300000D01*
X-12576000Y-15174000D01*
X-12577000Y-15174000D01*
X-12157000Y-14932000D01*
X-11817000Y-14592000D01*
X-11575000Y-14172000D01*
X-11449000Y-13701000D01*
X-11449000Y-13224000D01*
X16874000Y-13224000D01*
X16874000Y-13701000D01*
X17000000Y-14172000D01*
X17001000Y-14175000D01*
X17242000Y-14591000D01*
X17585000Y-14934000D01*
X18002000Y-15174000D01*
X18473000Y-15300000D01*
X18952000Y-15300000D01*
X19424000Y-15174000D01*
X19423000Y-15174000D01*
X19843000Y-14932000D01*
X20183000Y-14592000D01*
X20425000Y-14172000D01*
X20551000Y-13701000D01*
X20551000Y-13224000D01*
X20425000Y-12751000D01*
X20185000Y-12334000D01*
X19843000Y-11992000D01*
X19423000Y-11750000D01*
X19424000Y-11750000D01*
X18953000Y-11623000D01*
X18472000Y-11623000D01*
X18001000Y-11750000D01*
X17585000Y-11990000D01*
X17241000Y-12334000D01*
X17001000Y-12748000D01*
X17000000Y-12751000D01*
X16874000Y-13224000D01*
X-11449000Y-13224000D01*
X-11575000Y-12751000D01*
X-11815000Y-12334000D01*
X-12157000Y-11992000D01*
X-12577000Y-11750000D01*
X-12576000Y-11750000D01*
X-13047000Y-11623000D01*
X-13528000Y-11623000D01*
X-13999000Y-11750000D01*
X-14415000Y-11990000D01*
X-14759000Y-12334000D01*
X-14999000Y-12748000D01*
X-15000000Y-12751000D01*
X-15126000Y-13224000D01*
X-71939800Y-13224000D01*
X-72281000Y-12207000D01*
X-72977000Y-10131000D01*
X-72976000Y-10129000D01*
X-73622000Y-8198000D01*
X-74291000Y-6194000D01*
X-74960000Y-4189000D01*
X-76296000Y-177000D01*
X-76946000Y1781000D01*
X-76950000Y1804000D01*
X-76965000Y3801000D01*
X-76978000Y5851000D01*
X-76978000Y5852000D01*
X-76981293Y6527000D01*
X-24082000Y6527000D01*
X-24082000Y6322000D01*
X-24027000Y6117000D01*
X-23923000Y5935000D01*
X-23774000Y5786000D01*
X-23592000Y5682000D01*
X-23387000Y5627000D01*
X-23182000Y5627000D01*
X-22976000Y5682000D01*
X-22977000Y5682000D01*
X-22792000Y5788000D01*
X-22793000Y5788000D01*
X-22650000Y5933000D01*
X-22649000Y5935000D01*
X-22541000Y6115000D01*
X-22491000Y6306000D01*
X-22471000Y6340000D01*
X-20538000Y8273000D01*
X-20503000Y8293000D01*
X-20404000Y8318000D01*
X-20217000Y8426000D01*
X-20216000Y8427000D01*
X-20068000Y8576000D01*
X-19966000Y8754000D01*
X-19909000Y8959000D01*
X-19909000Y9170000D01*
X-19966000Y9377000D01*
X-20069000Y9554000D01*
X-20213000Y9698000D01*
X-20215000Y9699000D01*
X-20396000Y9807000D01*
X-20397000Y9807000D01*
X-20619000Y9866000D01*
X-20675000Y9923000D01*
X-20699000Y10010000D01*
X-20806000Y10189000D01*
X-20807000Y10191000D01*
X-20950000Y10336000D01*
X-20949000Y10336000D01*
X-21134000Y10442000D01*
X-21133000Y10442000D01*
X-21339000Y10497000D01*
X-21544000Y10497000D01*
X-21749000Y10442000D01*
X-21931000Y10338000D01*
X-22080000Y10189000D01*
X-22184000Y10007000D01*
X-22239000Y9802000D01*
X-22239000Y9597000D01*
X-22184000Y9392000D01*
X-22078000Y9207000D01*
X-21933000Y9065000D01*
X-21931000Y9063000D01*
X-21817000Y8995000D01*
X-21799000Y8850000D01*
X-23425000Y7224000D01*
X-23459000Y7204000D01*
X-23594000Y7168000D01*
X-23774000Y7060000D01*
X-23776000Y7059000D01*
X-23921000Y6917000D01*
X-24027000Y6732000D01*
X-24082000Y6527000D01*
X-76981293Y6527000D01*
X-76988000Y7902000D01*
X-76994000Y9950000D01*
X-76999000Y12000000D01*
X-77000000Y14050000D01*
X-76999000Y16099000D01*
X-76999000Y16100000D01*
X-76994000Y18150000D01*
X-76988000Y20198000D01*
X-76978000Y22248000D01*
X-76965000Y24298000D01*
X-76952000Y26111000D01*
X-76895000Y26189000D01*
X-75107000Y26791000D01*
X-73094000Y27468000D01*
X-71080000Y28145000D01*
X-69067000Y28822000D01*
X-67054000Y29497000D01*
X-65042000Y30173000D01*
X-63029000Y30847000D01*
X-61017000Y31522000D01*
X-59005000Y32195000D01*
X-56994000Y32868000D01*
X-54982000Y33541000D01*
X-53022000Y34196000D01*
X-52998000Y34200000D01*
X-44243000Y34203000D01*
X-40902000Y34204000D01*
X-40819000Y34041000D01*
X-40919000Y33901000D01*
X-40966000Y33675000D01*
X-40958000Y33627000D01*
X-40957000Y33614000D01*
X-40957000Y29590000D01*
X-40959000Y29575000D01*
X-40966000Y29539000D01*
X-40949000Y29439000D01*
X-40930000Y29326000D01*
X-40928000Y29319000D01*
X-40927000Y29311000D01*
X-40925000Y29308000D01*
X-40864000Y29218000D01*
X-40862000Y29214000D01*
X-40814000Y29133000D01*
X-40813000Y29132000D01*
X-40766000Y29098000D01*
X-40756000Y29090000D01*
X-36291000Y24626000D01*
X-36280000Y24611000D01*
X-36262000Y24581000D01*
X-36260000Y24579000D01*
X-36187000Y24526000D01*
X-36186000Y24525000D01*
X-36082000Y24448000D01*
X-35852000Y24392000D01*
X-35844000Y24393000D01*
X-35621000Y24430000D01*
X-35620000Y24431000D01*
X-35549000Y24476000D01*
X-35547000Y24477000D01*
X-35435000Y24544000D01*
X-35422000Y24557000D01*
X-35375000Y24627000D01*
X-35374000Y24629000D01*
X-35294000Y24740000D01*
X-35292000Y24744000D01*
X-35276000Y24768000D01*
X-33987000Y26057000D01*
X-33932000Y26080000D01*
X-33874000Y26080000D01*
X-33677000Y26132000D01*
X-33490000Y26239000D01*
X-33489000Y26240000D01*
X-33341000Y26389000D01*
X-33240000Y26564000D01*
X-33182000Y26770000D01*
X-33182000Y26943000D01*
X-33142000Y27013000D01*
X-32915000Y27143000D01*
X-32875000Y27183000D01*
X-32820000Y27206000D01*
X-31853000Y27206000D01*
X-31776000Y27021000D01*
X-31918000Y26879000D01*
X-32019000Y26706000D01*
X-32076000Y26496000D01*
X-32076000Y26286000D01*
X-32019000Y26081000D01*
X-32018000Y26079000D01*
X-31916000Y25902000D01*
X-31768000Y25754000D01*
X-31588000Y25651000D01*
X-31382000Y25594000D01*
X-31174000Y25594000D01*
X-30964000Y25651000D01*
X-30791000Y25752000D01*
X-30790000Y25753000D01*
X-30641000Y25901000D01*
X-30640000Y25902000D01*
X-30533000Y26089000D01*
X-30481000Y26286000D01*
X-30481000Y26345000D01*
X-30458000Y26400000D01*
X-29997000Y26861000D01*
X-29942000Y26884000D01*
X-27375000Y26884000D01*
X-27320000Y26861000D01*
X-27278000Y26819000D01*
X-27105000Y26718000D01*
X-26895000Y26661000D01*
X-26828000Y26661000D01*
X-26773000Y26638000D01*
X-25120000Y24985000D01*
X-25097000Y24930000D01*
X-25097000Y24872000D01*
X-25040000Y24665000D01*
X-24937000Y24488000D01*
X-24792000Y24343000D01*
X-24610000Y24235000D01*
X-24404000Y24180000D01*
X-24193000Y24180000D01*
X-23988000Y24234000D01*
X-23809000Y24341000D01*
X-23807000Y24343000D01*
X-23662000Y24487000D01*
X-23661000Y24488000D01*
X-23557000Y24670000D01*
X-23509000Y24850000D01*
X-23341000Y24895000D01*
X-20672000Y22226000D01*
X-20649000Y22171000D01*
X-20649000Y22115000D01*
X-20594000Y21908000D01*
X-20593000Y21907000D01*
X-20489000Y21728000D01*
X-20343000Y21581000D01*
X-20342000Y21580000D01*
X-20155000Y21473000D01*
X-19958000Y21421000D01*
X-19746000Y21421000D01*
X-19549000Y21473000D01*
X-19362000Y21580000D01*
X-19361000Y21581000D01*
X-19215000Y21728000D01*
X-19111000Y21907000D01*
X-19110000Y21908000D01*
X-19055000Y22115000D01*
X-19055000Y22170000D01*
X-19032000Y22225000D01*
X-18044000Y23213000D01*
X-18031000Y23223000D01*
X-17999000Y23244000D01*
X-17995000Y23247000D01*
X-17951000Y23314000D01*
X-17948000Y23318000D01*
X-17876000Y23413000D01*
X-17876000Y23414000D01*
X-17872000Y23426000D01*
X-17867000Y23438000D01*
X-17846000Y23537000D01*
X-17845000Y23539000D01*
X-17822000Y23641000D01*
X-17821000Y23643000D01*
X-17829000Y23690000D01*
X-17830000Y23702000D01*
X-17830000Y25807000D01*
X-17807000Y25862000D01*
X-17767000Y25902000D01*
X-17660000Y26089000D01*
X-17610376Y26277000D01*
X-15126000Y26277000D01*
X-15126000Y25799000D01*
X-15000000Y25328000D01*
X-14999000Y25325000D01*
X-14759000Y24910000D01*
X-14415000Y24566000D01*
X-13998000Y24326000D01*
X-13527000Y24200000D01*
X-13048000Y24200000D01*
X-12576000Y24326000D01*
X-12577000Y24326000D01*
X-12157000Y24568000D01*
X-11817000Y24908000D01*
X-11575000Y25328000D01*
X-11449000Y25799000D01*
X-11449000Y26277000D01*
X-11575000Y26749000D01*
X-11815000Y27166000D01*
X-12037000Y27388000D01*
X-7527000Y27388000D01*
X-7527000Y24688000D01*
X-4827000Y24688000D01*
X-4827000Y25067000D01*
X-4642000Y25144000D01*
X-4461000Y24963000D01*
X-4161000Y24789000D01*
X-4158000Y24788000D01*
X-3811000Y24695000D01*
X-3461000Y24695000D01*
X-3116000Y24788000D01*
X-2814000Y24963000D01*
X-2562000Y25215000D01*
X-2453000Y25402000D01*
X-2280000Y25402000D01*
X-2173000Y25215000D01*
X-1921000Y24963000D01*
X-1621000Y24789000D01*
X-1618000Y24788000D01*
X-1271000Y24695000D01*
X-921000Y24695000D01*
X-575000Y24788000D01*
X-576000Y24788000D01*
X-274000Y24963000D01*
X-22000Y25215000D01*
X87000Y25402000D01*
X260000Y25402000D01*
X367000Y25215000D01*
X619000Y24963000D01*
X919000Y24789000D01*
X922000Y24788000D01*
X1269000Y24695000D01*
X1619000Y24695000D01*
X1965000Y24788000D01*
X1964000Y24788000D01*
X2266000Y24963000D01*
X2518000Y25215000D01*
X2627000Y25402000D01*
X2800000Y25402000D01*
X2907000Y25215000D01*
X3159000Y24963000D01*
X3459000Y24789000D01*
X3462000Y24788000D01*
X3809000Y24695000D01*
X4159000Y24695000D01*
X4505000Y24788000D01*
X4504000Y24788000D01*
X4806000Y24963000D01*
X5058000Y25215000D01*
X5167000Y25402000D01*
X5340000Y25402000D01*
X5447000Y25215000D01*
X5699000Y24963000D01*
X5999000Y24789000D01*
X6002000Y24788000D01*
X6349000Y24695000D01*
X6699000Y24695000D01*
X7045000Y24788000D01*
X7044000Y24788000D01*
X7346000Y24963000D01*
X7598000Y25215000D01*
X7707000Y25402000D01*
X7880000Y25402000D01*
X7987000Y25215000D01*
X8239000Y24963000D01*
X8539000Y24789000D01*
X8542000Y24788000D01*
X8889000Y24695000D01*
X9239000Y24695000D01*
X9585000Y24788000D01*
X9584000Y24788000D01*
X9886000Y24963000D01*
X10138000Y25215000D01*
X10247000Y25402000D01*
X10420000Y25402000D01*
X10527000Y25215000D01*
X10779000Y24963000D01*
X11079000Y24789000D01*
X11082000Y24788000D01*
X11429000Y24695000D01*
X11779000Y24695000D01*
X12125000Y24788000D01*
X12124000Y24788000D01*
X12426000Y24963000D01*
X12678000Y25215000D01*
X12853000Y25517000D01*
X12945000Y25864000D01*
X12945000Y26211000D01*
X12927400Y26277000D01*
X16874000Y26277000D01*
X16874000Y25799000D01*
X17000000Y25328000D01*
X17001000Y25325000D01*
X17241000Y24910000D01*
X17585000Y24566000D01*
X18002000Y24326000D01*
X18473000Y24200000D01*
X18952000Y24200000D01*
X19424000Y24326000D01*
X19423000Y24326000D01*
X19843000Y24568000D01*
X20183000Y24908000D01*
X20425000Y25328000D01*
X20551000Y25799000D01*
X20551000Y26277000D01*
X20425000Y26749000D01*
X20185000Y27166000D01*
X19843000Y27508000D01*
X19423000Y27750000D01*
X19424000Y27750000D01*
X18953000Y27877000D01*
X18472000Y27877000D01*
X18001000Y27750000D01*
X17584000Y27509000D01*
X17241000Y27166000D01*
X17001000Y26752000D01*
X17000000Y26749000D01*
X16874000Y26277000D01*
X12927400Y26277000D01*
X12853000Y26556000D01*
X12678000Y26861000D01*
X12676000Y26864000D01*
X12427000Y27113000D01*
X12122000Y27288000D01*
X12123000Y27288000D01*
X11779000Y27381000D01*
X11429000Y27381000D01*
X11083000Y27288000D01*
X10778000Y27113000D01*
X10529000Y26864000D01*
X10527000Y26861000D01*
X10420000Y26674000D01*
X10247000Y26674000D01*
X10138000Y26861000D01*
X10136000Y26864000D01*
X9887000Y27113000D01*
X9582000Y27288000D01*
X9583000Y27288000D01*
X9239000Y27381000D01*
X8889000Y27381000D01*
X8543000Y27288000D01*
X8238000Y27113000D01*
X7989000Y26864000D01*
X7987000Y26861000D01*
X7880000Y26674000D01*
X7707000Y26674000D01*
X7598000Y26861000D01*
X7596000Y26864000D01*
X7347000Y27113000D01*
X7042000Y27288000D01*
X7043000Y27288000D01*
X6699000Y27381000D01*
X6349000Y27381000D01*
X6003000Y27288000D01*
X5698000Y27113000D01*
X5449000Y26864000D01*
X5447000Y26861000D01*
X5340000Y26674000D01*
X5167000Y26674000D01*
X5058000Y26861000D01*
X5056000Y26864000D01*
X4807000Y27113000D01*
X4502000Y27288000D01*
X4503000Y27288000D01*
X4159000Y27381000D01*
X3809000Y27381000D01*
X3463000Y27288000D01*
X3158000Y27113000D01*
X2909000Y26864000D01*
X2907000Y26861000D01*
X2800000Y26674000D01*
X2627000Y26674000D01*
X2518000Y26861000D01*
X2516000Y26864000D01*
X2267000Y27113000D01*
X1962000Y27288000D01*
X1963000Y27288000D01*
X1619000Y27381000D01*
X1269000Y27381000D01*
X923000Y27288000D01*
X618000Y27113000D01*
X369000Y26864000D01*
X367000Y26861000D01*
X260000Y26674000D01*
X87000Y26674000D01*
X-22000Y26861000D01*
X-24000Y26864000D01*
X-273000Y27113000D01*
X-578000Y27288000D01*
X-577000Y27288000D01*
X-921000Y27381000D01*
X-1271000Y27381000D01*
X-1617000Y27288000D01*
X-1922000Y27113000D01*
X-2171000Y26864000D01*
X-2173000Y26861000D01*
X-2280000Y26674000D01*
X-2453000Y26674000D01*
X-2562000Y26861000D01*
X-2564000Y26864000D01*
X-2813000Y27113000D01*
X-3118000Y27288000D01*
X-3117000Y27288000D01*
X-3461000Y27381000D01*
X-3811000Y27381000D01*
X-4157000Y27288000D01*
X-4462000Y27113000D01*
X-4642000Y26933000D01*
X-4827000Y27010000D01*
X-4827000Y27388000D01*
X-7527000Y27388000D01*
X-12037000Y27388000D01*
X-12157000Y27508000D01*
X-12577000Y27750000D01*
X-12576000Y27750000D01*
X-13047000Y27877000D01*
X-13528000Y27877000D01*
X-13999000Y27750000D01*
X-14416000Y27509000D01*
X-14759000Y27166000D01*
X-14999000Y26752000D01*
X-15000000Y26749000D01*
X-15126000Y26277000D01*
X-17610376Y26277000D01*
X-17608000Y26286000D01*
X-17608000Y26495000D01*
X-17661000Y26696000D01*
X-17663000Y26701000D01*
X-17769000Y26883000D01*
X-17916000Y27030000D01*
X-18098000Y27134000D01*
X-18097000Y27134000D01*
X-18303000Y27189000D01*
X-18607000Y27189000D01*
X-18684000Y27374000D01*
X-17542000Y28516000D01*
X-17487000Y28539000D01*
X-17432000Y28539000D01*
X-17227000Y28593000D01*
X-17226000Y28594000D01*
X-17046000Y28698000D01*
X-16898000Y28845000D01*
X-16897000Y28846000D01*
X-16790000Y29033000D01*
X-16738000Y29230000D01*
X-16738000Y29440000D01*
X-16776000Y29582000D01*
X-16686000Y29700000D01*
X30021000Y29700000D01*
X30076000Y29677000D01*
X40865000Y18887000D01*
X40869000Y18885000D01*
X40886000Y18872000D01*
X40911000Y18848000D01*
X40911000Y18847000D01*
X40962000Y18822000D01*
X40970000Y18817000D01*
X41016000Y18788000D01*
X41046000Y18780000D01*
X41062000Y18774000D01*
X41085000Y18762000D01*
X41142000Y18754000D01*
X41152000Y18752000D01*
X41210000Y18736000D01*
X41255000Y18738000D01*
X43243000Y18738000D01*
X43298000Y18715000D01*
X44226000Y17786000D01*
X44238000Y17778000D01*
X44247000Y17770000D01*
X44269000Y17748000D01*
X44271000Y17747000D01*
X44322000Y17722000D01*
X44330000Y17717000D01*
X44376000Y17688000D01*
X44406000Y17680000D01*
X44422000Y17674000D01*
X44445000Y17662000D01*
X44502000Y17654000D01*
X44512000Y17652000D01*
X44570000Y17636000D01*
X44615000Y17638000D01*
X44910000Y17638000D01*
X44948000Y17628000D01*
X45126000Y17524000D01*
X45336000Y17467000D01*
X45544000Y17467000D01*
X45751000Y17524000D01*
X45750000Y17524000D01*
X45930000Y17627000D01*
X46078000Y17775000D01*
X46181000Y17955000D01*
X46238000Y18161000D01*
X46238000Y18369000D01*
X46181000Y18579000D01*
X46080000Y18752000D01*
X45931000Y18902000D01*
X45930000Y18903000D01*
X45743000Y19010000D01*
X45546000Y19062000D01*
X45337000Y19062000D01*
X45133000Y19008000D01*
X45131000Y19007000D01*
X44964000Y18911000D01*
X44863000Y18924000D01*
X43945000Y19843000D01*
X43941000Y19845000D01*
X43924000Y19858000D01*
X43898000Y19884000D01*
X43850000Y19907000D01*
X43841000Y19912000D01*
X43795000Y19942000D01*
X43794000Y19942000D01*
X43764000Y19950000D01*
X43748000Y19956000D01*
X43725000Y19968000D01*
X43668000Y19976000D01*
X43658000Y19978000D01*
X43600000Y19994000D01*
X43555000Y19992000D01*
X41567000Y19992000D01*
X41512000Y20015000D01*
X32013000Y29515000D01*
X32090000Y29700000D01*
X36103000Y29700000D01*
X36158000Y29677000D01*
X46083000Y19752000D01*
X46093000Y19739000D01*
X46115000Y19706000D01*
X46186000Y19656000D01*
X46188000Y19654000D01*
X46285000Y19583000D01*
X46296000Y19579000D01*
X46306000Y19575000D01*
X46334000Y19569000D01*
X46372000Y19548000D01*
X46442000Y19477000D01*
X46631000Y19368000D01*
X46828000Y19316000D01*
X47037000Y19316000D01*
X47241000Y19370000D01*
X47243000Y19371000D01*
X47425000Y19477000D01*
X47592000Y19644000D01*
X47647000Y19667000D01*
X47718000Y19667000D01*
X47915000Y19719000D01*
X48102000Y19826000D01*
X48103000Y19827000D01*
X48249000Y19974000D01*
X48251000Y19976000D01*
X48353000Y20154000D01*
X48410000Y20359000D01*
X48410000Y20570000D01*
X48353000Y20777000D01*
X48250000Y20954000D01*
X48106000Y21098000D01*
X48104000Y21099000D01*
X47923000Y21207000D01*
X47922000Y21207000D01*
X47717000Y21262000D01*
X47507000Y21262000D01*
X47301000Y21207000D01*
X47177000Y21134000D01*
X47075000Y21147000D01*
X38083000Y30139000D01*
X38160000Y30324000D01*
X45841000Y30324000D01*
X45896000Y30301000D01*
X51925000Y24272000D01*
X51948000Y24217000D01*
X51948000Y22418000D01*
X51946000Y22403000D01*
X51939000Y22367000D01*
X51961000Y22239000D01*
X51961000Y22238000D01*
X51974000Y22156000D01*
X51979000Y22141000D01*
X51980000Y22135000D01*
X52034000Y22055000D01*
X52037000Y22052000D01*
X52092000Y21960000D01*
X52139000Y21926000D01*
X52149000Y21918000D01*
X54918000Y19149000D01*
X54941000Y19094000D01*
X54941000Y9098000D01*
X54939000Y9083000D01*
X54932000Y9047000D01*
X54950000Y8942000D01*
X54968000Y8835000D01*
X54970000Y8825000D01*
X54971000Y8819000D01*
X54972000Y8817000D01*
X55037000Y8722000D01*
X55039000Y8718000D01*
X55084000Y8642000D01*
X55102000Y8630000D01*
X55137000Y8564000D01*
X55137000Y8516000D01*
X55192000Y8311000D01*
X55297000Y8128000D01*
X55299000Y8126000D01*
X55444000Y7982000D01*
X55623000Y7875000D01*
X55828000Y7821000D01*
X56039000Y7821000D01*
X56244000Y7876000D01*
X56245000Y7876000D01*
X56424000Y7982000D01*
X56428000Y7985000D01*
X56573000Y8130000D01*
X56652000Y8265000D01*
X56798000Y8284000D01*
X61994000Y3087000D01*
X62017000Y3032000D01*
X62017000Y1281000D01*
X62007000Y1243000D01*
X61898000Y1055000D01*
X61898000Y1053000D01*
X61847000Y858000D01*
X61847000Y646000D01*
X61899000Y449000D01*
X62006000Y262000D01*
X62154000Y114000D01*
X62341000Y7000D01*
X62538000Y-45000D01*
X62750000Y-45000D01*
X62947000Y7000D01*
X63134000Y114000D01*
X63282000Y262000D01*
X63385000Y441000D01*
X63442000Y648000D01*
X63442000Y856000D01*
X63385000Y1062000D01*
X63281000Y1243000D01*
X63271000Y1281000D01*
X63271000Y3233000D01*
X63272000Y3242000D01*
X63271000Y3283000D01*
X63271000Y3369000D01*
X63270000Y3377000D01*
X63271000Y3377000D01*
X63269000Y3386000D01*
X63268000Y3395000D01*
X63267000Y3429000D01*
X63249000Y3486000D01*
X63247000Y3494000D01*
X63236000Y3545000D01*
X63236000Y3547000D01*
X63223000Y3569000D01*
X63216000Y3584000D01*
X63207000Y3615000D01*
X63167000Y3671000D01*
X63139000Y3721000D01*
X63092000Y3763000D01*
X63088000Y3766000D01*
X56918000Y9939000D01*
X56895000Y9994000D01*
X56895000Y21472000D01*
X56896000Y21481000D01*
X56895000Y21522000D01*
X56895000Y21609000D01*
X56894000Y21617000D01*
X56895000Y21617000D01*
X56893000Y21626000D01*
X56892000Y21635000D01*
X56891000Y21669000D01*
X56874000Y21725000D01*
X56872000Y21732000D01*
X56862000Y21782000D01*
X56850000Y21802000D01*
X56844000Y21817000D01*
X56834000Y21847000D01*
X56834000Y21848000D01*
X56798000Y21897000D01*
X56793000Y21906000D01*
X56762000Y21961000D01*
X56715000Y22004000D01*
X56712000Y22007000D01*
X54886000Y23834000D01*
X54867000Y23867000D01*
X54809000Y24074000D01*
X54706000Y24254000D01*
X54558000Y24402000D01*
X54372000Y24509000D01*
X54174000Y24561000D01*
X53965000Y24561000D01*
X53760000Y24507000D01*
X53579000Y24402000D01*
X53431000Y24255000D01*
X53430000Y24254000D01*
X53321000Y24063000D01*
X53098000Y24123000D01*
X53098000Y24426000D01*
X53100000Y24441000D01*
X53107000Y24476000D01*
X53092000Y24567000D01*
X53071000Y24690000D01*
X53069000Y24699000D01*
X53068000Y24705000D01*
X53067000Y24708000D01*
X53012000Y24789000D01*
X53009000Y24792000D01*
X52954000Y24884000D01*
X52907000Y24918000D01*
X52897000Y24926000D01*
X47846000Y29977000D01*
X47865000Y30124000D01*
X48100000Y30260000D01*
X48103000Y30262000D01*
X48251000Y30411000D01*
X48353000Y30589000D01*
X48410000Y30794000D01*
X48410000Y31005000D01*
X48353000Y31210000D01*
X48251000Y31388000D01*
X48103000Y31537000D01*
X48102000Y31538000D01*
X47915000Y31645000D01*
X47718000Y31697000D01*
X47683000Y31717000D01*
X47345000Y32055000D01*
X47340000Y32058000D01*
X47323000Y32071000D01*
X47298000Y32096000D01*
X47247000Y32121000D01*
X47239000Y32126000D01*
X47193000Y32155000D01*
X47163000Y32163000D01*
X47147000Y32169000D01*
X47124000Y32181000D01*
X47067000Y32189000D01*
X47057000Y32191000D01*
X46999000Y32207000D01*
X46954000Y32205000D01*
X37494000Y32205000D01*
X37413000Y32268000D01*
X37380000Y32397000D01*
X37272000Y32584000D01*
X37271000Y32585000D01*
X37123000Y32732000D01*
X36942000Y32837000D01*
X36737000Y32891000D01*
X36528000Y32891000D01*
X36330000Y32839000D01*
X36144000Y32732000D01*
X36104000Y32692000D01*
X36049000Y32669000D01*
X-16972000Y32669000D01*
X-17027000Y32692000D01*
X-17954000Y33619000D01*
X-17964000Y33632000D01*
X-17986000Y33665000D01*
X-18057000Y33715000D01*
X-18059000Y33717000D01*
X-18156000Y33788000D01*
X-18167000Y33792000D01*
X-18175000Y33795000D01*
X-18259000Y33813000D01*
X-18260000Y33814000D01*
X-18383000Y33842000D01*
X-18385000Y33843000D01*
X-18439000Y33834000D01*
X-18451000Y33833000D01*
X-39705000Y33833000D01*
X-39760000Y33856000D01*
X-39924000Y34020000D01*
X-39847000Y34205000D01*
X-35434000Y34206000D01*
X-17818000Y34206000D01*
X-9009000Y34203000D01*
X-201000Y34200000D01*
X8607000Y34195000D01*
X17416000Y34189000D01*
X26224000Y34181000D01*
X35032000Y34172000D01*
X43841000Y34162000D01*
X52461000Y34150000D01*
X52530000Y34110000D01*
X53825000Y31919000D01*
X55212000Y29563000D01*
X56597000Y27206000D01*
X57977000Y24850000D01*
X59356000Y22490000D01*
X60733000Y20127000D01*
X62106000Y17765000D01*
X63477000Y15400000D01*
X64846000Y13033000D01*
X66210000Y10667000D01*
X67573000Y8297000D01*
X68839000Y6091000D01*
X68839000Y6010000D01*
X67573000Y3804000D01*
X66210000Y1434000D01*
X64845000Y-933000D01*
X63477000Y-3299000D01*
X62106000Y-5664000D01*
X60733000Y-8028000D01*
X60732000Y-8028000D01*
X59356000Y-10389000D01*
X57977000Y-12749000D01*
X56596000Y-15107000D01*
X55212000Y-17463000D01*
X53825000Y-19819000D01*
X52531000Y-22010000D01*
X52462000Y-22050000D01*
X46749000Y-22058000D01*
X46672000Y-21873000D01*
X46941000Y-21605000D01*
X46943000Y-21602000D01*
X46949000Y-21594000D01*
X46955000Y-21587000D01*
X46979000Y-21562000D01*
X46981000Y-21559000D01*
X47009000Y-21505000D01*
X47012000Y-21499000D01*
X47038000Y-21459000D01*
X47041000Y-21450000D01*
X47047000Y-21428000D01*
X47052000Y-21414000D01*
X47066000Y-21385000D01*
X47074000Y-21327000D01*
X47076000Y-21319000D01*
X47091000Y-21263000D01*
X47089000Y-21216000D01*
X47089000Y-19692000D01*
X47112000Y-19637000D01*
X47720000Y-19029000D01*
X47821000Y-19016000D01*
X48032000Y-19137000D01*
X48238000Y-19194000D01*
X48446000Y-19194000D01*
X48653000Y-19137000D01*
X48652000Y-19137000D01*
X48829000Y-19036000D01*
X48832000Y-19034000D01*
X48980000Y-18886000D01*
X49083000Y-18706000D01*
X49140000Y-18500000D01*
X49140000Y-18292000D01*
X49083000Y-18086000D01*
X48980000Y-17906000D01*
X48936000Y-17862000D01*
X48936000Y-17738000D01*
X51436000Y-15239000D01*
X51442000Y-15231000D01*
X51447000Y-15225000D01*
X51477000Y-15193000D01*
X51502000Y-15142000D01*
X51506000Y-15134000D01*
X51537000Y-15087000D01*
X51544000Y-15059000D01*
X51549000Y-15045000D01*
X51564000Y-15015000D01*
X51580000Y-14894000D01*
X51757000Y-14834000D01*
X52508000Y-15586000D01*
X52516000Y-15591000D01*
X52531000Y-15602000D01*
X52555000Y-15627000D01*
X52606000Y-15652000D01*
X52614000Y-15657000D01*
X52660000Y-15686000D01*
X52690000Y-15694000D01*
X52706000Y-15700000D01*
X52729000Y-15712000D01*
X52786000Y-15720000D01*
X52796000Y-15722000D01*
X52854000Y-15738000D01*
X52899000Y-15736000D01*
X54466000Y-15736000D01*
X54504000Y-15746000D01*
X54692000Y-15854000D01*
X54889000Y-15906000D01*
X55101000Y-15906000D01*
X55298000Y-15854000D01*
X55485000Y-15747000D01*
X55633000Y-15599000D01*
X55740000Y-15412000D01*
X55792000Y-15215000D01*
X55792000Y-15003000D01*
X55740000Y-14806000D01*
X55633000Y-14619000D01*
X55485000Y-14471000D01*
X55305000Y-14368000D01*
X55306000Y-14368000D01*
X55099000Y-14311000D01*
X54891000Y-14311000D01*
X54685000Y-14368000D01*
X54504000Y-14472000D01*
X54466000Y-14482000D01*
X53184000Y-14482000D01*
X53107000Y-14297000D01*
X53262000Y-14142000D01*
X53367000Y-13962000D01*
X53370000Y-13955000D01*
X53423000Y-13755000D01*
X53423000Y-13545000D01*
X53371000Y-13348000D01*
X53264000Y-13161000D01*
X53263000Y-13160000D01*
X53114000Y-13012000D01*
X52936000Y-12910000D01*
X52731000Y-12853000D01*
X52624000Y-12853000D01*
X52543000Y-12789000D01*
X52517000Y-12685000D01*
X52538000Y-12609000D01*
X54189892Y-10958000D01*
X55561000Y-10958000D01*
X55561000Y-11036000D01*
X55585000Y-11125000D01*
X55624000Y-11193000D01*
X55626000Y-11196000D01*
X55684000Y-11254000D01*
X56205000Y-11555000D01*
X56277000Y-11596000D01*
X56363000Y-11619000D01*
X56442000Y-11619000D01*
X56529000Y-11596000D01*
X56531000Y-11595000D01*
X56599000Y-11556000D01*
X56601000Y-11555000D01*
X56660000Y-11496000D01*
X56662000Y-11493000D01*
X56701000Y-11425000D01*
X56702000Y-11423000D01*
X56725000Y-11336000D01*
X56725000Y-11258000D01*
X56702000Y-11171000D01*
X56662000Y-11101000D01*
X56660000Y-11098000D01*
X56602000Y-11040000D01*
X56009000Y-10698000D01*
X56010000Y-10698000D01*
X55923000Y-10675000D01*
X55844000Y-10675000D01*
X55757000Y-10698000D01*
X55755000Y-10699000D01*
X55687000Y-10738000D01*
X55684000Y-10740000D01*
X55626000Y-10798000D01*
X55624000Y-10801000D01*
X55585000Y-10869000D01*
X55584000Y-10871000D01*
X55561000Y-10958000D01*
X54189892Y-10958000D01*
X54390000Y-10758000D01*
X54491000Y-10657000D01*
X54504000Y-10643000D01*
X54507000Y-10639000D01*
X54531000Y-10614000D01*
X54534000Y-10610000D01*
X54563000Y-10550000D01*
X54569000Y-10539000D01*
X54593000Y-10505000D01*
X54599000Y-10491000D01*
X54615000Y-10467000D01*
X57321000Y-7762000D01*
X57323000Y-7758000D01*
X57336000Y-7741000D01*
X57361000Y-7716000D01*
X57386000Y-7665000D01*
X57391000Y-7657000D01*
X57420000Y-7611000D01*
X57428000Y-7581000D01*
X57434000Y-7565000D01*
X57446000Y-7542000D01*
X57454000Y-7485000D01*
X57456000Y-7475000D01*
X57472000Y-7417000D01*
X57470000Y-7372000D01*
X57470000Y-4980000D01*
X57493000Y-4925000D01*
X58943752Y-3475000D01*
X59881000Y-3475000D01*
X59881000Y-3554000D01*
X59904000Y-3641000D01*
X59905000Y-3642000D01*
X59946000Y-3713000D01*
X60004000Y-3771000D01*
X60525000Y-4072000D01*
X60600000Y-4115000D01*
X60681000Y-4137000D01*
X60762000Y-4137000D01*
X60848000Y-4114000D01*
X60851000Y-4113000D01*
X60920000Y-4073000D01*
X60980000Y-4013000D01*
X61022000Y-3940000D01*
X61045000Y-3854000D01*
X61045000Y-3775000D01*
X61022000Y-3689000D01*
X60980000Y-3616000D01*
X60920000Y-3556000D01*
X60332000Y-3216000D01*
X60329000Y-3215000D01*
X60243000Y-3192000D01*
X60164000Y-3192000D01*
X60078000Y-3215000D01*
X60075000Y-3216000D01*
X60006000Y-3256000D01*
X59946000Y-3316000D01*
X59904000Y-3389000D01*
X59881000Y-3475000D01*
X58943752Y-3475000D01*
X59421000Y-2998000D01*
X59456000Y-2978000D01*
X59653000Y-2926000D01*
X59840000Y-2819000D01*
X59841000Y-2818000D01*
X59989000Y-2669000D01*
X60091000Y-2491000D01*
X60148000Y-2286000D01*
X60148000Y-2075000D01*
X60091000Y-1868000D01*
X59988000Y-1691000D01*
X59843000Y-1546000D01*
X59842000Y-1546000D01*
X59661000Y-1438000D01*
X59660000Y-1438000D01*
X59455000Y-1383000D01*
X59244000Y-1383000D01*
X59039000Y-1437000D01*
X58860000Y-1544000D01*
X58858000Y-1546000D01*
X58713000Y-1690000D01*
X58712000Y-1691000D01*
X58608000Y-1873000D01*
X58607000Y-1876000D01*
X58553000Y-2077000D01*
X58533000Y-2111000D01*
X57608000Y-3035000D01*
X57441000Y-2991000D01*
X57376000Y-2751000D01*
X57265000Y-2558000D01*
X57046000Y-2339000D01*
X57164000Y-2139000D01*
X57279000Y-2172000D01*
X57361000Y-2172000D01*
X57443000Y-2150000D01*
X57444000Y-2150000D01*
X57514000Y-2108000D01*
X57520000Y-2104000D01*
X57575000Y-2049000D01*
X57580000Y-2042000D01*
X57620000Y-1974000D01*
X57620000Y-1973000D01*
X57642000Y-1891000D01*
X57642000Y-1808000D01*
X57620000Y-1726000D01*
X57620000Y-1725000D01*
X57580000Y-1657000D01*
X57575000Y-1649000D01*
X57518000Y-1593000D01*
X57516000Y-1591000D01*
X56495000Y-1001000D01*
X56492000Y-1000000D01*
X56406000Y-977000D01*
X56325000Y-977000D01*
X56243000Y-999000D01*
X56172000Y-1041000D01*
X56167000Y-1045000D01*
X56111000Y-1100000D01*
X56106000Y-1107000D01*
X56066000Y-1175000D01*
X56066000Y-1176000D01*
X56044000Y-1258000D01*
X56044000Y-1341000D01*
X56066000Y-1423000D01*
X56066000Y-1424000D01*
X56106000Y-1492000D01*
X56108000Y-1494000D01*
X56112000Y-1499000D01*
X56169000Y-1557000D01*
X56170000Y-1558000D01*
X57015000Y-2046000D01*
X56914000Y-2289000D01*
X56698000Y-2231000D01*
X56476000Y-2231000D01*
X56260000Y-2289000D01*
X56259000Y-2290000D01*
X56067000Y-2400000D01*
X55909000Y-2558000D01*
X55798000Y-2751000D01*
X55740000Y-2967000D01*
X55740000Y-3190000D01*
X55798000Y-3405000D01*
X55799000Y-3406000D01*
X55909000Y-3598000D01*
X56067000Y-3756000D01*
X56259000Y-3866000D01*
X56260000Y-3867000D01*
X56500000Y-3932000D01*
X56544000Y-4099000D01*
X56366000Y-4277000D01*
X56362000Y-4282000D01*
X56359000Y-4287000D01*
X56352000Y-4295000D01*
X56326000Y-4322000D01*
X56323000Y-4327000D01*
X56290000Y-4392000D01*
X56266000Y-4428000D01*
X56264000Y-4433000D01*
X56257000Y-4459000D01*
X56252000Y-4474000D01*
X56240000Y-4497000D01*
X56229000Y-4563000D01*
X56228000Y-4570000D01*
X56214000Y-4622000D01*
X56216000Y-4672000D01*
X56216000Y-7060000D01*
X56193000Y-7115000D01*
X54642000Y-8666000D01*
X54437000Y-8531000D01*
X54485000Y-8413000D01*
X54544000Y-8193000D01*
X54544000Y-7973000D01*
X54486000Y-7758000D01*
X54376000Y-7565000D01*
X54219000Y-7408000D01*
X54025000Y-7295000D01*
X53808000Y-7237000D01*
X53586000Y-7237000D01*
X53369000Y-7295000D01*
X53175000Y-7408000D01*
X53018000Y-7565000D01*
X52908000Y-7758000D01*
X52850000Y-7973000D01*
X52850000Y-8193000D01*
X52909000Y-8412000D01*
X52910000Y-8414000D01*
X53018000Y-8604000D01*
X53019000Y-8605000D01*
X53177000Y-8761000D01*
X53017000Y-8971000D01*
X52172000Y-8483000D01*
X52173000Y-8483000D01*
X52086000Y-8460000D01*
X52007000Y-8460000D01*
X51921000Y-8483000D01*
X51848000Y-8525000D01*
X51788000Y-8585000D01*
X51747000Y-8656000D01*
X51747000Y-8657000D01*
X51724000Y-8743000D01*
X51724000Y-8821000D01*
X51747000Y-8907000D01*
X51748000Y-8910000D01*
X51788000Y-8979000D01*
X51850000Y-9041000D01*
X52783000Y-9579000D01*
X52785000Y-9580000D01*
X52874000Y-9631000D01*
X52960000Y-9654000D01*
X53039000Y-9654000D01*
X53126000Y-9631000D01*
X53125000Y-9631000D01*
X53198000Y-9589000D01*
X53258000Y-9529000D01*
X53298000Y-9460000D01*
X53299000Y-9457000D01*
X53322000Y-9371000D01*
X53322000Y-9293000D01*
X53299000Y-9207000D01*
X53298000Y-9204000D01*
X53258000Y-9135000D01*
X53172000Y-9049000D01*
X53288000Y-8850000D01*
X53587000Y-8931000D01*
X53808000Y-8931000D01*
X54023000Y-8873000D01*
X54138000Y-8821000D01*
X54281000Y-9027000D01*
X53533000Y-9774000D01*
X53532000Y-9776000D01*
X53526000Y-9785000D01*
X53518000Y-9795000D01*
X53497000Y-9817000D01*
X53496000Y-9818000D01*
X53465000Y-9880000D01*
X53437000Y-9921000D01*
X53433000Y-9932000D01*
X53416000Y-9957000D01*
X50479000Y-12893000D01*
X50467000Y-12910000D01*
X50459000Y-12919000D01*
X50442000Y-12938000D01*
X50438000Y-12943000D01*
X50413000Y-12993000D01*
X50382000Y-13040000D01*
X50379000Y-13045000D01*
X50369000Y-13083000D01*
X50364000Y-13095000D01*
X50358000Y-13107000D01*
X50356000Y-13114000D01*
X50346000Y-13171000D01*
X50345000Y-13177000D01*
X50329000Y-13236000D01*
X50332000Y-13309000D01*
X50332000Y-14536000D01*
X50309000Y-14591000D01*
X48585000Y-16314000D01*
X48484000Y-16327000D01*
X48427000Y-16295000D01*
X48428000Y-16295000D01*
X48230000Y-16243000D01*
X48100000Y-16243000D01*
X48045000Y-16220000D01*
X47915000Y-16090000D01*
X47729000Y-15982000D01*
X47623000Y-15954000D01*
X47566000Y-15898000D01*
X47514000Y-15708000D01*
X47511000Y-15701000D01*
X47408000Y-15523000D01*
X47264000Y-15379000D01*
X47258000Y-15375000D01*
X47079000Y-15269000D01*
X46918000Y-15227000D01*
X46884000Y-15207000D01*
X45655000Y-13978000D01*
X45645000Y-13966000D01*
X45637000Y-13955000D01*
X45635000Y-13952000D01*
X45604000Y-13926000D01*
X45598000Y-13922000D01*
X45580000Y-13903000D01*
X45575000Y-13899000D01*
X45550000Y-13881000D01*
X45545000Y-13877000D01*
X45494000Y-13833000D01*
X45479000Y-13827000D01*
X45465000Y-13819000D01*
X45447000Y-13806000D01*
X45391000Y-13787000D01*
X45385000Y-13784000D01*
X45329000Y-13759000D01*
X45311000Y-13757000D01*
X45297000Y-13754000D01*
X45271000Y-13745000D01*
X45205000Y-13742000D01*
X45187000Y-13739000D01*
X45177000Y-13738000D01*
X45151000Y-13738000D01*
X45088000Y-13735000D01*
X45081000Y-13737000D01*
X45066000Y-13738000D01*
X42618000Y-13738000D01*
X42583000Y-13477000D01*
X42795000Y-13420000D01*
X42796000Y-13420000D01*
X42977000Y-13312000D01*
X42979000Y-13312000D01*
X43123000Y-13167000D01*
X43226000Y-12990000D01*
X43283000Y-12783000D01*
X43283000Y-12572000D01*
X43226000Y-12367000D01*
X43124000Y-12189000D01*
X42976000Y-12040000D01*
X42975000Y-12039000D01*
X42789000Y-11932000D01*
X42589000Y-11879000D01*
X42555000Y-11859000D01*
X41869000Y-11173000D01*
X41858000Y-11166000D01*
X41848000Y-11158000D01*
X41830000Y-11140000D01*
X41824000Y-11137000D01*
X41773000Y-11111000D01*
X41726000Y-11080000D01*
X41719000Y-11077000D01*
X41691000Y-11069000D01*
X41658000Y-11050000D01*
X41624000Y-11017000D01*
X41623000Y-11016000D01*
X41445000Y-10914000D01*
X41240000Y-10857000D01*
X41029000Y-10857000D01*
X40822000Y-10914000D01*
X40645000Y-11017000D01*
X40501000Y-11161000D01*
X40499000Y-11164000D01*
X40392000Y-11345000D01*
X40361000Y-11467000D01*
X40098000Y-11435000D01*
X40098000Y-9256000D01*
X40121000Y-9201000D01*
X41693000Y-7630000D01*
X41748000Y-7607000D01*
X50021000Y-7607000D01*
X50031000Y-7608000D01*
X50069000Y-7607000D01*
X50156000Y-7607000D01*
X50164000Y-7606000D01*
X50164000Y-7607000D01*
X50173000Y-7605000D01*
X50182000Y-7604000D01*
X50216000Y-7603000D01*
X50272000Y-7586000D01*
X50279000Y-7584000D01*
X50330000Y-7573000D01*
X50351000Y-7562000D01*
X50364000Y-7556000D01*
X50396000Y-7546000D01*
X50395000Y-7546000D01*
X50444000Y-7510000D01*
X50507000Y-7475000D01*
X50551000Y-7427000D01*
X50554000Y-7424000D01*
X51028000Y-6951000D01*
X51061000Y-6932000D01*
X51262000Y-6876000D01*
X51269000Y-6873000D01*
X51447000Y-6771000D01*
X51596000Y-6623000D01*
X51597000Y-6622000D01*
X51704000Y-6435000D01*
X51756000Y-6238000D01*
X51756000Y-6029000D01*
X51703000Y-5828000D01*
X51701000Y-5823000D01*
X51595000Y-5641000D01*
X51483000Y-5529000D01*
X51467000Y-5433000D01*
X51487000Y-5394000D01*
X51488000Y-5391000D01*
X51546000Y-5179000D01*
X51546000Y-4971000D01*
X51489000Y-4765000D01*
X51385000Y-4584000D01*
X51375000Y-4546000D01*
X51375000Y-4281000D01*
X51538000Y-4198000D01*
X51637000Y-4269000D01*
X51665000Y-4304000D01*
X51678000Y-4339000D01*
X51681000Y-4351000D01*
X51687000Y-4384000D01*
X51707000Y-4419000D01*
X51712000Y-4431000D01*
X51728000Y-4474000D01*
X51755000Y-4510000D01*
X51762000Y-4520000D01*
X51785000Y-4560000D01*
X51787000Y-4563000D01*
X51813000Y-4587000D01*
X51822000Y-4596000D01*
X51845000Y-4626000D01*
X51847000Y-4628000D01*
X51897000Y-4663000D01*
X51903000Y-4668000D01*
X51935000Y-4695000D01*
X51958000Y-4705000D01*
X51968000Y-4711000D01*
X52006000Y-4737000D01*
X52012000Y-4740000D01*
X52063000Y-4754000D01*
X52074000Y-4758000D01*
X52104000Y-4772000D01*
X52110000Y-4774000D01*
X52144000Y-4778000D01*
X52153000Y-4780000D01*
X52198000Y-4793000D01*
X52201000Y-4794000D01*
X52254000Y-4792000D01*
X52268000Y-4793000D01*
X52300000Y-4798000D01*
X52301000Y-4798000D01*
X52332000Y-4792000D01*
X52345000Y-4790000D01*
X52383000Y-4789000D01*
X52391000Y-4788000D01*
X52439000Y-4773000D01*
X52447000Y-4771000D01*
X52490000Y-4762000D01*
X52494000Y-4761000D01*
X52521000Y-4747000D01*
X52532000Y-4742000D01*
X52565000Y-4731000D01*
X52569000Y-4729000D01*
X52609000Y-4700000D01*
X52617000Y-4695000D01*
X52664000Y-4669000D01*
X52679000Y-4653000D01*
X52680000Y-4651000D01*
X52685000Y-4647000D01*
X52691000Y-4641000D01*
X52699000Y-4635000D01*
X53437000Y-3898000D01*
X53492000Y-3875000D01*
X53618000Y-3875000D01*
X53824000Y-3820000D01*
X53826000Y-3819000D01*
X54000000Y-3720000D01*
X54004000Y-3717000D01*
X54153000Y-3569000D01*
X54154000Y-3568000D01*
X54261000Y-3381000D01*
X54313000Y-3184000D01*
X54313000Y-2972000D01*
X54261000Y-2775000D01*
X54154000Y-2588000D01*
X54080000Y-2514000D01*
X54058000Y-2445000D01*
X54063000Y-2415000D01*
X54063000Y-2209000D01*
X54011000Y-2012000D01*
X53903000Y-1825000D01*
X53754000Y-1676000D01*
X53576000Y-1574000D01*
X53577000Y-1574000D01*
X53371000Y-1517000D01*
X53138000Y-1517000D01*
X53083000Y-1494000D01*
X51906000Y-317000D01*
X51983000Y-132000D01*
X56839000Y-132000D01*
X56877000Y-142000D01*
X57065000Y-250000D01*
X57262000Y-302000D01*
X57471000Y-302000D01*
X57676000Y-248000D01*
X57677000Y-247000D01*
X57857000Y-143000D01*
X58003000Y2000D01*
X58005000Y4000D01*
X58113000Y192000D01*
X58165000Y389000D01*
X58165000Y601000D01*
X58113000Y798000D01*
X58006000Y985000D01*
X58005000Y986000D01*
X57856000Y1134000D01*
X57855000Y1135000D01*
X57682000Y1236000D01*
X57472000Y1293000D01*
X57264000Y1293000D01*
X57058000Y1236000D01*
X56877000Y1132000D01*
X56839000Y1122000D01*
X47982000Y1122000D01*
X47927000Y1145000D01*
X44820000Y4253000D01*
X44797000Y4308000D01*
X44797000Y7983000D01*
X44798000Y7990000D01*
X44797000Y8033000D01*
X44797000Y8119000D01*
X44796000Y8128000D01*
X44797000Y8128000D01*
X44795000Y8137000D01*
X44794000Y8146000D01*
X44793000Y8180000D01*
X44776000Y8236000D01*
X44774000Y8243000D01*
X44764000Y8293000D01*
X44752000Y8315000D01*
X44746000Y8328000D01*
X44735000Y8362000D01*
X44695000Y8418000D01*
X44665000Y8472000D01*
X44663000Y8474000D01*
X44628000Y8505000D01*
X44624000Y8508000D01*
X42280000Y10853000D01*
X42257000Y10908000D01*
X42257000Y12027000D01*
X42258000Y12036000D01*
X42257000Y12077000D01*
X42257000Y12163000D01*
X42256000Y12173000D01*
X42257000Y12173000D01*
X42255000Y12182000D01*
X42254000Y12191000D01*
X42253000Y12224000D01*
X42233000Y12289000D01*
X42230000Y12299000D01*
X42222000Y12342000D01*
X42211000Y12361000D01*
X42204000Y12376000D01*
X42196000Y12402000D01*
X42196000Y12403000D01*
X42168000Y12443000D01*
X42163000Y12450000D01*
X42127000Y12515000D01*
X42125000Y12517000D01*
X42069000Y12567000D01*
X42065000Y12570000D01*
X40509000Y14128000D01*
X40496647Y14149000D01*
X48238000Y14149000D01*
X48238000Y13963000D01*
X48286000Y13794000D01*
X48291000Y13782000D01*
X48377000Y13630000D01*
X48378000Y13629000D01*
X48506000Y13504000D01*
X48509000Y13502000D01*
X48665000Y13408000D01*
X48670000Y13406000D01*
X48843000Y13361000D01*
X48954000Y13361000D01*
X49041000Y13214000D01*
X48990000Y13122000D01*
X48984000Y13108000D01*
X48938000Y12943000D01*
X48938000Y12757000D01*
X48988000Y12573000D01*
X49080000Y12416000D01*
X49207000Y12289000D01*
X49363000Y12198000D01*
X49367000Y12197000D01*
X49540000Y12148000D01*
X49734000Y12148000D01*
X49934000Y12204000D01*
X50012000Y12184000D01*
X50163000Y12033000D01*
X50319000Y11942000D01*
X50503000Y11892000D01*
X50689000Y11892000D01*
X50862000Y11941000D01*
X50866000Y11942000D01*
X51022000Y12033000D01*
X51150000Y12161000D01*
X51241000Y12317000D01*
X51242000Y12319000D01*
X51291000Y12494000D01*
X51291000Y12608000D01*
X51438000Y12695000D01*
X51530000Y12644000D01*
X51542000Y12639000D01*
X51709000Y12592000D01*
X51895000Y12592000D01*
X52079000Y12642000D01*
X52235000Y12733000D01*
X52365000Y12863000D01*
X52458000Y13025000D01*
X52503000Y13198000D01*
X52503000Y13383000D01*
X52449000Y13591000D01*
X52470000Y13668000D01*
X52619000Y13817000D01*
X52710000Y13973000D01*
X52760000Y14157000D01*
X52760000Y14343000D01*
X52714000Y14508000D01*
X52709000Y14521000D01*
X52621000Y14676000D01*
X52620000Y14677000D01*
X52493000Y14802000D01*
X52331000Y14898000D01*
X52326000Y14900000D01*
X52153000Y14945000D01*
X52044000Y14945000D01*
X51957000Y15092000D01*
X52007000Y15181000D01*
X52012000Y15194000D01*
X52060000Y15363000D01*
X52060000Y15549000D01*
X52010000Y15733000D01*
X51919000Y15889000D01*
X51791000Y16017000D01*
X51626000Y16112000D01*
X51452000Y16157000D01*
X51270000Y16157000D01*
X51061000Y16103000D01*
X50984000Y16124000D01*
X50835000Y16273000D01*
X50679000Y16364000D01*
X50495000Y16414000D01*
X50309000Y16414000D01*
X50140000Y16366000D01*
X50132000Y16363000D01*
X49979000Y16277000D01*
X49845000Y16143000D01*
X49752000Y15981000D01*
X49707000Y15806000D01*
X49707000Y15697000D01*
X49555000Y15610000D01*
X49464000Y15664000D01*
X49462000Y15665000D01*
X49289000Y15714000D01*
X49103000Y15714000D01*
X48919000Y15664000D01*
X48763000Y15573000D01*
X48635000Y15445000D01*
X48544000Y15289000D01*
X48543000Y15285000D01*
X48494000Y15112000D01*
X48494000Y14918000D01*
X48550000Y14718000D01*
X48530000Y14640000D01*
X48379000Y14489000D01*
X48288000Y14332000D01*
X48238000Y14149000D01*
X40496647Y14149000D01*
X40489000Y14162000D01*
X40436000Y14362000D01*
X40329000Y14549000D01*
X40328000Y14550000D01*
X40179000Y14698000D01*
X40001000Y14800000D01*
X40002000Y14800000D01*
X39796000Y14857000D01*
X39585000Y14857000D01*
X39378000Y14800000D01*
X39201000Y14697000D01*
X39056000Y14552000D01*
X39056000Y14551000D01*
X38948000Y14370000D01*
X38948000Y14369000D01*
X38893000Y14163000D01*
X38893000Y13953000D01*
X38947000Y13748000D01*
X39054000Y13569000D01*
X39056000Y13567000D01*
X39200000Y13422000D01*
X39201000Y13421000D01*
X39383000Y13317000D01*
X39585000Y13263000D01*
X39619000Y13243000D01*
X39760000Y13102000D01*
X39683000Y12917000D01*
X39588000Y12917000D01*
X39383000Y12862000D01*
X39201000Y12757000D01*
X39163000Y12747000D01*
X-21063000Y12747000D01*
X-21118000Y12770000D01*
X-29575000Y21228000D01*
X-29594000Y21261000D01*
X-29652000Y21468000D01*
X-29754000Y21646000D01*
X-29902000Y21795000D01*
X-30090000Y21903000D01*
X-30287000Y21955000D01*
X-30496000Y21955000D01*
X-30700000Y21901000D01*
X-30702000Y21900000D01*
X-30884000Y21794000D01*
X-31031000Y21647000D01*
X-31135000Y21465000D01*
X-31190000Y21260000D01*
X-31190000Y21055000D01*
X-31135000Y20850000D01*
X-31031000Y20668000D01*
X-30884000Y20521000D01*
X-30702000Y20415000D01*
X-30700000Y20414000D01*
X-30498000Y20361000D01*
X-30463000Y20341000D01*
X-21765000Y11642000D01*
X-21761000Y11640000D01*
X-21744000Y11627000D01*
X-21719000Y11602000D01*
X-21668000Y11577000D01*
X-21660000Y11572000D01*
X-21614000Y11543000D01*
X-21584000Y11535000D01*
X-21568000Y11529000D01*
X-21545000Y11517000D01*
X-21488000Y11509000D01*
X-21478000Y11507000D01*
X-21420000Y11491000D01*
X-21375000Y11493000D01*
X39163000Y11493000D01*
X39202000Y11482000D01*
X39381000Y11376000D01*
X39586000Y11322000D01*
X39795000Y11322000D01*
X40000000Y11376000D01*
X40178000Y11482000D01*
X40182000Y11485000D01*
X40327000Y11627000D01*
X40433000Y11812000D01*
X40488000Y12017000D01*
X40488000Y12111000D01*
X40673000Y12188000D01*
X40980000Y11881000D01*
X41003000Y11826000D01*
X41003000Y10705000D01*
X41002000Y10692000D01*
X41003000Y10657000D01*
X41003000Y10570000D01*
X41004000Y10562000D01*
X41003000Y10562000D01*
X41005000Y10553000D01*
X41006000Y10544000D01*
X41007000Y10510000D01*
X41027000Y10445000D01*
X41030000Y10436000D01*
X41037000Y10397000D01*
X41038000Y10393000D01*
X41048000Y10375000D01*
X41054000Y10362000D01*
X41064000Y10330000D01*
X41065000Y10330000D01*
X41100000Y10282000D01*
X41105000Y10273000D01*
X41136000Y10218000D01*
X41183000Y10175000D01*
X41186000Y10172000D01*
X43520000Y7837000D01*
X43543000Y7782000D01*
X43543000Y4105000D01*
X43542000Y4092000D01*
X43543000Y4057000D01*
X43543000Y3970000D01*
X43544000Y3962000D01*
X43543000Y3962000D01*
X43545000Y3953000D01*
X43546000Y3944000D01*
X43547000Y3910000D01*
X43564000Y3854000D01*
X43566000Y3847000D01*
X43577000Y3796000D01*
X43588000Y3775000D01*
X43594000Y3762000D01*
X43604000Y3731000D01*
X43640000Y3682000D01*
X43645000Y3673000D01*
X43676000Y3618000D01*
X43723000Y3575000D01*
X45875000Y1423000D01*
X45873000Y1297000D01*
X45814000Y1241000D01*
X45814000Y1240000D01*
X45707000Y1055000D01*
X45707000Y1053000D01*
X45656000Y858000D01*
X45656000Y646000D01*
X45708000Y449000D01*
X45815000Y262000D01*
X45816000Y261000D01*
X45965000Y113000D01*
X45968000Y111000D01*
X46143000Y11000D01*
X46145000Y10000D01*
X46350000Y-45000D01*
X46384000Y-65000D01*
X50098000Y-3780000D01*
X50121000Y-3835000D01*
X50121000Y-4546000D01*
X50111000Y-4584000D01*
X50003000Y-4772000D01*
X49951000Y-4969000D01*
X49951000Y-5178000D01*
X50004000Y-5379000D01*
X50007000Y-5386000D01*
X50112000Y-5566000D01*
X50229000Y-5683000D01*
X50240000Y-5790000D01*
X50214000Y-5828000D01*
X50162000Y-6027000D01*
X50142000Y-6062000D01*
X49873000Y-6330000D01*
X49818000Y-6353000D01*
X41547000Y-6353000D01*
X41538000Y-6352000D01*
X41497000Y-6353000D01*
X41410000Y-6353000D01*
X41402000Y-6354000D01*
X41402000Y-6353000D01*
X41393000Y-6355000D01*
X41384000Y-6356000D01*
X41350000Y-6357000D01*
X41294000Y-6374000D01*
X41287000Y-6376000D01*
X41236000Y-6387000D01*
X41215000Y-6398000D01*
X41202000Y-6404000D01*
X41171000Y-6414000D01*
X41122000Y-6450000D01*
X41113000Y-6455000D01*
X41058000Y-6486000D01*
X41015000Y-6533000D01*
X41012000Y-6536000D01*
X38993000Y-8554000D01*
X38991000Y-8558000D01*
X38978000Y-8575000D01*
X38954000Y-8600000D01*
X38952000Y-8601000D01*
X38921000Y-8663000D01*
X38916000Y-8671000D01*
X38895000Y-8703000D01*
X38893000Y-8707000D01*
X38882000Y-8748000D01*
X38826000Y-8805000D01*
X38599000Y-8868000D01*
X38593000Y-8870000D01*
X38415000Y-8973000D01*
X38270000Y-9118000D01*
X38270000Y-9119000D01*
X38162000Y-9300000D01*
X38161000Y-9303000D01*
X38107000Y-9507000D01*
X38087000Y-9541000D01*
X35896000Y-11731000D01*
X35894000Y-11735000D01*
X35881000Y-11752000D01*
G37*
%TD.AperFunction*%
%TD*%
M02*
