%TF.GenerationSoftware,Flux,Pcbnew,7.0.11-7.0.11~ubuntu20.04.1*%
%TF.CreationDate,2024-08-16T09:23:18+00:00*%
%TF.ProjectId,input,696e7075-742e-46b6-9963-61645f706362,rev?*%
%TF.SameCoordinates,Original*%
%TF.FileFunction,Legend,Top*%
%TF.FilePolarity,Positive*%
%FSLAX46Y46*%
G04 Gerber Fmt 4.6, Leading zero omitted, Abs format (unit mm)*
G04 Filename: betterflipperzero*
G04 Build it with Flux! Visit our site at: https://www.flux.ai (PCBNEW 7.0.11-7.0.11~ubuntu20.04.1) date 2024-08-16 09:23:18*
%MOMM*%
%LPD*%
G01*
G04 APERTURE LIST*
%ADD10C,0.095000*%
%ADD11C,0.047500*%
%ADD12C,0.066500*%
%ADD13C,0.120650*%
%ADD14C,0.057000*%
%ADD15C,0.120000*%
%ADD16C,0.100000*%
%ADD17C,0.050000*%
%ADD18C,0.200000*%
%ADD19C,0.127000*%
G04 APERTURE END LIST*
D10*
X32990532Y-17616467D02*
X32952437Y-17578371D01*
X32952437Y-17578371D02*
X32914341Y-17464086D01*
X32914341Y-17464086D02*
X32914341Y-17387895D01*
X32914341Y-17387895D02*
X32952437Y-17273609D01*
X32952437Y-17273609D02*
X33028627Y-17197419D01*
X33028627Y-17197419D02*
X33104817Y-17159324D01*
X33104817Y-17159324D02*
X33257198Y-17121228D01*
X33257198Y-17121228D02*
X33371484Y-17121228D01*
X33371484Y-17121228D02*
X33523865Y-17159324D01*
X33523865Y-17159324D02*
X33600056Y-17197419D01*
X33600056Y-17197419D02*
X33676246Y-17273609D01*
X33676246Y-17273609D02*
X33714341Y-17387895D01*
X33714341Y-17387895D02*
X33714341Y-17464086D01*
X33714341Y-17464086D02*
X33676246Y-17578371D01*
X33676246Y-17578371D02*
X33638151Y-17616467D01*
X33714341Y-18302181D02*
X33714341Y-18149800D01*
X33714341Y-18149800D02*
X33676246Y-18073609D01*
X33676246Y-18073609D02*
X33638151Y-18035514D01*
X33638151Y-18035514D02*
X33523865Y-17959324D01*
X33523865Y-17959324D02*
X33371484Y-17921228D01*
X33371484Y-17921228D02*
X33066722Y-17921228D01*
X33066722Y-17921228D02*
X32990532Y-17959324D01*
X32990532Y-17959324D02*
X32952437Y-17997419D01*
X32952437Y-17997419D02*
X32914341Y-18073609D01*
X32914341Y-18073609D02*
X32914341Y-18225990D01*
X32914341Y-18225990D02*
X32952437Y-18302181D01*
X32952437Y-18302181D02*
X32990532Y-18340276D01*
X32990532Y-18340276D02*
X33066722Y-18378371D01*
X33066722Y-18378371D02*
X33257198Y-18378371D01*
X33257198Y-18378371D02*
X33333389Y-18340276D01*
X33333389Y-18340276D02*
X33371484Y-18302181D01*
X33371484Y-18302181D02*
X33409579Y-18225990D01*
X33409579Y-18225990D02*
X33409579Y-18073609D01*
X33409579Y-18073609D02*
X33371484Y-17997419D01*
X33371484Y-17997419D02*
X33333389Y-17959324D01*
X33333389Y-17959324D02*
X33257198Y-17921228D01*
X45342435Y-20116464D02*
X45304340Y-20078368D01*
X45304340Y-20078368D02*
X45266244Y-19964083D01*
X45266244Y-19964083D02*
X45266244Y-19887892D01*
X45266244Y-19887892D02*
X45304340Y-19773606D01*
X45304340Y-19773606D02*
X45380530Y-19697416D01*
X45380530Y-19697416D02*
X45456720Y-19659321D01*
X45456720Y-19659321D02*
X45609101Y-19621225D01*
X45609101Y-19621225D02*
X45723387Y-19621225D01*
X45723387Y-19621225D02*
X45875768Y-19659321D01*
X45875768Y-19659321D02*
X45951959Y-19697416D01*
X45951959Y-19697416D02*
X46028149Y-19773606D01*
X46028149Y-19773606D02*
X46066244Y-19887892D01*
X46066244Y-19887892D02*
X46066244Y-19964083D01*
X46066244Y-19964083D02*
X46028149Y-20078368D01*
X46028149Y-20078368D02*
X45990054Y-20116464D01*
X46066244Y-20383130D02*
X46066244Y-20878368D01*
X46066244Y-20878368D02*
X45761482Y-20611702D01*
X45761482Y-20611702D02*
X45761482Y-20725987D01*
X45761482Y-20725987D02*
X45723387Y-20802178D01*
X45723387Y-20802178D02*
X45685292Y-20840273D01*
X45685292Y-20840273D02*
X45609101Y-20878368D01*
X45609101Y-20878368D02*
X45418625Y-20878368D01*
X45418625Y-20878368D02*
X45342435Y-20840273D01*
X45342435Y-20840273D02*
X45304340Y-20802178D01*
X45304340Y-20802178D02*
X45266244Y-20725987D01*
X45266244Y-20725987D02*
X45266244Y-20497416D01*
X45266244Y-20497416D02*
X45304340Y-20421225D01*
X45304340Y-20421225D02*
X45342435Y-20383130D01*
X49314455Y-20404037D02*
X48933502Y-20670704D01*
X49314455Y-20861180D02*
X48514455Y-20861180D01*
X48514455Y-20861180D02*
X48514455Y-20556418D01*
X48514455Y-20556418D02*
X48552550Y-20480228D01*
X48552550Y-20480228D02*
X48590645Y-20442133D01*
X48590645Y-20442133D02*
X48666836Y-20404037D01*
X48666836Y-20404037D02*
X48781121Y-20404037D01*
X48781121Y-20404037D02*
X48857312Y-20442133D01*
X48857312Y-20442133D02*
X48895407Y-20480228D01*
X48895407Y-20480228D02*
X48933502Y-20556418D01*
X48933502Y-20556418D02*
X48933502Y-20861180D01*
X49314455Y-19642133D02*
X49314455Y-20099276D01*
X49314455Y-19870704D02*
X48514455Y-19870704D01*
X48514455Y-19870704D02*
X48628740Y-19946895D01*
X48628740Y-19946895D02*
X48704931Y-20023085D01*
X48704931Y-20023085D02*
X48743026Y-20099276D01*
X53218162Y-1843788D02*
X52754914Y-1884252D01*
X52989590Y-2239685D02*
X52296770Y-1839685D01*
X52296770Y-1839685D02*
X52449151Y-1575754D01*
X52449151Y-1575754D02*
X52520238Y-1528818D01*
X52520238Y-1528818D02*
X52572277Y-1514875D01*
X52572277Y-1514875D02*
X52657307Y-1519978D01*
X52657307Y-1519978D02*
X52756282Y-1577121D01*
X52756282Y-1577121D02*
X52803217Y-1648208D01*
X52803217Y-1648208D02*
X52817161Y-1700247D01*
X52817161Y-1700247D02*
X52812057Y-1785277D01*
X52812057Y-1785277D02*
X52659676Y-2049209D01*
X52743705Y-1217952D02*
X52729761Y-1165912D01*
X52729761Y-1165912D02*
X52734865Y-1080882D01*
X52734865Y-1080882D02*
X52830103Y-915925D01*
X52830103Y-915925D02*
X52901190Y-868989D01*
X52901190Y-868989D02*
X52953229Y-855046D01*
X52953229Y-855046D02*
X53038260Y-860149D01*
X53038260Y-860149D02*
X53104242Y-898245D01*
X53104242Y-898245D02*
X53184169Y-988379D01*
X53184169Y-988379D02*
X53351495Y-1612848D01*
X53351495Y-1612848D02*
X53599114Y-1183959D01*
X36324324Y-18531155D02*
X36324324Y-17731155D01*
X36324324Y-17731155D02*
X36514800Y-17731155D01*
X36514800Y-17731155D02*
X36629086Y-17769250D01*
X36629086Y-17769250D02*
X36705276Y-17845440D01*
X36705276Y-17845440D02*
X36743371Y-17921631D01*
X36743371Y-17921631D02*
X36781467Y-18074012D01*
X36781467Y-18074012D02*
X36781467Y-18188298D01*
X36781467Y-18188298D02*
X36743371Y-18340679D01*
X36743371Y-18340679D02*
X36705276Y-18416869D01*
X36705276Y-18416869D02*
X36629086Y-18493060D01*
X36629086Y-18493060D02*
X36514800Y-18531155D01*
X36514800Y-18531155D02*
X36324324Y-18531155D01*
X37543371Y-18531155D02*
X37086228Y-18531155D01*
X37314800Y-18531155D02*
X37314800Y-17731155D01*
X37314800Y-17731155D02*
X37238609Y-17845440D01*
X37238609Y-17845440D02*
X37162419Y-17921631D01*
X37162419Y-17921631D02*
X37086228Y-17959726D01*
X36324324Y-18531155D02*
X36324324Y-17731155D01*
X36324324Y-17731155D02*
X36514800Y-17731155D01*
X36514800Y-17731155D02*
X36629086Y-17769250D01*
X36629086Y-17769250D02*
X36705276Y-17845440D01*
X36705276Y-17845440D02*
X36743371Y-17921631D01*
X36743371Y-17921631D02*
X36781467Y-18074012D01*
X36781467Y-18074012D02*
X36781467Y-18188298D01*
X36781467Y-18188298D02*
X36743371Y-18340679D01*
X36743371Y-18340679D02*
X36705276Y-18416869D01*
X36705276Y-18416869D02*
X36629086Y-18493060D01*
X36629086Y-18493060D02*
X36514800Y-18531155D01*
X36514800Y-18531155D02*
X36324324Y-18531155D01*
X37543371Y-18531155D02*
X37086228Y-18531155D01*
X37314800Y-18531155D02*
X37314800Y-17731155D01*
X37314800Y-17731155D02*
X37238609Y-17845440D01*
X37238609Y-17845440D02*
X37162419Y-17921631D01*
X37162419Y-17921631D02*
X37086228Y-17959726D01*
X40244555Y-16537340D02*
X40244555Y-16918292D01*
X40244555Y-16918292D02*
X39444555Y-16918292D01*
X40244555Y-15851626D02*
X40244555Y-16308769D01*
X40244555Y-16080197D02*
X39444555Y-16080197D01*
X39444555Y-16080197D02*
X39558840Y-16156388D01*
X39558840Y-16156388D02*
X39635031Y-16232578D01*
X39635031Y-16232578D02*
X39673126Y-16308769D01*
D11*
X55369811Y-16502788D02*
X55274573Y-16667746D01*
X55274573Y-16667746D02*
X54928163Y-16467746D01*
X55255025Y-16282556D02*
X55321692Y-16167086D01*
X55531716Y-16222361D02*
X55436478Y-16387318D01*
X55436478Y-16387318D02*
X55090068Y-16187318D01*
X55090068Y-16187318D02*
X55185306Y-16022361D01*
X55617430Y-16073899D02*
X55271020Y-15873899D01*
X55271020Y-15873899D02*
X55318639Y-15791420D01*
X55318639Y-15791420D02*
X55363706Y-15751457D01*
X55363706Y-15751457D02*
X55415746Y-15737513D01*
X55415746Y-15737513D02*
X55458261Y-15740065D01*
X55458261Y-15740065D02*
X55533767Y-15761665D01*
X55533767Y-15761665D02*
X55583255Y-15790236D01*
X55583255Y-15790236D02*
X55639714Y-15844827D01*
X55639714Y-15844827D02*
X55663181Y-15880370D01*
X55663181Y-15880370D02*
X55677125Y-15932410D01*
X55677125Y-15932410D02*
X55665049Y-15991420D01*
X55665049Y-15991420D02*
X55617430Y-16073899D01*
X55922192Y-15546036D02*
X55807907Y-15743985D01*
X55865049Y-15645010D02*
X55518639Y-15445010D01*
X55518639Y-15445010D02*
X55549079Y-15506573D01*
X55549079Y-15506573D02*
X55563023Y-15558612D01*
X55563023Y-15558612D02*
X55560471Y-15601128D01*
D10*
X48753135Y-20087362D02*
X48715040Y-20049266D01*
X48715040Y-20049266D02*
X48676944Y-19934981D01*
X48676944Y-19934981D02*
X48676944Y-19858790D01*
X48676944Y-19858790D02*
X48715040Y-19744504D01*
X48715040Y-19744504D02*
X48791230Y-19668314D01*
X48791230Y-19668314D02*
X48867420Y-19630219D01*
X48867420Y-19630219D02*
X49019801Y-19592123D01*
X49019801Y-19592123D02*
X49134087Y-19592123D01*
X49134087Y-19592123D02*
X49286468Y-19630219D01*
X49286468Y-19630219D02*
X49362659Y-19668314D01*
X49362659Y-19668314D02*
X49438849Y-19744504D01*
X49438849Y-19744504D02*
X49476944Y-19858790D01*
X49476944Y-19858790D02*
X49476944Y-19934981D01*
X49476944Y-19934981D02*
X49438849Y-20049266D01*
X49438849Y-20049266D02*
X49400754Y-20087362D01*
X49210278Y-20773076D02*
X48676944Y-20773076D01*
X49515040Y-20582600D02*
X48943611Y-20392123D01*
X48943611Y-20392123D02*
X48943611Y-20887362D01*
D11*
X54440911Y-18108388D02*
X54345673Y-18273346D01*
X54345673Y-18273346D02*
X53999263Y-18073346D01*
X54326125Y-17888156D02*
X54392792Y-17772686D01*
X54602816Y-17827961D02*
X54507578Y-17992918D01*
X54507578Y-17992918D02*
X54161168Y-17792918D01*
X54161168Y-17792918D02*
X54256406Y-17627961D01*
X54688530Y-17679499D02*
X54342120Y-17479499D01*
X54342120Y-17479499D02*
X54389739Y-17397020D01*
X54389739Y-17397020D02*
X54434806Y-17357057D01*
X54434806Y-17357057D02*
X54486846Y-17343113D01*
X54486846Y-17343113D02*
X54529361Y-17345665D01*
X54529361Y-17345665D02*
X54604867Y-17367265D01*
X54604867Y-17367265D02*
X54654355Y-17395836D01*
X54654355Y-17395836D02*
X54710814Y-17450427D01*
X54710814Y-17450427D02*
X54734281Y-17485970D01*
X54734281Y-17485970D02*
X54748225Y-17538010D01*
X54748225Y-17538010D02*
X54736149Y-17597020D01*
X54736149Y-17597020D02*
X54688530Y-17679499D01*
X54565588Y-17168632D02*
X54558616Y-17142613D01*
X54558616Y-17142613D02*
X54561168Y-17100097D01*
X54561168Y-17100097D02*
X54608787Y-17017619D01*
X54608787Y-17017619D02*
X54644330Y-16994151D01*
X54644330Y-16994151D02*
X54670350Y-16987179D01*
X54670350Y-16987179D02*
X54712865Y-16989731D01*
X54712865Y-16989731D02*
X54745856Y-17008779D01*
X54745856Y-17008779D02*
X54785820Y-17053846D01*
X54785820Y-17053846D02*
X54869483Y-17366080D01*
X54869483Y-17366080D02*
X54993292Y-17151636D01*
D10*
X50303339Y-18532094D02*
X49922461Y-18265321D01*
X49873765Y-18688446D02*
X49600149Y-17936692D01*
X49600149Y-17936692D02*
X49886532Y-17832457D01*
X49886532Y-17832457D02*
X49971157Y-17842196D01*
X49971157Y-17842196D02*
X50019984Y-17864965D01*
X50019984Y-17864965D02*
X50081840Y-17923531D01*
X50081840Y-17923531D02*
X50120928Y-18030924D01*
X50120928Y-18030924D02*
X50111189Y-18115549D01*
X50111189Y-18115549D02*
X50088421Y-18164376D01*
X50088421Y-18164376D02*
X50029854Y-18226233D01*
X50029854Y-18226233D02*
X49743472Y-18330468D01*
X50709881Y-17532782D02*
X50351903Y-17663076D01*
X50351903Y-17663076D02*
X50446399Y-18034083D01*
X50446399Y-18034083D02*
X50469167Y-17985256D01*
X50469167Y-17985256D02*
X50527734Y-17923399D01*
X50527734Y-17923399D02*
X50706723Y-17858253D01*
X50706723Y-17858253D02*
X50791348Y-17867992D01*
X50791348Y-17867992D02*
X50840175Y-17890760D01*
X50840175Y-17890760D02*
X50902031Y-17949327D01*
X50902031Y-17949327D02*
X50967178Y-18128316D01*
X50967178Y-18128316D02*
X50957439Y-18212941D01*
X50957439Y-18212941D02*
X50934670Y-18261768D01*
X50934670Y-18261768D02*
X50876104Y-18323624D01*
X50876104Y-18323624D02*
X50697115Y-18388771D01*
X50697115Y-18388771D02*
X50612490Y-18379032D01*
X50612490Y-18379032D02*
X50563663Y-18356263D01*
X31440532Y-17616467D02*
X31402437Y-17578371D01*
X31402437Y-17578371D02*
X31364341Y-17464086D01*
X31364341Y-17464086D02*
X31364341Y-17387895D01*
X31364341Y-17387895D02*
X31402437Y-17273609D01*
X31402437Y-17273609D02*
X31478627Y-17197419D01*
X31478627Y-17197419D02*
X31554817Y-17159324D01*
X31554817Y-17159324D02*
X31707198Y-17121228D01*
X31707198Y-17121228D02*
X31821484Y-17121228D01*
X31821484Y-17121228D02*
X31973865Y-17159324D01*
X31973865Y-17159324D02*
X32050056Y-17197419D01*
X32050056Y-17197419D02*
X32126246Y-17273609D01*
X32126246Y-17273609D02*
X32164341Y-17387895D01*
X32164341Y-17387895D02*
X32164341Y-17464086D01*
X32164341Y-17464086D02*
X32126246Y-17578371D01*
X32126246Y-17578371D02*
X32088151Y-17616467D01*
X32164341Y-18340276D02*
X32164341Y-17959324D01*
X32164341Y-17959324D02*
X31783389Y-17921228D01*
X31783389Y-17921228D02*
X31821484Y-17959324D01*
X31821484Y-17959324D02*
X31859579Y-18035514D01*
X31859579Y-18035514D02*
X31859579Y-18225990D01*
X31859579Y-18225990D02*
X31821484Y-18302181D01*
X31821484Y-18302181D02*
X31783389Y-18340276D01*
X31783389Y-18340276D02*
X31707198Y-18378371D01*
X31707198Y-18378371D02*
X31516722Y-18378371D01*
X31516722Y-18378371D02*
X31440532Y-18340276D01*
X31440532Y-18340276D02*
X31402437Y-18302181D01*
X31402437Y-18302181D02*
X31364341Y-18225990D01*
X31364341Y-18225990D02*
X31364341Y-18035514D01*
X31364341Y-18035514D02*
X31402437Y-17959324D01*
X31402437Y-17959324D02*
X31440532Y-17921228D01*
X51400739Y-16939994D02*
X51019861Y-16673221D01*
X50971165Y-17096346D02*
X50697549Y-16344592D01*
X50697549Y-16344592D02*
X50983932Y-16240357D01*
X50983932Y-16240357D02*
X51068557Y-16250096D01*
X51068557Y-16250096D02*
X51117384Y-16272865D01*
X51117384Y-16272865D02*
X51179240Y-16331431D01*
X51179240Y-16331431D02*
X51218328Y-16438824D01*
X51218328Y-16438824D02*
X51208589Y-16523449D01*
X51208589Y-16523449D02*
X51185821Y-16572276D01*
X51185821Y-16572276D02*
X51127254Y-16634133D01*
X51127254Y-16634133D02*
X50840872Y-16738368D01*
X51862689Y-16204296D02*
X52045100Y-16705466D01*
X51579465Y-15983060D02*
X51595916Y-16585174D01*
X51595916Y-16585174D02*
X52061288Y-16415793D01*
D12*
X45351866Y-16156991D02*
X45351866Y-16716991D01*
X44765199Y-16210324D02*
X44791866Y-16183658D01*
X44791866Y-16183658D02*
X44871866Y-16156991D01*
X44871866Y-16156991D02*
X44925199Y-16156991D01*
X44925199Y-16156991D02*
X45005199Y-16183658D01*
X45005199Y-16183658D02*
X45058533Y-16236991D01*
X45058533Y-16236991D02*
X45085199Y-16290324D01*
X45085199Y-16290324D02*
X45111866Y-16396991D01*
X45111866Y-16396991D02*
X45111866Y-16476991D01*
X45111866Y-16476991D02*
X45085199Y-16583658D01*
X45085199Y-16583658D02*
X45058533Y-16636991D01*
X45058533Y-16636991D02*
X45005199Y-16690324D01*
X45005199Y-16690324D02*
X44925199Y-16716991D01*
X44925199Y-16716991D02*
X44871866Y-16716991D01*
X44871866Y-16716991D02*
X44791866Y-16690324D01*
X44791866Y-16690324D02*
X44765199Y-16663658D01*
X44231866Y-16156991D02*
X44551866Y-16156991D01*
X44391866Y-16156991D02*
X44391866Y-16716991D01*
X44391866Y-16716991D02*
X44445199Y-16636991D01*
X44445199Y-16636991D02*
X44498533Y-16583658D01*
X44498533Y-16583658D02*
X44551866Y-16556991D01*
D10*
X44024253Y-14777755D02*
X44024253Y-13977755D01*
X44862348Y-14701564D02*
X44824252Y-14739660D01*
X44824252Y-14739660D02*
X44709967Y-14777755D01*
X44709967Y-14777755D02*
X44633776Y-14777755D01*
X44633776Y-14777755D02*
X44519490Y-14739660D01*
X44519490Y-14739660D02*
X44443300Y-14663469D01*
X44443300Y-14663469D02*
X44405205Y-14587279D01*
X44405205Y-14587279D02*
X44367109Y-14434898D01*
X44367109Y-14434898D02*
X44367109Y-14320612D01*
X44367109Y-14320612D02*
X44405205Y-14168231D01*
X44405205Y-14168231D02*
X44443300Y-14092040D01*
X44443300Y-14092040D02*
X44519490Y-14015850D01*
X44519490Y-14015850D02*
X44633776Y-13977755D01*
X44633776Y-13977755D02*
X44709967Y-13977755D01*
X44709967Y-13977755D02*
X44824252Y-14015850D01*
X44824252Y-14015850D02*
X44862348Y-14053945D01*
X45624252Y-14777755D02*
X45167109Y-14777755D01*
X45395681Y-14777755D02*
X45395681Y-13977755D01*
X45395681Y-13977755D02*
X45319490Y-14092040D01*
X45319490Y-14092040D02*
X45243300Y-14168231D01*
X45243300Y-14168231D02*
X45167109Y-14206326D01*
X52466639Y-15315094D02*
X52085761Y-15048321D01*
X52037065Y-15471446D02*
X51763449Y-14719692D01*
X51763449Y-14719692D02*
X52049832Y-14615457D01*
X52049832Y-14615457D02*
X52134457Y-14625196D01*
X52134457Y-14625196D02*
X52183284Y-14647965D01*
X52183284Y-14647965D02*
X52245140Y-14706531D01*
X52245140Y-14706531D02*
X52284228Y-14813924D01*
X52284228Y-14813924D02*
X52274489Y-14898549D01*
X52274489Y-14898549D02*
X52251721Y-14947376D01*
X52251721Y-14947376D02*
X52193154Y-15009233D01*
X52193154Y-15009233D02*
X51906772Y-15113468D01*
X52837383Y-14328812D02*
X52694192Y-14380929D01*
X52694192Y-14380929D02*
X52635626Y-14442785D01*
X52635626Y-14442785D02*
X52612857Y-14491613D01*
X52612857Y-14491613D02*
X52580350Y-14625065D01*
X52580350Y-14625065D02*
X52596669Y-14781285D01*
X52596669Y-14781285D02*
X52700904Y-15067668D01*
X52700904Y-15067668D02*
X52762761Y-15126234D01*
X52762761Y-15126234D02*
X52811588Y-15149003D01*
X52811588Y-15149003D02*
X52896213Y-15158742D01*
X52896213Y-15158742D02*
X53039404Y-15106624D01*
X53039404Y-15106624D02*
X53097970Y-15044768D01*
X53097970Y-15044768D02*
X53120739Y-14995941D01*
X53120739Y-14995941D02*
X53130478Y-14911316D01*
X53130478Y-14911316D02*
X53065331Y-14732327D01*
X53065331Y-14732327D02*
X53003475Y-14673760D01*
X53003475Y-14673760D02*
X52954648Y-14650992D01*
X52954648Y-14650992D02*
X52870023Y-14641253D01*
X52870023Y-14641253D02*
X52726831Y-14693370D01*
X52726831Y-14693370D02*
X52668265Y-14755227D01*
X52668265Y-14755227D02*
X52645497Y-14804054D01*
X52645497Y-14804054D02*
X52635757Y-14888679D01*
X51910563Y-3993734D02*
X52405434Y-4279448D01*
X52405434Y-4279448D02*
X52485361Y-4369583D01*
X52485361Y-4369583D02*
X52513249Y-4473661D01*
X52513249Y-4473661D02*
X52489097Y-4591683D01*
X52489097Y-4591683D02*
X52451002Y-4657666D01*
X52147974Y-3734906D02*
X52134030Y-3682867D01*
X52134030Y-3682867D02*
X52139134Y-3597836D01*
X52139134Y-3597836D02*
X52234372Y-3432879D01*
X52234372Y-3432879D02*
X52305459Y-3385944D01*
X52305459Y-3385944D02*
X52357498Y-3372000D01*
X52357498Y-3372000D02*
X52442529Y-3377104D01*
X52442529Y-3377104D02*
X52508511Y-3415199D01*
X52508511Y-3415199D02*
X52588438Y-3505334D01*
X52588438Y-3505334D02*
X52755764Y-4129802D01*
X52755764Y-4129802D02*
X53003383Y-3700913D01*
X64870858Y401425D02*
X65101798Y268092D01*
X65311322Y630998D02*
X64911322Y-61822D01*
X64911322Y-61822D02*
X64581407Y128654D01*
X64387562Y1164331D02*
X64717476Y973855D01*
X64717476Y973855D02*
X64317476Y281034D01*
X64075327Y1080668D02*
X63745413Y1271144D01*
X64255596Y1240521D02*
X63624656Y681034D01*
X63624656Y681034D02*
X63793716Y1507188D01*
X63576720Y1588482D02*
X63496793Y1678617D01*
X63496793Y1678617D02*
X63331836Y1773855D01*
X63331836Y1773855D02*
X63246805Y1778958D01*
X63246805Y1778958D02*
X63194766Y1765015D01*
X63194766Y1765015D02*
X63123679Y1718079D01*
X63123679Y1718079D02*
X63085584Y1652096D01*
X63085584Y1652096D02*
X63080480Y1567066D01*
X63080480Y1567066D02*
X63094424Y1515027D01*
X63094424Y1515027D02*
X63141359Y1443940D01*
X63141359Y1443940D02*
X63254278Y1334758D01*
X63254278Y1334758D02*
X63301213Y1263672D01*
X63301213Y1263672D02*
X63315157Y1211633D01*
X63315157Y1211633D02*
X63310053Y1126602D01*
X63310053Y1126602D02*
X63271958Y1060619D01*
X63271958Y1060619D02*
X63200871Y1013684D01*
X63200871Y1013684D02*
X63148832Y999740D01*
X63148832Y999740D02*
X63063801Y1004844D01*
X63063801Y1004844D02*
X62898844Y1100082D01*
X62898844Y1100082D02*
X62818918Y1190216D01*
X62902947Y2021474D02*
X62502947Y1328653D01*
X62693423Y1658568D02*
X62297526Y1887139D01*
X62507049Y2250045D02*
X62107049Y1557225D01*
X50751547Y-18233132D02*
X50370594Y-18499799D01*
X50751547Y-18690275D02*
X49951547Y-18690275D01*
X49951547Y-18690275D02*
X49951547Y-18385513D01*
X49951547Y-18385513D02*
X49989642Y-18309323D01*
X49989642Y-18309323D02*
X50027737Y-18271228D01*
X50027737Y-18271228D02*
X50103928Y-18233132D01*
X50103928Y-18233132D02*
X50218213Y-18233132D01*
X50218213Y-18233132D02*
X50294404Y-18271228D01*
X50294404Y-18271228D02*
X50332499Y-18309323D01*
X50332499Y-18309323D02*
X50370594Y-18385513D01*
X50370594Y-18385513D02*
X50370594Y-18690275D01*
X49951547Y-17966466D02*
X49951547Y-17471228D01*
X49951547Y-17471228D02*
X50256309Y-17737894D01*
X50256309Y-17737894D02*
X50256309Y-17623609D01*
X50256309Y-17623609D02*
X50294404Y-17547418D01*
X50294404Y-17547418D02*
X50332499Y-17509323D01*
X50332499Y-17509323D02*
X50408690Y-17471228D01*
X50408690Y-17471228D02*
X50599166Y-17471228D01*
X50599166Y-17471228D02*
X50675356Y-17509323D01*
X50675356Y-17509323D02*
X50713452Y-17547418D01*
X50713452Y-17547418D02*
X50751547Y-17623609D01*
X50751547Y-17623609D02*
X50751547Y-17852180D01*
X50751547Y-17852180D02*
X50713452Y-17928371D01*
X50713452Y-17928371D02*
X50675356Y-17966466D01*
X61300087Y-3972625D02*
X61340551Y-4435873D01*
X61695985Y-4201197D02*
X61295985Y-4894017D01*
X61295985Y-4894017D02*
X61032053Y-4741636D01*
X61032053Y-4741636D02*
X60985118Y-4670549D01*
X60985118Y-4670549D02*
X60971174Y-4618510D01*
X60971174Y-4618510D02*
X60976278Y-4533480D01*
X60976278Y-4533480D02*
X61033421Y-4434505D01*
X61033421Y-4434505D02*
X61104507Y-4387570D01*
X61104507Y-4387570D02*
X61156547Y-4373626D01*
X61156547Y-4373626D02*
X61241577Y-4378730D01*
X61241577Y-4378730D02*
X61505509Y-4531111D01*
X61017108Y-3853236D02*
X60937182Y-3763101D01*
X60937182Y-3763101D02*
X60772224Y-3667863D01*
X60772224Y-3667863D02*
X60687194Y-3662760D01*
X60687194Y-3662760D02*
X60635155Y-3676703D01*
X60635155Y-3676703D02*
X60564068Y-3723639D01*
X60564068Y-3723639D02*
X60525973Y-3789622D01*
X60525973Y-3789622D02*
X60520869Y-3874652D01*
X60520869Y-3874652D02*
X60534813Y-3926691D01*
X60534813Y-3926691D02*
X60581748Y-3997778D01*
X60581748Y-3997778D02*
X60694666Y-4106960D01*
X60694666Y-4106960D02*
X60741602Y-4178046D01*
X60741602Y-4178046D02*
X60755545Y-4230085D01*
X60755545Y-4230085D02*
X60750442Y-4315116D01*
X60750442Y-4315116D02*
X60712346Y-4381099D01*
X60712346Y-4381099D02*
X60641260Y-4428034D01*
X60641260Y-4428034D02*
X60589221Y-4441978D01*
X60589221Y-4441978D02*
X60504190Y-4436874D01*
X60504190Y-4436874D02*
X60339233Y-4341636D01*
X60339233Y-4341636D02*
X60259306Y-4251502D01*
X60042310Y-4170207D02*
X59646412Y-3941636D01*
X60244361Y-3363101D02*
X59844361Y-4055922D01*
X47767535Y-20087364D02*
X47729440Y-20049268D01*
X47729440Y-20049268D02*
X47691344Y-19934983D01*
X47691344Y-19934983D02*
X47691344Y-19858792D01*
X47691344Y-19858792D02*
X47729440Y-19744506D01*
X47729440Y-19744506D02*
X47805630Y-19668316D01*
X47805630Y-19668316D02*
X47881820Y-19630221D01*
X47881820Y-19630221D02*
X48034201Y-19592125D01*
X48034201Y-19592125D02*
X48148487Y-19592125D01*
X48148487Y-19592125D02*
X48300868Y-19630221D01*
X48300868Y-19630221D02*
X48377059Y-19668316D01*
X48377059Y-19668316D02*
X48453249Y-19744506D01*
X48453249Y-19744506D02*
X48491344Y-19858792D01*
X48491344Y-19858792D02*
X48491344Y-19934983D01*
X48491344Y-19934983D02*
X48453249Y-20049268D01*
X48453249Y-20049268D02*
X48415154Y-20087364D01*
X47691344Y-20849268D02*
X47691344Y-20392125D01*
X47691344Y-20620697D02*
X48491344Y-20620697D01*
X48491344Y-20620697D02*
X48377059Y-20544506D01*
X48377059Y-20544506D02*
X48300868Y-20468316D01*
X48300868Y-20468316D02*
X48262773Y-20392125D01*
X39144735Y-20087368D02*
X39106640Y-20049272D01*
X39106640Y-20049272D02*
X39068544Y-19934987D01*
X39068544Y-19934987D02*
X39068544Y-19858796D01*
X39068544Y-19858796D02*
X39106640Y-19744510D01*
X39106640Y-19744510D02*
X39182830Y-19668320D01*
X39182830Y-19668320D02*
X39259020Y-19630225D01*
X39259020Y-19630225D02*
X39411401Y-19592129D01*
X39411401Y-19592129D02*
X39525687Y-19592129D01*
X39525687Y-19592129D02*
X39678068Y-19630225D01*
X39678068Y-19630225D02*
X39754259Y-19668320D01*
X39754259Y-19668320D02*
X39830449Y-19744510D01*
X39830449Y-19744510D02*
X39868544Y-19858796D01*
X39868544Y-19858796D02*
X39868544Y-19934987D01*
X39868544Y-19934987D02*
X39830449Y-20049272D01*
X39830449Y-20049272D02*
X39792354Y-20087368D01*
X39792354Y-20392129D02*
X39830449Y-20430225D01*
X39830449Y-20430225D02*
X39868544Y-20506415D01*
X39868544Y-20506415D02*
X39868544Y-20696891D01*
X39868544Y-20696891D02*
X39830449Y-20773082D01*
X39830449Y-20773082D02*
X39792354Y-20811177D01*
X39792354Y-20811177D02*
X39716163Y-20849272D01*
X39716163Y-20849272D02*
X39639973Y-20849272D01*
X39639973Y-20849272D02*
X39525687Y-20811177D01*
X39525687Y-20811177D02*
X39068544Y-20354034D01*
X39068544Y-20354034D02*
X39068544Y-20849272D01*
D11*
X53464111Y-19713888D02*
X53368873Y-19878846D01*
X53368873Y-19878846D02*
X53022463Y-19678846D01*
X53349325Y-19493656D02*
X53415992Y-19378186D01*
X53626016Y-19433461D02*
X53530778Y-19598418D01*
X53530778Y-19598418D02*
X53184368Y-19398418D01*
X53184368Y-19398418D02*
X53279606Y-19233461D01*
X53711730Y-19284999D02*
X53365320Y-19084999D01*
X53365320Y-19084999D02*
X53412939Y-19002520D01*
X53412939Y-19002520D02*
X53458006Y-18962557D01*
X53458006Y-18962557D02*
X53510046Y-18948613D01*
X53510046Y-18948613D02*
X53552561Y-18951165D01*
X53552561Y-18951165D02*
X53628067Y-18972765D01*
X53628067Y-18972765D02*
X53677555Y-19001336D01*
X53677555Y-19001336D02*
X53734014Y-19055927D01*
X53734014Y-19055927D02*
X53757481Y-19091470D01*
X53757481Y-19091470D02*
X53771425Y-19143510D01*
X53771425Y-19143510D02*
X53759349Y-19202520D01*
X53759349Y-19202520D02*
X53711730Y-19284999D01*
X53546273Y-18771580D02*
X53670082Y-18557136D01*
X53670082Y-18557136D02*
X53735381Y-18748797D01*
X53735381Y-18748797D02*
X53763953Y-18699309D01*
X53763953Y-18699309D02*
X53799496Y-18675842D01*
X53799496Y-18675842D02*
X53825516Y-18668870D01*
X53825516Y-18668870D02*
X53868031Y-18671422D01*
X53868031Y-18671422D02*
X53950509Y-18719041D01*
X53950509Y-18719041D02*
X53973977Y-18754584D01*
X53973977Y-18754584D02*
X53980949Y-18780604D01*
X53980949Y-18780604D02*
X53978397Y-18823119D01*
X53978397Y-18823119D02*
X53921254Y-18922093D01*
X53921254Y-18922093D02*
X53885711Y-18945561D01*
X53885711Y-18945561D02*
X53859691Y-18952533D01*
D10*
X39861122Y21663774D02*
X40191036Y21854251D01*
X39909425Y21427731D02*
X39740365Y22253884D01*
X39740365Y22253884D02*
X40371305Y21694397D01*
X40602245Y21827730D02*
X40202245Y22520551D01*
X40202245Y22520551D02*
X40998142Y22056302D01*
X40998142Y22056302D02*
X40598142Y22749122D01*
X40829082Y22882455D02*
X41224979Y23111027D01*
X41427031Y22303921D02*
X41027031Y22996741D01*
X41646396Y22914446D02*
X41877336Y23047779D01*
X42185834Y22742016D02*
X41855920Y22551540D01*
X41855920Y22551540D02*
X41455920Y23244360D01*
X41455920Y23244360D02*
X41785834Y23434836D01*
X42482758Y22913445D02*
X42082758Y23606265D01*
X42082758Y23606265D02*
X42878655Y23142016D01*
X42878655Y23142016D02*
X42478655Y23834837D01*
X43208569Y23332492D02*
X42808569Y24025313D01*
X42808569Y24025313D02*
X43604466Y23561064D01*
X43604466Y23561064D02*
X43204466Y24253884D01*
X43787104Y23930441D02*
X44117018Y24120917D01*
X43835406Y23694397D02*
X43666346Y24520551D01*
X43666346Y24520551D02*
X44297287Y23961064D01*
X49365009Y97855D02*
X49688819Y-462998D01*
X49688819Y-462998D02*
X49759905Y-509934D01*
X49759905Y-509934D02*
X49811944Y-523877D01*
X49811944Y-523877D02*
X49896975Y-518774D01*
X49896975Y-518774D02*
X50028941Y-442583D01*
X50028941Y-442583D02*
X50075876Y-371496D01*
X50075876Y-371496D02*
X50089820Y-319457D01*
X50089820Y-319457D02*
X50084716Y-234427D01*
X50084716Y-234427D02*
X49760906Y326427D01*
X50853726Y33606D02*
X50457829Y-194964D01*
X50655778Y-80679D02*
X50255778Y612141D01*
X50255778Y612141D02*
X50246938Y475071D01*
X50246938Y475071D02*
X50219050Y370993D01*
X50219050Y370993D02*
X50172115Y299906D01*
D13*
X22956004Y900853D02*
X22956004Y78376D01*
X22956004Y78376D02*
X23004385Y-18385D01*
X23004385Y-18385D02*
X23052766Y-66766D01*
X23052766Y-66766D02*
X23149528Y-115146D01*
X23149528Y-115146D02*
X23343052Y-115146D01*
X23343052Y-115146D02*
X23439814Y-66766D01*
X23439814Y-66766D02*
X23488195Y-18385D01*
X23488195Y-18385D02*
X23536576Y78376D01*
X23536576Y78376D02*
X23536576Y900853D01*
X23972004Y804091D02*
X24020385Y852472D01*
X24020385Y852472D02*
X24117147Y900853D01*
X24117147Y900853D02*
X24359052Y900853D01*
X24359052Y900853D02*
X24455814Y852472D01*
X24455814Y852472D02*
X24504195Y804091D01*
X24504195Y804091D02*
X24552576Y707329D01*
X24552576Y707329D02*
X24552576Y610567D01*
X24552576Y610567D02*
X24504195Y465424D01*
X24504195Y465424D02*
X23923623Y-115146D01*
X23923623Y-115146D02*
X24552576Y-115146D01*
X16341704Y-7584746D02*
X16341704Y-6568746D01*
X17406086Y-7487985D02*
X17357705Y-7536366D01*
X17357705Y-7536366D02*
X17212562Y-7584746D01*
X17212562Y-7584746D02*
X17115800Y-7584746D01*
X17115800Y-7584746D02*
X16970657Y-7536366D01*
X16970657Y-7536366D02*
X16873895Y-7439604D01*
X16873895Y-7439604D02*
X16825514Y-7342842D01*
X16825514Y-7342842D02*
X16777133Y-7149318D01*
X16777133Y-7149318D02*
X16777133Y-7004175D01*
X16777133Y-7004175D02*
X16825514Y-6810651D01*
X16825514Y-6810651D02*
X16873895Y-6713889D01*
X16873895Y-6713889D02*
X16970657Y-6617127D01*
X16970657Y-6617127D02*
X17115800Y-6568746D01*
X17115800Y-6568746D02*
X17212562Y-6568746D01*
X17212562Y-6568746D02*
X17357705Y-6617127D01*
X17357705Y-6617127D02*
X17406086Y-6665508D01*
X17986657Y-6568746D02*
X17986657Y-6810651D01*
X17744752Y-6713889D02*
X17986657Y-6810651D01*
X17986657Y-6810651D02*
X18228562Y-6713889D01*
X17841514Y-7004175D02*
X17986657Y-6810651D01*
X17986657Y-6810651D02*
X18131800Y-7004175D01*
X18760752Y-6568746D02*
X18760752Y-6810651D01*
X18518847Y-6713889D02*
X18760752Y-6810651D01*
X18760752Y-6810651D02*
X19002657Y-6713889D01*
X18615609Y-7004175D02*
X18760752Y-6810651D01*
X18760752Y-6810651D02*
X18905895Y-7004175D01*
D10*
X11627699Y-8785721D02*
X11627699Y-9319055D01*
X11437223Y-8480960D02*
X11246746Y-9052388D01*
X11246746Y-9052388D02*
X11741985Y-9052388D01*
X12199128Y-8519055D02*
X12275318Y-8519055D01*
X12275318Y-8519055D02*
X12351509Y-8557150D01*
X12351509Y-8557150D02*
X12389604Y-8595245D01*
X12389604Y-8595245D02*
X12427699Y-8671436D01*
X12427699Y-8671436D02*
X12465794Y-8823817D01*
X12465794Y-8823817D02*
X12465794Y-9014293D01*
X12465794Y-9014293D02*
X12427699Y-9166674D01*
X12427699Y-9166674D02*
X12389604Y-9242864D01*
X12389604Y-9242864D02*
X12351509Y-9280960D01*
X12351509Y-9280960D02*
X12275318Y-9319055D01*
X12275318Y-9319055D02*
X12199128Y-9319055D01*
X12199128Y-9319055D02*
X12122937Y-9280960D01*
X12122937Y-9280960D02*
X12084842Y-9242864D01*
X12084842Y-9242864D02*
X12046747Y-9166674D01*
X12046747Y-9166674D02*
X12008651Y-9014293D01*
X12008651Y-9014293D02*
X12008651Y-8823817D01*
X12008651Y-8823817D02*
X12046747Y-8671436D01*
X12046747Y-8671436D02*
X12084842Y-8595245D01*
X12084842Y-8595245D02*
X12122937Y-8557150D01*
X12122937Y-8557150D02*
X12199128Y-8519055D01*
X12961033Y-8519055D02*
X13037223Y-8519055D01*
X13037223Y-8519055D02*
X13113414Y-8557150D01*
X13113414Y-8557150D02*
X13151509Y-8595245D01*
X13151509Y-8595245D02*
X13189604Y-8671436D01*
X13189604Y-8671436D02*
X13227699Y-8823817D01*
X13227699Y-8823817D02*
X13227699Y-9014293D01*
X13227699Y-9014293D02*
X13189604Y-9166674D01*
X13189604Y-9166674D02*
X13151509Y-9242864D01*
X13151509Y-9242864D02*
X13113414Y-9280960D01*
X13113414Y-9280960D02*
X13037223Y-9319055D01*
X13037223Y-9319055D02*
X12961033Y-9319055D01*
X12961033Y-9319055D02*
X12884842Y-9280960D01*
X12884842Y-9280960D02*
X12846747Y-9242864D01*
X12846747Y-9242864D02*
X12808652Y-9166674D01*
X12808652Y-9166674D02*
X12770556Y-9014293D01*
X12770556Y-9014293D02*
X12770556Y-8823817D01*
X12770556Y-8823817D02*
X12808652Y-8671436D01*
X12808652Y-8671436D02*
X12846747Y-8595245D01*
X12846747Y-8595245D02*
X12884842Y-8557150D01*
X12884842Y-8557150D02*
X12961033Y-8519055D01*
X13570557Y-9319055D02*
X13570557Y-8785721D01*
X13570557Y-8861912D02*
X13608652Y-8823817D01*
X13608652Y-8823817D02*
X13684842Y-8785721D01*
X13684842Y-8785721D02*
X13799128Y-8785721D01*
X13799128Y-8785721D02*
X13875319Y-8823817D01*
X13875319Y-8823817D02*
X13913414Y-8900007D01*
X13913414Y-8900007D02*
X13913414Y-9319055D01*
X13913414Y-8900007D02*
X13951509Y-8823817D01*
X13951509Y-8823817D02*
X14027700Y-8785721D01*
X14027700Y-8785721D02*
X14141985Y-8785721D01*
X14141985Y-8785721D02*
X14218176Y-8823817D01*
X14218176Y-8823817D02*
X14256271Y-8900007D01*
X14256271Y-8900007D02*
X14256271Y-9319055D01*
X14599128Y-9319055D02*
X14789605Y-9319055D01*
X14789605Y-9319055D02*
X14789605Y-9166674D01*
X14789605Y-9166674D02*
X14713414Y-9128579D01*
X14713414Y-9128579D02*
X14637224Y-9052388D01*
X14637224Y-9052388D02*
X14599128Y-8938102D01*
X14599128Y-8938102D02*
X14599128Y-8747626D01*
X14599128Y-8747626D02*
X14637224Y-8633340D01*
X14637224Y-8633340D02*
X14713414Y-8557150D01*
X14713414Y-8557150D02*
X14827700Y-8519055D01*
X14827700Y-8519055D02*
X14980081Y-8519055D01*
X14980081Y-8519055D02*
X15094367Y-8557150D01*
X15094367Y-8557150D02*
X15170557Y-8633340D01*
X15170557Y-8633340D02*
X15208652Y-8747626D01*
X15208652Y-8747626D02*
X15208652Y-8938102D01*
X15208652Y-8938102D02*
X15170557Y-9052388D01*
X15170557Y-9052388D02*
X15094367Y-9128579D01*
X15094367Y-9128579D02*
X15018176Y-9166674D01*
X15018176Y-9166674D02*
X15018176Y-9319055D01*
X15018176Y-9319055D02*
X15208652Y-9319055D01*
X13094367Y-6459055D02*
X12827700Y-6078102D01*
X12637224Y-6459055D02*
X12637224Y-5659055D01*
X12637224Y-5659055D02*
X12941986Y-5659055D01*
X12941986Y-5659055D02*
X13018176Y-5697150D01*
X13018176Y-5697150D02*
X13056271Y-5735245D01*
X13056271Y-5735245D02*
X13094367Y-5811436D01*
X13094367Y-5811436D02*
X13094367Y-5925721D01*
X13094367Y-5925721D02*
X13056271Y-6001912D01*
X13056271Y-6001912D02*
X13018176Y-6040007D01*
X13018176Y-6040007D02*
X12941986Y-6078102D01*
X12941986Y-6078102D02*
X12637224Y-6078102D01*
X13361033Y-5659055D02*
X13894367Y-5659055D01*
X13894367Y-5659055D02*
X13551509Y-6459055D01*
D14*
X7969700Y-7038178D02*
X7946843Y-7061036D01*
X7946843Y-7061036D02*
X7878271Y-7083893D01*
X7878271Y-7083893D02*
X7832557Y-7083893D01*
X7832557Y-7083893D02*
X7763986Y-7061036D01*
X7763986Y-7061036D02*
X7718271Y-7015321D01*
X7718271Y-7015321D02*
X7695414Y-6969607D01*
X7695414Y-6969607D02*
X7672557Y-6878178D01*
X7672557Y-6878178D02*
X7672557Y-6809607D01*
X7672557Y-6809607D02*
X7695414Y-6718178D01*
X7695414Y-6718178D02*
X7718271Y-6672464D01*
X7718271Y-6672464D02*
X7763986Y-6626750D01*
X7763986Y-6626750D02*
X7832557Y-6603893D01*
X7832557Y-6603893D02*
X7878271Y-6603893D01*
X7878271Y-6603893D02*
X7946843Y-6626750D01*
X7946843Y-6626750D02*
X7969700Y-6649607D01*
X8129700Y-6603893D02*
X8449700Y-6603893D01*
X8449700Y-6603893D02*
X8243986Y-7083893D01*
D10*
X6811604Y-9279955D02*
X6354461Y-9279955D01*
X6583033Y-9279955D02*
X6583033Y-8479955D01*
X6583033Y-8479955D02*
X6506842Y-8594240D01*
X6506842Y-8594240D02*
X6430652Y-8670431D01*
X6430652Y-8670431D02*
X6354461Y-8708526D01*
X7306843Y-8479955D02*
X7383033Y-8479955D01*
X7383033Y-8479955D02*
X7459224Y-8518050D01*
X7459224Y-8518050D02*
X7497319Y-8556145D01*
X7497319Y-8556145D02*
X7535414Y-8632336D01*
X7535414Y-8632336D02*
X7573509Y-8784717D01*
X7573509Y-8784717D02*
X7573509Y-8975193D01*
X7573509Y-8975193D02*
X7535414Y-9127574D01*
X7535414Y-9127574D02*
X7497319Y-9203764D01*
X7497319Y-9203764D02*
X7459224Y-9241860D01*
X7459224Y-9241860D02*
X7383033Y-9279955D01*
X7383033Y-9279955D02*
X7306843Y-9279955D01*
X7306843Y-9279955D02*
X7230652Y-9241860D01*
X7230652Y-9241860D02*
X7192557Y-9203764D01*
X7192557Y-9203764D02*
X7154462Y-9127574D01*
X7154462Y-9127574D02*
X7116366Y-8975193D01*
X7116366Y-8975193D02*
X7116366Y-8784717D01*
X7116366Y-8784717D02*
X7154462Y-8632336D01*
X7154462Y-8632336D02*
X7192557Y-8556145D01*
X7192557Y-8556145D02*
X7230652Y-8518050D01*
X7230652Y-8518050D02*
X7306843Y-8479955D01*
X8068748Y-8479955D02*
X8144938Y-8479955D01*
X8144938Y-8479955D02*
X8221129Y-8518050D01*
X8221129Y-8518050D02*
X8259224Y-8556145D01*
X8259224Y-8556145D02*
X8297319Y-8632336D01*
X8297319Y-8632336D02*
X8335414Y-8784717D01*
X8335414Y-8784717D02*
X8335414Y-8975193D01*
X8335414Y-8975193D02*
X8297319Y-9127574D01*
X8297319Y-9127574D02*
X8259224Y-9203764D01*
X8259224Y-9203764D02*
X8221129Y-9241860D01*
X8221129Y-9241860D02*
X8144938Y-9279955D01*
X8144938Y-9279955D02*
X8068748Y-9279955D01*
X8068748Y-9279955D02*
X7992557Y-9241860D01*
X7992557Y-9241860D02*
X7954462Y-9203764D01*
X7954462Y-9203764D02*
X7916367Y-9127574D01*
X7916367Y-9127574D02*
X7878271Y-8975193D01*
X7878271Y-8975193D02*
X7878271Y-8784717D01*
X7878271Y-8784717D02*
X7916367Y-8632336D01*
X7916367Y-8632336D02*
X7954462Y-8556145D01*
X7954462Y-8556145D02*
X7992557Y-8518050D01*
X7992557Y-8518050D02*
X8068748Y-8479955D01*
X8678272Y-8746621D02*
X8678272Y-9546621D01*
X8678272Y-8784717D02*
X8754462Y-8746621D01*
X8754462Y-8746621D02*
X8906843Y-8746621D01*
X8906843Y-8746621D02*
X8983034Y-8784717D01*
X8983034Y-8784717D02*
X9021129Y-8822812D01*
X9021129Y-8822812D02*
X9059224Y-8899002D01*
X9059224Y-8899002D02*
X9059224Y-9127574D01*
X9059224Y-9127574D02*
X9021129Y-9203764D01*
X9021129Y-9203764D02*
X8983034Y-9241860D01*
X8983034Y-9241860D02*
X8906843Y-9279955D01*
X8906843Y-9279955D02*
X8754462Y-9279955D01*
X8754462Y-9279955D02*
X8678272Y-9241860D01*
X9668748Y-8860907D02*
X9402082Y-8860907D01*
X9402082Y-9279955D02*
X9402082Y-8479955D01*
X9402082Y-8479955D02*
X9783034Y-8479955D01*
X7916367Y-5103764D02*
X7878271Y-5141860D01*
X7878271Y-5141860D02*
X7763986Y-5179955D01*
X7763986Y-5179955D02*
X7687795Y-5179955D01*
X7687795Y-5179955D02*
X7573509Y-5141860D01*
X7573509Y-5141860D02*
X7497319Y-5065669D01*
X7497319Y-5065669D02*
X7459224Y-4989479D01*
X7459224Y-4989479D02*
X7421128Y-4837098D01*
X7421128Y-4837098D02*
X7421128Y-4722812D01*
X7421128Y-4722812D02*
X7459224Y-4570431D01*
X7459224Y-4570431D02*
X7497319Y-4494240D01*
X7497319Y-4494240D02*
X7573509Y-4418050D01*
X7573509Y-4418050D02*
X7687795Y-4379955D01*
X7687795Y-4379955D02*
X7763986Y-4379955D01*
X7763986Y-4379955D02*
X7878271Y-4418050D01*
X7878271Y-4418050D02*
X7916367Y-4456145D01*
X8183033Y-4379955D02*
X8716367Y-4379955D01*
X8716367Y-4379955D02*
X8373509Y-5179955D01*
X35061228Y2288944D02*
X34680276Y2288944D01*
X34680276Y2288944D02*
X34642180Y1907992D01*
X34642180Y1907992D02*
X34680276Y1946087D01*
X34680276Y1946087D02*
X34756466Y1984182D01*
X34756466Y1984182D02*
X34946942Y1984182D01*
X34946942Y1984182D02*
X35023133Y1946087D01*
X35023133Y1946087D02*
X35061228Y1907992D01*
X35061228Y1907992D02*
X35099323Y1831801D01*
X35099323Y1831801D02*
X35099323Y1641325D01*
X35099323Y1641325D02*
X35061228Y1565135D01*
X35061228Y1565135D02*
X35023133Y1527040D01*
X35023133Y1527040D02*
X34946942Y1488944D01*
X34946942Y1488944D02*
X34756466Y1488944D01*
X34756466Y1488944D02*
X34680276Y1527040D01*
X34680276Y1527040D02*
X34642180Y1565135D01*
X35594562Y2288944D02*
X35670752Y2288944D01*
X35670752Y2288944D02*
X35746943Y2250849D01*
X35746943Y2250849D02*
X35785038Y2212754D01*
X35785038Y2212754D02*
X35823133Y2136563D01*
X35823133Y2136563D02*
X35861228Y1984182D01*
X35861228Y1984182D02*
X35861228Y1793706D01*
X35861228Y1793706D02*
X35823133Y1641325D01*
X35823133Y1641325D02*
X35785038Y1565135D01*
X35785038Y1565135D02*
X35746943Y1527040D01*
X35746943Y1527040D02*
X35670752Y1488944D01*
X35670752Y1488944D02*
X35594562Y1488944D01*
X35594562Y1488944D02*
X35518371Y1527040D01*
X35518371Y1527040D02*
X35480276Y1565135D01*
X35480276Y1565135D02*
X35442181Y1641325D01*
X35442181Y1641325D02*
X35404085Y1793706D01*
X35404085Y1793706D02*
X35404085Y1984182D01*
X35404085Y1984182D02*
X35442181Y2136563D01*
X35442181Y2136563D02*
X35480276Y2212754D01*
X35480276Y2212754D02*
X35518371Y2250849D01*
X35518371Y2250849D02*
X35594562Y2288944D01*
X36356467Y2288944D02*
X36432657Y2288944D01*
X36432657Y2288944D02*
X36508848Y2250849D01*
X36508848Y2250849D02*
X36546943Y2212754D01*
X36546943Y2212754D02*
X36585038Y2136563D01*
X36585038Y2136563D02*
X36623133Y1984182D01*
X36623133Y1984182D02*
X36623133Y1793706D01*
X36623133Y1793706D02*
X36585038Y1641325D01*
X36585038Y1641325D02*
X36546943Y1565135D01*
X36546943Y1565135D02*
X36508848Y1527040D01*
X36508848Y1527040D02*
X36432657Y1488944D01*
X36432657Y1488944D02*
X36356467Y1488944D01*
X36356467Y1488944D02*
X36280276Y1527040D01*
X36280276Y1527040D02*
X36242181Y1565135D01*
X36242181Y1565135D02*
X36204086Y1641325D01*
X36204086Y1641325D02*
X36165990Y1793706D01*
X36165990Y1793706D02*
X36165990Y1984182D01*
X36165990Y1984182D02*
X36204086Y2136563D01*
X36204086Y2136563D02*
X36242181Y2212754D01*
X36242181Y2212754D02*
X36280276Y2250849D01*
X36280276Y2250849D02*
X36356467Y2288944D01*
X36927895Y1488944D02*
X37118372Y1488944D01*
X37118372Y1488944D02*
X37118372Y1641325D01*
X37118372Y1641325D02*
X37042181Y1679420D01*
X37042181Y1679420D02*
X36965991Y1755611D01*
X36965991Y1755611D02*
X36927895Y1869897D01*
X36927895Y1869897D02*
X36927895Y2060373D01*
X36927895Y2060373D02*
X36965991Y2174659D01*
X36965991Y2174659D02*
X37042181Y2250849D01*
X37042181Y2250849D02*
X37156467Y2288944D01*
X37156467Y2288944D02*
X37308848Y2288944D01*
X37308848Y2288944D02*
X37423134Y2250849D01*
X37423134Y2250849D02*
X37499324Y2174659D01*
X37499324Y2174659D02*
X37537419Y2060373D01*
X37537419Y2060373D02*
X37537419Y1869897D01*
X37537419Y1869897D02*
X37499324Y1755611D01*
X37499324Y1755611D02*
X37423134Y1679420D01*
X37423134Y1679420D02*
X37346943Y1641325D01*
X37346943Y1641325D02*
X37346943Y1488944D01*
X37346943Y1488944D02*
X37537419Y1488944D01*
X35956467Y4348944D02*
X35689800Y4729897D01*
X35499324Y4348944D02*
X35499324Y5148944D01*
X35499324Y5148944D02*
X35804086Y5148944D01*
X35804086Y5148944D02*
X35880276Y5110849D01*
X35880276Y5110849D02*
X35918371Y5072754D01*
X35918371Y5072754D02*
X35956467Y4996563D01*
X35956467Y4996563D02*
X35956467Y4882278D01*
X35956467Y4882278D02*
X35918371Y4806087D01*
X35918371Y4806087D02*
X35880276Y4767992D01*
X35880276Y4767992D02*
X35804086Y4729897D01*
X35804086Y4729897D02*
X35499324Y4729897D01*
X36413609Y4806087D02*
X36337419Y4844182D01*
X36337419Y4844182D02*
X36299324Y4882278D01*
X36299324Y4882278D02*
X36261228Y4958468D01*
X36261228Y4958468D02*
X36261228Y4996563D01*
X36261228Y4996563D02*
X36299324Y5072754D01*
X36299324Y5072754D02*
X36337419Y5110849D01*
X36337419Y5110849D02*
X36413609Y5148944D01*
X36413609Y5148944D02*
X36565990Y5148944D01*
X36565990Y5148944D02*
X36642181Y5110849D01*
X36642181Y5110849D02*
X36680276Y5072754D01*
X36680276Y5072754D02*
X36718371Y4996563D01*
X36718371Y4996563D02*
X36718371Y4958468D01*
X36718371Y4958468D02*
X36680276Y4882278D01*
X36680276Y4882278D02*
X36642181Y4844182D01*
X36642181Y4844182D02*
X36565990Y4806087D01*
X36565990Y4806087D02*
X36413609Y4806087D01*
X36413609Y4806087D02*
X36337419Y4767992D01*
X36337419Y4767992D02*
X36299324Y4729897D01*
X36299324Y4729897D02*
X36261228Y4653706D01*
X36261228Y4653706D02*
X36261228Y4501325D01*
X36261228Y4501325D02*
X36299324Y4425135D01*
X36299324Y4425135D02*
X36337419Y4387040D01*
X36337419Y4387040D02*
X36413609Y4348944D01*
X36413609Y4348944D02*
X36565990Y4348944D01*
X36565990Y4348944D02*
X36642181Y4387040D01*
X36642181Y4387040D02*
X36680276Y4425135D01*
X36680276Y4425135D02*
X36718371Y4501325D01*
X36718371Y4501325D02*
X36718371Y4653706D01*
X36718371Y4653706D02*
X36680276Y4729897D01*
X36680276Y4729897D02*
X36642181Y4767992D01*
X36642181Y4767992D02*
X36565990Y4806087D01*
D11*
X27795381Y7480222D02*
X27604905Y7480222D01*
X27604905Y7480222D02*
X27604905Y7880222D01*
X27928715Y7689746D02*
X28062048Y7689746D01*
X28119191Y7480222D02*
X27928715Y7480222D01*
X27928715Y7480222D02*
X27928715Y7880222D01*
X27928715Y7880222D02*
X28119191Y7880222D01*
X28290620Y7480222D02*
X28290620Y7880222D01*
X28290620Y7880222D02*
X28385858Y7880222D01*
X28385858Y7880222D02*
X28443001Y7861174D01*
X28443001Y7861174D02*
X28481096Y7823079D01*
X28481096Y7823079D02*
X28500143Y7784984D01*
X28500143Y7784984D02*
X28519191Y7708793D01*
X28519191Y7708793D02*
X28519191Y7651650D01*
X28519191Y7651650D02*
X28500143Y7575460D01*
X28500143Y7575460D02*
X28481096Y7537365D01*
X28481096Y7537365D02*
X28443001Y7499270D01*
X28443001Y7499270D02*
X28385858Y7480222D01*
X28385858Y7480222D02*
X28290620Y7480222D01*
X28862048Y7746889D02*
X28862048Y7480222D01*
X28766810Y7899270D02*
X28671572Y7613555D01*
X28671572Y7613555D02*
X28919191Y7613555D01*
D10*
D11*
X26976681Y5930522D02*
X26786205Y5930522D01*
X26786205Y5930522D02*
X26786205Y6330522D01*
X27110015Y6140046D02*
X27243348Y6140046D01*
X27300491Y5930522D02*
X27110015Y5930522D01*
X27110015Y5930522D02*
X27110015Y6330522D01*
X27110015Y6330522D02*
X27300491Y6330522D01*
X27471920Y5930522D02*
X27471920Y6330522D01*
X27471920Y6330522D02*
X27567158Y6330522D01*
X27567158Y6330522D02*
X27624301Y6311474D01*
X27624301Y6311474D02*
X27662396Y6273379D01*
X27662396Y6273379D02*
X27681443Y6235284D01*
X27681443Y6235284D02*
X27700491Y6159093D01*
X27700491Y6159093D02*
X27700491Y6101950D01*
X27700491Y6101950D02*
X27681443Y6025760D01*
X27681443Y6025760D02*
X27662396Y5987665D01*
X27662396Y5987665D02*
X27624301Y5949570D01*
X27624301Y5949570D02*
X27567158Y5930522D01*
X27567158Y5930522D02*
X27471920Y5930522D01*
X28062396Y6330522D02*
X27871920Y6330522D01*
X27871920Y6330522D02*
X27852872Y6140046D01*
X27852872Y6140046D02*
X27871920Y6159093D01*
X27871920Y6159093D02*
X27910015Y6178141D01*
X27910015Y6178141D02*
X28005253Y6178141D01*
X28005253Y6178141D02*
X28043348Y6159093D01*
X28043348Y6159093D02*
X28062396Y6140046D01*
X28062396Y6140046D02*
X28081443Y6101950D01*
X28081443Y6101950D02*
X28081443Y6006712D01*
X28081443Y6006712D02*
X28062396Y5968617D01*
X28062396Y5968617D02*
X28043348Y5949570D01*
X28043348Y5949570D02*
X28005253Y5930522D01*
X28005253Y5930522D02*
X27910015Y5930522D01*
X27910015Y5930522D02*
X27871920Y5949570D01*
X27871920Y5949570D02*
X27852872Y5968617D01*
D10*
X25998928Y2725144D02*
X25617976Y2725144D01*
X25617976Y2725144D02*
X25579880Y2344192D01*
X25579880Y2344192D02*
X25617976Y2382287D01*
X25617976Y2382287D02*
X25694166Y2420382D01*
X25694166Y2420382D02*
X25884642Y2420382D01*
X25884642Y2420382D02*
X25960833Y2382287D01*
X25960833Y2382287D02*
X25998928Y2344192D01*
X25998928Y2344192D02*
X26037023Y2268001D01*
X26037023Y2268001D02*
X26037023Y2077525D01*
X26037023Y2077525D02*
X25998928Y2001335D01*
X25998928Y2001335D02*
X25960833Y1963240D01*
X25960833Y1963240D02*
X25884642Y1925144D01*
X25884642Y1925144D02*
X25694166Y1925144D01*
X25694166Y1925144D02*
X25617976Y1963240D01*
X25617976Y1963240D02*
X25579880Y2001335D01*
X26532262Y2725144D02*
X26608452Y2725144D01*
X26608452Y2725144D02*
X26684643Y2687049D01*
X26684643Y2687049D02*
X26722738Y2648954D01*
X26722738Y2648954D02*
X26760833Y2572763D01*
X26760833Y2572763D02*
X26798928Y2420382D01*
X26798928Y2420382D02*
X26798928Y2229906D01*
X26798928Y2229906D02*
X26760833Y2077525D01*
X26760833Y2077525D02*
X26722738Y2001335D01*
X26722738Y2001335D02*
X26684643Y1963240D01*
X26684643Y1963240D02*
X26608452Y1925144D01*
X26608452Y1925144D02*
X26532262Y1925144D01*
X26532262Y1925144D02*
X26456071Y1963240D01*
X26456071Y1963240D02*
X26417976Y2001335D01*
X26417976Y2001335D02*
X26379881Y2077525D01*
X26379881Y2077525D02*
X26341785Y2229906D01*
X26341785Y2229906D02*
X26341785Y2420382D01*
X26341785Y2420382D02*
X26379881Y2572763D01*
X26379881Y2572763D02*
X26417976Y2648954D01*
X26417976Y2648954D02*
X26456071Y2687049D01*
X26456071Y2687049D02*
X26532262Y2725144D01*
X27294167Y2725144D02*
X27370357Y2725144D01*
X27370357Y2725144D02*
X27446548Y2687049D01*
X27446548Y2687049D02*
X27484643Y2648954D01*
X27484643Y2648954D02*
X27522738Y2572763D01*
X27522738Y2572763D02*
X27560833Y2420382D01*
X27560833Y2420382D02*
X27560833Y2229906D01*
X27560833Y2229906D02*
X27522738Y2077525D01*
X27522738Y2077525D02*
X27484643Y2001335D01*
X27484643Y2001335D02*
X27446548Y1963240D01*
X27446548Y1963240D02*
X27370357Y1925144D01*
X27370357Y1925144D02*
X27294167Y1925144D01*
X27294167Y1925144D02*
X27217976Y1963240D01*
X27217976Y1963240D02*
X27179881Y2001335D01*
X27179881Y2001335D02*
X27141786Y2077525D01*
X27141786Y2077525D02*
X27103690Y2229906D01*
X27103690Y2229906D02*
X27103690Y2420382D01*
X27103690Y2420382D02*
X27141786Y2572763D01*
X27141786Y2572763D02*
X27179881Y2648954D01*
X27179881Y2648954D02*
X27217976Y2687049D01*
X27217976Y2687049D02*
X27294167Y2725144D01*
X27865595Y1925144D02*
X28056072Y1925144D01*
X28056072Y1925144D02*
X28056072Y2077525D01*
X28056072Y2077525D02*
X27979881Y2115620D01*
X27979881Y2115620D02*
X27903691Y2191811D01*
X27903691Y2191811D02*
X27865595Y2306097D01*
X27865595Y2306097D02*
X27865595Y2496573D01*
X27865595Y2496573D02*
X27903691Y2610859D01*
X27903691Y2610859D02*
X27979881Y2687049D01*
X27979881Y2687049D02*
X28094167Y2725144D01*
X28094167Y2725144D02*
X28246548Y2725144D01*
X28246548Y2725144D02*
X28360834Y2687049D01*
X28360834Y2687049D02*
X28437024Y2610859D01*
X28437024Y2610859D02*
X28475119Y2496573D01*
X28475119Y2496573D02*
X28475119Y2306097D01*
X28475119Y2306097D02*
X28437024Y2191811D01*
X28437024Y2191811D02*
X28360834Y2115620D01*
X28360834Y2115620D02*
X28284643Y2077525D01*
X28284643Y2077525D02*
X28284643Y1925144D01*
X28284643Y1925144D02*
X28475119Y1925144D01*
X26894167Y4785144D02*
X26627500Y5166097D01*
X26437024Y4785144D02*
X26437024Y5585144D01*
X26437024Y5585144D02*
X26741786Y5585144D01*
X26741786Y5585144D02*
X26817976Y5547049D01*
X26817976Y5547049D02*
X26856071Y5508954D01*
X26856071Y5508954D02*
X26894167Y5432763D01*
X26894167Y5432763D02*
X26894167Y5318478D01*
X26894167Y5318478D02*
X26856071Y5242287D01*
X26856071Y5242287D02*
X26817976Y5204192D01*
X26817976Y5204192D02*
X26741786Y5166097D01*
X26741786Y5166097D02*
X26437024Y5166097D01*
X27275119Y4785144D02*
X27427500Y4785144D01*
X27427500Y4785144D02*
X27503690Y4823240D01*
X27503690Y4823240D02*
X27541786Y4861335D01*
X27541786Y4861335D02*
X27617976Y4975620D01*
X27617976Y4975620D02*
X27656071Y5128001D01*
X27656071Y5128001D02*
X27656071Y5432763D01*
X27656071Y5432763D02*
X27617976Y5508954D01*
X27617976Y5508954D02*
X27579881Y5547049D01*
X27579881Y5547049D02*
X27503690Y5585144D01*
X27503690Y5585144D02*
X27351309Y5585144D01*
X27351309Y5585144D02*
X27275119Y5547049D01*
X27275119Y5547049D02*
X27237024Y5508954D01*
X27237024Y5508954D02*
X27198928Y5432763D01*
X27198928Y5432763D02*
X27198928Y5242287D01*
X27198928Y5242287D02*
X27237024Y5166097D01*
X27237024Y5166097D02*
X27275119Y5128001D01*
X27275119Y5128001D02*
X27351309Y5089906D01*
X27351309Y5089906D02*
X27503690Y5089906D01*
X27503690Y5089906D02*
X27579881Y5128001D01*
X27579881Y5128001D02*
X27617976Y5166097D01*
X27617976Y5166097D02*
X27656071Y5242287D01*
X14344728Y-16926255D02*
X13963776Y-16926255D01*
X13963776Y-16926255D02*
X13925680Y-17307207D01*
X13925680Y-17307207D02*
X13963776Y-17269112D01*
X13963776Y-17269112D02*
X14039966Y-17231017D01*
X14039966Y-17231017D02*
X14230442Y-17231017D01*
X14230442Y-17231017D02*
X14306633Y-17269112D01*
X14306633Y-17269112D02*
X14344728Y-17307207D01*
X14344728Y-17307207D02*
X14382823Y-17383398D01*
X14382823Y-17383398D02*
X14382823Y-17573874D01*
X14382823Y-17573874D02*
X14344728Y-17650064D01*
X14344728Y-17650064D02*
X14306633Y-17688160D01*
X14306633Y-17688160D02*
X14230442Y-17726255D01*
X14230442Y-17726255D02*
X14039966Y-17726255D01*
X14039966Y-17726255D02*
X13963776Y-17688160D01*
X13963776Y-17688160D02*
X13925680Y-17650064D01*
X14878062Y-16926255D02*
X14954252Y-16926255D01*
X14954252Y-16926255D02*
X15030443Y-16964350D01*
X15030443Y-16964350D02*
X15068538Y-17002445D01*
X15068538Y-17002445D02*
X15106633Y-17078636D01*
X15106633Y-17078636D02*
X15144728Y-17231017D01*
X15144728Y-17231017D02*
X15144728Y-17421493D01*
X15144728Y-17421493D02*
X15106633Y-17573874D01*
X15106633Y-17573874D02*
X15068538Y-17650064D01*
X15068538Y-17650064D02*
X15030443Y-17688160D01*
X15030443Y-17688160D02*
X14954252Y-17726255D01*
X14954252Y-17726255D02*
X14878062Y-17726255D01*
X14878062Y-17726255D02*
X14801871Y-17688160D01*
X14801871Y-17688160D02*
X14763776Y-17650064D01*
X14763776Y-17650064D02*
X14725681Y-17573874D01*
X14725681Y-17573874D02*
X14687585Y-17421493D01*
X14687585Y-17421493D02*
X14687585Y-17231017D01*
X14687585Y-17231017D02*
X14725681Y-17078636D01*
X14725681Y-17078636D02*
X14763776Y-17002445D01*
X14763776Y-17002445D02*
X14801871Y-16964350D01*
X14801871Y-16964350D02*
X14878062Y-16926255D01*
X15639967Y-16926255D02*
X15716157Y-16926255D01*
X15716157Y-16926255D02*
X15792348Y-16964350D01*
X15792348Y-16964350D02*
X15830443Y-17002445D01*
X15830443Y-17002445D02*
X15868538Y-17078636D01*
X15868538Y-17078636D02*
X15906633Y-17231017D01*
X15906633Y-17231017D02*
X15906633Y-17421493D01*
X15906633Y-17421493D02*
X15868538Y-17573874D01*
X15868538Y-17573874D02*
X15830443Y-17650064D01*
X15830443Y-17650064D02*
X15792348Y-17688160D01*
X15792348Y-17688160D02*
X15716157Y-17726255D01*
X15716157Y-17726255D02*
X15639967Y-17726255D01*
X15639967Y-17726255D02*
X15563776Y-17688160D01*
X15563776Y-17688160D02*
X15525681Y-17650064D01*
X15525681Y-17650064D02*
X15487586Y-17573874D01*
X15487586Y-17573874D02*
X15449490Y-17421493D01*
X15449490Y-17421493D02*
X15449490Y-17231017D01*
X15449490Y-17231017D02*
X15487586Y-17078636D01*
X15487586Y-17078636D02*
X15525681Y-17002445D01*
X15525681Y-17002445D02*
X15563776Y-16964350D01*
X15563776Y-16964350D02*
X15639967Y-16926255D01*
X16211395Y-17726255D02*
X16401872Y-17726255D01*
X16401872Y-17726255D02*
X16401872Y-17573874D01*
X16401872Y-17573874D02*
X16325681Y-17535779D01*
X16325681Y-17535779D02*
X16249491Y-17459588D01*
X16249491Y-17459588D02*
X16211395Y-17345302D01*
X16211395Y-17345302D02*
X16211395Y-17154826D01*
X16211395Y-17154826D02*
X16249491Y-17040540D01*
X16249491Y-17040540D02*
X16325681Y-16964350D01*
X16325681Y-16964350D02*
X16439967Y-16926255D01*
X16439967Y-16926255D02*
X16592348Y-16926255D01*
X16592348Y-16926255D02*
X16706634Y-16964350D01*
X16706634Y-16964350D02*
X16782824Y-17040540D01*
X16782824Y-17040540D02*
X16820919Y-17154826D01*
X16820919Y-17154826D02*
X16820919Y-17345302D01*
X16820919Y-17345302D02*
X16782824Y-17459588D01*
X16782824Y-17459588D02*
X16706634Y-17535779D01*
X16706634Y-17535779D02*
X16630443Y-17573874D01*
X16630443Y-17573874D02*
X16630443Y-17726255D01*
X16630443Y-17726255D02*
X16820919Y-17726255D01*
X14859014Y-14866255D02*
X14592347Y-14485302D01*
X14401871Y-14866255D02*
X14401871Y-14066255D01*
X14401871Y-14066255D02*
X14706633Y-14066255D01*
X14706633Y-14066255D02*
X14782823Y-14104350D01*
X14782823Y-14104350D02*
X14820918Y-14142445D01*
X14820918Y-14142445D02*
X14859014Y-14218636D01*
X14859014Y-14218636D02*
X14859014Y-14332921D01*
X14859014Y-14332921D02*
X14820918Y-14409112D01*
X14820918Y-14409112D02*
X14782823Y-14447207D01*
X14782823Y-14447207D02*
X14706633Y-14485302D01*
X14706633Y-14485302D02*
X14401871Y-14485302D01*
X15620918Y-14866255D02*
X15163775Y-14866255D01*
X15392347Y-14866255D02*
X15392347Y-14066255D01*
X15392347Y-14066255D02*
X15316156Y-14180540D01*
X15316156Y-14180540D02*
X15239966Y-14256731D01*
X15239966Y-14256731D02*
X15163775Y-14294826D01*
X16116157Y-14066255D02*
X16192347Y-14066255D01*
X16192347Y-14066255D02*
X16268538Y-14104350D01*
X16268538Y-14104350D02*
X16306633Y-14142445D01*
X16306633Y-14142445D02*
X16344728Y-14218636D01*
X16344728Y-14218636D02*
X16382823Y-14371017D01*
X16382823Y-14371017D02*
X16382823Y-14561493D01*
X16382823Y-14561493D02*
X16344728Y-14713874D01*
X16344728Y-14713874D02*
X16306633Y-14790064D01*
X16306633Y-14790064D02*
X16268538Y-14828160D01*
X16268538Y-14828160D02*
X16192347Y-14866255D01*
X16192347Y-14866255D02*
X16116157Y-14866255D01*
X16116157Y-14866255D02*
X16039966Y-14828160D01*
X16039966Y-14828160D02*
X16001871Y-14790064D01*
X16001871Y-14790064D02*
X15963776Y-14713874D01*
X15963776Y-14713874D02*
X15925680Y-14561493D01*
X15925680Y-14561493D02*
X15925680Y-14371017D01*
X15925680Y-14371017D02*
X15963776Y-14218636D01*
X15963776Y-14218636D02*
X16001871Y-14142445D01*
X16001871Y-14142445D02*
X16039966Y-14104350D01*
X16039966Y-14104350D02*
X16116157Y-14066255D01*
D15*
%TO.C,*%
X33789500Y-20109199D02*
X33789500Y-20390399D01*
X32769500Y-20109201D02*
X32769500Y-20390401D01*
X43541400Y-20109199D02*
X43541400Y-20390399D01*
X42521400Y-20109201D02*
X42521400Y-20390401D01*
X49856801Y-20508002D02*
X49856799Y-20033402D01*
X50901801Y-20507998D02*
X50901799Y-20033398D01*
X51297452Y-3395259D02*
X51534751Y-2984243D01*
X52202449Y-3917757D02*
X52439748Y-3506741D01*
D16*
X37164800Y-20166000D02*
X37664800Y-20166000D01*
X37164800Y-20566000D02*
X36564800Y-20166000D01*
X37164800Y-19766000D02*
X37164800Y-20566000D01*
X36564800Y-20166000D02*
X37164800Y-19766000D01*
X36564800Y-20166000D02*
X36564800Y-20716000D01*
X36564800Y-20166000D02*
X36564800Y-19616000D01*
X36164800Y-20166000D02*
X36564800Y-20166000D01*
X35514800Y-21066000D02*
X35514800Y-19266000D01*
X38314800Y-21066000D02*
X35514800Y-21066000D01*
X38314800Y-19266000D02*
X38314800Y-21066000D01*
X35514800Y-19266000D02*
X38314800Y-19266000D01*
D15*
X34664800Y-19166000D02*
X34664800Y-21166000D01*
D17*
X34564800Y-19016000D02*
X39264800Y-19016000D01*
X39264800Y-19016000D02*
X39264800Y-21316000D01*
X39264800Y-21316000D02*
X34564800Y-21316000D01*
X34564800Y-19016000D02*
X34564800Y-21316000D01*
D15*
X34664800Y-21166000D02*
X38564800Y-21166000D01*
X34664800Y-19166000D02*
X38564800Y-19166000D01*
X42689403Y-17239197D02*
X42689397Y-15568797D01*
X40869403Y-17239203D02*
X40869397Y-15568803D01*
D16*
X56216673Y-14130817D02*
X56096673Y-14338664D01*
X56662006Y-14399476D02*
X56542007Y-14607323D01*
X55865502Y-15279068D02*
X55875858Y-15287014D01*
X55875858Y-15287014D02*
X55883804Y-15297369D01*
X55883804Y-15297369D02*
X55888799Y-15309428D01*
X55888799Y-15309428D02*
X55890502Y-15322369D01*
X55890502Y-15322369D02*
X55888799Y-15335310D01*
X55888799Y-15335310D02*
X55883804Y-15347369D01*
X55883804Y-15347369D02*
X55875858Y-15357724D01*
X55875858Y-15357724D02*
X55865502Y-15365670D01*
X55865502Y-15365670D02*
X55853443Y-15370665D01*
X55853443Y-15370665D02*
X55840502Y-15372369D01*
X55840502Y-15372369D02*
X55827561Y-15370665D01*
X55827561Y-15370665D02*
X55815502Y-15365670D01*
X55815502Y-15365670D02*
X55805147Y-15357724D01*
X55805147Y-15357724D02*
X55797201Y-15347369D01*
X55797201Y-15347369D02*
X55792206Y-15335310D01*
X55792206Y-15335310D02*
X55790502Y-15322369D01*
X55790502Y-15322369D02*
X55792206Y-15309428D01*
X55792206Y-15309428D02*
X55797201Y-15297369D01*
X55797201Y-15297369D02*
X55805147Y-15287014D01*
X55805147Y-15287014D02*
X55815502Y-15279068D01*
X55815502Y-15279068D02*
X55827561Y-15274073D01*
X55827561Y-15274073D02*
X55840502Y-15272369D01*
X55840502Y-15272369D02*
X55853443Y-15274073D01*
X55853443Y-15274073D02*
X55865502Y-15279068D01*
D15*
X47102101Y-20361302D02*
X47102099Y-20080102D01*
X48122101Y-20361298D02*
X48122099Y-20080098D01*
D16*
X55287773Y-15736417D02*
X55167773Y-15944264D01*
X55733106Y-16005076D02*
X55613107Y-16212923D01*
X54936602Y-16884668D02*
X54946958Y-16892614D01*
X54946958Y-16892614D02*
X54954904Y-16902969D01*
X54954904Y-16902969D02*
X54959899Y-16915028D01*
X54959899Y-16915028D02*
X54961602Y-16927969D01*
X54961602Y-16927969D02*
X54959899Y-16940910D01*
X54959899Y-16940910D02*
X54954904Y-16952969D01*
X54954904Y-16952969D02*
X54946958Y-16963324D01*
X54946958Y-16963324D02*
X54936602Y-16971270D01*
X54936602Y-16971270D02*
X54924543Y-16976265D01*
X54924543Y-16976265D02*
X54911602Y-16977969D01*
X54911602Y-16977969D02*
X54898661Y-16976265D01*
X54898661Y-16976265D02*
X54886602Y-16971270D01*
X54886602Y-16971270D02*
X54876247Y-16963324D01*
X54876247Y-16963324D02*
X54868301Y-16952969D01*
X54868301Y-16952969D02*
X54863306Y-16940910D01*
X54863306Y-16940910D02*
X54861602Y-16927969D01*
X54861602Y-16927969D02*
X54863306Y-16915028D01*
X54863306Y-16915028D02*
X54868301Y-16902969D01*
X54868301Y-16902969D02*
X54876247Y-16892614D01*
X54876247Y-16892614D02*
X54886602Y-16884668D01*
X54886602Y-16884668D02*
X54898661Y-16879673D01*
X54898661Y-16879673D02*
X54911602Y-16877969D01*
X54911602Y-16877969D02*
X54924543Y-16879673D01*
X54924543Y-16879673D02*
X54936602Y-16884668D01*
D15*
X52157304Y-16912674D02*
X52603281Y-16750349D01*
X52514719Y-17894651D02*
X52960696Y-17732326D01*
X32239500Y-20109199D02*
X32239500Y-20390399D01*
X31219500Y-20109201D02*
X31219500Y-20390401D01*
X53254704Y-15320574D02*
X53700681Y-15158249D01*
X53612119Y-16302551D02*
X54058096Y-16140226D01*
D16*
X45305197Y-17412601D02*
X45805199Y-16912603D01*
X45805203Y-15412603D02*
X45805199Y-16912603D01*
X43805203Y-15412597D02*
X45805203Y-15412603D01*
X43805197Y-17412597D02*
X43805203Y-15412597D01*
X45305197Y-17412601D02*
X43805197Y-17412597D01*
D17*
X46405197Y-17662604D02*
X46405203Y-15162604D01*
X43205197Y-17662596D02*
X43205203Y-15162596D01*
X46405197Y-17662604D02*
X43205197Y-17662596D01*
X46405203Y-15162604D02*
X43205203Y-15162596D01*
D15*
X44305203Y-15292599D02*
X45305203Y-15292601D01*
X46305197Y-17532604D02*
X44305197Y-17532599D01*
X54320604Y-13695674D02*
X54766581Y-13533349D01*
X54678019Y-14677651D02*
X55123996Y-14515326D01*
D18*
X51110437Y-7063701D02*
X51131147Y-7079593D01*
X51131147Y-7079593D02*
X51147039Y-7100304D01*
X51147039Y-7100304D02*
X51157029Y-7124422D01*
X51157029Y-7124422D02*
X51160437Y-7150304D01*
X51160437Y-7150304D02*
X51157029Y-7176186D01*
X51157029Y-7176186D02*
X51147039Y-7200304D01*
X51147039Y-7200304D02*
X51131148Y-7221015D01*
X51131148Y-7221015D02*
X51110437Y-7236907D01*
X51110437Y-7236907D02*
X51086319Y-7246897D01*
X51086319Y-7246897D02*
X51060437Y-7250304D01*
X51060437Y-7250304D02*
X51034555Y-7246897D01*
X51034555Y-7246897D02*
X51010437Y-7236907D01*
X51010437Y-7236907D02*
X50989726Y-7221015D01*
X50989726Y-7221015D02*
X50973834Y-7200304D01*
X50973834Y-7200304D02*
X50963844Y-7176186D01*
X50963844Y-7176186D02*
X50960437Y-7150304D01*
X50960437Y-7150304D02*
X50963844Y-7124422D01*
X50963844Y-7124422D02*
X50973834Y-7100304D01*
X50973834Y-7100304D02*
X50989726Y-7079594D01*
X50989726Y-7079594D02*
X51010437Y-7063702D01*
X51010437Y-7063702D02*
X51034555Y-7053712D01*
X51034555Y-7053712D02*
X51060437Y-7050304D01*
X51060437Y-7050304D02*
X51086318Y-7053711D01*
X51086318Y-7053711D02*
X51110437Y-7063701D01*
D19*
X56467665Y-1184671D02*
X51997684Y-8926949D01*
X58319679Y-12576934D02*
X62789660Y-4834655D01*
D18*
X51110437Y-7063701D02*
X51131147Y-7079593D01*
X51131147Y-7079593D02*
X51147039Y-7100304D01*
X51147039Y-7100304D02*
X51157029Y-7124422D01*
X51157029Y-7124422D02*
X51160437Y-7150304D01*
X51160437Y-7150304D02*
X51157029Y-7176186D01*
X51157029Y-7176186D02*
X51147039Y-7200304D01*
X51147039Y-7200304D02*
X51131148Y-7221015D01*
X51131148Y-7221015D02*
X51110437Y-7236907D01*
X51110437Y-7236907D02*
X51086319Y-7246897D01*
X51086319Y-7246897D02*
X51060437Y-7250304D01*
X51060437Y-7250304D02*
X51034555Y-7246897D01*
X51034555Y-7246897D02*
X51010437Y-7236907D01*
X51010437Y-7236907D02*
X50989726Y-7221015D01*
X50989726Y-7221015D02*
X50973834Y-7200304D01*
X50973834Y-7200304D02*
X50963844Y-7176186D01*
X50963844Y-7176186D02*
X50960437Y-7150304D01*
X50960437Y-7150304D02*
X50963844Y-7124422D01*
X50963844Y-7124422D02*
X50973834Y-7100304D01*
X50973834Y-7100304D02*
X50989726Y-7079594D01*
X50989726Y-7079594D02*
X51010437Y-7063702D01*
X51010437Y-7063702D02*
X51034555Y-7053712D01*
X51034555Y-7053712D02*
X51060437Y-7050304D01*
X51060437Y-7050304D02*
X51086318Y-7053711D01*
X51086318Y-7053711D02*
X51110437Y-7063701D01*
D19*
X58319679Y-12576934D02*
X57254466Y-11961936D01*
X62789660Y-4834655D02*
X58319679Y-12576934D01*
X61724447Y-4219658D02*
X62789660Y-4834655D01*
X58104456Y-2129667D02*
X59351534Y-2849664D01*
X53634475Y-9871945D02*
X54881553Y-10591942D01*
D15*
X65558273Y7456855D02*
X65454350Y7516855D01*
X67420231Y6381860D02*
X66432960Y6951857D01*
X68398841Y5816862D02*
X68294917Y5876862D01*
X66198850Y2006345D02*
X68398841Y5816862D01*
X66094927Y2066345D02*
X66198850Y2006345D01*
X64232969Y3141340D02*
X65220240Y2571343D01*
X63254359Y3706338D02*
X63358283Y3646338D01*
X65454350Y7516855D02*
X63254359Y3706338D01*
X49863901Y-20537102D02*
X49863899Y-20062502D01*
X50908901Y-20537098D02*
X50908899Y-20062498D01*
X62569773Y2262755D02*
X62465850Y2322755D01*
X64431731Y1187760D02*
X63444460Y1757757D01*
X65410341Y622762D02*
X65306417Y682762D01*
X63210350Y-3187755D02*
X65410341Y622762D01*
X63106427Y-3127755D02*
X63210350Y-3187755D01*
X61244469Y-2052760D02*
X62231740Y-2622757D01*
X60265859Y-1487762D02*
X60369783Y-1547762D01*
X62465850Y2322755D02*
X60265859Y-1487762D01*
X45966500Y-20080099D02*
X45966500Y-20361299D01*
X44946500Y-20080101D02*
X44946500Y-20361301D01*
X41043700Y-20080099D02*
X41043700Y-20361299D01*
X40023700Y-20080101D02*
X40023700Y-20361301D01*
D16*
X54310973Y-17341917D02*
X54190973Y-17549764D01*
X54756306Y-17610576D02*
X54636307Y-17818423D01*
X53959802Y-18490168D02*
X53970158Y-18498114D01*
X53970158Y-18498114D02*
X53978104Y-18508469D01*
X53978104Y-18508469D02*
X53983099Y-18520528D01*
X53983099Y-18520528D02*
X53984802Y-18533469D01*
X53984802Y-18533469D02*
X53983099Y-18546410D01*
X53983099Y-18546410D02*
X53978104Y-18558469D01*
X53978104Y-18558469D02*
X53970158Y-18568824D01*
X53970158Y-18568824D02*
X53959802Y-18576770D01*
X53959802Y-18576770D02*
X53947743Y-18581765D01*
X53947743Y-18581765D02*
X53934802Y-18583469D01*
X53934802Y-18583469D02*
X53921861Y-18581765D01*
X53921861Y-18581765D02*
X53909802Y-18576770D01*
X53909802Y-18576770D02*
X53899447Y-18568824D01*
X53899447Y-18568824D02*
X53891501Y-18558469D01*
X53891501Y-18558469D02*
X53886506Y-18546410D01*
X53886506Y-18546410D02*
X53884802Y-18533469D01*
X53884802Y-18533469D02*
X53886506Y-18520528D01*
X53886506Y-18520528D02*
X53891501Y-18508469D01*
X53891501Y-18508469D02*
X53899447Y-18498114D01*
X53899447Y-18498114D02*
X53909802Y-18490168D01*
X53909802Y-18490168D02*
X53921861Y-18485173D01*
X53921861Y-18485173D02*
X53934802Y-18483469D01*
X53934802Y-18483469D02*
X53947743Y-18485173D01*
X53947743Y-18485173D02*
X53959802Y-18490168D01*
D18*
X39191044Y16538680D02*
X39201034Y16514562D01*
X39201034Y16514562D02*
X39204442Y16488680D01*
X39204442Y16488680D02*
X39201034Y16462798D01*
X39201034Y16462798D02*
X39191044Y16438680D01*
X39191044Y16438680D02*
X39175152Y16417969D01*
X39175152Y16417969D02*
X39154442Y16402077D01*
X39154442Y16402077D02*
X39130324Y16392087D01*
X39130324Y16392087D02*
X39104442Y16388680D01*
X39104442Y16388680D02*
X39078560Y16392087D01*
X39078560Y16392087D02*
X39054442Y16402077D01*
X39054442Y16402077D02*
X39033731Y16417969D01*
X39033731Y16417969D02*
X39017839Y16438679D01*
X39017839Y16438679D02*
X39007849Y16462798D01*
X39007849Y16462798D02*
X39004442Y16488679D01*
X39004442Y16488679D02*
X39007849Y16514561D01*
X39007849Y16514561D02*
X39017839Y16538679D01*
X39017839Y16538679D02*
X39033731Y16559390D01*
X39033731Y16559390D02*
X39054441Y16575282D01*
X39054441Y16575282D02*
X39078560Y16585272D01*
X39078560Y16585272D02*
X39104441Y16588680D01*
X39104441Y16588680D02*
X39130323Y16585272D01*
X39130323Y16585272D02*
X39154441Y16575282D01*
X39154441Y16575282D02*
X39175152Y16559390D01*
X39175152Y16559390D02*
X39191044Y16538680D01*
D19*
X39398670Y18379058D02*
X54987116Y27379077D01*
X39398670Y18379058D02*
X36398663Y23575207D01*
X49148690Y1491574D02*
X39398670Y18379058D01*
X64737137Y10491593D02*
X49148690Y1491574D01*
X54987116Y27379077D02*
X64737137Y10491593D01*
X51987110Y32575226D02*
X54987116Y27379077D01*
X36398663Y23575207D02*
X51987110Y32575226D01*
D18*
X39191044Y16538680D02*
X39201034Y16514562D01*
X39201034Y16514562D02*
X39204442Y16488680D01*
X39204442Y16488680D02*
X39201034Y16462798D01*
X39201034Y16462798D02*
X39191044Y16438680D01*
X39191044Y16438680D02*
X39175152Y16417969D01*
X39175152Y16417969D02*
X39154442Y16402077D01*
X39154442Y16402077D02*
X39130324Y16392087D01*
X39130324Y16392087D02*
X39104442Y16388680D01*
X39104442Y16388680D02*
X39078560Y16392087D01*
X39078560Y16392087D02*
X39054442Y16402077D01*
X39054442Y16402077D02*
X39033731Y16417969D01*
X39033731Y16417969D02*
X39017839Y16438679D01*
X39017839Y16438679D02*
X39007849Y16462798D01*
X39007849Y16462798D02*
X39004442Y16488679D01*
X39004442Y16488679D02*
X39007849Y16514561D01*
X39007849Y16514561D02*
X39017839Y16538679D01*
X39017839Y16538679D02*
X39033731Y16559390D01*
X39033731Y16559390D02*
X39054441Y16575282D01*
X39054441Y16575282D02*
X39078560Y16585272D01*
X39078560Y16585272D02*
X39104441Y16588680D01*
X39104441Y16588680D02*
X39130323Y16585272D01*
X39130323Y16585272D02*
X39154441Y16575282D01*
X39154441Y16575282D02*
X39175152Y16559390D01*
X39175152Y16559390D02*
X39191044Y16538680D01*
D19*
X64737137Y10491593D02*
X63658936Y9869092D01*
X64372136Y11123792D02*
X64737137Y10491593D01*
X49148690Y1491574D02*
X50226891Y2114076D01*
X48783690Y2123772D02*
X49148690Y1491574D01*
X39758670Y17755520D02*
X36398663Y23575207D01*
X51987110Y32575226D02*
X55347117Y26755539D01*
X36398663Y23575207D02*
X51987110Y32575226D01*
D17*
X48874173Y467055D02*
X65761656Y10217076D01*
X52511628Y33166733D02*
X65761656Y10217076D01*
X35624144Y23416712D02*
X52511628Y33166733D01*
X48874173Y467055D02*
X35624144Y23416712D01*
X20005100Y-864600D02*
X27455100Y-864600D01*
X27455100Y-864600D02*
X27455100Y-6464600D01*
X27455100Y-6464600D02*
X20005100Y-6464600D01*
X20005100Y-6464600D02*
X20005100Y-864600D01*
D18*
X20255100Y-1059600D02*
X21780100Y-1059600D01*
D15*
X12990400Y-7001400D02*
X13465000Y-7001400D01*
X12990400Y-8046400D02*
X13465000Y-8046400D01*
D16*
X6549700Y-6064800D02*
X6549700Y-7664800D01*
X6549700Y-7664800D02*
X9549700Y-7664800D01*
X9549700Y-7664800D02*
X9549700Y-6064800D01*
X9549700Y-6064800D02*
X6549700Y-6064800D01*
D15*
X7420700Y-5944800D02*
X8678700Y-5944800D01*
X7420700Y-7784800D02*
X8678700Y-7784800D01*
D17*
X5749700Y-5814800D02*
X5749700Y-7914800D01*
X5749700Y-7914800D02*
X10349700Y-7914800D01*
X10349700Y-7914800D02*
X10349700Y-5814800D01*
X10349700Y-5814800D02*
X5749700Y-5814800D01*
D15*
X35852500Y3806600D02*
X36327100Y3806600D01*
X35852500Y2761600D02*
X36327100Y2761600D01*
D16*
X28373000Y7282800D02*
X28133000Y7282800D01*
X28363000Y6762800D02*
X28123000Y6762800D01*
X27203000Y7012800D02*
X27201296Y6999859D01*
X27201296Y6999859D02*
X27196301Y6987800D01*
X27196301Y6987800D02*
X27188355Y6977445D01*
X27188355Y6977445D02*
X27178000Y6969499D01*
X27178000Y6969499D02*
X27165941Y6964504D01*
X27165941Y6964504D02*
X27153000Y6962800D01*
X27153000Y6962800D02*
X27140059Y6964504D01*
X27140059Y6964504D02*
X27128000Y6969499D01*
X27128000Y6969499D02*
X27117645Y6977445D01*
X27117645Y6977445D02*
X27109699Y6987800D01*
X27109699Y6987800D02*
X27104704Y6999859D01*
X27104704Y6999859D02*
X27103000Y7012800D01*
X27103000Y7012800D02*
X27104704Y7025741D01*
X27104704Y7025741D02*
X27109699Y7037800D01*
X27109699Y7037800D02*
X27117645Y7048155D01*
X27117645Y7048155D02*
X27128000Y7056101D01*
X27128000Y7056101D02*
X27140059Y7061096D01*
X27140059Y7061096D02*
X27153000Y7062800D01*
X27153000Y7062800D02*
X27165941Y7061096D01*
X27165941Y7061096D02*
X27178000Y7056101D01*
X27178000Y7056101D02*
X27188355Y7048155D01*
X27188355Y7048155D02*
X27196301Y7037800D01*
X27196301Y7037800D02*
X27201296Y7025741D01*
X27201296Y7025741D02*
X27203000Y7012800D01*
X27554300Y5733100D02*
X27314300Y5733100D01*
X27544300Y5213100D02*
X27304300Y5213100D01*
X26384300Y5463100D02*
X26382596Y5450159D01*
X26382596Y5450159D02*
X26377601Y5438100D01*
X26377601Y5438100D02*
X26369655Y5427745D01*
X26369655Y5427745D02*
X26359300Y5419799D01*
X26359300Y5419799D02*
X26347241Y5414804D01*
X26347241Y5414804D02*
X26334300Y5413100D01*
X26334300Y5413100D02*
X26321359Y5414804D01*
X26321359Y5414804D02*
X26309300Y5419799D01*
X26309300Y5419799D02*
X26298945Y5427745D01*
X26298945Y5427745D02*
X26290999Y5438100D01*
X26290999Y5438100D02*
X26286004Y5450159D01*
X26286004Y5450159D02*
X26284300Y5463100D01*
X26284300Y5463100D02*
X26286004Y5476041D01*
X26286004Y5476041D02*
X26290999Y5488100D01*
X26290999Y5488100D02*
X26298945Y5498455D01*
X26298945Y5498455D02*
X26309300Y5506401D01*
X26309300Y5506401D02*
X26321359Y5511396D01*
X26321359Y5511396D02*
X26334300Y5513100D01*
X26334300Y5513100D02*
X26347241Y5511396D01*
X26347241Y5511396D02*
X26359300Y5506401D01*
X26359300Y5506401D02*
X26369655Y5498455D01*
X26369655Y5498455D02*
X26377601Y5488100D01*
X26377601Y5488100D02*
X26382596Y5476041D01*
X26382596Y5476041D02*
X26384300Y5463100D01*
D15*
X26790200Y4242800D02*
X27264800Y4242800D01*
X26790200Y3197800D02*
X27264800Y3197800D01*
X15136000Y-15408600D02*
X15610600Y-15408600D01*
X15136000Y-16453600D02*
X15610600Y-16453600D01*
%TD*%
M02*
