%TF.GenerationSoftware,Flux,Pcbnew,7.0.11-7.0.11~ubuntu20.04.1*%
%TF.CreationDate,2024-08-16T09:23:18+00:00*%
%TF.ProjectId,input,696e7075-742e-46b6-9963-61645f706362,rev?*%
%TF.SameCoordinates,Original*%
%TF.FileFunction,Copper,L1,Top*%
%TF.FilePolarity,Positive*%
%FSLAX46Y46*%
G04 Gerber Fmt 4.6, Leading zero omitted, Abs format (unit mm)*
G04 Filename: betterflipperzero*
G04 Build it with Flux! Visit our site at: https://www.flux.ai (PCBNEW 7.0.11-7.0.11~ubuntu20.04.1) date 2024-08-16 09:23:18*
%MOMM*%
%LPD*%
G01*
G04 APERTURE LIST*
G04 Aperture macros list*
%AMHorizOval*
0 Thick line with rounded ends*
0 $1 width*
0 $2 $3 position (X,Y) of the first rounded end (center of the circle)*
0 $4 $5 position (X,Y) of the second rounded end (center of the circle)*
0 Add line between two ends*
20,1,$1,$2,$3,$4,$5,0*
0 Add two circle primitives to create the rounded ends*
1,1,$1,$2,$3*
1,1,$1,$4,$5*%
%AMFreePoly0*
4,1,101,0.383457,0.474848,0.388093,0.474391,0.392690,0.473632,0.397228,0.472574,0.401686,0.471221,0.406047,0.469580,0.410291,0.467657,0.414400,0.465461,0.418357,0.463001,0.422144,0.460287,0.425745,0.457331,0.429146,0.454146,0.432331,0.450745,0.435287,0.447144,0.438001,0.443357,0.440461,0.439400,0.442657,0.435291,0.444580,0.431047,0.446221,0.426686,0.447574,0.422228,
0.448632,0.417690,0.449391,0.413093,0.449848,0.408457,0.450000,0.403800,0.450000,-0.403800,0.449848,-0.408457,0.449391,-0.413093,0.448632,-0.417690,0.447574,-0.422228,0.446221,-0.426686,0.444580,-0.431047,0.442657,-0.435291,0.440461,-0.439400,0.438001,-0.443357,0.435287,-0.447144,0.432331,-0.450745,0.429146,-0.454146,0.425745,-0.457331,0.422144,-0.460287,0.418357,-0.463001,
0.414400,-0.465461,0.410291,-0.467657,0.406047,-0.469580,0.401686,-0.471221,0.397228,-0.472574,0.392690,-0.473632,0.388093,-0.474391,0.383457,-0.474848,0.378800,-0.475000,-0.378800,-0.475000,-0.383457,-0.474848,-0.388093,-0.474391,-0.392690,-0.473632,-0.397228,-0.472574,-0.401686,-0.471221,-0.406047,-0.469580,-0.410291,-0.467657,-0.414400,-0.465461,-0.418357,-0.463001,-0.422144,-0.460287,
-0.425745,-0.457331,-0.429146,-0.454146,-0.432331,-0.450745,-0.435287,-0.447144,-0.438001,-0.443357,-0.440461,-0.439400,-0.442657,-0.435291,-0.444580,-0.431047,-0.446221,-0.426686,-0.447574,-0.422228,-0.448632,-0.417690,-0.449391,-0.413093,-0.449848,-0.408457,-0.450000,-0.403800,-0.450000,0.403800,-0.449848,0.408457,-0.449391,0.413093,-0.448632,0.417690,-0.447574,0.422228,-0.446221,0.426686,
-0.444580,0.431047,-0.442657,0.435291,-0.440461,0.439400,-0.438001,0.443357,-0.435287,0.447144,-0.432331,0.450745,-0.429146,0.454146,-0.425745,0.457331,-0.422144,0.460287,-0.418357,0.463001,-0.414400,0.465461,-0.410291,0.467657,-0.406047,0.469580,-0.401686,0.471221,-0.397228,0.472574,-0.392690,0.473632,-0.388093,0.474391,-0.383457,0.474848,-0.378800,0.475000,0.378800,0.475000,
0.383457,0.474848,0.383457,0.474848,$1*%
%AMFreePoly1*
4,1,101,0.333457,0.474848,0.338093,0.474391,0.342690,0.473632,0.347228,0.472574,0.351686,0.471221,0.356047,0.469580,0.360291,0.467657,0.364400,0.465461,0.368357,0.463001,0.372144,0.460287,0.375745,0.457331,0.379146,0.454146,0.382331,0.450745,0.385287,0.447144,0.388001,0.443357,0.390461,0.439400,0.392657,0.435291,0.394580,0.431047,0.396221,0.426686,0.397574,0.422228,
0.398632,0.417690,0.399391,0.413093,0.399848,0.408457,0.400000,0.403800,0.400000,-0.403800,0.399848,-0.408457,0.399391,-0.413093,0.398632,-0.417690,0.397574,-0.422228,0.396221,-0.426686,0.394580,-0.431047,0.392657,-0.435291,0.390461,-0.439400,0.388001,-0.443357,0.385287,-0.447144,0.382331,-0.450745,0.379146,-0.454146,0.375745,-0.457331,0.372144,-0.460287,0.368357,-0.463001,
0.364400,-0.465461,0.360291,-0.467657,0.356047,-0.469580,0.351686,-0.471221,0.347228,-0.472574,0.342690,-0.473632,0.338093,-0.474391,0.333457,-0.474848,0.328800,-0.475000,-0.328800,-0.475000,-0.333457,-0.474848,-0.338093,-0.474391,-0.342690,-0.473632,-0.347228,-0.472574,-0.351686,-0.471221,-0.356047,-0.469580,-0.360291,-0.467657,-0.364400,-0.465461,-0.368357,-0.463001,-0.372144,-0.460287,
-0.375745,-0.457331,-0.379146,-0.454146,-0.382331,-0.450745,-0.385287,-0.447144,-0.388001,-0.443357,-0.390461,-0.439400,-0.392657,-0.435291,-0.394580,-0.431047,-0.396221,-0.426686,-0.397574,-0.422228,-0.398632,-0.417690,-0.399391,-0.413093,-0.399848,-0.408457,-0.400000,-0.403800,-0.400000,0.403800,-0.399848,0.408457,-0.399391,0.413093,-0.398632,0.417690,-0.397574,0.422228,-0.396221,0.426686,
-0.394580,0.431047,-0.392657,0.435291,-0.390461,0.439400,-0.388001,0.443357,-0.385287,0.447144,-0.382331,0.450745,-0.379146,0.454146,-0.375745,0.457331,-0.372144,0.460287,-0.368357,0.463001,-0.364400,0.465461,-0.360291,0.467657,-0.356047,0.469580,-0.351686,0.471221,-0.347228,0.472574,-0.342690,0.473632,-0.338093,0.474391,-0.333457,0.474848,-0.328800,0.475000,0.328800,0.475000,
0.333457,0.474848,0.333457,0.474848,$1*%
%AMFreePoly2*
4,1,5,0.450000,-0.600000,-0.450000,-0.600000,-0.450000,0.600000,0.450000,0.600000,0.450000,-0.600000,0.450000,-0.600000,$1*%
%AMFreePoly3*
4,1,101,0.391820,0.949695,0.401100,0.948781,0.410300,0.947262,0.419382,0.945144,0.428305,0.942438,0.437032,0.939153,0.445526,0.935304,0.453750,0.930909,0.461669,0.925984,0.469249,0.920553,0.476457,0.914637,0.483263,0.908263,0.489637,0.901457,0.495553,0.894249,0.500984,0.886669,0.505909,0.878750,0.510304,0.870526,0.514153,0.862032,0.517438,0.853305,0.520144,0.844382,
0.522262,0.835300,0.523781,0.826100,0.524695,0.816820,0.525000,0.807500,0.525000,-0.807500,0.524695,-0.816820,0.523781,-0.826100,0.522262,-0.835300,0.520144,-0.844382,0.517438,-0.853305,0.514153,-0.862032,0.510304,-0.870526,0.505909,-0.878750,0.500984,-0.886669,0.495553,-0.894249,0.489637,-0.901457,0.483263,-0.908263,0.476457,-0.914637,0.469249,-0.920553,0.461669,-0.925984,
0.453750,-0.930909,0.445526,-0.935304,0.437032,-0.939153,0.428305,-0.942438,0.419382,-0.945144,0.410300,-0.947262,0.401100,-0.948781,0.391820,-0.949695,0.382500,-0.950000,-0.382500,-0.950000,-0.391820,-0.949695,-0.401100,-0.948781,-0.410300,-0.947262,-0.419382,-0.945144,-0.428305,-0.942438,-0.437032,-0.939153,-0.445526,-0.935304,-0.453750,-0.930909,-0.461669,-0.925984,-0.469249,-0.920553,
-0.476457,-0.914637,-0.483263,-0.908263,-0.489637,-0.901457,-0.495553,-0.894249,-0.500984,-0.886669,-0.505909,-0.878750,-0.510304,-0.870526,-0.514153,-0.862032,-0.517438,-0.853305,-0.520144,-0.844382,-0.522262,-0.835300,-0.523781,-0.826100,-0.524695,-0.816820,-0.525000,-0.807500,-0.525000,0.807500,-0.524695,0.816820,-0.523781,0.826100,-0.522262,0.835300,-0.520144,0.844382,-0.517438,0.853305,
-0.514153,0.862032,-0.510304,0.870526,-0.505909,0.878750,-0.500984,0.886669,-0.495553,0.894249,-0.489637,0.901457,-0.483263,0.908263,-0.476457,0.914637,-0.469249,0.920553,-0.461669,0.925984,-0.453750,0.930909,-0.445526,0.935304,-0.437032,0.939153,-0.428305,0.942438,-0.419382,0.945144,-0.410300,0.947262,-0.401100,0.948781,-0.391820,0.949695,-0.382500,0.950000,0.382500,0.950000,
0.391820,0.949695,0.391820,0.949695,$1*%
%AMFreePoly4*
4,1,69,0.253264,0.319589,0.256364,0.319078,0.262429,0.317453,0.268230,0.315050,0.271000,0.313569,0.276221,0.310081,0.278649,0.308088,0.280941,0.305941,0.283088,0.303649,0.285081,0.301221,0.288569,0.296000,0.290050,0.293230,0.292453,0.287429,0.294078,0.281364,0.294589,0.278265,0.295000,0.272000,0.295000,-0.272000,0.294589,-0.278265,0.294078,-0.281364,0.292453,-0.287429,
0.290050,-0.293230,0.288569,-0.296000,0.285081,-0.301221,0.283088,-0.303649,0.280941,-0.305941,0.278649,-0.308088,0.276221,-0.310081,0.271000,-0.313569,0.268230,-0.315050,0.262429,-0.317453,0.256364,-0.319078,0.253265,-0.319589,0.247000,-0.320000,-0.247000,-0.320000,-0.253264,-0.319589,-0.256364,-0.319078,-0.262429,-0.317453,-0.268230,-0.315050,-0.271000,-0.313569,-0.276221,-0.310081,
-0.278649,-0.308088,-0.280941,-0.305941,-0.283088,-0.303649,-0.285081,-0.301221,-0.288569,-0.296000,-0.290050,-0.293230,-0.292453,-0.287429,-0.294078,-0.281364,-0.294589,-0.278265,-0.295000,-0.272000,-0.295000,0.272000,-0.294589,0.278265,-0.294078,0.281364,-0.292453,0.287429,-0.290050,0.293230,-0.288569,0.296000,-0.285081,0.301221,-0.283088,0.303649,-0.280941,0.305941,-0.278649,0.308088,
-0.276221,0.310081,-0.271000,0.313569,-0.268230,0.315050,-0.262429,0.317453,-0.256364,0.319078,-0.253265,0.319589,-0.247000,0.320000,0.247000,0.320000,0.253264,0.319589,0.253264,0.319589,$1*%
%AMFreePoly5*
4,1,5,0.250000,-0.125000,-0.250000,-0.125000,-0.250000,0.125000,0.250000,0.125000,0.250000,-0.125000,0.250000,-0.125000,$1*%
%AMFreePoly6*
4,1,5,0.450000,-0.800000,-0.450000,-0.800000,-0.450000,0.800000,0.450000,0.800000,0.450000,-0.800000,0.450000,-0.800000,$1*%
%AMFreePoly7*
4,1,5,0.375000,-0.325000,-0.375000,-0.325000,-0.375000,0.325000,0.375000,0.325000,0.375000,-0.325000,0.375000,-0.325000,$1*%
%AMFreePoly8*
4,1,5,0.300000,-0.724999,-0.300001,-0.725000,-0.300000,0.724999,0.300001,0.725000,0.300000,-0.724999,0.300000,-0.724999,$1*%
%AMFreePoly9*
4,1,5,0.150000,-0.725000,-0.150000,-0.725000,-0.150000,0.725000,0.150000,0.725000,0.150000,-0.725000,0.150000,-0.725000,$1*%
%AMFreePoly10*
4,1,5,0.500000,-0.350000,-0.500000,-0.350000,-0.500000,0.350000,0.500000,0.350000,0.500000,-0.350000,0.500000,-0.350000,$1*%
%AMFreePoly11*
4,1,5,0.750000,-0.450000,-0.750000,-0.450000,-0.750000,0.450000,0.750000,0.450000,0.750000,-0.450000,0.750000,-0.450000,$1*%
%AMFreePoly12*
4,1,5,0.450000,-0.449999,-0.449999,-0.450000,-0.450000,0.449999,0.449999,0.450000,0.450000,-0.449999,0.450000,-0.449999,$1*%
%AMFreePoly13*
4,1,5,0.450000,-0.750000,-0.450000,-0.750000,-0.450000,0.750000,0.450000,0.750000,0.450000,-0.750000,0.450000,-0.750000,$1*%
%AMFreePoly14*
4,1,5,1.256500,-1.701000,-1.256500,-1.701000,-1.256500,1.701000,1.256500,1.701000,1.256500,-1.701000,1.256500,-1.701000,$1*%
%AMFreePoly15*
4,1,5,0.350000,-0.762500,-0.350000,-0.762500,-0.350000,0.762500,0.350000,0.762500,0.350000,-0.762500,0.350000,-0.762500,$1*%
%AMFreePoly16*
4,1,129,0.022069,0.299187,0.036723,0.297744,0.051289,0.295583,0.065730,0.292711,0.080014,0.289133,0.094105,0.284858,0.107969,0.279898,0.121572,0.274263,0.134883,0.267967,0.147869,0.261026,0.160499,0.253456,0.172742,0.245275,0.184569,0.236504,0.195952,0.227163,0.206862,0.217274,0.217274,0.206862,0.227163,0.195952,0.236504,0.184569,0.245275,0.172742,0.253456,0.160499,
0.261026,0.147869,0.267967,0.134883,0.274263,0.121572,0.279898,0.107969,0.284858,0.094105,0.289133,0.080014,0.292711,0.065730,0.295583,0.051289,0.297744,0.036723,0.299187,0.022069,0.299910,0.007362,0.299910,-0.007362,0.299187,-0.022069,0.297744,-0.036723,0.295583,-0.051289,0.292711,-0.065730,0.289133,-0.080014,0.284858,-0.094105,0.279898,-0.107969,0.274263,-0.121572,
0.267967,-0.134883,0.261026,-0.147869,0.253456,-0.160499,0.245275,-0.172742,0.236504,-0.184569,0.227163,-0.195952,0.217274,-0.206862,0.206862,-0.217274,0.195952,-0.227163,0.184569,-0.236504,0.172742,-0.245275,0.160499,-0.253456,0.147869,-0.261026,0.134883,-0.267967,0.121572,-0.274263,0.107969,-0.279898,0.094105,-0.284858,0.080014,-0.289133,0.065730,-0.292711,0.051289,-0.295583,
0.036723,-0.297744,0.022069,-0.299187,0.007362,-0.299910,-0.007362,-0.299910,-0.022069,-0.299187,-0.036723,-0.297744,-0.051289,-0.295583,-0.065730,-0.292711,-0.080014,-0.289133,-0.094105,-0.284858,-0.107969,-0.279898,-0.121572,-0.274263,-0.134883,-0.267967,-0.147869,-0.261026,-0.160499,-0.253456,-0.172742,-0.245275,-0.184569,-0.236504,-0.195952,-0.227163,-0.206862,-0.217274,-0.217274,-0.206862,
-0.227163,-0.195952,-0.236504,-0.184569,-0.245275,-0.172742,-0.253456,-0.160499,-0.261026,-0.147869,-0.267967,-0.134883,-0.274263,-0.121572,-0.279898,-0.107969,-0.284858,-0.094105,-0.289133,-0.080014,-0.292711,-0.065730,-0.295583,-0.051289,-0.297744,-0.036723,-0.299187,-0.022069,-0.299910,-0.007362,-0.299910,0.007362,-0.299187,0.022069,-0.297744,0.036723,-0.295583,0.051289,-0.292711,0.065730,
-0.289133,0.080014,-0.284858,0.094105,-0.279898,0.107969,-0.274263,0.121572,-0.267967,0.134883,-0.261026,0.147869,-0.253456,0.160499,-0.245275,0.172742,-0.236504,0.184569,-0.227163,0.195952,-0.217274,0.206862,-0.206862,0.217274,-0.195952,0.227163,-0.184569,0.236504,-0.172742,0.245275,-0.160499,0.253456,-0.147869,0.261026,-0.134883,0.267967,-0.121572,0.274263,-0.107969,0.279898,
-0.094105,0.284858,-0.080014,0.289133,-0.065730,0.292711,-0.051289,0.295583,-0.036723,0.297744,-0.022069,0.299187,-0.007362,0.299910,0.007362,0.299910,0.022069,0.299187,0.022069,0.299187,$1*%
G04 Aperture macros list end*
%TA.AperFunction,SMDPad,CuDef*%
%ADD10FreePoly0,270.000000*%
%TD*%
%TA.AperFunction,SMDPad,CuDef*%
%ADD11FreePoly1,90.000000*%
%TD*%
%TA.AperFunction,SMDPad,CuDef*%
%ADD12FreePoly1,60.000000*%
%TD*%
%TA.AperFunction,SMDPad,CuDef*%
%ADD13FreePoly2,0.000000*%
%TD*%
%TA.AperFunction,SMDPad,CuDef*%
%ADD14FreePoly3,90.000000*%
%TD*%
%TA.AperFunction,SMDPad,CuDef*%
%ADD15FreePoly4,60.000000*%
%TD*%
%TA.AperFunction,SMDPad,CuDef*%
%ADD16FreePoly0,90.000000*%
%TD*%
%TA.AperFunction,SMDPad,CuDef*%
%ADD17FreePoly1,20.000000*%
%TD*%
%TA.AperFunction,SMDPad,CuDef*%
%ADD18FreePoly5,180.000000*%
%TD*%
%TA.AperFunction,SMDPad,CuDef*%
%ADD19FreePoly6,180.000000*%
%TD*%
%TA.AperFunction,SMDPad,CuDef*%
%ADD20FreePoly7,180.000000*%
%TD*%
%TA.AperFunction,SMDPad,CuDef*%
%ADD21FreePoly8,60.000000*%
%TD*%
%TA.AperFunction,ComponentPad*%
%ADD22HorizOval,1.050000X-0.454663X0.262500X0.454663X-0.262500X0*%
%TD*%
%TA.AperFunction,SMDPad,CuDef*%
%ADD23FreePoly9,60.000000*%
%TD*%
%TA.AperFunction,SMDPad,CuDef*%
%ADD24FreePoly10,60.000000*%
%TD*%
%TA.AperFunction,SMDPad,CuDef*%
%ADD25FreePoly11,30.000000*%
%TD*%
%TA.AperFunction,SMDPad,CuDef*%
%ADD26FreePoly12,30.000000*%
%TD*%
%TA.AperFunction,SMDPad,CuDef*%
%ADD27FreePoly13,30.000000*%
%TD*%
%TA.AperFunction,ComponentPad*%
%ADD28C,0.400000*%
%TD*%
%TA.AperFunction,SMDPad,CuDef*%
%ADD29FreePoly14,0.000000*%
%TD*%
%TA.AperFunction,SMDPad,CuDef*%
%ADD30FreePoly15,90.000000*%
%TD*%
%TA.AperFunction,SMDPad,CuDef*%
%ADD31FreePoly1,0.000000*%
%TD*%
%TA.AperFunction,ComponentPad*%
%ADD32C,1.600000*%
%TD*%
%TA.AperFunction,SMDPad,CuDef*%
%ADD33FreePoly4,0.000000*%
%TD*%
%TA.AperFunction,ComponentPad*%
%ADD34FreePoly16,0.000000*%
%TD*%
%TA.AperFunction,Conductor*%
%ADD35C,0.254000*%
%TD*%
%TA.AperFunction,Conductor*%
%ADD36C,0.300000*%
%TD*%
G04 APERTURE END LIST*
D10*
%TO.P,,0010a281-9625-4b87-8630-e849da612791__a8b75a33-3cb2-8e5c-90f2-4f5d5d478f01*%
%TO.N,N/C*%
X33279499Y-19474800D03*
%TO.P,,0010a281-9625-4b87-8630-e849da612791__e7d28857-a36c-3a38-170d-dea6c395fcdc*%
X33279501Y-21024800D03*
%TO.P,,1949ffa0-f59a-4643-aa07-ddacf28a1cf7__a8b75a33-3cb2-8e5c-90f2-4f5d5d478f01*%
X43031399Y-19474800D03*
%TO.P,,1949ffa0-f59a-4643-aa07-ddacf28a1cf7__e7d28857-a36c-3a38-170d-dea6c395fcdc*%
X43031401Y-21024800D03*
D11*
%TO.P,,1bd70ada-1483-4ad4-8d92-41e7eff8a534__01f9f934-68ec-8f74-1ae3-e10fbfbab168*%
X50379297Y-19445700D03*
%TO.P,,1bd70ada-1483-4ad4-8d92-41e7eff8a534__c0b736e9-ddb9-3e06-7eaa-230be2d07706*%
X50379303Y-21095700D03*
D12*
%TO.P,,1e943c50-a112-4075-9a26-621878ace220__01f9f934-68ec-8f74-1ae3-e10fbfbab168*%
X52281098Y-2736528D03*
%TO.P,,1e943c50-a112-4075-9a26-621878ace220__c0b736e9-ddb9-3e06-7eaa-230be2d07706*%
X51456102Y-4165472D03*
D13*
%TO.P,,394ee993-ba30-4a24-9c16-73cffc8d4028__1577f1d3-71c4-2623-0279-565a1ea081c1*%
X38564800Y-20166000D03*
%TO.P,,394ee993-ba30-4a24-9c16-73cffc8d4028__42b66c87-8084-4a5a-c8ea-cb38d5e185a6*%
X35264800Y-20166000D03*
D14*
%TO.P,,4b1d030c-23c6-4428-8a25-76829b4191b8__31c6f0d0-50f6-960d-170d-c511f55a9b68*%
X41779394Y-14829000D03*
%TO.P,,4b1d030c-23c6-4428-8a25-76829b4191b8__b768ec21-c56b-dbb5-cb30-f29d59675d9b*%
X41779406Y-17979000D03*
D15*
%TO.P,,60c54a7c-a239-48df-9b37-4b6b48bed50f__19df6ce8-a846-e1b2-05db-22f2506d0f7c*%
X56143001Y-14798423D03*
%TO.P,,60c54a7c-a239-48df-9b37-4b6b48bed50f__8f080fcc-9862-851f-ac94-a53a2efce9df*%
X56627999Y-13958377D03*
D16*
%TO.P,,6289d063-6756-4d27-9632-03e967e45b4d__a8b75a33-3cb2-8e5c-90f2-4f5d5d478f01*%
X47612103Y-20995700D03*
%TO.P,,6289d063-6756-4d27-9632-03e967e45b4d__e7d28857-a36c-3a38-170d-dea6c395fcdc*%
X47612097Y-19445700D03*
D15*
%TO.P,,79e52730-bbdb-45ff-a905-f7419e8e4af1__19df6ce8-a846-e1b2-05db-22f2506d0f7c*%
X55214101Y-16404023D03*
%TO.P,,79e52730-bbdb-45ff-a905-f7419e8e4af1__8f080fcc-9862-851f-ac94-a53a2efce9df*%
X55699099Y-15563977D03*
D17*
%TO.P,,82ab0584-48ad-443a-8024-c45fe0ee61a0__01f9f934-68ec-8f74-1ae3-e10fbfbab168*%
X53334245Y-17040330D03*
%TO.P,,82ab0584-48ad-443a-8024-c45fe0ee61a0__c0b736e9-ddb9-3e06-7eaa-230be2d07706*%
X51783755Y-17604670D03*
D10*
%TO.P,,871c6f84-682a-46a7-a560-0fa3dfc1a650__a8b75a33-3cb2-8e5c-90f2-4f5d5d478f01*%
X31729499Y-19474800D03*
%TO.P,,871c6f84-682a-46a7-a560-0fa3dfc1a650__e7d28857-a36c-3a38-170d-dea6c395fcdc*%
X31729501Y-21024800D03*
D17*
%TO.P,,896224c3-dbc8-4abe-a833-265c910b5a2a__01f9f934-68ec-8f74-1ae3-e10fbfbab168*%
X54431645Y-15448230D03*
%TO.P,,896224c3-dbc8-4abe-a833-265c910b5a2a__c0b736e9-ddb9-3e06-7eaa-230be2d07706*%
X52881155Y-16012570D03*
D18*
%TO.P,,8b302e13-f71c-4062-9d82-053c33ca9656__32eff046-d9e0-18e8-7bbc-7467f7b6efae*%
X45755199Y-16662603D03*
%TO.P,,8b302e13-f71c-4062-9d82-053c33ca9656__4c213a6a-6d76-4ea1-e569-dfe8ede1aeff*%
X43855199Y-16662597D03*
D19*
%TO.P,,8b302e13-f71c-4062-9d82-053c33ca9656__69e66901-bfb2-e6b7-f15b-32909172146e*%
X44805200Y-16412600D03*
D18*
%TO.P,,8b302e13-f71c-4062-9d82-053c33ca9656__a886149e-ff37-585f-1ff1-36d4df050416*%
X45755201Y-16162603D03*
%TO.P,,8b302e13-f71c-4062-9d82-053c33ca9656__aa58d5cb-5cae-cdad-245c-c7e601ff32ea*%
X43855201Y-16162597D03*
%TO.P,,8b302e13-f71c-4062-9d82-053c33ca9656__ca5d6d7a-1c82-9d96-dcd4-41909f451f0a*%
X45755202Y-15662603D03*
%TO.P,,8b302e13-f71c-4062-9d82-053c33ca9656__cb277430-fdd2-c0fd-4091-3a6047ac1bec*%
X43855198Y-17162597D03*
%TO.P,,8b302e13-f71c-4062-9d82-053c33ca9656__d9555ea3-ca23-f7f3-158e-aec4ec02ca40*%
X43855202Y-15662597D03*
%TO.P,,8b302e13-f71c-4062-9d82-053c33ca9656__f6cf87ef-0249-316e-da5e-b7fa8c96fd14*%
X45755198Y-17162603D03*
D20*
%TO.P,,8b302e13-f71c-4062-9d82-053c33ca9656__cb9ba39c-6136-d20f-f990-b02bfb239a92.mounts.b9644a1eb790e3d14f1f83a627598a43*%
X44805199Y-16812600D03*
%TO.P,,8b302e13-f71c-4062-9d82-053c33ca9656__cb9ba39c-6136-d20f-f990-b02bfb239a92.mounts.4aebec6aa118fb00a21a48258067d5bb*%
X44805201Y-16012600D03*
D17*
%TO.P,,8c56276d-aee2-4a74-a2d1-ddd118787a7b__01f9f934-68ec-8f74-1ae3-e10fbfbab168*%
X55497545Y-13823330D03*
%TO.P,,8c56276d-aee2-4a74-a2d1-ddd118787a7b__c0b736e9-ddb9-3e06-7eaa-230be2d07706*%
X53947055Y-14387670D03*
D21*
%TO.P,,a9728bda-38a0-4284-839c-b054ecb6658e__07915a39-5feb-4ac4-e795-568eaf4cd385*%
X52665600Y-6980076D03*
D22*
%TO.P,,a9728bda-38a0-4284-839c-b054ecb6658e__2326611f-98f6-a130-ac94-da96fde3ec8f*%
X56843000Y-1574574D03*
D23*
%TO.P,,a9728bda-38a0-4284-839c-b054ecb6658e__36b8249d-a17e-0989-17f5-82d3877f634c*%
X54765591Y-3342764D03*
D21*
%TO.P,,a9728bda-38a0-4284-839c-b054ecb6658e__370894d7-d23e-ca6e-68ad-8632a7172eab*%
X55115589Y-2736546D03*
D22*
%TO.P,,a9728bda-38a0-4284-839c-b054ecb6658e__9415c64b-4f59-a6d9-e7ea-dc5b1de656fb*%
X52523018Y-9057044D03*
D23*
%TO.P,,a9728bda-38a0-4284-839c-b054ecb6658e__96fd4a3b-ac99-3b40-4ff6-c74af54212cc*%
X54515592Y-3775778D03*
D22*
%TO.P,,a9728bda-38a0-4284-839c-b054ecb6658e__9b3c6dc7-8e8d-43a0-5d61-3a6777006a6c*%
X56143009Y-11147035D03*
D23*
%TO.P,,a9728bda-38a0-4284-839c-b054ecb6658e__9cd5cde1-77b8-118b-6a91-0dff09215c23*%
X54015594Y-4641804D03*
%TO.P,,a9728bda-38a0-4284-839c-b054ecb6658e__a7782b22-e299-6787-b0ca-26a30c5a4303*%
X53015598Y-6373857D03*
D21*
%TO.P,,a9728bda-38a0-4284-839c-b054ecb6658e__a9a68cea-4a28-f2fa-8aa7-78e6b8eb6585*%
X52265601Y-7672897D03*
D23*
%TO.P,,a9728bda-38a0-4284-839c-b054ecb6658e__b1068b8a-d3b5-1454-5967-5a549d66355d*%
X54265593Y-4208791D03*
D21*
%TO.P,,a9728bda-38a0-4284-839c-b054ecb6658e__bd66447d-b9b3-7436-e489-a537e4a6ebe4*%
X55515587Y-2043724D03*
D23*
%TO.P,,a9728bda-38a0-4284-839c-b054ecb6658e__c5aa6eb3-34a2-e8d5-7968-db391b649adf*%
X53515596Y-5507831D03*
%TO.P,,a9728bda-38a0-4284-839c-b054ecb6658e__de99be4b-df9a-8e96-edba-33e0613485da*%
X53765595Y-5074817D03*
%TO.P,,a9728bda-38a0-4284-839c-b054ecb6658e__e0306a75-b2bb-f35b-e69a-992792120783*%
X53265597Y-5940844D03*
D22*
%TO.P,,a9728bda-38a0-4284-839c-b054ecb6658e__e8284091-fcc7-bc14-948c-a2f31e589c00*%
X60462991Y-3664565D03*
D24*
%TO.P,,aab681b7-051f-4eef-ada8-0e5650fae2fc__0085da58-ba94-9f96-ec85-8d16384fa131*%
X66020617Y7247658D03*
%TO.P,,aab681b7-051f-4eef-ada8-0e5650fae2fc__419bc6d8-5c3d-f146-f7d0-edc2a4cc07ef*%
X65632583Y2275542D03*
%TO.P,,aab681b7-051f-4eef-ada8-0e5650fae2fc__86340d85-e791-fb4e-c3c5-eb12b899817a*%
X63770626Y3350538D03*
%TO.P,,aab681b7-051f-4eef-ada8-0e5650fae2fc__af593a51-bd6b-32bd-d4f9-077db4f49b2d*%
X67882574Y6172662D03*
D11*
%TO.P,,b8a3615e-2d61-426d-9832-fa2255f5e593__01f9f934-68ec-8f74-1ae3-e10fbfbab168*%
X50386397Y-19474800D03*
%TO.P,,b8a3615e-2d61-426d-9832-fa2255f5e593__c0b736e9-ddb9-3e06-7eaa-230be2d07706*%
X50386403Y-21124800D03*
D24*
%TO.P,,d6d96221-c3f9-4294-8086-9e709b607623__0085da58-ba94-9f96-ec85-8d16384fa131*%
X63032117Y2053558D03*
%TO.P,,d6d96221-c3f9-4294-8086-9e709b607623__419bc6d8-5c3d-f146-f7d0-edc2a4cc07ef*%
X62644083Y-2918558D03*
%TO.P,,d6d96221-c3f9-4294-8086-9e709b607623__86340d85-e791-fb4e-c3c5-eb12b899817a*%
X60782126Y-1843562D03*
%TO.P,,d6d96221-c3f9-4294-8086-9e709b607623__af593a51-bd6b-32bd-d4f9-077db4f49b2d*%
X64894074Y978562D03*
D10*
%TO.P,,daa54b81-b566-4e88-a8c5-510f42c550a1__a8b75a33-3cb2-8e5c-90f2-4f5d5d478f01*%
X45456499Y-19445700D03*
%TO.P,,daa54b81-b566-4e88-a8c5-510f42c550a1__e7d28857-a36c-3a38-170d-dea6c395fcdc*%
X45456501Y-20995700D03*
%TO.P,,e74d2e39-30af-4c37-8b68-42bc77afd08f__a8b75a33-3cb2-8e5c-90f2-4f5d5d478f01*%
X40533699Y-19445700D03*
%TO.P,,e74d2e39-30af-4c37-8b68-42bc77afd08f__e7d28857-a36c-3a38-170d-dea6c395fcdc*%
X40533701Y-20995700D03*
D15*
%TO.P,,eafcf384-d761-4edd-89af-8fcae178e2d5__19df6ce8-a846-e1b2-05db-22f2506d0f7c*%
X54237301Y-18009523D03*
%TO.P,,eafcf384-d761-4edd-89af-8fcae178e2d5__8f080fcc-9862-851f-ac94-a53a2efce9df*%
X54722299Y-17169477D03*
D25*
%TO.P,,ff6aa628-a694-44a5-a8a3-0151430d2fb0__038cb78d-7f13-44e4-8e9a-53693437642d*%
X56150613Y24863848D03*
%TO.P,,ff6aa628-a694-44a5-a8a3-0151430d2fb0__074883e9-8a1b-44e0-b46a-ca9c67916540*%
X58055617Y21564294D03*
D26*
%TO.P,,ff6aa628-a694-44a5-a8a3-0151430d2fb0__0a1d94a2-9a47-41fa-913a-718297cb936f*%
X51011299Y16065414D03*
%TO.P,,ff6aa628-a694-44a5-a8a3-0151430d2fb0__0eb7175f-22de-45c6-bfae-ba31aa1429b7*%
X52411302Y13640544D03*
D27*
%TO.P,,ff6aa628-a694-44a5-a8a3-0151430d2fb0__149b1002-9ffa-4318-9ba7-5207bbca47d8*%
X54068285Y4620587D03*
D25*
%TO.P,,ff6aa628-a694-44a5-a8a3-0151430d2fb0__15feaab6-c953-4c18-8f18-0eeba2babf8d*%
X56785614Y23763997D03*
%TO.P,,ff6aa628-a694-44a5-a8a3-0151430d2fb0__19b3b8ac-30e6-4f2c-b3e4-cec8665f28e7*%
X58690618Y20464442D03*
%TO.P,,ff6aa628-a694-44a5-a8a3-0151430d2fb0__1a1dc7dd-29d8-42d6-bf00-5b4859417f33*%
X62500626Y13865333D03*
D27*
%TO.P,,ff6aa628-a694-44a5-a8a3-0151430d2fb0__28c3e18f-85a8-4a4e-811e-de92b424a83b*%
X56267988Y5890589D03*
D26*
%TO.P,,ff6aa628-a694-44a5-a8a3-0151430d2fb0__2e2b374c-2dcd-4d96-bdc8-4a44c8bff2cb*%
X49986432Y12240541D03*
D25*
%TO.P,,ff6aa628-a694-44a5-a8a3-0151430d2fb0__364f9212-23cf-4965-adf2-c0874852d737*%
X44170186Y10614572D03*
D27*
%TO.P,,ff6aa628-a694-44a5-a8a3-0151430d2fb0__372b3587-4c65-4638-b6bd-0d615aaa9bcf*%
X52968433Y3985585D03*
D25*
%TO.P,,ff6aa628-a694-44a5-a8a3-0151430d2fb0__378f37c9-9415-404b-9497-740ee99041f1*%
X47980194Y4015463D03*
%TO.P,,ff6aa628-a694-44a5-a8a3-0151430d2fb0__389e2361-d216-424a-ad14-878b2c16ddf4*%
X63135628Y12765482D03*
%TO.P,,ff6aa628-a694-44a5-a8a3-0151430d2fb0__467385d9-c49a-4b0c-9521-ff0dd23c2353*%
X61865625Y14965185D03*
%TO.P,,ff6aa628-a694-44a5-a8a3-0151430d2fb0__48c404ab-321c-4d57-808f-5b71ff3facaa*%
X40995179Y16113830D03*
%TO.P,,ff6aa628-a694-44a5-a8a3-0151430d2fb0__4b351687-6185-426a-ae30-48d9cbd76add*%
X59960621Y18264739D03*
D27*
%TO.P,,ff6aa628-a694-44a5-a8a3-0151430d2fb0__4d4f93f3-8acb-4554-ac43-cd747cba396f*%
X61767245Y9065596D03*
D25*
%TO.P,,ff6aa628-a694-44a5-a8a3-0151430d2fb0__4e079aee-7172-4049-b943-7630e2bcc7bb*%
X57420615Y22664145D03*
%TO.P,,ff6aa628-a694-44a5-a8a3-0151430d2fb0__54bf5518-18c6-4e11-8164-12302f1229fc*%
X46075190Y7315018D03*
%TO.P,,ff6aa628-a694-44a5-a8a3-0151430d2fb0__57377a0b-5d9b-4471-ad37-440a84dc5c1c*%
X63770629Y11665630D03*
%TO.P,,ff6aa628-a694-44a5-a8a3-0151430d2fb0__598dd6e4-bd38-4f37-a754-6b03fa56aff0*%
X48615195Y2915612D03*
D27*
%TO.P,,ff6aa628-a694-44a5-a8a3-0151430d2fb0__5b5fe32f-7fbe-4265-8d60-dc4b99d1a4c5*%
X51868582Y3350584D03*
%TO.P,,ff6aa628-a694-44a5-a8a3-0151430d2fb0__5e286a02-b1c0-4b2e-894b-9e9484d7c671*%
X60667393Y8430595D03*
D26*
%TO.P,,ff6aa628-a694-44a5-a8a3-0151430d2fb0__867a37e5-175c-4e72-b1bc-70e2c8b4a089*%
X49286431Y13452976D03*
D25*
%TO.P,,ff6aa628-a694-44a5-a8a3-0151430d2fb0__8d1d5373-94ab-4aec-a6e3-7ae1b222c6b0*%
X42265182Y13914127D03*
D27*
%TO.P,,ff6aa628-a694-44a5-a8a3-0151430d2fb0__9483d5e5-e44a-49e7-a9f2-cfc808672c84*%
X55168136Y5255588D03*
D25*
%TO.P,,ff6aa628-a694-44a5-a8a3-0151430d2fb0__95038b53-efb1-401a-b7b0-5a15d90bdd5a*%
X41630180Y15013978D03*
D27*
%TO.P,,ff6aa628-a694-44a5-a8a3-0151430d2fb0__9808895e-53c5-4bb1-89b5-2f682c8c59c8*%
X62867096Y9700598D03*
D25*
%TO.P,,ff6aa628-a694-44a5-a8a3-0151430d2fb0__9dbd24d4-d20d-45c3-a21d-a6a6f23e3004*%
X44805187Y9514721D03*
%TO.P,,ff6aa628-a694-44a5-a8a3-0151430d2fb0__a5461eb3-ba20-4ff8-986f-77093064c7fd*%
X45440188Y8414869D03*
%TO.P,,ff6aa628-a694-44a5-a8a3-0151430d2fb0__b328097a-6308-4fb0-8865-8b354d07d1e1*%
X59325619Y19364591D03*
D26*
%TO.P,,ff6aa628-a694-44a5-a8a3-0151430d2fb0__b3d47a51-17b0-40f1-94d7-91665f8a5b74*%
X51711300Y14852979D03*
D25*
%TO.P,,ff6aa628-a694-44a5-a8a3-0151430d2fb0__bfd8b816-9a44-4830-ba7a-92ffaa0cd6c4*%
X46710191Y6215166D03*
%TO.P,,ff6aa628-a694-44a5-a8a3-0151430d2fb0__c0aeacaa-8ce1-4b42-866c-b142a90d5e1b*%
X60595622Y17164888D03*
%TO.P,,ff6aa628-a694-44a5-a8a3-0151430d2fb0__c2966f8a-bd4c-4e9e-9bd3-e290757d07ca*%
X47345192Y5115315D03*
%TO.P,,ff6aa628-a694-44a5-a8a3-0151430d2fb0__c3afd9a5-1ab7-4def-a4ee-3e28405bceff*%
X43535184Y11714424D03*
D27*
%TO.P,,ff6aa628-a694-44a5-a8a3-0151430d2fb0__c62376b8-e5dc-4ab0-8908-f15f3f11b117*%
X57367839Y6525591D03*
D26*
%TO.P,,ff6aa628-a694-44a5-a8a3-0151430d2fb0__cfdba786-50db-4356-96cf-ac6ee75314e0*%
X51198867Y12940543D03*
D25*
%TO.P,,ff6aa628-a694-44a5-a8a3-0151430d2fb0__ee163daa-5110-4e00-ad80-3db228fbfcac*%
X55515611Y25963700D03*
D26*
%TO.P,,ff6aa628-a694-44a5-a8a3-0151430d2fb0__ee302306-e8f5-4173-904b-e082f63f0331*%
X50498865Y14152977D03*
D27*
%TO.P,,ff6aa628-a694-44a5-a8a3-0151430d2fb0__f2452f17-455e-40a4-8de7-c5d61dafdc3f*%
X58467690Y7160592D03*
D25*
%TO.P,,ff6aa628-a694-44a5-a8a3-0151430d2fb0__f338ba31-623d-455e-8973-1e6afaa89b04*%
X42900183Y12814275D03*
%TO.P,,ff6aa628-a694-44a5-a8a3-0151430d2fb0__f4caacbd-9c2b-4dae-912c-0c8f53f0194d*%
X40360177Y17213681D03*
D27*
%TO.P,,ff6aa628-a694-44a5-a8a3-0151430d2fb0__f4e0e1de-4650-498a-92e2-2bd6617ff5d9*%
X59567542Y7795593D03*
D26*
%TO.P,,ff6aa628-a694-44a5-a8a3-0151430d2fb0__fad17131-84aa-453f-ae74-725cc6191e8b*%
X49798864Y15365412D03*
D27*
%TO.P,,ff6aa628-a694-44a5-a8a3-0151430d2fb0__fae28ec3-3b8c-4290-866b-75b4c93d0946*%
X50768730Y2715583D03*
D26*
%TO.P,,ff6aa628-a694-44a5-a8a3-0151430d2fb0__fb3ef5ee-6d96-40cb-bf5b-23e493685d10*%
X48586429Y14665411D03*
D25*
%TO.P,,ff6aa628-a694-44a5-a8a3-0151430d2fb0__fe26ffc2-a141-46a4-b02c-250e6d92bf8c*%
X61230623Y16065036D03*
D28*
%TO.P,,ff6aa628-a694-44a5-a8a3-0151430d2fb0__ee3a696f-ef70-402c-ab0c-7137ed4eee28.defaultFootprint.mounts.183bc2e5b0fd3164e75ded3f1243107f*%
X51805084Y13290543D03*
%TO.P,,ff6aa628-a694-44a5-a8a3-0151430d2fb0__ee3a696f-ef70-402c-ab0c-7137ed4eee28.defaultFootprint.mounts.9dc978c55082aad2fafacdbd9f5f57bc*%
X50592650Y12590542D03*
%TO.P,,ff6aa628-a694-44a5-a8a3-0151430d2fb0__ee3a696f-ef70-402c-ab0c-7137ed4eee28.defaultFootprint.mounts.a0d68b55a491274f814daab068f0c950*%
X51105083Y14502978D03*
%TO.P,,ff6aa628-a694-44a5-a8a3-0151430d2fb0__ee3a696f-ef70-402c-ab0c-7137ed4eee28.defaultFootprint.mounts.afcd757d940930679b843bc1e4386240*%
X49892648Y13802977D03*
%TO.P,,ff6aa628-a694-44a5-a8a3-0151430d2fb0__ee3a696f-ef70-402c-ab0c-7137ed4eee28.defaultFootprint.mounts.4504ff15bdcf4818a54146cc7a8e9a0d*%
X50405081Y15715413D03*
%TO.P,,ff6aa628-a694-44a5-a8a3-0151430d2fb0__ee3a696f-ef70-402c-ab0c-7137ed4eee28.defaultFootprint.mounts.19f3852e009ba6bfae8a2fce513ef1dd*%
X49192647Y15015411D03*
%TO.P,,ff6aa628-a694-44a5-a8a3-0151430d2fb0__ee3a696f-ef70-402c-ab0c-7137ed4eee28.defaultFootprint.mounts.6d4d26d8edc27532900a7c937b5e863d*%
X52061301Y14246762D03*
%TO.P,,ff6aa628-a694-44a5-a8a3-0151430d2fb0__ee3a696f-ef70-402c-ab0c-7137ed4eee28.defaultFootprint.mounts.f2ecf32f083cf9b5783a264d7a48b752*%
X50848866Y13546760D03*
%TO.P,,ff6aa628-a694-44a5-a8a3-0151430d2fb0__ee3a696f-ef70-402c-ab0c-7137ed4eee28.defaultFootprint.mounts.cf10f8cc0c36fe03b55323802961a88d*%
X49636431Y12846759D03*
%TO.P,,ff6aa628-a694-44a5-a8a3-0151430d2fb0__ee3a696f-ef70-402c-ab0c-7137ed4eee28.defaultFootprint.mounts.52e844226e796b1c42a9f7f1323ab2f7*%
X51361299Y15459196D03*
%TO.P,,ff6aa628-a694-44a5-a8a3-0151430d2fb0__ee3a696f-ef70-402c-ab0c-7137ed4eee28.defaultFootprint.mounts.a17b4eabb5e4ad17dbcba1ef557d9230*%
X48936430Y14059193D03*
%TO.P,,ff6aa628-a694-44a5-a8a3-0151430d2fb0__ee3a696f-ef70-402c-ab0c-7137ed4eee28.defaultFootprint.mounts.fab9ee6953aa1da2d8a8f965443f1f1b*%
X50148865Y14759195D03*
D29*
%TO.P,,d2b4218e-b8f7-43d3-96c4-e8e9110546de__fda16eca-e3f1-40aa-bca4-10e84b023ed6*%
X23730100Y-3664600D03*
D30*
%TO.P,,d2b4218e-b8f7-43d3-96c4-e8e9110546de__fa147687-f6ec-41d5-a36c-13290859e504*%
X21018100Y-3029600D03*
%TO.P,,d2b4218e-b8f7-43d3-96c4-e8e9110546de__eddff88b-9f7f-4945-baba-2d9542f369ff*%
X21018100Y-1759600D03*
%TO.P,,d2b4218e-b8f7-43d3-96c4-e8e9110546de__e39a0824-7798-48cf-a826-c0605dfb66b2*%
X26442100Y-5569600D03*
%TO.P,,d2b4218e-b8f7-43d3-96c4-e8e9110546de__bf7fbd18-ea23-4c07-9431-240f0c5e7e13*%
X21018100Y-5569600D03*
%TO.P,,d2b4218e-b8f7-43d3-96c4-e8e9110546de__bae93405-5c70-4585-a5b0-4593674d3981*%
X26442100Y-1759600D03*
%TO.P,,d2b4218e-b8f7-43d3-96c4-e8e9110546de__78c493d0-80d2-444b-a10a-76d81ff3a9b9*%
X21018100Y-4299600D03*
%TO.P,,d2b4218e-b8f7-43d3-96c4-e8e9110546de__53ff9fc6-a482-48ce-abda-0922c32aace2*%
X26442100Y-3029600D03*
%TO.P,,d2b4218e-b8f7-43d3-96c4-e8e9110546de__46e51790-4e87-4e7a-9cf6-32759bc916ed*%
X26442100Y-4299600D03*
D31*
%TO.P,,18c22cae-14a1-4829-b5fd-bb9c44a5a619__dff57d78-487b-f832-db06-4405c23ce37c*%
X12402700Y-7523900D03*
%TO.P,,18c22cae-14a1-4829-b5fd-bb9c44a5a619__880f28ef-cf41-0acc-4a98-ce0afa37b0c2*%
X14052700Y-7523900D03*
D32*
%TO.P,,52a90573-88b1-424e-9db5-7f00e59fe35d__a62acf30-473f-9fe2-0504-059f88965630*%
X9299700Y-6864800D03*
%TO.P,,52a90573-88b1-424e-9db5-7f00e59fe35d__3d0e5c81-2b94-2588-9270-cc0b63aae38c*%
X6799700Y-6864800D03*
D31*
%TO.P,,c8d57658-18c1-4440-b710-bdc8f4d0a789__dff57d78-487b-f832-db06-4405c23ce37c*%
X35264800Y3284100D03*
%TO.P,,c8d57658-18c1-4440-b710-bdc8f4d0a789__880f28ef-cf41-0acc-4a98-ce0afa37b0c2*%
X36914800Y3284100D03*
D33*
%TO.P,,1533f821-2e16-4cb4-9000-e756edf446be__8f080fcc-9862-851f-ac94-a53a2efce9df*%
X28728000Y7012800D03*
%TO.P,,1533f821-2e16-4cb4-9000-e756edf446be__19df6ce8-a846-e1b2-05db-22f2506d0f7c*%
X27758000Y7012800D03*
%TO.P,,35fffb2f-c24f-44b0-9ce7-a2cb4a14c22a__8f080fcc-9862-851f-ac94-a53a2efce9df*%
X27909300Y5463100D03*
%TO.P,,35fffb2f-c24f-44b0-9ce7-a2cb4a14c22a__19df6ce8-a846-e1b2-05db-22f2506d0f7c*%
X26939300Y5463100D03*
D31*
%TO.P,,842f9449-02a1-4d1a-b26e-c50279cfa113__dff57d78-487b-f832-db06-4405c23ce37c*%
X26202500Y3720300D03*
%TO.P,,842f9449-02a1-4d1a-b26e-c50279cfa113__880f28ef-cf41-0acc-4a98-ce0afa37b0c2*%
X27852500Y3720300D03*
%TO.P,,7c5edf4f-6d2f-4b4e-b04e-aac4f9f5a07c__dff57d78-487b-f832-db06-4405c23ce37c*%
X14548300Y-15931100D03*
%TO.P,,7c5edf4f-6d2f-4b4e-b04e-aac4f9f5a07c__880f28ef-cf41-0acc-4a98-ce0afa37b0c2*%
X16198300Y-15931100D03*
D34*
%TO.P,,6775c09e-24aa-4cb4-96bd-0e9dbbb39c8e*%
%TO.N,GND*%
X65882100Y1306800D03*
%TO.P,,bca37ccc-f576-4123-bd04-3af01d74a4e4*%
X56268000Y-196400D03*
%TO.P,,c2a06121-aa2e-44ef-a1a9-41b443d0512b*%
X51868600Y11714500D03*
%TO.P,,bbfc730c-79c0-46ee-9314-bfb150350888*%
X56267900Y3350600D03*
%TO.P,,bb25d5dc-cc56-4c14-9856-18a8bdec11ac*%
X42575300Y18264700D03*
%TO.P,,6d486441-d8c5-414f-bf81-0cfa98cb07fc.via3.8*%
X42750000Y22650000D03*
%TO.P,,6d486441-d8c5-414f-bf81-0cfa98cb07fc.via3.7*%
X27750000Y22650000D03*
%TO.P,,6d486441-d8c5-414f-bf81-0cfa98cb07fc.via3.6*%
X12750000Y22650000D03*
%TO.P,,6d486441-d8c5-414f-bf81-0cfa98cb07fc.via3.5*%
X-2250000Y22650000D03*
%TO.P,,6d486441-d8c5-414f-bf81-0cfa98cb07fc.via3.4*%
X-17250000Y22650000D03*
%TO.P,,6d486441-d8c5-414f-bf81-0cfa98cb07fc.via3.3*%
X-32250000Y22650000D03*
%TO.P,,6d486441-d8c5-414f-bf81-0cfa98cb07fc.via3.2*%
X-47250000Y22650000D03*
%TO.P,,6d486441-d8c5-414f-bf81-0cfa98cb07fc.via3.1*%
X-62250000Y22650000D03*
%TO.P,,6d486441-d8c5-414f-bf81-0cfa98cb07fc.via2.8*%
X42750000Y7650000D03*
%TO.P,,6d486441-d8c5-414f-bf81-0cfa98cb07fc.via2.6*%
X12750000Y7650000D03*
%TO.P,,6d486441-d8c5-414f-bf81-0cfa98cb07fc.via2.5*%
X-2250000Y7650000D03*
%TO.P,,6d486441-d8c5-414f-bf81-0cfa98cb07fc.via2.4*%
X-17250000Y7650000D03*
%TO.P,,6d486441-d8c5-414f-bf81-0cfa98cb07fc.via2.3*%
X-32250000Y7650000D03*
%TO.P,,6d486441-d8c5-414f-bf81-0cfa98cb07fc.via2.2*%
X-47250000Y7650000D03*
%TO.P,,6d486441-d8c5-414f-bf81-0cfa98cb07fc.via2.1*%
X-62250000Y7650000D03*
%TO.P,,6d486441-d8c5-414f-bf81-0cfa98cb07fc.via1.9*%
X57750000Y-7350000D03*
%TO.P,,6d486441-d8c5-414f-bf81-0cfa98cb07fc.via1.7*%
X27750000Y-7350000D03*
%TO.P,,6d486441-d8c5-414f-bf81-0cfa98cb07fc.via1.5*%
X-2250000Y-7350000D03*
%TO.P,,6d486441-d8c5-414f-bf81-0cfa98cb07fc.via1.4*%
X-17250000Y-7350000D03*
%TO.P,,6d486441-d8c5-414f-bf81-0cfa98cb07fc.via1.3*%
X-32250000Y-7350000D03*
%TO.P,,6d486441-d8c5-414f-bf81-0cfa98cb07fc.via1.2*%
X-47250000Y-7350000D03*
%TO.P,,6d486441-d8c5-414f-bf81-0cfa98cb07fc.via1.1*%
X-62250000Y-7350000D03*
%TO.P,,6d486441-d8c5-414f-bf81-0cfa98cb07fc.via1.8*%
X42750000Y-7350000D03*
%TO.P,,fb6fff71-3ec6-4a7f-8d99-817b3e6bc926*%
%TO.N,Net 3*%
X57367800Y495100D03*
%TO.P,,297875d3-6ab7-425d-822c-8615cb265d7d*%
X39690600Y14059200D03*
%TD*%
D35*
%TO.N,GND*%
X65632600Y3922700D02*
X67882600Y6172700D01*
X65632600Y2275500D02*
X65632600Y3922700D01*
X64894000Y1537000D02*
X65632600Y2275600D01*
X65882100Y2026000D02*
X65632500Y2275600D01*
X65882100Y1306800D02*
X65882100Y2026000D01*
X65882100Y1306800D02*
X65222300Y1306800D01*
X55515600Y-948800D02*
X56268000Y-196400D01*
X65222300Y1306800D02*
X64894100Y978600D01*
X62644100Y-1271400D02*
X64894100Y978600D01*
X64894100Y978600D02*
X64894100Y1537000D01*
X62644100Y-2918600D02*
X62644100Y-1271400D01*
X51868600Y12270800D02*
X51198800Y12940600D01*
X51868600Y11714500D02*
X51868600Y12270900D01*
X55515500Y2598200D02*
X56267900Y3350600D01*
X49986400Y12240500D02*
X50498800Y12240500D01*
X49986400Y12240500D02*
X49986400Y13640500D01*
X50498800Y12240600D02*
X51198800Y12940600D01*
X49286400Y13453000D02*
X49286400Y12940400D01*
X49286400Y13453000D02*
X49286400Y13965400D01*
X49286400Y12940500D02*
X49986400Y12240500D01*
X49286400Y13965400D02*
X48586400Y14665400D01*
X48586400Y14665400D02*
X49098800Y14665400D01*
X48586500Y14665400D02*
X49986500Y14665400D01*
X49986500Y14665400D02*
X50498900Y14153000D01*
X49098900Y14665400D02*
X49798900Y15365400D01*
X49798900Y15365400D02*
X50311300Y15365400D01*
X50311300Y15365400D02*
X51011300Y16065400D01*
X51011300Y16065400D02*
X51011300Y15553000D01*
X51011300Y15553000D02*
X51711300Y14853000D01*
X51711300Y14853000D02*
X51711300Y14340600D01*
X51711300Y14340500D02*
X52411300Y13640500D01*
X52411300Y13640500D02*
X51898700Y13640500D01*
X51898800Y13640600D02*
X51198800Y12940600D01*
X49986400Y13640600D02*
X50498800Y14153000D01*
D36*
X50498900Y14153000D02*
X50498900Y15553000D01*
D35*
X50498800Y14153000D02*
X51898800Y14153000D01*
D36*
X50498900Y15553000D02*
X51011300Y16065400D01*
D35*
X51898900Y14152900D02*
X52411300Y13640500D01*
X41411200Y18264700D02*
X40360200Y17213700D01*
X42575300Y18264700D02*
X41411300Y18264700D01*
X33279500Y-19474800D02*
X33279500Y-15808600D01*
X33279400Y-15808700D02*
X35264800Y-13823300D01*
X35264800Y-13823300D02*
X43799600Y-13823300D01*
X43799600Y-13823400D02*
X44805200Y-14829000D01*
X44805200Y-16412600D02*
X44805400Y-16412400D01*
X44805200Y-14829000D02*
X44805200Y-16412600D01*
X31729500Y-19474800D02*
X31729500Y-16810400D01*
X45755200Y-17162600D02*
X45755400Y-17162400D01*
X47423800Y-17162600D02*
X45755200Y-17162600D01*
X48009400Y-16577000D02*
X47423800Y-17162600D01*
X48009400Y-15546000D02*
X48009400Y-16577000D01*
X45743000Y-13279600D02*
X48009400Y-15546000D01*
X43799600Y-13279600D02*
X45743000Y-13279600D01*
X43792000Y-13287200D02*
X43799600Y-13279600D01*
X35264800Y-13287300D02*
X43792000Y-13287300D01*
X31741600Y-16810400D02*
X35264800Y-13287200D01*
X31729500Y-16810400D02*
X31741700Y-16810400D01*
%TO.N,Net 48*%
X63770600Y4997700D02*
X66020600Y7247700D01*
X63770600Y3350500D02*
X63770600Y4997700D01*
X66020600Y9415600D02*
X63770600Y11665600D01*
X66020600Y7247700D02*
X66020600Y9415700D01*
%TO.N,Net 3*%
X60782100Y-196400D02*
X63032100Y2053600D01*
X60782100Y-1843600D02*
X60782100Y-196400D01*
X59706600Y-1843600D02*
X57367800Y495200D01*
X60782100Y-1843600D02*
X59706500Y-1843600D01*
X40675400Y14059200D02*
X41630200Y15014000D01*
X39690600Y14059200D02*
X40675400Y14059200D01*
%TO.N,Net 39*%
X54722300Y-17169500D02*
X54722300Y-16956300D01*
%TO.N,Net 51*%
X34406000Y-21024800D02*
X35264800Y-20166000D01*
X33279600Y-21024800D02*
X34406000Y-21024800D01*
%TD*%
%TA.AperFunction,Conductor*%
%TO.N,GND*%
G36*
X30755000Y-20584000D02*
G01*
X30755000Y-21469000D01*
X30777000Y-21562000D01*
X30778000Y-21566000D01*
X30778000Y-21568000D01*
X30793000Y-21614000D01*
X30794000Y-21615000D01*
X30795000Y-21618000D01*
X30829000Y-21688000D01*
X30867000Y-21747000D01*
X30916000Y-21805000D01*
X30922000Y-21811000D01*
X31007000Y-21881000D01*
X30935000Y-22079000D01*
X22201000Y-22088000D01*
X12051000Y-22094000D01*
X1901000Y-22099000D01*
X-8249000Y-22100000D01*
X-18399000Y-22099000D01*
X-28549000Y-22094000D01*
X-38699000Y-22088000D01*
X-48849000Y-22078000D01*
X-58999000Y-22065000D01*
X-68912000Y-22050000D01*
X-68990000Y-21993000D01*
X-69588000Y-20219000D01*
X-69987001Y-19035000D01*
X46637000Y-19035000D01*
X46637000Y-19861000D01*
X46643000Y-19910000D01*
X46660000Y-19983000D01*
X46661000Y-19990000D01*
X46676000Y-20035000D01*
X46678000Y-20039000D01*
X46712000Y-20109000D01*
X46750000Y-20168000D01*
X46799000Y-20226000D01*
X46807000Y-20234000D01*
X46866000Y-20284000D01*
X46927000Y-20322000D01*
X46994000Y-20355000D01*
X46995000Y-20356000D01*
X47045000Y-20372000D01*
X47050000Y-20373000D01*
X47123000Y-20390000D01*
X47126000Y-20390000D01*
X47176000Y-20396000D01*
X48048000Y-20396000D01*
X48098000Y-20390000D01*
X48101000Y-20390000D01*
X48174000Y-20373000D01*
X48179000Y-20372000D01*
X48229000Y-20356000D01*
X48230000Y-20355000D01*
X48297000Y-20322000D01*
X48357000Y-20285000D01*
X48359000Y-20283000D01*
X48417000Y-20234000D01*
X48420000Y-20231000D01*
X48463000Y-20180000D01*
X48501000Y-20130000D01*
X48506000Y-20121000D01*
X48548000Y-20038000D01*
X48575000Y-19955000D01*
X48583000Y-19885000D01*
X48583000Y-19884000D01*
X48587000Y-19851000D01*
X48587000Y-19037000D01*
X48583000Y-19003000D01*
X48583000Y-19002000D01*
X48577000Y-18939000D01*
X48575000Y-18929000D01*
X48548000Y-18857000D01*
X48546000Y-18854000D01*
X48508000Y-18766000D01*
X48507000Y-18764000D01*
X48452000Y-18699000D01*
X48451000Y-18699000D01*
X48436000Y-18680000D01*
X48373000Y-18617000D01*
X48300000Y-18570000D01*
X48230000Y-18536000D01*
X48180000Y-18519000D01*
X48178000Y-18519000D01*
X48174000Y-18518000D01*
X48081000Y-18496000D01*
X47143000Y-18496000D01*
X47050000Y-18518000D01*
X47046000Y-18519000D01*
X47044000Y-18519000D01*
X46994000Y-18536000D01*
X46924000Y-18570000D01*
X46851000Y-18617000D01*
X46790000Y-18678000D01*
X46756000Y-18718000D01*
X46714000Y-18778000D01*
X46707000Y-18790000D01*
X46678000Y-18855000D01*
X46677000Y-18858000D01*
X46657000Y-18914000D01*
X46642000Y-18985000D01*
X46637000Y-19035000D01*
X-69987001Y-19035000D01*
X-70263000Y-18216000D01*
X-70481170Y-17567000D01*
X40329000Y-17567000D01*
X40329000Y-18387000D01*
X40335000Y-18442000D01*
X40346000Y-18513000D01*
X40349000Y-18525000D01*
X40373000Y-18598000D01*
X40415000Y-18688000D01*
X40419000Y-18694000D01*
X40471000Y-18764000D01*
X40512000Y-18811000D01*
X40580000Y-18874000D01*
X40655000Y-18922000D01*
X40729000Y-18958000D01*
X40803000Y-18982000D01*
X40875000Y-18998000D01*
X40883000Y-18999000D01*
X40962000Y-19004000D01*
X42597000Y-19004000D01*
X42678000Y-18999000D01*
X42761000Y-18981000D01*
X42824000Y-18959000D01*
X42825000Y-18958000D01*
X42827000Y-18957000D01*
X42899000Y-18925000D01*
X42979000Y-18874000D01*
X43046000Y-18812000D01*
X43101000Y-18747000D01*
X43138000Y-18692000D01*
X43182000Y-18608000D01*
X43183000Y-18606000D01*
X43183000Y-18605000D01*
X43210000Y-18525000D01*
X43213000Y-18513000D01*
X43226000Y-18435000D01*
X43229000Y-18380000D01*
X43229000Y-17876000D01*
X43317000Y-17788000D01*
X44605000Y-17788000D01*
X44605000Y-17726000D01*
X44693000Y-17638000D01*
X45680000Y-17638000D01*
X45680000Y-17376000D01*
X45768000Y-17288000D01*
X46505000Y-17288000D01*
X46505000Y-15538000D01*
X45768000Y-15538000D01*
X45680000Y-15450000D01*
X45680000Y-15188000D01*
X43930000Y-15188000D01*
X43930000Y-15450000D01*
X43842000Y-15538000D01*
X43291000Y-15538000D01*
X43202000Y-15432000D01*
X43226000Y-15285000D01*
X43229000Y-15230000D01*
X43229000Y-14433000D01*
X43226000Y-14374000D01*
X43213000Y-14294000D01*
X43211000Y-14287000D01*
X43181000Y-14199000D01*
X43138000Y-14116000D01*
X43101000Y-14061000D01*
X43048000Y-13998000D01*
X42979000Y-13934000D01*
X42906000Y-13887000D01*
X42903000Y-13886000D01*
X42902000Y-13885000D01*
X42832000Y-13852000D01*
X42754000Y-13826000D01*
X42675000Y-13809000D01*
X42597000Y-13804000D01*
X40962000Y-13804000D01*
X40883000Y-13809000D01*
X40875000Y-13810000D01*
X40803000Y-13826000D01*
X40729000Y-13850000D01*
X40654000Y-13887000D01*
X40576000Y-13937000D01*
X40510000Y-13999000D01*
X40471000Y-14044000D01*
X40415000Y-14120000D01*
X40373000Y-14210000D01*
X40348000Y-14286000D01*
X40346000Y-14295000D01*
X40335000Y-14364000D01*
X40334000Y-14367000D01*
X40334000Y-14368000D01*
X40329000Y-14417000D01*
X40329000Y-15237000D01*
X40335000Y-15294000D01*
X40346000Y-15363000D01*
X40349000Y-15375000D01*
X40373000Y-15448000D01*
X40415000Y-15538000D01*
X40419000Y-15544000D01*
X40471000Y-15614000D01*
X40512000Y-15661000D01*
X40578000Y-15723000D01*
X40655000Y-15772000D01*
X40729000Y-15808000D01*
X40803000Y-15832000D01*
X40875000Y-15848000D01*
X40883000Y-15849000D01*
X40962000Y-15854000D01*
X42597000Y-15854000D01*
X42675000Y-15849000D01*
X42754000Y-15832000D01*
X42832000Y-15806000D01*
X42966000Y-15743000D01*
X43105000Y-15832000D01*
X43105000Y-16976000D01*
X42968000Y-17064000D01*
X42828000Y-17001000D01*
X42825000Y-17000000D01*
X42824000Y-16999000D01*
X42761000Y-16977000D01*
X42678000Y-16959000D01*
X42597000Y-16954000D01*
X40962000Y-16954000D01*
X40883000Y-16959000D01*
X40875000Y-16960000D01*
X40803000Y-16976000D01*
X40729000Y-17000000D01*
X40654000Y-17037000D01*
X40578000Y-17085000D01*
X40510000Y-17149000D01*
X40471000Y-17194000D01*
X40417000Y-17267000D01*
X40413000Y-17274000D01*
X40373000Y-17360000D01*
X40347000Y-17438000D01*
X40346000Y-17444000D01*
X40335000Y-17514000D01*
X40334000Y-17517000D01*
X40329000Y-17567000D01*
X-70481170Y-17567000D01*
X-70936000Y-16214000D01*
X-71177461Y-15495000D01*
X13648000Y-15495000D01*
X13648000Y-16371000D01*
X13654000Y-16420000D01*
X13671000Y-16492000D01*
X13672000Y-16497000D01*
X13672000Y-16499000D01*
X13686000Y-16540000D01*
X13718000Y-16612000D01*
X13725000Y-16624000D01*
X13765000Y-16682000D01*
X13768000Y-16685000D01*
X13771000Y-16690000D01*
X13810000Y-16736000D01*
X13815000Y-16741000D01*
X13867000Y-16784000D01*
X13869000Y-16786000D01*
X13916000Y-16821000D01*
X13923000Y-16825000D01*
X14004000Y-16866000D01*
X14090000Y-16895000D01*
X14155000Y-16902000D01*
X14156000Y-16902000D01*
X14189000Y-16906000D01*
X14907000Y-16906000D01*
X14938000Y-16902000D01*
X14945000Y-16902000D01*
X15009000Y-16895000D01*
X15016000Y-16894000D01*
X15087000Y-16867000D01*
X15090000Y-16865000D01*
X15181000Y-16825000D01*
X15245000Y-16771000D01*
X15245000Y-16770000D01*
X15266000Y-16753000D01*
X15307000Y-16712000D01*
X15423000Y-16706000D01*
X15511000Y-16780000D01*
X15566000Y-16821000D01*
X15573000Y-16825000D01*
X15654000Y-16866000D01*
X15739000Y-16894000D01*
X15809000Y-16902000D01*
X15810000Y-16902000D01*
X15843000Y-16906000D01*
X16557000Y-16906000D01*
X16588000Y-16902000D01*
X16595000Y-16902000D01*
X16659000Y-16895000D01*
X16666000Y-16894000D01*
X16737000Y-16867000D01*
X16740000Y-16865000D01*
X16831000Y-16825000D01*
X16895000Y-16771000D01*
X16895000Y-16770000D01*
X16916000Y-16753000D01*
X16963000Y-16707000D01*
X16969000Y-16700000D01*
X17022000Y-16625000D01*
X17029000Y-16613000D01*
X17061000Y-16540000D01*
X17078000Y-16490000D01*
X17097000Y-16406000D01*
X17098000Y-16398000D01*
X17098000Y-15462000D01*
X17076000Y-15369000D01*
X17075000Y-15365000D01*
X17058000Y-15314000D01*
X17058000Y-15313000D01*
X17024000Y-15244000D01*
X16978000Y-15171000D01*
X16919000Y-15112000D01*
X16876000Y-15075000D01*
X16816000Y-15033000D01*
X16806000Y-15027000D01*
X16740000Y-14998000D01*
X16681000Y-14976000D01*
X16615000Y-14962000D01*
X16613000Y-14962000D01*
X16611000Y-14961000D01*
X16560000Y-14956000D01*
X15839000Y-14956000D01*
X15785000Y-14961000D01*
X15711000Y-14979000D01*
X15705000Y-14980000D01*
X15655000Y-14997000D01*
X15588000Y-15030000D01*
X15531000Y-15065000D01*
X15424000Y-15155000D01*
X15307000Y-15150000D01*
X15269000Y-15112000D01*
X15226000Y-15075000D01*
X15166000Y-15033000D01*
X15156000Y-15027000D01*
X15090000Y-14998000D01*
X15031000Y-14976000D01*
X14965000Y-14962000D01*
X14963000Y-14962000D01*
X14961000Y-14961000D01*
X14910000Y-14956000D01*
X14187000Y-14956000D01*
X14137000Y-14962000D01*
X14134000Y-14962000D01*
X14061000Y-14979000D01*
X14056000Y-14980000D01*
X14005000Y-14997000D01*
X13938000Y-15030000D01*
X13876000Y-15069000D01*
X13816000Y-15120000D01*
X13810000Y-15126000D01*
X13759000Y-15186000D01*
X13721000Y-15247000D01*
X13689000Y-15313000D01*
X13688000Y-15314000D01*
X13672000Y-15364000D01*
X13671000Y-15369000D01*
X13654000Y-15442000D01*
X13654000Y-15443000D01*
X13653000Y-15448000D01*
X13648000Y-15495000D01*
X-71177461Y-15495000D01*
X-71609000Y-14210000D01*
X-72281000Y-12207000D01*
X-72699740Y-10958000D01*
X55561000Y-10958000D01*
X55561000Y-11036000D01*
X55585000Y-11125000D01*
X55624000Y-11193000D01*
X55626000Y-11196000D01*
X55684000Y-11254000D01*
X56205000Y-11555000D01*
X56277000Y-11596000D01*
X56363000Y-11619000D01*
X56442000Y-11619000D01*
X56529000Y-11596000D01*
X56531000Y-11595000D01*
X56599000Y-11556000D01*
X56601000Y-11555000D01*
X56660000Y-11496000D01*
X56662000Y-11493000D01*
X56701000Y-11425000D01*
X56702000Y-11423000D01*
X56725000Y-11336000D01*
X56725000Y-11258000D01*
X56702000Y-11171000D01*
X56701000Y-11169000D01*
X56662000Y-11101000D01*
X56660000Y-11098000D01*
X56602000Y-11040000D01*
X56009000Y-10698000D01*
X56010000Y-10698000D01*
X55923000Y-10675000D01*
X55844000Y-10675000D01*
X55757000Y-10698000D01*
X55755000Y-10699000D01*
X55687000Y-10738000D01*
X55684000Y-10740000D01*
X55626000Y-10798000D01*
X55624000Y-10801000D01*
X55585000Y-10869000D01*
X55584000Y-10871000D01*
X55561000Y-10958000D01*
X-72699740Y-10958000D01*
X-72977000Y-10131000D01*
X-72976000Y-10129000D01*
X-73622000Y-8198000D01*
X-74083356Y-6816000D01*
X6403000Y-6816000D01*
X6403000Y-6915000D01*
X6432000Y-7022000D01*
X6481000Y-7107000D01*
X6555000Y-7181000D01*
X6646000Y-7233000D01*
X6749000Y-7261000D01*
X6849000Y-7261000D01*
X6955000Y-7233000D01*
X6954000Y-7233000D01*
X7042000Y-7183000D01*
X7118000Y-7107000D01*
X7167000Y-7022000D01*
X7196000Y-6915000D01*
X7196000Y-6816000D01*
X7168000Y-6711000D01*
X7160045Y-6697000D01*
X8007000Y-6697000D01*
X8007000Y-7032000D01*
X8096000Y-7364000D01*
X8266000Y-7660000D01*
X8506000Y-7899000D01*
X8507000Y-7900000D01*
X8796000Y-8068000D01*
X8799000Y-8069000D01*
X9132000Y-8158000D01*
X9467000Y-8158000D01*
X9800000Y-8069000D01*
X9803000Y-8068000D01*
X10093000Y-7900000D01*
X10335000Y-7658000D01*
X10504000Y-7367000D01*
X10585561Y-7060000D01*
X11503000Y-7060000D01*
X11503000Y-7993000D01*
X11525000Y-8086000D01*
X11526000Y-8090000D01*
X11526000Y-8092000D01*
X11541000Y-8138000D01*
X11543000Y-8142000D01*
X11577000Y-8212000D01*
X11624000Y-8285000D01*
X11682000Y-8343000D01*
X11725000Y-8380000D01*
X11785000Y-8422000D01*
X11795000Y-8428000D01*
X11862000Y-8458000D01*
X11865000Y-8459000D01*
X11921000Y-8479000D01*
X11920000Y-8479000D01*
X11986000Y-8493000D01*
X11988000Y-8493000D01*
X11990000Y-8494000D01*
X12041000Y-8499000D01*
X12764000Y-8499000D01*
X12814000Y-8493000D01*
X12817000Y-8493000D01*
X12890000Y-8476000D01*
X12895000Y-8475000D01*
X12945000Y-8459000D01*
X12946000Y-8458000D01*
X13013000Y-8425000D01*
X13068000Y-8391000D01*
X13177000Y-8300000D01*
X13294000Y-8305000D01*
X13332000Y-8343000D01*
X13375000Y-8380000D01*
X13435000Y-8422000D01*
X13445000Y-8428000D01*
X13512000Y-8458000D01*
X13515000Y-8459000D01*
X13571000Y-8479000D01*
X13570000Y-8479000D01*
X13636000Y-8493000D01*
X13638000Y-8493000D01*
X13640000Y-8494000D01*
X13691000Y-8499000D01*
X14414000Y-8499000D01*
X14464000Y-8493000D01*
X14467000Y-8493000D01*
X14540000Y-8476000D01*
X14545000Y-8475000D01*
X14595000Y-8459000D01*
X14596000Y-8458000D01*
X14663000Y-8425000D01*
X14718000Y-8391000D01*
X14725000Y-8386000D01*
X14783000Y-8337000D01*
X14791000Y-8329000D01*
X14840000Y-8271000D01*
X14878000Y-8212000D01*
X14910000Y-8147000D01*
X14914000Y-8138000D01*
X14929000Y-8093000D01*
X14930000Y-8086000D01*
X14947000Y-8013000D01*
X14953000Y-7963000D01*
X14953000Y-7088000D01*
X14948000Y-7041000D01*
X14947000Y-7036000D01*
X14947000Y-7035000D01*
X14930000Y-6963000D01*
X14929000Y-6958000D01*
X14915000Y-6915000D01*
X14883000Y-6843000D01*
X14876000Y-6831000D01*
X14831000Y-6766000D01*
X14791000Y-6719000D01*
X14786000Y-6714000D01*
X14734000Y-6671000D01*
X14732000Y-6669000D01*
X14687000Y-6635000D01*
X14677000Y-6630000D01*
X14597000Y-6589000D01*
X14512000Y-6561000D01*
X14511000Y-6560000D01*
X14446000Y-6553000D01*
X14445000Y-6553000D01*
X14412000Y-6549000D01*
X13694000Y-6549000D01*
X13663000Y-6553000D01*
X13656000Y-6553000D01*
X13592000Y-6560000D01*
X13585000Y-6561000D01*
X13514000Y-6588000D01*
X13511000Y-6590000D01*
X13420000Y-6630000D01*
X13356000Y-6684000D01*
X13356000Y-6685000D01*
X13334000Y-6703000D01*
X13294000Y-6743000D01*
X13178000Y-6749000D01*
X13090000Y-6675000D01*
X13037000Y-6635000D01*
X13027000Y-6630000D01*
X12947000Y-6589000D01*
X12862000Y-6561000D01*
X12861000Y-6560000D01*
X12796000Y-6553000D01*
X12795000Y-6553000D01*
X12762000Y-6549000D01*
X12044000Y-6549000D01*
X12013000Y-6553000D01*
X12006000Y-6553000D01*
X11942000Y-6560000D01*
X11935000Y-6561000D01*
X11864000Y-6588000D01*
X11861000Y-6590000D01*
X11770000Y-6630000D01*
X11706000Y-6684000D01*
X11706000Y-6685000D01*
X11684000Y-6703000D01*
X11635000Y-6751000D01*
X11632000Y-6755000D01*
X11578000Y-6831000D01*
X11572000Y-6842000D01*
X11540000Y-6915000D01*
X11521000Y-6972000D01*
X11504000Y-7052000D01*
X11503000Y-7060000D01*
X10585561Y-7060000D01*
X10593000Y-7032000D01*
X10593000Y-6697000D01*
X10504000Y-6364000D01*
X10503000Y-6361000D01*
X10335000Y-6072000D01*
X10334000Y-6071000D01*
X10095000Y-5831000D01*
X9799000Y-5661000D01*
X9800000Y-5661000D01*
X9467000Y-5572000D01*
X9132000Y-5572000D01*
X8800000Y-5661000D01*
X8505000Y-5831000D01*
X8266000Y-6070000D01*
X8096000Y-6365000D01*
X8007000Y-6697000D01*
X7160045Y-6697000D01*
X7118000Y-6623000D01*
X7116000Y-6620000D01*
X7042000Y-6546000D01*
X6954000Y-6496000D01*
X6955000Y-6496000D01*
X6850000Y-6468000D01*
X6749000Y-6468000D01*
X6646000Y-6496000D01*
X6555000Y-6548000D01*
X6483000Y-6620000D01*
X6481000Y-6623000D01*
X6431000Y-6711000D01*
X6403000Y-6816000D01*
X-74083356Y-6816000D01*
X-74291000Y-6194000D01*
X-74960000Y-4189000D01*
X-76051910Y-910000D01*
X19756000Y-910000D01*
X19756000Y-6420000D01*
X22281000Y-6420000D01*
X22281000Y-5954000D01*
X22369000Y-5866000D01*
X25092000Y-5866000D01*
X25180000Y-5954000D01*
X25180000Y-6420000D01*
X27705000Y-6420000D01*
X27705000Y-4185000D01*
X50371000Y-4185000D01*
X50371000Y-4314000D01*
X50393000Y-4407000D01*
X50394000Y-4411000D01*
X50394000Y-4413000D01*
X50410000Y-4462000D01*
X50452000Y-4545000D01*
X50457000Y-4554000D01*
X50493000Y-4601000D01*
X50536000Y-4653000D01*
X50541000Y-4658000D01*
X50587000Y-4696000D01*
X50638000Y-4732000D01*
X51372000Y-5156000D01*
X51373000Y-5157000D01*
X51378000Y-5160000D01*
X51422000Y-5181000D01*
X51428000Y-5183000D01*
X51477000Y-5200000D01*
X51479000Y-5200000D01*
X51483000Y-5201000D01*
X51576000Y-5223000D01*
X51707000Y-5223000D01*
X51800000Y-5201000D01*
X51804000Y-5200000D01*
X51806000Y-5200000D01*
X51855000Y-5183000D01*
X51856000Y-5183000D01*
X51926000Y-5149000D01*
X51996000Y-5104000D01*
X52098000Y-5021000D01*
X52288000Y-5183000D01*
X52130000Y-5458000D01*
X51630000Y-6324000D01*
X51205000Y-7060000D01*
X52810000Y-7987000D01*
X52850000Y-8057000D01*
X52850000Y-8193000D01*
X52909000Y-8412000D01*
X52910000Y-8414000D01*
X53018000Y-8604000D01*
X53019000Y-8605000D01*
X53177000Y-8761000D01*
X53017000Y-8971000D01*
X52172000Y-8483000D01*
X52086000Y-8460000D01*
X52007000Y-8460000D01*
X51921000Y-8483000D01*
X51848000Y-8525000D01*
X51788000Y-8585000D01*
X51748000Y-8654000D01*
X51747000Y-8657000D01*
X51724000Y-8743000D01*
X51724000Y-8821000D01*
X51747000Y-8907000D01*
X51748000Y-8910000D01*
X51788000Y-8979000D01*
X51850000Y-9041000D01*
X52783000Y-9579000D01*
X52785000Y-9580000D01*
X52874000Y-9631000D01*
X52960000Y-9654000D01*
X53039000Y-9654000D01*
X53126000Y-9631000D01*
X53125000Y-9631000D01*
X53198000Y-9589000D01*
X53258000Y-9529000D01*
X53298000Y-9460000D01*
X53299000Y-9457000D01*
X53322000Y-9371000D01*
X53322000Y-9293000D01*
X53299000Y-9207000D01*
X53298000Y-9204000D01*
X53258000Y-9135000D01*
X53172000Y-9049000D01*
X53288000Y-8850000D01*
X53587000Y-8931000D01*
X53808000Y-8931000D01*
X54025000Y-8872000D01*
X54215000Y-8762000D01*
X54216000Y-8761000D01*
X54375000Y-8605000D01*
X54376000Y-8604000D01*
X54484000Y-8414000D01*
X54485000Y-8412000D01*
X54544000Y-8193000D01*
X54544000Y-7973000D01*
X54486000Y-7758000D01*
X54375000Y-7564000D01*
X54217000Y-7406000D01*
X54006000Y-7284000D01*
X53974000Y-7164000D01*
X54034000Y-7060000D01*
X54251000Y-6683000D01*
X55501000Y-4518000D01*
X55776000Y-4042000D01*
X55928000Y-3777000D01*
X56048000Y-3745000D01*
X56259000Y-3866000D01*
X56260000Y-3867000D01*
X56476000Y-3925000D01*
X56698000Y-3925000D01*
X56914000Y-3867000D01*
X56915000Y-3866000D01*
X57107000Y-3756000D01*
X57265000Y-3598000D01*
X57335469Y-3475000D01*
X59881000Y-3475000D01*
X59881000Y-3554000D01*
X59904000Y-3641000D01*
X59905000Y-3642000D01*
X59946000Y-3713000D01*
X60004000Y-3771000D01*
X60525000Y-4072000D01*
X60600000Y-4115000D01*
X60681000Y-4137000D01*
X60762000Y-4137000D01*
X60848000Y-4114000D01*
X60851000Y-4113000D01*
X60920000Y-4073000D01*
X60980000Y-4013000D01*
X61022000Y-3940000D01*
X61045000Y-3854000D01*
X61045000Y-3775000D01*
X61022000Y-3689000D01*
X60980000Y-3616000D01*
X60920000Y-3556000D01*
X60332000Y-3216000D01*
X60329000Y-3215000D01*
X60243000Y-3192000D01*
X60164000Y-3192000D01*
X60078000Y-3215000D01*
X60075000Y-3216000D01*
X60006000Y-3256000D01*
X59946000Y-3316000D01*
X59904000Y-3389000D01*
X59903000Y-3392000D01*
X59881000Y-3475000D01*
X57335469Y-3475000D01*
X57375000Y-3406000D01*
X57376000Y-3405000D01*
X57434000Y-3190000D01*
X57434000Y-2967000D01*
X57376000Y-2751000D01*
X57375000Y-2750000D01*
X57265000Y-2558000D01*
X57046000Y-2339000D01*
X57164000Y-2139000D01*
X57279000Y-2172000D01*
X57361000Y-2172000D01*
X57443000Y-2150000D01*
X57444000Y-2150000D01*
X57514000Y-2108000D01*
X57520000Y-2104000D01*
X57575000Y-2049000D01*
X57580000Y-2042000D01*
X57620000Y-1974000D01*
X57620000Y-1973000D01*
X57642000Y-1891000D01*
X57642000Y-1808000D01*
X57620000Y-1726000D01*
X57620000Y-1725000D01*
X57580000Y-1657000D01*
X57575000Y-1649000D01*
X57517000Y-1592000D01*
X57516000Y-1591000D01*
X56495000Y-1001000D01*
X56492000Y-1000000D01*
X56406000Y-977000D01*
X56325000Y-977000D01*
X56243000Y-999000D01*
X56172000Y-1041000D01*
X56167000Y-1045000D01*
X56111000Y-1100000D01*
X56106000Y-1107000D01*
X56066000Y-1175000D01*
X56066000Y-1176000D01*
X56044000Y-1258000D01*
X56044000Y-1341000D01*
X56066000Y-1424000D01*
X56106000Y-1492000D01*
X56112000Y-1499000D01*
X56169000Y-1557000D01*
X56170000Y-1558000D01*
X57015000Y-2046000D01*
X56914000Y-2289000D01*
X56698000Y-2231000D01*
X56476000Y-2231000D01*
X56260000Y-2289000D01*
X56259000Y-2290000D01*
X56140000Y-2358000D01*
X56060000Y-2358000D01*
X54455000Y-1431000D01*
X54007000Y-2207000D01*
X53471000Y-3135000D01*
X53277000Y-3472000D01*
X52880000Y-4159000D01*
X52747000Y-4389000D01*
X52507000Y-4294000D01*
X52541000Y-4148000D01*
X52541000Y-4020000D01*
X52519000Y-3924000D01*
X52518000Y-3920000D01*
X52503000Y-3872000D01*
X52501000Y-3868000D01*
X52469000Y-3802000D01*
X52432000Y-3743000D01*
X52380000Y-3681000D01*
X52377000Y-3678000D01*
X52314000Y-3624000D01*
X52308000Y-3619000D01*
X52265000Y-3593000D01*
X51540000Y-3175000D01*
X51539000Y-3174000D01*
X51536000Y-3172000D01*
X51490000Y-3150000D01*
X51484000Y-3148000D01*
X51435000Y-3131000D01*
X51433000Y-3131000D01*
X51429000Y-3130000D01*
X51336000Y-3108000D01*
X51216000Y-3108000D01*
X51209000Y-3109000D01*
X51117000Y-3127000D01*
X51109000Y-3129000D01*
X51062000Y-3147000D01*
X51059000Y-3149000D01*
X50997000Y-3176000D01*
X50926000Y-3221000D01*
X50925000Y-3222000D01*
X50867000Y-3271000D01*
X50861000Y-3277000D01*
X50812000Y-3335000D01*
X50806000Y-3343000D01*
X50780000Y-3386000D01*
X50438000Y-3979000D01*
X50437000Y-3980000D01*
X50434000Y-3985000D01*
X50411000Y-4033000D01*
X50409000Y-4038000D01*
X50394000Y-4086000D01*
X50393000Y-4090000D01*
X50371000Y-4185000D01*
X27705000Y-4185000D01*
X27705000Y-910000D01*
X25180000Y-910000D01*
X25180000Y-1376000D01*
X25092000Y-1464000D01*
X22369000Y-1464000D01*
X22281000Y-1376000D01*
X22281000Y-910000D01*
X19756000Y-910000D01*
X-76051910Y-910000D01*
X-76296000Y-177000D01*
X-76946000Y1781000D01*
X-76950000Y1804000D01*
X-76965000Y3801000D01*
X-76967258Y4157000D01*
X25302000Y4157000D01*
X25302000Y3284000D01*
X25308000Y3231000D01*
X25325000Y3158000D01*
X25326000Y3151000D01*
X25341000Y3106000D01*
X25343000Y3102000D01*
X25377000Y3032000D01*
X25415000Y2973000D01*
X25464000Y2915000D01*
X25472000Y2907000D01*
X25531000Y2857000D01*
X25592000Y2819000D01*
X25659000Y2786000D01*
X25660000Y2785000D01*
X25709000Y2769000D01*
X25715000Y2768000D01*
X25789000Y2750000D01*
X25843000Y2745000D01*
X26562000Y2745000D01*
X26616000Y2750000D01*
X26690000Y2768000D01*
X26696000Y2769000D01*
X26745000Y2785000D01*
X26746000Y2786000D01*
X26813000Y2819000D01*
X26868000Y2853000D01*
X26974000Y2941000D01*
X27084000Y2941000D01*
X27181000Y2857000D01*
X27242000Y2819000D01*
X27309000Y2786000D01*
X27310000Y2785000D01*
X27359000Y2769000D01*
X27365000Y2768000D01*
X27439000Y2750000D01*
X27493000Y2745000D01*
X28212000Y2745000D01*
X28266000Y2750000D01*
X28340000Y2768000D01*
X28346000Y2769000D01*
X28395000Y2785000D01*
X28396000Y2786000D01*
X28463000Y2819000D01*
X28518000Y2853000D01*
X28525000Y2858000D01*
X28583000Y2907000D01*
X28591000Y2915000D01*
X28640000Y2973000D01*
X28678000Y3032000D01*
X28710000Y3097000D01*
X28714000Y3106000D01*
X28729000Y3152000D01*
X28729000Y3154000D01*
X28730000Y3158000D01*
X28752000Y3251000D01*
X28752000Y3750000D01*
X34365000Y3750000D01*
X34365000Y2815000D01*
X34387000Y2722000D01*
X34388000Y2718000D01*
X34388000Y2716000D01*
X34404000Y2667000D01*
X34446000Y2584000D01*
X34451000Y2575000D01*
X34487000Y2528000D01*
X34532000Y2474000D01*
X34535000Y2471000D01*
X34581000Y2432000D01*
X34647000Y2386000D01*
X34657000Y2380000D01*
X34731000Y2347000D01*
X34772000Y2333000D01*
X34774000Y2333000D01*
X34779000Y2332000D01*
X34851000Y2315000D01*
X34854000Y2315000D01*
X34904000Y2309000D01*
X35626000Y2309000D01*
X35676000Y2315000D01*
X35679000Y2315000D01*
X35752000Y2332000D01*
X35757000Y2333000D01*
X35807000Y2349000D01*
X35808000Y2350000D01*
X35875000Y2383000D01*
X35932000Y2419000D01*
X36035000Y2506000D01*
X36146000Y2506000D01*
X36238000Y2427000D01*
X36297000Y2386000D01*
X36307000Y2380000D01*
X36381000Y2347000D01*
X36422000Y2333000D01*
X36424000Y2333000D01*
X36429000Y2332000D01*
X36501000Y2315000D01*
X36504000Y2315000D01*
X36554000Y2309000D01*
X37276000Y2309000D01*
X37326000Y2315000D01*
X37329000Y2315000D01*
X37402000Y2332000D01*
X37407000Y2333000D01*
X37457000Y2349000D01*
X37458000Y2350000D01*
X37525000Y2383000D01*
X37585000Y2420000D01*
X37587000Y2422000D01*
X37645000Y2471000D01*
X37653000Y2479000D01*
X37702000Y2537000D01*
X37740000Y2596000D01*
X37772000Y2661000D01*
X37776000Y2670000D01*
X37791000Y2715000D01*
X37792000Y2722000D01*
X37809000Y2795000D01*
X37815000Y2848000D01*
X37815000Y3720000D01*
X37809000Y3770000D01*
X37809000Y3773000D01*
X37792000Y3845000D01*
X37791000Y3850000D01*
X37777000Y3893000D01*
X37745000Y3965000D01*
X37738000Y3977000D01*
X37693000Y4042000D01*
X37653000Y4089000D01*
X37648000Y4094000D01*
X37596000Y4137000D01*
X37594000Y4139000D01*
X37550000Y4172000D01*
X37542000Y4177000D01*
X37459000Y4219000D01*
X37374000Y4247000D01*
X37373000Y4248000D01*
X37308000Y4255000D01*
X37307000Y4255000D01*
X37274000Y4259000D01*
X36555000Y4259000D01*
X36456000Y4247000D01*
X36386000Y4224000D01*
X36382000Y4222000D01*
X36279000Y4176000D01*
X36218000Y4124000D01*
X36218000Y4123000D01*
X36144000Y4062000D01*
X36035000Y4062000D01*
X35946000Y4137000D01*
X35944000Y4139000D01*
X35900000Y4172000D01*
X35892000Y4177000D01*
X35809000Y4219000D01*
X35724000Y4247000D01*
X35723000Y4248000D01*
X35658000Y4255000D01*
X35657000Y4255000D01*
X35624000Y4259000D01*
X34905000Y4259000D01*
X34806000Y4247000D01*
X34736000Y4224000D01*
X34732000Y4222000D01*
X34629000Y4176000D01*
X34568000Y4124000D01*
X34567000Y4123000D01*
X34532000Y4094000D01*
X34527000Y4089000D01*
X34500000Y4056000D01*
X34499000Y4055000D01*
X34448000Y3996000D01*
X34447000Y3994000D01*
X34401000Y3893000D01*
X34384000Y3838000D01*
X34366000Y3756000D01*
X34365000Y3750000D01*
X28752000Y3750000D01*
X28752000Y4177000D01*
X28751000Y4186000D01*
X28733000Y4278000D01*
X28713000Y4333000D01*
X28712000Y4336000D01*
X28683000Y4401000D01*
X28676000Y4413000D01*
X28634000Y4473000D01*
X28597000Y4516000D01*
X28489000Y4623000D01*
X28489000Y4746000D01*
X28562000Y4822000D01*
X28600000Y4872000D01*
X28605000Y4874000D01*
X28621000Y4895000D01*
X28624000Y4899000D01*
X28664000Y4980000D01*
X28668000Y4989000D01*
X28688000Y5052000D01*
X28691000Y5064000D01*
X28704000Y5143000D01*
X28704000Y5779000D01*
X28690000Y5872000D01*
X28688000Y5881000D01*
X28659000Y5955000D01*
X28611000Y6048000D01*
X28698000Y6193000D01*
X29022000Y6193000D01*
X29102000Y6206000D01*
X29114000Y6209000D01*
X29180000Y6230000D01*
X29186000Y6233000D01*
X29267000Y6273000D01*
X29271000Y6275000D01*
X29314000Y6311000D01*
X29315000Y6312000D01*
X29366000Y6352000D01*
X29402000Y6399000D01*
X29403000Y6400000D01*
X29453000Y6462000D01*
X29491000Y6554000D01*
X29498000Y6577000D01*
X29498000Y6578000D01*
X29523000Y6665000D01*
X29523000Y7371000D01*
X29522000Y7375000D01*
X29493000Y7462000D01*
X29464000Y7551000D01*
X29463000Y7551000D01*
X29403000Y7626000D01*
X29402000Y7627000D01*
X29366000Y7674000D01*
X29364000Y7676000D01*
X29286000Y7736000D01*
X29285000Y7737000D01*
X29238000Y7766000D01*
X29180000Y7795000D01*
X29113000Y7817000D01*
X29112000Y7817000D01*
X29063000Y7825000D01*
X29021000Y7832000D01*
X29010000Y7833000D01*
X28446000Y7833000D01*
X28433000Y7832000D01*
X28392000Y7825000D01*
X28348000Y7818000D01*
X28344000Y7817000D01*
X28267000Y7791000D01*
X28219000Y7791000D01*
X28142000Y7817000D01*
X28093000Y7825000D01*
X28051000Y7832000D01*
X28040000Y7833000D01*
X27476000Y7833000D01*
X27463000Y7832000D01*
X27422000Y7825000D01*
X27378000Y7818000D01*
X27373000Y7817000D01*
X27306000Y7795000D01*
X27248000Y7766000D01*
X27201000Y7737000D01*
X27200000Y7736000D01*
X27122000Y7676000D01*
X27082000Y7625000D01*
X27081000Y7624000D01*
X27024000Y7553000D01*
X26993000Y7461000D01*
X26993000Y7460000D01*
X26991000Y7454000D01*
X26963000Y7372000D01*
X26963000Y6665000D01*
X26987000Y6580000D01*
X26998000Y6546000D01*
X27051000Y6414000D01*
X26961000Y6283000D01*
X26606000Y6283000D01*
X26602000Y6282000D01*
X26515000Y6253000D01*
X26426000Y6224000D01*
X26425000Y6223000D01*
X26353000Y6165000D01*
X26352000Y6164000D01*
X26301000Y6124000D01*
X26241000Y6046000D01*
X26239000Y6044000D01*
X26210000Y5996000D01*
X26209000Y5994000D01*
X26207000Y5992000D01*
X26192000Y5961000D01*
X26190000Y5956000D01*
X26161000Y5882000D01*
X26159000Y5873000D01*
X26150000Y5814000D01*
X26150000Y5813000D01*
X26145000Y5780000D01*
X26144000Y5770000D01*
X26144000Y5156000D01*
X26145000Y5143000D01*
X26152000Y5102000D01*
X26158000Y5063000D01*
X26161000Y5050000D01*
X26181000Y4989000D01*
X26182000Y4986000D01*
X26212000Y4927000D01*
X26260000Y4847000D01*
X26173000Y4695000D01*
X25808000Y4695000D01*
X25715000Y4673000D01*
X25711000Y4672000D01*
X25709000Y4672000D01*
X25659000Y4655000D01*
X25589000Y4621000D01*
X25517000Y4575000D01*
X25458000Y4516000D01*
X25421000Y4473000D01*
X25379000Y4413000D01*
X25372000Y4401000D01*
X25343000Y4336000D01*
X25342000Y4333000D01*
X25322000Y4277000D01*
X25321000Y4273000D01*
X25307000Y4206000D01*
X25302000Y4157000D01*
X-76967258Y4157000D01*
X-76978000Y5851000D01*
X-76978000Y5852000D01*
X-76988000Y7902000D01*
X-76994000Y9950000D01*
X-76999000Y12000000D01*
X-77000000Y14050000D01*
X-76999000Y16099000D01*
X-76999000Y16100000D01*
X-76994000Y18150000D01*
X-76988000Y20198000D01*
X-76978000Y22248000D01*
X-76965000Y24298000D01*
X-76952000Y26111000D01*
X-76895000Y26189000D01*
X-75107000Y26791000D01*
X-73094000Y27468000D01*
X-71080000Y28145000D01*
X-69067000Y28822000D01*
X-67054000Y29497000D01*
X-65042000Y30173000D01*
X-63029000Y30847000D01*
X-61017000Y31522000D01*
X-59005000Y32195000D01*
X-56994000Y32868000D01*
X-54982000Y33541000D01*
X-53022000Y34196000D01*
X-52998000Y34200000D01*
X-44243000Y34203000D01*
X-35434000Y34206000D01*
X-17818000Y34206000D01*
X-9009000Y34203000D01*
X-201000Y34200000D01*
X8607000Y34195000D01*
X17416000Y34189000D01*
X26224000Y34181000D01*
X35032000Y34172000D01*
X43841000Y34162000D01*
X52461000Y34150000D01*
X52530000Y34110000D01*
X53824000Y31919000D01*
X55211000Y29563000D01*
X56596000Y27206000D01*
X57977000Y24850000D01*
X57977000Y24849000D01*
X59356000Y22489000D01*
X60733000Y20127000D01*
X62106000Y17765000D01*
X63477000Y15400000D01*
X64846000Y13033000D01*
X66210000Y10667000D01*
X66459000Y10235000D01*
X66250000Y10075000D01*
X65115000Y11209000D01*
X65134000Y11356000D01*
X65328000Y11468000D01*
X64693000Y12568000D01*
X64430000Y13023000D01*
X64378000Y13113000D01*
X64058000Y13668000D01*
X63743000Y14213000D01*
X61203000Y18613000D01*
X60568000Y19712000D01*
X56758000Y26312000D01*
X54593000Y25062000D01*
X55543000Y23416000D01*
X56813000Y21216000D01*
X57448000Y20117000D01*
X61258000Y13517000D01*
X61636000Y12863000D01*
X62254000Y11792000D01*
X62644000Y11116000D01*
X62612000Y10996000D01*
X61419000Y10308000D01*
X60791000Y9945000D01*
X59443000Y9167000D01*
X58665000Y8718000D01*
X57020000Y7768000D01*
X53720000Y5863000D01*
X53166000Y5543000D01*
X51616000Y4648000D01*
X50966000Y4273000D01*
X49774000Y3585000D01*
X49654000Y3617000D01*
X49538000Y3818000D01*
X49223000Y4363000D01*
X48903000Y4918000D01*
X48617000Y5413000D01*
X48588000Y5463000D01*
X46048000Y9863000D01*
X45413000Y10962000D01*
X45093000Y11517000D01*
X44778000Y12062000D01*
X44458000Y12617000D01*
X44143000Y13162000D01*
X43573232Y14149000D01*
X48238000Y14149000D01*
X48238000Y13963000D01*
X48286000Y13794000D01*
X48291000Y13782000D01*
X48377000Y13630000D01*
X48378000Y13629000D01*
X48506000Y13504000D01*
X48509000Y13502000D01*
X48665000Y13408000D01*
X48670000Y13406000D01*
X48843000Y13361000D01*
X48954000Y13361000D01*
X49041000Y13214000D01*
X48990000Y13122000D01*
X48984000Y13108000D01*
X48938000Y12943000D01*
X48938000Y12757000D01*
X48988000Y12573000D01*
X49079000Y12417000D01*
X49207000Y12289000D01*
X49363000Y12198000D01*
X49367000Y12197000D01*
X49540000Y12148000D01*
X49734000Y12148000D01*
X49934000Y12204000D01*
X50012000Y12184000D01*
X50163000Y12033000D01*
X50319000Y11942000D01*
X50503000Y11892000D01*
X50689000Y11892000D01*
X50862000Y11941000D01*
X50866000Y11942000D01*
X51022000Y12033000D01*
X51150000Y12161000D01*
X51241000Y12317000D01*
X51242000Y12319000D01*
X51291000Y12494000D01*
X51291000Y12608000D01*
X51438000Y12695000D01*
X51530000Y12644000D01*
X51542000Y12639000D01*
X51709000Y12592000D01*
X51895000Y12592000D01*
X52079000Y12642000D01*
X52235000Y12733000D01*
X52365000Y12863000D01*
X52457000Y13023000D01*
X52458000Y13025000D01*
X52503000Y13198000D01*
X52503000Y13383000D01*
X52449000Y13591000D01*
X52470000Y13668000D01*
X52619000Y13817000D01*
X52710000Y13973000D01*
X52760000Y14157000D01*
X52760000Y14343000D01*
X52714000Y14508000D01*
X52709000Y14521000D01*
X52621000Y14676000D01*
X52620000Y14677000D01*
X52493000Y14802000D01*
X52331000Y14898000D01*
X52326000Y14900000D01*
X52153000Y14945000D01*
X52044000Y14945000D01*
X51957000Y15092000D01*
X52007000Y15181000D01*
X52012000Y15194000D01*
X52060000Y15363000D01*
X52060000Y15549000D01*
X52010000Y15733000D01*
X51919000Y15889000D01*
X51791000Y16017000D01*
X51626000Y16112000D01*
X51452000Y16157000D01*
X51270000Y16157000D01*
X51061000Y16103000D01*
X50984000Y16124000D01*
X50835000Y16273000D01*
X50679000Y16364000D01*
X50495000Y16414000D01*
X50309000Y16414000D01*
X50140000Y16366000D01*
X50132000Y16363000D01*
X49979000Y16277000D01*
X49845000Y16143000D01*
X49752000Y15981000D01*
X49707000Y15806000D01*
X49707000Y15697000D01*
X49555000Y15610000D01*
X49464000Y15664000D01*
X49462000Y15665000D01*
X49289000Y15714000D01*
X49103000Y15714000D01*
X48919000Y15664000D01*
X48763000Y15573000D01*
X48635000Y15445000D01*
X48544000Y15289000D01*
X48543000Y15285000D01*
X48494000Y15112000D01*
X48494000Y14918000D01*
X48550000Y14718000D01*
X48530000Y14640000D01*
X48379000Y14489000D01*
X48288000Y14332000D01*
X48238000Y14149000D01*
X43573232Y14149000D01*
X41603000Y17562000D01*
X39438000Y16312000D01*
X40240000Y14921000D01*
X40096000Y14760000D01*
X40002000Y14800000D01*
X39796000Y14857000D01*
X39585000Y14857000D01*
X39378000Y14800000D01*
X39201000Y14697000D01*
X39056000Y14552000D01*
X39056000Y14551000D01*
X38948000Y14370000D01*
X38948000Y14369000D01*
X38893000Y14163000D01*
X38893000Y13953000D01*
X38947000Y13748000D01*
X39054000Y13569000D01*
X39056000Y13567000D01*
X39200000Y13422000D01*
X39201000Y13421000D01*
X39383000Y13317000D01*
X39588000Y13262000D01*
X39793000Y13262000D01*
X39999000Y13317000D01*
X39998000Y13317000D01*
X40181000Y13422000D01*
X40219000Y13432000D01*
X40712000Y13432000D01*
X40741000Y13431000D01*
X40785000Y13443000D01*
X40792000Y13444000D01*
X40865000Y13456000D01*
X40890000Y13469000D01*
X40905000Y13474000D01*
X40992000Y13497000D01*
X41086000Y13458000D01*
X41658000Y12466000D01*
X41990000Y11892000D01*
X42928000Y10267000D01*
X43248000Y9712000D01*
X44198000Y8067000D01*
X46103000Y4767000D01*
X46539000Y4013000D01*
X47131000Y2987000D01*
X48008000Y1468000D01*
X49720000Y2456000D01*
X49840000Y2424000D01*
X50571000Y1158000D01*
X53871000Y3063000D01*
X55516000Y4013000D01*
X58816000Y5918000D01*
X59370000Y6238000D01*
X61570000Y7508000D01*
X63215000Y8458000D01*
X64315000Y9093000D01*
X63584000Y10360000D01*
X63616000Y10479000D01*
X63848000Y10614000D01*
X63949000Y10601000D01*
X65371000Y9179000D01*
X65394000Y9124000D01*
X65394000Y7882000D01*
X65384000Y7844000D01*
X64917000Y7035000D01*
X64905000Y7019000D01*
X63324000Y5438000D01*
X63277000Y5395000D01*
X63246000Y5340000D01*
X63241000Y5331000D01*
X63205000Y5282000D01*
X63204000Y5280000D01*
X63195000Y5251000D01*
X63189000Y5238000D01*
X63178000Y5217000D01*
X63167000Y5166000D01*
X63165000Y5159000D01*
X63148000Y5103000D01*
X63147000Y5069000D01*
X63146000Y5060000D01*
X63144000Y5051000D01*
X63145000Y5051000D01*
X63144000Y5043000D01*
X63144000Y4952000D01*
X63143000Y4915000D01*
X63144000Y4906000D01*
X63144000Y3985000D01*
X63134000Y3947000D01*
X62525000Y2892000D01*
X62522000Y2871000D01*
X61928000Y1841000D01*
X61916000Y1825000D01*
X60335000Y244000D01*
X60288000Y201000D01*
X60257000Y146000D01*
X60252000Y137000D01*
X60216000Y88000D01*
X60215000Y86000D01*
X60206000Y57000D01*
X60200000Y44000D01*
X60189000Y23000D01*
X60178000Y-28000D01*
X60176000Y-35000D01*
X60159000Y-91000D01*
X60158000Y-125000D01*
X60157000Y-134000D01*
X60155000Y-143000D01*
X60156000Y-143000D01*
X60155000Y-151000D01*
X60155000Y-252000D01*
X60154000Y-277000D01*
X60155000Y-282000D01*
X60155000Y-1142000D01*
X59970000Y-1219000D01*
X58186000Y564000D01*
X58166000Y598000D01*
X58114000Y796000D01*
X58114000Y798000D01*
X58006000Y985000D01*
X58005000Y986000D01*
X57856000Y1134000D01*
X57855000Y1135000D01*
X57682000Y1236000D01*
X57472000Y1293000D01*
X57264000Y1293000D01*
X57058000Y1236000D01*
X56878000Y1133000D01*
X56730000Y985000D01*
X56627000Y805000D01*
X56570000Y598000D01*
X56570000Y391000D01*
X56627000Y185000D01*
X56730000Y5000D01*
X56878000Y-143000D01*
X56881000Y-145000D01*
X57065000Y-250000D01*
X57262000Y-302000D01*
X57297000Y-322000D01*
X59256000Y-2280000D01*
X59259000Y-2283000D01*
X59310000Y-2339000D01*
X59312000Y-2340000D01*
X59372000Y-2373000D01*
X59380000Y-2378000D01*
X59421000Y-2408000D01*
X59442000Y-2415000D01*
X59456000Y-2421000D01*
X59487000Y-2437000D01*
X59537000Y-2446000D01*
X59546000Y-2449000D01*
X59601000Y-2466000D01*
X59632000Y-2467000D01*
X59644000Y-2469000D01*
X59651000Y-2470000D01*
X59661000Y-2471000D01*
X59848000Y-2471000D01*
X59886000Y-2481000D01*
X61018000Y-3135000D01*
X62018000Y-1403000D01*
X61449000Y-1074000D01*
X61409000Y-1004000D01*
X61409000Y-489000D01*
X61432000Y-434000D01*
X62817000Y952000D01*
X62918000Y965000D01*
X63268000Y763000D01*
X64278000Y2513000D01*
X64281000Y2534000D01*
X65007000Y3792000D01*
X64438000Y4121000D01*
X64398000Y4191000D01*
X64398000Y4705000D01*
X64421000Y4760000D01*
X65806000Y6146000D01*
X65907000Y6159000D01*
X66257000Y5957000D01*
X67257000Y7689000D01*
X66688000Y8018000D01*
X66648000Y8088000D01*
X66648000Y9459000D01*
X66871000Y9519000D01*
X67573000Y8297000D01*
X68839000Y6091000D01*
X68839000Y6011000D01*
X67573000Y3804000D01*
X66210000Y1434000D01*
X66210000Y1433000D01*
X64844000Y-934000D01*
X63476000Y-3300000D01*
X62105000Y-5665000D01*
X60732000Y-8028000D01*
X59356000Y-10389000D01*
X57977000Y-12749000D01*
X57542000Y-13494000D01*
X57398000Y-13514000D01*
X57329000Y-13447000D01*
X57323000Y-13443000D01*
X57266000Y-13408000D01*
X56773000Y-13125000D01*
X56771000Y-13123000D01*
X56728000Y-13102000D01*
X56651000Y-13076000D01*
X56604000Y-13068000D01*
X56516000Y-13053000D01*
X56515000Y-13053000D01*
X56427000Y-13068000D01*
X56383000Y-13075000D01*
X56379000Y-13076000D01*
X56278000Y-13110000D01*
X56180000Y-13073000D01*
X56141000Y-13009000D01*
X56089000Y-12940000D01*
X56040000Y-12898000D01*
X55974000Y-12842000D01*
X55890000Y-12805000D01*
X55858000Y-12793000D01*
X55791000Y-12770000D01*
X55703000Y-12760000D01*
X55606000Y-12760000D01*
X55521000Y-12780000D01*
X55487000Y-12791000D01*
X55485000Y-12792000D01*
X54839000Y-13025000D01*
X54833000Y-13027000D01*
X54776000Y-13054000D01*
X54724000Y-13087000D01*
X54722000Y-13088000D01*
X54658000Y-13137000D01*
X54655000Y-13139000D01*
X54616000Y-13186000D01*
X54571000Y-13237000D01*
X54525000Y-13329000D01*
X54508000Y-13378000D01*
X54508000Y-13379000D01*
X54489000Y-13434000D01*
X54476000Y-13549000D01*
X54476000Y-13551000D01*
X54491000Y-13684000D01*
X54509000Y-13737000D01*
X54511000Y-13741000D01*
X54695000Y-14251000D01*
X54622000Y-14373000D01*
X54546000Y-14384000D01*
X54479000Y-14399000D01*
X54435000Y-14409000D01*
X53772000Y-14650000D01*
X53767000Y-14652000D01*
X53710000Y-14679000D01*
X53658000Y-14712000D01*
X53656000Y-14713000D01*
X53611000Y-14747000D01*
X53539000Y-14819000D01*
X53533000Y-14826000D01*
X53502000Y-14878000D01*
X53501000Y-14880000D01*
X53465000Y-14935000D01*
X53463000Y-14938000D01*
X53443000Y-15003000D01*
X53442000Y-15005000D01*
X53423000Y-15061000D01*
X53410000Y-15182000D01*
X53417000Y-15242000D01*
X53423000Y-15299000D01*
X53425000Y-15309000D01*
X53443000Y-15362000D01*
X53445000Y-15366000D01*
X53620000Y-15849000D01*
X53530000Y-15977000D01*
X53443000Y-15977000D01*
X53358000Y-15997000D01*
X53324000Y-16008000D01*
X53322000Y-16009000D01*
X52674000Y-16243000D01*
X52621000Y-16266000D01*
X52545000Y-16314000D01*
X52544000Y-16315000D01*
X52485000Y-16365000D01*
X52484000Y-16366000D01*
X52453000Y-16404000D01*
X52451000Y-16405000D01*
X52406000Y-16457000D01*
X52371000Y-16530000D01*
X52339000Y-16603000D01*
X52322000Y-16683000D01*
X52322000Y-16687000D01*
X52316000Y-16738000D01*
X52316000Y-16834000D01*
X52317000Y-16842000D01*
X52330000Y-16897000D01*
X52340000Y-16943000D01*
X52634000Y-17750000D01*
X52660000Y-17806000D01*
X52661000Y-17807000D01*
X52698000Y-17866000D01*
X52746000Y-17922000D01*
X52791000Y-17967000D01*
X52796000Y-17971000D01*
X52850000Y-18010000D01*
X52851000Y-18011000D01*
X52917000Y-18052000D01*
X52919000Y-18053000D01*
X53000000Y-18079000D01*
X53003000Y-18080000D01*
X53075000Y-18097000D01*
X53078000Y-18097000D01*
X53128000Y-18103000D01*
X53253000Y-18103000D01*
X53336000Y-18171000D01*
X53346000Y-18224000D01*
X53377000Y-18316000D01*
X53397000Y-18348000D01*
X53430000Y-18414000D01*
X53490000Y-18475000D01*
X53491000Y-18476000D01*
X53537000Y-18521000D01*
X53543000Y-18526000D01*
X53599000Y-18560000D01*
X54092000Y-18843000D01*
X54094000Y-18844000D01*
X54137000Y-18866000D01*
X54142000Y-18868000D01*
X54237000Y-18899000D01*
X54288000Y-19034000D01*
X53825000Y-19819000D01*
X52531000Y-22010000D01*
X52462000Y-22050000D01*
X51263000Y-22052000D01*
X51181000Y-21882000D01*
X51252000Y-21793000D01*
X51287000Y-21738000D01*
X51319000Y-21673000D01*
X51323000Y-21664000D01*
X51338000Y-21618000D01*
X51338000Y-21616000D01*
X51339000Y-21612000D01*
X51361000Y-21518000D01*
X51361000Y-20731000D01*
X51340000Y-20643000D01*
X51340000Y-20640000D01*
X51335000Y-20613000D01*
X51315000Y-20557000D01*
X51314000Y-20555000D01*
X51283000Y-20485000D01*
X51280000Y-20480000D01*
X51224000Y-20401000D01*
X51156000Y-20333000D01*
X51156000Y-20209000D01*
X51233000Y-20132000D01*
X51280000Y-20059000D01*
X51312000Y-19994000D01*
X51316000Y-19985000D01*
X51331000Y-19939000D01*
X51331000Y-19937000D01*
X51332000Y-19933000D01*
X51353000Y-19843000D01*
X51354000Y-19838000D01*
X51354000Y-19066000D01*
X51353000Y-19055000D01*
X51335000Y-18963000D01*
X51315000Y-18908000D01*
X51314000Y-18905000D01*
X51283000Y-18835000D01*
X51280000Y-18830000D01*
X51224000Y-18751000D01*
X51188000Y-18714000D01*
X51187000Y-18713000D01*
X51151000Y-18678000D01*
X51070000Y-18620000D01*
X51002000Y-18589000D01*
X50940000Y-18566000D01*
X50937000Y-18565000D01*
X50845000Y-18547000D01*
X50838000Y-18546000D01*
X49910000Y-18546000D01*
X49817000Y-18568000D01*
X49813000Y-18569000D01*
X49811000Y-18569000D01*
X49761000Y-18586000D01*
X49691000Y-18620000D01*
X49618000Y-18667000D01*
X49560000Y-18725000D01*
X49523000Y-18768000D01*
X49481000Y-18828000D01*
X49474000Y-18840000D01*
X49445000Y-18905000D01*
X49444000Y-18908000D01*
X49424000Y-18964000D01*
X49424000Y-18965000D01*
X49409000Y-19035000D01*
X49404000Y-19084000D01*
X49404000Y-19807000D01*
X49410000Y-19861000D01*
X49427000Y-19933000D01*
X49428000Y-19940000D01*
X49443000Y-19985000D01*
X49445000Y-19989000D01*
X49479000Y-20059000D01*
X49512000Y-20111000D01*
X49603000Y-20220000D01*
X49598000Y-20337000D01*
X49558000Y-20377000D01*
X49523000Y-20418000D01*
X49477000Y-20484000D01*
X49474000Y-20490000D01*
X49445000Y-20555000D01*
X49444000Y-20558000D01*
X49424000Y-20614000D01*
X49424000Y-20615000D01*
X49409000Y-20685000D01*
X49404000Y-20734000D01*
X49404000Y-21459000D01*
X49410000Y-21510000D01*
X49424000Y-21573000D01*
X49425000Y-21574000D01*
X49426000Y-21579000D01*
X49427000Y-21581000D01*
X49427000Y-21583000D01*
X49429000Y-21590000D01*
X49429000Y-21591000D01*
X49434000Y-21613000D01*
X49435000Y-21619000D01*
X49450000Y-21664000D01*
X49452000Y-21668000D01*
X49486000Y-21738000D01*
X49524000Y-21797000D01*
X49595000Y-21882000D01*
X49515000Y-22055000D01*
X46240000Y-22059000D01*
X46168000Y-21861000D01*
X46270000Y-21776000D01*
X46319000Y-21718000D01*
X46357000Y-21659000D01*
X46389000Y-21594000D01*
X46393000Y-21585000D01*
X46408000Y-21539000D01*
X46409000Y-21533000D01*
X46427000Y-21458000D01*
X46432000Y-21410000D01*
X46432000Y-20584000D01*
X46427000Y-20535000D01*
X46412000Y-20465000D01*
X46412000Y-20464000D01*
X46392000Y-20408000D01*
X46391000Y-20405000D01*
X46362000Y-20340000D01*
X46357000Y-20331000D01*
X46313000Y-20268000D01*
X46277000Y-20226000D01*
X46218000Y-20167000D01*
X46145000Y-20120000D01*
X46075000Y-20086000D01*
X46025000Y-20069000D01*
X46023000Y-20069000D01*
X46019000Y-20068000D01*
X45926000Y-20046000D01*
X44987000Y-20046000D01*
X44894000Y-20068000D01*
X44890000Y-20069000D01*
X44888000Y-20069000D01*
X44838000Y-20086000D01*
X44768000Y-20120000D01*
X44695000Y-20167000D01*
X44636000Y-20226000D01*
X44600000Y-20268000D01*
X44556000Y-20331000D01*
X44551000Y-20340000D01*
X44524000Y-20401000D01*
X44501000Y-20463000D01*
X44483000Y-20555000D01*
X44482000Y-20564000D01*
X44482000Y-21438000D01*
X44483000Y-21444000D01*
X44504000Y-21533000D01*
X44505000Y-21537000D01*
X44505000Y-21539000D01*
X44520000Y-21585000D01*
X44522000Y-21589000D01*
X44556000Y-21659000D01*
X44594000Y-21718000D01*
X44642000Y-21775000D01*
X44748000Y-21865000D01*
X44676000Y-22062000D01*
X43849000Y-22063000D01*
X43772000Y-21878000D01*
X43845000Y-21805000D01*
X43894000Y-21747000D01*
X43932000Y-21688000D01*
X43966000Y-21618000D01*
X43968000Y-21615000D01*
X43968000Y-21614000D01*
X43983000Y-21568000D01*
X43983000Y-21566000D01*
X43984000Y-21562000D01*
X44006000Y-21469000D01*
X44006000Y-20584000D01*
X44005000Y-20578000D01*
X43988000Y-20498000D01*
X43969000Y-20441000D01*
X43937000Y-20369000D01*
X43930000Y-20357000D01*
X43885000Y-20292000D01*
X43845000Y-20245000D01*
X43840000Y-20240000D01*
X43797000Y-20204000D01*
X43794000Y-20202000D01*
X43727000Y-20151000D01*
X43647000Y-20116000D01*
X43644000Y-20114000D01*
X43597000Y-20096000D01*
X43589000Y-20094000D01*
X43497000Y-20076000D01*
X43490000Y-20075000D01*
X42562000Y-20075000D01*
X42469000Y-20097000D01*
X42465000Y-20098000D01*
X42463000Y-20098000D01*
X42412000Y-20115000D01*
X42332000Y-20156000D01*
X42322000Y-20161000D01*
X42277000Y-20195000D01*
X42275000Y-20197000D01*
X42223000Y-20240000D01*
X42218000Y-20245000D01*
X42178000Y-20292000D01*
X42133000Y-20357000D01*
X42126000Y-20369000D01*
X42094000Y-20441000D01*
X42080000Y-20484000D01*
X42079000Y-20489000D01*
X42062000Y-20561000D01*
X42062000Y-20564000D01*
X42056000Y-20615000D01*
X42056000Y-21436000D01*
X42062000Y-21489000D01*
X42079000Y-21562000D01*
X42080000Y-21569000D01*
X42095000Y-21614000D01*
X42096000Y-21615000D01*
X42097000Y-21618000D01*
X42131000Y-21688000D01*
X42169000Y-21747000D01*
X42218000Y-21805000D01*
X42293000Y-21880000D01*
X42216000Y-22065000D01*
X41309000Y-22066000D01*
X41237000Y-21869000D01*
X41343000Y-21780000D01*
X41347000Y-21776000D01*
X41396000Y-21718000D01*
X41434000Y-21659000D01*
X41466000Y-21594000D01*
X41470000Y-21585000D01*
X41485000Y-21539000D01*
X41486000Y-21533000D01*
X41504000Y-21458000D01*
X41509000Y-21410000D01*
X41509000Y-20584000D01*
X41504000Y-20535000D01*
X41489000Y-20465000D01*
X41489000Y-20464000D01*
X41469000Y-20408000D01*
X41468000Y-20405000D01*
X41439000Y-20340000D01*
X41434000Y-20331000D01*
X41390000Y-20268000D01*
X41354000Y-20226000D01*
X41295000Y-20167000D01*
X41222000Y-20120000D01*
X41152000Y-20086000D01*
X41102000Y-20069000D01*
X41100000Y-20069000D01*
X41096000Y-20068000D01*
X41003000Y-20046000D01*
X40075000Y-20046000D01*
X40068000Y-20047000D01*
X39976000Y-20065000D01*
X39973000Y-20066000D01*
X39911000Y-20089000D01*
X39843000Y-20120000D01*
X39759000Y-20180000D01*
X39678000Y-20238000D01*
X39515000Y-20155000D01*
X39515000Y-19066000D01*
X37615000Y-19066000D01*
X37615000Y-21266000D01*
X39471000Y-21266000D01*
X39559000Y-21354000D01*
X39559000Y-21438000D01*
X39560000Y-21444000D01*
X39581000Y-21533000D01*
X39582000Y-21537000D01*
X39582000Y-21539000D01*
X39597000Y-21585000D01*
X39599000Y-21589000D01*
X39633000Y-21659000D01*
X39680000Y-21732000D01*
X39746000Y-21798000D01*
X39834000Y-21875000D01*
X39761000Y-22069000D01*
X34079000Y-22076000D01*
X34006000Y-21882000D01*
X34092000Y-21806000D01*
X34093000Y-21805000D01*
X34142000Y-21747000D01*
X34179000Y-21689000D01*
X34246000Y-21652000D01*
X34443000Y-21652000D01*
X34471000Y-21653000D01*
X34517000Y-21640000D01*
X34526000Y-21638000D01*
X34596000Y-21628000D01*
X34601000Y-21626000D01*
X34626000Y-21614000D01*
X34639000Y-21609000D01*
X34663000Y-21603000D01*
X34667000Y-21601000D01*
X34706000Y-21576000D01*
X34712000Y-21573000D01*
X34768000Y-21544000D01*
X34770000Y-21543000D01*
X34795000Y-21520000D01*
X34799000Y-21515000D01*
X34807000Y-21509000D01*
X34816000Y-21503000D01*
X35029000Y-21289000D01*
X35084000Y-21266000D01*
X36215000Y-21266000D01*
X36215000Y-19066000D01*
X34315000Y-19066000D01*
X34315000Y-20204000D01*
X34142000Y-20285000D01*
X34036000Y-20197000D01*
X34034000Y-20195000D01*
X33989000Y-20161000D01*
X33979000Y-20156000D01*
X33899000Y-20115000D01*
X33848000Y-20098000D01*
X33846000Y-20098000D01*
X33842000Y-20097000D01*
X33749000Y-20075000D01*
X32810000Y-20075000D01*
X32717000Y-20097000D01*
X32713000Y-20098000D01*
X32711000Y-20098000D01*
X32660000Y-20115000D01*
X32541000Y-20175000D01*
X32470000Y-20175000D01*
X32352000Y-20116000D01*
X32298000Y-20098000D01*
X32296000Y-20098000D01*
X32292000Y-20097000D01*
X32199000Y-20075000D01*
X31260000Y-20075000D01*
X31167000Y-20097000D01*
X31163000Y-20098000D01*
X31161000Y-20098000D01*
X31110000Y-20115000D01*
X31030000Y-20156000D01*
X31020000Y-20161000D01*
X30975000Y-20195000D01*
X30973000Y-20197000D01*
X30921000Y-20240000D01*
X30916000Y-20245000D01*
X30876000Y-20292000D01*
X30831000Y-20357000D01*
X30824000Y-20369000D01*
X30792000Y-20441000D01*
X30773000Y-20498000D01*
X30756000Y-20578000D01*
X30755000Y-20584000D01*
G37*
%TD.AperFunction*%
%TD*%
M02*
