M48
; DRILL file {KiCad 7.0.11-7.0.11~ubuntu20.04.1} date Fri Aug 16 09:23:18 2024
; FORMAT={-:-/ absolute / metric / decimal}
; #@! TF.CreationDate,2024-08-16T09:23:18+00:00
; #@! TF.GenerationSoftware,Kicad,Pcbnew,7.0.11-7.0.11~ubuntu20.04.1
; #@! TF.FileFunction,MixedPlating,1,2
FMAT,2
METRIC
; #@! TA.AperFunction,Plated,PTH,ComponentDrill
T1C0.200
; #@! TA.AperFunction,Plated,PTH,ComponentDrill
T2C0.300
; #@! TA.AperFunction,Plated,PTH,ComponentDrill
T3C0.650
; #@! TA.AperFunction,Plated,PTH,ComponentDrill
T4C0.800
; #@! TA.AperFunction,NonPlated,NPTH,ComponentDrill
T5C0.700
%
G90
G05
T1
X48.936Y14.059
X49.193Y15.015
X49.636Y12.847
X49.893Y13.803
X50.149Y14.759
X50.405Y15.715
X50.593Y12.591
X50.849Y13.547
X51.105Y14.503
X51.361Y15.459
X51.805Y13.291
X52.061Y14.247
T2
X-62.25Y22.65
X-62.25Y7.65
X-62.25Y-7.35
X-47.25Y22.65
X-47.25Y7.65
X-47.25Y-7.35
X-32.25Y22.65
X-32.25Y7.65
X-32.25Y-7.35
X-17.25Y22.65
X-17.25Y7.65
X-17.25Y-7.35
X-2.25Y22.65
X-2.25Y7.65
X-2.25Y-7.35
X12.75Y22.65
X12.75Y7.65
X27.75Y22.65
X27.75Y-7.35
X39.691Y14.059
X42.575Y18.265
X42.75Y22.65
X42.75Y7.65
X42.75Y-7.35
X51.869Y11.714
X56.268Y3.351
X56.268Y-0.196
X57.368Y0.495
X57.75Y-7.35
X65.882Y1.307
T4
X6.8Y-6.865
X9.3Y-6.865
T5
X53.697Y-8.084
X56.587Y-3.078
T3
G00X52.047Y-8.782
M15
G01X52.999Y-9.332
M16
G05
G00X55.883Y-10.997
M15
G01X56.403Y-11.297
M16
G05
G00X56.367Y-1.3
M15
G01X57.319Y-1.85
M16
G05
G00X60.203Y-3.515
M15
G01X60.723Y-3.815
M16
G05
M30
