%TF.GenerationSoftware,Flux,Pcbnew,7.0.11-7.0.11~ubuntu20.04.1*%
%TF.CreationDate,2024-08-16T09:23:18+00:00*%
%TF.ProjectId,input,696e7075-742e-46b6-9963-61645f706362,rev?*%
%TF.SameCoordinates,Original*%
%TF.FileFunction,Copper,L2,Bot*%
%TF.FilePolarity,Positive*%
%FSLAX46Y46*%
G04 Gerber Fmt 4.6, Leading zero omitted, Abs format (unit mm)*
G04 Filename: betterflipperzero*
G04 Build it with Flux! Visit our site at: https://www.flux.ai (PCBNEW 7.0.11-7.0.11~ubuntu20.04.1) date 2024-08-16 09:23:18*
%MOMM*%
%LPD*%
G01*
G04 APERTURE LIST*
G04 Aperture macros list*
%AMHorizOval*
0 Thick line with rounded ends*
0 $1 width*
0 $2 $3 position (X,Y) of the first rounded end (center of the circle)*
0 $4 $5 position (X,Y) of the second rounded end (center of the circle)*
0 Add line between two ends*
20,1,$1,$2,$3,$4,$5,0*
0 Add two circle primitives to create the rounded ends*
1,1,$1,$2,$3*
1,1,$1,$4,$5*%
%AMFreePoly0*
4,1,129,0.022069,0.299187,0.036723,0.297744,0.051289,0.295583,0.065730,0.292711,0.080014,0.289133,0.094105,0.284858,0.107969,0.279898,0.121572,0.274263,0.134883,0.267967,0.147869,0.261026,0.160499,0.253456,0.172742,0.245275,0.184569,0.236504,0.195952,0.227163,0.206862,0.217274,0.217274,0.206862,0.227163,0.195952,0.236504,0.184569,0.245275,0.172742,0.253456,0.160499,
0.261026,0.147869,0.267967,0.134883,0.274263,0.121572,0.279898,0.107969,0.284858,0.094105,0.289133,0.080014,0.292711,0.065730,0.295583,0.051289,0.297744,0.036723,0.299187,0.022069,0.299910,0.007362,0.299910,-0.007362,0.299187,-0.022069,0.297744,-0.036723,0.295583,-0.051289,0.292711,-0.065730,0.289133,-0.080014,0.284858,-0.094105,0.279898,-0.107969,0.274263,-0.121572,
0.267967,-0.134883,0.261026,-0.147869,0.253456,-0.160499,0.245275,-0.172742,0.236504,-0.184569,0.227163,-0.195952,0.217274,-0.206862,0.206862,-0.217274,0.195952,-0.227163,0.184569,-0.236504,0.172742,-0.245275,0.160499,-0.253456,0.147869,-0.261026,0.134883,-0.267967,0.121572,-0.274263,0.107969,-0.279898,0.094105,-0.284858,0.080014,-0.289133,0.065730,-0.292711,0.051289,-0.295583,
0.036723,-0.297744,0.022069,-0.299187,0.007362,-0.299910,-0.007362,-0.299910,-0.022069,-0.299187,-0.036723,-0.297744,-0.051289,-0.295583,-0.065730,-0.292711,-0.080014,-0.289133,-0.094105,-0.284858,-0.107969,-0.279898,-0.121572,-0.274263,-0.134883,-0.267967,-0.147869,-0.261026,-0.160499,-0.253456,-0.172742,-0.245275,-0.184569,-0.236504,-0.195952,-0.227163,-0.206862,-0.217274,-0.217274,-0.206862,
-0.227163,-0.195952,-0.236504,-0.184569,-0.245275,-0.172742,-0.253456,-0.160499,-0.261026,-0.147869,-0.267967,-0.134883,-0.274263,-0.121572,-0.279898,-0.107969,-0.284858,-0.094105,-0.289133,-0.080014,-0.292711,-0.065730,-0.295583,-0.051289,-0.297744,-0.036723,-0.299187,-0.022069,-0.299910,-0.007362,-0.299910,0.007362,-0.299187,0.022069,-0.297744,0.036723,-0.295583,0.051289,-0.292711,0.065730,
-0.289133,0.080014,-0.284858,0.094105,-0.279898,0.107969,-0.274263,0.121572,-0.267967,0.134883,-0.261026,0.147869,-0.253456,0.160499,-0.245275,0.172742,-0.236504,0.184569,-0.227163,0.195952,-0.217274,0.206862,-0.206862,0.217274,-0.195952,0.227163,-0.184569,0.236504,-0.172742,0.245275,-0.160499,0.253456,-0.147869,0.261026,-0.134883,0.267967,-0.121572,0.274263,-0.107969,0.279898,
-0.094105,0.284858,-0.080014,0.289133,-0.065730,0.292711,-0.051289,0.295583,-0.036723,0.297744,-0.022069,0.299187,-0.007362,0.299910,0.007362,0.299910,0.022069,0.299187,0.022069,0.299187,$1*%
G04 Aperture macros list end*
%TA.AperFunction,ComponentPad*%
%ADD10HorizOval,1.050000X-0.454663X0.262500X0.454663X-0.262500X0*%
%TD*%
%TA.AperFunction,ComponentPad*%
%ADD11C,0.400000*%
%TD*%
%TA.AperFunction,ComponentPad*%
%ADD12C,1.600000*%
%TD*%
%TA.AperFunction,ComponentPad*%
%ADD13FreePoly0,0.000000*%
%TD*%
%TA.AperFunction,Conductor*%
%ADD14C,0.254000*%
%TD*%
G04 APERTURE END LIST*
D10*
%TO.P,,a9728bda-38a0-4284-839c-b054ecb6658e__2326611f-98f6-a130-ac94-da96fde3ec8f*%
%TO.N,N/C*%
X56843000Y-1574574D03*
%TO.P,,a9728bda-38a0-4284-839c-b054ecb6658e__9415c64b-4f59-a6d9-e7ea-dc5b1de656fb*%
X52523018Y-9057044D03*
%TO.P,,a9728bda-38a0-4284-839c-b054ecb6658e__9b3c6dc7-8e8d-43a0-5d61-3a6777006a6c*%
X56143009Y-11147035D03*
%TO.P,,a9728bda-38a0-4284-839c-b054ecb6658e__e8284091-fcc7-bc14-948c-a2f31e589c00*%
X60462991Y-3664565D03*
D11*
%TO.P,,ff6aa628-a694-44a5-a8a3-0151430d2fb0__ee3a696f-ef70-402c-ab0c-7137ed4eee28.defaultFootprint.mounts.183bc2e5b0fd3164e75ded3f1243107f*%
X51805084Y13290543D03*
%TO.P,,ff6aa628-a694-44a5-a8a3-0151430d2fb0__ee3a696f-ef70-402c-ab0c-7137ed4eee28.defaultFootprint.mounts.9dc978c55082aad2fafacdbd9f5f57bc*%
X50592650Y12590542D03*
%TO.P,,ff6aa628-a694-44a5-a8a3-0151430d2fb0__ee3a696f-ef70-402c-ab0c-7137ed4eee28.defaultFootprint.mounts.a0d68b55a491274f814daab068f0c950*%
X51105083Y14502978D03*
%TO.P,,ff6aa628-a694-44a5-a8a3-0151430d2fb0__ee3a696f-ef70-402c-ab0c-7137ed4eee28.defaultFootprint.mounts.afcd757d940930679b843bc1e4386240*%
X49892648Y13802977D03*
%TO.P,,ff6aa628-a694-44a5-a8a3-0151430d2fb0__ee3a696f-ef70-402c-ab0c-7137ed4eee28.defaultFootprint.mounts.4504ff15bdcf4818a54146cc7a8e9a0d*%
X50405081Y15715413D03*
%TO.P,,ff6aa628-a694-44a5-a8a3-0151430d2fb0__ee3a696f-ef70-402c-ab0c-7137ed4eee28.defaultFootprint.mounts.19f3852e009ba6bfae8a2fce513ef1dd*%
X49192647Y15015411D03*
%TO.P,,ff6aa628-a694-44a5-a8a3-0151430d2fb0__ee3a696f-ef70-402c-ab0c-7137ed4eee28.defaultFootprint.mounts.6d4d26d8edc27532900a7c937b5e863d*%
X52061301Y14246762D03*
%TO.P,,ff6aa628-a694-44a5-a8a3-0151430d2fb0__ee3a696f-ef70-402c-ab0c-7137ed4eee28.defaultFootprint.mounts.f2ecf32f083cf9b5783a264d7a48b752*%
X50848866Y13546760D03*
%TO.P,,ff6aa628-a694-44a5-a8a3-0151430d2fb0__ee3a696f-ef70-402c-ab0c-7137ed4eee28.defaultFootprint.mounts.cf10f8cc0c36fe03b55323802961a88d*%
X49636431Y12846759D03*
%TO.P,,ff6aa628-a694-44a5-a8a3-0151430d2fb0__ee3a696f-ef70-402c-ab0c-7137ed4eee28.defaultFootprint.mounts.52e844226e796b1c42a9f7f1323ab2f7*%
X51361299Y15459196D03*
%TO.P,,ff6aa628-a694-44a5-a8a3-0151430d2fb0__ee3a696f-ef70-402c-ab0c-7137ed4eee28.defaultFootprint.mounts.a17b4eabb5e4ad17dbcba1ef557d9230*%
X48936430Y14059193D03*
%TO.P,,ff6aa628-a694-44a5-a8a3-0151430d2fb0__ee3a696f-ef70-402c-ab0c-7137ed4eee28.defaultFootprint.mounts.fab9ee6953aa1da2d8a8f965443f1f1b*%
X50148865Y14759195D03*
D12*
%TO.P,,52a90573-88b1-424e-9db5-7f00e59fe35d__a62acf30-473f-9fe2-0504-059f88965630*%
X9299700Y-6864800D03*
%TO.P,,52a90573-88b1-424e-9db5-7f00e59fe35d__3d0e5c81-2b94-2588-9270-cc0b63aae38c*%
X6799700Y-6864800D03*
D13*
%TO.P,,6775c09e-24aa-4cb4-96bd-0e9dbbb39c8e*%
%TO.N,GND*%
X65882100Y1306800D03*
%TO.P,,bca37ccc-f576-4123-bd04-3af01d74a4e4*%
X56268000Y-196400D03*
%TO.P,,c2a06121-aa2e-44ef-a1a9-41b443d0512b*%
X51868600Y11714500D03*
%TO.P,,bbfc730c-79c0-46ee-9314-bfb150350888*%
X56267900Y3350600D03*
%TO.P,,bb25d5dc-cc56-4c14-9856-18a8bdec11ac*%
X42575300Y18264700D03*
%TO.P,,6d486441-d8c5-414f-bf81-0cfa98cb07fc.via3.8*%
X42750000Y22650000D03*
%TO.P,,6d486441-d8c5-414f-bf81-0cfa98cb07fc.via3.7*%
X27750000Y22650000D03*
%TO.P,,6d486441-d8c5-414f-bf81-0cfa98cb07fc.via3.6*%
X12750000Y22650000D03*
%TO.P,,6d486441-d8c5-414f-bf81-0cfa98cb07fc.via3.5*%
X-2250000Y22650000D03*
%TO.P,,6d486441-d8c5-414f-bf81-0cfa98cb07fc.via3.4*%
X-17250000Y22650000D03*
%TO.P,,6d486441-d8c5-414f-bf81-0cfa98cb07fc.via3.3*%
X-32250000Y22650000D03*
%TO.P,,6d486441-d8c5-414f-bf81-0cfa98cb07fc.via3.2*%
X-47250000Y22650000D03*
%TO.P,,6d486441-d8c5-414f-bf81-0cfa98cb07fc.via3.1*%
X-62250000Y22650000D03*
%TO.P,,6d486441-d8c5-414f-bf81-0cfa98cb07fc.via2.8*%
X42750000Y7650000D03*
%TO.P,,6d486441-d8c5-414f-bf81-0cfa98cb07fc.via2.6*%
X12750000Y7650000D03*
%TO.P,,6d486441-d8c5-414f-bf81-0cfa98cb07fc.via2.5*%
X-2250000Y7650000D03*
%TO.P,,6d486441-d8c5-414f-bf81-0cfa98cb07fc.via2.4*%
X-17250000Y7650000D03*
%TO.P,,6d486441-d8c5-414f-bf81-0cfa98cb07fc.via2.3*%
X-32250000Y7650000D03*
%TO.P,,6d486441-d8c5-414f-bf81-0cfa98cb07fc.via2.2*%
X-47250000Y7650000D03*
%TO.P,,6d486441-d8c5-414f-bf81-0cfa98cb07fc.via2.1*%
X-62250000Y7650000D03*
%TO.P,,6d486441-d8c5-414f-bf81-0cfa98cb07fc.via1.9*%
X57750000Y-7350000D03*
%TO.P,,6d486441-d8c5-414f-bf81-0cfa98cb07fc.via1.7*%
X27750000Y-7350000D03*
%TO.P,,6d486441-d8c5-414f-bf81-0cfa98cb07fc.via1.5*%
X-2250000Y-7350000D03*
%TO.P,,6d486441-d8c5-414f-bf81-0cfa98cb07fc.via1.4*%
X-17250000Y-7350000D03*
%TO.P,,6d486441-d8c5-414f-bf81-0cfa98cb07fc.via1.3*%
X-32250000Y-7350000D03*
%TO.P,,6d486441-d8c5-414f-bf81-0cfa98cb07fc.via1.2*%
X-47250000Y-7350000D03*
%TO.P,,6d486441-d8c5-414f-bf81-0cfa98cb07fc.via1.1*%
X-62250000Y-7350000D03*
%TO.P,,6d486441-d8c5-414f-bf81-0cfa98cb07fc.via1.8*%
X42750000Y-7350000D03*
%TO.P,,fb6fff71-3ec6-4a7f-8d99-817b3e6bc926*%
%TO.N,Net 3*%
X57367800Y495100D03*
%TO.P,,297875d3-6ab7-425d-822c-8615cb265d7d*%
X39690600Y14059200D03*
%TD*%
D14*
%TO.N,GND*%
X64378900Y-196400D02*
X65882100Y1306800D01*
X56267900Y-196400D02*
X64378900Y-196400D01*
X51868600Y11714400D02*
X51868800Y11714600D01*
X56267900Y7315100D02*
X51868500Y11714500D01*
X56267900Y3350500D02*
X56267900Y7315100D01*
X53524900Y7315100D02*
X42575300Y18264700D01*
X56267900Y7315100D02*
X53524900Y7315100D01*
%TO.N,Net 3*%
X47690500Y495100D02*
X44170100Y4015500D01*
X57367900Y495100D02*
X47690500Y495100D01*
X44170200Y8074600D02*
X41630200Y10614600D01*
X44170200Y4015400D02*
X44170200Y8074600D01*
X41630200Y12119600D02*
X39690600Y14059200D01*
X41630200Y10614600D02*
X41630200Y12119600D01*
%TD*%
%TA.AperFunction,Conductor*%
%TO.N,GND*%
G36*
X-8249000Y-22100000D02*
G01*
X-18399000Y-22099000D01*
X-28549000Y-22094000D01*
X-38699000Y-22088000D01*
X-48849000Y-22078000D01*
X-58999000Y-22065000D01*
X-68912000Y-22050000D01*
X-68990000Y-21993000D01*
X-69588000Y-20219000D01*
X-70263000Y-18216000D01*
X-70936000Y-16214000D01*
X-71609000Y-14210000D01*
X-72281000Y-12207000D01*
X-72699740Y-10958000D01*
X55561000Y-10958000D01*
X55561000Y-11036000D01*
X55585000Y-11125000D01*
X55624000Y-11193000D01*
X55626000Y-11196000D01*
X55684000Y-11254000D01*
X56205000Y-11555000D01*
X56277000Y-11596000D01*
X56363000Y-11619000D01*
X56442000Y-11619000D01*
X56529000Y-11596000D01*
X56531000Y-11595000D01*
X56599000Y-11556000D01*
X56601000Y-11555000D01*
X56660000Y-11496000D01*
X56662000Y-11493000D01*
X56701000Y-11425000D01*
X56702000Y-11423000D01*
X56725000Y-11336000D01*
X56725000Y-11258000D01*
X56702000Y-11171000D01*
X56701000Y-11169000D01*
X56662000Y-11101000D01*
X56660000Y-11098000D01*
X56602000Y-11040000D01*
X56009000Y-10698000D01*
X56010000Y-10698000D01*
X55923000Y-10675000D01*
X55844000Y-10675000D01*
X55757000Y-10698000D01*
X55755000Y-10699000D01*
X55687000Y-10738000D01*
X55684000Y-10740000D01*
X55626000Y-10798000D01*
X55624000Y-10801000D01*
X55585000Y-10869000D01*
X55584000Y-10871000D01*
X55561000Y-10958000D01*
X-72699740Y-10958000D01*
X-72977000Y-10131000D01*
X-72976000Y-10129000D01*
X-73439675Y-8743000D01*
X51724000Y-8743000D01*
X51724000Y-8821000D01*
X51747000Y-8907000D01*
X51748000Y-8910000D01*
X51788000Y-8979000D01*
X51850000Y-9041000D01*
X52783000Y-9579000D01*
X52785000Y-9580000D01*
X52874000Y-9631000D01*
X52960000Y-9654000D01*
X53039000Y-9654000D01*
X53126000Y-9631000D01*
X53125000Y-9631000D01*
X53198000Y-9589000D01*
X53258000Y-9529000D01*
X53298000Y-9460000D01*
X53299000Y-9457000D01*
X53322000Y-9371000D01*
X53322000Y-9293000D01*
X53299000Y-9207000D01*
X53298000Y-9204000D01*
X53258000Y-9135000D01*
X53172000Y-9049000D01*
X53288000Y-8850000D01*
X53587000Y-8931000D01*
X53808000Y-8931000D01*
X54025000Y-8872000D01*
X54215000Y-8762000D01*
X54216000Y-8761000D01*
X54375000Y-8605000D01*
X54376000Y-8604000D01*
X54484000Y-8414000D01*
X54485000Y-8412000D01*
X54544000Y-8193000D01*
X54544000Y-7973000D01*
X54486000Y-7758000D01*
X54375000Y-7564000D01*
X54219000Y-7408000D01*
X54220000Y-7408000D01*
X54025000Y-7295000D01*
X53808000Y-7237000D01*
X53586000Y-7237000D01*
X53369000Y-7295000D01*
X53175000Y-7408000D01*
X53019000Y-7564000D01*
X52908000Y-7758000D01*
X52850000Y-7973000D01*
X52850000Y-8193000D01*
X52909000Y-8412000D01*
X52910000Y-8414000D01*
X53018000Y-8604000D01*
X53019000Y-8605000D01*
X53177000Y-8761000D01*
X53017000Y-8971000D01*
X52172000Y-8483000D01*
X52173000Y-8483000D01*
X52086000Y-8460000D01*
X52007000Y-8460000D01*
X51921000Y-8483000D01*
X51848000Y-8525000D01*
X51788000Y-8585000D01*
X51748000Y-8654000D01*
X51747000Y-8657000D01*
X51724000Y-8743000D01*
X-73439675Y-8743000D01*
X-73622000Y-8198000D01*
X-74083356Y-6816000D01*
X6403000Y-6816000D01*
X6403000Y-6915000D01*
X6432000Y-7022000D01*
X6481000Y-7107000D01*
X6555000Y-7181000D01*
X6646000Y-7233000D01*
X6749000Y-7261000D01*
X6849000Y-7261000D01*
X6955000Y-7233000D01*
X6954000Y-7233000D01*
X7042000Y-7183000D01*
X7118000Y-7107000D01*
X7167000Y-7022000D01*
X7196000Y-6915000D01*
X7196000Y-6816000D01*
X7168000Y-6711000D01*
X7160000Y-6697000D01*
X8007000Y-6697000D01*
X8007000Y-7032000D01*
X8096000Y-7364000D01*
X8266000Y-7660000D01*
X8506000Y-7899000D01*
X8507000Y-7900000D01*
X8796000Y-8068000D01*
X8799000Y-8069000D01*
X9132000Y-8158000D01*
X9467000Y-8158000D01*
X9800000Y-8069000D01*
X9803000Y-8068000D01*
X10093000Y-7900000D01*
X10335000Y-7658000D01*
X10504000Y-7367000D01*
X10593000Y-7032000D01*
X10593000Y-6697000D01*
X10504000Y-6364000D01*
X10503000Y-6361000D01*
X10335000Y-6072000D01*
X10334000Y-6071000D01*
X10095000Y-5831000D01*
X9799000Y-5661000D01*
X9800000Y-5661000D01*
X9467000Y-5572000D01*
X9132000Y-5572000D01*
X8800000Y-5661000D01*
X8505000Y-5831000D01*
X8266000Y-6070000D01*
X8096000Y-6365000D01*
X8007000Y-6697000D01*
X7160000Y-6697000D01*
X7116000Y-6620000D01*
X7042000Y-6546000D01*
X6954000Y-6496000D01*
X6955000Y-6496000D01*
X6850000Y-6468000D01*
X6749000Y-6468000D01*
X6646000Y-6496000D01*
X6555000Y-6548000D01*
X6483000Y-6620000D01*
X6431000Y-6711000D01*
X6403000Y-6816000D01*
X-74083356Y-6816000D01*
X-74291000Y-6194000D01*
X-74960000Y-4189000D01*
X-75366927Y-2967000D01*
X55740000Y-2967000D01*
X55740000Y-3190000D01*
X55798000Y-3405000D01*
X55799000Y-3406000D01*
X55909000Y-3598000D01*
X56067000Y-3756000D01*
X56259000Y-3866000D01*
X56260000Y-3867000D01*
X56476000Y-3925000D01*
X56698000Y-3925000D01*
X56914000Y-3867000D01*
X56915000Y-3866000D01*
X57107000Y-3756000D01*
X57265000Y-3598000D01*
X57335469Y-3475000D01*
X59881000Y-3475000D01*
X59881000Y-3554000D01*
X59904000Y-3641000D01*
X59905000Y-3642000D01*
X59946000Y-3713000D01*
X60004000Y-3771000D01*
X60525000Y-4072000D01*
X60600000Y-4115000D01*
X60681000Y-4137000D01*
X60762000Y-4137000D01*
X60848000Y-4114000D01*
X60851000Y-4113000D01*
X60920000Y-4073000D01*
X60980000Y-4013000D01*
X61022000Y-3940000D01*
X61045000Y-3854000D01*
X61045000Y-3775000D01*
X61022000Y-3689000D01*
X60980000Y-3616000D01*
X60920000Y-3556000D01*
X60332000Y-3216000D01*
X60329000Y-3215000D01*
X60243000Y-3192000D01*
X60164000Y-3192000D01*
X60078000Y-3215000D01*
X60075000Y-3216000D01*
X60006000Y-3256000D01*
X59946000Y-3316000D01*
X59904000Y-3389000D01*
X59881000Y-3475000D01*
X57335469Y-3475000D01*
X57375000Y-3406000D01*
X57376000Y-3405000D01*
X57434000Y-3190000D01*
X57434000Y-2967000D01*
X57376000Y-2751000D01*
X57375000Y-2750000D01*
X57265000Y-2558000D01*
X57046000Y-2339000D01*
X57164000Y-2139000D01*
X57279000Y-2172000D01*
X57361000Y-2172000D01*
X57443000Y-2150000D01*
X57444000Y-2150000D01*
X57514000Y-2108000D01*
X57520000Y-2104000D01*
X57575000Y-2049000D01*
X57580000Y-2042000D01*
X57620000Y-1974000D01*
X57620000Y-1973000D01*
X57642000Y-1891000D01*
X57642000Y-1808000D01*
X57620000Y-1726000D01*
X57620000Y-1725000D01*
X57580000Y-1657000D01*
X57575000Y-1649000D01*
X57517000Y-1592000D01*
X57516000Y-1591000D01*
X56495000Y-1001000D01*
X56492000Y-1000000D01*
X56406000Y-977000D01*
X56325000Y-977000D01*
X56243000Y-999000D01*
X56172000Y-1041000D01*
X56167000Y-1045000D01*
X56111000Y-1100000D01*
X56106000Y-1107000D01*
X56066000Y-1175000D01*
X56066000Y-1176000D01*
X56044000Y-1258000D01*
X56044000Y-1341000D01*
X56066000Y-1423000D01*
X56066000Y-1424000D01*
X56106000Y-1492000D01*
X56112000Y-1499000D01*
X56169000Y-1557000D01*
X56170000Y-1558000D01*
X57015000Y-2046000D01*
X56914000Y-2289000D01*
X56698000Y-2231000D01*
X56476000Y-2231000D01*
X56260000Y-2289000D01*
X56259000Y-2290000D01*
X56067000Y-2400000D01*
X55909000Y-2558000D01*
X55799000Y-2750000D01*
X55798000Y-2751000D01*
X55740000Y-2967000D01*
X-75366927Y-2967000D01*
X-76296000Y-177000D01*
X-76946000Y1781000D01*
X-76950000Y1804000D01*
X-76965000Y3801000D01*
X-76978000Y5851000D01*
X-76978000Y5852000D01*
X-76988000Y7902000D01*
X-76994000Y9950000D01*
X-76999000Y12000000D01*
X-77000000Y14050000D01*
X-76999945Y14163000D01*
X38893000Y14163000D01*
X38893000Y13953000D01*
X38947000Y13748000D01*
X39054000Y13569000D01*
X39056000Y13567000D01*
X39200000Y13422000D01*
X39201000Y13421000D01*
X39383000Y13317000D01*
X39585000Y13263000D01*
X39619000Y13243000D01*
X40980000Y11881000D01*
X41003000Y11826000D01*
X41003000Y10705000D01*
X41002000Y10692000D01*
X41003000Y10657000D01*
X41003000Y10570000D01*
X41004000Y10562000D01*
X41003000Y10562000D01*
X41005000Y10553000D01*
X41006000Y10544000D01*
X41007000Y10510000D01*
X41024000Y10454000D01*
X41026000Y10447000D01*
X41037000Y10396000D01*
X41048000Y10375000D01*
X41054000Y10362000D01*
X41064000Y10331000D01*
X41100000Y10282000D01*
X41105000Y10273000D01*
X41136000Y10218000D01*
X41183000Y10175000D01*
X41186000Y10172000D01*
X43520000Y7837000D01*
X43543000Y7782000D01*
X43543000Y4105000D01*
X43542000Y4092000D01*
X43543000Y4057000D01*
X43543000Y3970000D01*
X43544000Y3962000D01*
X43543000Y3962000D01*
X43545000Y3953000D01*
X43546000Y3944000D01*
X43547000Y3910000D01*
X43564000Y3854000D01*
X43566000Y3847000D01*
X43577000Y3796000D01*
X43588000Y3775000D01*
X43594000Y3762000D01*
X43604000Y3731000D01*
X43640000Y3682000D01*
X43645000Y3673000D01*
X43676000Y3618000D01*
X43723000Y3575000D01*
X43726000Y3572000D01*
X47281000Y16000D01*
X47293000Y8000D01*
X47302000Y0D01*
X47324000Y-22000D01*
X47326000Y-23000D01*
X47377000Y-48000D01*
X47385000Y-53000D01*
X47431000Y-82000D01*
X47461000Y-90000D01*
X47477000Y-96000D01*
X47500000Y-108000D01*
X47557000Y-116000D01*
X47567000Y-118000D01*
X47625000Y-134000D01*
X47670000Y-132000D01*
X56839000Y-132000D01*
X56877000Y-142000D01*
X57065000Y-250000D01*
X57262000Y-302000D01*
X57471000Y-302000D01*
X57676000Y-248000D01*
X57677000Y-247000D01*
X57857000Y-143000D01*
X58005000Y4000D01*
X58006000Y5000D01*
X58113000Y192000D01*
X58165000Y389000D01*
X58165000Y601000D01*
X58113000Y798000D01*
X58006000Y985000D01*
X58005000Y986000D01*
X57856000Y1134000D01*
X57855000Y1135000D01*
X57682000Y1236000D01*
X57472000Y1293000D01*
X57264000Y1293000D01*
X57058000Y1236000D01*
X56877000Y1132000D01*
X56839000Y1122000D01*
X47982000Y1122000D01*
X47927000Y1145000D01*
X44820000Y4253000D01*
X44797000Y4308000D01*
X44797000Y7983000D01*
X44798000Y7992000D01*
X44797000Y8033000D01*
X44797000Y8120000D01*
X44796000Y8128000D01*
X44797000Y8128000D01*
X44795000Y8137000D01*
X44794000Y8146000D01*
X44793000Y8180000D01*
X44776000Y8236000D01*
X44774000Y8243000D01*
X44763000Y8294000D01*
X44752000Y8315000D01*
X44746000Y8328000D01*
X44737000Y8357000D01*
X44736000Y8359000D01*
X44700000Y8408000D01*
X44695000Y8417000D01*
X44664000Y8472000D01*
X44617000Y8515000D01*
X44614000Y8518000D01*
X42280000Y10853000D01*
X42257000Y10908000D01*
X42257000Y12027000D01*
X42258000Y12036000D01*
X42257000Y12077000D01*
X42257000Y12163000D01*
X42256000Y12173000D01*
X42257000Y12173000D01*
X42255000Y12182000D01*
X42254000Y12191000D01*
X42253000Y12224000D01*
X42233000Y12289000D01*
X42230000Y12299000D01*
X42222000Y12343000D01*
X42221000Y12344000D01*
X42209000Y12366000D01*
X42203000Y12380000D01*
X42197000Y12401000D01*
X42196000Y12403000D01*
X42168000Y12443000D01*
X42163000Y12450000D01*
X42127000Y12515000D01*
X42125000Y12517000D01*
X42069000Y12567000D01*
X42065000Y12570000D01*
X40509000Y14128000D01*
X40496647Y14149000D01*
X48238000Y14149000D01*
X48238000Y13963000D01*
X48286000Y13794000D01*
X48291000Y13782000D01*
X48377000Y13630000D01*
X48378000Y13629000D01*
X48506000Y13504000D01*
X48509000Y13502000D01*
X48665000Y13408000D01*
X48670000Y13406000D01*
X48843000Y13361000D01*
X48954000Y13361000D01*
X49041000Y13214000D01*
X48990000Y13122000D01*
X48984000Y13108000D01*
X48938000Y12943000D01*
X48938000Y12757000D01*
X48988000Y12573000D01*
X49079000Y12417000D01*
X49207000Y12289000D01*
X49363000Y12198000D01*
X49367000Y12197000D01*
X49540000Y12148000D01*
X49734000Y12148000D01*
X49934000Y12204000D01*
X50012000Y12184000D01*
X50163000Y12033000D01*
X50319000Y11942000D01*
X50503000Y11892000D01*
X50689000Y11892000D01*
X50862000Y11941000D01*
X50866000Y11942000D01*
X51022000Y12033000D01*
X51150000Y12161000D01*
X51241000Y12317000D01*
X51242000Y12319000D01*
X51291000Y12494000D01*
X51291000Y12608000D01*
X51438000Y12695000D01*
X51530000Y12644000D01*
X51542000Y12639000D01*
X51709000Y12592000D01*
X51895000Y12592000D01*
X52079000Y12642000D01*
X52235000Y12733000D01*
X52365000Y12863000D01*
X52458000Y13025000D01*
X52503000Y13198000D01*
X52503000Y13383000D01*
X52449000Y13591000D01*
X52470000Y13668000D01*
X52619000Y13817000D01*
X52710000Y13973000D01*
X52760000Y14157000D01*
X52760000Y14343000D01*
X52714000Y14508000D01*
X52709000Y14521000D01*
X52621000Y14676000D01*
X52620000Y14677000D01*
X52493000Y14802000D01*
X52331000Y14898000D01*
X52326000Y14900000D01*
X52153000Y14945000D01*
X52044000Y14945000D01*
X51957000Y15092000D01*
X52007000Y15181000D01*
X52012000Y15194000D01*
X52060000Y15363000D01*
X52060000Y15549000D01*
X52010000Y15733000D01*
X51919000Y15889000D01*
X51791000Y16017000D01*
X51626000Y16112000D01*
X51452000Y16157000D01*
X51270000Y16157000D01*
X51061000Y16103000D01*
X50984000Y16124000D01*
X50835000Y16273000D01*
X50679000Y16364000D01*
X50495000Y16414000D01*
X50309000Y16414000D01*
X50140000Y16366000D01*
X50132000Y16363000D01*
X49979000Y16277000D01*
X49845000Y16143000D01*
X49752000Y15981000D01*
X49707000Y15806000D01*
X49707000Y15697000D01*
X49555000Y15610000D01*
X49464000Y15664000D01*
X49462000Y15665000D01*
X49289000Y15714000D01*
X49103000Y15714000D01*
X48919000Y15664000D01*
X48763000Y15573000D01*
X48635000Y15445000D01*
X48544000Y15289000D01*
X48543000Y15285000D01*
X48494000Y15112000D01*
X48494000Y14918000D01*
X48550000Y14718000D01*
X48530000Y14640000D01*
X48379000Y14489000D01*
X48288000Y14332000D01*
X48238000Y14149000D01*
X40496647Y14149000D01*
X40489000Y14162000D01*
X40436000Y14362000D01*
X40329000Y14549000D01*
X40328000Y14550000D01*
X40179000Y14698000D01*
X40001000Y14800000D01*
X40002000Y14800000D01*
X39796000Y14857000D01*
X39585000Y14857000D01*
X39378000Y14800000D01*
X39201000Y14697000D01*
X39056000Y14552000D01*
X39056000Y14551000D01*
X38948000Y14370000D01*
X38948000Y14369000D01*
X38893000Y14163000D01*
X-76999945Y14163000D01*
X-76999000Y16099000D01*
X-76999000Y16100000D01*
X-76994000Y18150000D01*
X-76988000Y20198000D01*
X-76978000Y22248000D01*
X-76965000Y24298000D01*
X-76952000Y26111000D01*
X-76895000Y26189000D01*
X-75107000Y26791000D01*
X-73094000Y27468000D01*
X-71080000Y28145000D01*
X-69067000Y28822000D01*
X-67054000Y29497000D01*
X-65042000Y30173000D01*
X-63029000Y30847000D01*
X-61017000Y31522000D01*
X-59005000Y32195000D01*
X-56994000Y32868000D01*
X-54982000Y33541000D01*
X-53022000Y34196000D01*
X-52998000Y34200000D01*
X-44243000Y34203000D01*
X-35434000Y34206000D01*
X-17818000Y34206000D01*
X-9009000Y34203000D01*
X-201000Y34200000D01*
X8607000Y34195000D01*
X17416000Y34189000D01*
X26224000Y34181000D01*
X35032000Y34172000D01*
X43841000Y34162000D01*
X52461000Y34150000D01*
X52530000Y34110000D01*
X53825000Y31919000D01*
X55212000Y29563000D01*
X56597000Y27206000D01*
X57977000Y24850000D01*
X59356000Y22490000D01*
X60733000Y20127000D01*
X62106000Y17765000D01*
X63477000Y15400000D01*
X64846000Y13033000D01*
X66210000Y10667000D01*
X67573000Y8297000D01*
X68839000Y6091000D01*
X68839000Y6010000D01*
X67573000Y3804000D01*
X66210000Y1434000D01*
X64845000Y-933000D01*
X63477000Y-3299000D01*
X62106000Y-5664000D01*
X60733000Y-8028000D01*
X60732000Y-8028000D01*
X59356000Y-10389000D01*
X57977000Y-12749000D01*
X56596000Y-15107000D01*
X55212000Y-17463000D01*
X53825000Y-19819000D01*
X52531000Y-22011000D01*
X52462000Y-22050000D01*
X42499000Y-22065000D01*
X32349000Y-22078000D01*
X22201000Y-22088000D01*
X12051000Y-22094000D01*
X1901000Y-22099000D01*
X-8249000Y-22100000D01*
G37*
%TD.AperFunction*%
%TD*%
M02*
