M48
; DRILL file {KiCad 7.0.11-7.0.11~ubuntu20.04.1} date Fri Aug 16 15:28:37 2024
; FORMAT={-:-/ absolute / metric / decimal}
; #@! TF.CreationDate,2024-08-16T15:28:37+00:00
; #@! TF.GenerationSoftware,Kicad,Pcbnew,7.0.11-7.0.11~ubuntu20.04.1
; #@! TF.FileFunction,MixedPlating,1,2
FMAT,2
METRIC
; #@! TA.AperFunction,Plated,PTH,ComponentDrill
T1C0.200
; #@! TA.AperFunction,Plated,PTH,ComponentDrill
T2C0.300
; #@! TA.AperFunction,Plated,PTH,ComponentDrill
T3C0.650
; #@! TA.AperFunction,Plated,PTH,ComponentDrill
T4C0.965
; #@! TA.AperFunction,Plated,PTH,ComponentDrill
T5C1.000
; #@! TA.AperFunction,Plated,PTH,ComponentDrill
T6C2.700
; #@! TA.AperFunction,NonPlated,NPTH,ComponentDrill
T7C0.700
%
G90
G05
T1
X48.936Y14.059
X49.193Y15.015
X49.636Y12.847
X49.893Y13.803
X50.149Y14.759
X50.405Y15.715
X50.593Y12.591
X50.849Y13.547
X51.105Y14.503
X51.361Y15.459
X51.805Y13.291
X52.061Y14.247
T2
X-68.515Y-21.415
X-63.249Y-21.211
X-62.25Y22.65
X-62.25Y7.65
X-47.25Y22.65
X-47.25Y7.65
X-47.25Y-7.35
X-37.317Y31.007
X-34.367Y30.671
X-33.98Y26.877
X-33.511Y23.643
X-33.405Y27.781
X-32.25Y7.65
X-31.621Y30.653
X-31.278Y26.392
X-30.393Y29.614
X-30.393Y21.157
X-27.485Y30.341
X-27.485Y29.84
X-26.791Y27.459
X-26.61Y19.322
X-25.866Y28.438
X-25.866Y27.601
X-24.65Y30.899
X-24.299Y24.978
X-24.098Y28.315
X-23.9Y25.685
X-23.306Y23.649
X-23.285Y6.424
X-22.681Y26.392
X-22.462Y27.961
X-21.772Y14.448
X-21.442Y9.7
X-21.374Y29.022
X-20.707Y9.064
X-20.537Y25.356
X-20.02Y31.578
X-20.02Y29.336
X-19.852Y22.218
X-19.611Y30.899
X-19.611Y27.698
X-18.405Y26.392
X-17.535Y29.336
X-17.25Y7.65
X-17.25Y-7.35
X-15.711Y18.409
X-15.408Y-16.037
X-10.011Y-7.823
X-9.98Y-10.61
X-8.884Y-17.653
X-5.524Y17.615
X-3.941Y-16.177
X-2.733Y-12.055
X-2.627Y-12.898
X-2.25Y7.65
X-2.204Y-10.656
X-1.649Y-13.281
X-1.649Y-11.82
X-1.357Y22.845
X-1.048Y-18.081
X0.513Y-11.82
X0.513Y-12.898
X2.339Y-10.656
X2.339Y-11.82
X2.339Y-13.656
X2.451Y-18.081
X3.02Y-9.601
X3.89Y-11.49
X5.523Y-14.402
X6.936Y29.968
X7.551Y27.698
X15.05Y-18.064
X24.965Y27.08
X25.764Y27.762
X27.75Y22.65
X32.244Y4.4
X32.557Y5.196
X33.012Y-17.404
X33.126Y5.936
X33.677Y6.629
X33.677Y-3.543
X34.185Y2.922
X34.328Y7.315
X34.703Y-18.311
X34.82Y0.752
X34.82Y-0.755
X35.599Y15.328
X35.663Y8.431
X35.69Y-18.31
X36.374Y-18.703
X36.623Y-21.566
X36.634Y32.094
X36.814Y26.868
X36.835Y12.941
X37.028Y-8.777
X37.059Y30.275
X37.608Y15.118
X37.63Y2.55
X37.63Y-5.1
X37.812Y-18.311
X37.812Y-18.311
X37.822Y11.423
X38.212Y-14.388
X38.799Y14.675
X38.905Y-9.611
X38.905Y-11.655
X39.471Y-14.388
X39.471Y-14.388
X39.691Y14.059
X39.691Y12.12
X39.691Y11.093
X39.691Y2.294
X40.099Y10.261
X40.534Y-16.011
X40.675Y9.824
X40.675Y9.008
X41.135Y-11.655
X41.411Y8.075
X41.779Y-19.976
X41.779Y-19.976
X41.779Y-19.976
X41.958Y-6.323
X42.265Y7.315
X42.485Y-12.677
X42.575Y18.265
X42.817Y-15.663
X42.9Y4.4
X42.9Y2.489
X43.031Y-18.063
X43.726Y-1.109
X44.024Y-18.396
X44.024Y-20.354
X44.323Y27.662
X45.44Y18.265
X46.453Y0.752
X46.77Y-16.013
X46.77Y-18.482
X46.934Y20.113
X47.264Y-15.663
X47.424Y-16.726
X47.612Y30.899
X47.612Y20.464
X48.124Y-17.04
X48.342Y-18.396
X48.379Y12.94
X48.425Y-0.009
X48.555Y8.695
X48.896Y17.088
X49.35Y-4.194
X49.392Y-20.658
X49.616Y1.685
X50.076Y-20.224
X50.094Y23.297
X50.748Y-5.075
X50.932Y-2.149
X50.959Y-6.132
X51.181Y-16.413
X51.27Y30.607
X51.462Y-13.651
X51.784Y-13.036
X51.868Y6.268
X51.869Y11.714
X51.981Y-3.543
X52.266Y-15.109
X52.411Y12.59
X52.625Y-13.651
X53.266Y-2.315
X53.516Y-3.078
X54.068Y23.764
X54.266Y3.204
X54.471Y9.34
X54.755Y1.537
X54.94Y10.615
X54.995Y-15.109
X55.934Y8.619
X56.082Y1.537
X56.268Y3.351
X56.268Y-0.196
X57.368Y0.495
X57.912Y1.307
X59.343Y11.936
X59.35Y-2.181
X60.956Y2.164
X62.644Y0.752
X63.556Y7.313
X65.882Y1.307
X66.775Y3.45
T4
X-67.878Y-7.246
X-67.009Y-9.632
X-66.14Y-12.019
T5
X-6.177Y26.038
X-3.637Y26.038
X-1.097Y26.038
X1.443Y26.038
X3.983Y26.038
X6.523Y26.038
X9.063Y26.038
X11.603Y26.038
T6
X-13.287Y26.038
X-13.287Y-13.462
X18.713Y26.038
X18.713Y-13.462
T7
X53.697Y-8.084
X56.587Y-3.078
T3
G00X52.047Y-8.782
M15
G01X52.999Y-9.332
M16
G05
G00X55.883Y-10.997
M15
G01X56.403Y-11.297
M16
G05
G00X56.367Y-1.3
M15
G01X57.319Y-1.85
M16
G05
G00X60.203Y-3.515
M15
G01X60.723Y-3.815
M16
G05
M30
