%TF.GenerationSoftware,Flux,Pcbnew,7.0.11-7.0.11~ubuntu20.04.1*%
%TF.CreationDate,2024-08-16T15:28:37+00:00*%
%TF.ProjectId,input,696e7075-742e-46b6-9963-61645f706362,rev?*%
%TF.SameCoordinates,Original*%
%TF.FileFunction,Soldermask,Bot*%
%TF.FilePolarity,Negative*%
%FSLAX46Y46*%
G04 Gerber Fmt 4.6, Leading zero omitted, Abs format (unit mm)*
G04 Filename: betterflipperzero*
G04 Build it with Flux! Visit our site at: https://www.flux.ai (PCBNEW 7.0.11-7.0.11~ubuntu20.04.1) date 2024-08-16 15:28:37*
%MOMM*%
%LPD*%
G01*
G04 APERTURE LIST*
G04 APERTURE END LIST*
%TO.C,*%
G36*
X-67827750Y-6510666D02*
G01*
X-67791751Y-6514014D01*
X-67755960Y-6519124D01*
X-67720462Y-6525983D01*
X-67685344Y-6534577D01*
X-67650690Y-6544883D01*
X-67616583Y-6556877D01*
X-67583106Y-6570530D01*
X-67550340Y-6585810D01*
X-67518362Y-6602678D01*
X-67487251Y-6621096D01*
X-67457081Y-6641018D01*
X-67427924Y-6662396D01*
X-67399852Y-6685179D01*
X-67372932Y-6709313D01*
X-67347228Y-6734738D01*
X-67322802Y-6761393D01*
X-67299714Y-6789215D01*
X-67278019Y-6818137D01*
X-67257769Y-6848088D01*
X-67239014Y-6878996D01*
X-67221797Y-6910788D01*
X-67206161Y-6943386D01*
X-67192143Y-6976712D01*
X-67179778Y-7010686D01*
X-67169094Y-7045226D01*
X-67160119Y-7080248D01*
X-67152872Y-7115668D01*
X-67147372Y-7151402D01*
X-67143632Y-7187362D01*
X-67141661Y-7223462D01*
X-67141464Y-7259616D01*
X-67143041Y-7295735D01*
X-67146389Y-7331734D01*
X-67151498Y-7367526D01*
X-67158358Y-7403023D01*
X-67166951Y-7438141D01*
X-67177258Y-7472795D01*
X-67189252Y-7506902D01*
X-67202905Y-7540379D01*
X-67218184Y-7573145D01*
X-67235053Y-7605123D01*
X-67253471Y-7636234D01*
X-67273393Y-7666405D01*
X-67294771Y-7695561D01*
X-67317554Y-7723633D01*
X-67341687Y-7750554D01*
X-67367112Y-7776257D01*
X-67393768Y-7800683D01*
X-67421590Y-7823771D01*
X-67450511Y-7845466D01*
X-67480462Y-7865716D01*
X-67511371Y-7884472D01*
X-67543163Y-7901688D01*
X-67575761Y-7917324D01*
X-67609087Y-7931342D01*
X-67643061Y-7943707D01*
X-67677600Y-7954391D01*
X-67712622Y-7963366D01*
X-67748043Y-7970613D01*
X-67783776Y-7976113D01*
X-67819736Y-7979853D01*
X-67855837Y-7981824D01*
X-67891990Y-7982021D01*
X-67928110Y-7980444D01*
X-67964109Y-7977097D01*
X-67999900Y-7971987D01*
X-68035398Y-7965127D01*
X-68070516Y-7956534D01*
X-68105170Y-7946228D01*
X-68139276Y-7934233D01*
X-68172753Y-7920580D01*
X-68205520Y-7905301D01*
X-68237498Y-7888432D01*
X-68268609Y-7870014D01*
X-68298779Y-7850093D01*
X-68327936Y-7828714D01*
X-68356008Y-7805931D01*
X-68382928Y-7781798D01*
X-68408632Y-7756373D01*
X-68433057Y-7729717D01*
X-68456146Y-7701895D01*
X-68477841Y-7672974D01*
X-68498090Y-7643023D01*
X-68516846Y-7612114D01*
X-68534063Y-7580323D01*
X-68549699Y-7547724D01*
X-68563716Y-7514398D01*
X-68576082Y-7480425D01*
X-68586765Y-7445885D01*
X-68595741Y-7410863D01*
X-68602988Y-7375442D01*
X-68608488Y-7339709D01*
X-68612228Y-7303749D01*
X-68614198Y-7267648D01*
X-68614369Y-7236343D01*
X-68360442Y-7236343D01*
X-68360313Y-7260030D01*
X-68359021Y-7283682D01*
X-68356571Y-7307242D01*
X-68352968Y-7330654D01*
X-68348220Y-7353860D01*
X-68342339Y-7376806D01*
X-68335340Y-7399435D01*
X-68327238Y-7421694D01*
X-68318054Y-7443528D01*
X-68307810Y-7464886D01*
X-68296530Y-7485715D01*
X-68284242Y-7505965D01*
X-68270975Y-7525588D01*
X-68256761Y-7544537D01*
X-68241634Y-7562765D01*
X-68225631Y-7580229D01*
X-68208791Y-7596887D01*
X-68191153Y-7612698D01*
X-68172761Y-7627625D01*
X-68153659Y-7641631D01*
X-68133892Y-7654684D01*
X-68113509Y-7666750D01*
X-68092558Y-7677802D01*
X-68071090Y-7687813D01*
X-68049157Y-7696758D01*
X-68026811Y-7704616D01*
X-68004107Y-7711369D01*
X-67981098Y-7716999D01*
X-67957841Y-7721493D01*
X-67934392Y-7724841D01*
X-67910807Y-7727034D01*
X-67887142Y-7728067D01*
X-67863455Y-7727938D01*
X-67839803Y-7726647D01*
X-67816243Y-7724197D01*
X-67792831Y-7720593D01*
X-67769625Y-7715845D01*
X-67746679Y-7709965D01*
X-67724050Y-7702965D01*
X-67701791Y-7694864D01*
X-67679957Y-7685680D01*
X-67658600Y-7675435D01*
X-67637771Y-7664156D01*
X-67617520Y-7651867D01*
X-67597897Y-7638600D01*
X-67578948Y-7624386D01*
X-67560720Y-7609260D01*
X-67543256Y-7593257D01*
X-67526598Y-7576416D01*
X-67510787Y-7558779D01*
X-67495860Y-7540387D01*
X-67481854Y-7521284D01*
X-67468801Y-7501517D01*
X-67456735Y-7481134D01*
X-67445683Y-7460183D01*
X-67435672Y-7438715D01*
X-67426727Y-7416782D01*
X-67418869Y-7394436D01*
X-67412116Y-7371732D01*
X-67406486Y-7348724D01*
X-67401992Y-7325467D01*
X-67398644Y-7302017D01*
X-67396451Y-7278432D01*
X-67395418Y-7254767D01*
X-67395547Y-7231080D01*
X-67396838Y-7207428D01*
X-67399289Y-7183868D01*
X-67402892Y-7160457D01*
X-67407640Y-7137250D01*
X-67413520Y-7114305D01*
X-67420520Y-7091675D01*
X-67428622Y-7069417D01*
X-67437805Y-7047582D01*
X-67448050Y-7026225D01*
X-67459330Y-7005396D01*
X-67471618Y-6985145D01*
X-67484885Y-6965522D01*
X-67499099Y-6946574D01*
X-67514226Y-6928346D01*
X-67530228Y-6910882D01*
X-67547069Y-6894224D01*
X-67564706Y-6878412D01*
X-67583099Y-6863486D01*
X-67602201Y-6849479D01*
X-67621968Y-6836427D01*
X-67642351Y-6824360D01*
X-67663302Y-6813308D01*
X-67684770Y-6803298D01*
X-67706703Y-6794352D01*
X-67729049Y-6786494D01*
X-67751753Y-6779742D01*
X-67774761Y-6774112D01*
X-67798018Y-6769617D01*
X-67821468Y-6766270D01*
X-67845053Y-6764076D01*
X-67868718Y-6763043D01*
X-67892405Y-6763172D01*
X-67916057Y-6764464D01*
X-67939617Y-6766914D01*
X-67963028Y-6770517D01*
X-67986235Y-6775265D01*
X-68009180Y-6781146D01*
X-68031810Y-6788145D01*
X-68054068Y-6796247D01*
X-68075903Y-6805431D01*
X-68097260Y-6815675D01*
X-68118089Y-6826955D01*
X-68138340Y-6839243D01*
X-68157963Y-6852510D01*
X-68176911Y-6866724D01*
X-68195139Y-6881851D01*
X-68212604Y-6897854D01*
X-68229261Y-6914694D01*
X-68245073Y-6932332D01*
X-68260000Y-6950724D01*
X-68274006Y-6969826D01*
X-68287058Y-6989593D01*
X-68299125Y-7009976D01*
X-68310177Y-7030927D01*
X-68320188Y-7052395D01*
X-68329133Y-7074328D01*
X-68336991Y-7096674D01*
X-68343743Y-7119378D01*
X-68349373Y-7142387D01*
X-68353868Y-7165644D01*
X-68357216Y-7189093D01*
X-68359409Y-7212679D01*
X-68360442Y-7236343D01*
X-68614369Y-7236343D01*
X-68614396Y-7231495D01*
X-68612819Y-7195375D01*
X-68609471Y-7159376D01*
X-68604361Y-7123585D01*
X-68597502Y-7088088D01*
X-68588908Y-7052970D01*
X-68578602Y-7018315D01*
X-68566608Y-6984209D01*
X-68552955Y-6950732D01*
X-68537675Y-6917965D01*
X-68520807Y-6885987D01*
X-68502389Y-6854876D01*
X-68482467Y-6824706D01*
X-68461089Y-6795550D01*
X-68438306Y-6767477D01*
X-68414173Y-6740557D01*
X-68388748Y-6714853D01*
X-68362092Y-6690428D01*
X-68334270Y-6667340D01*
X-68305349Y-6645645D01*
X-68275397Y-6625395D01*
X-68244489Y-6606639D01*
X-68212697Y-6589422D01*
X-68180099Y-6573786D01*
X-68146773Y-6559769D01*
X-68112799Y-6547403D01*
X-68078260Y-6536720D01*
X-68043237Y-6527744D01*
X-68007817Y-6520497D01*
X-67972084Y-6514997D01*
X-67936123Y-6511258D01*
X-67900023Y-6509287D01*
X-67863869Y-6509089D01*
X-67827750Y-6510666D01*
G37*
G36*
X-66959017Y-8897485D02*
G01*
X-66923018Y-8900833D01*
X-66887227Y-8905943D01*
X-66851730Y-8912802D01*
X-66816612Y-8921396D01*
X-66781958Y-8931702D01*
X-66747851Y-8943696D01*
X-66714374Y-8957349D01*
X-66681607Y-8972629D01*
X-66649630Y-8989497D01*
X-66618518Y-9007915D01*
X-66588348Y-9027837D01*
X-66559192Y-9049215D01*
X-66531120Y-9071998D01*
X-66504199Y-9096131D01*
X-66478495Y-9121556D01*
X-66454070Y-9148212D01*
X-66430982Y-9176034D01*
X-66409287Y-9204955D01*
X-66389037Y-9234906D01*
X-66370281Y-9265815D01*
X-66353065Y-9297607D01*
X-66337429Y-9330205D01*
X-66323411Y-9363531D01*
X-66311046Y-9397505D01*
X-66300362Y-9432044D01*
X-66291386Y-9467067D01*
X-66284140Y-9502487D01*
X-66278640Y-9538220D01*
X-66274900Y-9574181D01*
X-66272929Y-9610281D01*
X-66272732Y-9646435D01*
X-66274309Y-9682554D01*
X-66277656Y-9718553D01*
X-66282766Y-9754344D01*
X-66289626Y-9789842D01*
X-66298219Y-9824960D01*
X-66308525Y-9859614D01*
X-66320519Y-9893721D01*
X-66334173Y-9927198D01*
X-66349452Y-9959964D01*
X-66366321Y-9991942D01*
X-66384738Y-10023053D01*
X-66404660Y-10053223D01*
X-66426039Y-10082380D01*
X-66448822Y-10110452D01*
X-66472955Y-10137372D01*
X-66498380Y-10163076D01*
X-66525036Y-10187502D01*
X-66552858Y-10210590D01*
X-66581779Y-10232285D01*
X-66611730Y-10252535D01*
X-66642639Y-10271290D01*
X-66674430Y-10288507D01*
X-66707028Y-10304143D01*
X-66740355Y-10318160D01*
X-66774328Y-10330526D01*
X-66808868Y-10341209D01*
X-66843890Y-10350185D01*
X-66879311Y-10357432D01*
X-66915044Y-10362932D01*
X-66951004Y-10366672D01*
X-66987104Y-10368643D01*
X-67023258Y-10368840D01*
X-67059378Y-10367263D01*
X-67095377Y-10363915D01*
X-67131168Y-10358806D01*
X-67166665Y-10351946D01*
X-67201783Y-10343352D01*
X-67236437Y-10333046D01*
X-67270544Y-10321052D01*
X-67304021Y-10307399D01*
X-67336788Y-10292120D01*
X-67368765Y-10275251D01*
X-67399877Y-10256833D01*
X-67430047Y-10236911D01*
X-67459203Y-10215533D01*
X-67487275Y-10192750D01*
X-67514196Y-10168617D01*
X-67539900Y-10143192D01*
X-67564325Y-10116536D01*
X-67587413Y-10088714D01*
X-67609108Y-10059793D01*
X-67629358Y-10029842D01*
X-67648114Y-9998933D01*
X-67665330Y-9967141D01*
X-67680966Y-9934543D01*
X-67694984Y-9901217D01*
X-67707349Y-9867243D01*
X-67718033Y-9832704D01*
X-67727009Y-9797682D01*
X-67734255Y-9762261D01*
X-67739755Y-9726528D01*
X-67743495Y-9690568D01*
X-67745466Y-9654467D01*
X-67745637Y-9623162D01*
X-67491710Y-9623162D01*
X-67491580Y-9646849D01*
X-67490289Y-9670501D01*
X-67487839Y-9694061D01*
X-67484235Y-9717472D01*
X-67479488Y-9740679D01*
X-67473607Y-9763625D01*
X-67466607Y-9786254D01*
X-67458506Y-9808513D01*
X-67449322Y-9830347D01*
X-67439078Y-9851704D01*
X-67427798Y-9872533D01*
X-67415510Y-9892784D01*
X-67402243Y-9912407D01*
X-67388028Y-9931355D01*
X-67372902Y-9949584D01*
X-67356899Y-9967048D01*
X-67340059Y-9983706D01*
X-67322421Y-9999517D01*
X-67304029Y-10014444D01*
X-67284926Y-10028450D01*
X-67265160Y-10041503D01*
X-67244776Y-10053569D01*
X-67223826Y-10064621D01*
X-67202358Y-10074632D01*
X-67180425Y-10083577D01*
X-67158079Y-10091435D01*
X-67135374Y-10098188D01*
X-67112366Y-10103818D01*
X-67089109Y-10108312D01*
X-67065660Y-10111660D01*
X-67042074Y-10113853D01*
X-67018410Y-10114886D01*
X-66994723Y-10114757D01*
X-66971071Y-10113466D01*
X-66947511Y-10111015D01*
X-66924099Y-10107412D01*
X-66900893Y-10102664D01*
X-66877947Y-10096783D01*
X-66855318Y-10089784D01*
X-66833059Y-10081682D01*
X-66811225Y-10072498D01*
X-66789867Y-10062254D01*
X-66769038Y-10050974D01*
X-66748788Y-10038686D01*
X-66729165Y-10025419D01*
X-66710216Y-10011205D01*
X-66691988Y-9996078D01*
X-66674524Y-9980076D01*
X-66657866Y-9963235D01*
X-66642055Y-9945598D01*
X-66627128Y-9927205D01*
X-66613121Y-9908103D01*
X-66600069Y-9888336D01*
X-66588002Y-9867953D01*
X-66576950Y-9847002D01*
X-66566940Y-9825534D01*
X-66557995Y-9803601D01*
X-66550136Y-9781255D01*
X-66543384Y-9758551D01*
X-66537754Y-9735543D01*
X-66533260Y-9712286D01*
X-66529912Y-9688836D01*
X-66527719Y-9665251D01*
X-66526685Y-9641586D01*
X-66526815Y-9617899D01*
X-66528106Y-9594247D01*
X-66530556Y-9570687D01*
X-66534160Y-9547276D01*
X-66538907Y-9524069D01*
X-66544788Y-9501124D01*
X-66551788Y-9478494D01*
X-66559889Y-9456236D01*
X-66569073Y-9434401D01*
X-66579317Y-9413044D01*
X-66590597Y-9392215D01*
X-66602885Y-9371964D01*
X-66616153Y-9352341D01*
X-66630367Y-9333393D01*
X-66645493Y-9315164D01*
X-66661496Y-9297700D01*
X-66678337Y-9281043D01*
X-66695974Y-9265231D01*
X-66714366Y-9250304D01*
X-66733469Y-9236298D01*
X-66753235Y-9223246D01*
X-66773619Y-9211179D01*
X-66794569Y-9200127D01*
X-66816037Y-9190116D01*
X-66837971Y-9181171D01*
X-66860316Y-9173313D01*
X-66883021Y-9166561D01*
X-66906029Y-9160931D01*
X-66929286Y-9156436D01*
X-66952735Y-9153088D01*
X-66976321Y-9150895D01*
X-66999986Y-9149862D01*
X-67023672Y-9149991D01*
X-67047324Y-9151282D01*
X-67070884Y-9153733D01*
X-67094296Y-9157336D01*
X-67117502Y-9162084D01*
X-67140448Y-9167965D01*
X-67163077Y-9174964D01*
X-67185336Y-9183066D01*
X-67207170Y-9192250D01*
X-67228528Y-9202494D01*
X-67249357Y-9213774D01*
X-67269607Y-9226062D01*
X-67289230Y-9239329D01*
X-67308179Y-9253543D01*
X-67326407Y-9268670D01*
X-67343871Y-9284673D01*
X-67360529Y-9301513D01*
X-67376340Y-9319151D01*
X-67391267Y-9337543D01*
X-67405274Y-9356645D01*
X-67418326Y-9376412D01*
X-67430393Y-9396795D01*
X-67441445Y-9417746D01*
X-67451455Y-9439214D01*
X-67460400Y-9461147D01*
X-67468259Y-9483493D01*
X-67475011Y-9506197D01*
X-67480641Y-9529206D01*
X-67485135Y-9552463D01*
X-67488483Y-9575912D01*
X-67490676Y-9599497D01*
X-67491710Y-9623162D01*
X-67745637Y-9623162D01*
X-67745663Y-9618314D01*
X-67744086Y-9582194D01*
X-67740739Y-9546195D01*
X-67735629Y-9510404D01*
X-67728769Y-9474906D01*
X-67720176Y-9439788D01*
X-67709870Y-9405134D01*
X-67697876Y-9371028D01*
X-67684223Y-9337551D01*
X-67668943Y-9304784D01*
X-67652074Y-9272806D01*
X-67633657Y-9241695D01*
X-67613735Y-9211525D01*
X-67592357Y-9182368D01*
X-67569573Y-9154296D01*
X-67545440Y-9127376D01*
X-67520015Y-9101672D01*
X-67493360Y-9077246D01*
X-67465538Y-9054158D01*
X-67436616Y-9032463D01*
X-67406665Y-9012214D01*
X-67375757Y-8993458D01*
X-67343965Y-8976241D01*
X-67311367Y-8960605D01*
X-67278041Y-8946588D01*
X-67244067Y-8934222D01*
X-67209527Y-8923539D01*
X-67174505Y-8914563D01*
X-67139085Y-8907316D01*
X-67103351Y-8901816D01*
X-67067391Y-8898076D01*
X-67031291Y-8896105D01*
X-66995137Y-8895908D01*
X-66959017Y-8897485D01*
G37*
G36*
X-66090285Y-11284304D02*
G01*
X-66054286Y-11287652D01*
X-66018495Y-11292761D01*
X-65982998Y-11299621D01*
X-65947880Y-11308215D01*
X-65913225Y-11318521D01*
X-65879119Y-11330515D01*
X-65845642Y-11344168D01*
X-65812875Y-11359447D01*
X-65780897Y-11376316D01*
X-65749786Y-11394734D01*
X-65719616Y-11414656D01*
X-65690460Y-11436034D01*
X-65662387Y-11458817D01*
X-65635467Y-11482950D01*
X-65609763Y-11508375D01*
X-65585338Y-11535031D01*
X-65562250Y-11562853D01*
X-65540555Y-11591774D01*
X-65520305Y-11621725D01*
X-65501549Y-11652634D01*
X-65484332Y-11684426D01*
X-65468696Y-11717024D01*
X-65454679Y-11750350D01*
X-65442313Y-11784324D01*
X-65431630Y-11818863D01*
X-65422654Y-11853885D01*
X-65415407Y-11889306D01*
X-65409907Y-11925039D01*
X-65406168Y-11960999D01*
X-65404197Y-11997100D01*
X-65403999Y-12033253D01*
X-65405576Y-12069373D01*
X-65408924Y-12105372D01*
X-65414034Y-12141163D01*
X-65420894Y-12176661D01*
X-65429487Y-12211779D01*
X-65439793Y-12246433D01*
X-65451787Y-12280539D01*
X-65465440Y-12314016D01*
X-65480720Y-12346783D01*
X-65497588Y-12378761D01*
X-65516006Y-12409872D01*
X-65535928Y-12440042D01*
X-65557306Y-12469199D01*
X-65580089Y-12497271D01*
X-65604223Y-12524191D01*
X-65629648Y-12549895D01*
X-65656303Y-12574321D01*
X-65684125Y-12597409D01*
X-65713047Y-12619104D01*
X-65742998Y-12639353D01*
X-65773906Y-12658109D01*
X-65805698Y-12675326D01*
X-65838296Y-12690962D01*
X-65871622Y-12704979D01*
X-65905596Y-12717345D01*
X-65940136Y-12728028D01*
X-65975158Y-12737004D01*
X-66010578Y-12744251D01*
X-66046312Y-12749751D01*
X-66082272Y-12753491D01*
X-66118372Y-12755462D01*
X-66154526Y-12755659D01*
X-66190645Y-12754082D01*
X-66226644Y-12750734D01*
X-66262436Y-12745624D01*
X-66297933Y-12738765D01*
X-66333051Y-12730171D01*
X-66367705Y-12719865D01*
X-66401812Y-12707871D01*
X-66435289Y-12694218D01*
X-66468055Y-12678938D01*
X-66500033Y-12662070D01*
X-66531144Y-12643652D01*
X-66561315Y-12623730D01*
X-66590471Y-12602352D01*
X-66618543Y-12579569D01*
X-66645464Y-12555436D01*
X-66671167Y-12530011D01*
X-66695593Y-12503355D01*
X-66718681Y-12475533D01*
X-66740376Y-12446612D01*
X-66760626Y-12416661D01*
X-66779382Y-12385752D01*
X-66796598Y-12353960D01*
X-66812234Y-12321362D01*
X-66826252Y-12288036D01*
X-66838617Y-12254062D01*
X-66849301Y-12219523D01*
X-66858277Y-12184500D01*
X-66865523Y-12149080D01*
X-66871023Y-12113347D01*
X-66874763Y-12077386D01*
X-66876734Y-12041286D01*
X-66876905Y-12009981D01*
X-66622977Y-12009981D01*
X-66622848Y-12033668D01*
X-66621557Y-12057320D01*
X-66619107Y-12080880D01*
X-66615503Y-12104291D01*
X-66610755Y-12127498D01*
X-66604875Y-12150443D01*
X-66597875Y-12173073D01*
X-66589774Y-12195331D01*
X-66580590Y-12217166D01*
X-66570345Y-12238523D01*
X-66559066Y-12259352D01*
X-66546777Y-12279603D01*
X-66533510Y-12299226D01*
X-66519296Y-12318174D01*
X-66504170Y-12336403D01*
X-66488167Y-12353867D01*
X-66471326Y-12370524D01*
X-66453689Y-12386336D01*
X-66435297Y-12401263D01*
X-66416194Y-12415269D01*
X-66396427Y-12428321D01*
X-66376044Y-12440388D01*
X-66355093Y-12451440D01*
X-66333625Y-12461451D01*
X-66311692Y-12470396D01*
X-66289347Y-12478254D01*
X-66266642Y-12485006D01*
X-66243634Y-12490636D01*
X-66220377Y-12495131D01*
X-66196927Y-12498479D01*
X-66173342Y-12500672D01*
X-66149677Y-12501705D01*
X-66125990Y-12501576D01*
X-66102338Y-12500285D01*
X-66078778Y-12497834D01*
X-66055367Y-12494231D01*
X-66032160Y-12489483D01*
X-66009215Y-12483602D01*
X-65986585Y-12476603D01*
X-65964327Y-12468501D01*
X-65942492Y-12459317D01*
X-65921135Y-12449073D01*
X-65900306Y-12437793D01*
X-65880055Y-12425505D01*
X-65860432Y-12412238D01*
X-65841484Y-12398024D01*
X-65823256Y-12382897D01*
X-65805792Y-12366894D01*
X-65789134Y-12350054D01*
X-65773322Y-12332416D01*
X-65758396Y-12314024D01*
X-65744389Y-12294922D01*
X-65731337Y-12275155D01*
X-65719270Y-12254772D01*
X-65708218Y-12233821D01*
X-65698208Y-12212353D01*
X-65689262Y-12190420D01*
X-65681404Y-12168074D01*
X-65674652Y-12145370D01*
X-65669022Y-12122361D01*
X-65664527Y-12099104D01*
X-65661180Y-12075655D01*
X-65658986Y-12052070D01*
X-65657953Y-12028405D01*
X-65658082Y-12004718D01*
X-65659374Y-11981066D01*
X-65661824Y-11957506D01*
X-65665427Y-11934095D01*
X-65670175Y-11910888D01*
X-65676056Y-11887942D01*
X-65683055Y-11865313D01*
X-65691157Y-11843054D01*
X-65700341Y-11821220D01*
X-65710585Y-11799863D01*
X-65721865Y-11779034D01*
X-65734153Y-11758783D01*
X-65747420Y-11739160D01*
X-65761634Y-11720212D01*
X-65776761Y-11701983D01*
X-65792764Y-11684519D01*
X-65809604Y-11667861D01*
X-65827242Y-11652050D01*
X-65845634Y-11637123D01*
X-65864736Y-11623117D01*
X-65884503Y-11610064D01*
X-65904886Y-11597998D01*
X-65925837Y-11586946D01*
X-65947305Y-11576935D01*
X-65969238Y-11567990D01*
X-65991584Y-11560132D01*
X-66014288Y-11553379D01*
X-66037297Y-11547749D01*
X-66060554Y-11543255D01*
X-66084003Y-11539907D01*
X-66107589Y-11537714D01*
X-66131253Y-11536681D01*
X-66154940Y-11536810D01*
X-66178592Y-11538101D01*
X-66202152Y-11540552D01*
X-66225564Y-11544155D01*
X-66248770Y-11548903D01*
X-66271716Y-11554784D01*
X-66294345Y-11561783D01*
X-66316604Y-11569885D01*
X-66338438Y-11579069D01*
X-66359796Y-11589313D01*
X-66380625Y-11600593D01*
X-66400875Y-11612881D01*
X-66420498Y-11626148D01*
X-66439447Y-11640362D01*
X-66457675Y-11655489D01*
X-66475139Y-11671491D01*
X-66491797Y-11688332D01*
X-66507608Y-11705969D01*
X-66522535Y-11724362D01*
X-66536541Y-11743464D01*
X-66549594Y-11763231D01*
X-66561660Y-11783614D01*
X-66572712Y-11804565D01*
X-66582723Y-11826033D01*
X-66591668Y-11847966D01*
X-66599526Y-11870312D01*
X-66606279Y-11893016D01*
X-66611909Y-11916024D01*
X-66616403Y-11939281D01*
X-66619751Y-11962731D01*
X-66621944Y-11986316D01*
X-66622977Y-12009981D01*
X-66876905Y-12009981D01*
X-66876931Y-12005132D01*
X-66875354Y-11969013D01*
X-66872007Y-11933014D01*
X-66866897Y-11897223D01*
X-66860037Y-11861725D01*
X-66851444Y-11826607D01*
X-66841138Y-11791953D01*
X-66829143Y-11757846D01*
X-66815490Y-11724369D01*
X-66800211Y-11691603D01*
X-66783342Y-11659625D01*
X-66764924Y-11628514D01*
X-66745003Y-11598344D01*
X-66723624Y-11569187D01*
X-66700841Y-11541115D01*
X-66676708Y-11514195D01*
X-66651283Y-11488491D01*
X-66624627Y-11464065D01*
X-66596805Y-11440977D01*
X-66567884Y-11419282D01*
X-66537933Y-11399032D01*
X-66507024Y-11380277D01*
X-66475233Y-11363060D01*
X-66442634Y-11347424D01*
X-66409308Y-11333407D01*
X-66375335Y-11321041D01*
X-66340795Y-11310358D01*
X-66305773Y-11301382D01*
X-66270352Y-11294135D01*
X-66234619Y-11288635D01*
X-66198659Y-11284895D01*
X-66162558Y-11282924D01*
X-66126405Y-11282727D01*
X-66090285Y-11284304D01*
G37*
G36*
X56418386Y-787935D02*
G01*
X56444068Y-790040D01*
X56469616Y-793404D01*
X56494968Y-798017D01*
X56520063Y-803868D01*
X56544841Y-810944D01*
X56569241Y-819227D01*
X56593206Y-828697D01*
X56616678Y-839332D01*
X56639599Y-851105D01*
X57571242Y-1388990D01*
X57592899Y-1402953D01*
X57613844Y-1417963D01*
X57634028Y-1433982D01*
X57653402Y-1450972D01*
X57671919Y-1468892D01*
X57689534Y-1487700D01*
X57706205Y-1507349D01*
X57721891Y-1527792D01*
X57736556Y-1548980D01*
X57750163Y-1570863D01*
X57762681Y-1593387D01*
X57774078Y-1616498D01*
X57784327Y-1640140D01*
X57793404Y-1664257D01*
X57801287Y-1688790D01*
X57807956Y-1713680D01*
X57813396Y-1738867D01*
X57817593Y-1764292D01*
X57820538Y-1789891D01*
X57822224Y-1815604D01*
X57822645Y-1841369D01*
X57821802Y-1867123D01*
X57819696Y-1892806D01*
X57816333Y-1918353D01*
X57811720Y-1943705D01*
X57805869Y-1968801D01*
X57798793Y-1993578D01*
X57790510Y-2017979D01*
X57781040Y-2041944D01*
X57770405Y-2065415D01*
X57758631Y-2088337D01*
X57745747Y-2110653D01*
X57731784Y-2132310D01*
X57716774Y-2153255D01*
X57700755Y-2173439D01*
X57683765Y-2192813D01*
X57665844Y-2211330D01*
X57647037Y-2228945D01*
X57627388Y-2245616D01*
X57606945Y-2261302D01*
X57585756Y-2275967D01*
X57563874Y-2289574D01*
X57541350Y-2302092D01*
X57518239Y-2313489D01*
X57494597Y-2323738D01*
X57470480Y-2332815D01*
X57445947Y-2340697D01*
X57421057Y-2347367D01*
X57395869Y-2352807D01*
X57370445Y-2357004D01*
X57344846Y-2359949D01*
X57319133Y-2361635D01*
X57293368Y-2362056D01*
X57267613Y-2361213D01*
X57241931Y-2359107D01*
X57216383Y-2355744D01*
X57191031Y-2351131D01*
X57165936Y-2345280D01*
X57141158Y-2338204D01*
X57116758Y-2329921D01*
X57092793Y-2320451D01*
X57069321Y-2309816D01*
X57046400Y-2298042D01*
X57024084Y-2285158D01*
X56114757Y-1760158D01*
X56093100Y-1746195D01*
X56072155Y-1731185D01*
X56051971Y-1715166D01*
X56032597Y-1698176D01*
X56014080Y-1680255D01*
X55996465Y-1661448D01*
X55979795Y-1641799D01*
X55964108Y-1621356D01*
X55949443Y-1600167D01*
X55935836Y-1578285D01*
X55923318Y-1555761D01*
X55911921Y-1532650D01*
X55901672Y-1509008D01*
X55892595Y-1484891D01*
X55884713Y-1460358D01*
X55878043Y-1435468D01*
X55872603Y-1410280D01*
X55868406Y-1384856D01*
X55865461Y-1359257D01*
X55863775Y-1333544D01*
X55863354Y-1307779D01*
X55863710Y-1296915D01*
X56041696Y-1296915D01*
X56041957Y-1312865D01*
X56043001Y-1328782D01*
X56044824Y-1344630D01*
X56047422Y-1360368D01*
X56050790Y-1375961D01*
X56054919Y-1391369D01*
X56059798Y-1406556D01*
X56065417Y-1421485D01*
X56071762Y-1436121D01*
X56078817Y-1450428D01*
X56086566Y-1464371D01*
X56094990Y-1477917D01*
X56104068Y-1491034D01*
X56113779Y-1503689D01*
X56124099Y-1515853D01*
X56135003Y-1527496D01*
X56146466Y-1538589D01*
X56158459Y-1549107D01*
X56170954Y-1559024D01*
X56183921Y-1568315D01*
X56197327Y-1576959D01*
X57149955Y-2126959D01*
X57163770Y-2134935D01*
X57177959Y-2142224D01*
X57192489Y-2148807D01*
X57207325Y-2154670D01*
X57222430Y-2159797D01*
X57237768Y-2164177D01*
X57253303Y-2167800D01*
X57268998Y-2170655D01*
X57284813Y-2172737D01*
X57300711Y-2174041D01*
X57316655Y-2174563D01*
X57332604Y-2174302D01*
X57348522Y-2173259D01*
X57364369Y-2171436D01*
X57380108Y-2168837D01*
X57395700Y-2165469D01*
X57411108Y-2161341D01*
X57426296Y-2156461D01*
X57441225Y-2150842D01*
X57455861Y-2144497D01*
X57470167Y-2137442D01*
X57484111Y-2129693D01*
X57497657Y-2121270D01*
X57510774Y-2112191D01*
X57523429Y-2102481D01*
X57535593Y-2092160D01*
X57547235Y-2081256D01*
X57558329Y-2069793D01*
X57568847Y-2057800D01*
X57578763Y-2045305D01*
X57588055Y-2032339D01*
X57596699Y-2018932D01*
X57604675Y-2005118D01*
X57611963Y-1990928D01*
X57618547Y-1976398D01*
X57624409Y-1961563D01*
X57629537Y-1946458D01*
X57633917Y-1931119D01*
X57637539Y-1915584D01*
X57640395Y-1899890D01*
X57642477Y-1884074D01*
X57643781Y-1868176D01*
X57644303Y-1852233D01*
X57644042Y-1836283D01*
X57642998Y-1820365D01*
X57641175Y-1804518D01*
X57638577Y-1788779D01*
X57635209Y-1773187D01*
X57631081Y-1757779D01*
X57626201Y-1742592D01*
X57620582Y-1727662D01*
X57614237Y-1713027D01*
X57607182Y-1698720D01*
X57599433Y-1684777D01*
X57591009Y-1671230D01*
X57581931Y-1658114D01*
X57572220Y-1645458D01*
X57561900Y-1633295D01*
X57550996Y-1621652D01*
X57539533Y-1610558D01*
X57527540Y-1600041D01*
X57515045Y-1590124D01*
X57502079Y-1580832D01*
X57488672Y-1572188D01*
X56522229Y-1014212D01*
X56508040Y-1006924D01*
X56493510Y-1000341D01*
X56478675Y-994478D01*
X56463569Y-989350D01*
X56448231Y-984970D01*
X56432696Y-981348D01*
X56417001Y-978492D01*
X56401186Y-976410D01*
X56385288Y-975107D01*
X56369344Y-974585D01*
X56353395Y-974846D01*
X56337477Y-975889D01*
X56321630Y-977712D01*
X56305891Y-980311D01*
X56290299Y-983678D01*
X56274891Y-987807D01*
X56259703Y-992687D01*
X56244774Y-998306D01*
X56230138Y-1004650D01*
X56215832Y-1011706D01*
X56201888Y-1019454D01*
X56188342Y-1027878D01*
X56175225Y-1036956D01*
X56162570Y-1046667D01*
X56150406Y-1056987D01*
X56138764Y-1067892D01*
X56127670Y-1079354D01*
X56117152Y-1091348D01*
X56107236Y-1103842D01*
X56097944Y-1116809D01*
X56089300Y-1130215D01*
X56081324Y-1144030D01*
X56074036Y-1158219D01*
X56067452Y-1172749D01*
X56061590Y-1187585D01*
X56056462Y-1202690D01*
X56052082Y-1218029D01*
X56048460Y-1233564D01*
X56045604Y-1249258D01*
X56043522Y-1265073D01*
X56042218Y-1280972D01*
X56041696Y-1296915D01*
X55863710Y-1296915D01*
X55864197Y-1282024D01*
X55866303Y-1256342D01*
X55869666Y-1230794D01*
X55874279Y-1205442D01*
X55880130Y-1180347D01*
X55887206Y-1155569D01*
X55895489Y-1131169D01*
X55904959Y-1107204D01*
X55915594Y-1083732D01*
X55927368Y-1060811D01*
X55940252Y-1038495D01*
X55954215Y-1016838D01*
X55969225Y-995892D01*
X55985244Y-975708D01*
X56002234Y-956335D01*
X56020155Y-937818D01*
X56038962Y-920203D01*
X56058611Y-903532D01*
X56079054Y-887845D01*
X56100243Y-873181D01*
X56122125Y-859573D01*
X56144649Y-847056D01*
X56167760Y-835659D01*
X56191402Y-825410D01*
X56215519Y-816333D01*
X56240052Y-808450D01*
X56264942Y-801781D01*
X56290130Y-796341D01*
X56315554Y-792143D01*
X56341153Y-789198D01*
X56366866Y-787513D01*
X56392631Y-787091D01*
X56418386Y-787935D01*
G37*
G36*
X52098404Y-8270405D02*
G01*
X52124086Y-8272510D01*
X52149634Y-8275874D01*
X52174986Y-8280487D01*
X52200081Y-8286338D01*
X52224859Y-8293414D01*
X52249260Y-8301697D01*
X52273225Y-8311167D01*
X52296696Y-8321802D01*
X52319617Y-8333575D01*
X53251260Y-8871460D01*
X53272917Y-8885423D01*
X53293863Y-8900433D01*
X53314047Y-8916452D01*
X53333420Y-8933442D01*
X53351937Y-8951362D01*
X53369552Y-8970170D01*
X53386223Y-8989819D01*
X53401910Y-9010262D01*
X53416574Y-9031451D01*
X53430182Y-9053333D01*
X53442699Y-9075857D01*
X53454096Y-9098968D01*
X53464345Y-9122610D01*
X53473422Y-9146727D01*
X53481305Y-9171260D01*
X53487974Y-9196150D01*
X53493414Y-9221337D01*
X53497612Y-9246762D01*
X53500557Y-9272361D01*
X53502242Y-9298074D01*
X53502664Y-9323839D01*
X53501821Y-9349593D01*
X53499715Y-9375276D01*
X53496351Y-9400823D01*
X53491738Y-9426175D01*
X53485887Y-9451271D01*
X53478811Y-9476048D01*
X53470528Y-9500449D01*
X53461058Y-9524414D01*
X53450423Y-9547886D01*
X53438650Y-9570807D01*
X53425766Y-9593123D01*
X53411802Y-9614780D01*
X53396792Y-9635725D01*
X53380773Y-9655909D01*
X53363783Y-9675283D01*
X53345863Y-9693800D01*
X53327055Y-9711415D01*
X53307406Y-9728086D01*
X53286963Y-9743772D01*
X53265775Y-9758437D01*
X53243892Y-9772044D01*
X53221368Y-9784562D01*
X53198257Y-9795959D01*
X53174615Y-9806208D01*
X53150498Y-9815285D01*
X53125965Y-9823168D01*
X53101075Y-9829837D01*
X53075888Y-9835277D01*
X53050464Y-9839474D01*
X53024864Y-9842419D01*
X52999151Y-9844105D01*
X52973386Y-9844526D01*
X52947632Y-9843683D01*
X52921949Y-9841577D01*
X52896402Y-9838214D01*
X52871050Y-9833601D01*
X52845954Y-9827750D01*
X52821177Y-9820674D01*
X52796776Y-9812391D01*
X52772811Y-9802921D01*
X52749340Y-9792286D01*
X52726418Y-9780512D01*
X52704102Y-9767628D01*
X51794776Y-9242628D01*
X51773119Y-9228665D01*
X51752173Y-9213655D01*
X51731989Y-9197636D01*
X51712615Y-9180646D01*
X51694099Y-9162725D01*
X51676484Y-9143918D01*
X51659813Y-9124269D01*
X51644126Y-9103826D01*
X51629461Y-9082637D01*
X51615854Y-9060755D01*
X51603337Y-9038231D01*
X51591940Y-9015120D01*
X51581690Y-8991478D01*
X51572613Y-8967361D01*
X51564731Y-8942828D01*
X51558062Y-8917938D01*
X51552622Y-8892750D01*
X51548424Y-8867326D01*
X51545479Y-8841727D01*
X51543794Y-8816014D01*
X51543372Y-8790249D01*
X51543728Y-8779385D01*
X51721715Y-8779385D01*
X51721976Y-8795335D01*
X51723019Y-8811252D01*
X51724842Y-8827100D01*
X51727441Y-8842838D01*
X51730808Y-8858431D01*
X51734937Y-8873839D01*
X51739817Y-8889026D01*
X51745436Y-8903955D01*
X51751780Y-8918591D01*
X51758836Y-8932898D01*
X51766584Y-8946841D01*
X51775008Y-8960387D01*
X51784086Y-8973504D01*
X51793797Y-8986159D01*
X51804117Y-8998323D01*
X51815022Y-9009966D01*
X51826484Y-9021059D01*
X51838478Y-9031577D01*
X51850972Y-9041494D01*
X51863939Y-9050785D01*
X51877345Y-9059429D01*
X52829973Y-9609429D01*
X52843788Y-9617405D01*
X52857977Y-9624694D01*
X52872507Y-9631277D01*
X52887343Y-9637140D01*
X52902448Y-9642267D01*
X52917787Y-9646647D01*
X52933322Y-9650270D01*
X52949016Y-9653125D01*
X52964831Y-9655207D01*
X52980730Y-9656511D01*
X52996673Y-9657033D01*
X53012623Y-9656772D01*
X53028540Y-9655729D01*
X53044388Y-9653906D01*
X53060126Y-9651307D01*
X53075719Y-9647940D01*
X53091127Y-9643811D01*
X53106314Y-9638931D01*
X53121243Y-9633312D01*
X53135879Y-9626967D01*
X53150186Y-9619912D01*
X53164129Y-9612163D01*
X53177675Y-9603740D01*
X53190792Y-9594661D01*
X53203447Y-9584951D01*
X53215611Y-9574631D01*
X53227254Y-9563726D01*
X53238347Y-9552263D01*
X53248865Y-9540270D01*
X53258782Y-9527775D01*
X53268073Y-9514809D01*
X53276717Y-9501402D01*
X53284693Y-9487588D01*
X53291982Y-9473398D01*
X53298565Y-9458868D01*
X53304428Y-9444033D01*
X53309555Y-9428928D01*
X53313935Y-9413589D01*
X53317558Y-9398054D01*
X53320413Y-9382360D01*
X53322495Y-9366544D01*
X53323799Y-9350646D01*
X53324321Y-9334703D01*
X53324060Y-9318753D01*
X53323017Y-9302835D01*
X53321194Y-9286988D01*
X53318595Y-9271249D01*
X53315227Y-9255657D01*
X53311099Y-9240249D01*
X53306219Y-9225062D01*
X53300600Y-9210132D01*
X53294255Y-9195497D01*
X53287200Y-9181190D01*
X53279451Y-9167247D01*
X53271028Y-9153700D01*
X53261949Y-9140584D01*
X53252239Y-9127928D01*
X53241918Y-9115765D01*
X53231014Y-9104122D01*
X53219551Y-9093028D01*
X53207558Y-9082511D01*
X53195063Y-9072594D01*
X53182097Y-9063303D01*
X53168690Y-9054658D01*
X52202248Y-8496682D01*
X52188058Y-8489394D01*
X52173528Y-8482811D01*
X52158693Y-8476948D01*
X52143588Y-8471821D01*
X52128249Y-8467440D01*
X52112714Y-8463818D01*
X52097020Y-8460962D01*
X52081204Y-8458880D01*
X52065306Y-8457577D01*
X52049363Y-8457055D01*
X52033413Y-8457316D01*
X52017495Y-8458359D01*
X52001648Y-8460182D01*
X51985909Y-8462781D01*
X51970317Y-8466148D01*
X51954909Y-8470277D01*
X51939722Y-8475157D01*
X51924792Y-8480776D01*
X51910157Y-8487120D01*
X51895850Y-8494176D01*
X51881907Y-8501924D01*
X51868360Y-8510348D01*
X51855244Y-8519426D01*
X51842588Y-8529137D01*
X51830425Y-8539457D01*
X51818782Y-8550362D01*
X51807688Y-8561824D01*
X51797171Y-8573818D01*
X51787254Y-8586312D01*
X51777962Y-8599279D01*
X51769318Y-8612686D01*
X51761342Y-8626500D01*
X51754054Y-8640690D01*
X51747471Y-8655219D01*
X51741608Y-8670055D01*
X51736481Y-8685160D01*
X51732100Y-8700499D01*
X51728478Y-8716034D01*
X51725622Y-8731728D01*
X51723540Y-8747543D01*
X51722237Y-8763442D01*
X51721715Y-8779385D01*
X51543728Y-8779385D01*
X51544215Y-8764494D01*
X51546321Y-8738812D01*
X51549684Y-8713264D01*
X51554297Y-8687912D01*
X51560149Y-8662817D01*
X51567224Y-8638039D01*
X51575507Y-8613639D01*
X51584978Y-8589674D01*
X51595612Y-8566202D01*
X51607386Y-8543281D01*
X51620270Y-8520965D01*
X51634234Y-8499308D01*
X51649243Y-8478362D01*
X51665262Y-8458178D01*
X51682253Y-8438805D01*
X51700173Y-8420288D01*
X51718980Y-8402673D01*
X51738629Y-8386002D01*
X51759073Y-8370315D01*
X51780261Y-8355651D01*
X51802144Y-8342043D01*
X51824667Y-8329526D01*
X51847778Y-8318129D01*
X51871421Y-8307880D01*
X51895537Y-8298803D01*
X51920070Y-8290920D01*
X51944961Y-8284251D01*
X51970148Y-8278811D01*
X51995572Y-8274613D01*
X52021172Y-8271668D01*
X52046885Y-8269983D01*
X52072650Y-8269561D01*
X52098404Y-8270405D01*
G37*
G36*
X55718395Y-10360396D02*
G01*
X55744078Y-10362502D01*
X55769625Y-10365865D01*
X55794977Y-10370478D01*
X55820073Y-10376329D01*
X55844850Y-10383405D01*
X55869251Y-10391688D01*
X55893216Y-10401158D01*
X55916687Y-10411793D01*
X55939609Y-10423567D01*
X56871251Y-10961451D01*
X56892908Y-10975414D01*
X56913854Y-10990424D01*
X56934038Y-11006443D01*
X56953412Y-11023433D01*
X56971928Y-11041353D01*
X56989543Y-11060161D01*
X57006214Y-11079810D01*
X57021901Y-11100253D01*
X57036566Y-11121442D01*
X57050173Y-11143324D01*
X57062690Y-11165848D01*
X57074087Y-11188959D01*
X57084337Y-11212601D01*
X57093414Y-11236718D01*
X57101296Y-11261251D01*
X57107965Y-11286141D01*
X57113405Y-11311329D01*
X57117603Y-11336753D01*
X57120548Y-11362352D01*
X57122233Y-11388065D01*
X57122655Y-11413830D01*
X57121812Y-11439585D01*
X57119706Y-11465267D01*
X57116343Y-11490815D01*
X57111730Y-11516167D01*
X57105878Y-11541262D01*
X57098803Y-11566040D01*
X57090520Y-11590440D01*
X57081049Y-11614405D01*
X57070415Y-11637877D01*
X57058641Y-11660798D01*
X57045757Y-11683114D01*
X57031793Y-11704771D01*
X57016784Y-11725717D01*
X57000765Y-11745901D01*
X56983774Y-11765274D01*
X56965854Y-11783791D01*
X56947047Y-11801406D01*
X56927398Y-11818077D01*
X56906954Y-11833763D01*
X56885766Y-11848428D01*
X56863883Y-11862036D01*
X56841360Y-11874553D01*
X56818249Y-11885950D01*
X56794606Y-11896199D01*
X56770490Y-11905276D01*
X56745957Y-11913159D01*
X56721066Y-11919828D01*
X56695879Y-11925268D01*
X56670455Y-11929466D01*
X56644855Y-11932411D01*
X56619142Y-11934096D01*
X56593377Y-11934517D01*
X56567623Y-11933674D01*
X56541941Y-11931569D01*
X56516393Y-11928205D01*
X56491041Y-11923592D01*
X56465946Y-11917741D01*
X56441168Y-11910665D01*
X56416767Y-11902382D01*
X56392802Y-11892912D01*
X56369331Y-11882277D01*
X56346410Y-11870504D01*
X56324094Y-11857619D01*
X55414767Y-11332619D01*
X55393110Y-11318656D01*
X55372164Y-11303646D01*
X55351980Y-11287627D01*
X55332607Y-11270637D01*
X55314090Y-11252717D01*
X55296475Y-11233909D01*
X55279804Y-11214260D01*
X55264117Y-11193817D01*
X55249453Y-11172628D01*
X55235845Y-11150746D01*
X55223328Y-11128222D01*
X55211931Y-11105111D01*
X55201682Y-11081469D01*
X55192605Y-11057352D01*
X55184722Y-11032819D01*
X55178053Y-11007929D01*
X55175126Y-10994376D01*
X55558212Y-10994376D01*
X55558473Y-11010326D01*
X55559517Y-11026243D01*
X55561340Y-11042091D01*
X55563938Y-11057829D01*
X55567306Y-11073422D01*
X55571435Y-11088830D01*
X55576314Y-11104017D01*
X55581933Y-11118947D01*
X55588278Y-11133582D01*
X55595333Y-11147889D01*
X55603082Y-11161832D01*
X55611506Y-11175379D01*
X55620584Y-11188495D01*
X55630295Y-11201151D01*
X55640615Y-11213314D01*
X55651519Y-11224957D01*
X55662982Y-11236051D01*
X55674975Y-11246568D01*
X55687470Y-11256485D01*
X55700436Y-11265776D01*
X55713843Y-11274421D01*
X56233458Y-11574421D01*
X56247273Y-11582396D01*
X56261462Y-11589685D01*
X56275992Y-11596268D01*
X56290828Y-11602131D01*
X56305933Y-11607258D01*
X56321272Y-11611639D01*
X56336807Y-11615261D01*
X56352501Y-11618117D01*
X56368316Y-11620199D01*
X56384215Y-11621502D01*
X56400158Y-11622024D01*
X56416108Y-11621763D01*
X56432025Y-11620720D01*
X56447872Y-11618897D01*
X56463611Y-11616298D01*
X56479204Y-11612931D01*
X56494612Y-11608802D01*
X56509799Y-11603922D01*
X56524728Y-11598303D01*
X56539364Y-11591959D01*
X56553671Y-11584903D01*
X56567614Y-11577154D01*
X56581160Y-11568731D01*
X56594277Y-11559653D01*
X56606932Y-11549942D01*
X56619096Y-11539622D01*
X56630739Y-11528717D01*
X56641832Y-11517254D01*
X56652350Y-11505261D01*
X56662267Y-11492766D01*
X56671558Y-11479800D01*
X56680202Y-11466393D01*
X56688178Y-11452579D01*
X56695467Y-11438389D01*
X56702050Y-11423859D01*
X56707913Y-11409024D01*
X56713040Y-11393919D01*
X56717420Y-11378580D01*
X56721043Y-11363045D01*
X56723898Y-11347351D01*
X56725980Y-11331536D01*
X56727284Y-11315637D01*
X56727806Y-11299694D01*
X56727545Y-11283744D01*
X56726502Y-11267827D01*
X56724679Y-11251979D01*
X56722080Y-11236241D01*
X56718712Y-11220648D01*
X56714584Y-11205240D01*
X56709704Y-11190053D01*
X56704085Y-11175124D01*
X56697740Y-11160488D01*
X56690685Y-11146181D01*
X56682936Y-11132238D01*
X56674513Y-11118692D01*
X56665434Y-11105575D01*
X56655724Y-11092919D01*
X56645403Y-11080756D01*
X56634499Y-11069113D01*
X56623036Y-11058020D01*
X56611043Y-11047502D01*
X56598548Y-11037585D01*
X56585582Y-11028294D01*
X56572175Y-11019649D01*
X56038745Y-10711674D01*
X56024556Y-10704385D01*
X56010026Y-10697802D01*
X55995191Y-10691939D01*
X55980085Y-10686812D01*
X55964747Y-10682431D01*
X55949212Y-10678809D01*
X55933517Y-10675954D01*
X55917702Y-10673871D01*
X55901804Y-10672568D01*
X55885860Y-10672046D01*
X55869911Y-10672307D01*
X55853993Y-10673350D01*
X55838146Y-10675173D01*
X55822407Y-10677772D01*
X55806815Y-10681139D01*
X55791407Y-10685268D01*
X55776219Y-10690148D01*
X55761290Y-10695767D01*
X55746654Y-10702112D01*
X55732348Y-10709167D01*
X55718404Y-10716916D01*
X55704858Y-10725339D01*
X55691741Y-10734417D01*
X55679086Y-10744128D01*
X55666922Y-10754448D01*
X55655280Y-10765353D01*
X55644186Y-10776816D01*
X55633668Y-10788809D01*
X55623752Y-10801304D01*
X55614460Y-10814270D01*
X55605816Y-10827677D01*
X55597840Y-10841491D01*
X55590552Y-10855681D01*
X55583968Y-10870211D01*
X55578106Y-10885046D01*
X55572978Y-10900151D01*
X55568598Y-10915490D01*
X55564976Y-10931025D01*
X55562120Y-10946719D01*
X55560038Y-10962534D01*
X55558734Y-10978433D01*
X55558212Y-10994376D01*
X55175126Y-10994376D01*
X55172613Y-10982741D01*
X55168415Y-10957317D01*
X55165470Y-10931718D01*
X55163785Y-10906005D01*
X55163363Y-10880240D01*
X55164207Y-10854485D01*
X55166312Y-10828803D01*
X55169676Y-10803256D01*
X55174289Y-10777903D01*
X55180140Y-10752808D01*
X55187216Y-10728031D01*
X55195499Y-10703630D01*
X55204969Y-10679665D01*
X55215604Y-10656193D01*
X55227377Y-10633272D01*
X55240261Y-10610956D01*
X55254225Y-10589299D01*
X55269235Y-10568354D01*
X55285254Y-10548170D01*
X55302244Y-10528796D01*
X55320164Y-10510279D01*
X55338972Y-10492664D01*
X55358621Y-10475993D01*
X55379064Y-10460307D01*
X55400252Y-10445642D01*
X55422135Y-10432034D01*
X55444659Y-10419517D01*
X55467770Y-10408120D01*
X55491412Y-10397871D01*
X55515529Y-10388794D01*
X55540062Y-10380911D01*
X55564952Y-10374242D01*
X55590139Y-10368802D01*
X55615564Y-10364605D01*
X55641163Y-10361660D01*
X55666876Y-10359974D01*
X55692641Y-10359553D01*
X55718395Y-10360396D01*
G37*
G36*
X60038377Y-2877926D02*
G01*
X60064059Y-2880031D01*
X60089607Y-2883395D01*
X60114959Y-2888008D01*
X60140054Y-2893859D01*
X60164832Y-2900935D01*
X60189233Y-2909218D01*
X60213198Y-2918688D01*
X60236669Y-2929323D01*
X60259590Y-2941096D01*
X61191233Y-3478981D01*
X61212890Y-3492944D01*
X61233836Y-3507954D01*
X61254020Y-3523973D01*
X61273393Y-3540963D01*
X61291910Y-3558883D01*
X61309525Y-3577691D01*
X61326196Y-3597340D01*
X61341883Y-3617783D01*
X61356547Y-3638972D01*
X61370155Y-3660854D01*
X61382672Y-3683378D01*
X61394069Y-3706489D01*
X61404318Y-3730131D01*
X61413395Y-3754248D01*
X61421278Y-3778781D01*
X61427947Y-3803671D01*
X61433387Y-3828859D01*
X61437585Y-3854283D01*
X61440530Y-3879882D01*
X61442215Y-3905595D01*
X61442637Y-3931360D01*
X61441793Y-3957115D01*
X61439688Y-3982797D01*
X61436324Y-4008344D01*
X61431711Y-4033697D01*
X61425860Y-4058792D01*
X61418784Y-4083569D01*
X61410501Y-4107970D01*
X61401031Y-4131935D01*
X61390396Y-4155407D01*
X61378623Y-4178328D01*
X61365739Y-4200644D01*
X61351775Y-4222301D01*
X61336765Y-4243246D01*
X61320746Y-4263430D01*
X61303756Y-4282804D01*
X61285836Y-4301321D01*
X61267028Y-4318936D01*
X61247379Y-4335607D01*
X61226936Y-4351293D01*
X61205748Y-4365958D01*
X61183865Y-4379566D01*
X61161341Y-4392083D01*
X61138230Y-4403480D01*
X61114588Y-4413729D01*
X61090471Y-4422806D01*
X61065938Y-4430689D01*
X61041048Y-4437358D01*
X61015861Y-4442798D01*
X60990436Y-4446995D01*
X60964837Y-4449940D01*
X60939124Y-4451626D01*
X60913359Y-4452047D01*
X60887605Y-4451204D01*
X60861922Y-4449098D01*
X60836375Y-4445735D01*
X60811023Y-4441122D01*
X60785927Y-4435271D01*
X60761150Y-4428195D01*
X60736749Y-4419912D01*
X60712784Y-4410442D01*
X60689313Y-4399807D01*
X60666391Y-4388033D01*
X60644075Y-4375149D01*
X59734749Y-3850149D01*
X59713092Y-3836186D01*
X59692146Y-3821176D01*
X59671962Y-3805157D01*
X59652588Y-3788167D01*
X59634072Y-3770247D01*
X59616457Y-3751439D01*
X59599786Y-3731790D01*
X59584099Y-3711347D01*
X59569434Y-3690158D01*
X59555827Y-3668276D01*
X59543310Y-3645752D01*
X59531913Y-3622641D01*
X59521663Y-3598999D01*
X59512586Y-3574882D01*
X59504704Y-3550349D01*
X59498035Y-3525459D01*
X59495108Y-3511906D01*
X59878194Y-3511906D01*
X59878455Y-3527856D01*
X59879498Y-3543773D01*
X59881321Y-3559621D01*
X59883920Y-3575359D01*
X59887288Y-3590952D01*
X59891416Y-3606360D01*
X59896296Y-3621547D01*
X59901915Y-3636476D01*
X59908260Y-3651112D01*
X59915315Y-3665419D01*
X59923064Y-3679362D01*
X59931487Y-3692908D01*
X59940566Y-3706025D01*
X59950276Y-3718681D01*
X59960597Y-3730844D01*
X59971501Y-3742487D01*
X59982964Y-3753580D01*
X59994957Y-3764098D01*
X60007452Y-3774015D01*
X60020418Y-3783306D01*
X60033825Y-3791951D01*
X60553440Y-4091951D01*
X60567255Y-4099926D01*
X60581444Y-4107215D01*
X60595974Y-4113798D01*
X60610809Y-4119661D01*
X60625915Y-4124788D01*
X60641253Y-4129169D01*
X60656788Y-4132791D01*
X60672483Y-4135646D01*
X60688298Y-4137729D01*
X60704196Y-4139032D01*
X60720140Y-4139554D01*
X60736089Y-4139293D01*
X60752007Y-4138250D01*
X60767854Y-4136427D01*
X60783593Y-4133828D01*
X60799185Y-4130461D01*
X60814593Y-4126332D01*
X60829781Y-4121452D01*
X60844710Y-4115833D01*
X60859346Y-4109488D01*
X60873652Y-4102433D01*
X60887596Y-4094684D01*
X60901142Y-4086261D01*
X60914259Y-4077183D01*
X60926914Y-4067472D01*
X60939078Y-4057152D01*
X60950720Y-4046247D01*
X60961814Y-4034784D01*
X60972332Y-4022791D01*
X60982248Y-4010296D01*
X60991540Y-3997330D01*
X61000184Y-3983923D01*
X61008160Y-3970109D01*
X61015448Y-3955919D01*
X61022032Y-3941389D01*
X61027894Y-3926554D01*
X61033022Y-3911449D01*
X61037402Y-3896110D01*
X61041024Y-3880575D01*
X61043880Y-3864881D01*
X61045962Y-3849066D01*
X61047266Y-3833167D01*
X61047788Y-3817224D01*
X61047527Y-3801274D01*
X61046483Y-3785357D01*
X61044660Y-3769509D01*
X61042062Y-3753771D01*
X61038694Y-3738178D01*
X61034565Y-3722770D01*
X61029686Y-3707583D01*
X61024067Y-3692653D01*
X61017722Y-3678018D01*
X61010667Y-3663711D01*
X61002918Y-3649768D01*
X60994494Y-3636221D01*
X60985416Y-3623105D01*
X60975705Y-3610449D01*
X60965385Y-3598286D01*
X60954481Y-3586643D01*
X60943018Y-3575549D01*
X60931025Y-3565032D01*
X60918530Y-3555115D01*
X60905564Y-3545824D01*
X60892157Y-3537179D01*
X60358727Y-3229204D01*
X60344538Y-3221915D01*
X60330008Y-3215332D01*
X60315172Y-3209469D01*
X60300067Y-3204342D01*
X60284728Y-3199961D01*
X60269193Y-3196339D01*
X60253499Y-3193483D01*
X60237684Y-3191401D01*
X60221785Y-3190098D01*
X60205842Y-3189576D01*
X60189892Y-3189837D01*
X60173975Y-3190880D01*
X60158128Y-3192703D01*
X60142389Y-3195302D01*
X60126796Y-3198669D01*
X60111388Y-3202798D01*
X60096201Y-3207678D01*
X60081272Y-3213297D01*
X60066636Y-3219641D01*
X60052329Y-3226697D01*
X60038386Y-3234446D01*
X60024840Y-3242869D01*
X60011723Y-3251947D01*
X59999068Y-3261658D01*
X59986904Y-3271978D01*
X59975261Y-3282883D01*
X59964168Y-3294346D01*
X59953650Y-3306339D01*
X59943733Y-3318834D01*
X59934442Y-3331800D01*
X59925798Y-3345207D01*
X59917822Y-3359021D01*
X59910533Y-3373211D01*
X59903950Y-3387741D01*
X59898087Y-3402576D01*
X59892960Y-3417681D01*
X59888580Y-3433020D01*
X59884957Y-3448555D01*
X59882102Y-3464249D01*
X59880020Y-3480064D01*
X59878716Y-3495963D01*
X59878194Y-3511906D01*
X59495108Y-3511906D01*
X59492595Y-3500271D01*
X59488397Y-3474847D01*
X59485452Y-3449248D01*
X59483767Y-3423535D01*
X59483345Y-3397770D01*
X59484188Y-3372015D01*
X59486294Y-3346333D01*
X59489657Y-3320785D01*
X59494270Y-3295433D01*
X59500122Y-3270338D01*
X59507197Y-3245560D01*
X59515480Y-3221160D01*
X59524951Y-3197195D01*
X59535585Y-3173723D01*
X59547359Y-3150802D01*
X59560243Y-3128486D01*
X59574207Y-3106829D01*
X59589216Y-3085883D01*
X59605235Y-3065699D01*
X59622226Y-3046326D01*
X59640146Y-3027809D01*
X59658953Y-3010194D01*
X59678602Y-2993523D01*
X59699046Y-2977837D01*
X59720234Y-2963172D01*
X59742117Y-2949564D01*
X59764640Y-2937047D01*
X59787751Y-2925650D01*
X59811394Y-2915401D01*
X59835510Y-2906324D01*
X59860043Y-2898441D01*
X59884934Y-2891772D01*
X59910121Y-2886332D01*
X59935545Y-2882134D01*
X59961145Y-2879189D01*
X59986858Y-2877504D01*
X60012623Y-2877083D01*
X60038377Y-2877926D01*
G37*
G36*
X9125230Y26885897D02*
G01*
X9166749Y26881808D01*
X9208018Y26875686D01*
X9248936Y26867547D01*
X9289406Y26857410D01*
X9329329Y26845299D01*
X9368611Y26831244D01*
X9407155Y26815278D01*
X9444870Y26797441D01*
X9481663Y26777774D01*
X9517448Y26756326D01*
X9552137Y26733147D01*
X9585647Y26708294D01*
X9617897Y26681828D01*
X9648809Y26653810D01*
X9678310Y26624309D01*
X9706328Y26593397D01*
X9732794Y26561147D01*
X9757647Y26527637D01*
X9780826Y26492948D01*
X9802274Y26457163D01*
X9821941Y26420370D01*
X9839778Y26382655D01*
X9855744Y26344111D01*
X9869799Y26304829D01*
X9881910Y26264906D01*
X9892047Y26224436D01*
X9900186Y26183518D01*
X9906308Y26142249D01*
X9910397Y26100730D01*
X9912444Y26059060D01*
X9912444Y26017340D01*
X9910397Y25975670D01*
X9906308Y25934151D01*
X9900186Y25892882D01*
X9892047Y25851964D01*
X9881910Y25811494D01*
X9869799Y25771571D01*
X9855744Y25732289D01*
X9839778Y25693745D01*
X9821941Y25656030D01*
X9802274Y25619237D01*
X9780826Y25583452D01*
X9757647Y25548763D01*
X9732794Y25515253D01*
X9706328Y25483003D01*
X9678310Y25452091D01*
X9648809Y25422590D01*
X9617897Y25394572D01*
X9585647Y25368106D01*
X9552137Y25343253D01*
X9517448Y25320074D01*
X9481663Y25298626D01*
X9444870Y25278959D01*
X9407155Y25261122D01*
X9368611Y25245156D01*
X9329329Y25231101D01*
X9289406Y25218990D01*
X9248936Y25208853D01*
X9208018Y25200714D01*
X9166749Y25194592D01*
X9125230Y25190503D01*
X9083560Y25188456D01*
X9041840Y25188456D01*
X9000170Y25190503D01*
X8958651Y25194592D01*
X8917382Y25200714D01*
X8876464Y25208853D01*
X8835994Y25218990D01*
X8796071Y25231101D01*
X8756789Y25245156D01*
X8718245Y25261122D01*
X8680530Y25278959D01*
X8643737Y25298626D01*
X8607952Y25320074D01*
X8573263Y25343253D01*
X8539753Y25368106D01*
X8507503Y25394572D01*
X8476591Y25422590D01*
X8447090Y25452091D01*
X8419072Y25483003D01*
X8392606Y25515253D01*
X8367753Y25548763D01*
X8344574Y25583452D01*
X8323126Y25619237D01*
X8303459Y25656030D01*
X8285622Y25693745D01*
X8269656Y25732289D01*
X8255601Y25771571D01*
X8243490Y25811494D01*
X8233353Y25851964D01*
X8225214Y25892882D01*
X8219092Y25934151D01*
X8215003Y25975670D01*
X8212956Y26017340D01*
X8212956Y26025929D01*
X8562851Y26025929D01*
X8564055Y26001418D01*
X8566460Y25976995D01*
X8570061Y25952719D01*
X8574849Y25928649D01*
X8580812Y25904844D01*
X8587936Y25881359D01*
X8596204Y25858252D01*
X8605595Y25835579D01*
X8616088Y25813394D01*
X8627657Y25791751D01*
X8640273Y25770701D01*
X8653908Y25750296D01*
X8668527Y25730584D01*
X8684096Y25711614D01*
X8700576Y25693430D01*
X8717930Y25676076D01*
X8736114Y25659596D01*
X8755084Y25644027D01*
X8774796Y25629408D01*
X8795201Y25615773D01*
X8816251Y25603157D01*
X8837894Y25591588D01*
X8860079Y25581095D01*
X8882752Y25571704D01*
X8905859Y25563436D01*
X8929344Y25556312D01*
X8953149Y25550349D01*
X8977219Y25545561D01*
X9001495Y25541960D01*
X9025918Y25539555D01*
X9050429Y25538351D01*
X9074971Y25538351D01*
X9099482Y25539555D01*
X9123905Y25541960D01*
X9148181Y25545561D01*
X9172251Y25550349D01*
X9196056Y25556312D01*
X9219541Y25563436D01*
X9242648Y25571704D01*
X9265321Y25581095D01*
X9287506Y25591588D01*
X9309149Y25603157D01*
X9330199Y25615773D01*
X9350604Y25629408D01*
X9370316Y25644027D01*
X9389286Y25659596D01*
X9407470Y25676076D01*
X9424824Y25693430D01*
X9441304Y25711614D01*
X9456873Y25730584D01*
X9471492Y25750296D01*
X9485127Y25770701D01*
X9497743Y25791751D01*
X9509312Y25813394D01*
X9519805Y25835579D01*
X9529196Y25858252D01*
X9537464Y25881359D01*
X9544588Y25904844D01*
X9550551Y25928649D01*
X9555339Y25952719D01*
X9558940Y25976995D01*
X9561345Y26001418D01*
X9562549Y26025929D01*
X9562549Y26050471D01*
X9561345Y26074982D01*
X9558940Y26099405D01*
X9555339Y26123681D01*
X9550551Y26147751D01*
X9544588Y26171556D01*
X9537464Y26195041D01*
X9529196Y26218148D01*
X9519805Y26240821D01*
X9509312Y26263006D01*
X9497743Y26284649D01*
X9485127Y26305699D01*
X9471492Y26326104D01*
X9456873Y26345816D01*
X9441304Y26364786D01*
X9424824Y26382970D01*
X9407470Y26400324D01*
X9389286Y26416804D01*
X9370316Y26432373D01*
X9350604Y26446992D01*
X9330199Y26460627D01*
X9309149Y26473243D01*
X9287506Y26484812D01*
X9265321Y26495305D01*
X9242648Y26504696D01*
X9219541Y26512964D01*
X9196056Y26520088D01*
X9172251Y26526051D01*
X9148181Y26530839D01*
X9123905Y26534440D01*
X9099482Y26536845D01*
X9074971Y26538049D01*
X9050429Y26538049D01*
X9025918Y26536845D01*
X9001495Y26534440D01*
X8977219Y26530839D01*
X8953149Y26526051D01*
X8929344Y26520088D01*
X8905859Y26512964D01*
X8882752Y26504696D01*
X8860079Y26495305D01*
X8837894Y26484812D01*
X8816251Y26473243D01*
X8795201Y26460627D01*
X8774796Y26446992D01*
X8755084Y26432373D01*
X8736114Y26416804D01*
X8717930Y26400324D01*
X8700576Y26382970D01*
X8684096Y26364786D01*
X8668527Y26345816D01*
X8653908Y26326104D01*
X8640273Y26305699D01*
X8627657Y26284649D01*
X8616088Y26263006D01*
X8605595Y26240821D01*
X8596204Y26218148D01*
X8587936Y26195041D01*
X8580812Y26171556D01*
X8574849Y26147751D01*
X8570061Y26123681D01*
X8566460Y26099405D01*
X8564055Y26074982D01*
X8562851Y26050471D01*
X8562851Y26025929D01*
X8212956Y26025929D01*
X8212956Y26059060D01*
X8215003Y26100730D01*
X8219092Y26142249D01*
X8225214Y26183518D01*
X8233353Y26224436D01*
X8243490Y26264906D01*
X8255601Y26304829D01*
X8269656Y26344111D01*
X8285622Y26382655D01*
X8303459Y26420370D01*
X8323126Y26457163D01*
X8344574Y26492948D01*
X8367753Y26527637D01*
X8392606Y26561147D01*
X8419072Y26593397D01*
X8447090Y26624309D01*
X8476591Y26653810D01*
X8507503Y26681828D01*
X8539753Y26708294D01*
X8573263Y26733147D01*
X8607952Y26756326D01*
X8643737Y26777774D01*
X8680530Y26797441D01*
X8718245Y26815278D01*
X8756789Y26831244D01*
X8796071Y26845299D01*
X8835994Y26857410D01*
X8876464Y26867547D01*
X8917382Y26875686D01*
X8958651Y26881808D01*
X9000170Y26885897D01*
X9041840Y26887944D01*
X9083560Y26887944D01*
X9125230Y26885897D01*
G37*
G36*
X-1034770Y26885897D02*
G01*
X-993251Y26881808D01*
X-951982Y26875686D01*
X-911064Y26867547D01*
X-870594Y26857410D01*
X-830671Y26845299D01*
X-791389Y26831244D01*
X-752845Y26815278D01*
X-715130Y26797441D01*
X-678337Y26777774D01*
X-642552Y26756326D01*
X-607863Y26733147D01*
X-574353Y26708294D01*
X-542103Y26681828D01*
X-511191Y26653810D01*
X-481690Y26624309D01*
X-453672Y26593397D01*
X-427206Y26561147D01*
X-402353Y26527637D01*
X-379174Y26492948D01*
X-357726Y26457163D01*
X-338059Y26420370D01*
X-320222Y26382655D01*
X-304256Y26344111D01*
X-290201Y26304829D01*
X-278090Y26264906D01*
X-267953Y26224436D01*
X-259814Y26183518D01*
X-253692Y26142249D01*
X-249603Y26100730D01*
X-247556Y26059060D01*
X-247556Y26017340D01*
X-249603Y25975670D01*
X-253692Y25934151D01*
X-259814Y25892882D01*
X-267953Y25851964D01*
X-278090Y25811494D01*
X-290201Y25771571D01*
X-304256Y25732289D01*
X-320222Y25693745D01*
X-338059Y25656030D01*
X-357726Y25619237D01*
X-379174Y25583452D01*
X-402353Y25548763D01*
X-427206Y25515253D01*
X-453672Y25483003D01*
X-481690Y25452091D01*
X-511191Y25422590D01*
X-542103Y25394572D01*
X-574353Y25368106D01*
X-607863Y25343253D01*
X-642552Y25320074D01*
X-678337Y25298626D01*
X-715130Y25278959D01*
X-752845Y25261122D01*
X-791389Y25245156D01*
X-830671Y25231101D01*
X-870594Y25218990D01*
X-911064Y25208853D01*
X-951982Y25200714D01*
X-993251Y25194592D01*
X-1034770Y25190503D01*
X-1076440Y25188456D01*
X-1118160Y25188456D01*
X-1159830Y25190503D01*
X-1201349Y25194592D01*
X-1242618Y25200714D01*
X-1283536Y25208853D01*
X-1324006Y25218990D01*
X-1363929Y25231101D01*
X-1403211Y25245156D01*
X-1441755Y25261122D01*
X-1479470Y25278959D01*
X-1516263Y25298626D01*
X-1552048Y25320074D01*
X-1586737Y25343253D01*
X-1620247Y25368106D01*
X-1652497Y25394572D01*
X-1683409Y25422590D01*
X-1712910Y25452091D01*
X-1740928Y25483003D01*
X-1767394Y25515253D01*
X-1792247Y25548763D01*
X-1815426Y25583452D01*
X-1836874Y25619237D01*
X-1856541Y25656030D01*
X-1874378Y25693745D01*
X-1890344Y25732289D01*
X-1904399Y25771571D01*
X-1916510Y25811494D01*
X-1926647Y25851964D01*
X-1934786Y25892882D01*
X-1940908Y25934151D01*
X-1944997Y25975670D01*
X-1947044Y26017340D01*
X-1947044Y26025929D01*
X-1597149Y26025929D01*
X-1595945Y26001418D01*
X-1593540Y25976995D01*
X-1589939Y25952719D01*
X-1585151Y25928649D01*
X-1579188Y25904844D01*
X-1572064Y25881359D01*
X-1563796Y25858252D01*
X-1554405Y25835579D01*
X-1543912Y25813394D01*
X-1532343Y25791751D01*
X-1519727Y25770701D01*
X-1506092Y25750296D01*
X-1491473Y25730584D01*
X-1475904Y25711614D01*
X-1459424Y25693430D01*
X-1442070Y25676076D01*
X-1423886Y25659596D01*
X-1404916Y25644027D01*
X-1385204Y25629408D01*
X-1364799Y25615773D01*
X-1343749Y25603157D01*
X-1322106Y25591588D01*
X-1299921Y25581095D01*
X-1277248Y25571704D01*
X-1254141Y25563436D01*
X-1230656Y25556312D01*
X-1206851Y25550349D01*
X-1182781Y25545561D01*
X-1158505Y25541960D01*
X-1134082Y25539555D01*
X-1109571Y25538351D01*
X-1085029Y25538351D01*
X-1060518Y25539555D01*
X-1036095Y25541960D01*
X-1011819Y25545561D01*
X-987749Y25550349D01*
X-963944Y25556312D01*
X-940459Y25563436D01*
X-917352Y25571704D01*
X-894679Y25581095D01*
X-872494Y25591588D01*
X-850851Y25603157D01*
X-829801Y25615773D01*
X-809396Y25629408D01*
X-789684Y25644027D01*
X-770714Y25659596D01*
X-752530Y25676076D01*
X-735176Y25693430D01*
X-718696Y25711614D01*
X-703127Y25730584D01*
X-688508Y25750296D01*
X-674873Y25770701D01*
X-662257Y25791751D01*
X-650688Y25813394D01*
X-640195Y25835579D01*
X-630804Y25858252D01*
X-622536Y25881359D01*
X-615412Y25904844D01*
X-609449Y25928649D01*
X-604661Y25952719D01*
X-601060Y25976995D01*
X-598655Y26001418D01*
X-597451Y26025929D01*
X-597451Y26050471D01*
X-598655Y26074982D01*
X-601060Y26099405D01*
X-604661Y26123681D01*
X-609449Y26147751D01*
X-615412Y26171556D01*
X-622536Y26195041D01*
X-630804Y26218148D01*
X-640195Y26240821D01*
X-650688Y26263006D01*
X-662257Y26284649D01*
X-674873Y26305699D01*
X-688508Y26326104D01*
X-703127Y26345816D01*
X-718696Y26364786D01*
X-735176Y26382970D01*
X-752530Y26400324D01*
X-770714Y26416804D01*
X-789684Y26432373D01*
X-809396Y26446992D01*
X-829801Y26460627D01*
X-850851Y26473243D01*
X-872494Y26484812D01*
X-894679Y26495305D01*
X-917352Y26504696D01*
X-940459Y26512964D01*
X-963944Y26520088D01*
X-987749Y26526051D01*
X-1011819Y26530839D01*
X-1036095Y26534440D01*
X-1060518Y26536845D01*
X-1085029Y26538049D01*
X-1109571Y26538049D01*
X-1134082Y26536845D01*
X-1158505Y26534440D01*
X-1182781Y26530839D01*
X-1206851Y26526051D01*
X-1230656Y26520088D01*
X-1254141Y26512964D01*
X-1277248Y26504696D01*
X-1299921Y26495305D01*
X-1322106Y26484812D01*
X-1343749Y26473243D01*
X-1364799Y26460627D01*
X-1385204Y26446992D01*
X-1404916Y26432373D01*
X-1423886Y26416804D01*
X-1442070Y26400324D01*
X-1459424Y26382970D01*
X-1475904Y26364786D01*
X-1491473Y26345816D01*
X-1506092Y26326104D01*
X-1519727Y26305699D01*
X-1532343Y26284649D01*
X-1543912Y26263006D01*
X-1554405Y26240821D01*
X-1563796Y26218148D01*
X-1572064Y26195041D01*
X-1579188Y26171556D01*
X-1585151Y26147751D01*
X-1589939Y26123681D01*
X-1593540Y26099405D01*
X-1595945Y26074982D01*
X-1597149Y26050471D01*
X-1597149Y26025929D01*
X-1947044Y26025929D01*
X-1947044Y26059060D01*
X-1944997Y26100730D01*
X-1940908Y26142249D01*
X-1934786Y26183518D01*
X-1926647Y26224436D01*
X-1916510Y26264906D01*
X-1904399Y26304829D01*
X-1890344Y26344111D01*
X-1874378Y26382655D01*
X-1856541Y26420370D01*
X-1836874Y26457163D01*
X-1815426Y26492948D01*
X-1792247Y26527637D01*
X-1767394Y26561147D01*
X-1740928Y26593397D01*
X-1712910Y26624309D01*
X-1683409Y26653810D01*
X-1652497Y26681828D01*
X-1620247Y26708294D01*
X-1586737Y26733147D01*
X-1552048Y26756326D01*
X-1516263Y26777774D01*
X-1479470Y26797441D01*
X-1441755Y26815278D01*
X-1403211Y26831244D01*
X-1363929Y26845299D01*
X-1324006Y26857410D01*
X-1283536Y26867547D01*
X-1242618Y26875686D01*
X-1201349Y26881808D01*
X-1159830Y26885897D01*
X-1118160Y26887944D01*
X-1076440Y26887944D01*
X-1034770Y26885897D01*
G37*
G36*
X-5327300Y26888200D02*
G01*
X-5327300Y25188200D01*
X-7027300Y25188200D01*
X-7027300Y26025929D01*
X-6677149Y26025929D01*
X-6675945Y26001418D01*
X-6673540Y25976995D01*
X-6669939Y25952719D01*
X-6665151Y25928649D01*
X-6659188Y25904844D01*
X-6652064Y25881359D01*
X-6643796Y25858252D01*
X-6634405Y25835579D01*
X-6623912Y25813394D01*
X-6612343Y25791751D01*
X-6599727Y25770701D01*
X-6586092Y25750296D01*
X-6571473Y25730584D01*
X-6555904Y25711614D01*
X-6539424Y25693430D01*
X-6522070Y25676076D01*
X-6503886Y25659596D01*
X-6484916Y25644027D01*
X-6465204Y25629408D01*
X-6444799Y25615773D01*
X-6423749Y25603157D01*
X-6402106Y25591588D01*
X-6379921Y25581095D01*
X-6357248Y25571704D01*
X-6334141Y25563436D01*
X-6310656Y25556312D01*
X-6286851Y25550349D01*
X-6262781Y25545561D01*
X-6238505Y25541960D01*
X-6214082Y25539555D01*
X-6189571Y25538351D01*
X-6165029Y25538351D01*
X-6140518Y25539555D01*
X-6116095Y25541960D01*
X-6091819Y25545561D01*
X-6067749Y25550349D01*
X-6043944Y25556312D01*
X-6020459Y25563436D01*
X-5997352Y25571704D01*
X-5974679Y25581095D01*
X-5952494Y25591588D01*
X-5930851Y25603157D01*
X-5909801Y25615773D01*
X-5889396Y25629408D01*
X-5869684Y25644027D01*
X-5850714Y25659596D01*
X-5832530Y25676076D01*
X-5815176Y25693430D01*
X-5798696Y25711614D01*
X-5783127Y25730584D01*
X-5768508Y25750296D01*
X-5754873Y25770701D01*
X-5742257Y25791751D01*
X-5730688Y25813394D01*
X-5720195Y25835579D01*
X-5710804Y25858252D01*
X-5702536Y25881359D01*
X-5695412Y25904844D01*
X-5689449Y25928649D01*
X-5684661Y25952719D01*
X-5681060Y25976995D01*
X-5678655Y26001418D01*
X-5677451Y26025929D01*
X-5677451Y26050471D01*
X-5678655Y26074982D01*
X-5681060Y26099405D01*
X-5684661Y26123681D01*
X-5689449Y26147751D01*
X-5695412Y26171556D01*
X-5702536Y26195041D01*
X-5710804Y26218148D01*
X-5720195Y26240821D01*
X-5730688Y26263006D01*
X-5742257Y26284649D01*
X-5754873Y26305699D01*
X-5768508Y26326104D01*
X-5783127Y26345816D01*
X-5798696Y26364786D01*
X-5815176Y26382970D01*
X-5832530Y26400324D01*
X-5850714Y26416804D01*
X-5869684Y26432373D01*
X-5889396Y26446992D01*
X-5909801Y26460627D01*
X-5930851Y26473243D01*
X-5952494Y26484812D01*
X-5974679Y26495305D01*
X-5997352Y26504696D01*
X-6020459Y26512964D01*
X-6043944Y26520088D01*
X-6067749Y26526051D01*
X-6091819Y26530839D01*
X-6116095Y26534440D01*
X-6140518Y26536845D01*
X-6165029Y26538049D01*
X-6189571Y26538049D01*
X-6214082Y26536845D01*
X-6238505Y26534440D01*
X-6262781Y26530839D01*
X-6286851Y26526051D01*
X-6310656Y26520088D01*
X-6334141Y26512964D01*
X-6357248Y26504696D01*
X-6379921Y26495305D01*
X-6402106Y26484812D01*
X-6423749Y26473243D01*
X-6444799Y26460627D01*
X-6465204Y26446992D01*
X-6484916Y26432373D01*
X-6503886Y26416804D01*
X-6522070Y26400324D01*
X-6539424Y26382970D01*
X-6555904Y26364786D01*
X-6571473Y26345816D01*
X-6586092Y26326104D01*
X-6599727Y26305699D01*
X-6612343Y26284649D01*
X-6623912Y26263006D01*
X-6634405Y26240821D01*
X-6643796Y26218148D01*
X-6652064Y26195041D01*
X-6659188Y26171556D01*
X-6665151Y26147751D01*
X-6669939Y26123681D01*
X-6673540Y26099405D01*
X-6675945Y26074982D01*
X-6677149Y26050471D01*
X-6677149Y26025929D01*
X-7027300Y26025929D01*
X-7027300Y26888200D01*
X-5327300Y26888200D01*
G37*
G36*
X11665230Y26885897D02*
G01*
X11706749Y26881808D01*
X11748018Y26875686D01*
X11788936Y26867547D01*
X11829406Y26857410D01*
X11869329Y26845299D01*
X11908611Y26831244D01*
X11947155Y26815278D01*
X11984870Y26797441D01*
X12021663Y26777774D01*
X12057448Y26756326D01*
X12092137Y26733147D01*
X12125647Y26708294D01*
X12157897Y26681828D01*
X12188809Y26653810D01*
X12218310Y26624309D01*
X12246328Y26593397D01*
X12272794Y26561147D01*
X12297647Y26527637D01*
X12320826Y26492948D01*
X12342274Y26457163D01*
X12361941Y26420370D01*
X12379778Y26382655D01*
X12395744Y26344111D01*
X12409799Y26304829D01*
X12421910Y26264906D01*
X12432047Y26224436D01*
X12440186Y26183518D01*
X12446308Y26142249D01*
X12450397Y26100730D01*
X12452444Y26059060D01*
X12452444Y26017340D01*
X12450397Y25975670D01*
X12446308Y25934151D01*
X12440186Y25892882D01*
X12432047Y25851964D01*
X12421910Y25811494D01*
X12409799Y25771571D01*
X12395744Y25732289D01*
X12379778Y25693745D01*
X12361941Y25656030D01*
X12342274Y25619237D01*
X12320826Y25583452D01*
X12297647Y25548763D01*
X12272794Y25515253D01*
X12246328Y25483003D01*
X12218310Y25452091D01*
X12188809Y25422590D01*
X12157897Y25394572D01*
X12125647Y25368106D01*
X12092137Y25343253D01*
X12057448Y25320074D01*
X12021663Y25298626D01*
X11984870Y25278959D01*
X11947155Y25261122D01*
X11908611Y25245156D01*
X11869329Y25231101D01*
X11829406Y25218990D01*
X11788936Y25208853D01*
X11748018Y25200714D01*
X11706749Y25194592D01*
X11665230Y25190503D01*
X11623560Y25188456D01*
X11581840Y25188456D01*
X11540170Y25190503D01*
X11498651Y25194592D01*
X11457382Y25200714D01*
X11416464Y25208853D01*
X11375994Y25218990D01*
X11336071Y25231101D01*
X11296789Y25245156D01*
X11258245Y25261122D01*
X11220530Y25278959D01*
X11183737Y25298626D01*
X11147952Y25320074D01*
X11113263Y25343253D01*
X11079753Y25368106D01*
X11047503Y25394572D01*
X11016591Y25422590D01*
X10987090Y25452091D01*
X10959072Y25483003D01*
X10932606Y25515253D01*
X10907753Y25548763D01*
X10884574Y25583452D01*
X10863126Y25619237D01*
X10843459Y25656030D01*
X10825622Y25693745D01*
X10809656Y25732289D01*
X10795601Y25771571D01*
X10783490Y25811494D01*
X10773353Y25851964D01*
X10765214Y25892882D01*
X10759092Y25934151D01*
X10755003Y25975670D01*
X10752956Y26017340D01*
X10752956Y26025929D01*
X11102851Y26025929D01*
X11104055Y26001418D01*
X11106460Y25976995D01*
X11110061Y25952719D01*
X11114849Y25928649D01*
X11120812Y25904844D01*
X11127936Y25881359D01*
X11136204Y25858252D01*
X11145595Y25835579D01*
X11156088Y25813394D01*
X11167657Y25791751D01*
X11180273Y25770701D01*
X11193908Y25750296D01*
X11208527Y25730584D01*
X11224096Y25711614D01*
X11240576Y25693430D01*
X11257930Y25676076D01*
X11276114Y25659596D01*
X11295084Y25644027D01*
X11314796Y25629408D01*
X11335201Y25615773D01*
X11356251Y25603157D01*
X11377894Y25591588D01*
X11400079Y25581095D01*
X11422752Y25571704D01*
X11445859Y25563436D01*
X11469344Y25556312D01*
X11493149Y25550349D01*
X11517219Y25545561D01*
X11541495Y25541960D01*
X11565918Y25539555D01*
X11590429Y25538351D01*
X11614971Y25538351D01*
X11639482Y25539555D01*
X11663905Y25541960D01*
X11688181Y25545561D01*
X11712251Y25550349D01*
X11736056Y25556312D01*
X11759541Y25563436D01*
X11782648Y25571704D01*
X11805321Y25581095D01*
X11827506Y25591588D01*
X11849149Y25603157D01*
X11870199Y25615773D01*
X11890604Y25629408D01*
X11910316Y25644027D01*
X11929286Y25659596D01*
X11947470Y25676076D01*
X11964824Y25693430D01*
X11981304Y25711614D01*
X11996873Y25730584D01*
X12011492Y25750296D01*
X12025127Y25770701D01*
X12037743Y25791751D01*
X12049312Y25813394D01*
X12059805Y25835579D01*
X12069196Y25858252D01*
X12077464Y25881359D01*
X12084588Y25904844D01*
X12090551Y25928649D01*
X12095339Y25952719D01*
X12098940Y25976995D01*
X12101345Y26001418D01*
X12102549Y26025929D01*
X12102549Y26050471D01*
X12101345Y26074982D01*
X12098940Y26099405D01*
X12095339Y26123681D01*
X12090551Y26147751D01*
X12084588Y26171556D01*
X12077464Y26195041D01*
X12069196Y26218148D01*
X12059805Y26240821D01*
X12049312Y26263006D01*
X12037743Y26284649D01*
X12025127Y26305699D01*
X12011492Y26326104D01*
X11996873Y26345816D01*
X11981304Y26364786D01*
X11964824Y26382970D01*
X11947470Y26400324D01*
X11929286Y26416804D01*
X11910316Y26432373D01*
X11890604Y26446992D01*
X11870199Y26460627D01*
X11849149Y26473243D01*
X11827506Y26484812D01*
X11805321Y26495305D01*
X11782648Y26504696D01*
X11759541Y26512964D01*
X11736056Y26520088D01*
X11712251Y26526051D01*
X11688181Y26530839D01*
X11663905Y26534440D01*
X11639482Y26536845D01*
X11614971Y26538049D01*
X11590429Y26538049D01*
X11565918Y26536845D01*
X11541495Y26534440D01*
X11517219Y26530839D01*
X11493149Y26526051D01*
X11469344Y26520088D01*
X11445859Y26512964D01*
X11422752Y26504696D01*
X11400079Y26495305D01*
X11377894Y26484812D01*
X11356251Y26473243D01*
X11335201Y26460627D01*
X11314796Y26446992D01*
X11295084Y26432373D01*
X11276114Y26416804D01*
X11257930Y26400324D01*
X11240576Y26382970D01*
X11224096Y26364786D01*
X11208527Y26345816D01*
X11193908Y26326104D01*
X11180273Y26305699D01*
X11167657Y26284649D01*
X11156088Y26263006D01*
X11145595Y26240821D01*
X11136204Y26218148D01*
X11127936Y26195041D01*
X11120812Y26171556D01*
X11114849Y26147751D01*
X11110061Y26123681D01*
X11106460Y26099405D01*
X11104055Y26074982D01*
X11102851Y26050471D01*
X11102851Y26025929D01*
X10752956Y26025929D01*
X10752956Y26059060D01*
X10755003Y26100730D01*
X10759092Y26142249D01*
X10765214Y26183518D01*
X10773353Y26224436D01*
X10783490Y26264906D01*
X10795601Y26304829D01*
X10809656Y26344111D01*
X10825622Y26382655D01*
X10843459Y26420370D01*
X10863126Y26457163D01*
X10884574Y26492948D01*
X10907753Y26527637D01*
X10932606Y26561147D01*
X10959072Y26593397D01*
X10987090Y26624309D01*
X11016591Y26653810D01*
X11047503Y26681828D01*
X11079753Y26708294D01*
X11113263Y26733147D01*
X11147952Y26756326D01*
X11183737Y26777774D01*
X11220530Y26797441D01*
X11258245Y26815278D01*
X11296789Y26831244D01*
X11336071Y26845299D01*
X11375994Y26857410D01*
X11416464Y26867547D01*
X11457382Y26875686D01*
X11498651Y26881808D01*
X11540170Y26885897D01*
X11581840Y26887944D01*
X11623560Y26887944D01*
X11665230Y26885897D01*
G37*
G36*
X-3574770Y26885897D02*
G01*
X-3533251Y26881808D01*
X-3491982Y26875686D01*
X-3451064Y26867547D01*
X-3410594Y26857410D01*
X-3370671Y26845299D01*
X-3331389Y26831244D01*
X-3292845Y26815278D01*
X-3255130Y26797441D01*
X-3218337Y26777774D01*
X-3182552Y26756326D01*
X-3147863Y26733147D01*
X-3114353Y26708294D01*
X-3082103Y26681828D01*
X-3051191Y26653810D01*
X-3021690Y26624309D01*
X-2993672Y26593397D01*
X-2967206Y26561147D01*
X-2942353Y26527637D01*
X-2919174Y26492948D01*
X-2897726Y26457163D01*
X-2878059Y26420370D01*
X-2860222Y26382655D01*
X-2844256Y26344111D01*
X-2830201Y26304829D01*
X-2818090Y26264906D01*
X-2807953Y26224436D01*
X-2799814Y26183518D01*
X-2793692Y26142249D01*
X-2789603Y26100730D01*
X-2787556Y26059060D01*
X-2787556Y26017340D01*
X-2789603Y25975670D01*
X-2793692Y25934151D01*
X-2799814Y25892882D01*
X-2807953Y25851964D01*
X-2818090Y25811494D01*
X-2830201Y25771571D01*
X-2844256Y25732289D01*
X-2860222Y25693745D01*
X-2878059Y25656030D01*
X-2897726Y25619237D01*
X-2919174Y25583452D01*
X-2942353Y25548763D01*
X-2967206Y25515253D01*
X-2993672Y25483003D01*
X-3021690Y25452091D01*
X-3051191Y25422590D01*
X-3082103Y25394572D01*
X-3114353Y25368106D01*
X-3147863Y25343253D01*
X-3182552Y25320074D01*
X-3218337Y25298626D01*
X-3255130Y25278959D01*
X-3292845Y25261122D01*
X-3331389Y25245156D01*
X-3370671Y25231101D01*
X-3410594Y25218990D01*
X-3451064Y25208853D01*
X-3491982Y25200714D01*
X-3533251Y25194592D01*
X-3574770Y25190503D01*
X-3616440Y25188456D01*
X-3658160Y25188456D01*
X-3699830Y25190503D01*
X-3741349Y25194592D01*
X-3782618Y25200714D01*
X-3823536Y25208853D01*
X-3864006Y25218990D01*
X-3903929Y25231101D01*
X-3943211Y25245156D01*
X-3981755Y25261122D01*
X-4019470Y25278959D01*
X-4056263Y25298626D01*
X-4092048Y25320074D01*
X-4126737Y25343253D01*
X-4160247Y25368106D01*
X-4192497Y25394572D01*
X-4223409Y25422590D01*
X-4252910Y25452091D01*
X-4280928Y25483003D01*
X-4307394Y25515253D01*
X-4332247Y25548763D01*
X-4355426Y25583452D01*
X-4376874Y25619237D01*
X-4396541Y25656030D01*
X-4414378Y25693745D01*
X-4430344Y25732289D01*
X-4444399Y25771571D01*
X-4456510Y25811494D01*
X-4466647Y25851964D01*
X-4474786Y25892882D01*
X-4480908Y25934151D01*
X-4484997Y25975670D01*
X-4487044Y26017340D01*
X-4487044Y26025929D01*
X-4137149Y26025929D01*
X-4135945Y26001418D01*
X-4133540Y25976995D01*
X-4129939Y25952719D01*
X-4125151Y25928649D01*
X-4119188Y25904844D01*
X-4112064Y25881359D01*
X-4103796Y25858252D01*
X-4094405Y25835579D01*
X-4083912Y25813394D01*
X-4072343Y25791751D01*
X-4059727Y25770701D01*
X-4046092Y25750296D01*
X-4031473Y25730584D01*
X-4015904Y25711614D01*
X-3999424Y25693430D01*
X-3982070Y25676076D01*
X-3963886Y25659596D01*
X-3944916Y25644027D01*
X-3925204Y25629408D01*
X-3904799Y25615773D01*
X-3883749Y25603157D01*
X-3862106Y25591588D01*
X-3839921Y25581095D01*
X-3817248Y25571704D01*
X-3794141Y25563436D01*
X-3770656Y25556312D01*
X-3746851Y25550349D01*
X-3722781Y25545561D01*
X-3698505Y25541960D01*
X-3674082Y25539555D01*
X-3649571Y25538351D01*
X-3625029Y25538351D01*
X-3600518Y25539555D01*
X-3576095Y25541960D01*
X-3551819Y25545561D01*
X-3527749Y25550349D01*
X-3503944Y25556312D01*
X-3480459Y25563436D01*
X-3457352Y25571704D01*
X-3434679Y25581095D01*
X-3412494Y25591588D01*
X-3390851Y25603157D01*
X-3369801Y25615773D01*
X-3349396Y25629408D01*
X-3329684Y25644027D01*
X-3310714Y25659596D01*
X-3292530Y25676076D01*
X-3275176Y25693430D01*
X-3258696Y25711614D01*
X-3243127Y25730584D01*
X-3228508Y25750296D01*
X-3214873Y25770701D01*
X-3202257Y25791751D01*
X-3190688Y25813394D01*
X-3180195Y25835579D01*
X-3170804Y25858252D01*
X-3162536Y25881359D01*
X-3155412Y25904844D01*
X-3149449Y25928649D01*
X-3144661Y25952719D01*
X-3141060Y25976995D01*
X-3138655Y26001418D01*
X-3137451Y26025929D01*
X-3137451Y26050471D01*
X-3138655Y26074982D01*
X-3141060Y26099405D01*
X-3144661Y26123681D01*
X-3149449Y26147751D01*
X-3155412Y26171556D01*
X-3162536Y26195041D01*
X-3170804Y26218148D01*
X-3180195Y26240821D01*
X-3190688Y26263006D01*
X-3202257Y26284649D01*
X-3214873Y26305699D01*
X-3228508Y26326104D01*
X-3243127Y26345816D01*
X-3258696Y26364786D01*
X-3275176Y26382970D01*
X-3292530Y26400324D01*
X-3310714Y26416804D01*
X-3329684Y26432373D01*
X-3349396Y26446992D01*
X-3369801Y26460627D01*
X-3390851Y26473243D01*
X-3412494Y26484812D01*
X-3434679Y26495305D01*
X-3457352Y26504696D01*
X-3480459Y26512964D01*
X-3503944Y26520088D01*
X-3527749Y26526051D01*
X-3551819Y26530839D01*
X-3576095Y26534440D01*
X-3600518Y26536845D01*
X-3625029Y26538049D01*
X-3649571Y26538049D01*
X-3674082Y26536845D01*
X-3698505Y26534440D01*
X-3722781Y26530839D01*
X-3746851Y26526051D01*
X-3770656Y26520088D01*
X-3794141Y26512964D01*
X-3817248Y26504696D01*
X-3839921Y26495305D01*
X-3862106Y26484812D01*
X-3883749Y26473243D01*
X-3904799Y26460627D01*
X-3925204Y26446992D01*
X-3944916Y26432373D01*
X-3963886Y26416804D01*
X-3982070Y26400324D01*
X-3999424Y26382970D01*
X-4015904Y26364786D01*
X-4031473Y26345816D01*
X-4046092Y26326104D01*
X-4059727Y26305699D01*
X-4072343Y26284649D01*
X-4083912Y26263006D01*
X-4094405Y26240821D01*
X-4103796Y26218148D01*
X-4112064Y26195041D01*
X-4119188Y26171556D01*
X-4125151Y26147751D01*
X-4129939Y26123681D01*
X-4133540Y26099405D01*
X-4135945Y26074982D01*
X-4137149Y26050471D01*
X-4137149Y26025929D01*
X-4487044Y26025929D01*
X-4487044Y26059060D01*
X-4484997Y26100730D01*
X-4480908Y26142249D01*
X-4474786Y26183518D01*
X-4466647Y26224436D01*
X-4456510Y26264906D01*
X-4444399Y26304829D01*
X-4430344Y26344111D01*
X-4414378Y26382655D01*
X-4396541Y26420370D01*
X-4376874Y26457163D01*
X-4355426Y26492948D01*
X-4332247Y26527637D01*
X-4307394Y26561147D01*
X-4280928Y26593397D01*
X-4252910Y26624309D01*
X-4223409Y26653810D01*
X-4192497Y26681828D01*
X-4160247Y26708294D01*
X-4126737Y26733147D01*
X-4092048Y26756326D01*
X-4056263Y26777774D01*
X-4019470Y26797441D01*
X-3981755Y26815278D01*
X-3943211Y26831244D01*
X-3903929Y26845299D01*
X-3864006Y26857410D01*
X-3823536Y26867547D01*
X-3782618Y26875686D01*
X-3741349Y26881808D01*
X-3699830Y26885897D01*
X-3658160Y26887944D01*
X-3616440Y26887944D01*
X-3574770Y26885897D01*
G37*
G36*
X6585230Y26885897D02*
G01*
X6626749Y26881808D01*
X6668018Y26875686D01*
X6708936Y26867547D01*
X6749406Y26857410D01*
X6789329Y26845299D01*
X6828611Y26831244D01*
X6867155Y26815278D01*
X6904870Y26797441D01*
X6941663Y26777774D01*
X6977448Y26756326D01*
X7012137Y26733147D01*
X7045647Y26708294D01*
X7077897Y26681828D01*
X7108809Y26653810D01*
X7138310Y26624309D01*
X7166328Y26593397D01*
X7192794Y26561147D01*
X7217647Y26527637D01*
X7240826Y26492948D01*
X7262274Y26457163D01*
X7281941Y26420370D01*
X7299778Y26382655D01*
X7315744Y26344111D01*
X7329799Y26304829D01*
X7341910Y26264906D01*
X7352047Y26224436D01*
X7360186Y26183518D01*
X7366308Y26142249D01*
X7370397Y26100730D01*
X7372444Y26059060D01*
X7372444Y26017340D01*
X7370397Y25975670D01*
X7366308Y25934151D01*
X7360186Y25892882D01*
X7352047Y25851964D01*
X7341910Y25811494D01*
X7329799Y25771571D01*
X7315744Y25732289D01*
X7299778Y25693745D01*
X7281941Y25656030D01*
X7262274Y25619237D01*
X7240826Y25583452D01*
X7217647Y25548763D01*
X7192794Y25515253D01*
X7166328Y25483003D01*
X7138310Y25452091D01*
X7108809Y25422590D01*
X7077897Y25394572D01*
X7045647Y25368106D01*
X7012137Y25343253D01*
X6977448Y25320074D01*
X6941663Y25298626D01*
X6904870Y25278959D01*
X6867155Y25261122D01*
X6828611Y25245156D01*
X6789329Y25231101D01*
X6749406Y25218990D01*
X6708936Y25208853D01*
X6668018Y25200714D01*
X6626749Y25194592D01*
X6585230Y25190503D01*
X6543560Y25188456D01*
X6501840Y25188456D01*
X6460170Y25190503D01*
X6418651Y25194592D01*
X6377382Y25200714D01*
X6336464Y25208853D01*
X6295994Y25218990D01*
X6256071Y25231101D01*
X6216789Y25245156D01*
X6178245Y25261122D01*
X6140530Y25278959D01*
X6103737Y25298626D01*
X6067952Y25320074D01*
X6033263Y25343253D01*
X5999753Y25368106D01*
X5967503Y25394572D01*
X5936591Y25422590D01*
X5907090Y25452091D01*
X5879072Y25483003D01*
X5852606Y25515253D01*
X5827753Y25548763D01*
X5804574Y25583452D01*
X5783126Y25619237D01*
X5763459Y25656030D01*
X5745622Y25693745D01*
X5729656Y25732289D01*
X5715601Y25771571D01*
X5703490Y25811494D01*
X5693353Y25851964D01*
X5685214Y25892882D01*
X5679092Y25934151D01*
X5675003Y25975670D01*
X5672956Y26017340D01*
X5672956Y26025929D01*
X6022851Y26025929D01*
X6024055Y26001418D01*
X6026460Y25976995D01*
X6030061Y25952719D01*
X6034849Y25928649D01*
X6040812Y25904844D01*
X6047936Y25881359D01*
X6056204Y25858252D01*
X6065595Y25835579D01*
X6076088Y25813394D01*
X6087657Y25791751D01*
X6100273Y25770701D01*
X6113908Y25750296D01*
X6128527Y25730584D01*
X6144096Y25711614D01*
X6160576Y25693430D01*
X6177930Y25676076D01*
X6196114Y25659596D01*
X6215084Y25644027D01*
X6234796Y25629408D01*
X6255201Y25615773D01*
X6276251Y25603157D01*
X6297894Y25591588D01*
X6320079Y25581095D01*
X6342752Y25571704D01*
X6365859Y25563436D01*
X6389344Y25556312D01*
X6413149Y25550349D01*
X6437219Y25545561D01*
X6461495Y25541960D01*
X6485918Y25539555D01*
X6510429Y25538351D01*
X6534971Y25538351D01*
X6559482Y25539555D01*
X6583905Y25541960D01*
X6608181Y25545561D01*
X6632251Y25550349D01*
X6656056Y25556312D01*
X6679541Y25563436D01*
X6702648Y25571704D01*
X6725321Y25581095D01*
X6747506Y25591588D01*
X6769149Y25603157D01*
X6790199Y25615773D01*
X6810604Y25629408D01*
X6830316Y25644027D01*
X6849286Y25659596D01*
X6867470Y25676076D01*
X6884824Y25693430D01*
X6901304Y25711614D01*
X6916873Y25730584D01*
X6931492Y25750296D01*
X6945127Y25770701D01*
X6957743Y25791751D01*
X6969312Y25813394D01*
X6979805Y25835579D01*
X6989196Y25858252D01*
X6997464Y25881359D01*
X7004588Y25904844D01*
X7010551Y25928649D01*
X7015339Y25952719D01*
X7018940Y25976995D01*
X7021345Y26001418D01*
X7022549Y26025929D01*
X7022549Y26050471D01*
X7021345Y26074982D01*
X7018940Y26099405D01*
X7015339Y26123681D01*
X7010551Y26147751D01*
X7004588Y26171556D01*
X6997464Y26195041D01*
X6989196Y26218148D01*
X6979805Y26240821D01*
X6969312Y26263006D01*
X6957743Y26284649D01*
X6945127Y26305699D01*
X6931492Y26326104D01*
X6916873Y26345816D01*
X6901304Y26364786D01*
X6884824Y26382970D01*
X6867470Y26400324D01*
X6849286Y26416804D01*
X6830316Y26432373D01*
X6810604Y26446992D01*
X6790199Y26460627D01*
X6769149Y26473243D01*
X6747506Y26484812D01*
X6725321Y26495305D01*
X6702648Y26504696D01*
X6679541Y26512964D01*
X6656056Y26520088D01*
X6632251Y26526051D01*
X6608181Y26530839D01*
X6583905Y26534440D01*
X6559482Y26536845D01*
X6534971Y26538049D01*
X6510429Y26538049D01*
X6485918Y26536845D01*
X6461495Y26534440D01*
X6437219Y26530839D01*
X6413149Y26526051D01*
X6389344Y26520088D01*
X6365859Y26512964D01*
X6342752Y26504696D01*
X6320079Y26495305D01*
X6297894Y26484812D01*
X6276251Y26473243D01*
X6255201Y26460627D01*
X6234796Y26446992D01*
X6215084Y26432373D01*
X6196114Y26416804D01*
X6177930Y26400324D01*
X6160576Y26382970D01*
X6144096Y26364786D01*
X6128527Y26345816D01*
X6113908Y26326104D01*
X6100273Y26305699D01*
X6087657Y26284649D01*
X6076088Y26263006D01*
X6065595Y26240821D01*
X6056204Y26218148D01*
X6047936Y26195041D01*
X6040812Y26171556D01*
X6034849Y26147751D01*
X6030061Y26123681D01*
X6026460Y26099405D01*
X6024055Y26074982D01*
X6022851Y26050471D01*
X6022851Y26025929D01*
X5672956Y26025929D01*
X5672956Y26059060D01*
X5675003Y26100730D01*
X5679092Y26142249D01*
X5685214Y26183518D01*
X5693353Y26224436D01*
X5703490Y26264906D01*
X5715601Y26304829D01*
X5729656Y26344111D01*
X5745622Y26382655D01*
X5763459Y26420370D01*
X5783126Y26457163D01*
X5804574Y26492948D01*
X5827753Y26527637D01*
X5852606Y26561147D01*
X5879072Y26593397D01*
X5907090Y26624309D01*
X5936591Y26653810D01*
X5967503Y26681828D01*
X5999753Y26708294D01*
X6033263Y26733147D01*
X6067952Y26756326D01*
X6103737Y26777774D01*
X6140530Y26797441D01*
X6178245Y26815278D01*
X6216789Y26831244D01*
X6256071Y26845299D01*
X6295994Y26857410D01*
X6336464Y26867547D01*
X6377382Y26875686D01*
X6418651Y26881808D01*
X6460170Y26885897D01*
X6501840Y26887944D01*
X6543560Y26887944D01*
X6585230Y26885897D01*
G37*
G36*
X4045230Y26885897D02*
G01*
X4086749Y26881808D01*
X4128018Y26875686D01*
X4168936Y26867547D01*
X4209406Y26857410D01*
X4249329Y26845299D01*
X4288611Y26831244D01*
X4327155Y26815278D01*
X4364870Y26797441D01*
X4401663Y26777774D01*
X4437448Y26756326D01*
X4472137Y26733147D01*
X4505647Y26708294D01*
X4537897Y26681828D01*
X4568809Y26653810D01*
X4598310Y26624309D01*
X4626328Y26593397D01*
X4652794Y26561147D01*
X4677647Y26527637D01*
X4700826Y26492948D01*
X4722274Y26457163D01*
X4741941Y26420370D01*
X4759778Y26382655D01*
X4775744Y26344111D01*
X4789799Y26304829D01*
X4801910Y26264906D01*
X4812047Y26224436D01*
X4820186Y26183518D01*
X4826308Y26142249D01*
X4830397Y26100730D01*
X4832444Y26059060D01*
X4832444Y26017340D01*
X4830397Y25975670D01*
X4826308Y25934151D01*
X4820186Y25892882D01*
X4812047Y25851964D01*
X4801910Y25811494D01*
X4789799Y25771571D01*
X4775744Y25732289D01*
X4759778Y25693745D01*
X4741941Y25656030D01*
X4722274Y25619237D01*
X4700826Y25583452D01*
X4677647Y25548763D01*
X4652794Y25515253D01*
X4626328Y25483003D01*
X4598310Y25452091D01*
X4568809Y25422590D01*
X4537897Y25394572D01*
X4505647Y25368106D01*
X4472137Y25343253D01*
X4437448Y25320074D01*
X4401663Y25298626D01*
X4364870Y25278959D01*
X4327155Y25261122D01*
X4288611Y25245156D01*
X4249329Y25231101D01*
X4209406Y25218990D01*
X4168936Y25208853D01*
X4128018Y25200714D01*
X4086749Y25194592D01*
X4045230Y25190503D01*
X4003560Y25188456D01*
X3961840Y25188456D01*
X3920170Y25190503D01*
X3878651Y25194592D01*
X3837382Y25200714D01*
X3796464Y25208853D01*
X3755994Y25218990D01*
X3716071Y25231101D01*
X3676789Y25245156D01*
X3638245Y25261122D01*
X3600530Y25278959D01*
X3563737Y25298626D01*
X3527952Y25320074D01*
X3493263Y25343253D01*
X3459753Y25368106D01*
X3427503Y25394572D01*
X3396591Y25422590D01*
X3367090Y25452091D01*
X3339072Y25483003D01*
X3312606Y25515253D01*
X3287753Y25548763D01*
X3264574Y25583452D01*
X3243126Y25619237D01*
X3223459Y25656030D01*
X3205622Y25693745D01*
X3189656Y25732289D01*
X3175601Y25771571D01*
X3163490Y25811494D01*
X3153353Y25851964D01*
X3145214Y25892882D01*
X3139092Y25934151D01*
X3135003Y25975670D01*
X3132956Y26017340D01*
X3132956Y26025929D01*
X3482851Y26025929D01*
X3484055Y26001418D01*
X3486460Y25976995D01*
X3490061Y25952719D01*
X3494849Y25928649D01*
X3500812Y25904844D01*
X3507936Y25881359D01*
X3516204Y25858252D01*
X3525595Y25835579D01*
X3536088Y25813394D01*
X3547657Y25791751D01*
X3560273Y25770701D01*
X3573908Y25750296D01*
X3588527Y25730584D01*
X3604096Y25711614D01*
X3620576Y25693430D01*
X3637930Y25676076D01*
X3656114Y25659596D01*
X3675084Y25644027D01*
X3694796Y25629408D01*
X3715201Y25615773D01*
X3736251Y25603157D01*
X3757894Y25591588D01*
X3780079Y25581095D01*
X3802752Y25571704D01*
X3825859Y25563436D01*
X3849344Y25556312D01*
X3873149Y25550349D01*
X3897219Y25545561D01*
X3921495Y25541960D01*
X3945918Y25539555D01*
X3970429Y25538351D01*
X3994971Y25538351D01*
X4019482Y25539555D01*
X4043905Y25541960D01*
X4068181Y25545561D01*
X4092251Y25550349D01*
X4116056Y25556312D01*
X4139541Y25563436D01*
X4162648Y25571704D01*
X4185321Y25581095D01*
X4207506Y25591588D01*
X4229149Y25603157D01*
X4250199Y25615773D01*
X4270604Y25629408D01*
X4290316Y25644027D01*
X4309286Y25659596D01*
X4327470Y25676076D01*
X4344824Y25693430D01*
X4361304Y25711614D01*
X4376873Y25730584D01*
X4391492Y25750296D01*
X4405127Y25770701D01*
X4417743Y25791751D01*
X4429312Y25813394D01*
X4439805Y25835579D01*
X4449196Y25858252D01*
X4457464Y25881359D01*
X4464588Y25904844D01*
X4470551Y25928649D01*
X4475339Y25952719D01*
X4478940Y25976995D01*
X4481345Y26001418D01*
X4482549Y26025929D01*
X4482549Y26050471D01*
X4481345Y26074982D01*
X4478940Y26099405D01*
X4475339Y26123681D01*
X4470551Y26147751D01*
X4464588Y26171556D01*
X4457464Y26195041D01*
X4449196Y26218148D01*
X4439805Y26240821D01*
X4429312Y26263006D01*
X4417743Y26284649D01*
X4405127Y26305699D01*
X4391492Y26326104D01*
X4376873Y26345816D01*
X4361304Y26364786D01*
X4344824Y26382970D01*
X4327470Y26400324D01*
X4309286Y26416804D01*
X4290316Y26432373D01*
X4270604Y26446992D01*
X4250199Y26460627D01*
X4229149Y26473243D01*
X4207506Y26484812D01*
X4185321Y26495305D01*
X4162648Y26504696D01*
X4139541Y26512964D01*
X4116056Y26520088D01*
X4092251Y26526051D01*
X4068181Y26530839D01*
X4043905Y26534440D01*
X4019482Y26536845D01*
X3994971Y26538049D01*
X3970429Y26538049D01*
X3945918Y26536845D01*
X3921495Y26534440D01*
X3897219Y26530839D01*
X3873149Y26526051D01*
X3849344Y26520088D01*
X3825859Y26512964D01*
X3802752Y26504696D01*
X3780079Y26495305D01*
X3757894Y26484812D01*
X3736251Y26473243D01*
X3715201Y26460627D01*
X3694796Y26446992D01*
X3675084Y26432373D01*
X3656114Y26416804D01*
X3637930Y26400324D01*
X3620576Y26382970D01*
X3604096Y26364786D01*
X3588527Y26345816D01*
X3573908Y26326104D01*
X3560273Y26305699D01*
X3547657Y26284649D01*
X3536088Y26263006D01*
X3525595Y26240821D01*
X3516204Y26218148D01*
X3507936Y26195041D01*
X3500812Y26171556D01*
X3494849Y26147751D01*
X3490061Y26123681D01*
X3486460Y26099405D01*
X3484055Y26074982D01*
X3482851Y26050471D01*
X3482851Y26025929D01*
X3132956Y26025929D01*
X3132956Y26059060D01*
X3135003Y26100730D01*
X3139092Y26142249D01*
X3145214Y26183518D01*
X3153353Y26224436D01*
X3163490Y26264906D01*
X3175601Y26304829D01*
X3189656Y26344111D01*
X3205622Y26382655D01*
X3223459Y26420370D01*
X3243126Y26457163D01*
X3264574Y26492948D01*
X3287753Y26527637D01*
X3312606Y26561147D01*
X3339072Y26593397D01*
X3367090Y26624309D01*
X3396591Y26653810D01*
X3427503Y26681828D01*
X3459753Y26708294D01*
X3493263Y26733147D01*
X3527952Y26756326D01*
X3563737Y26777774D01*
X3600530Y26797441D01*
X3638245Y26815278D01*
X3676789Y26831244D01*
X3716071Y26845299D01*
X3755994Y26857410D01*
X3796464Y26867547D01*
X3837382Y26875686D01*
X3878651Y26881808D01*
X3920170Y26885897D01*
X3961840Y26887944D01*
X4003560Y26887944D01*
X4045230Y26885897D01*
G37*
G36*
X1505230Y26885897D02*
G01*
X1546749Y26881808D01*
X1588018Y26875686D01*
X1628936Y26867547D01*
X1669406Y26857410D01*
X1709329Y26845299D01*
X1748611Y26831244D01*
X1787155Y26815278D01*
X1824870Y26797441D01*
X1861663Y26777774D01*
X1897448Y26756326D01*
X1932137Y26733147D01*
X1965647Y26708294D01*
X1997897Y26681828D01*
X2028809Y26653810D01*
X2058310Y26624309D01*
X2086328Y26593397D01*
X2112794Y26561147D01*
X2137647Y26527637D01*
X2160826Y26492948D01*
X2182274Y26457163D01*
X2201941Y26420370D01*
X2219778Y26382655D01*
X2235744Y26344111D01*
X2249799Y26304829D01*
X2261910Y26264906D01*
X2272047Y26224436D01*
X2280186Y26183518D01*
X2286308Y26142249D01*
X2290397Y26100730D01*
X2292444Y26059060D01*
X2292444Y26017340D01*
X2290397Y25975670D01*
X2286308Y25934151D01*
X2280186Y25892882D01*
X2272047Y25851964D01*
X2261910Y25811494D01*
X2249799Y25771571D01*
X2235744Y25732289D01*
X2219778Y25693745D01*
X2201941Y25656030D01*
X2182274Y25619237D01*
X2160826Y25583452D01*
X2137647Y25548763D01*
X2112794Y25515253D01*
X2086328Y25483003D01*
X2058310Y25452091D01*
X2028809Y25422590D01*
X1997897Y25394572D01*
X1965647Y25368106D01*
X1932137Y25343253D01*
X1897448Y25320074D01*
X1861663Y25298626D01*
X1824870Y25278959D01*
X1787155Y25261122D01*
X1748611Y25245156D01*
X1709329Y25231101D01*
X1669406Y25218990D01*
X1628936Y25208853D01*
X1588018Y25200714D01*
X1546749Y25194592D01*
X1505230Y25190503D01*
X1463560Y25188456D01*
X1421840Y25188456D01*
X1380170Y25190503D01*
X1338651Y25194592D01*
X1297382Y25200714D01*
X1256464Y25208853D01*
X1215994Y25218990D01*
X1176071Y25231101D01*
X1136789Y25245156D01*
X1098245Y25261122D01*
X1060530Y25278959D01*
X1023737Y25298626D01*
X987952Y25320074D01*
X953263Y25343253D01*
X919753Y25368106D01*
X887503Y25394572D01*
X856591Y25422590D01*
X827090Y25452091D01*
X799072Y25483003D01*
X772606Y25515253D01*
X747753Y25548763D01*
X724574Y25583452D01*
X703126Y25619237D01*
X683459Y25656030D01*
X665622Y25693745D01*
X649656Y25732289D01*
X635601Y25771571D01*
X623490Y25811494D01*
X613353Y25851964D01*
X605214Y25892882D01*
X599092Y25934151D01*
X595003Y25975670D01*
X592956Y26017340D01*
X592956Y26025929D01*
X942851Y26025929D01*
X944055Y26001418D01*
X946460Y25976995D01*
X950061Y25952719D01*
X954849Y25928649D01*
X960812Y25904844D01*
X967936Y25881359D01*
X976204Y25858252D01*
X985595Y25835579D01*
X996088Y25813394D01*
X1007657Y25791751D01*
X1020273Y25770701D01*
X1033908Y25750296D01*
X1048527Y25730584D01*
X1064096Y25711614D01*
X1080576Y25693430D01*
X1097930Y25676076D01*
X1116114Y25659596D01*
X1135084Y25644027D01*
X1154796Y25629408D01*
X1175201Y25615773D01*
X1196251Y25603157D01*
X1217894Y25591588D01*
X1240079Y25581095D01*
X1262752Y25571704D01*
X1285859Y25563436D01*
X1309344Y25556312D01*
X1333149Y25550349D01*
X1357219Y25545561D01*
X1381495Y25541960D01*
X1405918Y25539555D01*
X1430429Y25538351D01*
X1454971Y25538351D01*
X1479482Y25539555D01*
X1503905Y25541960D01*
X1528181Y25545561D01*
X1552251Y25550349D01*
X1576056Y25556312D01*
X1599541Y25563436D01*
X1622648Y25571704D01*
X1645321Y25581095D01*
X1667506Y25591588D01*
X1689149Y25603157D01*
X1710199Y25615773D01*
X1730604Y25629408D01*
X1750316Y25644027D01*
X1769286Y25659596D01*
X1787470Y25676076D01*
X1804824Y25693430D01*
X1821304Y25711614D01*
X1836873Y25730584D01*
X1851492Y25750296D01*
X1865127Y25770701D01*
X1877743Y25791751D01*
X1889312Y25813394D01*
X1899805Y25835579D01*
X1909196Y25858252D01*
X1917464Y25881359D01*
X1924588Y25904844D01*
X1930551Y25928649D01*
X1935339Y25952719D01*
X1938940Y25976995D01*
X1941345Y26001418D01*
X1942549Y26025929D01*
X1942549Y26050471D01*
X1941345Y26074982D01*
X1938940Y26099405D01*
X1935339Y26123681D01*
X1930551Y26147751D01*
X1924588Y26171556D01*
X1917464Y26195041D01*
X1909196Y26218148D01*
X1899805Y26240821D01*
X1889312Y26263006D01*
X1877743Y26284649D01*
X1865127Y26305699D01*
X1851492Y26326104D01*
X1836873Y26345816D01*
X1821304Y26364786D01*
X1804824Y26382970D01*
X1787470Y26400324D01*
X1769286Y26416804D01*
X1750316Y26432373D01*
X1730604Y26446992D01*
X1710199Y26460627D01*
X1689149Y26473243D01*
X1667506Y26484812D01*
X1645321Y26495305D01*
X1622648Y26504696D01*
X1599541Y26512964D01*
X1576056Y26520088D01*
X1552251Y26526051D01*
X1528181Y26530839D01*
X1503905Y26534440D01*
X1479482Y26536845D01*
X1454971Y26538049D01*
X1430429Y26538049D01*
X1405918Y26536845D01*
X1381495Y26534440D01*
X1357219Y26530839D01*
X1333149Y26526051D01*
X1309344Y26520088D01*
X1285859Y26512964D01*
X1262752Y26504696D01*
X1240079Y26495305D01*
X1217894Y26484812D01*
X1196251Y26473243D01*
X1175201Y26460627D01*
X1154796Y26446992D01*
X1135084Y26432373D01*
X1116114Y26416804D01*
X1097930Y26400324D01*
X1080576Y26382970D01*
X1064096Y26364786D01*
X1048527Y26345816D01*
X1033908Y26326104D01*
X1020273Y26305699D01*
X1007657Y26284649D01*
X996088Y26263006D01*
X985595Y26240821D01*
X976204Y26218148D01*
X967936Y26195041D01*
X960812Y26171556D01*
X954849Y26147751D01*
X950061Y26123681D01*
X946460Y26099405D01*
X944055Y26074982D01*
X942851Y26050471D01*
X942851Y26025929D01*
X592956Y26025929D01*
X592956Y26059060D01*
X595003Y26100730D01*
X599092Y26142249D01*
X605214Y26183518D01*
X613353Y26224436D01*
X623490Y26264906D01*
X635601Y26304829D01*
X649656Y26344111D01*
X665622Y26382655D01*
X683459Y26420370D01*
X703126Y26457163D01*
X724574Y26492948D01*
X747753Y26527637D01*
X772606Y26561147D01*
X799072Y26593397D01*
X827090Y26624309D01*
X856591Y26653810D01*
X887503Y26681828D01*
X919753Y26708294D01*
X953263Y26733147D01*
X987952Y26756326D01*
X1023737Y26777774D01*
X1060530Y26797441D01*
X1098245Y26815278D01*
X1136789Y26831244D01*
X1176071Y26845299D01*
X1215994Y26857410D01*
X1256464Y26867547D01*
X1297382Y26875686D01*
X1338651Y26881808D01*
X1380170Y26885897D01*
X1421840Y26887944D01*
X1463560Y26887944D01*
X1505230Y26885897D01*
G37*
G36*
X51813263Y13490376D02*
G01*
X51823059Y13489734D01*
X51832811Y13488612D01*
X51842496Y13487013D01*
X51852091Y13484941D01*
X51861573Y13482400D01*
X51870919Y13479397D01*
X51880107Y13475939D01*
X51889113Y13472035D01*
X51897917Y13467693D01*
X51906498Y13462925D01*
X51914834Y13457741D01*
X51922906Y13452154D01*
X51930694Y13446178D01*
X51938179Y13439828D01*
X51945344Y13433117D01*
X51952171Y13426063D01*
X51958643Y13418683D01*
X51964746Y13410994D01*
X51970464Y13403014D01*
X51975783Y13394764D01*
X51980691Y13386263D01*
X51985176Y13377531D01*
X51989228Y13368589D01*
X51992836Y13359460D01*
X51995991Y13350164D01*
X51998686Y13340725D01*
X52000916Y13331165D01*
X52002673Y13321507D01*
X52003954Y13311775D01*
X52004756Y13301991D01*
X52005078Y13292180D01*
X52004917Y13282365D01*
X52004275Y13272569D01*
X52003153Y13262817D01*
X52001554Y13253131D01*
X51999482Y13243536D01*
X51996941Y13234054D01*
X51993938Y13224708D01*
X51990480Y13215521D01*
X51986576Y13206514D01*
X51982234Y13197710D01*
X51977465Y13189130D01*
X51972282Y13180794D01*
X51966695Y13172722D01*
X51960719Y13164934D01*
X51954368Y13157449D01*
X51947658Y13150284D01*
X51940604Y13143457D01*
X51933223Y13136985D01*
X51925534Y13130882D01*
X51917555Y13125164D01*
X51909305Y13119845D01*
X51900803Y13114936D01*
X51892072Y13110451D01*
X51883130Y13106400D01*
X51874001Y13102792D01*
X51864705Y13099637D01*
X51855266Y13096941D01*
X51845706Y13094712D01*
X51836048Y13092955D01*
X51826315Y13091674D01*
X51816532Y13090871D01*
X51806720Y13090550D01*
X51796905Y13090711D01*
X51787110Y13091353D01*
X51777358Y13092475D01*
X51767672Y13094074D01*
X51758077Y13096146D01*
X51748595Y13098687D01*
X51739249Y13101690D01*
X51730062Y13105148D01*
X51721055Y13109052D01*
X51712251Y13113394D01*
X51703671Y13118162D01*
X51695334Y13123346D01*
X51687263Y13128933D01*
X51679475Y13134909D01*
X51671989Y13141259D01*
X51664825Y13147970D01*
X51657998Y13155024D01*
X51651525Y13162404D01*
X51645423Y13170093D01*
X51639705Y13178073D01*
X51634385Y13186323D01*
X51629477Y13194824D01*
X51624992Y13203556D01*
X51620941Y13212498D01*
X51617333Y13221627D01*
X51614178Y13230923D01*
X51611482Y13240362D01*
X51609253Y13249922D01*
X51607496Y13259580D01*
X51606214Y13269312D01*
X51605412Y13279096D01*
X51605091Y13288907D01*
X51605104Y13289725D01*
X51705088Y13289725D01*
X51705248Y13284820D01*
X51705649Y13279928D01*
X51706290Y13275062D01*
X51707169Y13270233D01*
X51708283Y13265453D01*
X51709631Y13260733D01*
X51711209Y13256085D01*
X51713012Y13251521D01*
X51715038Y13247050D01*
X51717281Y13242684D01*
X51719735Y13238433D01*
X51722395Y13234308D01*
X51725254Y13230318D01*
X51728305Y13226474D01*
X51731541Y13222784D01*
X51734954Y13219257D01*
X51738537Y13215901D01*
X51742279Y13212726D01*
X51746173Y13209738D01*
X51750209Y13206945D01*
X51754377Y13204353D01*
X51758668Y13201969D01*
X51763070Y13199798D01*
X51767573Y13197846D01*
X51772167Y13196117D01*
X51776840Y13194615D01*
X51781581Y13193345D01*
X51786378Y13192309D01*
X51791221Y13191509D01*
X51796097Y13190948D01*
X51800995Y13190627D01*
X51805902Y13190547D01*
X51810808Y13190707D01*
X51815700Y13191109D01*
X51820566Y13191749D01*
X51825395Y13192628D01*
X51830175Y13193742D01*
X51834895Y13195090D01*
X51839542Y13196668D01*
X51844107Y13198472D01*
X51848578Y13200497D01*
X51852944Y13202740D01*
X51857195Y13205194D01*
X51861320Y13207854D01*
X51865309Y13210713D01*
X51869154Y13213764D01*
X51872844Y13217000D01*
X51876371Y13220414D01*
X51879726Y13223996D01*
X51882902Y13227739D01*
X51885890Y13231633D01*
X51888683Y13235669D01*
X51891275Y13239837D01*
X51893659Y13244127D01*
X51895830Y13248529D01*
X51897782Y13253032D01*
X51899511Y13257626D01*
X51901013Y13262299D01*
X51902283Y13267040D01*
X51903319Y13271837D01*
X51904119Y13276680D01*
X51904680Y13281556D01*
X51905001Y13286454D01*
X51905081Y13291362D01*
X51904920Y13296267D01*
X51904519Y13301159D01*
X51903879Y13306025D01*
X51903000Y13310854D01*
X51901885Y13315634D01*
X51900538Y13320354D01*
X51898960Y13325002D01*
X51897156Y13329566D01*
X51895130Y13334037D01*
X51892888Y13338403D01*
X51890434Y13342654D01*
X51887774Y13346779D01*
X51884915Y13350769D01*
X51881864Y13354613D01*
X51878627Y13358303D01*
X51875214Y13361830D01*
X51871632Y13365186D01*
X51867889Y13368361D01*
X51863995Y13371349D01*
X51859959Y13374142D01*
X51855791Y13376734D01*
X51851501Y13379118D01*
X51847099Y13381289D01*
X51842595Y13383241D01*
X51838002Y13384970D01*
X51833329Y13386472D01*
X51828588Y13387742D01*
X51823790Y13388778D01*
X51818948Y13389578D01*
X51814071Y13390139D01*
X51809174Y13390460D01*
X51804266Y13390540D01*
X51799361Y13390380D01*
X51794469Y13389978D01*
X51789602Y13389338D01*
X51784773Y13388459D01*
X51779993Y13387345D01*
X51775274Y13385997D01*
X51770626Y13384419D01*
X51766061Y13382615D01*
X51761591Y13380590D01*
X51757225Y13378347D01*
X51752974Y13375893D01*
X51748849Y13373233D01*
X51744859Y13370374D01*
X51741015Y13367323D01*
X51737324Y13364087D01*
X51733797Y13360673D01*
X51730442Y13357091D01*
X51727267Y13353348D01*
X51724279Y13349454D01*
X51721486Y13345418D01*
X51718894Y13341250D01*
X51716509Y13336960D01*
X51714339Y13332558D01*
X51712386Y13328055D01*
X51710657Y13323461D01*
X51709156Y13318788D01*
X51707886Y13314047D01*
X51706849Y13309249D01*
X51706050Y13304407D01*
X51705489Y13299531D01*
X51705168Y13294633D01*
X51705088Y13289725D01*
X51605104Y13289725D01*
X51605252Y13298722D01*
X51605894Y13308518D01*
X51607015Y13318270D01*
X51608615Y13327955D01*
X51610687Y13337551D01*
X51613228Y13347033D01*
X51616231Y13356379D01*
X51619688Y13365566D01*
X51623593Y13374572D01*
X51627935Y13383377D01*
X51632703Y13391957D01*
X51637887Y13400293D01*
X51643473Y13408365D01*
X51649449Y13416153D01*
X51655800Y13423638D01*
X51662511Y13430803D01*
X51669565Y13437630D01*
X51676945Y13444102D01*
X51684634Y13450205D01*
X51692613Y13455923D01*
X51700864Y13461242D01*
X51709365Y13466150D01*
X51718097Y13470636D01*
X51727038Y13474687D01*
X51736168Y13478295D01*
X51745463Y13481450D01*
X51754903Y13484146D01*
X51764463Y13486375D01*
X51774121Y13488132D01*
X51783853Y13489413D01*
X51793637Y13490216D01*
X51803448Y13490537D01*
X51813263Y13490376D01*
G37*
G36*
X50600829Y12790375D02*
G01*
X50610624Y12789733D01*
X50620376Y12788611D01*
X50630062Y12787012D01*
X50639657Y12784939D01*
X50649139Y12782399D01*
X50658485Y12779396D01*
X50667672Y12775938D01*
X50676679Y12772033D01*
X50685483Y12767692D01*
X50694063Y12762923D01*
X50702399Y12757739D01*
X50710471Y12752153D01*
X50718259Y12746177D01*
X50725744Y12739826D01*
X50732909Y12733116D01*
X50739736Y12726062D01*
X50746208Y12718681D01*
X50752311Y12710992D01*
X50758029Y12703013D01*
X50763348Y12694763D01*
X50768257Y12686261D01*
X50772742Y12677529D01*
X50776793Y12668588D01*
X50780401Y12659458D01*
X50783556Y12650163D01*
X50786252Y12640724D01*
X50788481Y12631164D01*
X50790238Y12621506D01*
X50791519Y12611773D01*
X50792322Y12601989D01*
X50792643Y12592178D01*
X50792482Y12582363D01*
X50791840Y12572568D01*
X50790718Y12562815D01*
X50789119Y12553130D01*
X50787047Y12543535D01*
X50784506Y12534053D01*
X50781503Y12524707D01*
X50778045Y12515520D01*
X50774141Y12506513D01*
X50769799Y12497709D01*
X50765031Y12489128D01*
X50759847Y12480792D01*
X50754260Y12472720D01*
X50748284Y12464932D01*
X50741934Y12457447D01*
X50735223Y12450282D01*
X50728169Y12443456D01*
X50720789Y12436983D01*
X50713100Y12430881D01*
X50705120Y12425163D01*
X50696870Y12419843D01*
X50688369Y12414935D01*
X50679637Y12410450D01*
X50670695Y12406398D01*
X50661566Y12402791D01*
X50652270Y12399635D01*
X50642831Y12396940D01*
X50633271Y12394711D01*
X50623613Y12392953D01*
X50613881Y12391672D01*
X50604097Y12390870D01*
X50594286Y12390549D01*
X50584471Y12390709D01*
X50574675Y12391351D01*
X50564923Y12392473D01*
X50555238Y12394072D01*
X50545642Y12396145D01*
X50536160Y12398685D01*
X50526814Y12401688D01*
X50517627Y12405146D01*
X50508621Y12409051D01*
X50499816Y12413392D01*
X50491236Y12418161D01*
X50482900Y12423345D01*
X50474828Y12428931D01*
X50467040Y12434907D01*
X50459555Y12441258D01*
X50452390Y12447968D01*
X50445563Y12455022D01*
X50439091Y12462403D01*
X50432988Y12470092D01*
X50427270Y12478071D01*
X50421951Y12486321D01*
X50417043Y12494823D01*
X50412557Y12503555D01*
X50408506Y12512496D01*
X50404898Y12521626D01*
X50401743Y12530921D01*
X50399047Y12540360D01*
X50396818Y12549920D01*
X50395061Y12559578D01*
X50393780Y12569311D01*
X50392977Y12579095D01*
X50392656Y12588906D01*
X50392669Y12589724D01*
X50492653Y12589724D01*
X50492813Y12584818D01*
X50493215Y12579926D01*
X50493855Y12575060D01*
X50494734Y12570231D01*
X50495848Y12565451D01*
X50497196Y12560732D01*
X50498774Y12556084D01*
X50500578Y12551519D01*
X50502603Y12547048D01*
X50504846Y12542682D01*
X50507300Y12538432D01*
X50509960Y12534307D01*
X50512819Y12530317D01*
X50515870Y12526472D01*
X50519106Y12522782D01*
X50522520Y12519255D01*
X50526102Y12515900D01*
X50529845Y12512725D01*
X50533739Y12509737D01*
X50537775Y12506943D01*
X50541943Y12504351D01*
X50546233Y12501967D01*
X50550635Y12499796D01*
X50555138Y12497844D01*
X50559732Y12496115D01*
X50564405Y12494614D01*
X50569146Y12493343D01*
X50573944Y12492307D01*
X50578786Y12491508D01*
X50583662Y12490947D01*
X50588560Y12490626D01*
X50593468Y12490545D01*
X50598373Y12490706D01*
X50603265Y12491107D01*
X50608131Y12491748D01*
X50612960Y12492626D01*
X50617740Y12493741D01*
X50622460Y12495089D01*
X50627108Y12496666D01*
X50631672Y12498470D01*
X50636143Y12500496D01*
X50640509Y12502738D01*
X50644760Y12505193D01*
X50648885Y12507852D01*
X50652875Y12510711D01*
X50656719Y12513763D01*
X50660409Y12516999D01*
X50663936Y12520412D01*
X50667292Y12523995D01*
X50670467Y12527737D01*
X50673455Y12531631D01*
X50676248Y12535667D01*
X50678840Y12539835D01*
X50681224Y12544125D01*
X50683395Y12548527D01*
X50685347Y12553031D01*
X50687076Y12557624D01*
X50688578Y12562297D01*
X50689848Y12567038D01*
X50690884Y12571836D01*
X50691684Y12576679D01*
X50692245Y12581555D01*
X50692566Y12586452D01*
X50692646Y12591360D01*
X50692486Y12596266D01*
X50692085Y12601158D01*
X50691444Y12606024D01*
X50690565Y12610853D01*
X50689451Y12615633D01*
X50688103Y12620352D01*
X50686525Y12625000D01*
X50684721Y12629565D01*
X50682696Y12634036D01*
X50680453Y12638402D01*
X50677999Y12642652D01*
X50675339Y12646777D01*
X50672480Y12650767D01*
X50669429Y12654612D01*
X50666193Y12658302D01*
X50662779Y12661829D01*
X50659197Y12665184D01*
X50655454Y12668359D01*
X50651560Y12671347D01*
X50647524Y12674141D01*
X50643356Y12676733D01*
X50639066Y12679117D01*
X50634664Y12681288D01*
X50630161Y12683240D01*
X50625567Y12684969D01*
X50620894Y12686470D01*
X50616153Y12687741D01*
X50611356Y12688777D01*
X50606513Y12689576D01*
X50601637Y12690137D01*
X50596739Y12690458D01*
X50591831Y12690539D01*
X50586926Y12690378D01*
X50582034Y12689977D01*
X50577168Y12689336D01*
X50572339Y12688458D01*
X50567559Y12687343D01*
X50562839Y12685995D01*
X50558191Y12684418D01*
X50553627Y12682614D01*
X50549156Y12680588D01*
X50544790Y12678345D01*
X50540539Y12675891D01*
X50536414Y12673232D01*
X50532424Y12670373D01*
X50528580Y12667321D01*
X50524890Y12664085D01*
X50521363Y12660672D01*
X50518008Y12657089D01*
X50514832Y12653347D01*
X50511844Y12649453D01*
X50509051Y12645417D01*
X50506459Y12641249D01*
X50504075Y12636959D01*
X50501904Y12632556D01*
X50499952Y12628053D01*
X50498223Y12623460D01*
X50496721Y12618787D01*
X50495451Y12614046D01*
X50494415Y12609248D01*
X50493615Y12604405D01*
X50493054Y12599529D01*
X50492733Y12594631D01*
X50492653Y12589724D01*
X50392669Y12589724D01*
X50392817Y12598721D01*
X50393459Y12608516D01*
X50394581Y12618269D01*
X50396180Y12627954D01*
X50398252Y12637549D01*
X50400793Y12647031D01*
X50403796Y12656377D01*
X50407254Y12665564D01*
X50411158Y12674571D01*
X50415500Y12683375D01*
X50420268Y12691956D01*
X50425452Y12700292D01*
X50431039Y12708364D01*
X50437015Y12716152D01*
X50443365Y12723637D01*
X50450076Y12730802D01*
X50457130Y12737628D01*
X50464510Y12744101D01*
X50472199Y12750203D01*
X50480179Y12755921D01*
X50488429Y12761241D01*
X50496930Y12766149D01*
X50505662Y12770634D01*
X50514604Y12774686D01*
X50523733Y12778293D01*
X50533029Y12781449D01*
X50542468Y12784144D01*
X50552028Y12786373D01*
X50561686Y12788131D01*
X50571418Y12789412D01*
X50581202Y12790214D01*
X50591013Y12790535D01*
X50600829Y12790375D01*
G37*
G36*
X51113262Y14702811D02*
G01*
X51123057Y14702169D01*
X51132809Y14701047D01*
X51142495Y14699448D01*
X51152090Y14697375D01*
X51161572Y14694835D01*
X51170918Y14691832D01*
X51180105Y14688374D01*
X51189112Y14684470D01*
X51197916Y14680128D01*
X51206496Y14675359D01*
X51214833Y14670176D01*
X51222904Y14664589D01*
X51230692Y14658613D01*
X51238178Y14652262D01*
X51245342Y14645552D01*
X51252169Y14638498D01*
X51258642Y14631117D01*
X51264744Y14623428D01*
X51270462Y14615449D01*
X51275782Y14607199D01*
X51280690Y14598697D01*
X51285175Y14589965D01*
X51289226Y14581024D01*
X51292834Y14571894D01*
X51295989Y14562599D01*
X51298685Y14553160D01*
X51300914Y14543600D01*
X51302671Y14533942D01*
X51303953Y14524209D01*
X51304755Y14514426D01*
X51305076Y14504614D01*
X51304915Y14494799D01*
X51304273Y14485004D01*
X51303152Y14475252D01*
X51301552Y14465566D01*
X51299480Y14455971D01*
X51296939Y14446489D01*
X51293937Y14437143D01*
X51290479Y14427956D01*
X51286574Y14418949D01*
X51282232Y14410145D01*
X51277464Y14401564D01*
X51272280Y14393228D01*
X51266694Y14385157D01*
X51260718Y14377369D01*
X51254367Y14369883D01*
X51247656Y14362719D01*
X51240602Y14355892D01*
X51233222Y14349419D01*
X51225533Y14343317D01*
X51217554Y14337599D01*
X51209303Y14332279D01*
X51200802Y14327371D01*
X51192070Y14322886D01*
X51183129Y14318835D01*
X51173999Y14315227D01*
X51164704Y14312071D01*
X51155264Y14309376D01*
X51145704Y14307147D01*
X51136046Y14305390D01*
X51126314Y14304108D01*
X51116530Y14303306D01*
X51106719Y14302985D01*
X51096904Y14303145D01*
X51087108Y14303788D01*
X51077356Y14304909D01*
X51067671Y14306508D01*
X51058076Y14308581D01*
X51048594Y14311122D01*
X51039248Y14314124D01*
X51030060Y14317582D01*
X51021054Y14321487D01*
X51012250Y14325829D01*
X51003669Y14330597D01*
X50995333Y14335781D01*
X50987261Y14341367D01*
X50979473Y14347343D01*
X50971988Y14353694D01*
X50964823Y14360405D01*
X50957996Y14367459D01*
X50951524Y14374839D01*
X50945421Y14382528D01*
X50939703Y14390507D01*
X50934384Y14398758D01*
X50929476Y14407259D01*
X50924991Y14415991D01*
X50920939Y14424932D01*
X50917331Y14434062D01*
X50914176Y14443357D01*
X50911481Y14452797D01*
X50909251Y14462357D01*
X50907494Y14472015D01*
X50906213Y14481747D01*
X50905411Y14491531D01*
X50905089Y14501342D01*
X50905102Y14502160D01*
X51005086Y14502160D01*
X51005247Y14497254D01*
X51005648Y14492363D01*
X51006288Y14487496D01*
X51007167Y14482667D01*
X51008282Y14477887D01*
X51009629Y14473168D01*
X51011207Y14468520D01*
X51013011Y14463955D01*
X51015037Y14459485D01*
X51017279Y14455119D01*
X51019733Y14450868D01*
X51022393Y14446743D01*
X51025252Y14442753D01*
X51028303Y14438909D01*
X51031540Y14435218D01*
X51034953Y14431691D01*
X51038535Y14428336D01*
X51042278Y14425161D01*
X51046172Y14422173D01*
X51050208Y14419379D01*
X51054376Y14416788D01*
X51058666Y14414403D01*
X51063068Y14412232D01*
X51067572Y14410280D01*
X51072165Y14408551D01*
X51076838Y14407050D01*
X51081579Y14405779D01*
X51086377Y14404743D01*
X51091219Y14403944D01*
X51096096Y14403383D01*
X51100993Y14403062D01*
X51105901Y14402982D01*
X51110807Y14403142D01*
X51115698Y14403543D01*
X51120565Y14404184D01*
X51125394Y14405063D01*
X51130174Y14406177D01*
X51134893Y14407525D01*
X51139541Y14409103D01*
X51144106Y14410906D01*
X51148576Y14412932D01*
X51152942Y14415175D01*
X51157193Y14417629D01*
X51161318Y14420289D01*
X51165308Y14423147D01*
X51169152Y14426199D01*
X51172843Y14429435D01*
X51176370Y14432848D01*
X51179725Y14436431D01*
X51182900Y14440173D01*
X51185888Y14444067D01*
X51188681Y14448103D01*
X51191273Y14452271D01*
X51193658Y14456562D01*
X51195828Y14460964D01*
X51197781Y14465467D01*
X51199510Y14470061D01*
X51201011Y14474734D01*
X51202281Y14479475D01*
X51203318Y14484272D01*
X51204117Y14489115D01*
X51204678Y14493991D01*
X51204999Y14498889D01*
X51205079Y14503796D01*
X51204919Y14508702D01*
X51204518Y14513594D01*
X51203877Y14518460D01*
X51202998Y14523289D01*
X51201884Y14528069D01*
X51200536Y14532789D01*
X51198958Y14537436D01*
X51197155Y14542001D01*
X51195129Y14546472D01*
X51192886Y14550838D01*
X51190432Y14555088D01*
X51187772Y14559214D01*
X51184913Y14563203D01*
X51181862Y14567048D01*
X51178626Y14570738D01*
X51175213Y14574265D01*
X51171630Y14577620D01*
X51167888Y14580796D01*
X51163994Y14583784D01*
X51159958Y14586577D01*
X51155790Y14589169D01*
X51151499Y14591553D01*
X51147097Y14593724D01*
X51142594Y14595676D01*
X51138000Y14597405D01*
X51133327Y14598906D01*
X51128586Y14600177D01*
X51123789Y14601213D01*
X51118946Y14602013D01*
X51114070Y14602573D01*
X51109172Y14602895D01*
X51104265Y14602975D01*
X51099359Y14602814D01*
X51094467Y14602413D01*
X51089601Y14601772D01*
X51084772Y14600894D01*
X51079992Y14599779D01*
X51075272Y14598432D01*
X51070625Y14596854D01*
X51066060Y14595050D01*
X51061589Y14593024D01*
X51057223Y14590782D01*
X51052973Y14588328D01*
X51048847Y14585668D01*
X51044858Y14582809D01*
X51041013Y14579758D01*
X51037323Y14576521D01*
X51033796Y14573108D01*
X51030441Y14569526D01*
X51027265Y14565783D01*
X51024277Y14561889D01*
X51021484Y14557853D01*
X51018892Y14553685D01*
X51016508Y14549395D01*
X51014337Y14544993D01*
X51012385Y14540489D01*
X51010656Y14535896D01*
X51009154Y14531223D01*
X51007884Y14526482D01*
X51006848Y14521684D01*
X51006048Y14516841D01*
X51005487Y14511965D01*
X51005166Y14507068D01*
X51005086Y14502160D01*
X50905102Y14502160D01*
X50905250Y14511157D01*
X50905892Y14520953D01*
X50907014Y14530705D01*
X50908613Y14540390D01*
X50910685Y14549985D01*
X50913226Y14559467D01*
X50916229Y14568813D01*
X50919687Y14578001D01*
X50923591Y14587007D01*
X50927933Y14595811D01*
X50932702Y14604392D01*
X50937885Y14612728D01*
X50943472Y14620800D01*
X50949448Y14628588D01*
X50955799Y14636073D01*
X50962509Y14643238D01*
X50969563Y14650065D01*
X50976944Y14656537D01*
X50984633Y14662640D01*
X50992612Y14668357D01*
X51000862Y14673677D01*
X51009364Y14678585D01*
X51018095Y14683070D01*
X51027037Y14687122D01*
X51036166Y14690729D01*
X51045462Y14693885D01*
X51054901Y14696580D01*
X51064461Y14698809D01*
X51074119Y14700567D01*
X51083852Y14701848D01*
X51093635Y14702650D01*
X51103447Y14702971D01*
X51113262Y14702811D01*
G37*
G36*
X49900827Y14002809D02*
G01*
X49910622Y14002167D01*
X49920375Y14001045D01*
X49930060Y13999446D01*
X49939655Y13997374D01*
X49949137Y13994833D01*
X49958483Y13991830D01*
X49967671Y13988373D01*
X49976677Y13984468D01*
X49985481Y13980126D01*
X49994062Y13975358D01*
X50002398Y13970174D01*
X50010470Y13964588D01*
X50018258Y13958612D01*
X50025743Y13952261D01*
X50032908Y13945550D01*
X50039735Y13938496D01*
X50046207Y13931116D01*
X50052309Y13923427D01*
X50058027Y13915447D01*
X50063347Y13907197D01*
X50068255Y13898696D01*
X50072740Y13889964D01*
X50076792Y13881022D01*
X50080399Y13871893D01*
X50083555Y13862597D01*
X50086250Y13853158D01*
X50088479Y13843598D01*
X50090237Y13833940D01*
X50091518Y13824208D01*
X50092320Y13814424D01*
X50092641Y13804613D01*
X50092481Y13794798D01*
X50091839Y13785002D01*
X50090717Y13775250D01*
X50089118Y13765565D01*
X50087045Y13755969D01*
X50084505Y13746487D01*
X50081502Y13737142D01*
X50078044Y13727954D01*
X50074139Y13718948D01*
X50069798Y13710144D01*
X50065029Y13701563D01*
X50059845Y13693227D01*
X50054259Y13685155D01*
X50048283Y13677367D01*
X50041932Y13669882D01*
X50035222Y13662717D01*
X50028168Y13655890D01*
X50020787Y13649418D01*
X50013098Y13643315D01*
X50005119Y13637597D01*
X49996869Y13632278D01*
X49988367Y13627370D01*
X49979635Y13622884D01*
X49970694Y13618833D01*
X49961564Y13615225D01*
X49952269Y13612070D01*
X49942830Y13609374D01*
X49933270Y13607145D01*
X49923612Y13605388D01*
X49913879Y13604107D01*
X49904096Y13603305D01*
X49894284Y13602983D01*
X49884469Y13603144D01*
X49874674Y13603786D01*
X49864921Y13604908D01*
X49855236Y13606507D01*
X49845641Y13608579D01*
X49836159Y13611120D01*
X49826813Y13614123D01*
X49817626Y13617581D01*
X49808619Y13621485D01*
X49799815Y13625827D01*
X49791234Y13630596D01*
X49782898Y13635779D01*
X49774826Y13641366D01*
X49767038Y13647342D01*
X49759553Y13653693D01*
X49752388Y13660403D01*
X49745562Y13667457D01*
X49739089Y13674837D01*
X49732987Y13682527D01*
X49727269Y13690506D01*
X49721949Y13698756D01*
X49717041Y13707257D01*
X49712556Y13715989D01*
X49708505Y13724931D01*
X49704897Y13734060D01*
X49701741Y13743356D01*
X49699046Y13752795D01*
X49696817Y13762355D01*
X49695059Y13772013D01*
X49693778Y13781746D01*
X49692976Y13791529D01*
X49692655Y13801340D01*
X49692668Y13802159D01*
X49792651Y13802159D01*
X49792812Y13797253D01*
X49793213Y13792361D01*
X49793854Y13787495D01*
X49794732Y13782666D01*
X49795847Y13777886D01*
X49797195Y13773166D01*
X49798772Y13768519D01*
X49800576Y13763954D01*
X49802602Y13759483D01*
X49804845Y13755117D01*
X49807299Y13750866D01*
X49809958Y13746741D01*
X49812817Y13742752D01*
X49815869Y13738907D01*
X49819105Y13735217D01*
X49822518Y13731690D01*
X49826101Y13728335D01*
X49829843Y13725159D01*
X49833737Y13722171D01*
X49837773Y13719378D01*
X49841941Y13716786D01*
X49846231Y13714402D01*
X49850634Y13712231D01*
X49855137Y13710279D01*
X49859730Y13708550D01*
X49864403Y13707048D01*
X49869144Y13705778D01*
X49873942Y13704742D01*
X49878785Y13703942D01*
X49883661Y13703381D01*
X49888559Y13703060D01*
X49893466Y13702980D01*
X49898372Y13703141D01*
X49903264Y13703542D01*
X49908130Y13704182D01*
X49912959Y13705061D01*
X49917739Y13706176D01*
X49922458Y13707523D01*
X49927106Y13709101D01*
X49931671Y13710905D01*
X49936142Y13712931D01*
X49940508Y13715173D01*
X49944758Y13717627D01*
X49948883Y13720287D01*
X49952873Y13723146D01*
X49956718Y13726197D01*
X49960408Y13729433D01*
X49963935Y13732847D01*
X49967290Y13736429D01*
X49970466Y13740172D01*
X49973453Y13744066D01*
X49976247Y13748102D01*
X49978839Y13752270D01*
X49981223Y13756560D01*
X49983394Y13760962D01*
X49985346Y13765465D01*
X49987075Y13770059D01*
X49988576Y13774732D01*
X49989847Y13779473D01*
X49990883Y13784271D01*
X49991682Y13789113D01*
X49992243Y13793989D01*
X49992564Y13798887D01*
X49992645Y13803795D01*
X49992484Y13808700D01*
X49992083Y13813592D01*
X49991442Y13818458D01*
X49990564Y13823287D01*
X49989449Y13828067D01*
X49988101Y13832787D01*
X49986524Y13837435D01*
X49984720Y13842000D01*
X49982694Y13846470D01*
X49980452Y13850836D01*
X49977997Y13855087D01*
X49975338Y13859212D01*
X49972479Y13863202D01*
X49969428Y13867046D01*
X49966191Y13870737D01*
X49962778Y13874263D01*
X49959196Y13877619D01*
X49955453Y13880794D01*
X49951559Y13883782D01*
X49947523Y13886575D01*
X49943355Y13889167D01*
X49939065Y13891552D01*
X49934663Y13893722D01*
X49930159Y13895675D01*
X49925566Y13897404D01*
X49920893Y13898905D01*
X49916152Y13900175D01*
X49911354Y13901212D01*
X49906511Y13902011D01*
X49901635Y13902572D01*
X49896738Y13902893D01*
X49891830Y13902973D01*
X49886924Y13902813D01*
X49882033Y13902412D01*
X49877166Y13901771D01*
X49872337Y13900892D01*
X49867557Y13899778D01*
X49862838Y13898430D01*
X49858190Y13896852D01*
X49853625Y13895048D01*
X49849154Y13893023D01*
X49844788Y13890780D01*
X49840538Y13888326D01*
X49836413Y13885666D01*
X49832423Y13882807D01*
X49828578Y13879756D01*
X49824888Y13876520D01*
X49821361Y13873106D01*
X49818006Y13869524D01*
X49814831Y13865781D01*
X49811843Y13861888D01*
X49809049Y13857852D01*
X49806457Y13853684D01*
X49804073Y13849393D01*
X49801902Y13844991D01*
X49799950Y13840488D01*
X49798221Y13835894D01*
X49796720Y13831221D01*
X49795449Y13826480D01*
X49794413Y13821683D01*
X49793614Y13816840D01*
X49793053Y13811964D01*
X49792732Y13807066D01*
X49792651Y13802159D01*
X49692668Y13802159D01*
X49692815Y13811156D01*
X49693457Y13820951D01*
X49694579Y13830703D01*
X49696178Y13840389D01*
X49698251Y13849984D01*
X49700791Y13859466D01*
X49703794Y13868812D01*
X49707252Y13877999D01*
X49711157Y13887006D01*
X49715498Y13895810D01*
X49720267Y13904390D01*
X49725451Y13912727D01*
X49731037Y13920798D01*
X49737013Y13928586D01*
X49743364Y13936072D01*
X49750074Y13943236D01*
X49757128Y13950063D01*
X49764509Y13956536D01*
X49772198Y13962638D01*
X49780177Y13968356D01*
X49788428Y13973675D01*
X49796929Y13978584D01*
X49805661Y13983069D01*
X49814602Y13987120D01*
X49823732Y13990728D01*
X49833027Y13993883D01*
X49842466Y13996579D01*
X49852027Y13998808D01*
X49861684Y14000565D01*
X49871417Y14001847D01*
X49881201Y14002649D01*
X49891012Y14002970D01*
X49900827Y14002809D01*
G37*
G36*
X50413260Y15915246D02*
G01*
X50423056Y15914604D01*
X50432808Y15913482D01*
X50442493Y15911883D01*
X50452089Y15909810D01*
X50461571Y15907270D01*
X50470916Y15904267D01*
X50480104Y15900809D01*
X50489110Y15896904D01*
X50497914Y15892563D01*
X50506495Y15887794D01*
X50514831Y15882610D01*
X50522903Y15877024D01*
X50530691Y15871048D01*
X50538176Y15864697D01*
X50545341Y15857986D01*
X50552168Y15850933D01*
X50558640Y15843552D01*
X50564743Y15835863D01*
X50570461Y15827884D01*
X50575780Y15819633D01*
X50580688Y15811132D01*
X50585174Y15802400D01*
X50589225Y15793459D01*
X50592833Y15784329D01*
X50595988Y15775034D01*
X50598683Y15765594D01*
X50600913Y15756034D01*
X50602670Y15746377D01*
X50603951Y15736644D01*
X50604753Y15726860D01*
X50605075Y15717049D01*
X50604914Y15707234D01*
X50604272Y15697438D01*
X50603150Y15687686D01*
X50601551Y15678001D01*
X50599479Y15668406D01*
X50596938Y15658924D01*
X50593935Y15649578D01*
X50590477Y15640390D01*
X50586573Y15631384D01*
X50582231Y15622580D01*
X50577462Y15613999D01*
X50572279Y15605663D01*
X50566692Y15597591D01*
X50560716Y15589803D01*
X50554365Y15582318D01*
X50547655Y15575153D01*
X50540601Y15568326D01*
X50533221Y15561854D01*
X50525531Y15555751D01*
X50517552Y15550034D01*
X50509302Y15544714D01*
X50500801Y15539806D01*
X50492069Y15535321D01*
X50483127Y15531269D01*
X50473998Y15527662D01*
X50464702Y15524506D01*
X50455263Y15521811D01*
X50445703Y15519582D01*
X50436045Y15517824D01*
X50426312Y15516543D01*
X50416529Y15515741D01*
X50406718Y15515420D01*
X50396902Y15515580D01*
X50387107Y15516222D01*
X50377355Y15517344D01*
X50367669Y15518943D01*
X50358074Y15521016D01*
X50348592Y15523556D01*
X50339246Y15526559D01*
X50330059Y15530017D01*
X50321052Y15533921D01*
X50312248Y15538263D01*
X50303668Y15543032D01*
X50295331Y15548215D01*
X50287260Y15553802D01*
X50279472Y15559778D01*
X50271986Y15566129D01*
X50264822Y15572839D01*
X50257995Y15579893D01*
X50251522Y15587274D01*
X50245420Y15594963D01*
X50239702Y15602942D01*
X50234382Y15611192D01*
X50229474Y15619694D01*
X50224989Y15628426D01*
X50220938Y15637367D01*
X50217330Y15646497D01*
X50214175Y15655792D01*
X50211479Y15665231D01*
X50209250Y15674791D01*
X50207493Y15684449D01*
X50206211Y15694182D01*
X50205409Y15703965D01*
X50205088Y15713777D01*
X50205101Y15714595D01*
X50305085Y15714595D01*
X50305245Y15709689D01*
X50305646Y15704797D01*
X50306287Y15699931D01*
X50307166Y15695102D01*
X50308280Y15690322D01*
X50309628Y15685602D01*
X50311206Y15680955D01*
X50313010Y15676390D01*
X50315035Y15671919D01*
X50317278Y15667553D01*
X50319732Y15663303D01*
X50322392Y15659177D01*
X50325251Y15655188D01*
X50328302Y15651343D01*
X50331538Y15647653D01*
X50334951Y15644126D01*
X50338534Y15640771D01*
X50342276Y15637595D01*
X50346170Y15634607D01*
X50350206Y15631814D01*
X50354374Y15629222D01*
X50358665Y15626838D01*
X50363067Y15624667D01*
X50367570Y15622715D01*
X50372164Y15620986D01*
X50376837Y15619485D01*
X50381578Y15618214D01*
X50386375Y15617178D01*
X50391218Y15616378D01*
X50396094Y15615818D01*
X50400992Y15615497D01*
X50405899Y15615416D01*
X50410805Y15615577D01*
X50415697Y15615978D01*
X50420563Y15616619D01*
X50425392Y15617497D01*
X50430172Y15618612D01*
X50434892Y15619960D01*
X50439539Y15621537D01*
X50444104Y15623341D01*
X50448575Y15625367D01*
X50452941Y15627609D01*
X50457192Y15630063D01*
X50461317Y15632723D01*
X50465306Y15635582D01*
X50469151Y15638633D01*
X50472841Y15641870D01*
X50476368Y15645283D01*
X50479723Y15648865D01*
X50482899Y15652608D01*
X50485887Y15656502D01*
X50488680Y15660538D01*
X50491272Y15664706D01*
X50493656Y15668996D01*
X50495827Y15673398D01*
X50497779Y15677902D01*
X50499508Y15682495D01*
X50501010Y15687168D01*
X50502280Y15691909D01*
X50503316Y15696707D01*
X50504116Y15701550D01*
X50504677Y15706426D01*
X50504998Y15711323D01*
X50505078Y15716231D01*
X50504917Y15721137D01*
X50504516Y15726028D01*
X50503876Y15730895D01*
X50502997Y15735724D01*
X50501882Y15740504D01*
X50500535Y15745223D01*
X50498957Y15749871D01*
X50497153Y15754436D01*
X50495127Y15758907D01*
X50492885Y15763272D01*
X50490431Y15767523D01*
X50487771Y15771648D01*
X50484912Y15775638D01*
X50481861Y15779482D01*
X50478625Y15783173D01*
X50475211Y15786700D01*
X50471629Y15790055D01*
X50467886Y15793230D01*
X50463992Y15796218D01*
X50459956Y15799012D01*
X50455788Y15801603D01*
X50451498Y15803988D01*
X50447096Y15806159D01*
X50442593Y15808111D01*
X50437999Y15809840D01*
X50433326Y15811341D01*
X50428585Y15812612D01*
X50423787Y15813648D01*
X50418945Y15814447D01*
X50414069Y15815008D01*
X50409171Y15815329D01*
X50404263Y15815410D01*
X50399358Y15815249D01*
X50394466Y15814848D01*
X50389599Y15814207D01*
X50384771Y15813329D01*
X50379990Y15812214D01*
X50375271Y15810866D01*
X50370623Y15809289D01*
X50366058Y15807485D01*
X50361588Y15805459D01*
X50357222Y15803216D01*
X50352971Y15800762D01*
X50348846Y15798103D01*
X50344856Y15795244D01*
X50341012Y15792192D01*
X50337321Y15788956D01*
X50333794Y15785543D01*
X50330439Y15781960D01*
X50327264Y15778218D01*
X50324276Y15774324D01*
X50321483Y15770288D01*
X50318891Y15766120D01*
X50316506Y15761829D01*
X50314336Y15757427D01*
X50312383Y15752924D01*
X50310654Y15748330D01*
X50309153Y15743657D01*
X50307883Y15738916D01*
X50306846Y15734119D01*
X50306047Y15729276D01*
X50305486Y15724400D01*
X50305165Y15719502D01*
X50305085Y15714595D01*
X50205101Y15714595D01*
X50205249Y15723592D01*
X50205891Y15733387D01*
X50207013Y15743139D01*
X50208612Y15752825D01*
X50210684Y15762420D01*
X50213225Y15771902D01*
X50216228Y15781248D01*
X50219685Y15790435D01*
X50223590Y15799442D01*
X50227932Y15808246D01*
X50232700Y15816827D01*
X50237884Y15825163D01*
X50243470Y15833235D01*
X50249446Y15841022D01*
X50255797Y15848508D01*
X50262508Y15855673D01*
X50269562Y15862499D01*
X50276942Y15868972D01*
X50284631Y15875074D01*
X50292610Y15880792D01*
X50300861Y15886112D01*
X50309362Y15891020D01*
X50318094Y15895505D01*
X50327035Y15899556D01*
X50336165Y15903164D01*
X50345461Y15906320D01*
X50354900Y15909015D01*
X50364460Y15911244D01*
X50374118Y15913001D01*
X50383850Y15914283D01*
X50393634Y15915085D01*
X50403445Y15915406D01*
X50413260Y15915246D01*
G37*
G36*
X49200826Y15215244D02*
G01*
X49210621Y15214602D01*
X49220373Y15213480D01*
X49230059Y15211881D01*
X49239654Y15209809D01*
X49249136Y15207268D01*
X49258482Y15204265D01*
X49267669Y15200807D01*
X49276676Y15196903D01*
X49285480Y15192561D01*
X49294060Y15187793D01*
X49302396Y15182609D01*
X49310468Y15177022D01*
X49318256Y15171046D01*
X49325742Y15164695D01*
X49332906Y15157985D01*
X49339733Y15150931D01*
X49346205Y15143551D01*
X49352308Y15135861D01*
X49358026Y15127882D01*
X49363345Y15119632D01*
X49368254Y15111131D01*
X49372739Y15102399D01*
X49376790Y15093457D01*
X49380398Y15084328D01*
X49383553Y15075032D01*
X49386249Y15065593D01*
X49388478Y15056033D01*
X49390235Y15046375D01*
X49391516Y15036643D01*
X49392319Y15026859D01*
X49392640Y15017048D01*
X49392479Y15007232D01*
X49391837Y14997437D01*
X49390715Y14987685D01*
X49389116Y14977999D01*
X49387044Y14968404D01*
X49384503Y14958922D01*
X49381500Y14949576D01*
X49378042Y14940389D01*
X49374138Y14931382D01*
X49369796Y14922578D01*
X49365028Y14913998D01*
X49359844Y14905662D01*
X49354257Y14897590D01*
X49348282Y14889802D01*
X49341931Y14882316D01*
X49335220Y14875152D01*
X49328166Y14868325D01*
X49320786Y14861852D01*
X49313097Y14855750D01*
X49305117Y14850032D01*
X49296867Y14844713D01*
X49288366Y14839804D01*
X49279634Y14835319D01*
X49270692Y14831268D01*
X49261563Y14827660D01*
X49252267Y14824505D01*
X49242828Y14821809D01*
X49233268Y14819580D01*
X49223610Y14817823D01*
X49213878Y14816541D01*
X49204094Y14815739D01*
X49194283Y14815418D01*
X49184468Y14815579D01*
X49174672Y14816221D01*
X49164920Y14817343D01*
X49155235Y14818942D01*
X49145639Y14821014D01*
X49136157Y14823555D01*
X49126811Y14826558D01*
X49117624Y14830016D01*
X49108618Y14833920D01*
X49099813Y14838262D01*
X49091233Y14843030D01*
X49082897Y14848214D01*
X49074825Y14853801D01*
X49067037Y14859776D01*
X49059552Y14866127D01*
X49052387Y14872838D01*
X49045560Y14879892D01*
X49039088Y14887272D01*
X49032985Y14894961D01*
X49027267Y14902941D01*
X49021948Y14911191D01*
X49017040Y14919692D01*
X49012554Y14928424D01*
X49008503Y14937366D01*
X49004895Y14946495D01*
X49001740Y14955791D01*
X48999044Y14965230D01*
X48996815Y14974790D01*
X48995058Y14984448D01*
X48993777Y14994180D01*
X48992974Y15003964D01*
X48992653Y15013775D01*
X48992666Y15014593D01*
X49092650Y15014593D01*
X49092811Y15009688D01*
X49093212Y15004796D01*
X49093852Y14999930D01*
X49094731Y14995101D01*
X49095845Y14990321D01*
X49097193Y14985601D01*
X49098771Y14980953D01*
X49100575Y14976388D01*
X49102600Y14971918D01*
X49104843Y14967552D01*
X49107297Y14963301D01*
X49109957Y14959176D01*
X49112816Y14955186D01*
X49115867Y14951342D01*
X49119103Y14947652D01*
X49122517Y14944125D01*
X49126099Y14940769D01*
X49129842Y14937594D01*
X49133736Y14934606D01*
X49137772Y14931813D01*
X49141940Y14929221D01*
X49146230Y14926837D01*
X49150632Y14924666D01*
X49155135Y14922713D01*
X49159729Y14920985D01*
X49164402Y14919483D01*
X49169143Y14918213D01*
X49173941Y14917177D01*
X49178783Y14916377D01*
X49183659Y14915816D01*
X49188557Y14915495D01*
X49193465Y14915415D01*
X49198370Y14915575D01*
X49203262Y14915976D01*
X49208128Y14916617D01*
X49212957Y14917496D01*
X49217737Y14918610D01*
X49222457Y14919958D01*
X49227105Y14921536D01*
X49231669Y14923340D01*
X49236140Y14925365D01*
X49240506Y14927608D01*
X49244757Y14930062D01*
X49248882Y14932722D01*
X49252872Y14935581D01*
X49256716Y14938632D01*
X49260406Y14941868D01*
X49263933Y14945282D01*
X49267289Y14948864D01*
X49270464Y14952607D01*
X49273452Y14956501D01*
X49276245Y14960536D01*
X49278837Y14964705D01*
X49281221Y14968995D01*
X49283392Y14973397D01*
X49285345Y14977900D01*
X49287073Y14982494D01*
X49288575Y14987167D01*
X49289845Y14991908D01*
X49290881Y14996705D01*
X49291681Y15001548D01*
X49292242Y15006424D01*
X49292563Y15011322D01*
X49292643Y15016230D01*
X49292483Y15021135D01*
X49292082Y15026027D01*
X49291441Y15030893D01*
X49290562Y15035722D01*
X49289448Y15040502D01*
X49288100Y15045222D01*
X49286522Y15049870D01*
X49284718Y15054434D01*
X49282693Y15058905D01*
X49280450Y15063271D01*
X49277996Y15067522D01*
X49275336Y15071647D01*
X49272477Y15075636D01*
X49269426Y15079481D01*
X49266190Y15083171D01*
X49262776Y15086698D01*
X49259194Y15090053D01*
X49255451Y15093229D01*
X49251557Y15096217D01*
X49247522Y15099010D01*
X49243353Y15101602D01*
X49239063Y15103986D01*
X49234661Y15106157D01*
X49230158Y15108109D01*
X49225564Y15109838D01*
X49220891Y15111340D01*
X49216150Y15112610D01*
X49211353Y15113646D01*
X49206510Y15114446D01*
X49201634Y15115007D01*
X49196736Y15115328D01*
X49191828Y15115408D01*
X49186923Y15115247D01*
X49182031Y15114846D01*
X49177165Y15114206D01*
X49172336Y15113327D01*
X49167556Y15112212D01*
X49162836Y15110865D01*
X49158188Y15109287D01*
X49153624Y15107483D01*
X49149153Y15105458D01*
X49144787Y15103215D01*
X49140536Y15100761D01*
X49136411Y15098101D01*
X49132422Y15095242D01*
X49128577Y15092191D01*
X49124887Y15088955D01*
X49121360Y15085541D01*
X49118005Y15081959D01*
X49114829Y15078216D01*
X49111841Y15074322D01*
X49109048Y15070286D01*
X49106456Y15066118D01*
X49104072Y15061828D01*
X49101901Y15057426D01*
X49099949Y15052923D01*
X49098220Y15048329D01*
X49096718Y15043656D01*
X49095448Y15038915D01*
X49094412Y15034117D01*
X49093612Y15029275D01*
X49093051Y15024399D01*
X49092730Y15019501D01*
X49092650Y15014593D01*
X48992666Y15014593D01*
X48992814Y15023590D01*
X48993456Y15033386D01*
X48994578Y15043138D01*
X48996177Y15052823D01*
X48998249Y15062419D01*
X49000790Y15071901D01*
X49003793Y15081247D01*
X49007251Y15090434D01*
X49011155Y15099440D01*
X49015497Y15108245D01*
X49020265Y15116825D01*
X49025449Y15125161D01*
X49031036Y15133233D01*
X49037012Y15141021D01*
X49043362Y15148506D01*
X49050073Y15155671D01*
X49057127Y15162498D01*
X49064507Y15168970D01*
X49072196Y15175073D01*
X49080176Y15180791D01*
X49088426Y15186110D01*
X49096927Y15191018D01*
X49105659Y15195504D01*
X49114601Y15199555D01*
X49123730Y15203163D01*
X49133026Y15206318D01*
X49142465Y15209014D01*
X49152025Y15211243D01*
X49161683Y15213000D01*
X49171415Y15214281D01*
X49181199Y15215084D01*
X49191010Y15215405D01*
X49200826Y15215244D01*
G37*
G36*
X52069480Y14446594D02*
G01*
X52079275Y14445952D01*
X52089027Y14444830D01*
X52098713Y14443231D01*
X52108308Y14441159D01*
X52117790Y14438618D01*
X52127136Y14435615D01*
X52136323Y14432157D01*
X52145330Y14428253D01*
X52154134Y14423911D01*
X52162715Y14419143D01*
X52171051Y14413959D01*
X52179123Y14408372D01*
X52186910Y14402396D01*
X52194396Y14396046D01*
X52201561Y14389335D01*
X52208387Y14382281D01*
X52214860Y14374901D01*
X52220962Y14367212D01*
X52226680Y14359232D01*
X52232000Y14350982D01*
X52236908Y14342481D01*
X52241393Y14333749D01*
X52245444Y14324807D01*
X52249052Y14315678D01*
X52252208Y14306382D01*
X52254903Y14296943D01*
X52257132Y14287383D01*
X52258889Y14277725D01*
X52260171Y14267993D01*
X52260973Y14258209D01*
X52261294Y14248398D01*
X52261134Y14238583D01*
X52260492Y14228787D01*
X52259370Y14219035D01*
X52257771Y14209350D01*
X52255698Y14199754D01*
X52253158Y14190272D01*
X52250155Y14180926D01*
X52246697Y14171739D01*
X52242792Y14162733D01*
X52238451Y14153928D01*
X52233682Y14145348D01*
X52228498Y14137012D01*
X52222912Y14128940D01*
X52216936Y14121152D01*
X52210585Y14113667D01*
X52203874Y14106502D01*
X52196821Y14099675D01*
X52189440Y14093203D01*
X52181751Y14087100D01*
X52173772Y14081382D01*
X52165521Y14076063D01*
X52157020Y14071155D01*
X52148288Y14066669D01*
X52139347Y14062618D01*
X52130217Y14059010D01*
X52120922Y14055855D01*
X52111482Y14053159D01*
X52101922Y14050930D01*
X52092265Y14049173D01*
X52082532Y14047892D01*
X52072748Y14047089D01*
X52062937Y14046768D01*
X52053122Y14046929D01*
X52043326Y14047571D01*
X52033574Y14048693D01*
X52023889Y14050292D01*
X52014294Y14052364D01*
X52004812Y14054905D01*
X51995466Y14057908D01*
X51986278Y14061366D01*
X51977272Y14065270D01*
X51968468Y14069612D01*
X51959887Y14074380D01*
X51951551Y14079564D01*
X51943479Y14085151D01*
X51935691Y14091127D01*
X51928206Y14097477D01*
X51921041Y14104188D01*
X51914214Y14111242D01*
X51907742Y14118622D01*
X51901639Y14126311D01*
X51895922Y14134291D01*
X51890602Y14142541D01*
X51885694Y14151042D01*
X51881209Y14159774D01*
X51877157Y14168716D01*
X51873550Y14177845D01*
X51870394Y14187141D01*
X51867699Y14196580D01*
X51865470Y14206140D01*
X51863712Y14215798D01*
X51862431Y14225530D01*
X51861629Y14235314D01*
X51861308Y14245125D01*
X51861321Y14245943D01*
X51961304Y14245943D01*
X51961465Y14241038D01*
X51961866Y14236146D01*
X51962507Y14231280D01*
X51963385Y14226451D01*
X51964500Y14221671D01*
X51965848Y14216951D01*
X51967425Y14212303D01*
X51969229Y14207739D01*
X51971255Y14203268D01*
X51973497Y14198902D01*
X51975951Y14194651D01*
X51978611Y14190526D01*
X51981470Y14186537D01*
X51984521Y14182692D01*
X51987758Y14179002D01*
X51991171Y14175475D01*
X51994753Y14172120D01*
X51998496Y14168944D01*
X52002390Y14165956D01*
X52006426Y14163163D01*
X52010594Y14160571D01*
X52014884Y14158187D01*
X52019286Y14156016D01*
X52023790Y14154064D01*
X52028383Y14152335D01*
X52033056Y14150833D01*
X52037797Y14149563D01*
X52042595Y14148527D01*
X52047438Y14147727D01*
X52052314Y14147166D01*
X52057211Y14146845D01*
X52062119Y14146765D01*
X52067025Y14146925D01*
X52071916Y14147327D01*
X52076783Y14147967D01*
X52081612Y14148846D01*
X52086392Y14149960D01*
X52091111Y14151308D01*
X52095759Y14152886D01*
X52100324Y14154690D01*
X52104795Y14156715D01*
X52109160Y14158958D01*
X52113411Y14161412D01*
X52117536Y14164072D01*
X52121526Y14166931D01*
X52125370Y14169982D01*
X52129061Y14173218D01*
X52132588Y14176632D01*
X52135943Y14180214D01*
X52139118Y14183957D01*
X52142106Y14187851D01*
X52144900Y14191887D01*
X52147491Y14196055D01*
X52149876Y14200345D01*
X52152047Y14204747D01*
X52153999Y14209250D01*
X52155728Y14213844D01*
X52157229Y14218517D01*
X52158500Y14223258D01*
X52159536Y14228056D01*
X52160335Y14232898D01*
X52160896Y14237774D01*
X52161217Y14242672D01*
X52161298Y14247580D01*
X52161137Y14252485D01*
X52160736Y14257377D01*
X52160095Y14262243D01*
X52159217Y14267072D01*
X52158102Y14271852D01*
X52156754Y14276572D01*
X52155177Y14281220D01*
X52153373Y14285784D01*
X52151347Y14290255D01*
X52149104Y14294621D01*
X52146650Y14298872D01*
X52143991Y14302997D01*
X52141132Y14306987D01*
X52138080Y14310831D01*
X52134844Y14314521D01*
X52131431Y14318048D01*
X52127848Y14321404D01*
X52124106Y14324579D01*
X52120212Y14327567D01*
X52116176Y14330360D01*
X52112008Y14332952D01*
X52107717Y14335336D01*
X52103315Y14337507D01*
X52098812Y14339459D01*
X52094218Y14341188D01*
X52089545Y14342690D01*
X52084804Y14343960D01*
X52080007Y14344996D01*
X52075164Y14345796D01*
X52070288Y14346357D01*
X52065390Y14346678D01*
X52060483Y14346758D01*
X52055577Y14346598D01*
X52050685Y14346197D01*
X52045819Y14345556D01*
X52040990Y14344677D01*
X52036210Y14343563D01*
X52031490Y14342215D01*
X52026843Y14340637D01*
X52022278Y14338833D01*
X52017807Y14336808D01*
X52013441Y14334565D01*
X52009191Y14332111D01*
X52005065Y14329451D01*
X52001076Y14326592D01*
X51997231Y14323541D01*
X51993541Y14320305D01*
X51990014Y14316891D01*
X51986659Y14313309D01*
X51983483Y14309566D01*
X51980495Y14305672D01*
X51977702Y14301636D01*
X51975110Y14297468D01*
X51972726Y14293178D01*
X51970555Y14288776D01*
X51968603Y14284273D01*
X51966874Y14279679D01*
X51965373Y14275006D01*
X51964102Y14270265D01*
X51963066Y14265468D01*
X51962266Y14260625D01*
X51961706Y14255749D01*
X51961385Y14250851D01*
X51961304Y14245943D01*
X51861321Y14245943D01*
X51861468Y14254941D01*
X51862110Y14264736D01*
X51863232Y14274488D01*
X51864831Y14284174D01*
X51866904Y14293769D01*
X51869444Y14303251D01*
X51872447Y14312597D01*
X51875905Y14321784D01*
X51879809Y14330791D01*
X51884151Y14339595D01*
X51888920Y14348175D01*
X51894103Y14356511D01*
X51899690Y14364583D01*
X51905666Y14372371D01*
X51912017Y14379856D01*
X51918727Y14387021D01*
X51925781Y14393848D01*
X51933162Y14400320D01*
X51940851Y14406423D01*
X51948830Y14412141D01*
X51957080Y14417460D01*
X51965582Y14422369D01*
X51974314Y14426854D01*
X51983255Y14430905D01*
X51992385Y14434513D01*
X52001680Y14437668D01*
X52011119Y14440364D01*
X52020679Y14442593D01*
X52030337Y14444350D01*
X52040070Y14445631D01*
X52049853Y14446434D01*
X52059665Y14446755D01*
X52069480Y14446594D01*
G37*
G36*
X50857045Y13746593D02*
G01*
X50866841Y13745951D01*
X50876593Y13744829D01*
X50886278Y13743230D01*
X50895873Y13741157D01*
X50905355Y13738617D01*
X50914701Y13735614D01*
X50923889Y13732156D01*
X50932895Y13728251D01*
X50941699Y13723910D01*
X50950280Y13719141D01*
X50958616Y13713957D01*
X50966688Y13708371D01*
X50974476Y13702395D01*
X50981961Y13696044D01*
X50989126Y13689334D01*
X50995953Y13682280D01*
X51002425Y13674899D01*
X51008528Y13667210D01*
X51014245Y13659231D01*
X51019565Y13650981D01*
X51024473Y13642479D01*
X51028958Y13633747D01*
X51033010Y13624806D01*
X51036617Y13615676D01*
X51039773Y13606381D01*
X51042468Y13596942D01*
X51044697Y13587382D01*
X51046455Y13577724D01*
X51047736Y13567991D01*
X51048538Y13558208D01*
X51048859Y13548396D01*
X51048699Y13538581D01*
X51048057Y13528786D01*
X51046935Y13519033D01*
X51045336Y13509348D01*
X51043263Y13499753D01*
X51040723Y13490271D01*
X51037720Y13480925D01*
X51034262Y13471738D01*
X51030358Y13462731D01*
X51026016Y13453927D01*
X51021247Y13445346D01*
X51016064Y13437010D01*
X51010477Y13428938D01*
X51004501Y13421150D01*
X50998150Y13413665D01*
X50991440Y13406500D01*
X50984386Y13399674D01*
X50977005Y13393201D01*
X50969316Y13387099D01*
X50961337Y13381381D01*
X50953087Y13376061D01*
X50944585Y13371153D01*
X50935853Y13366668D01*
X50926912Y13362617D01*
X50917782Y13359009D01*
X50908487Y13355853D01*
X50899048Y13353158D01*
X50889488Y13350929D01*
X50879830Y13349171D01*
X50870097Y13347890D01*
X50860314Y13347088D01*
X50850502Y13346767D01*
X50840687Y13346927D01*
X50830892Y13347569D01*
X50821140Y13348691D01*
X50811454Y13350290D01*
X50801859Y13352363D01*
X50792377Y13354903D01*
X50783031Y13357906D01*
X50773844Y13361364D01*
X50764837Y13365269D01*
X50756033Y13369610D01*
X50747452Y13374379D01*
X50739116Y13379563D01*
X50731045Y13385149D01*
X50723257Y13391125D01*
X50715771Y13397476D01*
X50708607Y13404186D01*
X50701780Y13411240D01*
X50695307Y13418621D01*
X50689205Y13426310D01*
X50683487Y13434289D01*
X50678167Y13442540D01*
X50673259Y13451041D01*
X50668774Y13459773D01*
X50664723Y13468714D01*
X50661115Y13477844D01*
X50657959Y13487139D01*
X50655264Y13496578D01*
X50653035Y13506139D01*
X50651278Y13515796D01*
X50649996Y13525529D01*
X50649194Y13535313D01*
X50648873Y13545124D01*
X50648886Y13545942D01*
X50748870Y13545942D01*
X50749030Y13541036D01*
X50749431Y13536145D01*
X50750072Y13531278D01*
X50750951Y13526449D01*
X50752065Y13521669D01*
X50753413Y13516950D01*
X50754991Y13512302D01*
X50756794Y13507737D01*
X50758820Y13503266D01*
X50761063Y13498900D01*
X50763517Y13494650D01*
X50766177Y13490525D01*
X50769035Y13486535D01*
X50772087Y13482690D01*
X50775323Y13479000D01*
X50778736Y13475473D01*
X50782319Y13472118D01*
X50786061Y13468943D01*
X50789955Y13465955D01*
X50793991Y13463161D01*
X50798159Y13460569D01*
X50802450Y13458185D01*
X50806852Y13456014D01*
X50811355Y13454062D01*
X50815949Y13452333D01*
X50820622Y13450832D01*
X50825363Y13449561D01*
X50830160Y13448525D01*
X50835003Y13447726D01*
X50839879Y13447165D01*
X50844777Y13446844D01*
X50849684Y13446763D01*
X50854590Y13446924D01*
X50859482Y13447325D01*
X50864348Y13447966D01*
X50869177Y13448844D01*
X50873957Y13449959D01*
X50878677Y13451307D01*
X50883324Y13452884D01*
X50887889Y13454688D01*
X50892360Y13456714D01*
X50896726Y13458957D01*
X50900976Y13461411D01*
X50905102Y13464070D01*
X50909091Y13466929D01*
X50912936Y13469981D01*
X50916626Y13473217D01*
X50920153Y13476630D01*
X50923508Y13480213D01*
X50926684Y13483955D01*
X50929672Y13487849D01*
X50932465Y13491885D01*
X50935057Y13496053D01*
X50937441Y13500343D01*
X50939612Y13504746D01*
X50941564Y13509249D01*
X50943293Y13513843D01*
X50944794Y13518515D01*
X50946065Y13523256D01*
X50947101Y13528054D01*
X50947901Y13532897D01*
X50948461Y13537773D01*
X50948783Y13542671D01*
X50948863Y13547578D01*
X50948702Y13552484D01*
X50948301Y13557376D01*
X50947660Y13562242D01*
X50946782Y13567071D01*
X50945667Y13571851D01*
X50944320Y13576570D01*
X50942742Y13581218D01*
X50940938Y13585783D01*
X50938912Y13590254D01*
X50936670Y13594620D01*
X50934216Y13598870D01*
X50931556Y13602995D01*
X50928697Y13606985D01*
X50925646Y13610830D01*
X50922409Y13614520D01*
X50918996Y13618047D01*
X50915414Y13621402D01*
X50911671Y13624578D01*
X50907777Y13627565D01*
X50903741Y13630359D01*
X50899573Y13632951D01*
X50895283Y13635335D01*
X50890881Y13637506D01*
X50886377Y13639458D01*
X50881784Y13641187D01*
X50877111Y13642688D01*
X50872370Y13643959D01*
X50867572Y13644995D01*
X50862729Y13645794D01*
X50857853Y13646355D01*
X50852956Y13646676D01*
X50848048Y13646757D01*
X50843142Y13646596D01*
X50838251Y13646195D01*
X50833384Y13645554D01*
X50828555Y13644676D01*
X50823775Y13643561D01*
X50819056Y13642213D01*
X50814408Y13640636D01*
X50809843Y13638832D01*
X50805373Y13636806D01*
X50801007Y13634564D01*
X50796756Y13632109D01*
X50792631Y13629450D01*
X50788641Y13626591D01*
X50784797Y13623540D01*
X50781106Y13620303D01*
X50777579Y13616890D01*
X50774224Y13613308D01*
X50771049Y13609565D01*
X50768061Y13605671D01*
X50765267Y13601635D01*
X50762676Y13597467D01*
X50760291Y13593177D01*
X50758120Y13588775D01*
X50756168Y13584271D01*
X50754439Y13579678D01*
X50752938Y13575005D01*
X50751667Y13570264D01*
X50750631Y13565466D01*
X50749832Y13560623D01*
X50749271Y13555747D01*
X50748950Y13550850D01*
X50748870Y13545942D01*
X50648886Y13545942D01*
X50649033Y13554939D01*
X50649676Y13564734D01*
X50650797Y13574487D01*
X50652396Y13584172D01*
X50654469Y13593767D01*
X50657010Y13603249D01*
X50660012Y13612595D01*
X50663470Y13621783D01*
X50667375Y13630789D01*
X50671717Y13639593D01*
X50676485Y13648174D01*
X50681669Y13656510D01*
X50687255Y13664582D01*
X50693231Y13672370D01*
X50699582Y13679855D01*
X50706293Y13687020D01*
X50713347Y13693847D01*
X50720727Y13700319D01*
X50728416Y13706421D01*
X50736395Y13712139D01*
X50744646Y13717459D01*
X50753147Y13722367D01*
X50761879Y13726852D01*
X50770820Y13730904D01*
X50779950Y13734511D01*
X50789245Y13737667D01*
X50798685Y13740362D01*
X50808245Y13742591D01*
X50817903Y13744349D01*
X50827635Y13745630D01*
X50837419Y13746432D01*
X50847230Y13746753D01*
X50857045Y13746593D01*
G37*
G36*
X49644610Y13046591D02*
G01*
X49654406Y13045949D01*
X49664158Y13044827D01*
X49673843Y13043228D01*
X49683439Y13041156D01*
X49692921Y13038615D01*
X49702267Y13035612D01*
X49711454Y13032154D01*
X49720460Y13028250D01*
X49729265Y13023908D01*
X49737845Y13019140D01*
X49746181Y13013956D01*
X49754253Y13008369D01*
X49762041Y13002394D01*
X49769526Y12996043D01*
X49776691Y12989332D01*
X49783518Y12982278D01*
X49789990Y12974898D01*
X49796093Y12967209D01*
X49801811Y12959229D01*
X49807130Y12950979D01*
X49812038Y12942478D01*
X49816524Y12933746D01*
X49820575Y12924804D01*
X49824183Y12915675D01*
X49827338Y12906379D01*
X49830034Y12896940D01*
X49832263Y12887380D01*
X49834020Y12877722D01*
X49835301Y12867990D01*
X49836104Y12858206D01*
X49836425Y12848395D01*
X49836264Y12838580D01*
X49835622Y12828784D01*
X49834500Y12819032D01*
X49832901Y12809347D01*
X49830829Y12799751D01*
X49828288Y12790269D01*
X49825285Y12780923D01*
X49821827Y12771736D01*
X49817923Y12762730D01*
X49813581Y12753925D01*
X49808813Y12745345D01*
X49803629Y12737009D01*
X49798042Y12728937D01*
X49792066Y12721149D01*
X49785716Y12713664D01*
X49779005Y12706499D01*
X49771951Y12699672D01*
X49764571Y12693200D01*
X49756882Y12687097D01*
X49748902Y12681379D01*
X49740652Y12676060D01*
X49732151Y12671152D01*
X49723419Y12666666D01*
X49714477Y12662615D01*
X49705348Y12659007D01*
X49696052Y12655852D01*
X49686613Y12653156D01*
X49677053Y12650927D01*
X49667395Y12649170D01*
X49657663Y12647889D01*
X49647879Y12647086D01*
X49638068Y12646765D01*
X49628253Y12646926D01*
X49618457Y12647568D01*
X49608705Y12648690D01*
X49599019Y12650289D01*
X49589424Y12652361D01*
X49579942Y12654902D01*
X49570596Y12657905D01*
X49561409Y12661363D01*
X49552402Y12665267D01*
X49543598Y12669609D01*
X49535018Y12674377D01*
X49526682Y12679561D01*
X49518610Y12685148D01*
X49510822Y12691124D01*
X49503337Y12697474D01*
X49496172Y12704185D01*
X49489345Y12711239D01*
X49482873Y12718619D01*
X49476770Y12726308D01*
X49471052Y12734288D01*
X49465733Y12742538D01*
X49460824Y12751039D01*
X49456339Y12759771D01*
X49452288Y12768713D01*
X49448680Y12777842D01*
X49445525Y12787138D01*
X49442829Y12796577D01*
X49440600Y12806137D01*
X49438843Y12815795D01*
X49437562Y12825527D01*
X49436759Y12835311D01*
X49436438Y12845122D01*
X49436451Y12845940D01*
X49536435Y12845940D01*
X49536595Y12841035D01*
X49536997Y12836143D01*
X49537637Y12831277D01*
X49538516Y12826448D01*
X49539630Y12821668D01*
X49540978Y12816948D01*
X49542556Y12812300D01*
X49544360Y12807736D01*
X49546385Y12803265D01*
X49548628Y12798899D01*
X49551082Y12794648D01*
X49553742Y12790523D01*
X49556601Y12786534D01*
X49559652Y12782689D01*
X49562888Y12778999D01*
X49566302Y12775472D01*
X49569884Y12772117D01*
X49573627Y12768941D01*
X49577521Y12765953D01*
X49581557Y12763160D01*
X49585725Y12760568D01*
X49590015Y12758184D01*
X49594417Y12756013D01*
X49598920Y12754061D01*
X49603514Y12752332D01*
X49608187Y12750830D01*
X49612928Y12749560D01*
X49617725Y12748524D01*
X49622568Y12747724D01*
X49627444Y12747163D01*
X49632342Y12746842D01*
X49637250Y12746762D01*
X49642155Y12746923D01*
X49647047Y12747324D01*
X49651913Y12747964D01*
X49656742Y12748843D01*
X49661522Y12749957D01*
X49666242Y12751305D01*
X49670890Y12752883D01*
X49675454Y12754687D01*
X49679925Y12756712D01*
X49684291Y12758955D01*
X49688542Y12761409D01*
X49692667Y12764069D01*
X49696657Y12766928D01*
X49700501Y12769979D01*
X49704191Y12773215D01*
X49707718Y12776629D01*
X49711073Y12780211D01*
X49714249Y12783954D01*
X49717237Y12787848D01*
X49720030Y12791884D01*
X49722622Y12796052D01*
X49725006Y12800342D01*
X49727177Y12804744D01*
X49729129Y12809247D01*
X49730858Y12813841D01*
X49732360Y12818514D01*
X49733630Y12823255D01*
X49734666Y12828053D01*
X49735466Y12832895D01*
X49736027Y12837771D01*
X49736348Y12842669D01*
X49736428Y12847577D01*
X49736268Y12852482D01*
X49735866Y12857374D01*
X49735226Y12862240D01*
X49734347Y12867069D01*
X49733233Y12871849D01*
X49731885Y12876569D01*
X49730307Y12881217D01*
X49728503Y12885781D01*
X49726478Y12890252D01*
X49724235Y12894618D01*
X49721781Y12898869D01*
X49719121Y12902994D01*
X49716262Y12906984D01*
X49713211Y12910828D01*
X49709975Y12914518D01*
X49706561Y12918045D01*
X49702979Y12921401D01*
X49699236Y12924576D01*
X49695342Y12927564D01*
X49691306Y12930357D01*
X49687138Y12932949D01*
X49682848Y12935333D01*
X49678446Y12937504D01*
X49673943Y12939457D01*
X49669349Y12941185D01*
X49664676Y12942687D01*
X49659935Y12943957D01*
X49655137Y12944993D01*
X49650295Y12945793D01*
X49645419Y12946354D01*
X49640521Y12946675D01*
X49635613Y12946755D01*
X49630708Y12946595D01*
X49625816Y12946194D01*
X49620950Y12945553D01*
X49616121Y12944674D01*
X49611341Y12943560D01*
X49606621Y12942212D01*
X49601973Y12940634D01*
X49597409Y12938830D01*
X49592938Y12936805D01*
X49588572Y12934562D01*
X49584321Y12932108D01*
X49580196Y12929448D01*
X49576206Y12926589D01*
X49572362Y12923538D01*
X49568672Y12920302D01*
X49565145Y12916888D01*
X49561789Y12913306D01*
X49558614Y12909563D01*
X49555626Y12905669D01*
X49552833Y12901634D01*
X49550241Y12897465D01*
X49547857Y12893175D01*
X49545686Y12888773D01*
X49543734Y12884270D01*
X49542005Y12879676D01*
X49540503Y12875003D01*
X49539233Y12870262D01*
X49538197Y12865465D01*
X49537397Y12860622D01*
X49536836Y12855746D01*
X49536515Y12850848D01*
X49536435Y12845940D01*
X49436451Y12845940D01*
X49436599Y12854938D01*
X49437241Y12864733D01*
X49438363Y12874485D01*
X49439962Y12884171D01*
X49442034Y12893766D01*
X49444575Y12903248D01*
X49447578Y12912594D01*
X49451036Y12921781D01*
X49454940Y12930788D01*
X49459282Y12939592D01*
X49464050Y12948172D01*
X49469234Y12956508D01*
X49474821Y12964580D01*
X49480797Y12972368D01*
X49487147Y12979854D01*
X49493858Y12987018D01*
X49500912Y12993845D01*
X49508292Y13000317D01*
X49515981Y13006420D01*
X49523961Y13012138D01*
X49532211Y13017457D01*
X49540712Y13022366D01*
X49549444Y13026851D01*
X49558386Y13030902D01*
X49567515Y13034510D01*
X49576811Y13037665D01*
X49586250Y13040361D01*
X49595810Y13042590D01*
X49605468Y13044347D01*
X49615200Y13045628D01*
X49624984Y13046431D01*
X49634795Y13046752D01*
X49644610Y13046591D01*
G37*
G36*
X51369478Y15659029D02*
G01*
X51379274Y15658387D01*
X51389026Y15657265D01*
X51398711Y15655666D01*
X51408307Y15653594D01*
X51417789Y15651053D01*
X51427135Y15648050D01*
X51436322Y15644592D01*
X51445328Y15640688D01*
X51454133Y15636346D01*
X51462713Y15631577D01*
X51471049Y15626394D01*
X51479121Y15620807D01*
X51486909Y15614831D01*
X51494394Y15608480D01*
X51501559Y15601770D01*
X51508386Y15594716D01*
X51514858Y15587335D01*
X51520961Y15579646D01*
X51526679Y15571667D01*
X51531998Y15563417D01*
X51536906Y15554915D01*
X51541392Y15546184D01*
X51545443Y15537242D01*
X51549051Y15528113D01*
X51552206Y15518817D01*
X51554902Y15509378D01*
X51557131Y15499818D01*
X51558888Y15490160D01*
X51560169Y15480427D01*
X51560972Y15470644D01*
X51561293Y15460832D01*
X51561132Y15451017D01*
X51560490Y15441222D01*
X51559368Y15431470D01*
X51557769Y15421784D01*
X51555697Y15412189D01*
X51553156Y15402707D01*
X51550153Y15393361D01*
X51546695Y15384174D01*
X51542791Y15375167D01*
X51538449Y15366363D01*
X51533681Y15357783D01*
X51528497Y15349446D01*
X51522910Y15341375D01*
X51516934Y15333587D01*
X51510583Y15326101D01*
X51503873Y15318937D01*
X51496819Y15312110D01*
X51489439Y15305637D01*
X51481749Y15299535D01*
X51473770Y15293817D01*
X51465520Y15288497D01*
X51457019Y15283589D01*
X51448287Y15279104D01*
X51439345Y15275053D01*
X51430216Y15271445D01*
X51420920Y15268290D01*
X51411481Y15265594D01*
X51401921Y15263365D01*
X51392263Y15261608D01*
X51382531Y15260326D01*
X51372747Y15259524D01*
X51362936Y15259203D01*
X51353120Y15259364D01*
X51343325Y15260006D01*
X51333573Y15261127D01*
X51323887Y15262727D01*
X51314292Y15264799D01*
X51304810Y15267340D01*
X51295464Y15270343D01*
X51286277Y15273800D01*
X51277270Y15277705D01*
X51268466Y15282047D01*
X51259886Y15286815D01*
X51251550Y15291999D01*
X51243478Y15297585D01*
X51235690Y15303561D01*
X51228204Y15309912D01*
X51221040Y15316623D01*
X51214213Y15323677D01*
X51207740Y15331057D01*
X51201638Y15338746D01*
X51195920Y15346725D01*
X51190601Y15354976D01*
X51185692Y15363477D01*
X51181207Y15372209D01*
X51177156Y15381150D01*
X51173548Y15390280D01*
X51170393Y15399575D01*
X51167697Y15409015D01*
X51165468Y15418575D01*
X51163711Y15428233D01*
X51162429Y15437965D01*
X51161627Y15447749D01*
X51161306Y15457560D01*
X51161319Y15458378D01*
X51261303Y15458378D01*
X51261463Y15453473D01*
X51261864Y15448581D01*
X51262505Y15443714D01*
X51263384Y15438885D01*
X51264498Y15434105D01*
X51265846Y15429386D01*
X51267424Y15424738D01*
X51269228Y15420173D01*
X51271253Y15415703D01*
X51273496Y15411337D01*
X51275950Y15407086D01*
X51278610Y15402961D01*
X51281469Y15398971D01*
X51284520Y15395127D01*
X51287756Y15391436D01*
X51291170Y15387909D01*
X51294752Y15384554D01*
X51298495Y15381379D01*
X51302389Y15378391D01*
X51306424Y15375598D01*
X51310593Y15373006D01*
X51314883Y15370621D01*
X51319285Y15368451D01*
X51323788Y15366498D01*
X51328382Y15364769D01*
X51333055Y15363268D01*
X51337796Y15361998D01*
X51342593Y15360961D01*
X51347436Y15360162D01*
X51352312Y15359601D01*
X51357210Y15359280D01*
X51362118Y15359200D01*
X51367023Y15359360D01*
X51371915Y15359761D01*
X51376781Y15360402D01*
X51381610Y15361281D01*
X51386390Y15362395D01*
X51391110Y15363743D01*
X51395758Y15365321D01*
X51400322Y15367124D01*
X51404793Y15369150D01*
X51409159Y15371393D01*
X51413410Y15373847D01*
X51417535Y15376507D01*
X51421524Y15379366D01*
X51425369Y15382417D01*
X51429059Y15385653D01*
X51432586Y15389066D01*
X51435941Y15392649D01*
X51439117Y15396391D01*
X51442105Y15400285D01*
X51444898Y15404321D01*
X51447490Y15408489D01*
X51449874Y15412780D01*
X51452045Y15417182D01*
X51453997Y15421685D01*
X51455726Y15426279D01*
X51457228Y15430952D01*
X51458498Y15435693D01*
X51459534Y15440490D01*
X51460334Y15445333D01*
X51460895Y15450209D01*
X51461216Y15455107D01*
X51461296Y15460014D01*
X51461135Y15464920D01*
X51460734Y15469812D01*
X51460094Y15474678D01*
X51459215Y15479507D01*
X51458100Y15484287D01*
X51456753Y15489007D01*
X51455175Y15493654D01*
X51453371Y15498219D01*
X51451346Y15502690D01*
X51449103Y15507056D01*
X51446649Y15511307D01*
X51443989Y15515432D01*
X51441130Y15519421D01*
X51438079Y15523266D01*
X51434843Y15526956D01*
X51431429Y15530483D01*
X51427847Y15533838D01*
X51424104Y15537014D01*
X51420210Y15540002D01*
X51416174Y15542795D01*
X51412006Y15545387D01*
X51407716Y15547771D01*
X51403314Y15549942D01*
X51398811Y15551894D01*
X51394217Y15553623D01*
X51389544Y15555125D01*
X51384803Y15556395D01*
X51380005Y15557431D01*
X51375163Y15558231D01*
X51370287Y15558792D01*
X51365389Y15559113D01*
X51360481Y15559193D01*
X51355576Y15559032D01*
X51350684Y15558631D01*
X51345818Y15557991D01*
X51340989Y15557112D01*
X51336209Y15555997D01*
X51331489Y15554650D01*
X51326841Y15553072D01*
X51322276Y15551268D01*
X51317806Y15549242D01*
X51313440Y15547000D01*
X51309189Y15544546D01*
X51305064Y15541886D01*
X51301074Y15539027D01*
X51297230Y15535976D01*
X51293540Y15532739D01*
X51290013Y15529326D01*
X51286657Y15525744D01*
X51283482Y15522001D01*
X51280494Y15518107D01*
X51277701Y15514071D01*
X51275109Y15509903D01*
X51272725Y15505613D01*
X51270554Y15501211D01*
X51268601Y15496707D01*
X51266873Y15492114D01*
X51265371Y15487441D01*
X51264101Y15482700D01*
X51263065Y15477902D01*
X51262265Y15473060D01*
X51261704Y15468183D01*
X51261383Y15463286D01*
X51261303Y15458378D01*
X51161319Y15458378D01*
X51161467Y15467375D01*
X51162109Y15477171D01*
X51163231Y15486923D01*
X51164830Y15496608D01*
X51166902Y15506203D01*
X51169443Y15515685D01*
X51172446Y15525031D01*
X51175904Y15534219D01*
X51179808Y15543225D01*
X51184150Y15552029D01*
X51188918Y15560610D01*
X51194102Y15568946D01*
X51199689Y15577018D01*
X51205664Y15584806D01*
X51212015Y15592291D01*
X51218726Y15599456D01*
X51225780Y15606283D01*
X51233160Y15612755D01*
X51240849Y15618858D01*
X51248829Y15624576D01*
X51257079Y15629895D01*
X51265580Y15634803D01*
X51274312Y15639288D01*
X51283254Y15643340D01*
X51292383Y15646948D01*
X51301679Y15650103D01*
X51311118Y15652798D01*
X51320678Y15655028D01*
X51330336Y15656785D01*
X51340068Y15658066D01*
X51349852Y15658868D01*
X51359663Y15659190D01*
X51369478Y15659029D01*
G37*
G36*
X48944609Y14259026D02*
G01*
X48954404Y14258384D01*
X48964157Y14257262D01*
X48973842Y14255663D01*
X48983437Y14253591D01*
X48992919Y14251050D01*
X49002265Y14248047D01*
X49011452Y14244589D01*
X49020459Y14240685D01*
X49029263Y14236343D01*
X49037844Y14231574D01*
X49046180Y14226391D01*
X49054252Y14220804D01*
X49062040Y14214828D01*
X49069525Y14208477D01*
X49076690Y14201767D01*
X49083516Y14194713D01*
X49089989Y14187333D01*
X49096091Y14179643D01*
X49101809Y14171664D01*
X49107129Y14163414D01*
X49112037Y14154913D01*
X49116522Y14146181D01*
X49120574Y14137239D01*
X49124181Y14128110D01*
X49127337Y14118814D01*
X49130032Y14109375D01*
X49132261Y14099815D01*
X49134019Y14090157D01*
X49135300Y14080424D01*
X49136102Y14070641D01*
X49136423Y14060830D01*
X49136263Y14051014D01*
X49135621Y14041219D01*
X49134499Y14031467D01*
X49132900Y14021781D01*
X49130827Y14012186D01*
X49128287Y14002704D01*
X49125284Y13993358D01*
X49121826Y13984171D01*
X49117921Y13975164D01*
X49113580Y13966360D01*
X49108811Y13957780D01*
X49103627Y13949443D01*
X49098041Y13941372D01*
X49092065Y13933584D01*
X49085714Y13926098D01*
X49079004Y13918934D01*
X49071950Y13912107D01*
X49064569Y13905634D01*
X49056880Y13899532D01*
X49048901Y13893814D01*
X49040651Y13888494D01*
X49032149Y13883586D01*
X49023417Y13879101D01*
X49014476Y13875050D01*
X49005346Y13871442D01*
X48996051Y13868287D01*
X48986612Y13865591D01*
X48977052Y13863362D01*
X48967394Y13861605D01*
X48957661Y13860323D01*
X48947877Y13859521D01*
X48938066Y13859200D01*
X48928251Y13859361D01*
X48918456Y13860003D01*
X48908703Y13861125D01*
X48899018Y13862724D01*
X48889423Y13864796D01*
X48879941Y13867337D01*
X48870595Y13870340D01*
X48861408Y13873797D01*
X48852401Y13877702D01*
X48843597Y13882044D01*
X48835016Y13886812D01*
X48826680Y13891996D01*
X48818608Y13897582D01*
X48810820Y13903558D01*
X48803335Y13909909D01*
X48796170Y13916620D01*
X48789344Y13923674D01*
X48782871Y13931054D01*
X48776769Y13938743D01*
X48771051Y13946722D01*
X48765731Y13954973D01*
X48760823Y13963474D01*
X48756338Y13972206D01*
X48752286Y13981147D01*
X48748679Y13990277D01*
X48745523Y13999573D01*
X48742828Y14009012D01*
X48740599Y14018572D01*
X48738841Y14028230D01*
X48737560Y14037962D01*
X48736758Y14047746D01*
X48736437Y14057557D01*
X48736450Y14058375D01*
X48836433Y14058375D01*
X48836594Y14053470D01*
X48836995Y14048578D01*
X48837636Y14043711D01*
X48838514Y14038883D01*
X48839629Y14034102D01*
X48840977Y14029383D01*
X48842554Y14024735D01*
X48844358Y14020170D01*
X48846384Y14015700D01*
X48848626Y14011334D01*
X48851081Y14007083D01*
X48853740Y14002958D01*
X48856599Y13998968D01*
X48859651Y13995124D01*
X48862887Y13991433D01*
X48866300Y13987906D01*
X48869883Y13984551D01*
X48873625Y13981376D01*
X48877519Y13978388D01*
X48881555Y13975595D01*
X48885723Y13973003D01*
X48890013Y13970618D01*
X48894415Y13968448D01*
X48898919Y13966495D01*
X48903512Y13964766D01*
X48908185Y13963265D01*
X48912926Y13961995D01*
X48917724Y13960958D01*
X48922567Y13960159D01*
X48927443Y13959598D01*
X48932340Y13959277D01*
X48937248Y13959197D01*
X48942154Y13959357D01*
X48947046Y13959758D01*
X48951912Y13960399D01*
X48956741Y13961278D01*
X48961521Y13962392D01*
X48966240Y13963740D01*
X48970888Y13965318D01*
X48975453Y13967122D01*
X48979924Y13969147D01*
X48984290Y13971390D01*
X48988540Y13973844D01*
X48992665Y13976504D01*
X48996655Y13979363D01*
X49000500Y13982414D01*
X49004190Y13985650D01*
X49007717Y13989063D01*
X49011072Y13992646D01*
X49014247Y13996388D01*
X49017235Y14000282D01*
X49020029Y14004318D01*
X49022621Y14008486D01*
X49025005Y14012777D01*
X49027176Y14017179D01*
X49029128Y14021682D01*
X49030857Y14026276D01*
X49032358Y14030949D01*
X49033629Y14035690D01*
X49034665Y14040487D01*
X49035464Y14045330D01*
X49036025Y14050206D01*
X49036346Y14055104D01*
X49036427Y14060011D01*
X49036266Y14064917D01*
X49035865Y14069809D01*
X49035224Y14074675D01*
X49034346Y14079504D01*
X49033231Y14084284D01*
X49031883Y14089004D01*
X49030306Y14093651D01*
X49028502Y14098216D01*
X49026476Y14102687D01*
X49024233Y14107053D01*
X49021779Y14111304D01*
X49019120Y14115429D01*
X49016261Y14119418D01*
X49013209Y14123263D01*
X49009973Y14126953D01*
X49006560Y14130480D01*
X49002977Y14133835D01*
X48999235Y14137011D01*
X48995341Y14139999D01*
X48991305Y14142792D01*
X48987137Y14145384D01*
X48982847Y14147768D01*
X48978444Y14149939D01*
X48973941Y14151891D01*
X48969348Y14153620D01*
X48964675Y14155122D01*
X48959934Y14156392D01*
X48955136Y14157428D01*
X48950293Y14158228D01*
X48945417Y14158789D01*
X48940519Y14159110D01*
X48935612Y14159190D01*
X48930706Y14159029D01*
X48925814Y14158628D01*
X48920948Y14157988D01*
X48916119Y14157109D01*
X48911339Y14155994D01*
X48906620Y14154647D01*
X48901972Y14153069D01*
X48897407Y14151265D01*
X48892936Y14149239D01*
X48888570Y14146997D01*
X48884320Y14144543D01*
X48880195Y14141883D01*
X48876205Y14139024D01*
X48872360Y14135973D01*
X48868670Y14132737D01*
X48865143Y14129323D01*
X48861788Y14125741D01*
X48858613Y14121998D01*
X48855625Y14118104D01*
X48852831Y14114068D01*
X48850239Y14109900D01*
X48847855Y14105610D01*
X48845684Y14101208D01*
X48843732Y14096705D01*
X48842003Y14092111D01*
X48840502Y14087438D01*
X48839231Y14082697D01*
X48838195Y14077899D01*
X48837396Y14073057D01*
X48836835Y14068181D01*
X48836514Y14063283D01*
X48836433Y14058375D01*
X48736450Y14058375D01*
X48736597Y14067372D01*
X48737239Y14077168D01*
X48738361Y14086920D01*
X48739960Y14096605D01*
X48742033Y14106201D01*
X48744573Y14115683D01*
X48747576Y14125028D01*
X48751034Y14134216D01*
X48754939Y14143222D01*
X48759280Y14152026D01*
X48764049Y14160607D01*
X48769233Y14168943D01*
X48774819Y14177015D01*
X48780795Y14184803D01*
X48787146Y14192288D01*
X48793856Y14199453D01*
X48800910Y14206280D01*
X48808291Y14212752D01*
X48815980Y14218855D01*
X48823959Y14224573D01*
X48832209Y14229892D01*
X48840711Y14234800D01*
X48849443Y14239286D01*
X48858384Y14243337D01*
X48867514Y14246945D01*
X48876809Y14250100D01*
X48886248Y14252795D01*
X48895808Y14255025D01*
X48905466Y14256782D01*
X48915199Y14258063D01*
X48924983Y14258865D01*
X48934794Y14259187D01*
X48944609Y14259026D01*
G37*
G36*
X50157044Y14959027D02*
G01*
X50166839Y14958385D01*
X50176591Y14957264D01*
X50186277Y14955664D01*
X50195872Y14953592D01*
X50205354Y14951051D01*
X50214700Y14948049D01*
X50223887Y14944591D01*
X50232894Y14940686D01*
X50241698Y14936344D01*
X50250278Y14931576D01*
X50258615Y14926392D01*
X50266686Y14920806D01*
X50274474Y14914830D01*
X50281960Y14908479D01*
X50289124Y14901768D01*
X50295951Y14894714D01*
X50302424Y14887334D01*
X50308526Y14879645D01*
X50314244Y14871666D01*
X50319563Y14863415D01*
X50324472Y14854914D01*
X50328957Y14846182D01*
X50333008Y14837241D01*
X50336616Y14828111D01*
X50339771Y14818816D01*
X50342467Y14809376D01*
X50344696Y14799816D01*
X50346453Y14790158D01*
X50347735Y14780426D01*
X50348537Y14770642D01*
X50348858Y14760831D01*
X50348697Y14751016D01*
X50348055Y14741220D01*
X50346933Y14731468D01*
X50345334Y14721783D01*
X50343262Y14712188D01*
X50340721Y14702706D01*
X50337718Y14693360D01*
X50334261Y14684172D01*
X50330356Y14675166D01*
X50326014Y14666362D01*
X50321246Y14657781D01*
X50316062Y14649445D01*
X50310476Y14641373D01*
X50304500Y14633585D01*
X50298149Y14626100D01*
X50291438Y14618935D01*
X50284384Y14612108D01*
X50277004Y14605636D01*
X50269315Y14599533D01*
X50261335Y14593815D01*
X50253085Y14588496D01*
X50244584Y14583588D01*
X50235852Y14579103D01*
X50226910Y14575051D01*
X50217781Y14571443D01*
X50208485Y14568288D01*
X50199046Y14565593D01*
X50189486Y14563363D01*
X50179828Y14561606D01*
X50170096Y14560325D01*
X50160312Y14559523D01*
X50150501Y14559201D01*
X50140686Y14559362D01*
X50130890Y14560004D01*
X50121138Y14561126D01*
X50111453Y14562725D01*
X50101857Y14564797D01*
X50092375Y14567338D01*
X50083030Y14570341D01*
X50073842Y14573799D01*
X50064836Y14577703D01*
X50056032Y14582045D01*
X50047451Y14586814D01*
X50039115Y14591997D01*
X50031043Y14597584D01*
X50023255Y14603560D01*
X50015770Y14609911D01*
X50008605Y14616621D01*
X50001778Y14623675D01*
X49995306Y14631056D01*
X49989203Y14638745D01*
X49983485Y14646724D01*
X49978166Y14654974D01*
X49973258Y14663476D01*
X49968772Y14672207D01*
X49964721Y14681149D01*
X49961113Y14690278D01*
X49957958Y14699574D01*
X49955262Y14709013D01*
X49953033Y14718573D01*
X49951276Y14728231D01*
X49949995Y14737964D01*
X49949193Y14747747D01*
X49948871Y14757559D01*
X49948884Y14758377D01*
X50048868Y14758377D01*
X50049029Y14753471D01*
X50049430Y14748579D01*
X50050070Y14743713D01*
X50050949Y14738884D01*
X50052064Y14734104D01*
X50053411Y14729384D01*
X50054989Y14724737D01*
X50056793Y14720172D01*
X50058819Y14715701D01*
X50061061Y14711335D01*
X50063515Y14707085D01*
X50066175Y14702959D01*
X50069034Y14698970D01*
X50072085Y14695125D01*
X50075321Y14691435D01*
X50078735Y14687908D01*
X50082317Y14684553D01*
X50086060Y14681377D01*
X50089954Y14678389D01*
X50093990Y14675596D01*
X50098158Y14673004D01*
X50102448Y14670620D01*
X50106850Y14668449D01*
X50111353Y14666497D01*
X50115947Y14664768D01*
X50120620Y14663266D01*
X50125361Y14661996D01*
X50130159Y14660960D01*
X50135001Y14660160D01*
X50139877Y14659599D01*
X50144775Y14659278D01*
X50149683Y14659198D01*
X50154588Y14659359D01*
X50159480Y14659760D01*
X50164346Y14660400D01*
X50169175Y14661279D01*
X50173955Y14662394D01*
X50178675Y14663741D01*
X50183323Y14665319D01*
X50187888Y14667123D01*
X50192358Y14669149D01*
X50196724Y14671391D01*
X50200975Y14673845D01*
X50205100Y14676505D01*
X50209090Y14679364D01*
X50212934Y14682415D01*
X50216625Y14685652D01*
X50220151Y14689065D01*
X50223507Y14692647D01*
X50226682Y14696390D01*
X50229670Y14700284D01*
X50232463Y14704320D01*
X50235055Y14708488D01*
X50237440Y14712778D01*
X50239610Y14717180D01*
X50241563Y14721684D01*
X50243292Y14726277D01*
X50244793Y14730950D01*
X50246063Y14735691D01*
X50247100Y14740489D01*
X50247899Y14745331D01*
X50248460Y14750208D01*
X50248781Y14755105D01*
X50248861Y14760013D01*
X50248701Y14764919D01*
X50248300Y14769810D01*
X50247659Y14774677D01*
X50246780Y14779506D01*
X50245666Y14784286D01*
X50244318Y14789005D01*
X50242740Y14793653D01*
X50240936Y14798218D01*
X50238911Y14802688D01*
X50236668Y14807054D01*
X50234214Y14811305D01*
X50231554Y14815430D01*
X50228695Y14819420D01*
X50225644Y14823264D01*
X50222408Y14826955D01*
X50218994Y14830482D01*
X50215412Y14833837D01*
X50211669Y14837012D01*
X50207776Y14840000D01*
X50203740Y14842793D01*
X50199572Y14845385D01*
X50195281Y14847770D01*
X50190879Y14849940D01*
X50186376Y14851893D01*
X50181782Y14853622D01*
X50177109Y14855123D01*
X50172368Y14856393D01*
X50167571Y14857430D01*
X50162728Y14858229D01*
X50157852Y14858790D01*
X50152954Y14859111D01*
X50148047Y14859191D01*
X50143141Y14859031D01*
X50138249Y14858630D01*
X50133383Y14857989D01*
X50128554Y14857110D01*
X50123774Y14855996D01*
X50119054Y14854648D01*
X50114407Y14853070D01*
X50109842Y14851267D01*
X50105371Y14849241D01*
X50101005Y14846998D01*
X50096754Y14844544D01*
X50092629Y14841884D01*
X50088640Y14839025D01*
X50084795Y14835974D01*
X50081105Y14832738D01*
X50077578Y14829325D01*
X50074223Y14825742D01*
X50071047Y14822000D01*
X50068059Y14818106D01*
X50065266Y14814070D01*
X50062674Y14809902D01*
X50060290Y14805611D01*
X50058119Y14801209D01*
X50056167Y14796706D01*
X50054438Y14792112D01*
X50052936Y14787439D01*
X50051666Y14782698D01*
X50050630Y14777901D01*
X50049830Y14773058D01*
X50049269Y14768182D01*
X50048948Y14763284D01*
X50048868Y14758377D01*
X49948884Y14758377D01*
X49949032Y14767374D01*
X49949674Y14777169D01*
X49950796Y14786921D01*
X49952395Y14796607D01*
X49954467Y14806202D01*
X49957008Y14815684D01*
X49960011Y14825030D01*
X49963469Y14834217D01*
X49967373Y14843224D01*
X49971715Y14852028D01*
X49976484Y14860608D01*
X49981667Y14868945D01*
X49987254Y14877016D01*
X49993230Y14884804D01*
X49999581Y14892290D01*
X50006291Y14899454D01*
X50013345Y14906281D01*
X50020725Y14912754D01*
X50028415Y14918856D01*
X50036394Y14924574D01*
X50044644Y14929894D01*
X50053145Y14934802D01*
X50061877Y14939287D01*
X50070819Y14943338D01*
X50079948Y14946946D01*
X50089244Y14950101D01*
X50098683Y14952797D01*
X50108243Y14955026D01*
X50117901Y14956783D01*
X50127634Y14958065D01*
X50137417Y14958867D01*
X50147228Y14959188D01*
X50157044Y14959027D01*
G37*
%TD*%
M02*
