%TF.GenerationSoftware,Flux,Pcbnew,7.0.11-7.0.11~ubuntu20.04.1*%
%TF.CreationDate,2024-08-16T17:16:58+00:00*%
%TF.ProjectId,input,696e7075-742e-46b6-9963-61645f706362,rev?*%
%TF.SameCoordinates,Original*%
%TF.FileFunction,Copper,L2,Bot*%
%TF.FilePolarity,Positive*%
%FSLAX46Y46*%
G04 Gerber Fmt 4.6, Leading zero omitted, Abs format (unit mm)*
G04 Filename: betterflipperzero*
G04 Build it with Flux! Visit our site at: https://www.flux.ai (PCBNEW 7.0.11-7.0.11~ubuntu20.04.1) date 2024-08-16 17:16:58*
%MOMM*%
%LPD*%
G01*
G04 APERTURE LIST*
G04 Aperture macros list*
%AMHorizOval*
0 Thick line with rounded ends*
0 $1 width*
0 $2 $3 position (X,Y) of the first rounded end (center of the circle)*
0 $4 $5 position (X,Y) of the second rounded end (center of the circle)*
0 Add line between two ends*
20,1,$1,$2,$3,$4,$5,0*
0 Add two circle primitives to create the rounded ends*
1,1,$1,$2,$3*
1,1,$1,$4,$5*%
%AMFreePoly0*
4,1,129,0.022069,0.299187,0.036723,0.297744,0.051289,0.295583,0.065730,0.292711,0.080014,0.289133,0.094105,0.284858,0.107969,0.279898,0.121572,0.274263,0.134883,0.267967,0.147869,0.261026,0.160499,0.253456,0.172742,0.245275,0.184569,0.236504,0.195952,0.227163,0.206862,0.217274,0.217274,0.206862,0.227163,0.195952,0.236504,0.184569,0.245275,0.172742,0.253456,0.160499,
0.261026,0.147869,0.267967,0.134883,0.274263,0.121572,0.279898,0.107969,0.284858,0.094105,0.289133,0.080014,0.292711,0.065730,0.295583,0.051289,0.297744,0.036723,0.299187,0.022069,0.299910,0.007362,0.299910,-0.007362,0.299187,-0.022069,0.297744,-0.036723,0.295583,-0.051289,0.292711,-0.065730,0.289133,-0.080014,0.284858,-0.094105,0.279898,-0.107969,0.274263,-0.121572,
0.267967,-0.134883,0.261026,-0.147869,0.253456,-0.160499,0.245275,-0.172742,0.236504,-0.184569,0.227163,-0.195952,0.217274,-0.206862,0.206862,-0.217274,0.195952,-0.227163,0.184569,-0.236504,0.172742,-0.245275,0.160499,-0.253456,0.147869,-0.261026,0.134883,-0.267967,0.121572,-0.274263,0.107969,-0.279898,0.094105,-0.284858,0.080014,-0.289133,0.065730,-0.292711,0.051289,-0.295583,
0.036723,-0.297744,0.022069,-0.299187,0.007362,-0.299910,-0.007362,-0.299910,-0.022069,-0.299187,-0.036723,-0.297744,-0.051289,-0.295583,-0.065730,-0.292711,-0.080014,-0.289133,-0.094105,-0.284858,-0.107969,-0.279898,-0.121572,-0.274263,-0.134883,-0.267967,-0.147869,-0.261026,-0.160499,-0.253456,-0.172742,-0.245275,-0.184569,-0.236504,-0.195952,-0.227163,-0.206862,-0.217274,-0.217274,-0.206862,
-0.227163,-0.195952,-0.236504,-0.184569,-0.245275,-0.172742,-0.253456,-0.160499,-0.261026,-0.147869,-0.267967,-0.134883,-0.274263,-0.121572,-0.279898,-0.107969,-0.284858,-0.094105,-0.289133,-0.080014,-0.292711,-0.065730,-0.295583,-0.051289,-0.297744,-0.036723,-0.299187,-0.022069,-0.299910,-0.007362,-0.299910,0.007362,-0.299187,0.022069,-0.297744,0.036723,-0.295583,0.051289,-0.292711,0.065730,
-0.289133,0.080014,-0.284858,0.094105,-0.279898,0.107969,-0.274263,0.121572,-0.267967,0.134883,-0.261026,0.147869,-0.253456,0.160499,-0.245275,0.172742,-0.236504,0.184569,-0.227163,0.195952,-0.217274,0.206862,-0.206862,0.217274,-0.195952,0.227163,-0.184569,0.236504,-0.172742,0.245275,-0.160499,0.253456,-0.147869,0.261026,-0.134883,0.267967,-0.121572,0.274263,-0.107969,0.279898,
-0.094105,0.284858,-0.080014,0.289133,-0.065730,0.292711,-0.051289,0.295583,-0.036723,0.297744,-0.022069,0.299187,-0.007362,0.299910,0.007362,0.299910,0.022069,0.299187,0.022069,0.299187,$1*%
%AMFreePoly1*
4,1,5,0.850000,-0.850000,-0.850000,-0.850000,-0.850000,0.850000,0.850000,0.850000,0.850000,-0.850000,0.850000,-0.850000,$1*%
G04 Aperture macros list end*
%TA.AperFunction,ComponentPad*%
%ADD10C,1.473200*%
%TD*%
%TA.AperFunction,ComponentPad*%
%ADD11HorizOval,1.050000X-0.454663X0.262500X0.454663X-0.262500X0*%
%TD*%
%TA.AperFunction,ComponentPad*%
%ADD12FreePoly0,0.000000*%
%TD*%
%TA.AperFunction,ComponentPad*%
%ADD13C,1.700000*%
%TD*%
%TA.AperFunction,ComponentPad*%
%ADD14FreePoly1,0.000000*%
%TD*%
%TA.AperFunction,ComponentPad*%
%ADD15C,2.700000*%
%TD*%
%TA.AperFunction,ComponentPad*%
%ADD16C,0.400000*%
%TD*%
%TA.AperFunction,Conductor*%
%ADD17C,0.300000*%
%TD*%
%TA.AperFunction,Conductor*%
%ADD18C,0.150000*%
%TD*%
%TA.AperFunction,Conductor*%
%ADD19C,0.254000*%
%TD*%
G04 APERTURE END LIST*
D10*
%TO.P,,63b0037f-4f66-4768-b2de-fbd4c6ec7e4c__6567e3ba-d922-443a-bbad-ba66a5f5beb2*%
%TO.N,N/C*%
X-67877930Y-7245555D03*
%TO.P,,63b0037f-4f66-4768-b2de-fbd4c6ec7e4c__940075bf-dfc7-4af3-8f61-03630f79ad7a*%
X-67009198Y-9632374D03*
%TO.P,,63b0037f-4f66-4768-b2de-fbd4c6ec7e4c__a4d6decd-cc72-4621-9a62-ecb364dab4b8*%
X-66140465Y-12019193D03*
D11*
%TO.P,,a9728bda-38a0-4284-839c-b054ecb6658e__2326611f-98f6-a130-ac94-da96fde3ec8f*%
X56843000Y-1574574D03*
%TO.P,,a9728bda-38a0-4284-839c-b054ecb6658e__9415c64b-4f59-a6d9-e7ea-dc5b1de656fb*%
X52523018Y-9057044D03*
%TO.P,,a9728bda-38a0-4284-839c-b054ecb6658e__9b3c6dc7-8e8d-43a0-5d61-3a6777006a6c*%
X56143009Y-11147035D03*
%TO.P,,a9728bda-38a0-4284-839c-b054ecb6658e__e8284091-fcc7-bc14-948c-a2f31e589c00*%
X60462991Y-3664565D03*
D12*
%TO.P,,b47b39cd-066e-4d9b-819c-8c99630e36ba__55c7e7af-67a4-4066-a0f7-a2581e1d74bf*%
%TO.N,Net (P1)*%
X-21441616Y9699607D03*
%TO.P,,b47b39cd-066e-4d9b-819c-8c99630e36ba__6940ea2e-3799-43a3-a682-a446a143f7d9*%
X-23284634Y6424438D03*
%TO.P,,b47b39cd-066e-4d9b-819c-8c99630e36ba__de70eb82-9b2e-4f63-b72e-cc61ce8525f8*%
X-20706794Y9064481D03*
D13*
%TO.P,,fde93685-1b47-4d55-9189-6f2810ccf2d7__09777ebb-f9ec-a1d8-aacd-1e03d3e185cb*%
%TO.N,N/C*%
X9062700Y26038200D03*
%TO.P,,fde93685-1b47-4d55-9189-6f2810ccf2d7__17aa498e-7034-989d-93a1-20cf048a9bb7*%
X-1097300Y26038200D03*
D14*
%TO.P,,fde93685-1b47-4d55-9189-6f2810ccf2d7__780a0c78-b655-92b5-eb7b-7bb07a38f6bb*%
X-6177300Y26038200D03*
D13*
%TO.P,,fde93685-1b47-4d55-9189-6f2810ccf2d7__88186ed4-c72e-9151-10db-74afa3b3250f*%
X11602700Y26038200D03*
%TO.P,,fde93685-1b47-4d55-9189-6f2810ccf2d7__a5452cd5-cdfa-37d5-f511-cce953e8887a*%
X-3637300Y26038200D03*
%TO.P,,fde93685-1b47-4d55-9189-6f2810ccf2d7__bf89ace4-a929-4341-2316-5258132c0519*%
X6522700Y26038200D03*
%TO.P,,fde93685-1b47-4d55-9189-6f2810ccf2d7__e1477550-86e3-7622-8486-9d94b12c61a3*%
X3982700Y26038200D03*
%TO.P,,fde93685-1b47-4d55-9189-6f2810ccf2d7__fd60c3f0-3f20-7c4b-71bf-496c76bfff57*%
X1442700Y26038200D03*
D15*
%TO.P,,fde93685-1b47-4d55-9189-6f2810ccf2d7__9b5df1e0-9f2a-899f-2919-7db1566b6d64.mounts.13e7b21decf95421cd3e398441d8b521*%
X-13287300Y26038200D03*
%TO.P,,fde93685-1b47-4d55-9189-6f2810ccf2d7__9b5df1e0-9f2a-899f-2919-7db1566b6d64.mounts.13400cc629a4f6eba2ffef736c215646*%
X18712700Y-13461800D03*
%TO.P,,fde93685-1b47-4d55-9189-6f2810ccf2d7__9b5df1e0-9f2a-899f-2919-7db1566b6d64.mounts.9b67ec2108eab0208d9c6083db633c0f*%
X-13287300Y-13461800D03*
%TO.P,,fde93685-1b47-4d55-9189-6f2810ccf2d7__9b5df1e0-9f2a-899f-2919-7db1566b6d64.mounts.285fa6b931a40c0607ac10948467f53c*%
X18712700Y26038200D03*
D16*
%TO.P,,ff6aa628-a694-44a5-a8a3-0151430d2fb0__ee3a696f-ef70-402c-ab0c-7137ed4eee28.defaultFootprint.mounts.183bc2e5b0fd3164e75ded3f1243107f*%
X51805084Y13290543D03*
%TO.P,,ff6aa628-a694-44a5-a8a3-0151430d2fb0__ee3a696f-ef70-402c-ab0c-7137ed4eee28.defaultFootprint.mounts.9dc978c55082aad2fafacdbd9f5f57bc*%
X50592650Y12590542D03*
%TO.P,,ff6aa628-a694-44a5-a8a3-0151430d2fb0__ee3a696f-ef70-402c-ab0c-7137ed4eee28.defaultFootprint.mounts.a0d68b55a491274f814daab068f0c950*%
X51105083Y14502978D03*
%TO.P,,ff6aa628-a694-44a5-a8a3-0151430d2fb0__ee3a696f-ef70-402c-ab0c-7137ed4eee28.defaultFootprint.mounts.afcd757d940930679b843bc1e4386240*%
X49892648Y13802977D03*
%TO.P,,ff6aa628-a694-44a5-a8a3-0151430d2fb0__ee3a696f-ef70-402c-ab0c-7137ed4eee28.defaultFootprint.mounts.4504ff15bdcf4818a54146cc7a8e9a0d*%
X50405081Y15715413D03*
%TO.P,,ff6aa628-a694-44a5-a8a3-0151430d2fb0__ee3a696f-ef70-402c-ab0c-7137ed4eee28.defaultFootprint.mounts.19f3852e009ba6bfae8a2fce513ef1dd*%
X49192647Y15015411D03*
%TO.P,,ff6aa628-a694-44a5-a8a3-0151430d2fb0__ee3a696f-ef70-402c-ab0c-7137ed4eee28.defaultFootprint.mounts.6d4d26d8edc27532900a7c937b5e863d*%
X52061301Y14246762D03*
%TO.P,,ff6aa628-a694-44a5-a8a3-0151430d2fb0__ee3a696f-ef70-402c-ab0c-7137ed4eee28.defaultFootprint.mounts.f2ecf32f083cf9b5783a264d7a48b752*%
X50848866Y13546760D03*
%TO.P,,ff6aa628-a694-44a5-a8a3-0151430d2fb0__ee3a696f-ef70-402c-ab0c-7137ed4eee28.defaultFootprint.mounts.cf10f8cc0c36fe03b55323802961a88d*%
X49636431Y12846759D03*
%TO.P,,ff6aa628-a694-44a5-a8a3-0151430d2fb0__ee3a696f-ef70-402c-ab0c-7137ed4eee28.defaultFootprint.mounts.52e844226e796b1c42a9f7f1323ab2f7*%
X51361299Y15459196D03*
%TO.P,,ff6aa628-a694-44a5-a8a3-0151430d2fb0__ee3a696f-ef70-402c-ab0c-7137ed4eee28.defaultFootprint.mounts.a17b4eabb5e4ad17dbcba1ef557d9230*%
X48936430Y14059193D03*
%TO.P,,ff6aa628-a694-44a5-a8a3-0151430d2fb0__ee3a696f-ef70-402c-ab0c-7137ed4eee28.defaultFootprint.mounts.fab9ee6953aa1da2d8a8f965443f1f1b*%
X50148865Y14759195D03*
D12*
%TO.P,,09a0e7c6-09e8-4f5f-a168-32f6329de5e8*%
%TO.N,Net 16*%
X34820100Y752000D03*
%TO.P,,a5439476-9567-42e8-a98d-dd1d1b920f5c*%
X-10010600Y-7822900D03*
%TO.P,,bb00ebbc-a39c-4b97-b0b8-16b0d5d33276*%
X-63249400Y-21211500D03*
%TO.P,,fd2d053a-f7ac-4871-8a0d-b5b83115d03c*%
X39690600Y2293800D03*
%TO.P,,207bfe61-dce0-4f39-be21-0d850f98b387*%
%TO.N,Net 10*%
X62644100Y752000D03*
%TO.P,,a650fbb7-4685-45b4-a32a-ea1cce39617a*%
X54068300Y23764000D03*
%TO.P,,1638bd10-5d5f-4506-beb8-c4c1ae55b9f1*%
%TO.N,Net 71*%
X42265200Y7315000D03*
%TO.P,,2209099c-0e5a-4d5b-9cf4-939196e3f585*%
X32244000Y4399700D03*
%TO.P,,404bc3ff-c97f-45e4-a5f3-c2e36dbf2407*%
%TO.N,Net 76*%
X-67877900Y24069200D03*
%TO.P,,5d9eff5d-6cdb-4574-9c31-92dc91ff9587*%
X-66243600Y29373200D03*
%TO.P,,347703a5-faa3-4a19-8658-400d6e74c78d*%
%TO.N,Net 6*%
X-25865600Y28437800D03*
%TO.P,,8766b817-0d94-4bd6-be7a-57be64c73932*%
X45440200Y18264700D03*
%TO.P,,24d149d7-57ad-41a5-82b0-f953ae1209e0*%
%TO.N,Net 62*%
X-1649200Y-11819900D03*
%TO.P,,3be09ced-8b1d-4957-bfe7-cf21072be47b*%
X35662500Y8430600D03*
%TO.P,,b1f48018-bbba-4b06-ac27-e0fd060498ae*%
X-1649300Y-13281200D03*
%TO.P,,f22ec80d-6ed8-4d7e-8ad4-d7de92d393e7*%
X39690600Y11092800D03*
%TO.P,,18d2af54-33b4-45f5-87c2-a97e42e974ba*%
%TO.N,Net 65*%
X33677400Y6628900D03*
%TO.P,,cd64bbf7-7521-47ff-9578-1a4204109cc2*%
X40675400Y9824400D03*
%TO.P,,0c85706e-6f5b-4ace-a825-248c5702f3e0*%
%TO.N,Net 23*%
X56082500Y1537000D03*
%TO.P,,209adb60-70ca-407f-9789-bdfa4b496d77*%
X513300Y-12898100D03*
%TO.P,,89aff26b-4801-44a3-a411-c7bafe8d9179*%
X3890000Y-11489600D03*
%TO.P,,d6ea0405-654b-4f2f-908e-f6052c9960d9*%
X54754900Y1537000D03*
%TO.P,,f24f021c-63fe-4c0d-a090-e2efc6a7078b*%
X513300Y-11819900D03*
%TO.P,,f9926f4d-3eaa-4ac8-b328-7df214e869a9*%
X2338600Y-10656500D03*
%TO.P,,109b85ae-5a53-46c2-ad8a-7b1b822a3cd9*%
%TO.N,Net 58*%
X-26362000Y26580300D03*
%TO.P,,1455aeec-4d60-4a83-ab93-cb5989ee1ac0*%
X-22245000Y20783900D03*
%TO.P,,20ae2f0a-8201-4819-835e-11af35ee14f1*%
X-24097800Y28314700D03*
%TO.P,,62b8ada6-d1ed-4fe0-bf0a-13137be8c887*%
X-30392800Y29614500D03*
%TO.P,,27aa7de7-8d81-4dd5-a01b-553cb046d2d7*%
%TO.N,Net 61*%
X48378700Y12940400D03*
%TO.P,,2d405da3-1a4f-47e2-a130-dc9189ce5603*%
X2338600Y-11819900D03*
%TO.P,,7ba6208f-4c89-40e1-b6af-6eee6e1d4445*%
X54940400Y10614600D03*
%TO.P,,b1b52176-e2d8-4bcd-9a02-740a3a933d32*%
X52411300Y12590500D03*
%TO.P,,bc4632b3-05e1-47be-9f6a-fbd40574d009*%
X2338600Y-13655800D03*
%TO.P,,cc960b0f-1771-47f2-9335-c8f93f98199f*%
X36834700Y12940600D03*
%TO.P,,01173b48-433f-476a-8512-74e8639255fa*%
%TO.N,Net 27*%
X-22680800Y26391700D03*
%TO.P,,1e3a95c6-b6ca-41fb-b598-488343e0906d*%
X-21374200Y29022400D03*
%TO.P,,29738394-fc21-4af3-a422-23968b129d75*%
X-19610900Y30899500D03*
%TO.P,,299a8220-cd96-43c9-b804-11321be162cb*%
X55934200Y8618600D03*
%TO.P,,984e020b-c8eb-4202-ada3-974d2924432e*%
X-26790700Y27458700D03*
%TO.P,,9d14486d-19d5-44bb-8658-f328cde09b27*%
X-31278200Y26391700D03*
%TO.P,,c5a86da6-6979-45c7-91b2-233b6e3c2928*%
X-24299300Y24977600D03*
%TO.P,,0a2693fc-1c4e-4d04-9c60-861da5498412*%
%TO.N,Net 74*%
X-66034900Y26283200D03*
%TO.P,,2ce54d33-e56a-4cf7-9438-9f621af89eab*%
X-65076900Y28049400D03*
%TO.P,,3bc28328-8f8e-4e96-b1a9-37c6719ebfa3*%
%TO.N,Net 78*%
X-65196400Y27158400D03*
%TO.P,,5868d2df-f482-491e-9e66-38ef89955fd2*%
X-65468600Y22151900D03*
%TO.P,,0738602b-b574-424c-b3fc-b56a168cc8e2*%
%TO.N,Net 21*%
X-2033800Y-18080500D03*
%TO.P,,e76a8095-4262-4a3a-9872-474b38287bad*%
X-4804500Y-6323400D03*
%TO.P,,c8d33193-247a-4046-9014-c7198a180ff6*%
%TO.N,Net 73*%
X-67064600Y24204800D03*
%TO.P,,d1e1df38-5a6d-4427-8834-24f4defabdf7*%
X-66243500Y28488800D03*
%TO.P,,87fc061c-74f9-4937-b412-e6bfcb352be4*%
%TO.N,Net 13*%
X50748200Y-5074800D03*
%TO.P,,e8682695-0348-472d-818d-7dad2f3a248a*%
X46453400Y752000D03*
%TO.P,,04735876-aa60-49a8-b3ef-dafb8d97c6dc*%
%TO.N,Net 42*%
X51981500Y-3542800D03*
%TO.P,,547e7e36-499d-4f71-9a58-2572d818a868*%
X53515600Y-3078000D03*
%TO.P,,72b6f340-5f60-41b5-96ac-f3d03c7e8b14*%
%TO.N,Net 72*%
X-62916400Y21697800D03*
%TO.P,,99816819-5a7b-44f3-a660-e0d20957fe1f*%
X-60966200Y22472700D03*
%TO.P,,1fd422f1-5afb-405b-9c25-fb885ba1cce5*%
%TO.N,Net 18*%
X32556900Y5196200D03*
%TO.P,,fcb114d4-3c1e-416c-8a87-1015aa86ab0b*%
X41411300Y8074600D03*
%TO.P,,77028e07-86d5-4c74-86b8-4fccadde9762*%
%TO.N,Net 51*%
X42485100Y-12677400D03*
%TO.P,,8a8af2b2-8879-4748-8847-2b7529634d4f*%
X52625500Y-13650800D03*
%TO.P,,9a0ee4e0-4754-4aaf-bff0-f1295a4e016c*%
X41134600Y-11654800D03*
%TO.P,,9bb1d60f-9d26-468d-805d-ebec73a94ccf*%
X38212400Y-14387700D03*
%TO.P,,a41bcef6-0361-49d1-a9da-00d1fe06c176*%
X38904600Y-11654800D03*
%TO.P,,f469767e-8128-4d27-9fcb-dea7d323cce4*%
X51783800Y-13035700D03*
%TO.P,,5a9c113c-5fad-4d20-ad38-1092a578d5a8*%
%TO.N,Net 67*%
X-1048100Y-18080500D03*
%TO.P,,5cf0ab72-b0e8-468d-bb1b-498fc37da44e*%
X2450800Y-18080500D03*
%TO.P,,87bbf0b2-294f-4ec8-87a5-30d5eadfeee2*%
%TO.N,Net 37*%
X42900200Y4399600D03*
%TO.P,,ff81427f-6938-4db5-b12d-df1d49d8add8*%
X34820100Y-755000D03*
%TO.P,,0442ff68-1001-4515-90e7-06a3bb2211e8*%
%TO.N,Net 15*%
X-2733400Y-12054600D03*
%TO.P,,af7d761e-ee60-42c6-9816-10536eb24066*%
X57911700Y1306800D03*
%TO.P,,cd2aff56-552a-4c00-a823-26f61b872cb8*%
X-2203800Y-10656400D03*
%TO.P,,d0039dc1-28ca-4cba-a84f-90ac8649071e*%
X41957900Y-6323400D03*
%TO.P,,ec1e2995-e400-493b-b83d-c7534b5ac8e9*%
X-2627500Y-12898200D03*
%TO.P,,f4ac26bd-d357-4f15-91a3-4f859b83a5a1*%
X54265600Y3203700D03*
%TO.P,,0264205a-791d-4c03-94b2-af9399f566dc*%
%TO.N,Net 19*%
X42900200Y2488600D03*
%TO.P,,c98ae921-305c-485b-ae1e-21db8f3bbef9*%
X33677400Y-3542800D03*
%TO.P,,307e88f4-dc42-43b6-a702-2edeb4db613b*%
%TO.N,Net 57*%
X-33405100Y27781100D03*
%TO.P,,7989da36-5e86-4160-8c86-af81154e94c0*%
X-18405500Y26391700D03*
%TO.P,,cb6df5cb-6e1d-452c-b854-d627b1a8e27e*%
X-19852000Y22218200D03*
%TO.P,,6775c09e-24aa-4cb4-96bd-0e9dbbb39c8e*%
%TO.N,Net 68*%
X65882100Y1306800D03*
%TO.P,,bca37ccc-f576-4123-bd04-3af01d74a4e4*%
X56268000Y-196400D03*
%TO.P,,aaf50233-7489-4396-80bd-48307b52cbea*%
%TO.N,Net 64*%
X-7086100Y-6795800D03*
%TO.P,,da705816-ed50-4345-ae5b-3f81a8929b4f*%
X-5428200Y-13655800D03*
%TO.P,,a807c128-9795-4d20-8ff9-5f4ebaa75956*%
%TO.N,Net 75*%
X-66481600Y25019000D03*
%TO.P,,fb9c3f76-2ef2-4bff-b14f-54c896d48e43*%
X-66034900Y27766800D03*
%TO.P,,99a22899-0baf-435b-b480-7ce225c449d8*%
%TO.N,Net 12*%
X34327800Y7315000D03*
%TO.P,,ee16f9e1-d42b-47ec-b89a-e792100960ad*%
X40098700Y10260700D03*
%TO.P,,0a2b44d0-4c31-4e17-ac8a-650aab2b7d5e*%
%TO.N,GND*%
X6935900Y29968100D03*
%TO.P,,1c11753f-ba3c-4bc2-be14-7363f8c25c7e*%
X49391700Y-20658400D03*
%TO.P,,48bce387-0c37-4954-a6b6-4bf429cc0ca7*%
X46770300Y-18482000D03*
%TO.P,,5497b025-87f2-4bd4-82bf-cf54279d495f*%
X47263500Y-15662600D03*
%TO.P,,6a2c3106-476c-41b1-8704-f20712b56d6d*%
X7551200Y27698400D03*
%TO.P,,6aa23dd5-b5a5-4b2c-a172-eb0cbc48312c*%
X24964800Y27079700D03*
%TO.P,,7f1e0115-abea-4611-8826-6c1064e935ae*%
X37821500Y11423500D03*
%TO.P,,7f533269-2566-4ae7-9c2f-252f6400a4bb*%
X25763800Y27761800D03*
%TO.P,,a038efce-1679-48d2-9dd2-f55c39d1bf0d*%
X51181200Y-16412600D03*
%TO.P,,a1b2cd5e-ac41-4acb-aaac-2dd1f3635b58*%
X44024200Y-18396100D03*
%TO.P,,b80b3862-2a3c-44e5-8999-8d92642536fd*%
X52265600Y-15108900D03*
%TO.P,,bb25d5dc-cc56-4c14-9856-18a8bdec11ac*%
X42575300Y18264700D03*
%TO.P,,bbfc730c-79c0-46ee-9314-bfb150350888*%
X56267900Y3350600D03*
%TO.P,,c2a06121-aa2e-44ef-a1a9-41b443d0512b*%
X51868600Y11714500D03*
%TO.P,,e0b6dfa5-3b66-4182-83f9-cfb7181fddd4*%
X-8884000Y-17653100D03*
%TO.P,,e6c870e3-3ee4-422e-a94c-332fd1cf1eff*%
X42817200Y-15662600D03*
%TO.P,,f008b36e-c631-4d32-8d68-21d83ef20b9c*%
X50076100Y-20224400D03*
%TO.P,,6d486441-d8c5-414f-bf81-0cfa98cb07fc.via3.7*%
X27750000Y22650000D03*
%TO.P,,6d486441-d8c5-414f-bf81-0cfa98cb07fc.via2.5*%
X-2250000Y7650000D03*
%TO.P,,6d486441-d8c5-414f-bf81-0cfa98cb07fc.via2.4*%
X-17250000Y7650000D03*
%TO.P,,6d486441-d8c5-414f-bf81-0cfa98cb07fc.via2.2*%
X-47250000Y7650000D03*
%TO.P,,6d486441-d8c5-414f-bf81-0cfa98cb07fc.via2.1*%
X-62250000Y7650000D03*
%TO.P,,6d486441-d8c5-414f-bf81-0cfa98cb07fc.via1.4*%
X-17250000Y-7350000D03*
%TO.P,,6d486441-d8c5-414f-bf81-0cfa98cb07fc.via1.2*%
X-47250000Y-7350000D03*
%TO.P,,6196e16c-7979-42d9-ad76-d445ddcc023d*%
%TO.N,Net 60*%
X47612100Y20464400D03*
%TO.P,,8356cf02-b333-4ecf-9e76-3fdb20e3ea38*%
X36633700Y32094000D03*
%TO.P,,a681c5ee-d869-4702-9617-cfb630c6daa8*%
X37059000Y30274800D03*
%TO.P,,fb35e27d-4a78-4c9e-b249-daa247fc444f*%
X-33979700Y26877400D03*
%TO.P,,32ca3a93-bba3-4c95-ab01-a7d48099238a*%
%TO.N,Net 59*%
X-23899800Y25684700D03*
%TO.P,,432c190e-7c6c-4629-a38a-289f299b0d74*%
X-24649800Y30899500D03*
%TO.P,,5c229038-f2dd-401b-b546-b4d1952d9cb2*%
X-21374200Y20783800D03*
%TO.P,,8c6fb8ec-4a97-4d96-9b68-1593b071ff7f*%
X-22461600Y27960600D03*
%TO.P,,9ecb8053-2c34-42dd-aa87-3024201c3ca2*%
X-25865600Y27601100D03*
%TO.P,,0ec2af76-9b66-48f3-a4a8-54f28df96267*%
%TO.N,Net 3*%
X-30392800Y21157500D03*
%TO.P,,1eaf378b-8dbd-49d5-8fd8-018d2d19bfe8*%
X59350200Y-2180600D03*
%TO.P,,297875d3-6ab7-425d-822c-8615cb265d7d*%
X39690600Y14059200D03*
%TO.P,,29ece115-5ec5-4e1a-aa3f-630b2d4a187a*%
X39690600Y12119600D03*
%TO.P,,6cae4a02-7858-4adb-abfa-c0b26730a22e*%
X44024200Y-20353900D03*
%TO.P,,fb6fff71-3ec6-4a7f-8d99-817b3e6bc926*%
X57367800Y495100D03*
%TO.P,,1d9e1414-e1fb-4408-8873-1aea5c839521*%
%TO.N,Net 44*%
X50958500Y-6132300D03*
%TO.P,,56c795dd-ded3-4d13-b249-e762881859f4*%
X39471200Y-14387600D03*
%TO.P,,dbd85782-9d4a-4d35-82c0-c87f9340991b*%
X39471100Y-14387700D03*
%TO.P,,42cda95b-14da-48be-890f-8489d13776ef*%
%TO.N,Net 20*%
X-27484600Y30341100D03*
%TO.P,,5d5dd051-ccc1-4574-aa30-766a32dbaf3d*%
X46933700Y20113400D03*
%TO.P,,bce8f571-2969-44a2-8e6b-e7d608574577*%
X-27484600Y29839900D03*
%TO.P,,d414dfef-8bc4-4ba2-a1da-e591f79817a4*%
X-19610900Y27698300D03*
%TO.P,,d9c929ea-34a2-4451-8b3c-4ed1978d07de*%
X-20020100Y29336000D03*
%TO.P,,e7371f10-f576-454d-a515-931f4f247937*%
X-17535200Y29336000D03*
%TO.P,,0ba9d843-8043-47c1-9b1d-99bc8f3e4457*%
%TO.N,Net 36*%
X33125800Y5935800D03*
%TO.P,,26f2aa59-ac57-46ec-8b49-6b016da470f4*%
X40675400Y9007900D03*
%TO.P,,12e07754-f14d-46d7-a15f-905681d5b5b7*%
%TO.N,Net 77*%
X29536100Y10067000D03*
%TO.P,,3fff2b6b-033d-4edf-90a1-02a1dcd1c0d2*%
X38148800Y21305200D03*
%TO.P,,6a49b871-8b5b-481b-bc09-44de7409ae4a*%
X45743000Y26038200D03*
%TO.P,,82bc34a2-53d0-418d-8a59-93a35e94fb8b*%
X-66034900Y21697800D03*
%TO.P,,b1025a6d-dae5-47dd-9293-a8402c41f395*%
X28208900Y15914700D03*
%TO.P,,b40ca186-10e5-46f4-afa8-69a277239a76*%
X-10498200Y-755300D03*
%TO.P,,bf0eb397-f3b3-40c5-9114-d00cb7dcbd01*%
X-64320600Y27320000D03*
%TO.P,,f4b771db-83cd-4f50-9e91-cf8f109ef2bf*%
X53531600Y19364500D03*
%TO.P,,fab9fb1b-7903-4550-9c21-e9bba4a50dcb*%
X27166000Y4620600D03*
%TO.P,,6e712278-4d87-4aad-b0ad-7e6f324caa9b*%
%TO.N,Net 63*%
X-63696400Y19811800D03*
%TO.P,,b6aad63b-2f7e-43be-a0c7-47b92a9be279*%
X-64320600Y20436000D03*
%TO.P,,0323dc07-2360-4930-84d9-41fb746d41df*%
%TO.N,Net 38*%
X-67596100Y22977800D03*
%TO.P,,f8fb2695-6bea-46c2-a3f6-f58f67aefdeb*%
X-68687500Y25019100D03*
%TO.P,,0bb2d42d-cd1d-4613-8ded-d1548f42c05e*%
%TO.N,Net 39*%
X37608500Y15118100D03*
%TO.P,,3aef87f0-7e20-4b50-877e-3518ec160918*%
X36373800Y-18703000D03*
%TO.P,,53003c4b-45ff-46d7-9773-f4d178b73864*%
X47612100Y30899500D03*
%TO.P,,612118c2-8d54-4ec9-b86e-2c9f77602be6*%
X41779400Y-19976000D03*
%TO.P,,63e7ded5-23ba-4c64-979f-1f87c45521b8*%
X-64196400Y20922800D03*
%TO.P,,a2e25e8b-db38-4693-85f8-e128b4206fee*%
X38904600Y-9610800D03*
%TO.P,,b65aa16b-f548-4922-b1f7-fde41a5b7604*%
X41779400Y-19975700D03*
%TO.P,,cc40ffb8-15a3-4e70-83b8-ee0df5701ffd*%
X-66973200Y22977800D03*
%TO.P,,cfcc94f9-2960-459e-a499-888820702cf8*%
X41779400Y-19975700D03*
%TO.P,,e4262e91-97c3-4149-8109-5f20bcfdb5dc*%
X-20020100Y31577900D03*
%TO.P,,f00835aa-4bee-4063-806c-f1905ca385f0*%
X40533700Y-16011200D03*
%TO.P,,f1697550-c64e-4953-b655-4bebb92cc8c9*%
X38799200Y14675100D03*
%TO.P,,13ed02ec-455c-4228-9391-f37b0673b352*%
%TO.N,Net 52*%
X54995000Y-15108900D03*
%TO.P,,2765ba84-73cf-4e7b-bcce-b3ba41b84a0b*%
X37812400Y-18310700D03*
%TO.P,,3481bf63-ebb2-4752-9003-f489efb7f34d*%
X34703400Y-18310700D03*
%TO.P,,42e6fb36-b780-480a-ad2b-f9716734e04a*%
X47423800Y-16726300D03*
%TO.P,,8fdf950a-6024-4205-b211-1a80856d01a7*%
X35690200Y-18310500D03*
%TO.P,,95f910c8-75bc-4a4d-bc3f-551c1527a05b*%
X37812500Y-18310700D03*
%TO.P,,d602e7bc-ce25-48e9-933c-900972f0a96d*%
X46770300Y-16012600D03*
%TO.P,,d78f01b3-265d-45cb-a132-82fa5d007254*%
X51461500Y-13651000D03*
%TO.P,,efc4761c-483a-4a34-b530-6b625bfd6c42*%
X48124100Y-17040300D03*
%TO.P,,6a511f93-fd61-4c61-8898-c57759339e15*%
%TO.N,Net 5*%
X43031400Y-18063400D03*
%TO.P,,a04df105-bec7-4903-a160-04d1c57021e6*%
X48342100Y-18396100D03*
%TO.P,,87e76f1a-bbef-4d27-a374-b311089021c5*%
%TO.N,Net 14*%
X53265600Y-2314900D03*
%TO.P,,b7399197-4958-4fdd-98c9-2a5ee51927ed*%
X48425000Y-9000D03*
%TO.P,,37537009-a4f8-4931-8f61-1dbcad17454c*%
%TO.N,Net 78*%
X-53570900Y28488800D03*
%TO.P,,9987440b-d09e-4705-a4b2-11d0b259b0c2*%
X-10498200Y153500D03*
%TO.P,,7f876ed4-5d2a-47b2-97f9-f34e285e5e68*%
X25763800Y4620600D03*
%TO.P,,3feda0d1-557f-4bf8-b74f-7f4a8a073275*%
X28838700Y10260700D03*
%TO.P,,4525478f-a874-43e8-a247-0ec28674226d*%
X27166000Y16113900D03*
%TO.P,,08257dea-701b-43da-8fb9-d57a1e543a19*%
X38148800Y22434200D03*
%TO.P,,db9631fe-1936-44d3-8d9b-8d64b84f3657*%
X44805200Y26659300D03*
%TO.P,,1298b030-e4f5-4fb4-8411-830793de793f*%
X53531700Y20464400D03*
%TO.P,,a3e33d1f-d405-4738-a575-6775c32efd51*%
%TO.N,Net 74*%
X-53381400Y29178800D03*
%TO.P,,abf65b13-2daf-4e4c-9a58-b1828460fd2e*%
X-10498200Y1172400D03*
%TO.P,,1e5e4a2c-e2ce-4b4d-90e0-10a488f64d1a*%
X24306600Y4620600D03*
%TO.P,,615d7022-d152-4954-9059-f295dbb20807*%
X27744700Y10260700D03*
%TO.P,,03ffb117-bdec-4e0d-9a56-3a4b3cbaf375*%
X26337700Y16113900D03*
%TO.P,,3f2eca08-7990-43cf-a66d-087ac518702b*%
X36834700Y22434300D03*
%TO.P,,10774c68-c5f2-4fd8-b056-8ebd9583d7e4*%
X44340400Y27166300D03*
%TO.P,,aeb478c1-184b-4b14-9afb-257f777de820*%
X52061300Y22928000D03*
%TO.P,,d3ecdca7-add6-4646-983b-a4f29fee8fa5*%
X56785600Y21030600D03*
%TO.P,,c0eb7347-f173-4086-b3e2-9c79659d0a3f*%
X57420600Y19364600D03*
%TO.P,,7c75814e-2877-432e-9197-48be01a7bf2e*%
%TO.N,Net 75*%
X-10498200Y1880000D03*
%TO.P,,d5a61dac-4fd8-4592-af47-ec8b190b0d5d*%
X23598200Y4620600D03*
%TO.P,,51188210-8f21-44dd-beb8-118ab719e1e9*%
X26586200Y10260700D03*
%TO.P,,c19e5b9f-6d36-4940-8196-c38963d08644*%
X25419700Y15914700D03*
%TO.P,,990d52d3-0b64-4fea-b831-94b99ad87e67*%
X35999000Y23126100D03*
%TO.P,,81a98cab-7d1f-4e32-bdc6-617d5c4fa82b*%
X44170100Y27761800D03*
%TO.P,,c02cb0a4-1612-435a-bba1-8f751c28804d*%
X52061500Y23981300D03*
%TO.P,,963c5e86-b9d2-4e0b-bd57-0c64b95fcb13*%
X55515800Y23126100D03*
%TO.P,,a2b548ff-3dc7-4e8e-bff6-5fcc215f1679*%
X57751100Y18443300D03*
%TO.P,,882d3158-011d-4edf-bd72-0340f1c4bc9b*%
%TO.N,Net 73*%
X-10498200Y2949300D03*
%TO.P,,b272704a-5ddf-4ace-ba12-7e3bf4540687*%
X22313400Y4620800D03*
%TO.P,,4dcddfbc-753c-4f3e-b85e-f90619f16122*%
X25405900Y10260700D03*
%TO.P,,925935f8-07df-47bd-be76-735593dd4685*%
X24306600Y15914700D03*
%TO.P,,37c120b9-2608-4591-97e9-7e8be5340c69*%
X34820100Y23216800D03*
%TO.P,,e7318236-ee91-4310-a64f-76c5133e38e7*%
X43053500Y28313800D03*
%TO.P,,e4789ed9-dfdb-41a4-bfef-9c89ad470255*%
X45440200Y29816900D03*
%TO.P,,6d486441-d8c5-414f-bf81-0cfa98cb07fc.via.island.56*%
%TO.N,GND*%
X48554900Y8694700D03*
%TO.P,,6d486441-d8c5-414f-bf81-0cfa98cb07fc.via.island.55*%
X51868500Y6268500D03*
%TO.P,,6d486441-d8c5-414f-bf81-0cfa98cb07fc.via.island.54*%
X49616100Y1685400D03*
%TO.P,,6d486441-d8c5-414f-bf81-0cfa98cb07fc.via.island.53*%
X54470700Y9340500D03*
%TO.P,,6d486441-d8c5-414f-bf81-0cfa98cb07fc.via.island.52*%
X60956000Y2164300D03*
%TO.P,,6d486441-d8c5-414f-bf81-0cfa98cb07fc.via.island.51*%
X48896500Y17088200D03*
%TO.P,,6d486441-d8c5-414f-bf81-0cfa98cb07fc.via.island.50*%
X59343500Y11936400D03*
%TO.P,,6d486441-d8c5-414f-bf81-0cfa98cb07fc.via.island.49*%
X63555800Y7313000D03*
%TO.P,,6d486441-d8c5-414f-bf81-0cfa98cb07fc.via.island.48*%
X66775400Y3449700D03*
%TO.P,,6d486441-d8c5-414f-bf81-0cfa98cb07fc.via.island.47*%
X-31621500Y30653100D03*
%TO.P,,6d486441-d8c5-414f-bf81-0cfa98cb07fc.via.island.46*%
X-34366600Y30671300D03*
%TO.P,,6d486441-d8c5-414f-bf81-0cfa98cb07fc.via.island.45*%
X-37317400Y31007200D03*
%TO.P,,6d486441-d8c5-414f-bf81-0cfa98cb07fc.via.island.44*%
X53258500Y28388700D03*
%TO.P,,6d486441-d8c5-414f-bf81-0cfa98cb07fc.via.island.43*%
X35953700Y27727800D03*
%TO.P,,6d486441-d8c5-414f-bf81-0cfa98cb07fc.via.island.42*%
X41060300Y29014300D03*
%TO.P,,6d486441-d8c5-414f-bf81-0cfa98cb07fc.via.island.41*%
X43213100Y21081500D03*
%TO.P,,6d486441-d8c5-414f-bf81-0cfa98cb07fc.via.island.40*%
X45916900Y23815400D03*
%TO.P,,6d486441-d8c5-414f-bf81-0cfa98cb07fc.via.island.39*%
X48858300Y22274300D03*
%TO.P,,6d486441-d8c5-414f-bf81-0cfa98cb07fc.via.island.38*%
X49034500Y29966500D03*
%TO.P,,6d486441-d8c5-414f-bf81-0cfa98cb07fc.via.island.37*%
X-28680000Y31325700D03*
%TO.P,,6d486441-d8c5-414f-bf81-0cfa98cb07fc.via.island.36*%
X46429000Y28892300D03*
%TO.P,,6d486441-d8c5-414f-bf81-0cfa98cb07fc.via.island.35*%
X50931700Y-2149000D03*
%TO.P,,6d486441-d8c5-414f-bf81-0cfa98cb07fc.via.island.34*%
X-72394100Y15684400D03*
%TO.P,,6d486441-d8c5-414f-bf81-0cfa98cb07fc.via.island.33*%
X-5524300Y17614700D03*
%TO.P,,6d486441-d8c5-414f-bf81-0cfa98cb07fc.via.island.32*%
X15050300Y-18063900D03*
%TO.P,,6d486441-d8c5-414f-bf81-0cfa98cb07fc.via.island.31*%
X-46428200Y26882800D03*
%TO.P,,6d486441-d8c5-414f-bf81-0cfa98cb07fc.via.island.30*%
X28781000Y-452400D03*
%TO.P,,6d486441-d8c5-414f-bf81-0cfa98cb07fc.via.island.29*%
X-14038300Y15243300D03*
%TO.P,,6d486441-d8c5-414f-bf81-0cfa98cb07fc.via.island.28*%
X-51701700Y32404600D03*
%TO.P,,6d486441-d8c5-414f-bf81-0cfa98cb07fc.via.island.27*%
X43725600Y-1108500D03*
%TO.P,,6d486441-d8c5-414f-bf81-0cfa98cb07fc.via.island.26*%
X5523500Y-14402400D03*
%TO.P,,6d486441-d8c5-414f-bf81-0cfa98cb07fc.via.island.25*%
X37028400Y-8777400D03*
%TO.P,,6d486441-d8c5-414f-bf81-0cfa98cb07fc.via.island.24*%
X-9052700Y-5418000D03*
%TO.P,,6d486441-d8c5-414f-bf81-0cfa98cb07fc.via.island.23*%
X-15408200Y-16037100D03*
%TO.P,,6d486441-d8c5-414f-bf81-0cfa98cb07fc.via.island.22*%
X-9761500Y-10390500D03*
%TO.P,,6d486441-d8c5-414f-bf81-0cfa98cb07fc.via.island.21*%
X-5108200Y280700D03*
%TO.P,,6d486441-d8c5-414f-bf81-0cfa98cb07fc.via.island.20*%
X33011900Y-17403700D03*
%TO.P,,6d486441-d8c5-414f-bf81-0cfa98cb07fc.via.island.19*%
X37273100Y17942100D03*
%TO.P,,6d486441-d8c5-414f-bf81-0cfa98cb07fc.via.island.18*%
X-21772400Y14447800D03*
%TO.P,,6d486441-d8c5-414f-bf81-0cfa98cb07fc.via.island.17*%
X29638900Y7772300D03*
%TO.P,,6d486441-d8c5-414f-bf81-0cfa98cb07fc.via.island.16*%
X-33511300Y23643000D03*
%TO.P,,6d486441-d8c5-414f-bf81-0cfa98cb07fc.via.island.15*%
X-68888200Y22205600D03*
%TO.P,,6d486441-d8c5-414f-bf81-0cfa98cb07fc.via.island.14*%
X-59634100Y25766900D03*
%TO.P,,6d486441-d8c5-414f-bf81-0cfa98cb07fc.via.island.13*%
X-26609600Y19321900D03*
%TO.P,,6d486441-d8c5-414f-bf81-0cfa98cb07fc.via.island.12*%
X35599500Y15328400D03*
%TO.P,,6d486441-d8c5-414f-bf81-0cfa98cb07fc.via.island.11*%
X34185000Y2921800D03*
%TO.P,,6d486441-d8c5-414f-bf81-0cfa98cb07fc.via.island.10*%
X-1356000Y22843900D03*
%TO.P,,6d486441-d8c5-414f-bf81-0cfa98cb07fc.via.island.9*%
X37630500Y2550000D03*
%TO.P,,6d486441-d8c5-414f-bf81-0cfa98cb07fc.via.island.8*%
X49349800Y-4194500D03*
%TO.P,,6d486441-d8c5-414f-bf81-0cfa98cb07fc.via.island.7*%
X-68515100Y-21415200D03*
%TO.P,,6d486441-d8c5-414f-bf81-0cfa98cb07fc.via.island.6*%
X36623500Y-21565500D03*
%TO.P,,6d486441-d8c5-414f-bf81-0cfa98cb07fc.via.island.5*%
X37630500Y-5100500D03*
%TO.P,,6d486441-d8c5-414f-bf81-0cfa98cb07fc.via.island.4*%
X-55422200Y27150000D03*
%TO.P,,6d486441-d8c5-414f-bf81-0cfa98cb07fc.via.island.3*%
X21381700Y2006300D03*
%TO.P,,6d486441-d8c5-414f-bf81-0cfa98cb07fc.via.island.2*%
X3020400Y-9601200D03*
%TO.P,,6d486441-d8c5-414f-bf81-0cfa98cb07fc.via.island.1*%
X-2179100Y-8435900D03*
%TO.P,,6d486441-d8c5-414f-bf81-0cfa98cb07fc.via.island.0*%
X-5945000Y-11521500D03*
%TD*%
D17*
%TO.N,Net (P1)*%
X-23284634Y6424438D02*
X-23284917Y6424438D01*
X-21441616Y9699607D02*
X-21441899Y9699607D01*
X-20657933Y9072046D02*
X-20664155Y9065824D01*
X-23284634Y6424438D02*
X-23284917Y6424438D01*
X-20664155Y9065824D02*
X-20696399Y9065824D01*
X-20705450Y9065824D02*
X-20696399Y9065824D01*
X-23294322Y6435681D02*
X-20657933Y9072046D01*
X-21441616Y9699607D02*
X-21441899Y9699607D01*
X-21489629Y9729094D02*
X-21489912Y9729094D01*
X-21489629Y9729094D02*
X-21489912Y9729094D01*
X-20706794Y9064481D02*
X-20705521Y9065753D01*
D18*
%TO.N,Net 16*%
X38148800Y752000D02*
X39690600Y2293800D01*
X-23399200Y-21211500D02*
X-10010600Y-7822900D01*
X34820100Y752000D02*
X38148800Y752000D01*
X-63249400Y-21211500D02*
X-23399200Y-21211500D01*
D19*
%TO.N,Net 10*%
X62644100Y752000D02*
X62644100Y3324600D01*
X56268000Y21564200D02*
X54068200Y23764000D01*
X62644000Y3324500D02*
X56268000Y9700500D01*
X56268000Y9700600D02*
X56268000Y21564200D01*
X54068300Y23764000D02*
X54068500Y23764200D01*
%TO.N,Net 71*%
X39349800Y4399600D02*
X42265200Y7315000D01*
X32244000Y4399700D02*
X39349800Y4399700D01*
X42265200Y7315000D02*
X42265400Y7315200D01*
D18*
%TO.N,Net 76*%
X-67877900Y24069200D02*
X-67877900Y24840400D01*
X-67064600Y25653800D02*
X-67064600Y28552200D01*
X-67877800Y24840500D02*
X-67064600Y25653700D01*
X-67064600Y28552200D02*
X-66243600Y29373200D01*
%TO.N,Net 6*%
X-23949200Y26877400D02*
X-24305200Y26877400D01*
X-18090600Y30274900D02*
X-22680800Y25684700D01*
D19*
X44635000Y18264800D02*
X43535200Y19364600D01*
X45440200Y18264700D02*
X44635000Y18264700D01*
D18*
X-22680800Y25684700D02*
X-22756400Y25684700D01*
D19*
X43535200Y19364600D02*
X41275000Y19364600D01*
X41274900Y19364600D02*
X30364700Y30274800D01*
D18*
X-24305200Y26877400D02*
X-25865600Y28437800D01*
X-22756400Y25684700D02*
X-23949200Y26877500D01*
X30364700Y30274800D02*
X-18090700Y30274800D01*
D19*
%TO.N,Net 62*%
X39690600Y11092800D02*
X38324600Y11092800D01*
X35662400Y8430600D02*
X35662600Y8430800D01*
X38324700Y11092800D02*
X35662500Y8430600D01*
X-1649100Y-11819900D02*
X-1649300Y-13281300D01*
%TO.N,Net 65*%
X37479800Y6628900D02*
X40675400Y9824500D01*
X33677400Y6628900D02*
X37479800Y6628900D01*
%TO.N,Net 23*%
X513300Y-11819900D02*
X513300Y-12898100D01*
X56082500Y1537000D02*
X54754900Y1537000D01*
X3890000Y-11489600D02*
X3171600Y-11489600D01*
X3171600Y-11489500D02*
X2338600Y-10656500D01*
D18*
%TO.N,Net 58*%
X-22245000Y20783900D02*
X-22245000Y22463300D01*
X-25397600Y29614500D02*
X-24097800Y28314700D01*
X-22245000Y22463300D02*
X-26362000Y26580300D01*
X-30392800Y29614500D02*
X-25397600Y29614500D01*
D19*
%TO.N,Net 61*%
X54387300Y10614500D02*
X52411300Y12590500D01*
X54940400Y10614600D02*
X54387200Y10614600D01*
X2338600Y-11819800D02*
X2338600Y-13655800D01*
X39351700Y18712700D02*
X39351700Y17532500D01*
X48378700Y13387500D02*
X43053500Y18712700D01*
X48378700Y12940400D02*
X48378700Y13387600D01*
X39351700Y17532400D02*
X36834700Y15015400D01*
X36834700Y15015400D02*
X36834700Y12940600D01*
X43053500Y18712700D02*
X39351700Y18712700D01*
D18*
%TO.N,Net 27*%
X-24299300Y24977500D02*
X-26780500Y27458700D01*
X52523000Y24486600D02*
X52523000Y22357400D01*
X-21374200Y27698300D02*
X-22680800Y26391700D01*
X-26780500Y27458700D02*
X-26790700Y27458700D01*
X52523000Y22357400D02*
X55515800Y19364600D01*
X55515800Y9037000D02*
X55934200Y8618600D01*
X55515800Y19364600D02*
X55515800Y9037000D01*
X-19610900Y30899500D02*
X46110100Y30899500D01*
X-26790700Y27458700D02*
X-30211100Y27458700D01*
X46110200Y30899500D02*
X52523000Y24486700D01*
X-30211200Y27458700D02*
X-31278200Y26391700D01*
X-21374200Y29022400D02*
X-21374200Y27698400D01*
%TO.N,Net 74*%
X-66034900Y27091400D02*
X-65076900Y28049400D01*
X-66034900Y26283200D02*
X-66034900Y27091400D01*
%TO.N,Net 78*%
X-65196400Y27158300D02*
X-65196200Y27158500D01*
X-65468600Y26886200D02*
X-65196400Y27158400D01*
X-65468600Y22152000D02*
X-65468600Y26886200D01*
D19*
%TO.N,Net 21*%
X-4804500Y-6323400D02*
X-4804500Y-15309800D01*
X-4804500Y-15309900D02*
X-2033900Y-18080500D01*
D18*
%TO.N,Net 73*%
X-67064600Y25013800D02*
X-67064600Y25202600D01*
X-66682900Y28049400D02*
X-66243500Y28488800D01*
X-67064600Y24204800D02*
X-67064600Y25013800D01*
X-67064600Y25202600D02*
X-66739400Y25527800D01*
X-66682800Y27966400D02*
X-66682800Y28049400D01*
X-66739400Y25527800D02*
X-66739400Y27909800D01*
X-66739400Y27909800D02*
X-66682800Y27966400D01*
D19*
%TO.N,Net 13*%
X50748200Y-5074800D02*
X50748200Y-3542800D01*
X50748200Y-3542800D02*
X46453400Y752000D01*
%TO.N,Net 42*%
X53368500Y-3078000D02*
X52281100Y-4165400D01*
X52281100Y-4165400D02*
X52281100Y-3842400D01*
X53515600Y-3078000D02*
X53368600Y-3078000D01*
X52281100Y-3842400D02*
X51981500Y-3542800D01*
D18*
%TO.N,Net 72*%
X-60966300Y22472700D02*
X-62141500Y22472700D01*
X-62141600Y22472700D02*
X-62916400Y21697900D01*
D19*
%TO.N,Net 18*%
X38532900Y5196200D02*
X41411300Y8074600D01*
X32556900Y5196200D02*
X38532900Y5196200D01*
%TO.N,Net 51*%
X52399000Y-13650800D02*
X51783800Y-13035600D01*
X38212400Y-14387700D02*
X38212400Y-12347100D01*
X52625500Y-13650800D02*
X52398900Y-13650800D01*
X41134600Y-11654800D02*
X41462400Y-11654800D01*
X38212400Y-12347000D02*
X38904600Y-11654800D01*
X41462500Y-11654800D02*
X42485100Y-12677400D01*
D18*
%TO.N,Net 67*%
X2450800Y-18080500D02*
X2240400Y-18080500D01*
X2240400Y-18080500D02*
X1963200Y-18357700D01*
X-770900Y-18357700D02*
X-1048100Y-18080500D01*
X1963200Y-18357600D02*
X-771000Y-18357600D01*
%TO.N,Net 37*%
X34820100Y-755000D02*
X37745700Y-755000D01*
X37745600Y-755000D02*
X42900200Y4399600D01*
%TO.N,Net 15*%
X-2733400Y-12792200D02*
X-2627400Y-12898200D01*
X41957900Y-6323400D02*
X2129100Y-6323400D01*
X54729000Y2740300D02*
X54265600Y3203700D01*
X56478100Y2740300D02*
X54728900Y2740300D01*
X-2733400Y-12054600D02*
X-2733400Y-12792200D01*
X57911700Y1306800D02*
X56478100Y2740400D01*
X2129200Y-6323400D02*
X-2203800Y-10656400D01*
D19*
%TO.N,Net 19*%
X33677400Y-3542800D02*
X36868800Y-3542800D01*
X36868800Y-3542800D02*
X42900200Y2488600D01*
D18*
%TO.N,Net 57*%
X-19852100Y22218100D02*
X-19851900Y22218300D01*
X-25415000Y27781100D02*
X-19852000Y22218100D01*
X-33405000Y27781100D02*
X-25415000Y27781100D01*
X-18405500Y26391700D02*
X-18405500Y23664700D01*
X-18405600Y23664600D02*
X-19852000Y22218200D01*
D19*
%TO.N,Net 68*%
X56267900Y-196400D02*
X64378900Y-196400D01*
X64378900Y-196400D02*
X65882100Y1306800D01*
%TO.N,Net 64*%
X-5428200Y-13811800D02*
X-5428200Y-13655800D01*
X-7086100Y-12153900D02*
X-5428200Y-13811700D01*
X-7086100Y-6795800D02*
X-7086100Y-12153800D01*
D18*
%TO.N,Net 75*%
X-66481600Y27320000D02*
X-66034800Y27766800D01*
X-66481600Y25019000D02*
X-66481600Y27320000D01*
D19*
%TO.N,Net 12*%
X34327800Y7315000D02*
X37153000Y7315000D01*
X37153100Y7315000D02*
X40098700Y10260600D01*
%TO.N,GND*%
X47612100Y-16011200D02*
X47263500Y-15662600D01*
X56267900Y7315100D02*
X51868500Y11714500D01*
X49642100Y-20658400D02*
X50076100Y-20224400D01*
X42817200Y-17162400D02*
X42817200Y-15662600D01*
X47612100Y-16162600D02*
X47612100Y-16011200D01*
X46770300Y-17004400D02*
X47612100Y-16162600D01*
D18*
X6935900Y29968100D02*
X6935900Y28313700D01*
D19*
X44024200Y-18369400D02*
X42817200Y-17162400D01*
X49391700Y-20658400D02*
X49642100Y-20658400D01*
X24964800Y27079700D02*
X25081600Y27079700D01*
X44024200Y-18396100D02*
X44024200Y-18369300D01*
X52265600Y-15328200D02*
X51181200Y-16412600D01*
X-13287300Y11210400D02*
X37608500Y11210400D01*
X56267900Y7315100D02*
X53524900Y7315100D01*
D18*
X6935900Y28313800D02*
X7551300Y27698400D01*
D19*
X37608500Y11210400D02*
X37821600Y11423500D01*
X52265600Y-15108900D02*
X52265600Y-15328100D01*
X56267900Y3350500D02*
X56267900Y7315100D01*
X-8884100Y6807200D02*
X-13287300Y11210400D01*
X53524900Y7315100D02*
X42575300Y18264700D01*
X-8884000Y-17653100D02*
X-8884000Y6807100D01*
X46770300Y-18482000D02*
X46770300Y-17004400D01*
X25081700Y27079700D02*
X25763800Y27761800D01*
X51868600Y11714400D02*
X51868800Y11714600D01*
D18*
%TO.N,Net 60*%
X36633700Y32094000D02*
X-17241900Y32094000D01*
D19*
X46869400Y20464400D02*
X37059000Y30274800D01*
D18*
X-35830200Y24977500D02*
X-35830200Y25026900D01*
X-35830200Y25027000D02*
X-33979800Y26877400D01*
X-18405600Y33257700D02*
X-39974400Y33257700D01*
D19*
X47612100Y20464400D02*
X46869500Y20464400D01*
D18*
X-40381700Y33665100D02*
X-40381700Y29529100D01*
X-40381800Y29529100D02*
X-35830200Y24977500D01*
X-39974300Y33257700D02*
X-40381700Y33665100D01*
X-17241800Y32093900D02*
X-18405600Y33257700D01*
%TO.N,Net 59*%
X-23165500Y26391700D02*
X-23165300Y26391900D01*
X-21374200Y20783800D02*
X-21374200Y23159200D01*
X-24649800Y30148700D02*
X-22461600Y27960500D01*
X-23165500Y26391700D02*
X-23165300Y26391900D01*
X-24649800Y30899500D02*
X-24649800Y30148700D01*
X-21374200Y23159100D02*
X-23899800Y25684700D01*
X-23949100Y25684700D02*
X-25865500Y27601100D01*
X-23899800Y25684700D02*
X-23949200Y25684700D01*
D19*
%TO.N,Net 3*%
X54015600Y-10180100D02*
X56843000Y-7352700D01*
X39690600Y12119600D02*
X-21354800Y12119600D01*
X47612100Y-17445400D02*
X48342100Y-17445400D01*
X-21354800Y12119600D02*
X-30392800Y21157600D01*
X50958500Y-14829000D02*
X50958500Y-13302800D01*
X45170900Y-17979000D02*
X47612100Y-17979000D01*
X48342100Y-17445400D02*
X50958500Y-14829000D01*
X54015600Y-10245700D02*
X54015600Y-10180100D01*
X57367900Y495100D02*
X47690500Y495100D01*
X44024200Y-20353900D02*
X44024200Y-19125700D01*
X41630200Y10614600D02*
X41630200Y12119600D01*
X47690500Y495100D02*
X44170100Y4015500D01*
X56843000Y-4687800D02*
X59350200Y-2180600D01*
X44170200Y4015400D02*
X44170200Y8074600D01*
X44170200Y8074600D02*
X41630200Y10614600D01*
X50958500Y-13302800D02*
X54015500Y-10245800D01*
X56843000Y-7352800D02*
X56843000Y-4687800D01*
X44024200Y-19125600D02*
X45170800Y-17979000D01*
X41630200Y12119600D02*
X39690600Y14059200D01*
X47612100Y-17979000D02*
X47612100Y-17445400D01*
%TO.N,Net 44*%
X39471200Y-14387600D02*
X39471200Y-8964200D01*
X41455300Y-6980100D02*
X50110700Y-6980100D01*
X50110700Y-6980100D02*
X50958500Y-6132300D01*
X39471200Y-8964200D02*
X41455400Y-6980000D01*
D18*
%TO.N,Net 20*%
X-27484600Y30341100D02*
X-27484600Y29839900D01*
X46933700Y20113400D02*
X46534900Y20113400D01*
X-19610900Y27698300D02*
X-19172900Y27698300D01*
X36373500Y30274800D02*
X30924900Y30274800D01*
X30605800Y30593900D02*
X-18762200Y30593900D01*
X-19172800Y27698300D02*
X-17535200Y29336000D01*
X30925000Y30274800D02*
X30605800Y30594000D01*
X-18762100Y30594000D02*
X-20020100Y29336000D01*
X46534800Y20113400D02*
X36373400Y30274800D01*
X-27484600Y29839800D02*
X-27484400Y29840000D01*
D19*
%TO.N,Net 36*%
X38324600Y6628900D02*
X38324600Y6657100D01*
X33125800Y5935800D02*
X37631400Y5935800D01*
X38324600Y6657100D02*
X40675400Y9007900D01*
X37631400Y5935700D02*
X38324600Y6628900D01*
%TO.N,Net 77*%
X-56530500Y28488800D02*
X-54664300Y28488800D01*
D18*
X-64479600Y27161000D02*
X-64320600Y27320000D01*
X-64933700Y21697800D02*
X-64479700Y22151800D01*
D19*
X-56593800Y28552200D02*
X-56530400Y28488800D01*
D18*
X-64479600Y22151800D02*
X-64479600Y27160900D01*
D19*
X-54664300Y28488800D02*
X-19852100Y-6323400D01*
X-16066200Y-6323400D02*
X-10498200Y-755400D01*
X32758300Y15914700D02*
X38148900Y21305200D01*
X-62916400Y28552200D02*
X-56593800Y28552200D01*
X-64320600Y27320000D02*
X-64148600Y27320000D01*
D18*
X-66034900Y21697800D02*
X-64933700Y21697800D01*
D19*
X27166000Y7697000D02*
X29536000Y10067000D01*
X-64148600Y27320000D02*
X-62916400Y28552200D01*
X28208900Y15914700D02*
X32758300Y15914700D01*
X45743000Y26038200D02*
X46858000Y26038200D01*
X-19852100Y-6323400D02*
X-16066300Y-6323400D01*
X46857900Y26038200D02*
X53531700Y19364500D01*
X27166000Y4620600D02*
X27166000Y7696900D01*
%TO.N,Net 63*%
X-63696400Y19811800D02*
X-64320600Y20436000D01*
%TO.N,Net 38*%
X-68687500Y25019000D02*
X-68687500Y24069200D01*
X-68687500Y24069200D02*
X-67596100Y22977800D01*
D18*
%TO.N,Net 39*%
X-64479600Y21206000D02*
X-64196400Y20922800D01*
D19*
X41779400Y-19975700D02*
X41779400Y-18691100D01*
D18*
X-66973200Y21917000D02*
X-66262200Y21206000D01*
D19*
X46933700Y31577900D02*
X47612100Y30899500D01*
D18*
X-66973200Y22977800D02*
X-66973200Y21917000D01*
D19*
X36373800Y-18703000D02*
X36373800Y-12141600D01*
X-20020100Y31577900D02*
X46933700Y31577900D01*
X41779300Y-18691000D02*
X40533700Y-17445400D01*
X36373800Y-12141600D02*
X38904600Y-9610800D01*
X37608500Y15118100D02*
X38356100Y15118100D01*
X40533700Y-17445400D02*
X40533700Y-16162600D01*
D18*
X-66262200Y21206000D02*
X-64479600Y21206000D01*
D19*
X38356200Y15118100D02*
X38799200Y14675100D01*
%TO.N,Net 52*%
X34703400Y-18310500D02*
X34703600Y-18310300D01*
D17*
X37812500Y-18310700D02*
X37812500Y-17204900D01*
X39471400Y-15167900D02*
X40251600Y-14387700D01*
D19*
X51461400Y-13651000D02*
X51461600Y-13650800D01*
D17*
X45145300Y-14387700D02*
X46770300Y-16012700D01*
X39471400Y-15546000D02*
X39471400Y-15167800D01*
D19*
X37812500Y-18310700D02*
X37812700Y-18310500D01*
X54995100Y-15108900D02*
X52919300Y-15108900D01*
D17*
X37812400Y-17205000D02*
X39471400Y-15546000D01*
X40251600Y-14387700D02*
X45145400Y-14387700D01*
D18*
X47737800Y-17040300D02*
X47423800Y-16726300D01*
D19*
X52919300Y-15108800D02*
X51461500Y-13651000D01*
D18*
X48124100Y-17040300D02*
X47737900Y-17040300D01*
D19*
X35690200Y-18310500D02*
X34703400Y-18310500D01*
%TO.N,Net 5*%
X40112800Y-21915100D02*
X39471400Y-21273700D01*
X45743000Y-21915100D02*
X40112800Y-21915100D01*
D18*
X40533700Y-15294000D02*
X40533700Y-15565800D01*
D19*
X39471400Y-21273800D02*
X39471400Y-16356200D01*
X39471400Y-16356200D02*
X40533600Y-15294000D01*
D18*
X40533700Y-15565800D02*
X43031300Y-18063400D01*
X48342100Y-18396100D02*
X47540700Y-18396100D01*
X47540700Y-18396100D02*
X46461900Y-19474900D01*
D19*
X46461900Y-19475000D02*
X46461900Y-21196200D01*
X46462000Y-21196200D02*
X45743000Y-21915100D01*
%TO.N,Net 14*%
X49171000Y-755000D02*
X48425000Y-9000D01*
X53016100Y-2314900D02*
X51456100Y-754900D01*
X53265600Y-2314900D02*
X53016000Y-2314900D01*
X51456100Y-755000D02*
X49170900Y-755000D01*
%TO.N,Net 78*%
X-53570900Y28488800D02*
X-53570900Y28256200D01*
X-53570900Y28256200D02*
X-19758300Y-5556400D01*
X-19758300Y-5556400D02*
X-16170100Y-5556400D01*
X-16170100Y-5556400D02*
X-16066300Y-5452600D01*
X-16066300Y-5452600D02*
X-16066300Y-5414600D01*
X-16066300Y-5414600D02*
X-10498200Y153500D01*
X25763800Y4620600D02*
X25763800Y7185800D01*
X25763800Y7185700D02*
X28838800Y10260700D01*
X27166000Y16113900D02*
X27591700Y16113900D01*
X27591700Y16113900D02*
X28208900Y16731100D01*
X28208900Y16731100D02*
X32445700Y16731100D01*
X32445700Y16731100D02*
X38148800Y22434300D01*
X44805200Y26659300D02*
X47336800Y26659300D01*
X47336700Y26659300D02*
X53531700Y20464300D01*
D18*
%TO.N,Net 74*%
X-53381400Y29178900D02*
X-53381400Y28495100D01*
X-53381300Y28495000D02*
X-19758300Y-5128000D01*
X-19758300Y-5128000D02*
X-16793100Y-5128000D01*
X-16793100Y-5128000D02*
X-16170100Y-4505000D01*
X-16170100Y-4505000D02*
X-16170100Y-4499600D01*
X-16170000Y-4499500D02*
X-10498200Y1172300D01*
X24306600Y4620600D02*
X24306600Y6822600D01*
X24306600Y6822700D02*
X27744600Y10260700D01*
X26337700Y16113900D02*
X26337700Y16153300D01*
X26337700Y16153300D02*
X26915500Y16731100D01*
X26915600Y16731100D02*
X27481600Y16731100D01*
X27481500Y16731100D02*
X27868700Y17118300D01*
X27868700Y17118200D02*
X31518700Y17118200D01*
X31518700Y17118300D02*
X36834700Y22434300D01*
X44340400Y27166300D02*
X47679200Y27166300D01*
X47679100Y27166300D02*
X49774300Y25071100D01*
X49774300Y25071200D02*
X49918100Y25071200D01*
X49918100Y25071200D02*
X52061300Y22928000D01*
X52061300Y22928000D02*
X52061500Y22928200D01*
X56785600Y21030600D02*
X56785600Y19999600D01*
X56785600Y19999600D02*
X57420600Y19364600D01*
%TO.N,Net 75*%
X-66034800Y27766800D02*
X-66034800Y27818000D01*
X-66034800Y27818000D02*
X-64479600Y29373200D01*
X-64479600Y29373200D02*
X-54024000Y29373200D01*
X-54024000Y29373200D02*
X-54024000Y29437600D01*
X-54023900Y29437700D02*
X-53634300Y29827300D01*
X-53634300Y29827300D02*
X-53268100Y29827300D01*
X-53268100Y29827400D02*
X-52813900Y29373200D01*
X-52813900Y29373200D02*
X-52813900Y28751000D01*
X-52814000Y28751000D02*
X-19558000Y-4505000D01*
X-19558100Y-4505000D02*
X-16793100Y-4505000D01*
X-16793100Y-4505000D02*
X-16793100Y-4414900D01*
X-16793100Y-4414900D02*
X-10498200Y1880000D01*
X23598200Y4620600D02*
X23598200Y7272800D01*
X23598200Y7272700D02*
X26586200Y10260700D01*
X25419700Y15914700D02*
X25419700Y16165100D01*
X25419800Y16165200D02*
X27166000Y17911400D01*
X27166000Y17911400D02*
X30784200Y17911400D01*
X30784200Y17911400D02*
X35998900Y23126100D01*
X44170100Y27761800D02*
X48281000Y27761800D01*
X48281000Y27761800D02*
X52061600Y23981200D01*
X55515800Y23126100D02*
X55515800Y22834100D01*
X55515800Y22834000D02*
X56785600Y21564200D01*
X56785600Y21564200D02*
X57124600Y21225200D01*
X57124600Y21225300D02*
X57124600Y20409500D01*
X57124500Y20409600D02*
X57420700Y20113400D01*
X57420700Y20113400D02*
X58242300Y19291800D01*
X58242400Y19291700D02*
X58242400Y18934700D01*
X58242400Y18934700D02*
X57751000Y18443300D01*
D19*
%TO.N,Net 73*%
X-66243500Y28488700D02*
X-66243500Y29437700D01*
X-66243500Y29437700D02*
X-65323300Y29437700D01*
X-65323300Y29437800D02*
X-64933700Y29827400D01*
X-64933700Y29827400D02*
X-54275700Y29827400D01*
X-54275700Y29827400D02*
X-53634300Y30468800D01*
X-53634300Y30468900D02*
X-53168700Y30468900D01*
X-53168800Y30468900D02*
X-52260200Y29560300D01*
X-52260200Y29560300D02*
X-52260200Y28803500D01*
X-52260100Y28803500D02*
X-51951700Y28495100D01*
X-51951700Y28495100D02*
X-19736100Y-3720500D01*
X-19736200Y-3720400D02*
X-16823400Y-3720400D01*
X-16823500Y-3720500D02*
X-16793100Y-3690100D01*
X-16793100Y-3690100D02*
X-16793100Y-3345700D01*
X-16793100Y-3345600D02*
X-10498300Y2949300D01*
D18*
X22313400Y4620800D02*
X22313400Y7168200D01*
X22313500Y7168300D02*
X25405900Y10260700D01*
X24306600Y15914700D02*
X24368000Y15914700D01*
X24368000Y15914700D02*
X27166000Y18712700D01*
X27166000Y18712700D02*
X30316000Y18712700D01*
X30316000Y18712700D02*
X34820100Y23216800D01*
X43053500Y28313800D02*
X43937100Y28313800D01*
X43937200Y28313800D02*
X45440200Y29816800D01*
%TD*%
%TA.AperFunction,Conductor*%
%TO.N,GND*%
G36*
X47598000Y28337000D02*
G01*
X45035000Y28337000D01*
X44958000Y28522000D01*
X45432000Y28996000D01*
X45487000Y29019000D01*
X45544000Y29019000D01*
X45751000Y29076000D01*
X45750000Y29076000D01*
X45930000Y29179000D01*
X46077000Y29326000D01*
X46180000Y29504000D01*
X46247000Y29740000D01*
X46413000Y29784000D01*
X47675000Y28522000D01*
X47598000Y28337000D01*
G37*
%TD.AperFunction*%
%TA.AperFunction,Conductor*%
G36*
X51307000Y-3090000D02*
G01*
X51183000Y-3090000D01*
X49660000Y-1567000D01*
X49737000Y-1382000D01*
X51164000Y-1382000D01*
X51219000Y-1405000D01*
X52418000Y-2604000D01*
X52302000Y-2803000D01*
X52088000Y-2745000D01*
X51876000Y-2745000D01*
X51671000Y-2802000D01*
X51493000Y-2904000D01*
X51307000Y-3090000D01*
G37*
%TD.AperFunction*%
%TA.AperFunction,Conductor*%
G36*
X44014000Y-18248000D02*
G01*
X43829000Y-18171000D01*
X43829000Y-17959000D01*
X43775000Y-17754000D01*
X43667000Y-17574000D01*
X43668000Y-17574000D01*
X43523000Y-17427000D01*
X43524000Y-17427000D01*
X43339000Y-17321000D01*
X43340000Y-17321000D01*
X43134000Y-17266000D01*
X43079000Y-17266000D01*
X43024000Y-17243000D01*
X41185000Y-15404000D01*
X41162000Y-15353000D01*
X41152000Y-15131000D01*
X41241000Y-15038000D01*
X44845000Y-15038000D01*
X44900000Y-15061000D01*
X45964000Y-16125000D01*
X45984000Y-16159000D01*
X46028000Y-16321000D01*
X46132000Y-16502000D01*
X46279000Y-16649000D01*
X46465000Y-16757000D01*
X46572000Y-16785000D01*
X46629000Y-16841000D01*
X46683000Y-17036000D01*
X46778000Y-17202000D01*
X46691000Y-17352000D01*
X45265000Y-17352000D01*
X45256000Y-17351000D01*
X45215000Y-17352000D01*
X45126000Y-17352000D01*
X45116000Y-17353000D01*
X45114000Y-17353000D01*
X45101000Y-17355000D01*
X45069000Y-17356000D01*
X45013000Y-17373000D01*
X45005000Y-17375000D01*
X44953000Y-17385000D01*
X44931000Y-17397000D01*
X44919000Y-17402000D01*
X44881000Y-17414000D01*
X44825000Y-17454000D01*
X44819000Y-17458000D01*
X44780000Y-17480000D01*
X44773000Y-17485000D01*
X44742000Y-17520000D01*
X44014000Y-18248000D01*
G37*
%TD.AperFunction*%
%TA.AperFunction,Conductor*%
G36*
X-29863000Y30213000D02*
G01*
X-29903000Y30253000D01*
X-30090000Y30360000D01*
X-30287000Y30412000D01*
X-30496000Y30412000D01*
X-30700000Y30358000D01*
X-30702000Y30357000D01*
X-30884000Y30251000D01*
X-31031000Y30104000D01*
X-31135000Y29922000D01*
X-31190000Y29717000D01*
X-31190000Y29512000D01*
X-31135000Y29307000D01*
X-31031000Y29125000D01*
X-30884000Y28978000D01*
X-30702000Y28872000D01*
X-30700000Y28871000D01*
X-30496000Y28817000D01*
X-30287000Y28817000D01*
X-30090000Y28869000D01*
X-29905000Y28975000D01*
X-29903000Y28976000D01*
X-29862000Y29017000D01*
X-29807000Y29040000D01*
X-26612000Y29040000D01*
X-26526000Y28889000D01*
X-26609000Y28746000D01*
X-26609000Y28745000D01*
X-26663000Y28539000D01*
X-26663000Y28444000D01*
X-26751000Y28356000D01*
X-32820000Y28356000D01*
X-32875000Y28379000D01*
X-32915000Y28419000D01*
X-33095000Y28522000D01*
X-33301000Y28579000D01*
X-33509000Y28579000D01*
X-33715000Y28522000D01*
X-33895000Y28419000D01*
X-34043000Y28271000D01*
X-34146000Y28091000D01*
X-34203000Y27885000D01*
X-34203000Y27709000D01*
X-34260000Y27630000D01*
X-34294000Y27619000D01*
X-34470000Y27514000D01*
X-34472000Y27512000D01*
X-34617000Y27368000D01*
X-34723000Y27183000D01*
X-34777000Y26979000D01*
X-34777000Y26925000D01*
X-34800000Y26870000D01*
X-35793000Y25877000D01*
X-35917000Y25877000D01*
X-39784000Y29744000D01*
X-39807000Y29799000D01*
X-39807000Y32595000D01*
X-39719000Y32683000D01*
X-18676000Y32683000D01*
X-18621000Y32660000D01*
X-18351000Y32390000D01*
X-18428000Y32205000D01*
X-19491000Y32205000D01*
X-19529000Y32215000D01*
X-19717000Y32323000D01*
X-19914000Y32375000D01*
X-20126000Y32375000D01*
X-20323000Y32323000D01*
X-20510000Y32216000D01*
X-20658000Y32068000D01*
X-20761000Y31888000D01*
X-20818000Y31682000D01*
X-20818000Y31474000D01*
X-20761000Y31268000D01*
X-20658000Y31088000D01*
X-20509000Y30939000D01*
X-20507000Y30938000D01*
X-20448000Y30903000D01*
X-20408000Y30834000D01*
X-20408000Y30797000D01*
X-20353000Y30591000D01*
X-20352000Y30589000D01*
X-20252000Y30414000D01*
X-20250000Y30411000D01*
X-20128000Y30289000D01*
X-20173000Y30121000D01*
X-20324000Y30081000D01*
X-20510000Y29974000D01*
X-20658000Y29826000D01*
X-20660000Y29823000D01*
X-20742000Y29679000D01*
X-20864000Y29647000D01*
X-21063000Y29766000D01*
X-21268000Y29820000D01*
X-21479000Y29820000D01*
X-21685000Y29765000D01*
X-21866000Y29657000D01*
X-21867000Y29656000D01*
X-22012000Y29512000D01*
X-22115000Y29335000D01*
X-22172000Y29128000D01*
X-22172000Y28833000D01*
X-22282000Y28743000D01*
X-22355000Y28758000D01*
X-22414000Y28758000D01*
X-22469000Y28781000D01*
X-23998000Y30310000D01*
X-24011000Y30411000D01*
X-23909000Y30589000D01*
X-23852000Y30794000D01*
X-23852000Y31005000D01*
X-23909000Y31210000D01*
X-24011000Y31388000D01*
X-24159000Y31537000D01*
X-24160000Y31538000D01*
X-24347000Y31645000D01*
X-24544000Y31697000D01*
X-24753000Y31697000D01*
X-24957000Y31643000D01*
X-24959000Y31642000D01*
X-25141000Y31536000D01*
X-25288000Y31389000D01*
X-25392000Y31207000D01*
X-25447000Y31002000D01*
X-25447000Y30797000D01*
X-25392000Y30592000D01*
X-25254000Y30350000D01*
X-25322000Y30208000D01*
X-25430000Y30191000D01*
X-25442000Y30190000D01*
X-26599000Y30190000D01*
X-26687000Y30278000D01*
X-26687000Y30446000D01*
X-26742000Y30651000D01*
X-26742000Y30652000D01*
X-26850000Y30833000D01*
X-26850000Y30834000D01*
X-26995000Y30979000D01*
X-27172000Y31082000D01*
X-27379000Y31139000D01*
X-27590000Y31139000D01*
X-27795000Y31082000D01*
X-27973000Y30980000D01*
X-28122000Y30832000D01*
X-28123000Y30831000D01*
X-28230000Y30644000D01*
X-28282000Y30447000D01*
X-28282000Y30278000D01*
X-28370000Y30190000D01*
X-29808000Y30190000D01*
X-29863000Y30213000D01*
G37*
%TD.AperFunction*%
%TA.AperFunction,Conductor*%
G36*
X51452000Y16157000D02*
G01*
X51270000Y16157000D01*
X51061000Y16103000D01*
X50984000Y16124000D01*
X50835000Y16273000D01*
X50679000Y16364000D01*
X50495000Y16414000D01*
X50309000Y16414000D01*
X50140000Y16366000D01*
X50132000Y16363000D01*
X49979000Y16277000D01*
X49845000Y16143000D01*
X49752000Y15981000D01*
X49707000Y15806000D01*
X49707000Y15697000D01*
X49555000Y15610000D01*
X49464000Y15664000D01*
X49462000Y15665000D01*
X49289000Y15714000D01*
X49103000Y15714000D01*
X48919000Y15664000D01*
X48763000Y15573000D01*
X48635000Y15445000D01*
X48543000Y15287000D01*
X48542000Y15283000D01*
X48494000Y15112000D01*
X48494000Y14918000D01*
X48550000Y14718000D01*
X48530000Y14640000D01*
X48335000Y14443000D01*
X48210000Y14443000D01*
X45371000Y17282000D01*
X45448000Y17467000D01*
X45544000Y17467000D01*
X45751000Y17524000D01*
X45750000Y17524000D01*
X45930000Y17627000D01*
X46078000Y17775000D01*
X46181000Y17955000D01*
X46238000Y18161000D01*
X46238000Y18369000D01*
X46181000Y18579000D01*
X46080000Y18752000D01*
X46079000Y18753000D01*
X45932000Y18901000D01*
X45930000Y18903000D01*
X45744000Y19010000D01*
X45546000Y19062000D01*
X45337000Y19062000D01*
X45133000Y19008000D01*
X45131000Y19007000D01*
X44964000Y18911000D01*
X44863000Y18924000D01*
X43945000Y19843000D01*
X43941000Y19845000D01*
X43924000Y19858000D01*
X43898000Y19884000D01*
X43850000Y19907000D01*
X43841000Y19912000D01*
X43795000Y19942000D01*
X43794000Y19942000D01*
X43764000Y19950000D01*
X43748000Y19956000D01*
X43725000Y19968000D01*
X43668000Y19976000D01*
X43658000Y19978000D01*
X43600000Y19994000D01*
X43555000Y19992000D01*
X41567000Y19992000D01*
X41512000Y20015000D01*
X38946000Y22582000D01*
X38926000Y22616000D01*
X38892000Y22741000D01*
X38787000Y22924000D01*
X38786000Y22925000D01*
X38637000Y23073000D01*
X38636000Y23074000D01*
X38461000Y23175000D01*
X38456000Y23178000D01*
X38328000Y23213000D01*
X38295000Y23232000D01*
X32013000Y29515000D01*
X32090000Y29700000D01*
X36103000Y29700000D01*
X36158000Y29677000D01*
X46083000Y19752000D01*
X46093000Y19739000D01*
X46115000Y19706000D01*
X46186000Y19656000D01*
X46188000Y19654000D01*
X46285000Y19583000D01*
X46296000Y19579000D01*
X46306000Y19575000D01*
X46334000Y19569000D01*
X46372000Y19548000D01*
X46442000Y19477000D01*
X46631000Y19368000D01*
X46828000Y19316000D01*
X47037000Y19316000D01*
X47241000Y19370000D01*
X47243000Y19371000D01*
X47425000Y19477000D01*
X47592000Y19644000D01*
X47647000Y19667000D01*
X47718000Y19667000D01*
X47915000Y19719000D01*
X48102000Y19826000D01*
X48103000Y19827000D01*
X48249000Y19974000D01*
X48251000Y19976000D01*
X48352000Y20152000D01*
X48353000Y20153000D01*
X48410000Y20359000D01*
X48410000Y20570000D01*
X48353000Y20777000D01*
X48252000Y20951000D01*
X48251000Y20953000D01*
X48106000Y21098000D01*
X48104000Y21099000D01*
X47923000Y21207000D01*
X47922000Y21207000D01*
X47717000Y21262000D01*
X47507000Y21262000D01*
X47301000Y21207000D01*
X47177000Y21134000D01*
X47075000Y21147000D01*
X38083000Y30139000D01*
X38160000Y30324000D01*
X44631000Y30324000D01*
X44721000Y30199000D01*
X44698000Y30132000D01*
X44643000Y29923000D01*
X44643000Y29865000D01*
X44620000Y29810000D01*
X43715000Y28904000D01*
X43591000Y28904000D01*
X43543000Y28952000D01*
X43361000Y29056000D01*
X43362000Y29056000D01*
X43156000Y29111000D01*
X42951000Y29111000D01*
X42746000Y29056000D01*
X42564000Y28952000D01*
X42417000Y28805000D01*
X42311000Y28623000D01*
X42309000Y28618000D01*
X42256000Y28415000D01*
X42256000Y28208000D01*
X42308000Y28011000D01*
X42416000Y27823000D01*
X42565000Y27675000D01*
X42743000Y27573000D01*
X42948000Y27516000D01*
X43159000Y27516000D01*
X43307000Y27557000D01*
X43412000Y27500000D01*
X43427000Y27454000D01*
X43533000Y27271000D01*
X43543000Y27233000D01*
X43543000Y27063000D01*
X43596000Y26862000D01*
X43597000Y26861000D01*
X43598000Y26856000D01*
X43705000Y26674000D01*
X43851000Y26528000D01*
X43855000Y26525000D01*
X44016000Y26434000D01*
X44053000Y26385000D01*
X44062000Y26351000D01*
X44169000Y26168000D01*
X44314000Y26023000D01*
X44496000Y25917000D01*
X44498000Y25916000D01*
X44702000Y25862000D01*
X44901000Y25862000D01*
X44982000Y25800000D01*
X45001000Y25729000D01*
X45105000Y25549000D01*
X45252000Y25401000D01*
X45253000Y25400000D01*
X45440000Y25293000D01*
X45637000Y25241000D01*
X45849000Y25241000D01*
X46046000Y25293000D01*
X46234000Y25401000D01*
X46272000Y25411000D01*
X46566000Y25411000D01*
X46621000Y25388000D01*
X52715000Y19293000D01*
X52735000Y19258000D01*
X52789000Y19054000D01*
X52896000Y18875000D01*
X52897000Y18873000D01*
X53039000Y18728000D01*
X53224000Y18622000D01*
X53429000Y18567000D01*
X53634000Y18567000D01*
X53840000Y18622000D01*
X53839000Y18622000D01*
X54021000Y18726000D01*
X54170000Y18875000D01*
X54273000Y19054000D01*
X54329000Y19261000D01*
X54329000Y19476000D01*
X54514000Y19553000D01*
X54918000Y19149000D01*
X54941000Y19094000D01*
X54941000Y11504000D01*
X54879000Y11423000D01*
X54597000Y11348000D01*
X54519000Y11369000D01*
X53229000Y12660000D01*
X53209000Y12694000D01*
X53152000Y12901000D01*
X53050000Y13079000D01*
X52902000Y13228000D01*
X52901000Y13229000D01*
X52715000Y13336000D01*
X52545000Y13380000D01*
X52488000Y13438000D01*
X52449000Y13592000D01*
X52470000Y13668000D01*
X52619000Y13817000D01*
X52710000Y13973000D01*
X52760000Y14157000D01*
X52760000Y14343000D01*
X52714000Y14508000D01*
X52709000Y14521000D01*
X52621000Y14676000D01*
X52620000Y14677000D01*
X52493000Y14802000D01*
X52331000Y14898000D01*
X52326000Y14900000D01*
X52153000Y14945000D01*
X52044000Y14945000D01*
X51957000Y15092000D01*
X52007000Y15181000D01*
X52012000Y15194000D01*
X52060000Y15363000D01*
X52060000Y15549000D01*
X52010000Y15733000D01*
X51919000Y15889000D01*
X51791000Y16017000D01*
X51626000Y16112000D01*
X51452000Y16157000D01*
G37*
%TD.AperFunction*%
%TA.AperFunction,Conductor*%
G36*
X56428000Y7985000D02*
G01*
X56573000Y8130000D01*
X56652000Y8265000D01*
X56798000Y8284000D01*
X61994000Y3087000D01*
X62017000Y3032000D01*
X62017000Y1281000D01*
X62007000Y1243000D01*
X61898000Y1055000D01*
X61898000Y1053000D01*
X61847000Y857000D01*
X61847000Y646000D01*
X61873000Y548000D01*
X61783000Y431000D01*
X58425000Y431000D01*
X58348000Y617000D01*
X58549000Y816000D01*
X58550000Y817000D01*
X58657000Y1004000D01*
X58709000Y1201000D01*
X58709000Y1410000D01*
X58656000Y1611000D01*
X58654000Y1616000D01*
X58548000Y1798000D01*
X58403000Y1943000D01*
X58221000Y2049000D01*
X58219000Y2050000D01*
X58015000Y2104000D01*
X57960000Y2104000D01*
X57905000Y2127000D01*
X56931000Y3101000D01*
X56921000Y3114000D01*
X56900000Y3147000D01*
X56830000Y3195000D01*
X56827000Y3197000D01*
X56731000Y3270000D01*
X56729000Y3270000D01*
X56708000Y3277000D01*
X56704000Y3279000D01*
X56658000Y3288000D01*
X56656000Y3289000D01*
X56499000Y3326000D01*
X56439000Y3316000D01*
X56427000Y3315000D01*
X55125000Y3315000D01*
X55044000Y3377000D01*
X55010000Y3508000D01*
X55008000Y3513000D01*
X54903000Y3694000D01*
X54755000Y3842000D01*
X54573000Y3946000D01*
X54574000Y3946000D01*
X54368000Y4001000D01*
X54163000Y4001000D01*
X53958000Y3946000D01*
X53776000Y3842000D01*
X53774000Y3840000D01*
X53629000Y3694000D01*
X53522000Y3514000D01*
X53468000Y3310000D01*
X53468000Y3099000D01*
X53523000Y2894000D01*
X53523000Y2893000D01*
X53631000Y2712000D01*
X53632000Y2710000D01*
X53776000Y2566000D01*
X53953000Y2463000D01*
X54158000Y2406000D01*
X54246000Y2397000D01*
X54309000Y2219000D01*
X54117000Y2027000D01*
X54013000Y1845000D01*
X53957000Y1641000D01*
X53957000Y1433000D01*
X54009000Y1240000D01*
X53919000Y1122000D01*
X47982000Y1122000D01*
X47927000Y1145000D01*
X44820000Y4253000D01*
X44797000Y4308000D01*
X44797000Y7983000D01*
X44798000Y7990000D01*
X44797000Y8033000D01*
X44797000Y8119000D01*
X44796000Y8128000D01*
X44797000Y8128000D01*
X44795000Y8137000D01*
X44794000Y8146000D01*
X44793000Y8180000D01*
X44776000Y8236000D01*
X44774000Y8243000D01*
X44764000Y8292000D01*
X44752000Y8313000D01*
X44745000Y8328000D01*
X44735000Y8360000D01*
X44735000Y8361000D01*
X44704000Y8403000D01*
X44699000Y8411000D01*
X44665000Y8472000D01*
X44663000Y8474000D01*
X44628000Y8505000D01*
X44624000Y8508000D01*
X42280000Y10853000D01*
X42257000Y10908000D01*
X42257000Y12027000D01*
X42258000Y12036000D01*
X42257000Y12077000D01*
X42257000Y12163000D01*
X42256000Y12173000D01*
X42257000Y12173000D01*
X42255000Y12182000D01*
X42254000Y12191000D01*
X42253000Y12221000D01*
X42252000Y12226000D01*
X42236000Y12278000D01*
X42234000Y12287000D01*
X42224000Y12335000D01*
X42221000Y12343000D01*
X42211000Y12362000D01*
X42205000Y12375000D01*
X42196000Y12404000D01*
X42162000Y12452000D01*
X42157000Y12460000D01*
X42125000Y12516000D01*
X42125000Y12517000D01*
X42069000Y12567000D01*
X42065000Y12570000D01*
X40509000Y14128000D01*
X40489000Y14162000D01*
X40436000Y14362000D01*
X40329000Y14549000D01*
X40328000Y14550000D01*
X40179000Y14698000D01*
X40001000Y14800000D01*
X40002000Y14800000D01*
X39796000Y14857000D01*
X39639000Y14857000D01*
X39558000Y14919000D01*
X39541000Y14984000D01*
X39540000Y14985000D01*
X39437000Y15165000D01*
X39289000Y15313000D01*
X39109000Y15416000D01*
X38903000Y15474000D01*
X38870000Y15493000D01*
X38766000Y15597000D01*
X38755000Y15604000D01*
X38743000Y15614000D01*
X38720000Y15636000D01*
X38718000Y15638000D01*
X38676000Y15658000D01*
X38668000Y15662000D01*
X38582000Y15717000D01*
X38566000Y15860000D01*
X39829000Y17123000D01*
X39835000Y17131000D01*
X39840000Y17137000D01*
X39868000Y17167000D01*
X39871000Y17171000D01*
X39900000Y17227000D01*
X39903000Y17233000D01*
X39927000Y17270000D01*
X39930000Y17278000D01*
X39935000Y17296000D01*
X39939000Y17308000D01*
X39954000Y17341000D01*
X39965000Y17413000D01*
X39967000Y17422000D01*
X39980000Y17468000D01*
X39979000Y17496000D01*
X39979000Y17998000D01*
X40067000Y18086000D01*
X42761000Y18086000D01*
X42816000Y18063000D01*
X47602000Y13276000D01*
X47622000Y13198000D01*
X47581000Y13046000D01*
X47581000Y12835000D01*
X47638000Y12630000D01*
X47740000Y12452000D01*
X47888000Y12303000D01*
X47889000Y12302000D01*
X48076000Y12195000D01*
X48273000Y12143000D01*
X48482000Y12143000D01*
X48686000Y12197000D01*
X48688000Y12198000D01*
X48870000Y12304000D01*
X48969000Y12403000D01*
X49093000Y12403000D01*
X49207000Y12289000D01*
X49210000Y12287000D01*
X49363000Y12198000D01*
X49369000Y12196000D01*
X49540000Y12148000D01*
X49734000Y12148000D01*
X49934000Y12204000D01*
X50012000Y12184000D01*
X50163000Y12033000D01*
X50319000Y11942000D01*
X50503000Y11892000D01*
X50689000Y11892000D01*
X50862000Y11941000D01*
X50866000Y11942000D01*
X51022000Y12033000D01*
X51150000Y12161000D01*
X51241000Y12317000D01*
X51242000Y12321000D01*
X51291000Y12494000D01*
X51291000Y12608000D01*
X51440000Y12695000D01*
X51573000Y12620000D01*
X51614000Y12550000D01*
X51614000Y12488000D01*
X51669000Y12282000D01*
X51670000Y12281000D01*
X51773000Y12101000D01*
X51920000Y11954000D01*
X52102000Y11848000D01*
X52104000Y11847000D01*
X52306000Y11794000D01*
X52341000Y11774000D01*
X53979000Y10134000D01*
X53981000Y10132000D01*
X53992000Y10125000D01*
X54002000Y10117000D01*
X54023000Y10097000D01*
X54025000Y10095000D01*
X54068000Y10075000D01*
X54077000Y10070000D01*
X54134000Y10032000D01*
X54168000Y10024000D01*
X54185000Y10018000D01*
X54196000Y10013000D01*
X54196000Y10012000D01*
X54263000Y10002000D01*
X54269000Y10001000D01*
X54323000Y9988000D01*
X54412000Y9988000D01*
X54451000Y9977000D01*
X54629000Y9872000D01*
X54879000Y9806000D01*
X54941000Y9725000D01*
X54941000Y9098000D01*
X54939000Y9083000D01*
X54932000Y9048000D01*
X54951000Y8935000D01*
X54969000Y8830000D01*
X54970000Y8825000D01*
X54972000Y8817000D01*
X55037000Y8722000D01*
X55039000Y8718000D01*
X55084000Y8642000D01*
X55102000Y8630000D01*
X55137000Y8564000D01*
X55137000Y8516000D01*
X55192000Y8311000D01*
X55297000Y8128000D01*
X55299000Y8126000D01*
X55444000Y7982000D01*
X55623000Y7875000D01*
X55828000Y7821000D01*
X56039000Y7821000D01*
X56244000Y7876000D01*
X56245000Y7876000D01*
X56424000Y7982000D01*
X56428000Y7985000D01*
G37*
%TD.AperFunction*%
%TA.AperFunction,Conductor*%
G36*
X47323000Y32071000D02*
G01*
X47298000Y32096000D01*
X47247000Y32121000D01*
X47239000Y32126000D01*
X47193000Y32155000D01*
X47163000Y32163000D01*
X47147000Y32169000D01*
X47124000Y32181000D01*
X47067000Y32189000D01*
X47057000Y32191000D01*
X46999000Y32207000D01*
X46954000Y32205000D01*
X37494000Y32205000D01*
X37413000Y32268000D01*
X37380000Y32397000D01*
X37272000Y32584000D01*
X37271000Y32585000D01*
X37123000Y32732000D01*
X36942000Y32837000D01*
X36737000Y32891000D01*
X36528000Y32891000D01*
X36330000Y32839000D01*
X36144000Y32732000D01*
X36104000Y32692000D01*
X36049000Y32669000D01*
X-16972000Y32669000D01*
X-17027000Y32692000D01*
X-17954000Y33619000D01*
X-17964000Y33632000D01*
X-17986000Y33665000D01*
X-18057000Y33715000D01*
X-18059000Y33717000D01*
X-18156000Y33788000D01*
X-18167000Y33792000D01*
X-18175000Y33795000D01*
X-18259000Y33813000D01*
X-18260000Y33814000D01*
X-18383000Y33842000D01*
X-18385000Y33843000D01*
X-18439000Y33834000D01*
X-18451000Y33833000D01*
X-39705000Y33833000D01*
X-39760000Y33856000D01*
X-39924000Y34020000D01*
X-39847000Y34205000D01*
X-35434000Y34206000D01*
X-17818000Y34206000D01*
X-9009000Y34203000D01*
X-201000Y34200000D01*
X8607000Y34195000D01*
X17416000Y34189000D01*
X26224000Y34181000D01*
X35032000Y34172000D01*
X43841000Y34162000D01*
X52461000Y34150000D01*
X52530000Y34110000D01*
X53825000Y31919000D01*
X55212000Y29563000D01*
X56597000Y27206000D01*
X57977000Y24850000D01*
X59356000Y22490000D01*
X60733000Y20127000D01*
X62106000Y17765000D01*
X63477000Y15400000D01*
X64846000Y13033000D01*
X66210000Y10667000D01*
X67573000Y8297000D01*
X68839000Y6091000D01*
X68839000Y6011000D01*
X67573000Y3804000D01*
X66515000Y1964000D01*
X66395000Y1932000D01*
X66185000Y2052000D01*
X65988000Y2104000D01*
X65776000Y2104000D01*
X65579000Y2052000D01*
X65392000Y1945000D01*
X65391000Y1944000D01*
X65244000Y1796000D01*
X65140000Y1616000D01*
X65138000Y1611000D01*
X65086000Y1412000D01*
X65066000Y1377000D01*
X64142000Y454000D01*
X64087000Y431000D01*
X63506000Y431000D01*
X63416000Y548000D01*
X63442000Y645000D01*
X63442000Y856000D01*
X63385000Y1062000D01*
X63281000Y1243000D01*
X63271000Y1281000D01*
X63271000Y3239000D01*
X63272000Y3244000D01*
X63271000Y3274000D01*
X63271000Y3368000D01*
X63270000Y3372000D01*
X63268000Y3388000D01*
X63267000Y3430000D01*
X63250000Y3486000D01*
X63248000Y3493000D01*
X63238000Y3543000D01*
X63225000Y3565000D01*
X63218000Y3580000D01*
X63207000Y3615000D01*
X63207000Y3616000D01*
X63175000Y3658000D01*
X63170000Y3666000D01*
X63140000Y3720000D01*
X63139000Y3721000D01*
X63093000Y3762000D01*
X63089000Y3765000D01*
X56918000Y9939000D01*
X56895000Y9994000D01*
X56895000Y17910000D01*
X57081000Y17987000D01*
X57263000Y17804000D01*
X57448000Y17698000D01*
X57645000Y17646000D01*
X57857000Y17646000D01*
X58054000Y17698000D01*
X58241000Y17805000D01*
X58242000Y17806000D01*
X58390000Y17955000D01*
X58391000Y17956000D01*
X58491000Y18128000D01*
X58549000Y18339000D01*
X58549000Y18396000D01*
X58572000Y18451000D01*
X58606000Y18485000D01*
X58619000Y18495000D01*
X58648000Y18514000D01*
X58651000Y18517000D01*
X58681000Y18562000D01*
X58684000Y18565000D01*
X58773000Y18684000D01*
X58776000Y18696000D01*
X58779000Y18704000D01*
X58787000Y18742000D01*
X58788000Y18743000D01*
X58827000Y18909000D01*
X58828000Y18914000D01*
X58818000Y18974000D01*
X58817000Y18986000D01*
X58817000Y19227000D01*
X58819000Y19242000D01*
X58827000Y19282000D01*
X58787000Y19512000D01*
X58786000Y19514000D01*
X58723000Y19607000D01*
X58720000Y19610000D01*
X58674000Y19688000D01*
X58672000Y19690000D01*
X58626000Y19723000D01*
X58617000Y19731000D01*
X57723000Y20625000D01*
X57700000Y20680000D01*
X57700000Y21170000D01*
X57702000Y21185000D01*
X57708000Y21214000D01*
X57700000Y21263000D01*
X57700000Y21264000D01*
X57675000Y21422000D01*
X57672000Y21431000D01*
X57669000Y21443000D01*
X57667000Y21448000D01*
X57617000Y21522000D01*
X57614000Y21525000D01*
X57556000Y21622000D01*
X57509000Y21656000D01*
X57499000Y21664000D01*
X56310000Y22853000D01*
X56289000Y22930000D01*
X56313000Y23022000D01*
X56313000Y23231000D01*
X56261000Y23429000D01*
X56154000Y23616000D01*
X56153000Y23617000D01*
X56004000Y23765000D01*
X56003000Y23766000D01*
X55830000Y23867000D01*
X55620000Y23924000D01*
X55412000Y23924000D01*
X55205000Y23867000D01*
X55203000Y23866000D01*
X55017000Y23759000D01*
X54881000Y23815000D01*
X54809000Y24074000D01*
X54706000Y24254000D01*
X54558000Y24402000D01*
X54372000Y24509000D01*
X54174000Y24561000D01*
X53965000Y24561000D01*
X53760000Y24507000D01*
X53579000Y24402000D01*
X53431000Y24255000D01*
X53430000Y24254000D01*
X53321000Y24063000D01*
X53098000Y24123000D01*
X53098000Y24426000D01*
X53100000Y24441000D01*
X53107000Y24476000D01*
X53092000Y24567000D01*
X53071000Y24690000D01*
X53069000Y24699000D01*
X53068000Y24705000D01*
X53067000Y24708000D01*
X53008000Y24795000D01*
X53005000Y24799000D01*
X52954000Y24884000D01*
X52907000Y24918000D01*
X52897000Y24926000D01*
X47846000Y29977000D01*
X47865000Y30124000D01*
X48100000Y30260000D01*
X48103000Y30262000D01*
X48251000Y30411000D01*
X48353000Y30589000D01*
X48410000Y30794000D01*
X48410000Y31005000D01*
X48353000Y31210000D01*
X48251000Y31388000D01*
X48103000Y31537000D01*
X48102000Y31538000D01*
X47915000Y31645000D01*
X47718000Y31697000D01*
X47683000Y31717000D01*
X47345000Y32055000D01*
X47340000Y32058000D01*
X47323000Y32071000D01*
G37*
%TD.AperFunction*%
%TA.AperFunction,Conductor*%
G36*
X-1012000Y-11330000D02*
G01*
X-1162000Y-11180000D01*
X-1335000Y-11079000D01*
X-1395000Y-11064000D01*
X-1458000Y-10955000D01*
X-1406000Y-10762000D01*
X-1406000Y-10703000D01*
X-1383000Y-10648000D01*
X2344000Y-6921000D01*
X2399000Y-6898000D01*
X40388000Y-6898000D01*
X40465000Y-7083000D01*
X38993000Y-8554000D01*
X38991000Y-8558000D01*
X38978000Y-8575000D01*
X38954000Y-8600000D01*
X38952000Y-8602000D01*
X38923000Y-8659000D01*
X38919000Y-8666000D01*
X38893000Y-8705000D01*
X38882000Y-8748000D01*
X38826000Y-8805000D01*
X38599000Y-8868000D01*
X38593000Y-8870000D01*
X38415000Y-8973000D01*
X38270000Y-9118000D01*
X38270000Y-9119000D01*
X38162000Y-9301000D01*
X38107000Y-9507000D01*
X38087000Y-9541000D01*
X35891000Y-11736000D01*
X35886000Y-11744000D01*
X35878000Y-11754000D01*
X35857000Y-11775000D01*
X35854000Y-11781000D01*
X35827000Y-11834000D01*
X35822000Y-11843000D01*
X35798000Y-11879000D01*
X35795000Y-11885000D01*
X35787000Y-11916000D01*
X35782000Y-11930000D01*
X35771000Y-11951000D01*
X35771000Y-11953000D01*
X35763000Y-12008000D01*
X35761000Y-12018000D01*
X35745000Y-12076000D01*
X35747000Y-12132000D01*
X35747000Y-17425000D01*
X35659000Y-17513000D01*
X35587000Y-17513000D01*
X35383000Y-17567000D01*
X35378000Y-17569000D01*
X35236000Y-17651000D01*
X35156000Y-17651000D01*
X35016000Y-17570000D01*
X34809000Y-17513000D01*
X34598000Y-17513000D01*
X34393000Y-17570000D01*
X34215000Y-17672000D01*
X34066000Y-17820000D01*
X34064000Y-17823000D01*
X33958000Y-18008000D01*
X33906000Y-18205000D01*
X33906000Y-18414000D01*
X33959000Y-18615000D01*
X33961000Y-18620000D01*
X34067000Y-18802000D01*
X34214000Y-18949000D01*
X34217000Y-18951000D01*
X34396000Y-19053000D01*
X34601000Y-19108000D01*
X34806000Y-19108000D01*
X35012000Y-19053000D01*
X35011000Y-19053000D01*
X35156000Y-18970000D01*
X35236000Y-18970000D01*
X35378000Y-19052000D01*
X35383000Y-19054000D01*
X35587000Y-19108000D01*
X35640000Y-19108000D01*
X35709000Y-19148000D01*
X35734000Y-19190000D01*
X35737000Y-19194000D01*
X35884000Y-19341000D01*
X36071000Y-19448000D01*
X36268000Y-19500000D01*
X36477000Y-19500000D01*
X36682000Y-19446000D01*
X36683000Y-19445000D01*
X36863000Y-19341000D01*
X37009000Y-19196000D01*
X37011000Y-19194000D01*
X37151000Y-18951000D01*
X37271000Y-18919000D01*
X37505000Y-19053000D01*
X37710000Y-19108000D01*
X37915000Y-19108000D01*
X38121000Y-19053000D01*
X38120000Y-19053000D01*
X38299000Y-18951000D01*
X38302000Y-18949000D01*
X38449000Y-18802000D01*
X38488000Y-18737000D01*
X38557000Y-18619000D01*
X38606000Y-18509000D01*
X38844000Y-18559000D01*
X38844000Y-21182000D01*
X38843000Y-21195000D01*
X38844000Y-21246000D01*
X38844000Y-21319000D01*
X38845000Y-21327000D01*
X38844000Y-21327000D01*
X38846000Y-21336000D01*
X38847000Y-21345000D01*
X38848000Y-21378000D01*
X38868000Y-21443000D01*
X38871000Y-21453000D01*
X38880000Y-21499000D01*
X38892000Y-21520000D01*
X38898000Y-21534000D01*
X38905000Y-21559000D01*
X38906000Y-21560000D01*
X38938000Y-21604000D01*
X38943000Y-21611000D01*
X38976000Y-21671000D01*
X39032000Y-21721000D01*
X39036000Y-21724000D01*
X39195000Y-21884000D01*
X39118000Y-22069000D01*
X32349000Y-22078000D01*
X22201000Y-22088000D01*
X12051000Y-22094000D01*
X1901000Y-22099000D01*
X-8249000Y-22100000D01*
X-18399000Y-22099000D01*
X-28549000Y-22094000D01*
X-38699000Y-22088000D01*
X-40296000Y-22087000D01*
X-40296000Y-21787000D01*
X-23455000Y-21787000D01*
X-23440000Y-21789000D01*
X-23409000Y-21795000D01*
X-23362000Y-21787000D01*
X-23356000Y-21787000D01*
X-23191000Y-21760000D01*
X-23180000Y-21756000D01*
X-23099000Y-21700000D01*
X-23097000Y-21699000D01*
X-23003000Y-21639000D01*
X-22973000Y-21599000D01*
X-22966000Y-21591000D01*
X-15239000Y-13864000D01*
X-15072000Y-13908000D01*
X-15002000Y-14167000D01*
X-14999000Y-14175000D01*
X-14758000Y-14591000D01*
X-14415000Y-14934000D01*
X-13998000Y-15174000D01*
X-13527000Y-15300000D01*
X-13048000Y-15300000D01*
X-12576000Y-15174000D01*
X-12577000Y-15174000D01*
X-12157000Y-14932000D01*
X-11817000Y-14592000D01*
X-11575000Y-14172000D01*
X-11449000Y-13701000D01*
X-11449000Y-13224000D01*
X-11574000Y-12753000D01*
X-11815000Y-12334000D01*
X-12157000Y-11992000D01*
X-12577000Y-11750000D01*
X-12576000Y-11750000D01*
X-12842000Y-11678000D01*
X-12886000Y-11511000D01*
X-10018000Y-8643000D01*
X-9963000Y-8620000D01*
X-9908000Y-8620000D01*
X-9702000Y-8565000D01*
X-9703000Y-8565000D01*
X-9521000Y-8461000D01*
X-9376000Y-8317000D01*
X-9376000Y-8315000D01*
X-9268000Y-8134000D01*
X-9268000Y-8133000D01*
X-9213000Y-7928000D01*
X-9213000Y-7718000D01*
X-9268000Y-7513000D01*
X-9268000Y-7512000D01*
X-9376000Y-7331000D01*
X-9376000Y-7330000D01*
X-9521000Y-7185000D01*
X-9698000Y-7082000D01*
X-9905000Y-7025000D01*
X-10116000Y-7025000D01*
X-10321000Y-7082000D01*
X-10499000Y-7184000D01*
X-10648000Y-7332000D01*
X-10649000Y-7333000D01*
X-10756000Y-7520000D01*
X-10808000Y-7718000D01*
X-10808000Y-7775000D01*
X-10831000Y-7830000D01*
X-23615000Y-20614000D01*
X-23670000Y-20637000D01*
X-62665000Y-20636000D01*
X-62720000Y-20613000D01*
X-62760000Y-20573000D01*
X-62942000Y-20469000D01*
X-63147000Y-20414000D01*
X-63352000Y-20414000D01*
X-63557000Y-20469000D01*
X-63742000Y-20575000D01*
X-63885000Y-20721000D01*
X-63887000Y-20724000D01*
X-63993000Y-20902000D01*
X-64047000Y-21107000D01*
X-64047000Y-21316000D01*
X-63993000Y-21521000D01*
X-63885000Y-21702000D01*
X-63716000Y-21874000D01*
X-63793000Y-22058000D01*
X-68912000Y-22050000D01*
X-68990000Y-21993000D01*
X-69588000Y-20219000D01*
X-70263000Y-18216000D01*
X-70936000Y-16214000D01*
X-71609000Y-14210000D01*
X-72281000Y-12207000D01*
X-72362803Y-11963000D01*
X-67379000Y-11963000D01*
X-67353000Y-12287000D01*
X-67238000Y-12597000D01*
X-67054000Y-12860000D01*
X-66811000Y-13062000D01*
X-66805000Y-13066000D01*
X-66514000Y-13203000D01*
X-66193000Y-13259000D01*
X-66189000Y-13259000D01*
X-65881000Y-13232000D01*
X-65872000Y-13229000D01*
X-65571000Y-13123000D01*
X-65570000Y-13122000D01*
X-65301000Y-12933000D01*
X-65301000Y-12932000D01*
X-65094000Y-12686000D01*
X-64957000Y-12392000D01*
X-64902000Y-12076000D01*
X-64901000Y-12070000D01*
X-64926000Y-11761000D01*
X-64927000Y-11755000D01*
X-65036000Y-11454000D01*
X-65040000Y-11445000D01*
X-65227000Y-11179000D01*
X-65474000Y-10972000D01*
X-65767000Y-10836000D01*
X-66088000Y-10779000D01*
X-66406000Y-10807000D01*
X-66710000Y-10917000D01*
X-66978000Y-11104000D01*
X-66979000Y-11106000D01*
X-67188000Y-11352000D01*
X-67190000Y-11355000D01*
X-67324000Y-11647000D01*
X-67379000Y-11963000D01*
X-72362803Y-11963000D01*
X-72977000Y-10131000D01*
X-72976000Y-10129000D01*
X-73146951Y-9618000D01*
X-67491000Y-9618000D01*
X-67491000Y-9619000D01*
X-67481000Y-9732000D01*
X-67480000Y-9736000D01*
X-67439000Y-9852000D01*
X-67361000Y-9962000D01*
X-67269000Y-10038000D01*
X-67156000Y-10092000D01*
X-67029000Y-10114000D01*
X-67024000Y-10115000D01*
X-66912000Y-10105000D01*
X-66906000Y-10104000D01*
X-66787000Y-10060000D01*
X-66785000Y-10059000D01*
X-66683000Y-9988000D01*
X-66682000Y-9986000D01*
X-66603000Y-9894000D01*
X-66549000Y-9777000D01*
X-66528000Y-9652000D01*
X-66527000Y-9650000D01*
X-66536000Y-9537000D01*
X-66537000Y-9531000D01*
X-66579000Y-9414000D01*
X-66654000Y-9305000D01*
X-66750000Y-9225000D01*
X-66864000Y-9172000D01*
X-66989000Y-9151000D01*
X-66994000Y-9150000D01*
X-67109000Y-9160000D01*
X-67111000Y-9160000D01*
X-67234000Y-9205000D01*
X-67337000Y-9278000D01*
X-67416000Y-9373000D01*
X-67469000Y-9487000D01*
X-67491000Y-9618000D01*
X-73146951Y-9618000D01*
X-73622000Y-8198000D01*
X-73957501Y-7193000D01*
X-69118000Y-7193000D01*
X-69118000Y-7195000D01*
X-69090000Y-7512000D01*
X-69088000Y-7518000D01*
X-68980000Y-7815000D01*
X-68792000Y-8084000D01*
X-68545000Y-8293000D01*
X-68250000Y-8429000D01*
X-67931000Y-8484000D01*
X-67926000Y-8485000D01*
X-67616000Y-8459000D01*
X-67614000Y-8459000D01*
X-67308000Y-8348000D01*
X-67305000Y-8346000D01*
X-67037000Y-8159000D01*
X-66835000Y-7916000D01*
X-66831000Y-7910000D01*
X-66695000Y-7621000D01*
X-66639000Y-7300000D01*
X-66638000Y-7297000D01*
X-66665000Y-6985000D01*
X-66666000Y-6979000D01*
X-66776000Y-6676000D01*
X-66962000Y-6410000D01*
X-67213000Y-6198000D01*
X-67505000Y-6062000D01*
X-67825000Y-6007000D01*
X-67830000Y-6006000D01*
X-68140000Y-6032000D01*
X-68142000Y-6032000D01*
X-68448000Y-6143000D01*
X-68456000Y-6148000D01*
X-68714000Y-6327000D01*
X-68718000Y-6330000D01*
X-68925000Y-6580000D01*
X-69061000Y-6872000D01*
X-69118000Y-7193000D01*
X-73957501Y-7193000D01*
X-74291000Y-6194000D01*
X-74960000Y-4189000D01*
X-76296000Y-177000D01*
X-76946000Y1781000D01*
X-76950000Y1804000D01*
X-76965000Y3801000D01*
X-76978000Y5851000D01*
X-76978000Y5852000D01*
X-76988000Y7902000D01*
X-76994000Y9950000D01*
X-76999000Y12000000D01*
X-77000000Y14050000D01*
X-76999000Y16099000D01*
X-76999000Y16100000D01*
X-76994000Y18150000D01*
X-76988000Y20198000D01*
X-76978000Y22248000D01*
X-76965000Y24298000D01*
X-76952000Y26111000D01*
X-76895000Y26189000D01*
X-75107000Y26791000D01*
X-73094000Y27468000D01*
X-71080000Y28145000D01*
X-69067000Y28822000D01*
X-67365000Y29393000D01*
X-67240000Y29191000D01*
X-67429000Y29002000D01*
X-67442000Y28992000D01*
X-67473000Y28972000D01*
X-67536000Y28879000D01*
X-67540000Y28877000D01*
X-67595000Y28804000D01*
X-67595000Y28803000D01*
X-67598000Y28794000D01*
X-67600000Y28789000D01*
X-67601000Y28786000D01*
X-67621000Y28699000D01*
X-67621000Y28697000D01*
X-67650000Y28575000D01*
X-67641000Y28521000D01*
X-67640000Y28509000D01*
X-67640000Y25923000D01*
X-67663000Y25868000D01*
X-67974000Y25557000D01*
X-68098000Y25557000D01*
X-68199000Y25658000D01*
X-68377000Y25760000D01*
X-68582000Y25817000D01*
X-68793000Y25817000D01*
X-68998000Y25760000D01*
X-69176000Y25658000D01*
X-69325000Y25509000D01*
X-69434000Y25322000D01*
X-69434000Y25320000D01*
X-69485000Y25125000D01*
X-69485000Y24913000D01*
X-69433000Y24715000D01*
X-69431000Y24711000D01*
X-69325000Y24528000D01*
X-69315000Y24490000D01*
X-69315000Y24163000D01*
X-69316000Y24150000D01*
X-69315000Y24100000D01*
X-69315000Y24024000D01*
X-69314000Y24009000D01*
X-69312000Y23999000D01*
X-69311000Y23965000D01*
X-69310000Y23959000D01*
X-69290000Y23895000D01*
X-69287000Y23885000D01*
X-69280000Y23846000D01*
X-69265000Y23819000D01*
X-69260000Y23807000D01*
X-69253000Y23786000D01*
X-69251000Y23781000D01*
X-69216000Y23732000D01*
X-69212000Y23725000D01*
X-69182000Y23671000D01*
X-69136000Y23630000D01*
X-69132000Y23627000D01*
X-68415000Y22909000D01*
X-68396000Y22876000D01*
X-68341000Y22677000D01*
X-68337000Y22668000D01*
X-68234000Y22488000D01*
X-68086000Y22340000D01*
X-67906000Y22237000D01*
X-67700000Y22180000D01*
X-67636000Y22180000D01*
X-67548000Y22092000D01*
X-67548000Y21984000D01*
X-67550000Y21969000D01*
X-67558000Y21928000D01*
X-67523000Y21725000D01*
X-67522000Y21718000D01*
X-67518000Y21703000D01*
X-67517000Y21698000D01*
X-67454000Y21604000D01*
X-67452000Y21600000D01*
X-67404000Y21520000D01*
X-67357000Y21486000D01*
X-67347000Y21478000D01*
X-66714000Y20845000D01*
X-66704000Y20832000D01*
X-66683000Y20800000D01*
X-66681000Y20797000D01*
X-66609000Y20748000D01*
X-66605000Y20746000D01*
X-66514000Y20677000D01*
X-66513000Y20677000D01*
X-66501000Y20673000D01*
X-66489000Y20668000D01*
X-66385000Y20646000D01*
X-66384000Y20645000D01*
X-66286000Y20623000D01*
X-66284000Y20622000D01*
X-66237000Y20630000D01*
X-66225000Y20631000D01*
X-65206000Y20631000D01*
X-65118000Y20543000D01*
X-65118000Y20330000D01*
X-65066000Y20132000D01*
X-65065000Y20130000D01*
X-64958000Y19945000D01*
X-64809000Y19797000D01*
X-64806000Y19795000D01*
X-64632000Y19695000D01*
X-64628000Y19694000D01*
X-64525000Y19665000D01*
X-64469000Y19609000D01*
X-64439000Y19501000D01*
X-64336000Y19326000D01*
X-64329000Y19317000D01*
X-64186000Y19174000D01*
X-64009000Y19071000D01*
X-63802000Y19014000D01*
X-63591000Y19014000D01*
X-63385000Y19071000D01*
X-63386000Y19071000D01*
X-63211000Y19171000D01*
X-63208000Y19173000D01*
X-63059000Y19321000D01*
X-63058000Y19322000D01*
X-62951000Y19509000D01*
X-62899000Y19706000D01*
X-62899000Y19915000D01*
X-62952000Y20116000D01*
X-62953000Y20120000D01*
X-63059000Y20302000D01*
X-63207000Y20450000D01*
X-63403000Y20562000D01*
X-63442000Y20657000D01*
X-63399000Y20819000D01*
X-63390000Y20893000D01*
X-63275000Y20970000D01*
X-63022000Y20900000D01*
X-62811000Y20900000D01*
X-62605000Y20957000D01*
X-62606000Y20957000D01*
X-62428000Y21059000D01*
X-62281000Y21205000D01*
X-62278000Y21208000D01*
X-62171000Y21395000D01*
X-62119000Y21592000D01*
X-62119000Y21650000D01*
X-62096000Y21705000D01*
X-61926000Y21875000D01*
X-61871000Y21898000D01*
X-61551000Y21898000D01*
X-61496000Y21875000D01*
X-61456000Y21835000D01*
X-61276000Y21732000D01*
X-61070000Y21675000D01*
X-60862000Y21675000D01*
X-60652000Y21732000D01*
X-60479000Y21833000D01*
X-60478000Y21834000D01*
X-60329000Y21982000D01*
X-60328000Y21983000D01*
X-60221000Y22170000D01*
X-60169000Y22367000D01*
X-60169000Y22576000D01*
X-60222000Y22777000D01*
X-60224000Y22782000D01*
X-60330000Y22964000D01*
X-60475000Y23109000D01*
X-60657000Y23215000D01*
X-60659000Y23216000D01*
X-60863000Y23270000D01*
X-61072000Y23270000D01*
X-61269000Y23218000D01*
X-61456000Y23111000D01*
X-61496000Y23071000D01*
X-61551000Y23048000D01*
X-62086000Y23048000D01*
X-62101000Y23050000D01*
X-62132000Y23056000D01*
X-62179000Y23048000D01*
X-62185000Y23048000D01*
X-62341000Y23022000D01*
X-62353000Y23018000D01*
X-62357000Y23017000D01*
X-62363000Y23015000D01*
X-62441000Y22962000D01*
X-62446000Y22959000D01*
X-62537000Y22906000D01*
X-62540000Y22903000D01*
X-62578000Y22850000D01*
X-62586000Y22841000D01*
X-62909000Y22518000D01*
X-62964000Y22495000D01*
X-63019000Y22495000D01*
X-63224000Y22440000D01*
X-63406000Y22336000D01*
X-63408000Y22334000D01*
X-63551000Y22190000D01*
X-63553000Y22188000D01*
X-63671000Y21989000D01*
X-63877000Y22026000D01*
X-63904000Y22182000D01*
X-63905000Y22195000D01*
X-63905000Y26596000D01*
X-63860000Y26668000D01*
X-63830000Y26683000D01*
X-63688000Y26825000D01*
X-63681000Y26834000D01*
X-63592000Y26985000D01*
X-63581000Y27000000D01*
X-62678000Y27902000D01*
X-62623000Y27925000D01*
X-56844000Y27925000D01*
X-56814000Y27919000D01*
X-56787000Y27907000D01*
X-56749000Y27898000D01*
X-56732000Y27892000D01*
X-56721000Y27886000D01*
X-56654000Y27876000D01*
X-56648000Y27875000D01*
X-56594000Y27862000D01*
X-54956000Y27862000D01*
X-54901000Y27839000D01*
X-20261000Y-6802000D01*
X-20249000Y-6810000D01*
X-20240000Y-6818000D01*
X-20218000Y-6840000D01*
X-20216000Y-6841000D01*
X-20165000Y-6866000D01*
X-20157000Y-6871000D01*
X-20111000Y-6900000D01*
X-20081000Y-6908000D01*
X-20065000Y-6914000D01*
X-20042000Y-6926000D01*
X-19985000Y-6934000D01*
X-19975000Y-6936000D01*
X-19917000Y-6952000D01*
X-19872000Y-6950000D01*
X-16156000Y-6950000D01*
X-16146000Y-6951000D01*
X-16108000Y-6950000D01*
X-16021000Y-6950000D01*
X-16013000Y-6949000D01*
X-16013000Y-6950000D01*
X-16004000Y-6948000D01*
X-15995000Y-6947000D01*
X-15961000Y-6946000D01*
X-15905000Y-6929000D01*
X-15898000Y-6927000D01*
X-15847000Y-6916000D01*
X-15826000Y-6905000D01*
X-15813000Y-6899000D01*
X-15781000Y-6889000D01*
X-15782000Y-6889000D01*
X-15733000Y-6853000D01*
X-15670000Y-6818000D01*
X-15629000Y-6773000D01*
X-15626000Y-6770000D01*
X-15547985Y-6692000D01*
X-7884000Y-6692000D01*
X-7884000Y-6900000D01*
X-7827000Y-7110000D01*
X-7723000Y-7288000D01*
X-7713000Y-7326000D01*
X-7713000Y-12063000D01*
X-7714000Y-12076000D01*
X-7713000Y-12130000D01*
X-7713000Y-12199000D01*
X-7712000Y-12207000D01*
X-7713000Y-12207000D01*
X-7711000Y-12216000D01*
X-7710000Y-12225000D01*
X-7709000Y-12259000D01*
X-7692000Y-12315000D01*
X-7690000Y-12322000D01*
X-7679000Y-12374000D01*
X-7668000Y-12394000D01*
X-7662000Y-12407000D01*
X-7652000Y-12438000D01*
X-7616000Y-12487000D01*
X-7611000Y-12496000D01*
X-7580000Y-12551000D01*
X-7533000Y-12594000D01*
X-6191000Y-13936000D01*
X-6179000Y-13951000D01*
X-6068000Y-14143000D01*
X-6065000Y-14146000D01*
X-5919000Y-14293000D01*
X-5918000Y-14294000D01*
X-5731000Y-14401000D01*
X-5493000Y-14464000D01*
X-5431000Y-14545000D01*
X-5431000Y-15221000D01*
X-5432000Y-15236000D01*
X-5431000Y-15284000D01*
X-5431000Y-15354000D01*
X-5430000Y-15368000D01*
X-5428000Y-15379000D01*
X-5427000Y-15415000D01*
X-5410000Y-15471000D01*
X-5408000Y-15478000D01*
X-5397000Y-15529000D01*
X-5386000Y-15550000D01*
X-5380000Y-15563000D01*
X-5370000Y-15594000D01*
X-5334000Y-15643000D01*
X-5329000Y-15652000D01*
X-5298000Y-15707000D01*
X-5297000Y-15708000D01*
X-5251000Y-15750000D01*
X-5248000Y-15753000D01*
X-2850000Y-18152000D01*
X-2830000Y-18186000D01*
X-2776000Y-18388000D01*
X-2672000Y-18570000D01*
X-2525000Y-18717000D01*
X-2343000Y-18823000D01*
X-2341000Y-18824000D01*
X-2137000Y-18878000D01*
X-1928000Y-18878000D01*
X-1731000Y-18826000D01*
X-1581000Y-18740000D01*
X-1501000Y-18740000D01*
X-1351000Y-18826000D01*
X-1154000Y-18878000D01*
X-1059000Y-18878000D01*
X-1025000Y-18886000D01*
X-1017000Y-18890000D01*
X-1002000Y-18895000D01*
X-916000Y-18913000D01*
X-914000Y-18914000D01*
X-793000Y-18943000D01*
X-792000Y-18943000D01*
X-738000Y-18934000D01*
X-726000Y-18933000D01*
X1902000Y-18933000D01*
X1917000Y-18935000D01*
X1952000Y-18942000D01*
X2043000Y-18927000D01*
X2166000Y-18906000D01*
X2175000Y-18904000D01*
X2181000Y-18903000D01*
X2183000Y-18902000D01*
X2225000Y-18873000D01*
X2290000Y-18863000D01*
X2347000Y-18878000D01*
X2554000Y-18878000D01*
X2758000Y-18824000D01*
X2760000Y-18823000D01*
X2942000Y-18717000D01*
X3089000Y-18570000D01*
X3193000Y-18388000D01*
X3248000Y-18183000D01*
X3248000Y-17978000D01*
X3193000Y-17773000D01*
X3089000Y-17591000D01*
X2942000Y-17444000D01*
X2760000Y-17338000D01*
X2758000Y-17337000D01*
X2554000Y-17283000D01*
X2345000Y-17283000D01*
X2148000Y-17335000D01*
X1961000Y-17442000D01*
X1960000Y-17443000D01*
X1812000Y-17592000D01*
X1725000Y-17743000D01*
X1655000Y-17783000D01*
X-253000Y-17783000D01*
X-323000Y-17742000D01*
X-404000Y-17599000D01*
X-409000Y-17592000D01*
X-557000Y-17443000D01*
X-558000Y-17442000D01*
X-745000Y-17335000D01*
X-942000Y-17283000D01*
X-1154000Y-17283000D01*
X-1351000Y-17335000D01*
X-1501000Y-17421000D01*
X-1581000Y-17421000D01*
X-1731000Y-17335000D01*
X-1931000Y-17282000D01*
X-1965000Y-17262000D01*
X-4154000Y-15072000D01*
X-4177000Y-15017000D01*
X-4177000Y-6851000D01*
X-4167000Y-6813000D01*
X-4062000Y-6632000D01*
X-4007000Y-6426000D01*
X-4007000Y-6221000D01*
X-4061000Y-6018000D01*
X-4166000Y-5834000D01*
X-4315000Y-5685000D01*
X-4497000Y-5581000D01*
X-4702000Y-5526000D01*
X-4907000Y-5526000D01*
X-5112000Y-5581000D01*
X-5294000Y-5685000D01*
X-5443000Y-5834000D01*
X-5548000Y-6018000D01*
X-5602000Y-6221000D01*
X-5602000Y-6426000D01*
X-5547000Y-6632000D01*
X-5441000Y-6815000D01*
X-5431000Y-6853000D01*
X-5431000Y-12660000D01*
X-5616000Y-12737000D01*
X-6436000Y-11916000D01*
X-6459000Y-11861000D01*
X-6459000Y-7325000D01*
X-6449000Y-7287000D01*
X-6344000Y-7105000D01*
X-6343000Y-7104000D01*
X-6289000Y-6899000D01*
X-6289000Y-6690000D01*
X-6340000Y-6495000D01*
X-6340000Y-6493000D01*
X-6448000Y-6306000D01*
X-6596000Y-6158000D01*
X-6776000Y-6055000D01*
X-6775000Y-6055000D01*
X-6982000Y-5998000D01*
X-7190000Y-5998000D01*
X-7396000Y-6055000D01*
X-7576000Y-6158000D01*
X-7724000Y-6306000D01*
X-7827000Y-6486000D01*
X-7884000Y-6692000D01*
X-15547985Y-6692000D01*
X-10428000Y-1573000D01*
X-10394000Y-1553000D01*
X-10184000Y-1496000D01*
X-10186000Y-1496000D01*
X-10013000Y-1396000D01*
X-10010000Y-1394000D01*
X-9861000Y-1246000D01*
X-9860000Y-1245000D01*
X-9753000Y-1058000D01*
X-9701000Y-861000D01*
X-9701000Y-652000D01*
X-9754000Y-451000D01*
X-9757000Y-442000D01*
X-9817000Y-341000D01*
X-9817000Y-260000D01*
X-9756000Y-154000D01*
X-9701000Y50000D01*
X-9701000Y255000D01*
X-9755000Y459000D01*
X-9757000Y464000D01*
X-9848000Y623000D01*
X-9848000Y703000D01*
X-9757000Y862000D01*
X-9756000Y864000D01*
X-9701000Y1068000D01*
X-9701000Y1275000D01*
X-9763000Y1505000D01*
X-9761000Y1550000D01*
X-9756000Y1564000D01*
X-9701000Y1774000D01*
X-9701000Y1986000D01*
X-9753000Y2183000D01*
X-9863000Y2375000D01*
X-9863000Y2456000D01*
X-9757000Y2636000D01*
X-9754000Y2645000D01*
X-9701000Y2846000D01*
X-9701000Y3055000D01*
X-9752000Y3250000D01*
X-9752000Y3251000D01*
X-9861000Y3439000D01*
X-10011000Y3589000D01*
X-10184000Y3690000D01*
X-10394000Y3747000D01*
X-10602000Y3747000D01*
X-10808000Y3690000D01*
X-10988000Y3587000D01*
X-11137000Y3438000D01*
X-11138000Y3436000D01*
X-11239000Y3259000D01*
X-11297000Y3053000D01*
X-11316000Y3020000D01*
X-17271000Y-2935000D01*
X-17281000Y-2950000D01*
X-17291000Y-2962000D01*
X-17313000Y-2984000D01*
X-17344000Y-3047000D01*
X-17417000Y-3093000D01*
X-19445000Y-3093000D01*
X-19500000Y-3070000D01*
X-27293757Y4724000D01*
X21516000Y4724000D01*
X21516000Y4514000D01*
X21568000Y4318000D01*
X21675000Y4131000D01*
X21676000Y4130000D01*
X21825000Y3982000D01*
X22003000Y3880000D01*
X22208000Y3823000D01*
X22419000Y3823000D01*
X22626000Y3880000D01*
X22800000Y3981000D01*
X22803000Y3983000D01*
X22894000Y4074000D01*
X23018000Y4074000D01*
X23108000Y3984000D01*
X23287000Y3877000D01*
X23492000Y3823000D01*
X23703000Y3823000D01*
X23932000Y3884000D01*
X23971000Y3884000D01*
X24202000Y3823000D01*
X24411000Y3823000D01*
X24615000Y3877000D01*
X24796000Y3985000D01*
X24798000Y3986000D01*
X24975000Y4159000D01*
X25098000Y4159000D01*
X25271000Y3986000D01*
X25453000Y3878000D01*
X25659000Y3823000D01*
X25870000Y3823000D01*
X26074000Y3877000D01*
X26252000Y3983000D01*
X26403000Y4132000D01*
X26527000Y4132000D01*
X26673000Y3986000D01*
X26855000Y3878000D01*
X27061000Y3823000D01*
X27271000Y3823000D01*
X27476000Y3878000D01*
X27477000Y3878000D01*
X27658000Y3986000D01*
X27659000Y3986000D01*
X27804000Y4131000D01*
X27907000Y4310000D01*
X27963000Y4518000D01*
X27963000Y4723000D01*
X27909000Y4925000D01*
X27907000Y4931000D01*
X27803000Y5113000D01*
X27793000Y5150000D01*
X27793000Y7405000D01*
X27816000Y7460000D01*
X29607000Y9250000D01*
X29642000Y9270000D01*
X29839000Y9322000D01*
X30026000Y9429000D01*
X30174000Y9577000D01*
X30277000Y9757000D01*
X30334000Y9963000D01*
X30334000Y10171000D01*
X30277000Y10377000D01*
X30174000Y10557000D01*
X30026000Y10705000D01*
X29839000Y10812000D01*
X29642000Y10864000D01*
X29398000Y10864000D01*
X29349000Y10881000D01*
X29329000Y10897000D01*
X29148000Y11003000D01*
X29146000Y11004000D01*
X28942000Y11058000D01*
X28733000Y11058000D01*
X28536000Y11006000D01*
X28332000Y10889000D01*
X28251000Y10889000D01*
X28057000Y11002000D01*
X28052000Y11004000D01*
X27848000Y11058000D01*
X27639000Y11058000D01*
X27442000Y11006000D01*
X27245000Y10893000D01*
X27203000Y10868000D01*
X27112000Y10873000D01*
X27080000Y10897000D01*
X26889000Y11006000D01*
X26692000Y11058000D01*
X26483000Y11058000D01*
X26279000Y11004000D01*
X26277000Y11003000D01*
X26094000Y10897000D01*
X26051000Y10862000D01*
X25948000Y10860000D01*
X25899000Y10897000D01*
X25709000Y11006000D01*
X25512000Y11058000D01*
X25300000Y11058000D01*
X25103000Y11006000D01*
X24916000Y10899000D01*
X24915000Y10898000D01*
X24767000Y10749000D01*
X24766000Y10748000D01*
X24665000Y10575000D01*
X24608000Y10365000D01*
X24608000Y10308000D01*
X24585000Y10253000D01*
X21957000Y7625000D01*
X21945000Y7615000D01*
X21909000Y7591000D01*
X21902000Y7584000D01*
X21844000Y7499000D01*
X21842000Y7497000D01*
X21783000Y7419000D01*
X21782000Y7415000D01*
X21780000Y7411000D01*
X21776000Y7399000D01*
X21748000Y7268000D01*
X21747000Y7266000D01*
X21730000Y7192000D01*
X21729000Y7190000D01*
X21737000Y7143000D01*
X21738000Y7131000D01*
X21738000Y5205000D01*
X21715000Y5150000D01*
X21677000Y5112000D01*
X21571000Y4930000D01*
X21569000Y4925000D01*
X21516000Y4724000D01*
X-27293757Y4724000D01*
X-29096701Y6527000D01*
X-24082000Y6527000D01*
X-24082000Y6322000D01*
X-24027000Y6117000D01*
X-23923000Y5935000D01*
X-23774000Y5786000D01*
X-23771000Y5784000D01*
X-23592000Y5682000D01*
X-23387000Y5627000D01*
X-23182000Y5627000D01*
X-22976000Y5682000D01*
X-22977000Y5682000D01*
X-22792000Y5788000D01*
X-22793000Y5788000D01*
X-22650000Y5933000D01*
X-22649000Y5935000D01*
X-22541000Y6115000D01*
X-22491000Y6306000D01*
X-22471000Y6340000D01*
X-20538000Y8273000D01*
X-20503000Y8293000D01*
X-20404000Y8318000D01*
X-20217000Y8426000D01*
X-20216000Y8427000D01*
X-20068000Y8576000D01*
X-19966000Y8754000D01*
X-19909000Y8959000D01*
X-19909000Y9169000D01*
X-19966000Y9377000D01*
X-20069000Y9554000D01*
X-20213000Y9698000D01*
X-20215000Y9699000D01*
X-20396000Y9807000D01*
X-20397000Y9807000D01*
X-20619000Y9866000D01*
X-20675000Y9923000D01*
X-20699000Y10010000D01*
X-20802000Y10184000D01*
X-20807000Y10191000D01*
X-20950000Y10336000D01*
X-20949000Y10336000D01*
X-21134000Y10442000D01*
X-21339000Y10497000D01*
X-21544000Y10497000D01*
X-21749000Y10442000D01*
X-21931000Y10338000D01*
X-22080000Y10189000D01*
X-22184000Y10007000D01*
X-22239000Y9802000D01*
X-22239000Y9597000D01*
X-22184000Y9392000D01*
X-22078000Y9207000D01*
X-21933000Y9065000D01*
X-21931000Y9063000D01*
X-21817000Y8995000D01*
X-21799000Y8850000D01*
X-23425000Y7224000D01*
X-23459000Y7204000D01*
X-23594000Y7168000D01*
X-23774000Y7060000D01*
X-23776000Y7059000D01*
X-23921000Y6917000D01*
X-24027000Y6732000D01*
X-24082000Y6527000D01*
X-29096701Y6527000D01*
X-51543000Y28974000D01*
X-51544000Y28975000D01*
X-51609000Y29039000D01*
X-51633000Y29095000D01*
X-51633000Y29476000D01*
X-51632000Y29480000D01*
X-51633000Y29507000D01*
X-51633000Y29605000D01*
X-51634000Y29613000D01*
X-51633000Y29613000D01*
X-51635000Y29622000D01*
X-51636000Y29631000D01*
X-51637000Y29666000D01*
X-51657000Y29731000D01*
X-51660000Y29740000D01*
X-51667000Y29779000D01*
X-51680000Y29804000D01*
X-51685000Y29816000D01*
X-51695000Y29846000D01*
X-51697000Y29849000D01*
X-51734000Y29901000D01*
X-51738000Y29909000D01*
X-51764000Y29956000D01*
X-51765000Y29957000D01*
X-51802000Y29990000D01*
X-51806000Y29993000D01*
X-52757000Y30946000D01*
X-52762000Y30949000D01*
X-52779000Y30962000D01*
X-52804000Y30987000D01*
X-52855000Y31012000D01*
X-52863000Y31017000D01*
X-52909000Y31046000D01*
X-52939000Y31054000D01*
X-52955000Y31060000D01*
X-52978000Y31072000D01*
X-53035000Y31080000D01*
X-53045000Y31082000D01*
X-53103000Y31098000D01*
X-53148000Y31096000D01*
X-53542000Y31096000D01*
X-53551000Y31097000D01*
X-53592000Y31096000D01*
X-53679000Y31096000D01*
X-53687000Y31095000D01*
X-53687000Y31096000D01*
X-53696000Y31094000D01*
X-53705000Y31093000D01*
X-53739000Y31092000D01*
X-53795000Y31075000D01*
X-53802000Y31073000D01*
X-53853000Y31062000D01*
X-53874000Y31051000D01*
X-53887000Y31045000D01*
X-53919000Y31035000D01*
X-53920000Y31034000D01*
X-53967000Y30999000D01*
X-53976000Y30994000D01*
X-54031000Y30963000D01*
X-54074000Y30916000D01*
X-54077000Y30913000D01*
X-54514000Y30477000D01*
X-54569000Y30454000D01*
X-63411000Y30454000D01*
X-63452000Y30706000D01*
X-63029000Y30847000D01*
X-61017000Y31522000D01*
X-59005000Y32195000D01*
X-56994000Y32868000D01*
X-54982000Y33541000D01*
X-53022000Y34196000D01*
X-52998000Y34200000D01*
X-44243000Y34203000D01*
X-40902000Y34204000D01*
X-40819000Y34041000D01*
X-40919000Y33901000D01*
X-40966000Y33675000D01*
X-40958000Y33627000D01*
X-40957000Y33614000D01*
X-40957000Y29590000D01*
X-40959000Y29575000D01*
X-40966000Y29539000D01*
X-40948000Y29435000D01*
X-40930000Y29326000D01*
X-40928000Y29319000D01*
X-40927000Y29311000D01*
X-40925000Y29307000D01*
X-40868000Y29223000D01*
X-40865000Y29219000D01*
X-40814000Y29133000D01*
X-40813000Y29132000D01*
X-40766000Y29098000D01*
X-40756000Y29090000D01*
X-36291000Y24626000D01*
X-36280000Y24611000D01*
X-36262000Y24581000D01*
X-36260000Y24579000D01*
X-36187000Y24526000D01*
X-36186000Y24525000D01*
X-36082000Y24448000D01*
X-35852000Y24392000D01*
X-35844000Y24393000D01*
X-35621000Y24430000D01*
X-35620000Y24431000D01*
X-35549000Y24476000D01*
X-35547000Y24477000D01*
X-35435000Y24544000D01*
X-35424000Y24555000D01*
X-35383000Y24616000D01*
X-35382000Y24618000D01*
X-35292000Y24743000D01*
X-35291000Y24745000D01*
X-35275000Y24769000D01*
X-33987000Y26057000D01*
X-33932000Y26080000D01*
X-33874000Y26080000D01*
X-33677000Y26132000D01*
X-33490000Y26239000D01*
X-33341000Y26389000D01*
X-33240000Y26564000D01*
X-33182000Y26770000D01*
X-33182000Y26943000D01*
X-33142000Y27013000D01*
X-32915000Y27143000D01*
X-32875000Y27183000D01*
X-32820000Y27206000D01*
X-31853000Y27206000D01*
X-31776000Y27021000D01*
X-31918000Y26879000D01*
X-32019000Y26706000D01*
X-32076000Y26495000D01*
X-32076000Y26286000D01*
X-32019000Y26081000D01*
X-32018000Y26079000D01*
X-31916000Y25902000D01*
X-31768000Y25754000D01*
X-31588000Y25651000D01*
X-31382000Y25594000D01*
X-31174000Y25594000D01*
X-30964000Y25651000D01*
X-30791000Y25752000D01*
X-30790000Y25753000D01*
X-30641000Y25901000D01*
X-30640000Y25902000D01*
X-30533000Y26089000D01*
X-30481000Y26284000D01*
X-30481000Y26345000D01*
X-30458000Y26400000D01*
X-29997000Y26861000D01*
X-29942000Y26884000D01*
X-27375000Y26884000D01*
X-27320000Y26861000D01*
X-27278000Y26819000D01*
X-27199000Y26774000D01*
X-27159000Y26704000D01*
X-27159000Y26477000D01*
X-27104000Y26270000D01*
X-26999000Y26090000D01*
X-26853000Y25943000D01*
X-26852000Y25942000D01*
X-26665000Y25835000D01*
X-26468000Y25783000D01*
X-26409000Y25783000D01*
X-26354000Y25760000D01*
X-22843000Y22249000D01*
X-22820000Y22194000D01*
X-22820000Y21369000D01*
X-22843000Y21314000D01*
X-22884000Y21273000D01*
X-22885000Y21271000D01*
X-22990000Y21087000D01*
X-23042000Y20890000D01*
X-23042000Y20676000D01*
X-22990000Y20481000D01*
X-22883000Y20294000D01*
X-22735000Y20146000D01*
X-22732000Y20144000D01*
X-22555000Y20043000D01*
X-22349000Y19986000D01*
X-22141000Y19986000D01*
X-21934000Y20043000D01*
X-21935000Y20043000D01*
X-21849000Y20092000D01*
X-21768000Y20092000D01*
X-21682000Y20042000D01*
X-21478000Y19986000D01*
X-21270000Y19986000D01*
X-21060000Y20043000D01*
X-20889000Y20143000D01*
X-20887000Y20144000D01*
X-20738000Y20292000D01*
X-20736000Y20294000D01*
X-20629000Y20481000D01*
X-20577000Y20676000D01*
X-20577000Y20887000D01*
X-20630000Y21088000D01*
X-20632000Y21093000D01*
X-20738000Y21275000D01*
X-20776000Y21313000D01*
X-20799000Y21368000D01*
X-20799000Y21819000D01*
X-20577000Y21879000D01*
X-20489000Y21728000D01*
X-20343000Y21581000D01*
X-20342000Y21580000D01*
X-20155000Y21473000D01*
X-19958000Y21421000D01*
X-19746000Y21421000D01*
X-19549000Y21473000D01*
X-19362000Y21580000D01*
X-19361000Y21581000D01*
X-19215000Y21728000D01*
X-19111000Y21907000D01*
X-19110000Y21908000D01*
X-19055000Y22115000D01*
X-19055000Y22170000D01*
X-19032000Y22225000D01*
X-18044000Y23213000D01*
X-18031000Y23223000D01*
X-18000000Y23243000D01*
X-17995000Y23247000D01*
X-17951000Y23314000D01*
X-17948000Y23318000D01*
X-17877000Y23412000D01*
X-17871000Y23429000D01*
X-17867000Y23437000D01*
X-17850000Y23521000D01*
X-17849000Y23523000D01*
X-17822000Y23641000D01*
X-17821000Y23643000D01*
X-17829000Y23690000D01*
X-17830000Y23702000D01*
X-17830000Y25807000D01*
X-17807000Y25862000D01*
X-17767000Y25902000D01*
X-17660000Y26089000D01*
X-17609867Y26277000D01*
X-15126000Y26277000D01*
X-15126000Y25799000D01*
X-15000000Y25328000D01*
X-14999000Y25325000D01*
X-14759000Y24910000D01*
X-14415000Y24566000D01*
X-13998000Y24326000D01*
X-13527000Y24200000D01*
X-13048000Y24200000D01*
X-12576000Y24326000D01*
X-12577000Y24326000D01*
X-12157000Y24568000D01*
X-11817000Y24908000D01*
X-11575000Y25328000D01*
X-11449000Y25799000D01*
X-11449000Y26277000D01*
X-11575000Y26749000D01*
X-11815000Y27166000D01*
X-12037000Y27388000D01*
X-7527000Y27388000D01*
X-7527000Y24688000D01*
X-4827000Y24688000D01*
X-4827000Y25067000D01*
X-4642000Y25144000D01*
X-4461000Y24963000D01*
X-4161000Y24789000D01*
X-4158000Y24788000D01*
X-3811000Y24695000D01*
X-3461000Y24695000D01*
X-3116000Y24788000D01*
X-2814000Y24963000D01*
X-2562000Y25215000D01*
X-2453000Y25402000D01*
X-2280000Y25402000D01*
X-2173000Y25215000D01*
X-1921000Y24963000D01*
X-1621000Y24789000D01*
X-1618000Y24788000D01*
X-1271000Y24695000D01*
X-921000Y24695000D01*
X-575000Y24788000D01*
X-576000Y24788000D01*
X-274000Y24963000D01*
X-22000Y25215000D01*
X87000Y25402000D01*
X260000Y25402000D01*
X367000Y25215000D01*
X619000Y24963000D01*
X919000Y24789000D01*
X922000Y24788000D01*
X1269000Y24695000D01*
X1619000Y24695000D01*
X1965000Y24788000D01*
X1964000Y24788000D01*
X2266000Y24963000D01*
X2518000Y25215000D01*
X2627000Y25402000D01*
X2800000Y25402000D01*
X2907000Y25215000D01*
X3159000Y24963000D01*
X3459000Y24789000D01*
X3462000Y24788000D01*
X3809000Y24695000D01*
X4159000Y24695000D01*
X4505000Y24788000D01*
X4504000Y24788000D01*
X4806000Y24963000D01*
X5058000Y25215000D01*
X5167000Y25402000D01*
X5340000Y25402000D01*
X5447000Y25215000D01*
X5699000Y24963000D01*
X5999000Y24789000D01*
X6002000Y24788000D01*
X6349000Y24695000D01*
X6699000Y24695000D01*
X7045000Y24788000D01*
X7044000Y24788000D01*
X7346000Y24963000D01*
X7598000Y25215000D01*
X7772000Y25516000D01*
X7773000Y25519000D01*
X7865000Y25863000D01*
X7865000Y26099000D01*
X8567000Y26099000D01*
X8567000Y25975000D01*
X8602000Y25846000D01*
X8667000Y25733000D01*
X8761000Y25639000D01*
X8868000Y25577000D01*
X8999000Y25542000D01*
X9126000Y25542000D01*
X9257000Y25577000D01*
X9364000Y25639000D01*
X9461000Y25736000D01*
X9526000Y25847000D01*
X9558000Y25971000D01*
X9558000Y26105000D01*
X9530016Y26211000D01*
X10260000Y26211000D01*
X10260000Y25863000D01*
X10352000Y25519000D01*
X10353000Y25516000D01*
X10527000Y25215000D01*
X10779000Y24963000D01*
X11079000Y24789000D01*
X11082000Y24788000D01*
X11429000Y24695000D01*
X11779000Y24695000D01*
X12125000Y24788000D01*
X12124000Y24788000D01*
X12426000Y24963000D01*
X12678000Y25215000D01*
X12852000Y25516000D01*
X12853000Y25519000D01*
X12945000Y25863000D01*
X12945000Y26211000D01*
X12927400Y26277000D01*
X16874000Y26277000D01*
X16874000Y25799000D01*
X17000000Y25328000D01*
X17001000Y25325000D01*
X17241000Y24910000D01*
X17585000Y24566000D01*
X18002000Y24326000D01*
X18473000Y24200000D01*
X18952000Y24200000D01*
X19424000Y24326000D01*
X19423000Y24326000D01*
X19843000Y24568000D01*
X20183000Y24908000D01*
X20425000Y25328000D01*
X20551000Y25799000D01*
X20551000Y26277000D01*
X20425000Y26749000D01*
X20185000Y27166000D01*
X19843000Y27508000D01*
X19423000Y27750000D01*
X19424000Y27750000D01*
X18953000Y27877000D01*
X18472000Y27877000D01*
X18001000Y27750000D01*
X17584000Y27509000D01*
X17241000Y27166000D01*
X17001000Y26752000D01*
X17000000Y26749000D01*
X16874000Y26277000D01*
X12927400Y26277000D01*
X12853000Y26556000D01*
X12676000Y26864000D01*
X12427000Y27113000D01*
X12122000Y27288000D01*
X12123000Y27288000D01*
X11779000Y27381000D01*
X11429000Y27381000D01*
X11083000Y27288000D01*
X10778000Y27113000D01*
X10529000Y26864000D01*
X10352000Y26556000D01*
X10260000Y26211000D01*
X9530016Y26211000D01*
X9525000Y26230000D01*
X9462000Y26339000D01*
X9460000Y26342000D01*
X9368000Y26434000D01*
X9255000Y26499000D01*
X9256000Y26499000D01*
X9126000Y26534000D01*
X8999000Y26534000D01*
X8870000Y26499000D01*
X8757000Y26434000D01*
X8667000Y26344000D01*
X8602000Y26231000D01*
X8567000Y26099000D01*
X7865000Y26099000D01*
X7865000Y26211000D01*
X7773000Y26556000D01*
X7596000Y26864000D01*
X7347000Y27113000D01*
X7042000Y27288000D01*
X7043000Y27288000D01*
X6699000Y27381000D01*
X6349000Y27381000D01*
X6003000Y27288000D01*
X5698000Y27113000D01*
X5449000Y26864000D01*
X5340000Y26674000D01*
X5167000Y26674000D01*
X5056000Y26864000D01*
X4807000Y27113000D01*
X4502000Y27288000D01*
X4503000Y27288000D01*
X4159000Y27381000D01*
X3809000Y27381000D01*
X3463000Y27288000D01*
X3158000Y27113000D01*
X2909000Y26864000D01*
X2800000Y26674000D01*
X2627000Y26674000D01*
X2516000Y26864000D01*
X2267000Y27113000D01*
X1962000Y27288000D01*
X1963000Y27288000D01*
X1619000Y27381000D01*
X1269000Y27381000D01*
X923000Y27288000D01*
X618000Y27113000D01*
X369000Y26864000D01*
X260000Y26674000D01*
X87000Y26674000D01*
X-24000Y26864000D01*
X-273000Y27113000D01*
X-578000Y27288000D01*
X-577000Y27288000D01*
X-921000Y27381000D01*
X-1271000Y27381000D01*
X-1617000Y27288000D01*
X-1922000Y27113000D01*
X-2171000Y26864000D01*
X-2280000Y26674000D01*
X-2453000Y26674000D01*
X-2564000Y26864000D01*
X-2813000Y27113000D01*
X-3118000Y27288000D01*
X-3117000Y27288000D01*
X-3461000Y27381000D01*
X-3811000Y27381000D01*
X-4157000Y27288000D01*
X-4462000Y27113000D01*
X-4642000Y26933000D01*
X-4827000Y27010000D01*
X-4827000Y27388000D01*
X-7527000Y27388000D01*
X-12037000Y27388000D01*
X-12157000Y27508000D01*
X-12577000Y27750000D01*
X-12576000Y27750000D01*
X-13047000Y27877000D01*
X-13528000Y27877000D01*
X-13999000Y27750000D01*
X-14416000Y27509000D01*
X-14759000Y27166000D01*
X-14999000Y26752000D01*
X-15000000Y26749000D01*
X-15126000Y26277000D01*
X-17609867Y26277000D01*
X-17608000Y26284000D01*
X-17608000Y26495000D01*
X-17661000Y26696000D01*
X-17663000Y26701000D01*
X-17769000Y26883000D01*
X-17916000Y27030000D01*
X-18098000Y27134000D01*
X-18097000Y27134000D01*
X-18303000Y27189000D01*
X-18607000Y27189000D01*
X-18684000Y27374000D01*
X-17542000Y28516000D01*
X-17487000Y28539000D01*
X-17432000Y28539000D01*
X-17227000Y28593000D01*
X-17226000Y28594000D01*
X-17046000Y28698000D01*
X-16899000Y28844000D01*
X-16897000Y28846000D01*
X-16790000Y29033000D01*
X-16738000Y29229000D01*
X-16738000Y29441000D01*
X-16776000Y29582000D01*
X-16686000Y29700000D01*
X30021000Y29700000D01*
X30076000Y29677000D01*
X35728000Y24024000D01*
X35708000Y23877000D01*
X35495000Y23757000D01*
X35395000Y23770000D01*
X35310000Y23855000D01*
X35123000Y23962000D01*
X34926000Y24014000D01*
X34714000Y24014000D01*
X34517000Y23962000D01*
X34330000Y23855000D01*
X34329000Y23854000D01*
X34182000Y23706000D01*
X34078000Y23526000D01*
X34076000Y23521000D01*
X34023000Y23318000D01*
X34023000Y23265000D01*
X34000000Y23210000D01*
X30101000Y19311000D01*
X30046000Y19288000D01*
X27227000Y19288000D01*
X27212000Y19290000D01*
X27177000Y19297000D01*
X27086000Y19282000D01*
X26964000Y19261000D01*
X26954000Y19259000D01*
X26948000Y19258000D01*
X26945000Y19257000D01*
X26864000Y19202000D01*
X26861000Y19199000D01*
X26769000Y19144000D01*
X26768000Y19143000D01*
X26735000Y19097000D01*
X26727000Y19087000D01*
X24375000Y16735000D01*
X24320000Y16712000D01*
X24204000Y16712000D01*
X23999000Y16657000D01*
X23817000Y16553000D01*
X23816000Y16552000D01*
X23672000Y16407000D01*
X23668000Y16402000D01*
X23563000Y16226000D01*
X23509000Y16021000D01*
X23509000Y15810000D01*
X23564000Y15604000D01*
X23672000Y15422000D01*
X23817000Y15277000D01*
X23994000Y15174000D01*
X24201000Y15117000D01*
X24412000Y15117000D01*
X24618000Y15174000D01*
X24617000Y15174000D01*
X24823000Y15292000D01*
X24903000Y15292000D01*
X25107000Y15175000D01*
X25109000Y15174000D01*
X25316000Y15117000D01*
X25524000Y15117000D01*
X25734000Y15174000D01*
X25907000Y15275000D01*
X25909000Y15277000D01*
X25978000Y15344000D01*
X26055000Y15364000D01*
X26233000Y15316000D01*
X26442000Y15316000D01*
X26651000Y15373000D01*
X26711000Y15409000D01*
X26793000Y15409000D01*
X26856000Y15373000D01*
X27062000Y15316000D01*
X27270000Y15316000D01*
X27477000Y15373000D01*
X27484000Y15376000D01*
X27521000Y15395000D01*
X27617000Y15379000D01*
X27719000Y15277000D01*
X27899000Y15174000D01*
X28105000Y15117000D01*
X28313000Y15117000D01*
X28520000Y15174000D01*
X28519000Y15174000D01*
X28700000Y15278000D01*
X28738000Y15288000D01*
X32669000Y15288000D01*
X32679000Y15287000D01*
X32717000Y15288000D01*
X32804000Y15288000D01*
X32812000Y15289000D01*
X32812000Y15288000D01*
X32821000Y15290000D01*
X32830000Y15291000D01*
X32864000Y15292000D01*
X32920000Y15309000D01*
X32927000Y15311000D01*
X32978000Y15322000D01*
X32999000Y15333000D01*
X33012000Y15339000D01*
X33044000Y15349000D01*
X33043000Y15349000D01*
X33092000Y15385000D01*
X33101000Y15391000D01*
X33156000Y15420000D01*
X33158000Y15422000D01*
X33195000Y15464000D01*
X33198000Y15467000D01*
X38221000Y20489000D01*
X38255000Y20509000D01*
X38458000Y20563000D01*
X38640000Y20669000D01*
X38800000Y20829000D01*
X38924000Y20829000D01*
X40227000Y19525000D01*
X40150000Y19340000D01*
X39386000Y19340000D01*
X39377000Y19341000D01*
X39333000Y19346000D01*
X39330000Y19346000D01*
X39146000Y19312000D01*
X39138000Y19308000D01*
X39133000Y19307000D01*
X39064000Y19268000D01*
X39063000Y19267000D01*
X38966000Y19215000D01*
X38961000Y19212000D01*
X38951000Y19204000D01*
X38888000Y19134000D01*
X38887000Y19132000D01*
X38832000Y19075000D01*
X38823000Y19061000D01*
X38764000Y18928000D01*
X38760000Y18926000D01*
X38747000Y18898000D01*
X38745000Y18890000D01*
X38731000Y18785000D01*
X38730000Y18782000D01*
X38726000Y18757000D01*
X38725000Y18746000D01*
X38724000Y18737000D01*
X38719000Y18693000D01*
X38723000Y18673000D01*
X38725000Y18658000D01*
X38725000Y17826000D01*
X38702000Y17771000D01*
X36355000Y15425000D01*
X36343000Y15408000D01*
X36335000Y15399000D01*
X36318000Y15380000D01*
X36313000Y15374000D01*
X36291000Y15329000D01*
X36286000Y15320000D01*
X36258000Y15279000D01*
X36255000Y15271000D01*
X36245000Y15235000D01*
X36240000Y15223000D01*
X36234000Y15211000D01*
X36232000Y15204000D01*
X36222000Y15147000D01*
X36221000Y15141000D01*
X36205000Y15082000D01*
X36208000Y15010000D01*
X36208000Y13470000D01*
X36198000Y13432000D01*
X36094000Y13251000D01*
X36037000Y13046000D01*
X36037000Y12835000D01*
X35949000Y12747000D01*
X-21063000Y12747000D01*
X-21118000Y12770000D01*
X-29575000Y21228000D01*
X-29594000Y21261000D01*
X-29652000Y21468000D01*
X-29754000Y21646000D01*
X-29902000Y21795000D01*
X-29903000Y21796000D01*
X-30090000Y21903000D01*
X-30287000Y21955000D01*
X-30496000Y21955000D01*
X-30700000Y21901000D01*
X-30702000Y21900000D01*
X-30884000Y21794000D01*
X-31031000Y21647000D01*
X-31135000Y21465000D01*
X-31136000Y21462000D01*
X-31190000Y21260000D01*
X-31190000Y21053000D01*
X-31135000Y20850000D01*
X-31030000Y20667000D01*
X-30884000Y20521000D01*
X-30702000Y20415000D01*
X-30700000Y20414000D01*
X-30498000Y20361000D01*
X-30463000Y20341000D01*
X-21765000Y11642000D01*
X-21761000Y11640000D01*
X-21744000Y11627000D01*
X-21719000Y11602000D01*
X-21668000Y11577000D01*
X-21660000Y11572000D01*
X-21614000Y11543000D01*
X-21584000Y11535000D01*
X-21568000Y11529000D01*
X-21545000Y11517000D01*
X-21488000Y11509000D01*
X-21478000Y11507000D01*
X-21420000Y11491000D01*
X-21375000Y11493000D01*
X37576000Y11493000D01*
X37653000Y11308000D01*
X35591000Y9247000D01*
X35557000Y9227000D01*
X35355000Y9173000D01*
X35173000Y9069000D01*
X35024000Y8920000D01*
X34920000Y8738000D01*
X34865000Y8533000D01*
X34865000Y8327000D01*
X34925000Y8105000D01*
X34766000Y7983000D01*
X34637000Y8057000D01*
X34431000Y8112000D01*
X34222000Y8112000D01*
X34024000Y8060000D01*
X33838000Y7953000D01*
X33690000Y7805000D01*
X33587000Y7625000D01*
X33583000Y7616000D01*
X33540000Y7459000D01*
X33484000Y7403000D01*
X33367000Y7370000D01*
X33192000Y7270000D01*
X33189000Y7268000D01*
X33040000Y7120000D01*
X33039000Y7119000D01*
X32932000Y6933000D01*
X32883000Y6743000D01*
X32846000Y6695000D01*
X32635000Y6573000D01*
X32487000Y6424000D01*
X32486000Y6423000D01*
X32385000Y6250000D01*
X32331000Y6051000D01*
X32331000Y6032000D01*
X32290000Y5962000D01*
X32070000Y5836000D01*
X32067000Y5834000D01*
X31919000Y5686000D01*
X31816000Y5506000D01*
X31759000Y5300000D01*
X31759000Y5075000D01*
X31736000Y5020000D01*
X31605000Y4887000D01*
X31502000Y4709000D01*
X31501000Y4708000D01*
X31447000Y4503000D01*
X31447000Y4294000D01*
X31499000Y4097000D01*
X31606000Y3910000D01*
X31754000Y3762000D01*
X31934000Y3659000D01*
X32140000Y3602000D01*
X32348000Y3602000D01*
X32555000Y3659000D01*
X32554000Y3659000D01*
X32735000Y3763000D01*
X32773000Y3773000D01*
X39252000Y3773000D01*
X39270000Y3771000D01*
X39345000Y3773000D01*
X39398000Y3773000D01*
X39413000Y3775000D01*
X39423000Y3775000D01*
X39452000Y3776000D01*
X39458000Y3777000D01*
X39523000Y3797000D01*
X39531000Y3799000D01*
X39569000Y3806000D01*
X39589000Y3817000D01*
X39603000Y3823000D01*
X39638000Y3835000D01*
X39693000Y3875000D01*
X39700000Y3879000D01*
X39747000Y3905000D01*
X39749000Y3907000D01*
X39778000Y3940000D01*
X39781000Y3943000D01*
X42337000Y6498000D01*
X42372000Y6518000D01*
X42568000Y6570000D01*
X42755000Y6677000D01*
X42903000Y6825000D01*
X43006000Y7005000D01*
X43063000Y7211000D01*
X43063000Y7419000D01*
X43006000Y7625000D01*
X42903000Y7805000D01*
X42755000Y7953000D01*
X42569000Y8060000D01*
X42371000Y8112000D01*
X42291000Y8112000D01*
X42211000Y8173000D01*
X42152000Y8385000D01*
X42050000Y8563000D01*
X41902000Y8712000D01*
X41901000Y8713000D01*
X41714000Y8820000D01*
X41536000Y8867000D01*
X41473000Y8948000D01*
X41473000Y9113000D01*
X41418000Y9318000D01*
X41418000Y9320000D01*
X41385000Y9375000D01*
X41385000Y9457000D01*
X41418000Y9512000D01*
X41420000Y9519000D01*
X41464000Y9683000D01*
X41631000Y9727000D01*
X43520000Y7837000D01*
X43543000Y7782000D01*
X43543000Y5122000D01*
X43393000Y5036000D01*
X43203000Y5145000D01*
X43006000Y5197000D01*
X42797000Y5197000D01*
X42593000Y5143000D01*
X42591000Y5142000D01*
X42409000Y5036000D01*
X42262000Y4889000D01*
X42158000Y4707000D01*
X42103000Y4502000D01*
X42103000Y4447000D01*
X42080000Y4392000D01*
X40462000Y2774000D01*
X40338000Y2774000D01*
X40180000Y2932000D01*
X39998000Y3036000D01*
X39999000Y3036000D01*
X39793000Y3091000D01*
X39588000Y3091000D01*
X39383000Y3036000D01*
X39201000Y2932000D01*
X39200000Y2931000D01*
X39056000Y2786000D01*
X39054000Y2784000D01*
X38947000Y2605000D01*
X38893000Y2400000D01*
X38893000Y2341000D01*
X38870000Y2286000D01*
X37934000Y1350000D01*
X37879000Y1327000D01*
X35405000Y1327000D01*
X35350000Y1350000D01*
X35310000Y1390000D01*
X35123000Y1497000D01*
X34926000Y1549000D01*
X34714000Y1549000D01*
X34517000Y1497000D01*
X34330000Y1390000D01*
X34182000Y1242000D01*
X34074000Y1055000D01*
X34074000Y1053000D01*
X34023000Y857000D01*
X34023000Y646000D01*
X34075000Y449000D01*
X34182000Y262000D01*
X34394000Y50000D01*
X34370000Y-102000D01*
X34321000Y-126000D01*
X34182000Y-265000D01*
X34075000Y-452000D01*
X34023000Y-649000D01*
X34023000Y-861000D01*
X34075000Y-1058000D01*
X34182000Y-1245000D01*
X34330000Y-1393000D01*
X34517000Y-1500000D01*
X34714000Y-1552000D01*
X34926000Y-1552000D01*
X35123000Y-1500000D01*
X35310000Y-1393000D01*
X35350000Y-1353000D01*
X35405000Y-1330000D01*
X37685000Y-1330000D01*
X37700000Y-1332000D01*
X37735000Y-1339000D01*
X37921000Y-1308000D01*
X38021000Y-1503000D01*
X36631000Y-2893000D01*
X36576000Y-2916000D01*
X34207000Y-2916000D01*
X34169000Y-2906000D01*
X33990000Y-2802000D01*
X33783000Y-2745000D01*
X33572000Y-2745000D01*
X33367000Y-2802000D01*
X33189000Y-2904000D01*
X33040000Y-3052000D01*
X33039000Y-3053000D01*
X32932000Y-3240000D01*
X32880000Y-3437000D01*
X32880000Y-3646000D01*
X32933000Y-3847000D01*
X32935000Y-3852000D01*
X33041000Y-4034000D01*
X33188000Y-4181000D01*
X33370000Y-4285000D01*
X33575000Y-4340000D01*
X33780000Y-4340000D01*
X33986000Y-4285000D01*
X33985000Y-4285000D01*
X34167000Y-4180000D01*
X34205000Y-4170000D01*
X36779000Y-4170000D01*
X36789000Y-4171000D01*
X36827000Y-4170000D01*
X36914000Y-4170000D01*
X36922000Y-4169000D01*
X36922000Y-4170000D01*
X36931000Y-4168000D01*
X36940000Y-4167000D01*
X36971000Y-4166000D01*
X36976000Y-4165000D01*
X37034000Y-4147000D01*
X37044000Y-4144000D01*
X37090000Y-4136000D01*
X37110000Y-4124000D01*
X37123000Y-4118000D01*
X37158000Y-4106000D01*
X37205000Y-4072000D01*
X37214000Y-4066000D01*
X37266000Y-4037000D01*
X37317000Y-3981000D01*
X37320000Y-3978000D01*
X42971000Y1671000D01*
X43005000Y1691000D01*
X43210000Y1746000D01*
X43211000Y1746000D01*
X43392000Y1854000D01*
X43394000Y1854000D01*
X43536000Y1997000D01*
X43538000Y1999000D01*
X43641000Y2176000D01*
X43698000Y2383000D01*
X43698000Y2593000D01*
X43641000Y2799000D01*
X43539000Y2977000D01*
X43391000Y3126000D01*
X43390000Y3127000D01*
X43203000Y3234000D01*
X43006000Y3286000D01*
X42862000Y3286000D01*
X42785000Y3471000D01*
X42893000Y3579000D01*
X42948000Y3602000D01*
X43005000Y3602000D01*
X43210000Y3657000D01*
X43211000Y3657000D01*
X43398000Y3768000D01*
X43445000Y3802000D01*
X43567000Y3782000D01*
X43640000Y3681000D01*
X43645000Y3673000D01*
X43677000Y3617000D01*
X43721000Y3577000D01*
X43725000Y3574000D01*
X45875000Y1423000D01*
X45873000Y1297000D01*
X45814000Y1241000D01*
X45814000Y1240000D01*
X45707000Y1055000D01*
X45707000Y1053000D01*
X45656000Y857000D01*
X45656000Y646000D01*
X45708000Y449000D01*
X45815000Y262000D01*
X45816000Y261000D01*
X45965000Y113000D01*
X45968000Y111000D01*
X46143000Y11000D01*
X46145000Y10000D01*
X46350000Y-45000D01*
X46384000Y-65000D01*
X50098000Y-3780000D01*
X50121000Y-3835000D01*
X50121000Y-4546000D01*
X50111000Y-4584000D01*
X50003000Y-4772000D01*
X49951000Y-4969000D01*
X49951000Y-5178000D01*
X50004000Y-5379000D01*
X50007000Y-5386000D01*
X50112000Y-5566000D01*
X50229000Y-5683000D01*
X50240000Y-5790000D01*
X50214000Y-5828000D01*
X50162000Y-6027000D01*
X50142000Y-6062000D01*
X49873000Y-6330000D01*
X49818000Y-6353000D01*
X42848000Y-6353000D01*
X42763000Y-6280000D01*
X42756000Y-6226000D01*
X42701000Y-6018000D01*
X42699000Y-6013000D01*
X42599000Y-5838000D01*
X42597000Y-5835000D01*
X42449000Y-5686000D01*
X42448000Y-5685000D01*
X42262000Y-5578000D01*
X42064000Y-5526000D01*
X41852000Y-5526000D01*
X41654000Y-5578000D01*
X41468000Y-5685000D01*
X41428000Y-5725000D01*
X41373000Y-5748000D01*
X2190000Y-5748000D01*
X2175000Y-5746000D01*
X2139000Y-5739000D01*
X2034000Y-5757000D01*
X1931000Y-5774000D01*
X1917000Y-5779000D01*
X1908000Y-5780000D01*
X1813000Y-5844000D01*
X1809000Y-5847000D01*
X1735000Y-5890000D01*
X1734000Y-5891000D01*
X1703000Y-5935000D01*
X1694000Y-5945000D01*
X-2197000Y-9836000D01*
X-2252000Y-9859000D01*
X-2307000Y-9859000D01*
X-2511000Y-9913000D01*
X-2513000Y-9914000D01*
X-2695000Y-10020000D01*
X-2842000Y-10167000D01*
X-2946000Y-10349000D01*
X-3001000Y-10554000D01*
X-3001000Y-10760000D01*
X-2946000Y-10965000D01*
X-2945000Y-10966000D01*
X-2846000Y-11137000D01*
X-2903000Y-11274000D01*
X-3044000Y-11312000D01*
X-3221000Y-11417000D01*
X-3226000Y-11420000D01*
X-3368000Y-11562000D01*
X-3373000Y-11569000D01*
X-3477000Y-11745000D01*
X-3531000Y-11950000D01*
X-3531000Y-12159000D01*
X-3476000Y-12366000D01*
X-3380000Y-12528000D01*
X-3371000Y-12588000D01*
X-3425000Y-12796000D01*
X-3425000Y-13006000D01*
X-3373000Y-13202000D01*
X-3371000Y-13206000D01*
X-3266000Y-13388000D01*
X-3265000Y-13389000D01*
X-3116000Y-13537000D01*
X-3113000Y-13539000D01*
X-2938000Y-13639000D01*
X-2733000Y-13696000D01*
X-2518000Y-13696000D01*
X-2418000Y-13668000D01*
X-2322000Y-13708000D01*
X-2287000Y-13771000D01*
X-2139000Y-13919000D01*
X-1959000Y-14022000D01*
X-1753000Y-14079000D01*
X-1545000Y-14079000D01*
X-1335000Y-14022000D01*
X-1164000Y-13922000D01*
X-1161000Y-13920000D01*
X-1013000Y-13773000D01*
X-1011000Y-13771000D01*
X-905000Y-13587000D01*
X-904000Y-13585000D01*
X-852000Y-13387000D01*
X-852000Y-13178000D01*
X-905000Y-12977000D01*
X-907000Y-12972000D01*
X-1012000Y-12791000D01*
X-1022000Y-12753000D01*
X-1022000Y-12349000D01*
X-1012000Y-12311000D01*
X-904000Y-12123000D01*
X-852000Y-11928000D01*
X-852000Y-11714000D01*
X-284000Y-11714000D01*
X-284000Y-11928000D01*
X-232000Y-12123000D01*
X-120000Y-12319000D01*
X-120000Y-12399000D01*
X-233000Y-12595000D01*
X-233000Y-12597000D01*
X-284000Y-12792000D01*
X-284000Y-13006000D01*
X-232000Y-13202000D01*
X-230000Y-13206000D01*
X-125000Y-13388000D01*
X-124000Y-13389000D01*
X25000Y-13537000D01*
X28000Y-13539000D01*
X199000Y-13639000D01*
X409000Y-13696000D01*
X617000Y-13696000D01*
X824000Y-13639000D01*
X823000Y-13639000D01*
X1003000Y-13536000D01*
X1151000Y-13388000D01*
X1253000Y-13210000D01*
X1254000Y-13209000D01*
X1311000Y-13004000D01*
X1311000Y-12794000D01*
X1254000Y-12588000D01*
X1146000Y-12399000D01*
X1146000Y-12319000D01*
X1253000Y-12132000D01*
X1256000Y-12127000D01*
X1258000Y-12122000D01*
X1258000Y-12121000D01*
X1313000Y-11924000D01*
X1542000Y-11926000D01*
X1594000Y-12125000D01*
X1596000Y-12132000D01*
X1701000Y-12309000D01*
X1712000Y-12348000D01*
X1712000Y-13128000D01*
X1701000Y-13167000D01*
X1596000Y-13345000D01*
X1595000Y-13349000D01*
X1541000Y-13552000D01*
X1541000Y-13763000D01*
X1595000Y-13967000D01*
X1702000Y-14146000D01*
X1705000Y-14149000D01*
X1848000Y-14293000D01*
X1849000Y-14294000D01*
X2031000Y-14398000D01*
X2236000Y-14453000D01*
X2441000Y-14453000D01*
X2647000Y-14398000D01*
X2646000Y-14398000D01*
X2828000Y-14294000D01*
X2975000Y-14147000D01*
X3081000Y-13966000D01*
X3083000Y-13961000D01*
X3083000Y-13960000D01*
X3136000Y-13759000D01*
X3136000Y-13550000D01*
X3085000Y-13354000D01*
X3010026Y-13224000D01*
X16874000Y-13224000D01*
X16874000Y-13701000D01*
X17000000Y-14172000D01*
X17001000Y-14175000D01*
X17242000Y-14591000D01*
X17585000Y-14934000D01*
X18002000Y-15174000D01*
X18473000Y-15300000D01*
X18952000Y-15300000D01*
X19424000Y-15174000D01*
X19423000Y-15174000D01*
X19843000Y-14932000D01*
X20183000Y-14592000D01*
X20425000Y-14172000D01*
X20551000Y-13701000D01*
X20551000Y-13224000D01*
X20426000Y-12753000D01*
X20185000Y-12334000D01*
X19843000Y-11992000D01*
X19423000Y-11750000D01*
X19424000Y-11750000D01*
X18953000Y-11623000D01*
X18472000Y-11623000D01*
X18001000Y-11750000D01*
X17585000Y-11990000D01*
X17241000Y-12334000D01*
X17001000Y-12748000D01*
X16999000Y-12753000D01*
X16874000Y-13224000D01*
X3010026Y-13224000D01*
X2976000Y-13165000D01*
X2966000Y-13127000D01*
X2966000Y-12350000D01*
X2976000Y-12312000D01*
X3064000Y-12158000D01*
X3134000Y-12117000D01*
X3361000Y-12117000D01*
X3399000Y-12127000D01*
X3587000Y-12235000D01*
X3784000Y-12287000D01*
X3996000Y-12287000D01*
X4193000Y-12235000D01*
X4380000Y-12128000D01*
X4381000Y-12127000D01*
X4529000Y-11978000D01*
X4531000Y-11975000D01*
X4631000Y-11800000D01*
X4632000Y-11798000D01*
X4687000Y-11593000D01*
X4687000Y-11387000D01*
X4633000Y-11185000D01*
X4632000Y-11182000D01*
X4529000Y-11001000D01*
X4383000Y-10855000D01*
X4201000Y-10747000D01*
X4200000Y-10747000D01*
X3995000Y-10692000D01*
X3785000Y-10692000D01*
X3580000Y-10747000D01*
X3576000Y-10748000D01*
X3470000Y-10811000D01*
X3368000Y-10798000D01*
X3155000Y-10585000D01*
X3135000Y-10551000D01*
X3081000Y-10349000D01*
X2977000Y-10167000D01*
X2828000Y-10018000D01*
X2646000Y-9914000D01*
X2647000Y-9914000D01*
X2441000Y-9859000D01*
X2236000Y-9859000D01*
X2031000Y-9914000D01*
X1846000Y-10020000D01*
X1704000Y-10165000D01*
X1701000Y-10169000D01*
X1595000Y-10347000D01*
X1541000Y-10552000D01*
X1541000Y-10761000D01*
X1595000Y-10966000D01*
X1702000Y-11146000D01*
X1734000Y-11194000D01*
X1732000Y-11287000D01*
X1706000Y-11324000D01*
X1595000Y-11511000D01*
X1594000Y-11515000D01*
X1542000Y-11714000D01*
X1313000Y-11716000D01*
X1258000Y-11519000D01*
X1255000Y-11511000D01*
X1152000Y-11331000D01*
X1003000Y-11182000D01*
X823000Y-11079000D01*
X824000Y-11079000D01*
X617000Y-11022000D01*
X409000Y-11022000D01*
X199000Y-11079000D01*
X26000Y-11180000D01*
X-124000Y-11330000D01*
X-233000Y-11517000D01*
X-233000Y-11519000D01*
X-284000Y-11714000D01*
X-852000Y-11714000D01*
X-903000Y-11519000D01*
X-903000Y-11517000D01*
X-1012000Y-11330000D01*
G37*
%TD.AperFunction*%
%TD*%
M02*
