%TF.GenerationSoftware,Flux,Pcbnew,7.0.11-7.0.11~ubuntu20.04.1*%
%TF.CreationDate,2024-08-16T10:10:55+00:00*%
%TF.ProjectId,input,696e7075-742e-46b6-9963-61645f706362,rev?*%
%TF.SameCoordinates,Original*%
%TF.FileFunction,Copper,L2,Bot*%
%TF.FilePolarity,Positive*%
%FSLAX46Y46*%
G04 Gerber Fmt 4.6, Leading zero omitted, Abs format (unit mm)*
G04 Filename: betterflipperzero*
G04 Build it with Flux! Visit our site at: https://www.flux.ai (PCBNEW 7.0.11-7.0.11~ubuntu20.04.1) date 2024-08-16 10:10:55*
%MOMM*%
%LPD*%
G01*
G04 APERTURE LIST*
G04 Aperture macros list*
%AMHorizOval*
0 Thick line with rounded ends*
0 $1 width*
0 $2 $3 position (X,Y) of the first rounded end (center of the circle)*
0 $4 $5 position (X,Y) of the second rounded end (center of the circle)*
0 Add line between two ends*
20,1,$1,$2,$3,$4,$5,0*
0 Add two circle primitives to create the rounded ends*
1,1,$1,$2,$3*
1,1,$1,$4,$5*%
%AMFreePoly0*
4,1,129,0.022069,0.299187,0.036723,0.297744,0.051289,0.295583,0.065730,0.292711,0.080014,0.289133,0.094105,0.284858,0.107969,0.279898,0.121572,0.274263,0.134883,0.267967,0.147869,0.261026,0.160499,0.253456,0.172742,0.245275,0.184569,0.236504,0.195952,0.227163,0.206862,0.217274,0.217274,0.206862,0.227163,0.195952,0.236504,0.184569,0.245275,0.172742,0.253456,0.160499,
0.261026,0.147869,0.267967,0.134883,0.274263,0.121572,0.279898,0.107969,0.284858,0.094105,0.289133,0.080014,0.292711,0.065730,0.295583,0.051289,0.297744,0.036723,0.299187,0.022069,0.299910,0.007362,0.299910,-0.007362,0.299187,-0.022069,0.297744,-0.036723,0.295583,-0.051289,0.292711,-0.065730,0.289133,-0.080014,0.284858,-0.094105,0.279898,-0.107969,0.274263,-0.121572,
0.267967,-0.134883,0.261026,-0.147869,0.253456,-0.160499,0.245275,-0.172742,0.236504,-0.184569,0.227163,-0.195952,0.217274,-0.206862,0.206862,-0.217274,0.195952,-0.227163,0.184569,-0.236504,0.172742,-0.245275,0.160499,-0.253456,0.147869,-0.261026,0.134883,-0.267967,0.121572,-0.274263,0.107969,-0.279898,0.094105,-0.284858,0.080014,-0.289133,0.065730,-0.292711,0.051289,-0.295583,
0.036723,-0.297744,0.022069,-0.299187,0.007362,-0.299910,-0.007362,-0.299910,-0.022069,-0.299187,-0.036723,-0.297744,-0.051289,-0.295583,-0.065730,-0.292711,-0.080014,-0.289133,-0.094105,-0.284858,-0.107969,-0.279898,-0.121572,-0.274263,-0.134883,-0.267967,-0.147869,-0.261026,-0.160499,-0.253456,-0.172742,-0.245275,-0.184569,-0.236504,-0.195952,-0.227163,-0.206862,-0.217274,-0.217274,-0.206862,
-0.227163,-0.195952,-0.236504,-0.184569,-0.245275,-0.172742,-0.253456,-0.160499,-0.261026,-0.147869,-0.267967,-0.134883,-0.274263,-0.121572,-0.279898,-0.107969,-0.284858,-0.094105,-0.289133,-0.080014,-0.292711,-0.065730,-0.295583,-0.051289,-0.297744,-0.036723,-0.299187,-0.022069,-0.299910,-0.007362,-0.299910,0.007362,-0.299187,0.022069,-0.297744,0.036723,-0.295583,0.051289,-0.292711,0.065730,
-0.289133,0.080014,-0.284858,0.094105,-0.279898,0.107969,-0.274263,0.121572,-0.267967,0.134883,-0.261026,0.147869,-0.253456,0.160499,-0.245275,0.172742,-0.236504,0.184569,-0.227163,0.195952,-0.217274,0.206862,-0.206862,0.217274,-0.195952,0.227163,-0.184569,0.236504,-0.172742,0.245275,-0.160499,0.253456,-0.147869,0.261026,-0.134883,0.267967,-0.121572,0.274263,-0.107969,0.279898,
-0.094105,0.284858,-0.080014,0.289133,-0.065730,0.292711,-0.051289,0.295583,-0.036723,0.297744,-0.022069,0.299187,-0.007362,0.299910,0.007362,0.299910,0.022069,0.299187,0.022069,0.299187,$1*%
G04 Aperture macros list end*
%TA.AperFunction,ComponentPad*%
%ADD10C,1.600000*%
%TD*%
%TA.AperFunction,ComponentPad*%
%ADD11HorizOval,1.050000X-0.454663X0.262500X0.454663X-0.262500X0*%
%TD*%
%TA.AperFunction,ComponentPad*%
%ADD12C,0.400000*%
%TD*%
%TA.AperFunction,ComponentPad*%
%ADD13FreePoly0,0.000000*%
%TD*%
%TA.AperFunction,Conductor*%
%ADD14C,0.254000*%
%TD*%
%TA.AperFunction,Conductor*%
%ADD15C,0.300000*%
%TD*%
%TA.AperFunction,Conductor*%
%ADD16C,0.150000*%
%TD*%
G04 APERTURE END LIST*
D10*
%TO.P,,52a90573-88b1-424e-9db5-7f00e59fe35d__3d0e5c81-2b94-2588-9270-cc0b63aae38c*%
%TO.N,N/C*%
X27358900Y-20640800D03*
%TO.P,,52a90573-88b1-424e-9db5-7f00e59fe35d__a62acf30-473f-9fe2-0504-059f88965630*%
X29858900Y-20640800D03*
D11*
%TO.P,,a9728bda-38a0-4284-839c-b054ecb6658e__2326611f-98f6-a130-ac94-da96fde3ec8f*%
X56843000Y-1574574D03*
%TO.P,,a9728bda-38a0-4284-839c-b054ecb6658e__9415c64b-4f59-a6d9-e7ea-dc5b1de656fb*%
X52523018Y-9057044D03*
%TO.P,,a9728bda-38a0-4284-839c-b054ecb6658e__9b3c6dc7-8e8d-43a0-5d61-3a6777006a6c*%
X56143009Y-11147035D03*
%TO.P,,a9728bda-38a0-4284-839c-b054ecb6658e__e8284091-fcc7-bc14-948c-a2f31e589c00*%
X60462991Y-3664565D03*
D12*
%TO.P,,ff6aa628-a694-44a5-a8a3-0151430d2fb0__ee3a696f-ef70-402c-ab0c-7137ed4eee28.defaultFootprint.mounts.183bc2e5b0fd3164e75ded3f1243107f*%
X51805084Y13290543D03*
%TO.P,,ff6aa628-a694-44a5-a8a3-0151430d2fb0__ee3a696f-ef70-402c-ab0c-7137ed4eee28.defaultFootprint.mounts.9dc978c55082aad2fafacdbd9f5f57bc*%
X50592650Y12590542D03*
%TO.P,,ff6aa628-a694-44a5-a8a3-0151430d2fb0__ee3a696f-ef70-402c-ab0c-7137ed4eee28.defaultFootprint.mounts.a0d68b55a491274f814daab068f0c950*%
X51105083Y14502978D03*
%TO.P,,ff6aa628-a694-44a5-a8a3-0151430d2fb0__ee3a696f-ef70-402c-ab0c-7137ed4eee28.defaultFootprint.mounts.afcd757d940930679b843bc1e4386240*%
X49892648Y13802977D03*
%TO.P,,ff6aa628-a694-44a5-a8a3-0151430d2fb0__ee3a696f-ef70-402c-ab0c-7137ed4eee28.defaultFootprint.mounts.4504ff15bdcf4818a54146cc7a8e9a0d*%
X50405081Y15715413D03*
%TO.P,,ff6aa628-a694-44a5-a8a3-0151430d2fb0__ee3a696f-ef70-402c-ab0c-7137ed4eee28.defaultFootprint.mounts.19f3852e009ba6bfae8a2fce513ef1dd*%
X49192647Y15015411D03*
%TO.P,,ff6aa628-a694-44a5-a8a3-0151430d2fb0__ee3a696f-ef70-402c-ab0c-7137ed4eee28.defaultFootprint.mounts.6d4d26d8edc27532900a7c937b5e863d*%
X52061301Y14246762D03*
%TO.P,,ff6aa628-a694-44a5-a8a3-0151430d2fb0__ee3a696f-ef70-402c-ab0c-7137ed4eee28.defaultFootprint.mounts.f2ecf32f083cf9b5783a264d7a48b752*%
X50848866Y13546760D03*
%TO.P,,ff6aa628-a694-44a5-a8a3-0151430d2fb0__ee3a696f-ef70-402c-ab0c-7137ed4eee28.defaultFootprint.mounts.cf10f8cc0c36fe03b55323802961a88d*%
X49636431Y12846759D03*
%TO.P,,ff6aa628-a694-44a5-a8a3-0151430d2fb0__ee3a696f-ef70-402c-ab0c-7137ed4eee28.defaultFootprint.mounts.52e844226e796b1c42a9f7f1323ab2f7*%
X51361299Y15459196D03*
%TO.P,,ff6aa628-a694-44a5-a8a3-0151430d2fb0__ee3a696f-ef70-402c-ab0c-7137ed4eee28.defaultFootprint.mounts.a17b4eabb5e4ad17dbcba1ef557d9230*%
X48936430Y14059193D03*
%TO.P,,ff6aa628-a694-44a5-a8a3-0151430d2fb0__ee3a696f-ef70-402c-ab0c-7137ed4eee28.defaultFootprint.mounts.fab9ee6953aa1da2d8a8f965443f1f1b*%
X50148865Y14759195D03*
D13*
%TO.P,,77028e07-86d5-4c74-86b8-4fccadde9762*%
%TO.N,Net 51*%
X42485100Y-12677400D03*
%TO.P,,9a0ee4e0-4754-4aaf-bff0-f1295a4e016c*%
X41134600Y-11654800D03*
%TO.P,,9bb1d60f-9d26-468d-805d-ebec73a94ccf*%
X38212400Y-14387700D03*
%TO.P,,a41bcef6-0361-49d1-a9da-00d1fe06c176*%
X38904600Y-11654800D03*
%TO.P,,48bce387-0c37-4954-a6b6-4bf429cc0ca7*%
%TO.N,GND*%
X46770300Y-18482000D03*
%TO.P,,5497b025-87f2-4bd4-82bf-cf54279d495f*%
X47263500Y-15662600D03*
%TO.P,,6775c09e-24aa-4cb4-96bd-0e9dbbb39c8e*%
X65882100Y1306800D03*
%TO.P,,a1b2cd5e-ac41-4acb-aaac-2dd1f3635b58*%
X44024200Y-18396100D03*
%TO.P,,bb25d5dc-cc56-4c14-9856-18a8bdec11ac*%
X42575300Y18264700D03*
%TO.P,,bbfc730c-79c0-46ee-9314-bfb150350888*%
X56267900Y3350600D03*
%TO.P,,bca37ccc-f576-4123-bd04-3af01d74a4e4*%
X56268000Y-196400D03*
%TO.P,,c2a06121-aa2e-44ef-a1a9-41b443d0512b*%
X51868600Y11714500D03*
%TO.P,,e6c870e3-3ee4-422e-a94c-332fd1cf1eff*%
X42817200Y-15662600D03*
%TO.P,,6d486441-d8c5-414f-bf81-0cfa98cb07fc.via3.8*%
X42750000Y22650000D03*
%TO.P,,6d486441-d8c5-414f-bf81-0cfa98cb07fc.via3.7*%
X27750000Y22650000D03*
%TO.P,,6d486441-d8c5-414f-bf81-0cfa98cb07fc.via3.6*%
X12750000Y22650000D03*
%TO.P,,6d486441-d8c5-414f-bf81-0cfa98cb07fc.via3.5*%
X-2250000Y22650000D03*
%TO.P,,6d486441-d8c5-414f-bf81-0cfa98cb07fc.via3.4*%
X-17250000Y22650000D03*
%TO.P,,6d486441-d8c5-414f-bf81-0cfa98cb07fc.via3.3*%
X-32250000Y22650000D03*
%TO.P,,6d486441-d8c5-414f-bf81-0cfa98cb07fc.via3.2*%
X-47250000Y22650000D03*
%TO.P,,6d486441-d8c5-414f-bf81-0cfa98cb07fc.via3.1*%
X-62250000Y22650000D03*
%TO.P,,6d486441-d8c5-414f-bf81-0cfa98cb07fc.via2.8*%
X42750000Y7650000D03*
%TO.P,,6d486441-d8c5-414f-bf81-0cfa98cb07fc.via2.7*%
X27750000Y7650000D03*
%TO.P,,6d486441-d8c5-414f-bf81-0cfa98cb07fc.via2.6*%
X12750000Y7650000D03*
%TO.P,,6d486441-d8c5-414f-bf81-0cfa98cb07fc.via2.5*%
X-2250000Y7650000D03*
%TO.P,,6d486441-d8c5-414f-bf81-0cfa98cb07fc.via2.4*%
X-17250000Y7650000D03*
%TO.P,,6d486441-d8c5-414f-bf81-0cfa98cb07fc.via2.3*%
X-32250000Y7650000D03*
%TO.P,,6d486441-d8c5-414f-bf81-0cfa98cb07fc.via2.2*%
X-47250000Y7650000D03*
%TO.P,,6d486441-d8c5-414f-bf81-0cfa98cb07fc.via2.1*%
X-62250000Y7650000D03*
%TO.P,,6d486441-d8c5-414f-bf81-0cfa98cb07fc.via1.7*%
X27750000Y-7350000D03*
%TO.P,,6d486441-d8c5-414f-bf81-0cfa98cb07fc.via1.6*%
X12750000Y-7350000D03*
%TO.P,,6d486441-d8c5-414f-bf81-0cfa98cb07fc.via1.5*%
X-2250000Y-7350000D03*
%TO.P,,6d486441-d8c5-414f-bf81-0cfa98cb07fc.via1.4*%
X-17250000Y-7350000D03*
%TO.P,,6d486441-d8c5-414f-bf81-0cfa98cb07fc.via1.3*%
X-32250000Y-7350000D03*
%TO.P,,6d486441-d8c5-414f-bf81-0cfa98cb07fc.via1.2*%
X-47250000Y-7350000D03*
%TO.P,,6d486441-d8c5-414f-bf81-0cfa98cb07fc.via1.1*%
X-62250000Y-7350000D03*
%TO.P,,1eaf378b-8dbd-49d5-8fd8-018d2d19bfe8*%
%TO.N,Net 3*%
X59350200Y-2180600D03*
%TO.P,,297875d3-6ab7-425d-822c-8615cb265d7d*%
X39690600Y14059200D03*
%TO.P,,6cae4a02-7858-4adb-abfa-c0b26730a22e*%
X44024200Y-20353900D03*
%TO.P,,fb6fff71-3ec6-4a7f-8d99-817b3e6bc926*%
X57367800Y495100D03*
%TO.P,,1d9e1414-e1fb-4408-8873-1aea5c839521*%
%TO.N,Net 44*%
X50958500Y-6132300D03*
%TO.P,,56c795dd-ded3-4d13-b249-e762881859f4*%
X39471200Y-14387600D03*
%TO.P,,dbd85782-9d4a-4d35-82c0-c87f9340991b*%
X39471100Y-14387700D03*
%TO.P,,3aef87f0-7e20-4b50-877e-3518ec160918*%
%TO.N,Net 39*%
X36373800Y-18703000D03*
%TO.P,,612118c2-8d54-4ec9-b86e-2c9f77602be6*%
X41779400Y-19976000D03*
%TO.P,,a2e25e8b-db38-4693-85f8-e128b4206fee*%
X38904600Y-9610800D03*
%TO.P,,b65aa16b-f548-4922-b1f7-fde41a5b7604*%
X41779400Y-19975700D03*
%TO.P,,cfcc94f9-2960-459e-a499-888820702cf8*%
X41779400Y-19975700D03*
%TO.P,,f00835aa-4bee-4063-806c-f1905ca385f0*%
X40533700Y-16011200D03*
%TO.P,,2765ba84-73cf-4e7b-bcce-b3ba41b84a0b*%
%TO.N,Net 52*%
X37812400Y-18310700D03*
%TO.P,,3481bf63-ebb2-4752-9003-f489efb7f34d*%
X34703400Y-18310700D03*
%TO.P,,8fdf950a-6024-4205-b211-1a80856d01a7*%
X35690200Y-18310500D03*
%TO.P,,95f910c8-75bc-4a4d-bc3f-551c1527a05b*%
X37812500Y-18310700D03*
%TO.P,,d602e7bc-ce25-48e9-933c-900972f0a96d*%
X46770300Y-16012600D03*
%TO.P,,6a511f93-fd61-4c61-8898-c57759339e15*%
%TO.N,Net 5*%
X43031400Y-18063400D03*
%TO.P,,a04df105-bec7-4903-a160-04d1c57021e6*%
X48342100Y-18396100D03*
%TO.P,,13ed02ec-455c-4228-9391-f37b0673b352*%
%TO.N,Net 52*%
X54995000Y-15108900D03*
%TO.P,,d78f01b3-265d-45cb-a132-82fa5d007254*%
X51461500Y-13651000D03*
%TO.P,,efc4761c-483a-4a34-b530-6b625bfd6c42*%
X48124100Y-17040300D03*
%TO.P,,42e6fb36-b780-480a-ad2b-f9716734e04a*%
X47423800Y-16726300D03*
%TO.P,,8a8af2b2-8879-4748-8847-2b7529634d4f*%
%TO.N,Net 51*%
X52625500Y-13650800D03*
%TO.P,,f469767e-8128-4d27-9fcb-dea7d323cce4*%
X51783800Y-13035700D03*
%TO.P,,87fc061c-74f9-4937-b412-e6bfcb352be4*%
%TO.N,Net 13*%
X50748200Y-5074800D03*
%TO.P,,e8682695-0348-472d-818d-7dad2f3a248a*%
X46453400Y752000D03*
%TO.P,,87e76f1a-bbef-4d27-a374-b311089021c5*%
%TO.N,Net 14*%
X53265600Y-2314900D03*
%TO.P,,b7399197-4958-4fdd-98c9-2a5ee51927ed*%
X48425000Y-9000D03*
%TO.P,,6d486441-d8c5-414f-bf81-0cfa98cb07fc.via.island.6*%
%TO.N,GND*%
X32710700Y-17826800D03*
%TO.P,,6d486441-d8c5-414f-bf81-0cfa98cb07fc.via.island.5*%
X48745200Y-21396500D03*
%TO.P,,6d486441-d8c5-414f-bf81-0cfa98cb07fc.via.island.4*%
X36623500Y-21565500D03*
%TO.P,,6d486441-d8c5-414f-bf81-0cfa98cb07fc.via.island.3*%
X40904400Y-9557600D03*
%TO.P,,6d486441-d8c5-414f-bf81-0cfa98cb07fc.via.island.2*%
X55296600Y-6710900D03*
%TO.P,,6d486441-d8c5-414f-bf81-0cfa98cb07fc.via.island.1*%
X45461300Y4551000D03*
%TO.P,,6d486441-d8c5-414f-bf81-0cfa98cb07fc.via.island.0*%
X51121500Y-2168400D03*
%TD*%
D14*
%TO.N,Net 51*%
X38212400Y-14387700D02*
X38212400Y-12347100D01*
X41134600Y-11654800D02*
X41462400Y-11654800D01*
X38212400Y-12347000D02*
X38904600Y-11654800D01*
X41462500Y-11654800D02*
X42485100Y-12677400D01*
%TO.N,GND*%
X47612100Y-16011200D02*
X47263500Y-15662600D01*
X56267900Y7315100D02*
X51868500Y11714500D01*
X42817200Y-17162400D02*
X42817200Y-15662600D01*
X47612100Y-16162600D02*
X47612100Y-16011200D01*
X46770300Y-17004400D02*
X47612100Y-16162600D01*
X44024200Y-18369400D02*
X42817200Y-17162400D01*
X44024200Y-18396100D02*
X44024200Y-18369300D01*
X56267900Y7315100D02*
X53524900Y7315100D01*
X56267900Y3350500D02*
X56267900Y7315100D01*
X56267900Y-196400D02*
X64378900Y-196400D01*
X53524900Y7315100D02*
X42575300Y18264700D01*
X46770300Y-18482000D02*
X46770300Y-17004400D01*
X64378900Y-196400D02*
X65882100Y1306800D01*
X51868600Y11714400D02*
X51868800Y11714600D01*
%TO.N,Net 3*%
X54015600Y-10180100D02*
X56843000Y-7352700D01*
X47612100Y-17445400D02*
X48342100Y-17445400D01*
X50958500Y-14829000D02*
X50958500Y-13302800D01*
X45170900Y-17979000D02*
X47612100Y-17979000D01*
X48342100Y-17445400D02*
X50958500Y-14829000D01*
X54015600Y-10245700D02*
X54015600Y-10180100D01*
X57367900Y495100D02*
X47690500Y495100D01*
X44024200Y-20353900D02*
X44024200Y-19125700D01*
X41630200Y10614600D02*
X41630200Y12119600D01*
X47690500Y495100D02*
X44170100Y4015500D01*
X56843000Y-4687800D02*
X59350200Y-2180600D01*
X44170200Y4015400D02*
X44170200Y8074600D01*
X44170200Y8074600D02*
X41630200Y10614600D01*
X50958500Y-13302800D02*
X54015500Y-10245800D01*
X56843000Y-7352800D02*
X56843000Y-4687800D01*
X44024200Y-19125600D02*
X45170800Y-17979000D01*
X41630200Y12119600D02*
X39690600Y14059200D01*
X47612100Y-17979000D02*
X47612100Y-17445400D01*
%TO.N,Net 44*%
X39471200Y-14387600D02*
X39471200Y-8964200D01*
X41455300Y-6980100D02*
X50110700Y-6980100D01*
X50110700Y-6980100D02*
X50958500Y-6132300D01*
X39471200Y-8964200D02*
X41455400Y-6980000D01*
%TO.N,Net 39*%
X41779400Y-19975700D02*
X41779400Y-18691100D01*
X36373800Y-18703000D02*
X36373800Y-12141600D01*
X41779300Y-18691000D02*
X40533700Y-17445400D01*
X36373800Y-12141600D02*
X38904600Y-9610800D01*
X40533700Y-17445400D02*
X40533700Y-16162600D01*
%TO.N,Net 52*%
X34703400Y-18310500D02*
X34703600Y-18310300D01*
D15*
X37812500Y-18310700D02*
X37812500Y-17204900D01*
X39471400Y-15167900D02*
X40251600Y-14387700D01*
X45145300Y-14387700D02*
X46770300Y-16012700D01*
X39471400Y-15546000D02*
X39471400Y-15167800D01*
D14*
X37812500Y-18310700D02*
X37812700Y-18310500D01*
D15*
X37812400Y-17205000D02*
X39471400Y-15546000D01*
X40251600Y-14387700D02*
X45145400Y-14387700D01*
D14*
X35690200Y-18310500D02*
X34703400Y-18310500D01*
%TO.N,Net 5*%
X40112800Y-21915100D02*
X39471400Y-21273700D01*
X45743000Y-21915100D02*
X40112800Y-21915100D01*
D16*
X40533700Y-15294000D02*
X40533700Y-15565800D01*
D14*
X39471400Y-21273800D02*
X39471400Y-16356200D01*
X39471400Y-16356200D02*
X40533600Y-15294000D01*
D16*
X40533700Y-15565800D02*
X43031300Y-18063400D01*
X48342100Y-18396100D02*
X47540700Y-18396100D01*
X47540700Y-18396100D02*
X46461900Y-19474900D01*
D14*
X46461900Y-19475000D02*
X46461900Y-21196200D01*
X46462000Y-21196200D02*
X45743000Y-21915100D01*
%TO.N,Net 52*%
X54995100Y-15108900D02*
X52919300Y-15108900D01*
X52919300Y-15108800D02*
X51461500Y-13651000D01*
X51461400Y-13651000D02*
X51461600Y-13650800D01*
D16*
X48124100Y-17040300D02*
X47737900Y-17040300D01*
X47737800Y-17040300D02*
X47423800Y-16726300D01*
D14*
%TO.N,Net 51*%
X52625500Y-13650800D02*
X52398900Y-13650800D01*
X52399000Y-13650800D02*
X51783800Y-13035600D01*
%TO.N,Net 13*%
X50748200Y-5074800D02*
X50748200Y-3542800D01*
X50748200Y-3542800D02*
X46453400Y752000D01*
%TO.N,Net 14*%
X53265600Y-2314900D02*
X53016000Y-2314900D01*
X53016100Y-2314900D02*
X51456100Y-754900D01*
X51456100Y-755000D02*
X49170900Y-755000D01*
X49171000Y-755000D02*
X48425000Y-9000D01*
%TD*%
%TA.AperFunction,Conductor*%
%TO.N,GND*%
G36*
X44014000Y-18248000D02*
G01*
X43829000Y-18171000D01*
X43829000Y-17959000D01*
X43775000Y-17754000D01*
X43667000Y-17574000D01*
X43668000Y-17574000D01*
X43523000Y-17427000D01*
X43524000Y-17427000D01*
X43339000Y-17321000D01*
X43340000Y-17321000D01*
X43134000Y-17266000D01*
X43079000Y-17266000D01*
X43024000Y-17243000D01*
X41185000Y-15404000D01*
X41162000Y-15353000D01*
X41152000Y-15131000D01*
X41241000Y-15038000D01*
X44845000Y-15038000D01*
X44900000Y-15061000D01*
X45964000Y-16125000D01*
X45984000Y-16159000D01*
X46028000Y-16321000D01*
X46132000Y-16502000D01*
X46279000Y-16649000D01*
X46465000Y-16757000D01*
X46572000Y-16785000D01*
X46629000Y-16841000D01*
X46683000Y-17036000D01*
X46778000Y-17202000D01*
X46691000Y-17352000D01*
X45265000Y-17352000D01*
X45256000Y-17351000D01*
X45215000Y-17352000D01*
X45126000Y-17352000D01*
X45116000Y-17353000D01*
X45114000Y-17353000D01*
X45101000Y-17355000D01*
X45069000Y-17356000D01*
X45013000Y-17373000D01*
X45005000Y-17375000D01*
X44953000Y-17385000D01*
X44931000Y-17397000D01*
X44919000Y-17402000D01*
X44881000Y-17414000D01*
X44825000Y-17454000D01*
X44819000Y-17458000D01*
X44780000Y-17480000D01*
X44773000Y-17485000D01*
X44742000Y-17520000D01*
X44014000Y-18248000D01*
G37*
%TD.AperFunction*%
%TA.AperFunction,Conductor*%
G36*
X35881000Y-11752000D02*
G01*
X35856000Y-11777000D01*
X35831000Y-11828000D01*
X35826000Y-11836000D01*
X35798000Y-11880000D01*
X35795000Y-11887000D01*
X35788000Y-11913000D01*
X35783000Y-11928000D01*
X35771000Y-11951000D01*
X35771000Y-11952000D01*
X35763000Y-12008000D01*
X35761000Y-12018000D01*
X35745000Y-12076000D01*
X35747000Y-12129000D01*
X35747000Y-17425000D01*
X35659000Y-17513000D01*
X35587000Y-17513000D01*
X35383000Y-17567000D01*
X35378000Y-17569000D01*
X35236000Y-17651000D01*
X35156000Y-17651000D01*
X35016000Y-17570000D01*
X34809000Y-17513000D01*
X34598000Y-17513000D01*
X34393000Y-17570000D01*
X34215000Y-17672000D01*
X34066000Y-17821000D01*
X33957000Y-18009000D01*
X33906000Y-18205000D01*
X33906000Y-18414000D01*
X33959000Y-18615000D01*
X33961000Y-18620000D01*
X34067000Y-18802000D01*
X34214000Y-18949000D01*
X34217000Y-18951000D01*
X34396000Y-19053000D01*
X34601000Y-19108000D01*
X34806000Y-19108000D01*
X35012000Y-19053000D01*
X35011000Y-19053000D01*
X35156000Y-18970000D01*
X35236000Y-18970000D01*
X35378000Y-19052000D01*
X35383000Y-19054000D01*
X35587000Y-19108000D01*
X35640000Y-19108000D01*
X35709000Y-19148000D01*
X35734000Y-19190000D01*
X35737000Y-19194000D01*
X35884000Y-19341000D01*
X36071000Y-19448000D01*
X36268000Y-19500000D01*
X36477000Y-19500000D01*
X36682000Y-19446000D01*
X36683000Y-19445000D01*
X36863000Y-19341000D01*
X37009000Y-19196000D01*
X37011000Y-19194000D01*
X37151000Y-18951000D01*
X37271000Y-18919000D01*
X37505000Y-19053000D01*
X37710000Y-19108000D01*
X37915000Y-19108000D01*
X38121000Y-19053000D01*
X38120000Y-19053000D01*
X38299000Y-18951000D01*
X38302000Y-18949000D01*
X38449000Y-18802000D01*
X38488000Y-18737000D01*
X38557000Y-18619000D01*
X38606000Y-18509000D01*
X38844000Y-18559000D01*
X38844000Y-21182000D01*
X38843000Y-21195000D01*
X38844000Y-21246000D01*
X38844000Y-21319000D01*
X38845000Y-21327000D01*
X38844000Y-21327000D01*
X38846000Y-21336000D01*
X38847000Y-21345000D01*
X38848000Y-21378000D01*
X38868000Y-21443000D01*
X38871000Y-21453000D01*
X38880000Y-21499000D01*
X38892000Y-21520000D01*
X38898000Y-21534000D01*
X38905000Y-21557000D01*
X38907000Y-21560000D01*
X38939000Y-21605000D01*
X38976000Y-21671000D01*
X39032000Y-21721000D01*
X39036000Y-21724000D01*
X39195000Y-21884000D01*
X39118000Y-22069000D01*
X32349000Y-22078000D01*
X30398000Y-22080000D01*
X30338000Y-21858000D01*
X30652000Y-21676000D01*
X30653000Y-21675000D01*
X30893000Y-21436000D01*
X31063000Y-21140000D01*
X31152000Y-20808000D01*
X31152000Y-20473000D01*
X31063000Y-20141000D01*
X30893000Y-19846000D01*
X30654000Y-19607000D01*
X30358000Y-19437000D01*
X30359000Y-19437000D01*
X30026000Y-19348000D01*
X29691000Y-19348000D01*
X29359000Y-19437000D01*
X29064000Y-19607000D01*
X28825000Y-19846000D01*
X28655000Y-20141000D01*
X28566000Y-20473000D01*
X28566000Y-20808000D01*
X28655000Y-21140000D01*
X28825000Y-21436000D01*
X29065000Y-21675000D01*
X29066000Y-21676000D01*
X29381000Y-21859000D01*
X29321000Y-22081000D01*
X22201000Y-22088000D01*
X12051000Y-22094000D01*
X1901000Y-22099000D01*
X-8249000Y-22100000D01*
X-18399000Y-22099000D01*
X-28549000Y-22094000D01*
X-38699000Y-22088000D01*
X-48849000Y-22078000D01*
X-58999000Y-22065000D01*
X-68912000Y-22050000D01*
X-68990000Y-21993000D01*
X-69462265Y-20592000D01*
X26962000Y-20592000D01*
X26962000Y-20692000D01*
X26989000Y-20792000D01*
X27041000Y-20883000D01*
X27043000Y-20885000D01*
X27110000Y-20953000D01*
X27119000Y-20960000D01*
X27205000Y-21009000D01*
X27310000Y-21037000D01*
X27408000Y-21037000D01*
X27514000Y-21009000D01*
X27513000Y-21009000D01*
X27599000Y-20960000D01*
X27601000Y-20959000D01*
X27677000Y-20883000D01*
X27726000Y-20798000D01*
X27755000Y-20691000D01*
X27755000Y-20592000D01*
X27727000Y-20487000D01*
X27675000Y-20396000D01*
X27601000Y-20322000D01*
X27513000Y-20272000D01*
X27514000Y-20272000D01*
X27409000Y-20244000D01*
X27309000Y-20244000D01*
X27205000Y-20272000D01*
X27118000Y-20322000D01*
X27108000Y-20329000D01*
X27043000Y-20396000D01*
X26990000Y-20487000D01*
X26962000Y-20592000D01*
X-69462265Y-20592000D01*
X-69588000Y-20219000D01*
X-70263000Y-18216000D01*
X-70936000Y-16214000D01*
X-71609000Y-14210000D01*
X-72281000Y-12207000D01*
X-72977000Y-10131000D01*
X-72976000Y-10129000D01*
X-73622000Y-8198000D01*
X-74291000Y-6194000D01*
X-74960000Y-4189000D01*
X-76296000Y-177000D01*
X-76946000Y1781000D01*
X-76950000Y1804000D01*
X-76965000Y3801000D01*
X-76978000Y5851000D01*
X-76978000Y5852000D01*
X-76988000Y7902000D01*
X-76994000Y9950000D01*
X-76999000Y12000000D01*
X-77000000Y14050000D01*
X-76999000Y16099000D01*
X-76999000Y16100000D01*
X-76994000Y18150000D01*
X-76988000Y20198000D01*
X-76978000Y22248000D01*
X-76965000Y24298000D01*
X-76952000Y26111000D01*
X-76895000Y26189000D01*
X-75107000Y26791000D01*
X-73094000Y27468000D01*
X-71080000Y28145000D01*
X-69067000Y28822000D01*
X-67054000Y29497000D01*
X-65042000Y30173000D01*
X-63029000Y30847000D01*
X-61017000Y31522000D01*
X-59005000Y32195000D01*
X-56994000Y32868000D01*
X-54982000Y33541000D01*
X-53022000Y34196000D01*
X-52998000Y34200000D01*
X-44243000Y34203000D01*
X-35434000Y34206000D01*
X-17818000Y34206000D01*
X-9009000Y34203000D01*
X-201000Y34200000D01*
X8607000Y34195000D01*
X17416000Y34189000D01*
X26224000Y34181000D01*
X35032000Y34172000D01*
X43841000Y34162000D01*
X52461000Y34150000D01*
X52530000Y34110000D01*
X53825000Y31919000D01*
X55212000Y29563000D01*
X56597000Y27206000D01*
X57977000Y24850000D01*
X59356000Y22490000D01*
X60733000Y20127000D01*
X62106000Y17765000D01*
X63477000Y15400000D01*
X64846000Y13033000D01*
X66210000Y10667000D01*
X67573000Y8297000D01*
X68839000Y6091000D01*
X68839000Y6010000D01*
X67573000Y3804000D01*
X66210000Y1434000D01*
X64845000Y-933000D01*
X63477000Y-3299000D01*
X62106000Y-5664000D01*
X60733000Y-8028000D01*
X60732000Y-8028000D01*
X59356000Y-10389000D01*
X57977000Y-12749000D01*
X56596000Y-15107000D01*
X55212000Y-17463000D01*
X53825000Y-19819000D01*
X52531000Y-22010000D01*
X52462000Y-22050000D01*
X46749000Y-22058000D01*
X46672000Y-21873000D01*
X46941000Y-21605000D01*
X46943000Y-21602000D01*
X46949000Y-21594000D01*
X46955000Y-21587000D01*
X46979000Y-21562000D01*
X46981000Y-21559000D01*
X47009000Y-21505000D01*
X47012000Y-21499000D01*
X47038000Y-21459000D01*
X47041000Y-21450000D01*
X47047000Y-21428000D01*
X47052000Y-21414000D01*
X47066000Y-21385000D01*
X47074000Y-21327000D01*
X47076000Y-21319000D01*
X47091000Y-21263000D01*
X47089000Y-21216000D01*
X47089000Y-19692000D01*
X47112000Y-19637000D01*
X47720000Y-19029000D01*
X47821000Y-19016000D01*
X48032000Y-19137000D01*
X48238000Y-19194000D01*
X48446000Y-19194000D01*
X48653000Y-19137000D01*
X48652000Y-19137000D01*
X48829000Y-19036000D01*
X48832000Y-19034000D01*
X48980000Y-18886000D01*
X49083000Y-18706000D01*
X49140000Y-18500000D01*
X49140000Y-18292000D01*
X49083000Y-18086000D01*
X48980000Y-17906000D01*
X48936000Y-17862000D01*
X48936000Y-17738000D01*
X51436000Y-15239000D01*
X51442000Y-15231000D01*
X51447000Y-15225000D01*
X51477000Y-15193000D01*
X51502000Y-15142000D01*
X51506000Y-15134000D01*
X51537000Y-15087000D01*
X51544000Y-15059000D01*
X51549000Y-15045000D01*
X51564000Y-15015000D01*
X51580000Y-14894000D01*
X51757000Y-14834000D01*
X52508000Y-15586000D01*
X52516000Y-15591000D01*
X52531000Y-15602000D01*
X52555000Y-15627000D01*
X52606000Y-15652000D01*
X52614000Y-15657000D01*
X52660000Y-15686000D01*
X52690000Y-15694000D01*
X52706000Y-15700000D01*
X52729000Y-15712000D01*
X52786000Y-15720000D01*
X52796000Y-15722000D01*
X52854000Y-15738000D01*
X52899000Y-15736000D01*
X54466000Y-15736000D01*
X54504000Y-15746000D01*
X54692000Y-15854000D01*
X54889000Y-15906000D01*
X55101000Y-15906000D01*
X55298000Y-15854000D01*
X55485000Y-15747000D01*
X55633000Y-15599000D01*
X55740000Y-15412000D01*
X55792000Y-15215000D01*
X55792000Y-15003000D01*
X55740000Y-14806000D01*
X55633000Y-14619000D01*
X55485000Y-14471000D01*
X55305000Y-14368000D01*
X55306000Y-14368000D01*
X55099000Y-14311000D01*
X54891000Y-14311000D01*
X54685000Y-14368000D01*
X54504000Y-14472000D01*
X54466000Y-14482000D01*
X53184000Y-14482000D01*
X53107000Y-14297000D01*
X53262000Y-14142000D01*
X53367000Y-13962000D01*
X53370000Y-13955000D01*
X53423000Y-13755000D01*
X53423000Y-13545000D01*
X53371000Y-13348000D01*
X53264000Y-13161000D01*
X53263000Y-13160000D01*
X53114000Y-13012000D01*
X52936000Y-12910000D01*
X52731000Y-12853000D01*
X52624000Y-12853000D01*
X52543000Y-12789000D01*
X52517000Y-12685000D01*
X52538000Y-12609000D01*
X54189892Y-10958000D01*
X55561000Y-10958000D01*
X55561000Y-11036000D01*
X55585000Y-11125000D01*
X55624000Y-11193000D01*
X55626000Y-11196000D01*
X55684000Y-11254000D01*
X56205000Y-11555000D01*
X56277000Y-11596000D01*
X56363000Y-11619000D01*
X56442000Y-11619000D01*
X56529000Y-11596000D01*
X56531000Y-11595000D01*
X56599000Y-11556000D01*
X56601000Y-11555000D01*
X56660000Y-11496000D01*
X56662000Y-11493000D01*
X56701000Y-11425000D01*
X56702000Y-11423000D01*
X56725000Y-11336000D01*
X56725000Y-11258000D01*
X56702000Y-11171000D01*
X56662000Y-11101000D01*
X56660000Y-11098000D01*
X56602000Y-11040000D01*
X56009000Y-10698000D01*
X56010000Y-10698000D01*
X55923000Y-10675000D01*
X55844000Y-10675000D01*
X55757000Y-10698000D01*
X55755000Y-10699000D01*
X55687000Y-10738000D01*
X55684000Y-10740000D01*
X55626000Y-10798000D01*
X55624000Y-10801000D01*
X55585000Y-10869000D01*
X55584000Y-10871000D01*
X55561000Y-10958000D01*
X54189892Y-10958000D01*
X54390000Y-10758000D01*
X54491000Y-10657000D01*
X54504000Y-10643000D01*
X54507000Y-10639000D01*
X54531000Y-10614000D01*
X54534000Y-10610000D01*
X54563000Y-10550000D01*
X54569000Y-10539000D01*
X54593000Y-10505000D01*
X54599000Y-10491000D01*
X54615000Y-10467000D01*
X57321000Y-7762000D01*
X57323000Y-7758000D01*
X57336000Y-7741000D01*
X57361000Y-7716000D01*
X57386000Y-7665000D01*
X57391000Y-7657000D01*
X57420000Y-7611000D01*
X57428000Y-7581000D01*
X57434000Y-7565000D01*
X57446000Y-7542000D01*
X57454000Y-7485000D01*
X57456000Y-7475000D01*
X57472000Y-7417000D01*
X57470000Y-7372000D01*
X57470000Y-4980000D01*
X57493000Y-4925000D01*
X58943752Y-3475000D01*
X59881000Y-3475000D01*
X59881000Y-3554000D01*
X59904000Y-3641000D01*
X59905000Y-3642000D01*
X59946000Y-3713000D01*
X60004000Y-3771000D01*
X60525000Y-4072000D01*
X60600000Y-4115000D01*
X60681000Y-4137000D01*
X60762000Y-4137000D01*
X60848000Y-4114000D01*
X60851000Y-4113000D01*
X60920000Y-4073000D01*
X60980000Y-4013000D01*
X61022000Y-3940000D01*
X61045000Y-3854000D01*
X61045000Y-3775000D01*
X61022000Y-3689000D01*
X60981000Y-3617000D01*
X60920000Y-3556000D01*
X60332000Y-3216000D01*
X60329000Y-3215000D01*
X60243000Y-3192000D01*
X60164000Y-3192000D01*
X60078000Y-3215000D01*
X60075000Y-3216000D01*
X60006000Y-3256000D01*
X59946000Y-3316000D01*
X59904000Y-3389000D01*
X59881000Y-3475000D01*
X58943752Y-3475000D01*
X59421000Y-2998000D01*
X59456000Y-2978000D01*
X59653000Y-2926000D01*
X59840000Y-2819000D01*
X59841000Y-2818000D01*
X59989000Y-2669000D01*
X60091000Y-2491000D01*
X60148000Y-2286000D01*
X60148000Y-2075000D01*
X60091000Y-1868000D01*
X59988000Y-1691000D01*
X59843000Y-1546000D01*
X59842000Y-1546000D01*
X59661000Y-1438000D01*
X59660000Y-1438000D01*
X59455000Y-1383000D01*
X59244000Y-1383000D01*
X59039000Y-1437000D01*
X58860000Y-1544000D01*
X58858000Y-1546000D01*
X58713000Y-1690000D01*
X58712000Y-1691000D01*
X58608000Y-1873000D01*
X58607000Y-1876000D01*
X58553000Y-2077000D01*
X58533000Y-2111000D01*
X57608000Y-3035000D01*
X57441000Y-2991000D01*
X57376000Y-2751000D01*
X57265000Y-2558000D01*
X57046000Y-2339000D01*
X57164000Y-2139000D01*
X57279000Y-2172000D01*
X57361000Y-2172000D01*
X57443000Y-2150000D01*
X57444000Y-2150000D01*
X57514000Y-2108000D01*
X57520000Y-2104000D01*
X57575000Y-2049000D01*
X57580000Y-2042000D01*
X57620000Y-1974000D01*
X57620000Y-1973000D01*
X57642000Y-1891000D01*
X57642000Y-1808000D01*
X57620000Y-1726000D01*
X57620000Y-1725000D01*
X57580000Y-1657000D01*
X57575000Y-1649000D01*
X57518000Y-1593000D01*
X57516000Y-1591000D01*
X56495000Y-1001000D01*
X56492000Y-1000000D01*
X56406000Y-977000D01*
X56325000Y-977000D01*
X56243000Y-999000D01*
X56172000Y-1041000D01*
X56167000Y-1045000D01*
X56111000Y-1100000D01*
X56106000Y-1107000D01*
X56066000Y-1175000D01*
X56066000Y-1176000D01*
X56044000Y-1258000D01*
X56044000Y-1341000D01*
X56066000Y-1423000D01*
X56066000Y-1424000D01*
X56106000Y-1492000D01*
X56108000Y-1494000D01*
X56112000Y-1499000D01*
X56169000Y-1557000D01*
X56170000Y-1558000D01*
X57015000Y-2046000D01*
X56914000Y-2289000D01*
X56698000Y-2231000D01*
X56476000Y-2231000D01*
X56260000Y-2289000D01*
X56259000Y-2290000D01*
X56067000Y-2400000D01*
X55909000Y-2558000D01*
X55798000Y-2751000D01*
X55740000Y-2967000D01*
X55740000Y-3190000D01*
X55798000Y-3405000D01*
X55799000Y-3406000D01*
X55909000Y-3598000D01*
X56067000Y-3756000D01*
X56259000Y-3866000D01*
X56260000Y-3867000D01*
X56500000Y-3932000D01*
X56544000Y-4099000D01*
X56364000Y-4279000D01*
X56360000Y-4284000D01*
X56360000Y-4285000D01*
X56353000Y-4293000D01*
X56348000Y-4299000D01*
X56326000Y-4321000D01*
X56324000Y-4325000D01*
X56296000Y-4379000D01*
X56293000Y-4385000D01*
X56266000Y-4427000D01*
X56264000Y-4433000D01*
X56257000Y-4459000D01*
X56252000Y-4474000D01*
X56240000Y-4497000D01*
X56229000Y-4563000D01*
X56228000Y-4570000D01*
X56214000Y-4622000D01*
X56216000Y-4668000D01*
X56216000Y-7060000D01*
X56193000Y-7115000D01*
X54642000Y-8666000D01*
X54437000Y-8531000D01*
X54485000Y-8413000D01*
X54544000Y-8193000D01*
X54544000Y-7973000D01*
X54486000Y-7758000D01*
X54376000Y-7565000D01*
X54219000Y-7408000D01*
X54025000Y-7295000D01*
X53808000Y-7237000D01*
X53586000Y-7237000D01*
X53369000Y-7295000D01*
X53175000Y-7408000D01*
X53018000Y-7565000D01*
X52908000Y-7758000D01*
X52850000Y-7973000D01*
X52850000Y-8193000D01*
X52909000Y-8412000D01*
X52910000Y-8414000D01*
X53018000Y-8604000D01*
X53019000Y-8605000D01*
X53177000Y-8761000D01*
X53017000Y-8971000D01*
X52172000Y-8483000D01*
X52173000Y-8483000D01*
X52086000Y-8460000D01*
X52007000Y-8460000D01*
X51921000Y-8483000D01*
X51848000Y-8525000D01*
X51788000Y-8585000D01*
X51747000Y-8656000D01*
X51747000Y-8657000D01*
X51724000Y-8743000D01*
X51724000Y-8821000D01*
X51747000Y-8907000D01*
X51748000Y-8910000D01*
X51788000Y-8979000D01*
X51850000Y-9041000D01*
X52783000Y-9579000D01*
X52785000Y-9580000D01*
X52874000Y-9631000D01*
X52960000Y-9654000D01*
X53039000Y-9654000D01*
X53126000Y-9631000D01*
X53125000Y-9631000D01*
X53198000Y-9589000D01*
X53258000Y-9529000D01*
X53298000Y-9460000D01*
X53299000Y-9457000D01*
X53322000Y-9371000D01*
X53322000Y-9293000D01*
X53299000Y-9207000D01*
X53298000Y-9204000D01*
X53258000Y-9135000D01*
X53172000Y-9049000D01*
X53288000Y-8850000D01*
X53587000Y-8931000D01*
X53808000Y-8931000D01*
X54023000Y-8873000D01*
X54138000Y-8821000D01*
X54281000Y-9027000D01*
X53533000Y-9774000D01*
X53532000Y-9776000D01*
X53526000Y-9785000D01*
X53518000Y-9795000D01*
X53497000Y-9817000D01*
X53496000Y-9818000D01*
X53465000Y-9880000D01*
X53437000Y-9921000D01*
X53433000Y-9932000D01*
X53416000Y-9957000D01*
X50479000Y-12893000D01*
X50467000Y-12910000D01*
X50459000Y-12919000D01*
X50442000Y-12938000D01*
X50438000Y-12943000D01*
X50413000Y-12993000D01*
X50382000Y-13040000D01*
X50379000Y-13045000D01*
X50369000Y-13083000D01*
X50364000Y-13095000D01*
X50358000Y-13107000D01*
X50356000Y-13114000D01*
X50346000Y-13171000D01*
X50345000Y-13177000D01*
X50329000Y-13236000D01*
X50332000Y-13309000D01*
X50332000Y-14536000D01*
X50309000Y-14591000D01*
X48585000Y-16314000D01*
X48484000Y-16327000D01*
X48427000Y-16295000D01*
X48428000Y-16295000D01*
X48230000Y-16243000D01*
X48100000Y-16243000D01*
X48045000Y-16220000D01*
X47915000Y-16090000D01*
X47729000Y-15982000D01*
X47623000Y-15954000D01*
X47566000Y-15898000D01*
X47514000Y-15708000D01*
X47511000Y-15701000D01*
X47408000Y-15523000D01*
X47264000Y-15379000D01*
X47258000Y-15375000D01*
X47079000Y-15269000D01*
X46918000Y-15227000D01*
X46884000Y-15207000D01*
X45655000Y-13978000D01*
X45645000Y-13966000D01*
X45637000Y-13955000D01*
X45635000Y-13952000D01*
X45604000Y-13926000D01*
X45598000Y-13922000D01*
X45580000Y-13903000D01*
X45575000Y-13899000D01*
X45550000Y-13881000D01*
X45545000Y-13877000D01*
X45494000Y-13833000D01*
X45479000Y-13827000D01*
X45465000Y-13819000D01*
X45447000Y-13806000D01*
X45391000Y-13787000D01*
X45385000Y-13784000D01*
X45329000Y-13759000D01*
X45311000Y-13757000D01*
X45297000Y-13754000D01*
X45271000Y-13745000D01*
X45205000Y-13742000D01*
X45187000Y-13739000D01*
X45177000Y-13738000D01*
X45151000Y-13738000D01*
X45088000Y-13735000D01*
X45081000Y-13737000D01*
X45066000Y-13738000D01*
X42618000Y-13738000D01*
X42583000Y-13477000D01*
X42795000Y-13420000D01*
X42796000Y-13420000D01*
X42977000Y-13312000D01*
X42979000Y-13312000D01*
X43123000Y-13167000D01*
X43226000Y-12990000D01*
X43283000Y-12783000D01*
X43283000Y-12572000D01*
X43226000Y-12367000D01*
X43124000Y-12189000D01*
X42976000Y-12040000D01*
X42975000Y-12039000D01*
X42789000Y-11932000D01*
X42589000Y-11879000D01*
X42555000Y-11859000D01*
X41869000Y-11173000D01*
X41858000Y-11166000D01*
X41848000Y-11158000D01*
X41830000Y-11140000D01*
X41824000Y-11137000D01*
X41773000Y-11111000D01*
X41726000Y-11080000D01*
X41719000Y-11077000D01*
X41691000Y-11069000D01*
X41658000Y-11050000D01*
X41624000Y-11017000D01*
X41623000Y-11016000D01*
X41445000Y-10914000D01*
X41240000Y-10857000D01*
X41029000Y-10857000D01*
X40822000Y-10914000D01*
X40645000Y-11017000D01*
X40501000Y-11161000D01*
X40499000Y-11164000D01*
X40392000Y-11345000D01*
X40361000Y-11467000D01*
X40098000Y-11435000D01*
X40098000Y-9256000D01*
X40121000Y-9201000D01*
X41693000Y-7630000D01*
X41748000Y-7607000D01*
X50021000Y-7607000D01*
X50031000Y-7608000D01*
X50069000Y-7607000D01*
X50156000Y-7607000D01*
X50164000Y-7606000D01*
X50164000Y-7607000D01*
X50173000Y-7605000D01*
X50182000Y-7604000D01*
X50216000Y-7603000D01*
X50272000Y-7586000D01*
X50279000Y-7584000D01*
X50330000Y-7573000D01*
X50351000Y-7562000D01*
X50364000Y-7556000D01*
X50396000Y-7546000D01*
X50395000Y-7546000D01*
X50444000Y-7510000D01*
X50507000Y-7475000D01*
X50551000Y-7427000D01*
X50554000Y-7424000D01*
X51028000Y-6951000D01*
X51061000Y-6932000D01*
X51262000Y-6876000D01*
X51269000Y-6873000D01*
X51447000Y-6771000D01*
X51596000Y-6623000D01*
X51597000Y-6622000D01*
X51704000Y-6435000D01*
X51756000Y-6238000D01*
X51756000Y-6029000D01*
X51703000Y-5828000D01*
X51701000Y-5823000D01*
X51595000Y-5641000D01*
X51483000Y-5529000D01*
X51467000Y-5433000D01*
X51487000Y-5394000D01*
X51488000Y-5391000D01*
X51546000Y-5179000D01*
X51546000Y-4971000D01*
X51489000Y-4765000D01*
X51385000Y-4584000D01*
X51375000Y-4546000D01*
X51375000Y-3632000D01*
X51376000Y-3626000D01*
X51375000Y-3594000D01*
X51375000Y-3498000D01*
X51374000Y-3490000D01*
X51375000Y-3490000D01*
X51373000Y-3481000D01*
X51372000Y-3472000D01*
X51371000Y-3440000D01*
X51370000Y-3432000D01*
X51352000Y-3375000D01*
X51350000Y-3367000D01*
X51341000Y-3321000D01*
X51329000Y-3299000D01*
X51324000Y-3287000D01*
X51316000Y-3262000D01*
X51311000Y-3254000D01*
X51274000Y-3202000D01*
X51270000Y-3194000D01*
X51244000Y-3147000D01*
X51243000Y-3146000D01*
X51205000Y-3112000D01*
X51201000Y-3109000D01*
X49660000Y-1567000D01*
X49737000Y-1382000D01*
X51164000Y-1382000D01*
X51219000Y-1405000D01*
X52606000Y-2793000D01*
X52610000Y-2795000D01*
X52627000Y-2808000D01*
X52655000Y-2836000D01*
X52661000Y-2840000D01*
X52671000Y-2848000D01*
X52776000Y-2953000D01*
X52779000Y-2955000D01*
X52958000Y-3057000D01*
X53163000Y-3112000D01*
X53368000Y-3112000D01*
X53574000Y-3057000D01*
X53576000Y-3056000D01*
X53750000Y-2957000D01*
X53753000Y-2955000D01*
X53901000Y-2808000D01*
X53904000Y-2805000D01*
X54011000Y-2618000D01*
X54063000Y-2421000D01*
X54063000Y-2209000D01*
X54011000Y-2012000D01*
X53903000Y-1825000D01*
X53754000Y-1676000D01*
X53576000Y-1574000D01*
X53577000Y-1574000D01*
X53371000Y-1517000D01*
X53138000Y-1517000D01*
X53083000Y-1494000D01*
X51906000Y-317000D01*
X51983000Y-132000D01*
X56839000Y-132000D01*
X56877000Y-142000D01*
X57065000Y-250000D01*
X57262000Y-302000D01*
X57471000Y-302000D01*
X57676000Y-248000D01*
X57677000Y-247000D01*
X57857000Y-143000D01*
X58005000Y4000D01*
X58113000Y192000D01*
X58165000Y389000D01*
X58165000Y601000D01*
X58113000Y798000D01*
X58006000Y985000D01*
X58005000Y986000D01*
X57856000Y1134000D01*
X57855000Y1135000D01*
X57682000Y1236000D01*
X57472000Y1293000D01*
X57264000Y1293000D01*
X57058000Y1236000D01*
X56877000Y1132000D01*
X56839000Y1122000D01*
X47982000Y1122000D01*
X47927000Y1145000D01*
X44820000Y4253000D01*
X44797000Y4308000D01*
X44797000Y7983000D01*
X44798000Y7992000D01*
X44797000Y8033000D01*
X44797000Y8120000D01*
X44796000Y8128000D01*
X44797000Y8128000D01*
X44795000Y8137000D01*
X44794000Y8146000D01*
X44793000Y8180000D01*
X44776000Y8236000D01*
X44774000Y8243000D01*
X44763000Y8294000D01*
X44752000Y8315000D01*
X44746000Y8328000D01*
X44737000Y8357000D01*
X44736000Y8359000D01*
X44700000Y8408000D01*
X44695000Y8417000D01*
X44664000Y8472000D01*
X44617000Y8515000D01*
X44614000Y8518000D01*
X42280000Y10853000D01*
X42257000Y10908000D01*
X42257000Y12027000D01*
X42258000Y12036000D01*
X42257000Y12077000D01*
X42257000Y12163000D01*
X42256000Y12173000D01*
X42257000Y12173000D01*
X42255000Y12182000D01*
X42254000Y12191000D01*
X42253000Y12224000D01*
X42233000Y12289000D01*
X42230000Y12299000D01*
X42222000Y12343000D01*
X42221000Y12344000D01*
X42209000Y12366000D01*
X42203000Y12380000D01*
X42197000Y12401000D01*
X42196000Y12403000D01*
X42168000Y12443000D01*
X42163000Y12450000D01*
X42127000Y12515000D01*
X42125000Y12517000D01*
X42069000Y12567000D01*
X42065000Y12570000D01*
X40509000Y14128000D01*
X40496647Y14149000D01*
X48238000Y14149000D01*
X48238000Y13963000D01*
X48286000Y13794000D01*
X48291000Y13782000D01*
X48377000Y13630000D01*
X48378000Y13629000D01*
X48506000Y13504000D01*
X48509000Y13502000D01*
X48665000Y13408000D01*
X48670000Y13406000D01*
X48843000Y13361000D01*
X48954000Y13361000D01*
X49041000Y13214000D01*
X48990000Y13122000D01*
X48984000Y13108000D01*
X48938000Y12943000D01*
X48938000Y12757000D01*
X48988000Y12573000D01*
X49079000Y12417000D01*
X49207000Y12289000D01*
X49363000Y12198000D01*
X49367000Y12197000D01*
X49540000Y12148000D01*
X49734000Y12148000D01*
X49934000Y12204000D01*
X50012000Y12184000D01*
X50163000Y12033000D01*
X50319000Y11942000D01*
X50503000Y11892000D01*
X50689000Y11892000D01*
X50862000Y11941000D01*
X50866000Y11942000D01*
X51022000Y12033000D01*
X51150000Y12161000D01*
X51241000Y12317000D01*
X51242000Y12319000D01*
X51291000Y12494000D01*
X51291000Y12608000D01*
X51438000Y12695000D01*
X51530000Y12644000D01*
X51542000Y12639000D01*
X51709000Y12592000D01*
X51895000Y12592000D01*
X52079000Y12642000D01*
X52235000Y12733000D01*
X52365000Y12863000D01*
X52458000Y13025000D01*
X52503000Y13198000D01*
X52503000Y13383000D01*
X52449000Y13591000D01*
X52470000Y13668000D01*
X52619000Y13817000D01*
X52710000Y13973000D01*
X52760000Y14157000D01*
X52760000Y14343000D01*
X52714000Y14508000D01*
X52709000Y14521000D01*
X52621000Y14676000D01*
X52620000Y14677000D01*
X52493000Y14802000D01*
X52331000Y14898000D01*
X52326000Y14900000D01*
X52153000Y14945000D01*
X52044000Y14945000D01*
X51957000Y15092000D01*
X52007000Y15181000D01*
X52012000Y15194000D01*
X52060000Y15363000D01*
X52060000Y15549000D01*
X52010000Y15733000D01*
X51919000Y15889000D01*
X51791000Y16017000D01*
X51626000Y16112000D01*
X51452000Y16157000D01*
X51270000Y16157000D01*
X51061000Y16103000D01*
X50984000Y16124000D01*
X50835000Y16273000D01*
X50679000Y16364000D01*
X50495000Y16414000D01*
X50309000Y16414000D01*
X50140000Y16366000D01*
X50132000Y16363000D01*
X49979000Y16277000D01*
X49845000Y16143000D01*
X49752000Y15981000D01*
X49707000Y15806000D01*
X49707000Y15697000D01*
X49555000Y15610000D01*
X49464000Y15664000D01*
X49462000Y15665000D01*
X49289000Y15714000D01*
X49103000Y15714000D01*
X48919000Y15664000D01*
X48763000Y15573000D01*
X48635000Y15445000D01*
X48544000Y15289000D01*
X48543000Y15285000D01*
X48494000Y15112000D01*
X48494000Y14918000D01*
X48550000Y14718000D01*
X48530000Y14640000D01*
X48379000Y14489000D01*
X48288000Y14332000D01*
X48238000Y14149000D01*
X40496647Y14149000D01*
X40489000Y14162000D01*
X40436000Y14362000D01*
X40329000Y14549000D01*
X40328000Y14550000D01*
X40179000Y14698000D01*
X40001000Y14800000D01*
X40002000Y14800000D01*
X39796000Y14857000D01*
X39585000Y14857000D01*
X39378000Y14800000D01*
X39201000Y14697000D01*
X39056000Y14552000D01*
X39056000Y14551000D01*
X38948000Y14370000D01*
X38948000Y14369000D01*
X38893000Y14163000D01*
X38893000Y13953000D01*
X38947000Y13748000D01*
X39054000Y13569000D01*
X39056000Y13567000D01*
X39200000Y13422000D01*
X39201000Y13421000D01*
X39383000Y13317000D01*
X39585000Y13263000D01*
X39619000Y13243000D01*
X40980000Y11881000D01*
X41003000Y11826000D01*
X41003000Y10705000D01*
X41002000Y10692000D01*
X41003000Y10657000D01*
X41003000Y10570000D01*
X41004000Y10562000D01*
X41003000Y10562000D01*
X41005000Y10553000D01*
X41006000Y10544000D01*
X41007000Y10510000D01*
X41024000Y10454000D01*
X41026000Y10447000D01*
X41037000Y10396000D01*
X41048000Y10375000D01*
X41054000Y10362000D01*
X41064000Y10331000D01*
X41100000Y10282000D01*
X41105000Y10273000D01*
X41136000Y10218000D01*
X41183000Y10175000D01*
X41186000Y10172000D01*
X43520000Y7837000D01*
X43543000Y7782000D01*
X43543000Y4105000D01*
X43542000Y4092000D01*
X43543000Y4057000D01*
X43543000Y3970000D01*
X43544000Y3962000D01*
X43543000Y3962000D01*
X43545000Y3953000D01*
X43546000Y3944000D01*
X43547000Y3910000D01*
X43564000Y3854000D01*
X43566000Y3847000D01*
X43577000Y3796000D01*
X43588000Y3775000D01*
X43594000Y3762000D01*
X43604000Y3731000D01*
X43640000Y3682000D01*
X43645000Y3673000D01*
X43676000Y3618000D01*
X43723000Y3575000D01*
X45875000Y1423000D01*
X45873000Y1297000D01*
X45814000Y1241000D01*
X45814000Y1240000D01*
X45708000Y1055000D01*
X45656000Y858000D01*
X45656000Y646000D01*
X45708000Y449000D01*
X45815000Y262000D01*
X45816000Y261000D01*
X45965000Y113000D01*
X45968000Y111000D01*
X46143000Y11000D01*
X46145000Y10000D01*
X46350000Y-45000D01*
X46384000Y-65000D01*
X50098000Y-3780000D01*
X50121000Y-3835000D01*
X50121000Y-4546000D01*
X50111000Y-4584000D01*
X50002000Y-4772000D01*
X50002000Y-4774000D01*
X49951000Y-4969000D01*
X49951000Y-5178000D01*
X50004000Y-5379000D01*
X50007000Y-5386000D01*
X50112000Y-5566000D01*
X50229000Y-5683000D01*
X50240000Y-5790000D01*
X50214000Y-5828000D01*
X50162000Y-6027000D01*
X50142000Y-6062000D01*
X49873000Y-6330000D01*
X49818000Y-6353000D01*
X41547000Y-6353000D01*
X41538000Y-6352000D01*
X41497000Y-6353000D01*
X41410000Y-6353000D01*
X41402000Y-6354000D01*
X41402000Y-6353000D01*
X41393000Y-6355000D01*
X41384000Y-6356000D01*
X41350000Y-6357000D01*
X41294000Y-6374000D01*
X41287000Y-6376000D01*
X41236000Y-6387000D01*
X41215000Y-6398000D01*
X41202000Y-6404000D01*
X41171000Y-6414000D01*
X41122000Y-6450000D01*
X41113000Y-6455000D01*
X41058000Y-6486000D01*
X41015000Y-6533000D01*
X41012000Y-6536000D01*
X38993000Y-8554000D01*
X38991000Y-8558000D01*
X38978000Y-8575000D01*
X38954000Y-8600000D01*
X38952000Y-8601000D01*
X38921000Y-8663000D01*
X38916000Y-8671000D01*
X38895000Y-8703000D01*
X38893000Y-8707000D01*
X38882000Y-8748000D01*
X38826000Y-8805000D01*
X38599000Y-8868000D01*
X38593000Y-8870000D01*
X38415000Y-8973000D01*
X38270000Y-9118000D01*
X38270000Y-9119000D01*
X38162000Y-9300000D01*
X38161000Y-9303000D01*
X38107000Y-9507000D01*
X38087000Y-9541000D01*
X35896000Y-11731000D01*
X35894000Y-11735000D01*
X35881000Y-11752000D01*
G37*
%TD.AperFunction*%
%TD*%
M02*
