M48
; DRILL file {KiCad 7.0.11-7.0.11~ubuntu20.04.1} date Fri Aug 16 10:10:55 2024
; FORMAT={-:-/ absolute / metric / decimal}
; #@! TF.CreationDate,2024-08-16T10:10:55+00:00
; #@! TF.GenerationSoftware,Kicad,Pcbnew,7.0.11-7.0.11~ubuntu20.04.1
; #@! TF.FileFunction,MixedPlating,1,2
FMAT,2
METRIC
; #@! TA.AperFunction,Plated,PTH,ComponentDrill
T1C0.200
; #@! TA.AperFunction,Plated,PTH,ComponentDrill
T2C0.300
; #@! TA.AperFunction,Plated,PTH,ComponentDrill
T3C0.650
; #@! TA.AperFunction,Plated,PTH,ComponentDrill
T4C0.800
; #@! TA.AperFunction,NonPlated,NPTH,ComponentDrill
T5C0.700
%
G90
G05
T1
X48.936Y14.059
X49.193Y15.015
X49.636Y12.847
X49.893Y13.803
X50.149Y14.759
X50.405Y15.715
X50.593Y12.591
X50.849Y13.547
X51.105Y14.503
X51.361Y15.459
X51.805Y13.291
X52.061Y14.247
T2
X-62.25Y22.65
X-62.25Y7.65
X-62.25Y-7.35
X-47.25Y22.65
X-47.25Y7.65
X-47.25Y-7.35
X-32.25Y22.65
X-32.25Y7.65
X-32.25Y-7.35
X-17.25Y22.65
X-17.25Y7.65
X-17.25Y-7.35
X-2.25Y22.65
X-2.25Y7.65
X-2.25Y-7.35
X12.75Y22.65
X12.75Y7.65
X12.75Y-7.35
X27.75Y22.65
X27.75Y7.65
X27.75Y-7.35
X32.711Y-17.827
X34.703Y-18.311
X35.69Y-18.31
X36.374Y-18.703
X36.623Y-21.566
X37.812Y-18.311
X37.812Y-18.311
X38.212Y-14.388
X38.905Y-9.611
X38.905Y-11.655
X39.471Y-14.388
X39.471Y-14.388
X39.691Y14.059
X40.534Y-16.011
X40.904Y-9.558
X41.135Y-11.655
X41.779Y-19.976
X41.779Y-19.976
X41.779Y-19.976
X42.485Y-12.677
X42.575Y18.265
X42.75Y22.65
X42.75Y7.65
X42.817Y-15.663
X43.031Y-18.063
X44.024Y-18.396
X44.024Y-20.354
X45.461Y4.551
X46.453Y0.752
X46.77Y-16.013
X46.77Y-18.482
X47.264Y-15.663
X47.424Y-16.726
X48.124Y-17.04
X48.342Y-18.396
X48.425Y-0.009
X48.745Y-21.396
X50.748Y-5.075
X50.959Y-6.132
X51.121Y-2.168
X51.462Y-13.651
X51.784Y-13.036
X51.869Y11.714
X52.625Y-13.651
X53.266Y-2.315
X54.995Y-15.109
X55.297Y-6.711
X56.268Y3.351
X56.268Y-0.196
X57.368Y0.495
X59.35Y-2.181
X65.882Y1.307
T4
X27.359Y-20.641
X29.859Y-20.641
T5
X53.697Y-8.084
X56.587Y-3.078
T3
G00X52.047Y-8.782
M15
G01X52.999Y-9.332
M16
G05
G00X55.883Y-10.997
M15
G01X56.403Y-11.297
M16
G05
G00X56.367Y-1.3
M15
G01X57.319Y-1.85
M16
G05
G00X60.203Y-3.515
M15
G01X60.723Y-3.815
M16
G05
M30
